<svg width="256" height="256" viewBox="0 0 256 256" fill="none" xmlns="http://www.w3.org/2000/svg">
<g clip-path="url(#clip0_1251_8956)">
<rect width="256" height="256" fill="white"/>
<g clip-path="url(#clip1_1251_8956)">
<path d="M256 0H0V256H256V0Z" fill="url(#paint0_linear_1251_8956)"/>
<path fill-rule="evenodd" clip-rule="evenodd" d="M178.224 83.0997C189.334 83.0997 197.949 86.9057 204.069 94.5175C210.241 102.078 213.327 112.802 213.327 126.688C213.327 140.575 210.215 151.376 203.992 159.091C197.82 166.754 189.231 170.586 178.224 170.586C172.721 170.586 167.681 169.583 163.103 167.577C158.577 165.52 154.771 162.382 151.685 158.165H150.76L148.06 169.043H138.879V49H151.685V78.1625C151.685 84.6943 151.48 90.5576 151.068 95.7523H151.686C157.652 87.3173 166.498 83.0997 178.224 83.0997ZM176.373 93.8232C167.63 93.8232 161.329 96.3434 157.472 101.384C153.614 106.373 151.685 114.808 151.685 126.688C151.685 138.569 153.666 147.081 157.626 152.225C161.586 157.316 167.938 159.862 176.681 159.862C184.551 159.862 190.414 157.008 194.271 151.299C198.129 145.538 200.057 137.284 200.057 126.534C200.057 115.528 198.129 107.324 194.271 101.924C190.414 96.5234 184.448 93.8232 176.373 93.8232Z" fill="white"/>
<path fill-rule="evenodd" clip-rule="evenodd" d="M79.3185 159.863C87.8563 159.863 94.0796 157.574 97.9885 152.996C101.897 148.419 103.98 140.704 104.237 129.852V126.997C104.237 115.168 102.232 106.656 98.22 101.461C94.2083 96.2664 87.8564 93.6691 79.1642 93.6691C71.655 93.6691 65.8946 96.6007 61.883 102.464C57.9226 108.276 55.9425 116.505 55.9425 127.152C55.9425 137.798 57.897 145.924 61.806 151.53C65.7661 157.085 71.6036 159.862 79.3185 159.862V159.863ZM77.3897 170.586C66.4862 170.586 57.9742 166.754 51.8537 159.091C45.7332 151.428 42.673 140.73 42.673 126.997C42.673 113.162 45.759 102.361 51.931 94.5948C58.1026 86.8285 66.6918 82.9453 77.6985 82.9453C89.2706 82.9453 98.1684 87.3171 104.392 96.0606H105.086L106.938 84.4883H117.044V207H104.237V170.818C104.237 165.674 104.52 161.302 105.086 157.702H104.083C98.1685 166.291 89.2707 170.586 77.3897 170.586Z" fill="#C8E8FF"/>
</g>
</g>
<defs>
<linearGradient id="paint0_linear_1251_8956" x1="0" y1="0" x2="256" y2="256" gradientUnits="userSpaceOnUse">
<stop stop-color="#48A7F7"/>
<stop offset="1" stop-color="#0B61BD"/>
</linearGradient>
<clipPath id="clip0_1251_8956">
<rect width="256" height="256" fill="white"/>
</clipPath>
<clipPath id="clip1_1251_8956">
<rect width="256" height="256" fill="white"/>
</clipPath>
</defs>
</svg>
