<svg width="256" height="256" viewBox="0 0 256 256" fill="none" xmlns="http://www.w3.org/2000/svg">
<rect width="256" height="256" fill="white"/>
<path d="M125.992 194.038C120.039 192.872 97.61 194.51 90.276 187.054C82.942 179.598 83.3892 155.593 82.0082 149.292" stroke="#3BC9DB" stroke-width="4" stroke-linecap="round"/>
<path d="M82.6666 110C83.5566 104 80.8866 81.67 87.9966 74C95.1066 66.33 119.107 65.67 125.337 64" stroke="#1971C2" stroke-width="4" stroke-linecap="round"/>
<path d="M140 37C159.3 37 178.6 37 197.33 37C206.67 37 211.33 41.67 211.33 51C211.33 59.59 211.33 68.17 211.33 79C211.33 88.33 206.67 93 197.33 93C185.25 93 173.17 93 140 93C130.67 93 126 88.33 126 79C126 72.02 126 65.04 126 51C126 41.67 130.67 37 140 37Z" fill="#6E6EFD"/>
<path d="M58 101C70.53 101 83.07 101 115.33 101C124.67 101 129.33 105.67 129.33 115C129.33 123.12 129.33 131.23 129.33 143C129.33 152.33 124.67 157 115.33 157C98.51 157 81.68 157 58 157C48.67 157 44 152.33 44 143C44 131.85 44 120.69 44 115C44 105.67 48.67 101 58 101Z" fill="#64B5F6"/>
<path d="M141.333 162.333C164.263 162.333 187.203 162.333 198.663 162.333C208.003 162.333 212.663 167.003 212.663 176.333C212.663 186.853 212.663 197.383 212.663 204.333C212.663 213.663 208.003 218.333 198.663 218.333C184.953 218.333 171.243 218.333 141.333 218.333C132.003 218.333 127.333 213.663 127.333 204.333C127.333 193.483 127.333 182.623 127.333 176.333C127.333 167.003 132.003 162.333 141.333 162.333Z" fill="#99E9F2"/>
</svg>
