<svg width="256" height="256" viewBox="0 0 256 256" fill="none" xmlns="http://www.w3.org/2000/svg">
<g clip-path="url(#clip0_1251_8939)">
<rect width="256" height="256" fill="white"/>
<g clip-path="url(#clip1_1251_8939)">
<path d="M256 0H0V256H256V0Z" fill="#1E2532"/>
<path fill-rule="evenodd" clip-rule="evenodd" d="M128 208.551C172.487 208.551 208.551 172.487 208.551 128C208.551 83.513 172.487 47.4492 128 47.4492C83.513 47.4492 47.4492 83.513 47.4492 128C47.4492 172.487 83.513 208.551 128 208.551ZM181.701 134.713C181.701 160.663 160.664 181.701 134.713 181.701C108.762 181.701 87.7248 160.663 87.7248 134.713C87.7248 129.897 88.4492 125.25 89.7951 120.876C93.4786 129.035 101.686 134.713 111.219 134.713C124.194 134.713 134.713 124.194 134.713 111.219C134.713 101.685 129.035 93.4785 120.876 89.7949C125.251 88.4491 129.897 87.7246 134.713 87.7246C160.664 87.7246 181.701 108.762 181.701 134.713Z" fill="url(#paint0_linear_1251_8939)"/>
<path opacity="0.2" fill-rule="evenodd" clip-rule="evenodd" d="M181.701 134.713C181.701 160.663 160.664 181.701 134.713 181.701C109.312 181.701 88.6189 161.546 87.7531 136.356C87.7342 136.924 87.7246 137.495 87.7246 138.069C87.7246 165.873 110.265 188.413 138.069 188.413C165.873 188.413 188.413 165.873 188.413 138.069C188.413 110.265 165.873 87.7246 138.069 87.7246C137.498 87.7246 136.929 87.7342 136.362 87.753C161.549 88.6219 181.701 109.314 181.701 134.713Z" fill="#131928"/>
<path fill-rule="evenodd" clip-rule="evenodd" d="M128 67.5863C94.635 67.5863 67.5872 94.634 67.5872 127.999C67.5872 131.707 64.5819 134.712 60.8747 134.712C57.1674 134.712 54.1621 131.707 54.1621 127.999C54.1621 87.2197 87.2206 54.1611 128 54.1611C131.708 54.1611 134.713 57.1664 134.713 60.8737C134.713 64.5809 131.708 67.5863 128 67.5863Z" fill="url(#paint1_linear_1251_8939)"/>
</g>
</g>
<defs>
<linearGradient id="paint0_linear_1251_8939" x1="128" y1="47.4492" x2="244.631" y2="164.08" gradientUnits="userSpaceOnUse">
<stop stop-color="#C395FC"/>
<stop offset="1" stop-color="#4F65F5"/>
</linearGradient>
<linearGradient id="paint1_linear_1251_8939" x1="94.4375" y1="60.8737" x2="94.4375" y2="127.999" gradientUnits="userSpaceOnUse">
<stop stop-color="white" stop-opacity="0.4"/>
<stop offset="1" stop-color="white" stop-opacity="0"/>
</linearGradient>
<clipPath id="clip0_1251_8939">
<rect width="256" height="256" fill="white"/>
</clipPath>
<clipPath id="clip1_1251_8939">
<rect width="256" height="256" fill="white"/>
</clipPath>
</defs>
</svg>
