<svg width="256" height="256" viewBox="0 0 256 256" fill="none" xmlns="http://www.w3.org/2000/svg">
<rect width="256" height="256" fill="#805AD5"/>
<path d="M56.1 202.8L128.25 49.6C128.55 49 129.1 48.65 129.75 48.65H132.9C133.55 48.65 134.1 49 134.4 49.6L181 145.15L195.6 139.55C196.45 139.2 197.45 139.65 197.75 140.5L201.65 150.6C202 151.45 201.55 152.45 200.7 152.75L187.25 157.95L203.85 192.05C204.25 192.9 203.9 193.9 203.1 194.3L193.35 199.05C192.5 199.45 191.5 199.1 191.1 198.25L173.95 163.05L59.05 207.2C58.2 207.55 57.2 207.1 56.9 206.25V206.2L56.1 204.05C55.9 203.65 55.95 203.2 56.1 202.8ZM131.5 75.9L80.75 183.7L167.65 150.3L131.5 75.9Z" fill="white"/>
<path d="M164 119.9L168.85 133.2L58 173.85C57.15 174.15 56.15 173.75 55.85 172.85L52.15 162.7C51.85 161.85 52.25 160.85 53.15 160.55L164 119.9Z" fill="white"/>
</svg>
