<svg width="256" height="256" viewBox="0 0 256 256" fill="none" xmlns="http://www.w3.org/2000/svg">
<rect width="256" height="256" fill="url(#paint0_linear_1251_8933)"/>
<g clip-path="url(#clip0_1251_8933)">
<path d="M28 128C28 183.234 72.7656 228 128 228C183.234 228 228 183.234 228 128C228 72.7656 183.234 28 128 28C72.7656 28 28 72.7656 28 128Z" fill="url(#paint1_linear_1251_8933)"/>
<path d="M131.759 125.253C132.739 124.792 133.697 124.284 134.7 123.88C136.528 123.141 138.45 122.779 140.411 122.64C144.607 122.341 148.501 123.342 152.094 125.486C153.014 126.034 153.924 126.628 154.699 127.407C161.432 134.161 168.195 140.89 174.919 147.655C176.183 148.925 177.131 150.455 177.92 152.063C179.886 156.062 180.286 160.29 179.481 164.617C178.993 167.239 177.964 169.672 176.384 171.873C175.072 173.701 173.512 175.22 171.728 176.59C169.248 178.492 166.468 179.584 163.446 180.108C160.744 180.578 158.053 180.436 155.367 179.787C152.849 179.175 150.644 177.944 148.478 176.609C148.205 176.439 147.98 176.185 147.743 175.961C147.267 175.51 146.791 175.064 146.33 174.6C140.162 168.436 134 162.264 127.825 156.106C126.628 154.911 125.642 153.571 124.757 152.137C123.272 149.727 122.499 147.077 122.209 144.31C121.881 141.191 122.224 138.112 123.396 135.173C123.796 134.17 124.311 133.215 124.774 132.238L132.457 139.915C131.89 140.78 131.886 141.79 131.962 142.729C132.169 145.289 133.128 147.52 135.001 149.375C141.082 155.402 147.123 161.466 153.165 167.531C153.979 168.35 154.902 168.949 155.926 169.492C160.414 171.877 166.189 169.719 168.497 165.942C170.723 162.298 170.567 157.171 167.084 153.686C160.994 147.592 154.893 141.508 148.812 135.405C146.298 132.883 143.243 132.2 139.832 132.657C139.694 132.676 139.573 132.839 139.446 132.936L131.759 125.253ZM122.969 130.439C121.759 131.04 120.565 131.675 119.268 132.094C115.102 133.438 110.946 133.44 106.769 132.115C103.866 131.195 101.369 129.639 99.2252 127.498C92.9406 121.22 86.6772 114.922 80.3757 108.661C77.3752 105.678 75.6824 102.036 75.0434 97.9351C74.2985 93.1529 75.2402 88.6034 77.8429 84.5322C80.234 80.7953 83.5053 78.0445 87.7733 76.521C91.3134 75.2556 94.9149 75.0483 98.5333 75.7571C101.193 76.2777 103.701 77.2912 105.914 78.9946C106.911 79.7606 107.844 80.5689 108.724 81.4492C114.854 87.573 120.963 93.7179 127.114 99.8204C129.575 102.262 131.124 105.208 131.99 108.498C132.98 112.261 132.874 116.046 131.59 119.743C131.147 121.014 130.504 122.218 129.952 123.452L122.269 115.775C122.863 115.096 122.776 114.205 122.753 113.452C122.671 110.775 121.803 108.386 119.842 106.437C113.737 100.368 107.662 94.2744 101.58 88.1824C101.003 87.6026 100.355 87.1371 99.6696 86.6885C94.8726 83.5525 88.2473 85.5987 85.7589 90.5523C83.7677 94.5177 84.8786 99.3041 87.5808 101.972C93.7447 108.058 99.8516 114.199 105.96 120.339C107.861 122.25 110.186 123.111 112.81 123.276C113.665 123.332 114.541 123.304 115.286 122.754L122.969 130.439Z" fill="#333333"/>
<path d="M122.273 115.773L129.956 123.45L131.759 125.255L139.444 132.936C139.859 133.367 140.267 133.803 140.691 134.227C144.345 137.885 148.008 141.535 151.652 145.202C152.107 145.659 152.572 146.15 152.868 146.711C153.964 148.789 153.569 150.799 151.901 152.505C150.429 154.013 148.721 154.221 146.804 153.635C145.987 153.385 145.405 152.831 144.823 152.249C140.703 148.133 136.577 144.024 132.453 139.912L124.77 132.235C124.169 131.637 123.57 131.038 122.969 130.439L115.292 122.749C114.837 122.282 114.386 121.808 113.925 121.346C111.272 118.689 108.61 116.042 105.967 113.373C105.552 112.954 105.135 112.497 104.864 111.981C103.838 110.038 104.359 107.63 105.8 106.287C107.552 104.651 109.917 104.306 111.917 105.593C112.368 105.883 112.746 106.291 113.132 106.672C116.183 109.704 119.228 112.738 122.273 115.773Z" fill="#232323"/>
<path d="M131.759 125.253C132.739 124.792 133.697 124.284 134.7 123.88C136.529 123.141 138.45 122.779 140.411 122.639C144.607 122.341 148.501 123.342 152.094 125.485C153.014 126.033 153.924 126.628 154.699 127.407C161.432 134.161 168.195 140.89 174.919 147.655C176.182 148.924 177.13 150.455 177.92 152.063C179.886 156.062 180.286 160.289 179.481 164.617C178.999 167.235 177.941 169.713 176.384 171.872C175.071 173.701 173.512 175.22 171.729 176.589C169.248 178.492 166.468 179.583 163.446 180.108C160.744 180.578 158.052 180.436 155.367 179.787C152.849 179.175 150.645 177.944 148.478 176.608C148.204 176.439 147.98 176.185 147.743 175.961C147.267 175.51 146.791 175.064 146.33 174.6C140.162 168.436 134 162.264 127.825 156.106C126.628 154.911 125.642 153.571 124.757 152.137C123.271 149.726 122.499 147.077 122.209 144.31C121.881 141.19 122.224 138.112 123.396 135.172C123.796 134.169 124.311 133.215 124.774 132.238L132.457 139.915C131.89 140.78 131.886 141.789 131.962 142.729C132.169 145.289 133.128 147.519 135.001 149.375C141.082 155.402 147.123 161.466 153.165 167.531C153.979 168.349 154.902 168.949 155.926 169.492C160.414 171.877 166.189 169.719 168.497 165.941C170.723 162.298 170.567 157.171 167.084 153.685C160.994 147.592 154.893 141.508 148.812 135.405C146.298 132.883 143.243 132.199 139.831 132.656C139.694 132.676 139.573 132.839 139.446 132.936L131.759 125.253ZM122.969 130.439C121.759 131.04 120.565 131.675 119.268 132.094C115.102 133.437 110.946 133.44 106.769 132.115C103.866 131.194 101.369 129.639 99.225 127.497C92.9406 121.219 86.6773 114.922 80.3758 108.661C77.3754 105.677 75.6824 102.036 75.0433 97.935C74.2984 93.1526 75.2402 88.603 77.843 84.5319C80.2336 80.7951 83.5055 78.0444 87.7734 76.5209C91.3133 75.2553 94.9148 75.0483 98.5332 75.7569C101.193 76.2776 103.7 77.2909 105.914 78.9944C106.903 79.7504 107.842 80.5704 108.724 81.4491C114.854 87.5729 120.963 93.7178 127.114 99.8201C129.575 102.262 131.124 105.208 131.989 108.498C132.98 112.26 132.874 116.046 131.589 119.742C131.147 121.014 130.504 122.218 129.952 123.452L122.268 115.775C122.863 115.096 122.776 114.205 122.753 113.452C122.671 110.775 121.803 108.386 119.841 106.437C113.737 100.368 107.662 94.2741 101.58 88.1823C101.002 87.6022 100.355 87.1369 99.6695 86.6881C94.8726 83.5522 88.2476 85.5983 85.759 90.5522C83.7676 94.5174 84.8785 99.3037 87.5808 101.972C93.7449 108.058 99.8515 114.199 105.961 120.339C107.861 122.25 110.186 123.111 112.81 123.276C113.665 123.331 114.541 123.304 115.286 122.754L122.969 130.439Z" fill="white"/>
<path d="M122.273 115.773L129.956 123.45L131.759 125.255L139.444 132.936C139.859 133.367 140.267 133.803 140.691 134.227C144.345 137.885 148.008 141.535 151.652 145.202C152.107 145.659 152.572 146.15 152.868 146.711C153.964 148.789 153.569 150.799 151.901 152.505C150.429 154.013 148.721 154.221 146.804 153.635C145.987 153.385 145.405 152.831 144.823 152.249C140.703 148.133 136.577 144.024 132.453 139.912L124.77 132.235C124.169 131.637 123.57 131.038 122.969 130.439L115.292 122.749C114.837 122.282 114.386 121.808 113.925 121.346C111.272 118.689 108.61 116.042 105.967 113.373C105.552 112.954 105.135 112.497 104.864 111.981C103.838 110.038 104.359 107.63 105.8 106.287C107.552 104.651 109.917 104.306 111.917 105.593C112.368 105.883 112.746 106.291 113.132 106.672C116.183 109.704 119.228 112.738 122.273 115.773Z" fill="#BFBFBF"/>
<path d="M157.619 99.8737L147.098 110.394L145.909 110.508L144.673 109.273C144.684 108.877 144.696 108.433 144.709 108.01L155.01 97.7088C155.714 97.3495 156.372 97.3299 156.975 97.7979C157.623 98.3014 157.822 98.9807 157.619 99.8737ZM164.411 114.923L164.821 116.415L163.78 117.633C162.369 117.849 151.307 117.911 148.799 117.728L147.584 116.514L147.883 115.054C148.532 114.415 149.186 114.288 149.895 114.288C154.072 114.293 158.249 114.292 162.427 114.286C163.07 114.286 163.666 114.419 164.411 114.923M137.322 91.5893L138.306 90.6053C139.157 90.3811 139.975 90.3538 140.68 91.3292C140.714 91.6377 140.803 92.087 140.803 92.535C140.813 96.8835 140.809 101.23 140.805 105.578C140.805 105.862 140.761 106.146 140.737 106.41C140.253 107.305 139.516 107.589 138.496 107.438L137.339 106.281C137.307 101.486 137.33 96.5749 137.322 91.5893Z" fill="white"/>
</g>
<defs>
<linearGradient id="paint0_linear_1251_8933" x1="128" y1="228" x2="128" y2="27.5" gradientUnits="userSpaceOnUse">
<stop stop-color="#E37200"/>
<stop offset="1" stop-color="#E3913E"/>
</linearGradient>
<linearGradient id="paint1_linear_1251_8933" x1="128.007" y1="228" x2="128.007" y2="27.9973" gradientUnits="userSpaceOnUse">
<stop stop-color="#E37200"/>
<stop offset="1" stop-color="#E3913E"/>
</linearGradient>
<clipPath id="clip0_1251_8933">
<rect width="200" height="200" fill="white" transform="translate(28 28)"/>
</clipPath>
</defs>
</svg>
