<svg width="256" height="256" viewBox="0 0 256 256" fill="none" xmlns="http://www.w3.org/2000/svg">
<rect width="256" height="256" fill="white"/>
<g clip-path="url(#clip0_1251_8963)">
<mask id="mask0_1251_8963" style="mask-type:luminance" maskUnits="userSpaceOnUse" x="28" y="28" width="200" height="200">
<path d="M127.993 227.997C183.209 227.997 227.971 183.229 227.971 128.005C227.971 72.7804 183.209 28.0122 127.993 28.0122C72.7766 28.0122 28.015 72.7804 28.015 128.005C28.015 183.229 72.7766 227.997 127.993 227.997Z" fill="white"/>
</mask>
<g mask="url(#mask0_1251_8963)">
<path d="M28.0146 28.0103H227.97V227.999H28.0146V28.0103Z" fill="#EDE5F8"/>
</g>
<mask id="mask1_1251_8963" style="mask-type:luminance" maskUnits="userSpaceOnUse" x="28" y="28" width="200" height="200">
<path d="M127.993 227.997C183.209 227.997 227.971 183.229 227.971 128.005C227.971 72.7804 183.209 28.0122 127.993 28.0122C72.7766 28.0122 28.015 72.7804 28.015 128.005C28.015 183.229 72.7766 227.997 127.993 227.997Z" fill="white"/>
</mask>
<g mask="url(#mask1_1251_8963)">
<path d="M207.09 28.0103L28.0139 207.086V227.999H227.97V28.0103H207.09Z" fill="#BEA4E1"/>
</g>
<mask id="mask2_1251_8963" style="mask-type:luminance" maskUnits="userSpaceOnUse" x="28" y="28" width="200" height="200">
<path d="M127.993 227.997C183.209 227.997 227.97 183.229 227.97 128.004C227.97 72.7803 183.209 28.0122 127.993 28.0122C72.7769 28.0122 28.0155 72.7803 28.0155 128.004C28.0155 183.229 72.7769 227.997 127.993 227.997Z" fill="white"/>
</mask>
<g mask="url(#mask2_1251_8963)">
<path d="M163.162 227.999C162.094 227.974 146.221 209.36 130.453 197.038C129.366 196.188 127.856 195.007 127.097 194.413C125.579 193.224 122.884 191.655 122.613 191.499C122.148 191.23 121.678 191.002 120.009 190.268C118.242 189.491 114.71 188.494 112.677 188.199C109.357 187.716 99.4581 187.559 75.079 187.581L28.0147 187.624C28.0085 155.521 28.0108 95.4232 28.0096 68.4423L62.7089 68.5329C77.9544 68.5723 78.6645 68.4591 81.1243 67.3579C86.3754 65.0068 108.04 37.4637 113.59 34.947C116.424 33.6618 120.076 33.1103 122.933 33.6962C123.551 33.8228 125.521 34.1481 127.313 34.4196C131.569 35.0641 134.429 35.4954 141.154 37.3008C152.355 40.3074 163.278 44.8734 164.068 45.2343C168.731 47.3644 173.994 50.1062 175.564 51.5901C176.185 52.1776 176.846 52.9737 177.159 53.4854C178.535 55.7373 181.469 61.2373 181.751 62.2091C185.335 70.8055 188.53 79.5453 191.803 88.2635C193.357 92.7225 195.059 97.0798 196.598 101.523C197.91 105.345 200.744 113.292 200.912 113.62C203.101 119.759 204.982 125.985 206.851 132.23C208.019 136.109 209.458 141.161 210.856 146.537C212.962 153.614 215.118 160.68 216.413 167.978C216.694 169.525 217.688 175.713 217.759 176.202C217.93 177.384 219.039 186.306 219.263 188.339C220.289 197.64 220.103 215.114 212.358 228.003C212.319 228.068 211.323 228.015 211.301 228.015C207.769 228.041 198.837 228.004 195.807 227.999C189.58 227.987 163.19 228.001 163.187 228.001L163.162 227.999Z" fill="#371F69"/>
<path d="M113.552 34.8337C108.384 37.176 85.9324 65.2324 81.0773 67.4064C78.6184 68.5078 77.9075 68.6207 62.6617 68.5808L28.011 68.4413C28.011 95.4222 28.0096 155.52 28.0155 187.622L47.545 187.605L178.783 56.318C178.229 55.2942 177.424 54.0333 177.02 53.3726C176.707 52.8603 176.149 52.1672 175.528 51.5803C173.959 50.0966 168.695 47.3542 164.032 45.2245C156.544 41.8045 149.118 39.5552 141.118 37.2904C134.393 35.4848 128.385 34.6138 127.275 34.4093C125.494 34.0815 123.562 33.7892 122.896 33.6859C122.423 33.6135 118.079 32.7816 113.552 34.8337Z" fill="#553E98"/>
</g>
<mask id="mask3_1251_8963" style="mask-type:luminance" maskUnits="userSpaceOnUse" x="28" y="28" width="200" height="200">
<path d="M127.993 227.997C183.209 227.997 227.971 183.229 227.971 128.005C227.971 72.7804 183.209 28.0122 127.993 28.0122C72.7766 28.0122 28.015 72.7804 28.015 128.005C28.015 183.229 72.7766 227.997 127.993 227.997Z" fill="white"/>
</mask>
<g mask="url(#mask3_1251_8963)">
<path d="M135.281 89.2524C142.082 89.2524 147.596 83.7383 147.596 76.9365C147.596 70.1346 142.082 64.6206 135.281 64.6206C128.479 64.6206 122.965 70.1346 122.965 76.9365C122.965 83.7383 128.479 89.2524 135.281 89.2524Z" fill="#E6C7A7"/>
<path d="M112.247 112.116C119.049 112.116 124.563 106.602 124.563 99.8002C124.563 92.9984 119.049 87.4844 112.247 87.4844C105.445 87.4844 99.931 92.9984 99.931 99.8002C99.931 106.602 105.445 112.116 112.247 112.116Z" fill="#E6C7A7"/>
<path d="M158.745 111.688C165.547 111.688 171.061 106.174 171.061 99.372C171.061 92.5702 165.547 87.0562 158.745 87.0562C151.943 87.0562 146.429 92.5702 146.429 99.372C146.429 106.174 151.943 111.688 158.745 111.688Z" fill="#E1A38D"/>
<path d="M135.245 135.397C142.047 135.397 147.561 129.883 147.561 123.081C147.561 116.279 142.047 110.765 135.245 110.765C128.443 110.765 122.929 116.279 122.929 123.081C122.929 129.883 128.443 135.397 135.245 135.397Z" fill="#E1A38D"/>
</g>
</g>
<defs>
<clipPath id="clip0_1251_8963">
<rect width="200" height="200" fill="white" transform="translate(28 28)"/>
</clipPath>
</defs>
</svg>
