<svg width="256" height="256" viewBox="0 0 256 256" fill="none" xmlns="http://www.w3.org/2000/svg">
<rect width="256" height="256" fill="#4AC694"/>
<path d="M128 18C188.844 18 238 67.1562 238 128C238 188.844 188.844 238 128 238C67.1562 238 18 188.844 18 128C18 67.1562 67.1562 18 128 18Z" fill="#4AC694"/>
<path d="M196.75 76.4375H59.25C57.1875 76.4375 55.8125 77.8125 55.8125 79.875V183C55.8125 185.062 57.1875 186.438 59.25 186.438H108.406C111.844 186.438 114.938 187.812 116.656 190.562C119.063 194.344 123.188 196.75 128 196.75C132.812 196.75 136.938 194.344 139.344 190.562C141.062 187.812 144.5 186.438 147.594 186.438H196.75C198.812 186.438 200.188 185.062 200.188 183V79.875C200.188 77.8125 198.812 76.4375 196.75 76.4375Z" fill="#424C72"/>
<path d="M66.125 114.25V176.125H121.125C124.906 176.125 128 179.219 128 183C128 179.219 131.094 176.125 134.875 176.125H189.875V114.25H66.125Z" fill="#E4E7EF"/>
<path d="M138.312 62.6875C132.469 62.6875 128 67.1562 128 73C128 67.1562 123.531 62.6875 117.688 62.6875H66.125V169.25H121.125C124.906 169.25 128 172.344 128 176.125C128 172.344 131.094 169.25 134.875 169.25H189.875V62.6875H138.312Z" fill="white"/>
<path d="M79.875 73H93.625V97.0625H79.875V73Z" fill="#57D1F7"/>
<path d="M117.688 109.094H79.875C78.8437 109.094 78.1562 108.406 78.1562 107.375C78.1562 106.344 78.8437 105.656 79.875 105.656H117.688C118.719 105.656 119.406 106.344 119.406 107.375C119.406 108.406 118.719 109.094 117.688 109.094ZM117.688 98.7812H102.563C101.531 98.7812 100.844 98.0938 100.844 97.0625C100.844 96.0312 101.531 95.3438 102.563 95.3438H117.688C118.719 95.3438 119.406 96.0312 119.406 97.0625C119.406 98.0938 118.719 98.7812 117.688 98.7812ZM117.688 88.4688H102.563C101.531 88.4688 100.844 87.7812 100.844 86.75C100.844 85.7188 101.531 85.0312 102.563 85.0312H117.688C118.719 85.0312 119.406 85.7188 119.406 86.75C119.406 87.7812 118.719 88.4688 117.688 88.4688ZM117.688 78.1562H102.563C101.531 78.1562 100.844 77.4688 100.844 76.4375C100.844 75.4062 101.531 74.7188 102.563 74.7188H117.688C118.719 74.7188 119.406 75.4062 119.406 76.4375C119.406 77.4688 118.719 78.1562 117.688 78.1562ZM117.688 119.406H79.875C78.8437 119.406 78.1562 118.719 78.1562 117.688C78.1562 116.656 78.8437 115.969 79.875 115.969H117.688C118.719 115.969 119.406 116.656 119.406 117.688C119.406 118.719 118.719 119.406 117.688 119.406ZM117.688 129.719H79.875C78.8437 129.719 78.1562 129.031 78.1562 128C78.1562 126.969 78.8437 126.281 79.875 126.281H117.688C118.719 126.281 119.406 126.969 119.406 128C119.406 129.031 118.719 129.719 117.688 129.719ZM117.688 140.031H79.875C78.8437 140.031 78.1562 139.344 78.1562 138.312C78.1562 137.281 78.8437 136.594 79.875 136.594H117.688C118.719 136.594 119.406 137.281 119.406 138.312C119.406 139.344 118.719 140.031 117.688 140.031ZM117.688 150.344H79.875C78.8437 150.344 78.1562 149.656 78.1562 148.625C78.1562 147.594 78.8437 146.906 79.875 146.906H117.688C118.719 146.906 119.406 147.594 119.406 148.625C119.406 149.656 118.719 150.344 117.688 150.344ZM117.688 160.656H79.875C78.8437 160.656 78.1562 159.969 78.1562 158.938C78.1562 157.906 78.8437 157.219 79.875 157.219H117.688C118.719 157.219 119.406 157.906 119.406 158.938C119.406 159.969 118.719 160.656 117.688 160.656ZM176.125 109.094H138.312C137.281 109.094 136.594 108.406 136.594 107.375C136.594 106.344 137.281 105.656 138.312 105.656H176.125C177.156 105.656 177.844 106.344 177.844 107.375C177.844 108.406 177.156 109.094 176.125 109.094ZM176.125 119.406H138.312C137.281 119.406 136.594 118.719 136.594 117.688C136.594 116.656 137.281 115.969 138.312 115.969H176.125C177.156 115.969 177.844 116.656 177.844 117.688C177.844 118.719 177.156 119.406 176.125 119.406ZM176.125 88.4688H138.312C137.281 88.4688 136.594 87.7812 136.594 86.75C136.594 85.7188 137.281 85.0312 138.312 85.0312H176.125C177.156 85.0312 177.844 85.7188 177.844 86.75C177.844 87.7812 177.156 88.4688 176.125 88.4688ZM176.125 78.1562H138.312C137.281 78.1562 136.594 77.4688 136.594 76.4375C136.594 75.4062 137.281 74.7188 138.312 74.7188H176.125C177.156 74.7188 177.844 75.4062 177.844 76.4375C177.844 77.4688 177.156 78.1562 176.125 78.1562ZM176.125 98.7812H138.312C137.281 98.7812 136.594 98.0938 136.594 97.0625C136.594 96.0312 137.281 95.3438 138.312 95.3438H176.125C177.156 95.3438 177.844 96.0312 177.844 97.0625C177.844 98.0938 177.156 98.7812 176.125 98.7812ZM176.125 129.719H138.312C137.281 129.719 136.594 129.031 136.594 128C136.594 126.969 137.281 126.281 138.312 126.281H176.125C177.156 126.281 177.844 126.969 177.844 128C177.844 129.031 177.156 129.719 176.125 129.719ZM176.125 140.031H138.312C137.281 140.031 136.594 139.344 136.594 138.312C136.594 137.281 137.281 136.594 138.312 136.594H176.125C177.156 136.594 177.844 137.281 177.844 138.312C177.844 139.344 177.156 140.031 176.125 140.031ZM176.125 150.344H138.312C137.281 150.344 136.594 149.656 136.594 148.625C136.594 147.594 137.281 146.906 138.312 146.906H176.125C177.156 146.906 177.844 147.594 177.844 148.625C177.844 149.656 177.156 150.344 176.125 150.344ZM176.125 160.656H138.312C137.281 160.656 136.594 159.969 136.594 158.938C136.594 157.906 137.281 157.219 138.312 157.219H176.125C177.156 157.219 177.844 157.906 177.844 158.938C177.844 159.969 177.156 160.656 176.125 160.656Z" fill="#E4E7EF"/>
</svg>
