<svg width="256" height="256" viewBox="0 0 256 256" fill="none" xmlns="http://www.w3.org/2000/svg">
<rect width="256" height="256" fill="white"/>
<g clip-path="url(#clip0_1251_8994)">
<path d="M128.391 86.7501C130.773 85.2657 143.664 78.4298 164.484 87.0235C185.891 95.8517 199.172 88.1954 200.812 87.1407C195.656 78.6251 189.484 71.2423 182.688 66.2423C183.156 66.1251 183.586 66.0079 184.094 65.8517C193.117 63.2345 195.422 55.6173 195.891 49.0548C196.438 41.6329 196.828 41.5157 198.43 34.836C199.992 28.4298 198.234 27.1407 196.672 28.4298C195.812 29.1329 188.352 30.8517 183.938 34.2892C176.789 39.8751 172.414 50.461 170.383 56.3204C170.344 56.3985 170.07 57.2189 169.992 57.4923C169.055 59.7188 167.219 59.7188 167.219 59.7188C166.32 59.6017 165.422 59.5626 164.523 59.5626C163.703 59.5626 162.922 59.6017 162.102 59.6798H162.062C159.68 60.0313 158.391 57.1407 158.117 56.4376C155.344 48.5079 147.922 32.8439 131.164 28.6251C131.164 28.6251 128.117 26.2813 129.055 30.2267C129.953 33.9767 131.75 37.8048 131.359 43.3126C131.164 45.8517 129.602 58.9376 141.633 65.7735C142.766 66.4376 143.781 66.9454 144.719 67.4142C138.625 72.336 133.117 79.0938 128.391 86.7501ZM207.375 206.438C192.648 197.297 187.688 194.094 188 190.617C188 190.617 188 190.031 188.156 189.172C188.508 187.336 189.641 184.172 193.273 182.336C193.391 182.297 193.508 182.219 193.586 182.141C205.07 175.461 213.469 164.758 216.438 151.359C213.469 158.742 191.359 164.524 164.562 164.524C137.766 164.524 115.656 158.781 112.688 151.359C113.352 154.367 114.289 157.219 115.461 159.953C116.477 165.578 117.805 178.781 111.477 190.344C105.891 200.539 78.3125 214.406 37.375 206.438C37.375 206.438 35.7344 205.305 35.2266 206.242C34.4844 207.649 37.4922 208.781 40.5781 209.563C69.0938 217.102 112.102 214.055 125.617 202.922C131.789 197.844 134.172 191.008 134.758 183.664C134.758 183.664 134.914 181.75 137.336 183.195C138.039 183.625 140.5 185.227 140.93 187.063C141.281 189.68 141.32 192.883 139.953 195.109C138.039 198.313 138 198.781 140.539 200.578C142.102 201.672 148.469 206.359 157.297 211.672C157.336 211.672 157.336 211.711 157.336 211.711C159.211 212.844 161.828 215.617 161.828 215.617C165.812 220.227 174.484 229.524 178.273 227.766C180.07 226.945 178.195 223.234 178.195 223.234C178.195 223.234 181.164 227.102 182.766 225.774C183.977 224.758 182.062 220.93 182.062 220.93C182.062 220.93 184.641 223.156 186.203 222.336C188.078 221.32 185.93 215.422 171.125 206.438C156.32 197.414 152.297 196.047 151.945 192.024V191.477C152.062 190.578 152.57 188.703 154.719 188.899C157.922 189.406 161.242 189.68 164.602 189.68C168.469 189.68 172.258 189.328 175.891 188.664C175.891 188.664 176.086 188.625 176.125 188.625C176.555 188.586 177.375 188.586 177.375 189.641C177.258 190.969 176.867 192.258 176.125 193.43C173.938 196.672 174.68 197.141 176.945 199.211C178.352 200.5 184.758 206.125 193.508 211.594L193.547 211.633C195.422 212.766 198.664 215.852 198.664 215.852C202.297 219.524 208.977 225.734 212.648 225.344C215.109 225.07 213.117 220.852 213.117 220.852C213.117 220.852 216.242 223.859 217.766 222.961C219.484 221.984 217.062 218.82 217.062 218.82C217.062 218.82 219.055 219.875 220.5 219.524C221.75 219.172 222.102 215.578 207.375 206.438Z" fill="black"/>
<path d="M190.891 103.234C189.133 103.234 187.648 103.781 186.516 104.836C185.383 105.89 184.797 107.14 184.797 108.469V132.531C184.797 135.773 184.211 138.117 183.078 139.601C181.984 141.008 180.227 141.711 177.766 141.711C175.227 141.711 173.469 141.047 172.453 139.601C171.398 138.117 170.852 135.734 170.852 132.531V108.39C170.852 106.75 170.109 105.383 168.664 104.484C166.75 103.273 164.797 102.844 162.492 103.625C161.789 103.859 161.125 104.172 160.5 104.562C159.836 104.953 159.289 105.461 158.859 106.047C158.391 106.711 158.117 107.414 158.117 108.156V132.57C158.117 135.812 157.57 138.195 156.516 139.64C155.5 141.047 153.742 141.75 151.203 141.75C148.664 141.75 146.906 141.047 145.852 139.64C144.758 138.156 144.211 135.773 144.211 132.57V108.469C144.211 107.101 143.625 105.89 142.492 104.836C141.359 103.781 139.875 103.234 138.039 103.234C136.164 103.234 134.602 103.742 133.43 104.797C132.219 105.851 131.594 107.101 131.594 108.469V132.14C131.594 135.109 131.867 137.922 132.453 140.5C133.039 143.117 134.055 145.461 135.5 147.375C136.945 149.328 138.898 150.851 141.359 151.945C143.781 153 146.789 153.547 150.305 153.547C153.977 153.547 157.062 152.883 159.445 151.515C161.437 150.383 163.156 148.898 164.484 147.101C165.773 148.898 167.453 150.383 169.406 151.515C171.789 152.844 174.914 153.547 178.703 153.547C182.219 153.547 185.227 153 187.609 151.945C189.992 150.851 191.945 149.328 193.391 147.375C194.836 145.461 195.852 143.117 196.438 140.5C197.023 137.922 197.297 135.109 197.297 132.14V108.469C197.297 107.101 196.711 105.89 195.539 104.797C194.445 103.781 192.844 103.234 190.891 103.234Z" fill="black"/>
</g>
<defs>
<clipPath id="clip0_1251_8994">
<rect width="200" height="200" fill="white" transform="translate(28 28)"/>
</clipPath>
</defs>
</svg>
