<svg width="256" height="256" viewBox="0 0 256 256" fill="none" xmlns="http://www.w3.org/2000/svg">
<rect width="256" height="256" fill="white"/>
<g clip-path="url(#clip0_1251_8899)">
<path fill-rule="evenodd" clip-rule="evenodd" d="M196.936 124.25C196.936 163.469 165.879 195.202 127.53 195.202C89.2281 195.202 58.1233 163.421 58.1233 124.25C58.1233 85.031 89.1798 53.2983 127.53 53.2983C165.831 53.25 196.936 85.031 196.936 124.25Z" fill="#D33833"/>
<path d="M60.973 141.831C60.973 141.831 55.9498 67.8364 124.149 65.7112L119.367 57.7901L82.3696 70.203L71.792 82.3262L62.5185 100.052L57.2539 120.676L58.8478 134.441" fill="#EF3D3A"/>
<path d="M80.0028 75.8059C67.8314 88.2671 60.2967 105.462 60.2967 124.492C60.2967 143.522 67.8314 160.716 80.0028 173.177C92.1743 185.639 108.982 193.318 127.529 193.318C146.076 193.318 162.885 185.639 175.056 173.177C187.228 160.716 194.762 143.522 194.762 124.492C194.762 105.462 187.228 88.2671 175.056 75.8059C162.885 63.3446 146.076 55.665 127.529 55.665C108.982 55.665 92.1743 63.3929 80.0028 75.8059ZM76.9117 176.172C63.9674 162.938 55.998 144.681 55.998 124.492C55.998 104.303 64.0157 86.0453 76.9117 72.8113C89.8559 59.5773 107.775 51.3664 127.529 51.3664C147.284 51.3664 165.203 59.5773 178.147 72.8113C191.091 86.0453 199.109 104.351 199.061 124.492C199.061 144.681 191.043 162.938 178.147 176.172C165.203 189.406 147.284 197.617 127.529 197.617C107.775 197.617 89.8559 189.406 76.9117 176.172Z" fill="#231F20"/>
<path fill-rule="evenodd" clip-rule="evenodd" d="M156.751 124.637L146.173 126.231L131.876 127.824L122.603 128.066L113.619 127.824L106.761 125.699L100.675 119.082L95.8934 105.607L94.8308 102.709L88.5036 100.584L84.7845 94.4978L82.1281 85.7556L85.026 78.076L91.8845 75.7094L97.439 78.3658L100.095 84.1618L103.283 83.6305L104.346 82.3264L103.283 76.2407L103.042 68.5611L104.636 57.9835L104.587 51.9461L109.417 44.2182L117.87 38.1324L132.649 31.8052L149.023 34.1719L163.319 44.4597L169.936 55.0372L174.187 62.7168L175.249 81.7468L172.062 98.1203L166.266 112.755L160.711 120.435" fill="#F0D6B7"/>
<path fill-rule="evenodd" clip-rule="evenodd" d="M147.767 170.376L109.949 171.97V178.297L113.136 200.515L111.542 202.35L85.1226 193.366L83.2872 190.179L80.6308 160.33L74.545 142.362L73.241 138.112L94.3961 123.574L101.013 120.917L106.809 128.066L111.832 132.557L117.628 134.393L120.285 135.166L123.472 148.931L125.839 151.829L131.925 149.704L127.674 157.915L150.665 168.782L147.767 170.376Z" fill="#335061"/>
<path fill-rule="evenodd" clip-rule="evenodd" d="M85.1226 78.1242L91.9811 75.7576L97.5355 78.414L100.192 84.21L103.38 83.6787L104.153 80.4909L102.559 74.4052L104.153 59.8671L102.848 51.946L107.63 46.3915L117.918 38.1806L115.02 34.2201L100.482 41.3684L94.396 46.15L90.9668 53.5398L85.7022 60.6882L84.1083 69.1405L85.1226 78.1242Z" fill="#6D6B6D"/>
<path fill-rule="evenodd" clip-rule="evenodd" d="M95.9417 53.2497C95.9417 53.2497 99.9022 43.4932 115.744 38.7116C131.587 33.93 116.517 35.2823 116.517 35.2823L99.3226 41.8994L92.7539 48.5164L89.856 53.781L95.9417 53.2497Z" fill="#DCD9D8"/>
<path fill-rule="evenodd" clip-rule="evenodd" d="M88.0206 76.2403C88.0206 76.2403 82.4662 57.7416 103.621 55.0852L102.849 51.8974L88.3104 55.3267L84.0601 69.092L85.1226 78.0757L88.0206 76.2403Z" fill="#DCD9D8"/>
<path fill-rule="evenodd" clip-rule="evenodd" d="M96.473 100.825L99.9506 97.4923C99.9506 97.4923 101.496 97.6855 101.786 99.5209C102.027 101.356 102.849 118.02 114.199 127.003C115.213 127.824 105.747 125.699 105.747 125.699L97.2941 112.465" fill="#F7E4CD"/>
<path fill-rule="evenodd" clip-rule="evenodd" d="M145.111 95.8018C145.111 95.8018 145.738 87.7841 147.864 88.4119C150.037 89.0398 150.037 91.165 150.037 91.165C150.037 91.165 144.821 94.5943 145.111 95.8018Z" fill="#F7E4CD"/>
<path d="M167.038 66.4839C167.038 66.4839 162.691 67.4016 162.257 71.2655C161.87 75.0812 167.038 72.0383 167.811 71.7968" fill="#F7E4CD"/>
<path d="M135.064 66.7255C135.064 66.7255 129.268 67.4983 129.268 71.2174C129.268 74.9364 135.885 74.6466 137.721 73.0527" fill="#F7E4CD"/>
<path fill-rule="evenodd" clip-rule="evenodd" d="M99.1294 83.9203C99.1294 83.9203 89.0831 77.8346 88.0205 83.6788C86.958 89.4747 84.5913 93.7251 89.6144 99.8108L86.1852 98.7482L82.9974 90.5373L81.9348 82.6162L88.0205 76.289L94.8791 76.8203L98.8396 80.008L99.1294 83.9203Z" fill="#F7E4CD"/>
<path fill-rule="evenodd" clip-rule="evenodd" d="M103.863 67.2566C103.863 67.2566 108.355 43.9763 131.104 39.4844C149.796 35.7654 159.649 40.2572 163.368 44.5076C163.368 44.5076 146.704 24.7048 130.862 30.7422C115.02 36.828 103.38 47.9368 103.621 55.0368C104.056 67.2566 103.863 67.2566 103.863 67.2566Z" fill="#F7E4CD"/>
<path fill-rule="evenodd" clip-rule="evenodd" d="M165.203 47.1645C165.203 47.1645 157.523 46.923 157.282 53.7816C157.282 53.7816 157.282 54.8442 157.813 55.9067C157.813 55.9067 163.899 49.0482 167.57 52.719" fill="#F7E4CD"/>
<path fill-rule="evenodd" clip-rule="evenodd" d="M131.635 56.6311C131.635 56.6311 130.331 46.1019 121.299 52.2359C115.503 56.1964 116.034 61.7509 117.049 62.8135C118.111 63.8761 117.821 66.0012 118.642 64.5522C119.463 63.1033 119.174 58.3216 122.072 57.0175C125.018 55.6652 129.8 54.1679 131.635 56.6311Z" fill="#F7E4CD"/>
<path fill-rule="evenodd" clip-rule="evenodd" d="M106.761 128.066L81.9349 139.175C81.9349 139.175 92.2226 180.133 86.958 192.835L83.2389 191.531L82.9974 175.931L76.1389 146.323L73.241 138.112L99.1294 120.676L106.761 128.066Z" fill="#49728B"/>
<path fill-rule="evenodd" clip-rule="evenodd" d="M109.321 150.718L112.846 155.017V170.859H108.596C108.596 170.859 108.065 159.75 108.065 158.446C108.065 157.142 108.596 152.36 108.596 152.36" fill="#49728B"/>
<path fill-rule="evenodd" clip-rule="evenodd" d="M109.417 173.274L97.5356 173.805L100.965 176.172L109.417 177.476" fill="#49728B"/>
<path fill-rule="evenodd" clip-rule="evenodd" d="M150.134 170.617L159.89 170.376L162.257 194.671L152.259 196.023L150.134 170.617Z" fill="#335061"/>
<path fill-rule="evenodd" clip-rule="evenodd" d="M152.79 170.618L167.57 169.845C167.57 169.845 173.655 154.534 173.655 153.713C173.655 152.892 178.92 131.495 178.92 131.495L167.038 119.082L164.672 116.957L158.344 123.284V147.917L152.79 170.618Z" fill="#335061"/>
<path fill-rule="evenodd" clip-rule="evenodd" d="M159.359 168.782L150.085 170.618L151.389 178.007C154.819 179.601 160.663 175.351 160.663 175.351" fill="#49728B"/>
<path fill-rule="evenodd" clip-rule="evenodd" d="M159.649 122.511L178.147 136.277L178.679 129.949L164.672 117.005L159.649 122.511Z" fill="#49728B"/>
<path fill-rule="evenodd" clip-rule="evenodd" d="M118.594 222.684L113.136 200.467L110.432 184.093L109.997 171.922L134.774 170.618H150.182L148.781 198.39L151.148 219.786L150.906 223.747L130.814 225.341L118.594 222.684Z" fill="white"/>
<path fill-rule="evenodd" clip-rule="evenodd" d="M146.704 170.376C146.704 170.376 145.4 197.858 149.361 217.42C149.361 217.42 141.44 222.443 129.8 223.747L152.017 222.974L154.674 221.38L151.486 178.056L150.665 168.782" fill="#DCD9D8"/>
<path fill-rule="evenodd" clip-rule="evenodd" d="M162.74 192.545L173.027 189.647L192.589 188.585L195.487 179.601L190.222 164L184.136 163.228L175.684 165.884L167.57 169.845L163.271 169.072L159.89 170.376" fill="white"/>
<path fill-rule="evenodd" clip-rule="evenodd" d="M162.547 187.281C162.547 187.281 169.405 184.093 170.468 184.383L167.57 169.845L170.999 168.541C170.999 168.541 173.366 182.306 173.366 183.852C173.366 183.852 188.145 184.625 189.498 184.625C189.498 184.625 192.685 178.539 191.864 172.212L194.762 180.664L195.004 185.446L190.753 191.773L185.972 192.835L178.051 192.594L175.394 189.165L166.266 190.469L163.368 191.531" fill="#DCD9D8"/>
<path d="M152.162 168.492L146.366 153.713L140.281 144.971C140.281 144.971 141.585 141.252 143.468 141.252H149.554L155.35 143.377L154.819 153.133L152.162 168.492Z" fill="white"/>
<path fill-rule="evenodd" clip-rule="evenodd" d="M153.321 163.469C153.321 163.469 145.932 149.173 145.932 147.096C145.932 147.096 147.236 143.908 149.119 144.729C150.955 145.502 154.915 147.627 154.915 147.627V142.604L145.883 140.769L139.797 141.541L150.134 165.884L152.259 166.126" fill="#DCD9D8"/>
<path d="M120.961 128.597L113.619 127.824L106.761 125.699V128.066L110.142 131.785L120.719 136.567" fill="white"/>
<path fill-rule="evenodd" clip-rule="evenodd" d="M109.176 129.37C109.176 129.37 117.387 132.799 119.995 132.026L120.236 135.214L112.846 133.62L108.355 130.432L109.176 129.37Z" fill="#DCD9D8"/>
<path fill-rule="evenodd" clip-rule="evenodd" d="M162.691 142.169C158.2 142.024 154.142 141.493 150.617 140.527C150.858 139.078 150.423 137.629 150.761 136.615C151.727 135.89 153.418 135.89 154.915 135.745C153.611 135.117 151.824 134.876 150.327 135.214C150.278 134.2 149.844 133.572 149.554 132.799C152.066 131.881 158.006 125.989 161.387 127.969C162.981 128.887 163.657 134.2 163.802 136.808C163.899 138.885 163.561 141.058 162.691 142.169Z" fill="#D33833"/>
<path d="M162.691 142.169C158.2 142.024 154.142 141.493 150.617 140.527C150.858 139.078 150.423 137.629 150.761 136.615C151.727 135.89 153.418 135.89 154.915 135.745C153.611 135.117 151.824 134.876 150.327 135.214C150.278 134.2 149.844 133.572 149.554 132.799C152.066 131.881 158.006 125.989 161.387 127.969C162.981 128.887 163.657 134.2 163.802 136.808C163.899 138.885 163.561 141.058 162.691 142.169Z" stroke="#D33833" stroke-width="1.20748" stroke-miterlimit="5"/>
<path fill-rule="evenodd" clip-rule="evenodd" d="M141.247 134.876C141.247 135.214 141.198 135.552 141.198 135.89C139.798 136.808 137.528 136.808 135.982 137.581C138.252 137.677 140.039 138.208 141.585 138.981C141.536 139.851 141.536 140.672 141.488 141.541C138.928 143.28 136.562 145.936 133.567 147.579C132.118 148.351 127.143 150.38 125.598 149.994C124.728 149.8 124.68 148.738 124.293 147.723C123.569 145.55 121.878 142.121 121.734 138.885C121.54 134.779 121.154 127.921 125.549 128.79C129.123 129.466 133.277 131.108 136.03 132.606C137.721 133.523 138.687 134.634 141.247 134.876Z" fill="#D33833"/>
<path d="M141.247 134.876C141.247 135.214 141.198 135.552 141.198 135.89C139.798 136.808 137.528 136.808 135.982 137.581C138.252 137.677 140.039 138.208 141.585 138.981C141.536 139.851 141.536 140.672 141.488 141.541C138.928 143.28 136.562 145.936 133.567 147.579C132.118 148.351 127.143 150.38 125.598 149.994C124.728 149.8 124.68 148.738 124.293 147.723C123.569 145.55 121.878 142.121 121.734 138.885C121.54 134.779 121.154 127.921 125.549 128.79C129.123 129.466 133.277 131.108 136.03 132.606C137.721 133.523 138.687 134.634 141.247 134.876Z" stroke="#D33833" stroke-width="1.20748" stroke-miterlimit="5"/>
<path fill-rule="evenodd" clip-rule="evenodd" d="M143.806 139.754C143.42 137.532 142.985 136.904 143.13 134.924C149.071 130.964 150.23 141.734 143.806 139.754Z" fill="#D33833"/>
<path d="M143.806 139.754C143.42 137.532 142.985 136.904 143.13 134.924C149.071 130.964 150.23 141.734 143.806 139.754Z" stroke="#D33833" stroke-width="1.20748" stroke-miterlimit="5"/>
<path fill-rule="evenodd" clip-rule="evenodd" d="M152.452 141.542C152.452 141.542 150.617 138.885 151.921 138.112C153.225 137.339 154.577 138.112 155.35 136.808C156.123 135.504 155.35 134.683 155.591 133.089C155.833 131.495 157.185 131.254 158.489 130.964C159.793 130.722 163.512 130.191 164.044 131.495L162.45 126.714L159.262 125.651L149.216 131.447L148.685 134.345V140.141" fill="#EF3D3A"/>
<path fill-rule="evenodd" clip-rule="evenodd" d="M124.68 150.284C124.342 146.178 124.004 142.024 123.666 137.919C123.086 131.785 125.163 132.848 130.476 132.848C131.297 132.848 135.499 133.814 135.789 134.441C137.238 137.388 133.374 136.712 137.431 138.933C140.86 140.817 146.946 137.774 145.545 133.62C144.772 132.703 141.488 133.331 140.329 132.703C138.252 131.64 136.175 130.578 134.147 129.515C131.538 128.163 125.453 126.182 122.651 128.066C115.551 132.896 123.086 144.971 125.646 149.994" fill="#EF3D3A"/>
<path fill-rule="evenodd" clip-rule="evenodd" d="M131.635 56.6309C124.438 54.9404 120.864 59.6254 118.691 64.5037C116.759 64.0207 117.531 61.3642 118.014 60.0118C119.318 56.486 124.487 51.7526 128.737 52.3805C130.524 52.6703 133.036 54.3608 131.635 56.6309Z" fill="#231F20"/>
<path fill-rule="evenodd" clip-rule="evenodd" d="M166.749 64.8418H167.087C168.729 68.2227 170.13 71.7969 172.158 74.7914C170.806 77.9792 161.725 80.8289 161.87 75.0812C163.802 74.2118 167.183 74.888 168.922 73.8254C167.956 71.0724 166.507 68.7057 166.749 64.8418Z" fill="#231F20"/>
<path fill-rule="evenodd" clip-rule="evenodd" d="M135.306 64.9386C136.851 67.7883 137.334 70.7345 139.556 72.908C140.522 73.874 142.454 75.0332 141.536 77.7379C141.295 78.3658 139.701 79.7665 138.735 80.0563C135.306 81.0706 127.288 80.2495 129.993 75.9992C132.842 76.1441 136.658 77.8345 138.783 75.806C137.141 73.1012 134.243 67.9332 135.306 64.9386Z" fill="#231F20"/>
<path fill-rule="evenodd" clip-rule="evenodd" d="M165.445 93.6767C160.276 97.0094 154.529 100.584 146.028 99.7625C144.241 98.1686 143.517 94.691 145.304 92.3727C146.221 93.9665 145.642 96.8162 148.202 97.2509C152.983 98.072 158.586 94.3046 162.064 93.0005C164.189 89.3781 161.87 88.074 159.938 85.7556C155.978 80.974 150.665 75.0815 150.858 67.9332C152.452 66.774 152.597 69.7202 152.838 70.2515C154.915 75.0815 160.083 81.2638 163.899 85.4175C164.817 86.4318 166.362 87.3978 166.555 88.074C166.99 90.0543 165.251 92.3727 165.445 93.6767Z" fill="#231F20"/>
<path fill-rule="evenodd" clip-rule="evenodd" d="M97.294 90.1988C95.6519 89.2811 95.2655 85.224 93.3818 85.0791C90.677 84.9342 91.16 90.3437 91.16 93.5315C89.2763 91.841 88.9382 86.6247 90.3389 83.9199C88.7933 83.1471 88.0689 84.7893 87.1995 85.3206C88.3586 77.2546 99.0811 81.6015 97.294 90.1988Z" fill="#231F20"/>
<path fill-rule="evenodd" clip-rule="evenodd" d="M168.729 97.0577C166.314 101.646 162.933 106.669 155.881 106.814C155.736 105.317 155.64 103.095 155.881 102.177C161.291 101.694 164.623 98.9414 168.729 97.0577Z" fill="#231F20"/>
<path fill-rule="evenodd" clip-rule="evenodd" d="M134.919 100.052C139.411 102.419 147.719 102.66 153.804 102.515C154.142 103.868 154.142 105.51 154.142 107.152C146.27 107.49 136.996 105.558 134.919 100.052Z" fill="#231F20"/>
<path fill-rule="evenodd" clip-rule="evenodd" d="M134.05 104.448C137.141 112.272 147.864 111.354 156.895 111.161C156.509 112.175 155.64 113.383 154.577 113.818C151.679 114.977 143.71 115.894 139.701 113.769C137.141 112.417 135.499 109.374 134.146 107.587C133.422 106.669 130.089 104.448 134.05 104.448Z" fill="#231F20"/>
<path fill-rule="evenodd" clip-rule="evenodd" d="M165.058 147.579C161.387 153.858 157.91 160.282 153.563 165.788C155.398 160.427 156.171 151.491 156.413 144.681C160.276 142.894 163.513 145.067 165.058 147.579Z" fill="#81B0C4"/>
<path fill-rule="evenodd" clip-rule="evenodd" d="M184.716 170.086C180.61 170.907 177.761 174.868 173.752 174.626C175.974 171.535 179.789 170.231 184.716 170.086Z" fill="#231F20"/>
<path fill-rule="evenodd" clip-rule="evenodd" d="M186.551 176.462C183.219 176.8 179.306 177.331 175.926 177.09C177.519 174.626 183.653 175.496 186.551 176.462Z" fill="#231F20"/>
<path fill-rule="evenodd" clip-rule="evenodd" d="M187.711 182.016C183.943 182.113 179.306 182.016 175.732 181.726C177.809 179.456 185.247 180.857 187.711 182.016Z" fill="#231F20"/>
<path fill-rule="evenodd" clip-rule="evenodd" d="M158.006 197.086C158.538 201.771 160.421 206.552 160.18 211.72C158.103 212.397 156.896 213.024 154.142 213.024C153.949 208.629 153.37 201.964 153.515 197.762C154.915 197.858 156.944 196.796 158.006 197.086Z" fill="#DCD9D8"/>
<path fill-rule="evenodd" clip-rule="evenodd" d="M151.969 127.728C150.085 128.935 148.491 130.481 146.656 131.785C142.647 131.978 140.474 131.495 137.527 129.225C137.576 129.032 137.866 129.128 137.866 128.887C142.213 130.819 147.622 128.114 151.969 127.728Z" fill="#F0D6B7"/>
<path fill-rule="evenodd" clip-rule="evenodd" d="M129.461 156.997C130.621 151.878 135.257 149.221 139.459 146.42C143.806 151.926 146.415 158.978 149.312 165.788C142.454 163.711 135.451 160.378 129.461 156.997Z" fill="#81B0C4"/>
<path fill-rule="evenodd" clip-rule="evenodd" d="M153.563 197.762C153.37 201.916 153.998 208.629 154.191 213.025C156.944 213.025 158.151 212.397 160.228 211.72C160.47 206.552 158.586 201.819 158.055 197.086C156.944 196.796 154.915 197.859 153.563 197.762ZM110.335 174.047C112.17 190.855 114.827 205.007 119.657 219.931C130.427 223.216 143.468 223.506 152.983 220.559C151.244 212.155 152.017 201.916 150.955 192.932C150.182 186.17 150.568 179.408 149.506 172.501C138.01 170.086 121.637 171.922 110.335 174.047ZM152.307 172.598C152.21 179.843 152.645 186.943 153.176 194.188C155.93 193.753 157.813 193.512 160.421 192.932C159.6 185.977 159.697 178.104 157.958 171.97C155.978 171.97 154.239 171.922 152.307 172.598ZM166.362 171.439C165.058 171.149 163.513 171.439 162.257 171.439C162.836 177.331 164.285 183.852 164.768 190.034C166.749 190.082 167.811 189.165 169.453 188.827C169.55 183.369 168.97 175.931 166.362 171.439ZM187.711 190.903C191.816 189.889 194.424 184.866 193.265 179.65C192.492 176.172 191.091 169.603 189.642 167.382C188.532 165.739 185.585 163.566 183.219 165.063C179.355 167.526 172.593 168.251 169.791 171.197C171.192 175.882 171.627 182.306 172.206 188.247C176.988 188.537 182.929 186.943 186.889 188.633C184.088 189.551 180.466 189.551 178.099 190.855C180.079 191.821 184.668 191.628 187.711 190.903ZM149.312 165.788C146.415 158.978 143.758 151.926 139.459 146.42C135.257 149.221 130.669 151.877 129.461 156.997C135.451 160.378 142.454 163.711 149.312 165.788ZM156.461 144.681C156.171 151.491 155.398 160.426 153.611 165.788C157.958 160.282 161.436 153.858 165.106 147.579C163.513 145.067 160.276 142.894 156.461 144.681ZM148.346 141.783C146.704 141.59 145.304 143.667 143.178 142.797C142.695 143.329 142.261 143.908 141.729 144.439C146.463 150.139 148.588 158.205 152.259 164.87C154.191 158.446 153.998 151.443 154.432 144.439C151.727 144.584 150.23 142.024 148.346 141.783ZM143.13 134.924C142.937 136.856 143.42 137.484 143.806 139.754C150.23 141.735 149.071 130.964 143.13 134.924ZM136.03 132.606C133.277 131.109 129.123 129.467 125.549 128.79C121.154 127.969 121.54 134.828 121.734 138.885C121.878 142.121 123.569 145.55 124.293 147.724C124.631 148.738 124.728 149.801 125.597 149.994C127.095 150.332 132.118 148.352 133.567 147.579C136.61 145.937 138.928 143.328 141.488 141.541C141.536 140.672 141.536 139.851 141.585 138.982C140.039 138.209 138.252 137.677 135.982 137.581C137.527 136.808 139.798 136.808 141.198 135.89C141.198 135.552 141.246 135.214 141.246 134.876C138.687 134.635 137.721 133.524 136.03 132.606ZM109.707 127.824C107.437 130.143 116.131 133.331 118.884 133.475C118.884 132.026 119.705 130.626 119.56 129.563C116.276 128.984 111.929 129.37 109.707 127.824ZM137.914 128.887C137.914 129.128 137.624 129.032 137.576 129.225C140.522 131.543 142.695 131.978 146.704 131.785C148.491 130.481 150.134 128.935 152.017 127.728C147.622 128.114 142.212 130.819 137.914 128.887ZM163.754 136.76C163.609 134.2 162.933 128.887 161.339 127.921C158.006 125.989 152.017 131.882 149.506 132.751C149.795 133.524 150.23 134.152 150.278 135.166C151.776 134.78 153.563 135.069 154.867 135.697C153.37 135.842 151.727 135.842 150.713 136.567C150.327 137.629 150.81 139.03 150.568 140.479C154.094 141.493 158.151 142.024 162.643 142.121C163.561 141.058 163.899 138.885 163.754 136.76ZM105.843 130.046C105.119 129.515 100.24 123.188 99.6124 123.477C90.8219 126.955 82.611 132.944 75.2212 138.595C82.2246 153.616 85.0743 172.067 85.5573 189.793C93.575 193.56 100.627 198.969 111.542 199.549C110.287 190.614 109.127 182.693 108.403 174.288C105.65 173.129 101.738 174.337 99.1777 173.95C99.1777 170.859 103.09 172.598 103.428 170.521C103.67 168.927 101.255 168.831 102.027 166.367C104.008 167.092 105.07 168.686 107.195 169.314C109.127 165.063 107.147 157.48 107.437 153.906C107.485 153.23 107.775 150.187 109.272 150.718C110.625 151.201 109.176 158.784 109.321 162.165C109.465 165.256 108.934 168.299 110.19 170.231C120.719 168.782 131.393 167.865 142.792 167.575C140.28 166.512 137.286 165.498 134.05 163.663C132.263 162.648 126.708 160.571 126.177 158.929C125.356 156.273 128.302 154.824 128.834 152.505C123.521 155.403 122.506 149.704 121.202 145.695C120.043 142.073 119.415 139.32 119.125 137.243C114.682 135.069 109.804 132.848 105.843 130.046ZM159.117 124.25C166.459 120.676 167.763 137.533 164.913 142.942C165.348 144.536 166.893 145.164 167.521 146.613C163.416 153.954 158.876 160.765 154.722 168.009C157.813 166.078 162.257 167.671 165.927 166.222C167.28 165.691 168.246 162.648 169.26 160.185C172.062 153.471 174.959 144.971 176.264 138.547C176.553 137.098 177.374 133.91 177.181 132.606C176.843 130.288 173.704 128.549 172.11 127.1C169.164 124.443 167.28 122.077 164.189 119.614C162.836 121.497 160.132 122.753 159.117 124.25ZM89.0831 59.2392C85.6056 63.1032 86.3301 70.2998 86.7648 75.4195C93.092 71.459 101.448 75.7576 101.399 82.4713C104.394 82.3747 102.51 78.7039 101.979 76.3372C100.192 68.561 104.974 60.1569 102.172 53.0569C96.7627 53.4916 92.3192 55.7134 89.0831 59.2392ZM114.102 36.9732C106.181 39.195 96.0865 44.9426 92.8022 52.0426C95.3137 51.6562 97.0525 50.4005 99.5641 50.2556C100.482 50.2073 101.738 50.642 102.8 50.4005C104.925 49.8692 106.761 45.0392 108.403 43.2522C109.997 41.5134 111.88 40.7406 113.185 39.1467C114.006 38.7603 115.261 38.7603 115.31 37.5045C114.875 37.1181 114.537 36.8283 114.102 36.9732ZM155.253 39.0501C147.042 34.4134 133.132 30.9358 124.438 35.2828C117.387 38.8086 107.872 44.6045 104.636 51.946C107.678 59.0461 103.718 65.5665 103.476 72.7631C103.331 76.5787 105.263 79.9597 105.408 84.1134C104.394 85.8039 101.206 86.0454 98.9845 85.9005C98.26 82.1815 96.9559 78.0277 93.1403 77.6413C87.7307 77.0617 83.8185 81.5053 83.577 86.1903C83.2872 91.6481 87.779 100.728 94.1546 100.101C96.6178 99.859 97.2457 97.3958 99.9022 97.3958C101.351 100.294 97.6804 101.211 97.294 103.288C97.1974 103.82 97.5838 105.896 97.8253 106.911C98.9845 111.692 101.544 117.875 104.104 121.545C107.34 126.182 113.668 126.858 120.478 127.293C121.685 124.685 126.177 124.878 129.123 125.554C125.597 124.154 122.361 120.821 119.657 117.826C116.565 114.397 113.426 110.726 113.281 106.283C119.125 114.397 123.955 121.497 134.629 125.071C142.695 127.776 152.114 123.816 158.296 119.469C160.856 117.682 162.402 114.784 164.237 112.175C171.047 102.371 174.235 88.3155 173.559 74.7433C173.269 69.1406 173.269 63.5379 171.385 59.7705C169.405 55.81 162.788 52.2841 158.876 55.8583C158.151 52.0426 162.112 49.6277 166.749 51.0284C163.416 46.8746 159.938 41.7066 155.253 39.0501ZM170.516 165.595C176.94 162.407 188.918 156.997 192.927 165.595C194.424 168.782 196.163 174.095 196.936 177.38C197.998 181.968 195.777 191.676 190.995 193.222C186.793 194.574 181.915 194.526 176.891 193.512C176.312 193.029 175.636 192.159 175.153 191.242C171.53 191.097 168.198 191.435 165.348 192.932C165.638 195.588 163.802 196.023 162.112 196.554C160.856 201.529 164.623 208.001 163.706 212.542C163.078 215.778 159.117 216.261 156.171 216.888C156.074 218.676 156.316 220.173 156.509 221.67C155.833 224.133 152.838 225.534 150.037 225.872C140.715 226.983 126.563 227.514 117.58 224.278C115.068 218.144 113.088 210.658 111.011 203.654C102.269 204.572 95.1689 199.887 88.5035 196.796C86.1852 195.733 82.9974 195.154 82.128 193.318C81.3069 191.531 81.645 188.15 81.4035 184.914C80.8722 176.703 80.4375 168.734 78.2641 160.33C77.2981 156.563 75.6076 153.23 74.4001 149.559C73.2892 146.178 71.4055 142.024 70.8743 138.643C70.1498 133.669 74.8348 133.379 77.8294 131.205C82.4661 127.873 86.1369 125.989 91.16 122.994C92.6573 122.077 97.1491 119.855 97.6321 118.792C98.6464 116.716 95.8933 113.818 95.1689 112.175C94.0097 109.616 93.3818 107.442 93.2369 104.93C89.0348 104.254 85.7988 101.743 83.8668 98.9414C80.679 94.2563 78.4573 85.5624 81.2103 78.9937C81.4035 78.4624 82.5144 77.4481 82.6593 76.6753C82.9974 75.0815 82.0797 73.0046 82.0314 71.3624C81.7416 62.8134 83.4804 55.4236 89.2763 52.8154C91.643 43.4937 99.9988 40.4025 107.92 35.7657C110.866 34.027 114.151 32.9161 117.483 31.7086C129.558 27.265 148.057 28.0861 158.055 35.6691C162.305 38.8569 169.067 45.6671 171.53 50.5453C177.954 63.4896 177.471 85.1277 172.979 100.922C172.4 103.047 171.482 106.138 170.274 108.698C169.405 110.485 166.797 114.011 167.087 115.605C167.425 117.247 173.124 121.545 174.332 122.753C176.553 124.878 180.707 127.679 181.045 130.384C181.432 133.234 179.789 137.146 178.968 139.899C176.312 148.931 173.655 157.384 170.516 165.595Z" fill="#231F20"/>
<path fill-rule="evenodd" clip-rule="evenodd" d="M127.723 102.032C128.061 101.549 129.993 100.873 132.649 102.177C132.649 102.177 129.461 102.709 129.751 107.973L128.447 107.732C128.447 107.732 127.095 102.902 127.723 102.032Z" fill="#F7E4CD"/>
<path fill-rule="evenodd" clip-rule="evenodd" d="M150.906 147.482C150.906 148.303 150.278 148.931 149.457 148.931C148.636 148.931 148.008 148.303 148.008 147.482C148.008 146.661 148.636 146.033 149.457 146.033C150.278 146.033 150.906 146.709 150.906 147.482Z" fill="#1D1919"/>
<path fill-rule="evenodd" clip-rule="evenodd" d="M152.355 154.244C152.355 155.065 151.727 155.693 150.906 155.693C150.085 155.693 149.457 155.065 149.457 154.244C149.457 153.423 150.085 152.795 150.906 152.795C151.727 152.795 152.355 153.423 152.355 154.244Z" fill="#1D1919"/>
</g>
<defs>
<clipPath id="clip0_1251_8899">
<rect width="143.063" height="197.73" fill="white" transform="translate(56 29)"/>
</clipPath>
</defs>
</svg>
