<svg width="256" height="256" viewBox="0 0 256 256" fill="none" xmlns="http://www.w3.org/2000/svg">
<rect width="256" height="256" fill="white"/>
<g clip-path="url(#clip0_1230_433)">
<path d="M123.854 46.8738H130.842C128.968 46.1711 125.728 46.2102 123.854 46.8738Z" stroke="#083554" stroke-opacity="0.13" stroke-width="0.117114"/>
<path d="M116.866 47.3031C116.632 47.9667 115.734 47.6154 115.227 47.7325C106.365 48.6694 98.0499 51.7925 90.2033 55.9305C89.6177 56.9064 88.3685 57.3359 87.3144 57.5701C85.4797 58.5851 83.7229 59.6391 81.9662 60.8493C81.3416 62.0595 80.1314 62.606 79.0774 63.3087C79.0774 63.3087 78.8432 63.2306 78.648 63.3087C78.2576 63.9333 77.7111 64.636 77.0084 64.9483C76.7351 65.0264 76.1886 64.9093 76.1886 65.3777C75.7982 66.0023 75.2517 66.705 74.549 67.0173C74.1196 67.0564 73.8853 67.4858 73.7292 67.8371C70.8404 72.7169 66.0387 74.0832 60.6124 73.1853C54.6786 72.9121 48.1983 73.7319 42.5768 72.7559C39.6489 73.2634 36.3697 74.1223 34.3788 76.4645C33.4809 77.6747 32.3098 78.8849 31.0996 79.7437C29.6161 81.8908 28.5231 84.4283 28.6402 87.1219V169.922C28.5231 172.654 29.6161 175.114 31.0996 177.3C32.7392 178.627 34.3397 180.189 35.628 181.828C37.7361 182.882 39.8441 184.054 42.1864 184.288C42.4206 183.624 43.3185 183.975 43.826 183.858C52.1021 184.132 60.9247 183.312 68.8494 184.288C70.489 185.615 72.0896 187.177 73.3779 188.816C73.8073 189.636 74.6271 190.339 75.4469 190.885C76.1886 190.807 76.8132 191.51 77.0865 192.134C77.5159 192.837 78.2186 193.813 79.1555 193.774C79.663 194.242 80.4437 194.438 80.7951 195.023C89.4615 202.167 100.392 206.227 111.128 208.96C111.323 208.413 112.611 208.335 112.767 208.96C113.626 209.545 114.641 209.35 115.656 209.389C116.164 209.506 117.101 209.077 117.296 209.819H118.545C119.443 210.014 120.848 209.35 121.434 210.248H132.13C132.364 209.584 133.262 209.936 133.77 209.819H136.229C136.229 209.819 136.424 209.78 136.659 209.819C137.127 209.038 138.337 209.584 139.118 209.389C153.679 207.789 167.147 201.074 178.468 191.744C179.366 190.534 180.537 189.324 181.748 188.465C182.919 186.981 184.363 185.498 185.847 184.366C194.279 183.702 204.077 183.663 212.51 184.366C215.672 184.444 218.6 183.273 221.137 181.477C222.503 179.759 224.299 178.159 225.665 176.558C227.032 174.177 228.047 171.639 227.735 168.751V88.4102C228.086 84.8577 226.563 81.5785 224.455 78.963C223.245 78.0651 222.035 76.894 221.176 75.6838C221.176 75.6838 220.942 75.7228 220.747 75.6838C220.2 75.2934 219.302 75.2544 219.107 74.4346C217.077 73.3805 214.891 72.7169 212.549 72.795C204.116 73.4586 194.318 73.4976 185.886 72.795C183.856 71.0773 181.826 69.0863 180.147 67.0564C179.522 66.666 178.82 66.1194 178.507 65.4168C178.507 65.4168 178.273 65.4948 178.078 65.4168C177.453 65.0264 176.751 64.4798 176.438 63.7772C176.438 63.7772 176.204 63.8552 176.009 63.7772C175.502 63.66 175.306 63.0354 174.76 62.9574C173.628 61.8252 171.988 61.3178 171.051 60.0685C167.147 57.1797 162.58 54.6032 157.934 53.0807C157.193 52.9636 156.178 52.6513 155.865 51.8315C150.986 50.2309 146.145 48.6694 141.109 47.7325C140.914 48.279 139.626 48.3571 139.469 47.7325C138.767 46.8346 137.205 47.5373 136.19 47.3031C135.292 47.1079 133.887 47.7715 133.301 46.8737H122.605C122.371 47.5373 121.473 47.186 120.965 47.3031C120.458 47.186 119.521 47.6154 119.326 46.8737C118.467 46.9517 117.803 47.5373 116.866 47.3031ZM134.512 53.0417H136.151C136.659 53.1588 137.596 52.7294 137.791 53.4711C151.532 55.3449 164.298 61.7081 175.111 70.2965C176.048 71.0773 177.414 71.8971 177.571 73.1853C144.154 72.9121 110.191 73.7319 77.1255 72.7559C77.633 71.9752 78.3747 71.1554 79.1945 70.6869C79.702 70.5698 79.8972 69.9452 80.4437 69.8671C91.2573 60.9274 104.257 54.9155 118.155 53.4711C118.389 52.8074 119.287 53.1588 119.794 53.0417C119.989 53.0807 120.224 53.0417 120.224 53.0417C120.809 52.2219 122.175 52.8074 123.112 52.6123H132.13C132.833 52.8074 134.082 52.1828 134.512 53.0417ZM213.212 78.8459C217.155 79.1191 220.825 82.8277 221.41 86.6535C222.113 114.097 222.113 142.868 221.41 170.312C221.449 171.874 220.278 173.045 219.771 174.411C219.263 175.192 218.522 176.012 217.702 176.48C216.101 177.183 214.696 178.432 212.783 178.12C156.763 178.822 99.4163 178.822 43.4356 178.12C41.5228 178.471 40.1174 177.144 38.5168 176.48C37.3066 175.621 36.1745 174.567 35.628 173.201C32.8953 164.691 35.1205 154.814 34.3788 145.718V87.9027C34.4959 87.3952 34.0665 86.4583 34.8082 86.2631C34.6911 85.0139 35.628 84.077 36.0574 82.9839C36.682 82.047 37.5799 81.1101 38.5168 80.5245C40.1174 79.8218 41.5228 78.5726 43.4356 78.8849C99.6115 78.1822 157.115 78.1822 213.212 78.8459ZM175.502 186.279C164.571 195.257 151.688 201.504 137.791 203.495C137.556 204.158 136.659 203.807 136.151 203.924H134.082C133.497 204.744 132.13 204.158 131.193 204.353H123.386C122.371 204.119 120.809 204.822 120.106 203.924H118.857C118.233 203.768 117.14 204.314 116.788 203.495C104.101 201.777 92.2723 196.155 81.9272 188.738C81.3026 188.348 80.5999 187.801 80.2876 187.099C79.9753 187.059 79.8191 186.669 79.4678 186.669C78.5309 186.044 77.594 185.147 77.0084 184.21C110.113 183.273 144.037 184.093 177.453 183.78C177.492 184.912 176.321 185.693 175.502 186.279Z" stroke="#083553" stroke-opacity="0.98" stroke-width="0.117114"/>
<path d="M120.965 47.3031C120.887 47.264 120.965 46.8737 120.965 46.8737H119.326C119.521 47.6154 120.458 47.186 120.965 47.3031Z" stroke="#093452" stroke-opacity="0.4" stroke-width="0.117114"/>
<path d="M120.965 47.3031C121.473 47.186 122.371 47.5373 122.605 46.8737H120.965C120.965 46.8737 120.887 47.264 120.965 47.3031Z" stroke="#083552" stroke-opacity="0.73" stroke-width="0.117114"/>
<path d="M136.151 47.3031C135.605 46.4443 134.16 47.1079 133.262 46.8737C133.848 47.7716 135.253 47.0689 136.151 47.3031Z" stroke="#0A3453" stroke-opacity="0.34" stroke-width="0.117114"/>
<path d="M115.227 47.6935C115.734 47.5763 116.632 47.9277 116.866 47.264C116.359 47.4202 115.461 47.0298 115.227 47.6935Z" stroke="#053152" stroke-opacity="0.21" stroke-width="0.117114"/>
<path d="M141.07 47.6935H139.43C139.586 48.3571 140.875 48.24 141.07 47.6935Z" stroke="#093453" stroke-opacity="0.6" stroke-width="0.117114"/>
<path d="M157.856 53.0417C157.466 52.339 156.451 52.3 155.787 51.7925C156.1 52.6123 157.115 52.9246 157.856 53.0417Z" stroke="#063556" stroke-opacity="0.31" stroke-width="0.117114"/>
<path d="M120.146 53.0417H123.034C123.073 53.0417 123.034 52.6122 123.034 52.6122C122.136 52.8074 120.731 52.2219 120.146 53.0417Z" stroke="#084D70" stroke-opacity="0.77" stroke-width="0.117114"/>
<path d="M123.034 53.0417H132.052C132.013 53.0417 132.052 52.6123 132.052 52.6123H123.034V53.0417Z" stroke="#0299CB" stroke-opacity="0.84" stroke-width="0.117114"/>
<path d="M132.052 53.0418H134.512C134.082 52.1829 132.833 52.8075 132.052 52.6123C132.052 52.6123 132.013 53.0027 132.052 53.0418Z" stroke="#084668" stroke-opacity="0.81" stroke-width="0.117114"/>
<path d="M118.115 53.4321C118.623 53.315 119.56 53.7444 119.755 53.0027C119.248 53.1588 118.311 52.7685 118.115 53.4321Z" stroke="#048BBA" stroke-opacity="0.76" stroke-width="0.117114"/>
<path d="M118.115 53.4321C104.218 54.8765 91.2182 60.8884 80.4047 69.8281C80.0143 70.4527 79.4678 71.1554 78.7651 71.4677C78.2576 71.741 77.7111 72.1314 77.5159 72.7169H177.141C176.673 71.741 175.502 71.2335 175.072 70.2575C164.259 61.6691 151.493 55.3059 137.752 53.4321C137.244 53.315 136.307 53.7444 136.112 53.0027H120.106C120.106 53.0027 119.911 53.0417 119.677 53.0027C119.521 53.7444 118.623 53.315 118.115 53.4321Z" stroke="#00B8F0" stroke-width="0.117114"/>
<path d="M137.791 53.4321C137.596 52.7294 136.659 53.1198 136.151 53.0027C136.346 53.7444 137.244 53.315 137.791 53.4321Z" stroke="#084D6F" stroke-opacity="0.81" stroke-width="0.117114"/>
<path d="M87.3535 57.5311C88.4075 57.2969 89.6567 56.8674 90.2423 55.8915C89.2663 56.438 88.0952 56.7503 87.3535 57.5311Z" stroke="#083455" stroke-opacity="0.27" stroke-width="0.117114"/>
<path d="M174.682 62.8793C174.643 62.567 174.252 62.4108 174.252 62.0595C173.159 61.3959 172.183 60.537 170.973 59.9905C171.91 61.2397 173.55 61.7472 174.682 62.8793Z" stroke="#093553" stroke-opacity="0.41" stroke-width="0.117114"/>
<path d="M79.1555 63.2697C80.1704 62.567 81.4197 62.0205 82.0443 60.8103C81.1074 61.6691 79.7801 62.1376 79.1555 63.2697Z" stroke="#003159" stroke-opacity="0.24" stroke-width="0.117114"/>
<path d="M174.682 62.8792C175.228 62.9573 175.384 63.5819 175.931 63.699C175.619 62.9964 174.916 62.4498 174.291 62.0594C174.252 62.4108 174.643 62.5279 174.682 62.8792Z" stroke="#002F60" stroke-opacity="0.18" stroke-width="0.117114"/>
<path d="M77.0865 64.9093C77.7892 64.5969 78.3357 63.8943 78.7261 63.2697C78.0624 63.582 77.5159 64.2846 77.0865 64.9093Z" stroke="#07384D" stroke-opacity="0.2" stroke-width="0.117114"/>
<path d="M177.961 65.3387C177.649 64.636 176.946 64.0895 176.321 63.6991C176.634 64.3627 177.336 64.9483 177.961 65.3387Z" stroke="#063256" stroke-opacity="0.23" stroke-width="0.117114"/>
<path d="M74.6271 66.9782C75.3298 66.6659 75.8763 65.9632 76.2667 65.3386C75.603 65.6509 75.0565 66.3146 74.6271 66.9782Z" stroke="#063254" stroke-opacity="0.17" stroke-width="0.117114"/>
<path d="M180.03 66.9782C179.718 66.2755 179.015 65.729 178.39 65.3386C178.664 66.0023 179.366 66.5878 180.03 66.9782Z" stroke="#00315E" stroke-opacity="0.09" stroke-width="0.117114"/>
<path d="M185.769 72.7169C184.129 70.4917 182.255 68.6569 180.03 66.9783C181.709 69.0083 183.699 70.9992 185.769 72.7169Z" stroke="#023357" stroke-opacity="0.41" stroke-width="0.117114"/>
<path d="M72.5971 68.6179C71.8163 69.711 70.8013 70.765 69.7083 71.5067C66.4291 74.1613 60.8466 72.0533 56.5914 72.756H42.6548C48.2763 73.6929 54.7567 72.8731 60.6904 73.1854C66.1167 74.1223 70.9184 72.7169 73.8073 67.8372C73.4169 68.0323 72.8313 68.1885 72.5971 68.6179Z" stroke="#083452" stroke-opacity="0.75" stroke-width="0.117114"/>
<path d="M69.7083 71.4677C70.8013 70.765 71.8163 69.6719 72.5971 68.5789C71.504 69.3206 70.489 70.4136 69.7083 71.4677Z" stroke="#023058" stroke-opacity="0.04" stroke-width="0.117114"/>
<path d="M79.1555 70.6478C79.1165 70.9601 78.7261 71.1163 78.7261 71.4676C79.4288 71.1553 79.9753 70.4526 80.3657 69.828C79.8582 69.9061 79.663 70.5307 79.1555 70.6478Z" stroke="#01A5D9" stroke-opacity="0.66" stroke-width="0.117114"/>
<path d="M77.5159 72.7168H77.0865C110.152 73.6538 144.115 72.834 177.532 73.1463C177.375 71.858 176.009 71.0382 175.072 70.2574C175.502 71.2334 176.673 71.7409 177.141 72.7168H77.5159Z" stroke="#083A5B" stroke-opacity="0.84" stroke-width="0.117114"/>
<path d="M77.0865 72.7168H77.5159C77.6721 72.1703 78.2576 71.7799 78.7651 71.4676C78.7261 71.1163 79.1165 70.9601 79.1945 70.6478C78.3357 71.1163 77.633 71.897 77.0865 72.7168Z" stroke="#084668" stroke-opacity="0.6" stroke-width="0.117114"/>
<path d="M212.393 72.7169H185.729C194.162 73.3806 203.96 73.3806 212.393 72.7169Z" stroke="#093452" stroke-opacity="0.8" stroke-width="0.117114"/>
<path d="M220.591 75.5666C220.395 74.7858 219.497 74.7468 218.951 74.3174C219.146 75.1372 220.044 75.1762 220.591 75.5666Z" stroke="#053153" stroke-opacity="0.27" stroke-width="0.117114"/>
<path d="M224.299 78.8458C223.44 77.6357 222.23 76.4645 221.02 75.5667C221.879 76.8159 223.089 77.948 224.299 78.8458Z" stroke="#083354" stroke-opacity="0.28" stroke-width="0.117114"/>
<path d="M31.1776 79.6657C32.3878 78.8068 33.5589 77.5967 34.4568 76.3865C33.0514 77.1282 32.2316 78.4165 31.1776 79.6657Z" stroke="#023158" stroke-opacity="0.36" stroke-width="0.117114"/>
<path d="M43.4747 78.8459H213.212C157.115 78.1822 99.6115 78.1822 43.4747 78.8459Z" stroke="#0381AB" stroke-opacity="0.76" stroke-width="0.117114"/>
<path d="M38.5558 80.4855C37.9312 81.4224 37.0334 82.3594 36.0964 82.9449C35.667 84.038 34.7301 84.9749 34.8472 86.2241C34.7301 86.7316 35.1595 87.6685 34.4178 87.8637V145.679C35.1205 154.736 32.9344 164.613 35.667 173.162C36.643 174.138 37.658 175.348 38.5558 176.441C40.1564 177.105 41.5618 178.432 43.4746 178.081H212.822C214.735 178.393 216.14 177.144 217.741 176.441C218.248 175.66 218.99 174.841 219.81 174.372C220.317 173.006 221.488 171.835 221.449 170.273V86.6145C220.864 82.7888 217.194 79.0802 213.251 78.8069H43.5137C41.5618 78.5336 40.1564 79.8219 38.5558 80.4855ZM179.21 91.1429C182.06 91.4943 184.597 93.0558 187.018 94.4221C188.54 95.4762 189.789 96.9596 190.726 98.5211C191.819 100.824 193.186 103.167 193.186 105.899C194.513 107.031 192.444 110.35 194.435 110.818H198.144C198.651 110.935 199.588 110.506 199.783 111.248C202.438 111.794 204.858 113.121 207.161 114.527C208.254 115.308 209.308 116.323 210.05 117.416C211.534 120.031 213.29 122.803 213.329 126.043C213.954 126.98 214.032 129.244 213.329 130.142C213.212 133.304 211.807 136.193 210.05 138.769C209.152 139.98 207.981 141.19 206.771 142.049C204.234 143.688 201.579 144.976 198.573 145.328C197.363 146.46 194.825 144.976 193.654 146.148C193.381 147.592 194.162 149.544 193.225 150.676C193.147 153.526 191.546 155.946 190.336 158.484C189.438 159.694 188.267 160.904 187.057 161.763C184.949 163.363 182.645 164.496 180.069 165.042C179.835 165.706 178.937 165.354 178.429 165.471C173.628 165.862 169.021 164.691 165.313 161.763C164.219 160.982 163.165 159.967 162.424 158.874C159.574 155.283 158.442 150.832 158.715 146.148C157.388 144.976 154.694 146.499 153.367 145.328C150.205 144.898 147.433 143.298 144.739 141.619C143.803 140.995 142.866 140.097 142.28 139.16C139.821 135.334 138.064 130.884 138.571 126.043C138.689 125.535 138.259 124.599 139.001 124.403C139.586 122.061 140.523 119.875 141.89 117.845C142.788 116.635 143.959 115.425 145.169 114.566C149.073 111.716 153.757 110.506 158.715 110.857V106.329C158.832 105.821 158.403 104.884 159.145 104.689C159.769 102.074 160.901 99.5361 162.424 97.3109C163.204 96.2179 164.219 95.1639 165.313 94.4221C168.006 93.0558 170.661 91.1039 173.94 91.1429C175.189 90.5183 177.883 90.4402 179.21 91.1429ZM99.6505 111.248C105.194 111.521 111.245 110.701 116.476 111.677C117.14 122.295 117.179 134.28 116.476 144.898H99.2601V161.724C88.5637 162.661 77.0474 161.841 66.0387 162.153C65.1018 156.805 65.8825 150.598 65.6093 144.937H48.7838C47.8469 134.241 48.6667 122.725 48.3544 111.716C53.7026 110.779 59.9097 111.56 65.5702 111.287V94.4612C76.3838 93.7194 88.2904 93.9146 99.2991 94.3831C100.08 99.7703 99.4553 105.626 99.6505 111.248Z" stroke="#0096C3" stroke-width="0.117114"/>
<path d="M36.0964 82.9449C37.0333 82.3593 37.9312 81.4224 38.5558 80.4855C37.6189 81.071 36.7601 82.008 36.0964 82.9449Z" stroke="#056388" stroke-opacity="0.78" stroke-width="0.117114"/>
<path d="M34.4568 87.8636C35.1595 87.6684 34.7691 86.7315 34.8863 86.224C34.1445 86.4582 34.574 87.3561 34.4568 87.8636Z" stroke="#0280A9" stroke-opacity="0.8" stroke-width="0.117114"/>
<path d="M221.41 170.273C222.113 142.868 222.113 114.058 221.41 86.6144V170.273Z" stroke="#0091BD" stroke-opacity="0.84" stroke-width="0.117114"/>
<path d="M28.7183 169.883V87.0829C28.0546 114.214 28.0546 142.712 28.7183 169.883Z" stroke="#073351" stroke-opacity="0.27" stroke-width="0.117114"/>
<path d="M227.578 168.633C228.281 142.322 228.281 114.644 227.578 88.2931V168.633Z" stroke="#0C3358" stroke-opacity="0.08" stroke-width="0.117114"/>
<path d="M173.862 91.1429H179.21C177.883 90.4403 175.189 90.5183 173.862 91.1429Z" stroke="#04668C" stroke-opacity="0.78" stroke-width="0.117114"/>
<path d="M165.235 94.422C164.454 95.5151 163.439 96.5691 162.346 97.3108C160.823 99.536 159.691 102.073 159.066 104.689C158.949 105.197 159.379 106.133 158.637 106.329V110.857C153.679 110.467 148.995 111.716 145.091 114.566C144.193 115.776 143.022 116.986 141.812 117.845C140.484 119.875 139.508 122.061 138.923 124.403C138.806 124.911 139.235 125.848 138.493 126.043C137.986 130.884 139.743 135.334 142.202 139.16C143.139 139.784 144.076 140.682 144.661 141.619C147.355 143.298 150.088 144.898 153.289 145.328C154.733 145.718 159.145 144.469 158.637 146.147C158.364 150.793 159.496 155.243 162.346 158.874C163.439 159.655 164.493 160.67 165.235 161.763C168.943 164.652 173.55 165.862 178.351 165.471C178.586 164.808 179.483 165.159 179.991 165.042C182.567 164.495 184.871 163.363 186.979 161.763C187.877 160.553 189.048 159.342 190.258 158.484C191.468 155.985 193.03 153.565 193.147 150.676V146.147C193.771 144.43 196.855 145.757 198.495 145.328C201.501 144.976 204.155 143.688 206.693 142.048C207.591 140.838 208.762 139.628 209.972 138.769C211.729 136.232 213.134 133.343 213.251 130.142V126.043C213.212 122.803 211.456 120.07 209.972 117.415C208.879 116.635 207.825 115.62 207.083 114.527C204.78 113.121 202.36 111.794 199.705 111.247C199.198 111.13 198.261 111.56 198.066 110.818H194.357C194.24 111.404 193.498 111.13 193.108 111.247V105.899C193.108 103.167 191.741 100.824 190.648 98.521C189.282 97.3498 188.189 95.7883 186.94 94.422C184.519 93.0557 182.021 91.4941 179.132 91.1428H173.784C170.583 91.1038 167.967 93.0557 165.235 94.422ZM177.961 96.8814C179.483 97.4279 180.928 98.0525 182.489 98.521C182.802 98.56 182.958 98.9504 183.309 98.9504C184.09 99.4579 184.91 100.2 185.378 101.019C185.456 101.176 185.378 101.449 185.378 101.449C185.925 102.815 187.057 103.986 187.018 105.548C188.306 106.211 188.072 108.749 187.447 109.647C187.174 111.56 186.315 113.277 185.378 114.995C185.3 116.088 184.129 116.908 183.309 117.454C183.153 117.533 182.88 117.454 182.88 117.454C182.567 117.494 182.411 117.884 182.06 117.884C181.709 118.665 180.811 119.016 179.991 119.133C179.366 118.977 178.898 119.328 178.351 119.563C177.297 120.187 174.877 120.265 173.823 119.563C172.105 118.899 170.388 118.235 168.904 117.103C168.436 117.611 166.289 115.503 166.835 115.034C165.859 113.355 164.922 111.677 164.766 109.686C164.18 109.139 164.063 107.344 164.766 106.797C164.493 106.016 165.274 105.509 165.195 104.728C164.727 104.182 165.664 102.62 166.445 102.269C166.523 102.073 166.445 101.839 166.445 101.839C167.03 100.395 168.279 99.1066 169.724 98.56C171.09 98.1306 172.613 97.4279 173.823 96.9204C174.799 96.2568 177.063 96.1787 177.961 96.8814ZM158.286 116.986C159.613 117.65 161.096 117.806 162.385 118.626C164.024 119.211 165.742 120.968 166.093 122.725C166.718 123.583 166.523 124.95 167.343 125.613C167.967 126.55 168.045 128.815 167.343 129.712C167.264 131.664 166.093 133.304 165.274 135.061C164.376 136.115 163.4 137.676 161.994 137.949C161.838 137.989 161.682 138.223 161.565 138.379C161.136 138.964 160.277 139.277 159.496 139.199C158.754 139.121 158.091 139.238 157.427 139.628C156.88 140.214 155.085 140.331 154.538 139.628C152.664 139.16 150.908 138.418 149.19 137.559C148.995 137.52 148.76 137.559 148.76 137.559C147.98 137.052 147.16 136.31 146.691 135.49C146.457 134.904 145.715 134.592 145.872 133.85C145.637 132.445 144.583 131.274 144.622 129.751C144.037 129.205 143.92 127.409 144.622 126.863C144.74 124.794 145.911 122.959 146.691 121.124C147.199 120.343 147.941 119.523 148.76 119.055C150.595 118.274 152.352 117.025 154.499 116.986C155.397 116.361 157.505 116.283 158.286 116.986ZM197.636 116.986C199.432 117.025 200.954 118.079 202.555 118.626C203.414 119.016 205.522 120.226 205.014 121.085C205.873 122.49 207.005 123.896 207.083 125.613C208.372 126.277 208.137 128.815 207.513 129.712C207.044 131.43 206.615 133.226 205.444 134.631C205.795 135.49 203.765 136.817 202.984 137.52C202.828 137.598 202.555 137.52 202.555 137.52C202.36 138.067 201.228 139.003 200.915 138.34C199.939 139.121 198.69 139.004 197.636 139.589C197.09 140.175 195.294 140.292 194.747 139.589C192.952 138.964 191.078 138.574 189.399 137.52C189.204 137.442 188.97 137.52 188.97 137.52C188.189 137.013 187.369 136.271 186.901 135.451C186.862 135.139 186.471 134.983 186.471 134.631C185.573 132.523 184.285 129.947 184.832 127.643C184.246 127.331 184.168 125.887 184.832 125.574C185.261 123.935 186.354 122.607 186.901 121.046C187.408 120.265 188.15 119.445 188.97 118.977C190.843 118.313 192.522 116.713 194.708 116.908C195.333 116.4 197.129 116.283 197.636 116.986ZM180.42 137.481C181.396 137.598 182.489 138.184 182.88 139.121C183.036 139.199 183.309 139.121 183.309 139.121C184.09 139.628 184.91 140.37 185.378 141.19C186.12 142.79 186.862 144.391 187.447 146.108C188.072 147.045 188.15 149.31 187.447 150.207C186.94 151.613 186.354 152.94 185.808 154.306C185.339 155.478 184.441 156.532 183.348 157.195C182.606 156.961 182.333 157.898 181.709 158.015C181.435 158.64 180.108 159.655 179.64 158.835C179.327 158.874 179.171 159.264 178.82 159.264C178.586 159.928 177.688 159.577 177.18 159.694H175.111C174.487 159.538 173.393 160.084 173.042 159.264C172.925 158.679 172.183 158.952 171.793 158.835C171.051 158.718 170.036 158.405 169.724 157.586C169.724 157.117 169.177 157.234 168.904 157.156C167.225 155.907 165.586 154.306 165.195 152.237C165.313 151.222 164.532 150.442 164.766 149.349C164.18 148.919 164.063 147.28 164.766 146.889C164.649 144.742 165.976 143.024 166.835 141.151C167.343 140.37 168.084 139.55 168.904 139.082C172.378 136.856 176.517 136.037 180.42 137.481Z" stroke="#083553" stroke-opacity="0.98" stroke-width="0.117114"/>
<path d="M65.6093 94.422H99.2601V111.247C99.2601 111.286 99.6895 111.247 99.6895 111.247C99.4943 105.665 100.119 99.7702 99.3772 94.3439C88.3685 93.8755 76.4618 93.6803 65.6093 94.422Z" stroke="#0094C0" stroke-opacity="0.86" stroke-width="0.117114"/>
<path d="M48.3934 111.638H66.0387V94.422H65.6092V111.247C59.9487 111.521 53.7807 110.701 48.3934 111.638Z" stroke="#027BA4" stroke-opacity="0.75" stroke-width="0.117114"/>
<path d="M48.8229 111.638V144.859H65.6483C66.5852 150.09 65.8045 156.141 66.0777 161.685H99.2991V144.859H116.515V111.638C110.854 111.365 104.647 112.184 99.2991 111.208V94.3831H66.0777V111.599C60.3001 111.638 54.5615 111.638 48.8229 111.638ZM93.5215 116.986C99.182 117.259 105.389 116.44 110.737 117.416V138.73C105.389 139.667 99.182 138.886 93.5215 139.16V155.985C86.6508 156.922 78.9603 156.141 71.7773 156.415C70.8404 151.066 71.6211 144.859 71.3479 139.199H54.5224C53.8588 132.406 53.8198 124.247 54.5224 117.455C59.7535 116.518 65.8045 117.298 71.3479 117.025C71.6211 111.482 70.8013 105.431 71.7773 100.2H93.0921C94.029 105.392 93.2482 111.443 93.5215 116.986Z" stroke="#093553" stroke-width="0.117114"/>
<path d="M162.385 97.3108C163.478 96.6081 164.493 95.5151 165.274 94.422C164.18 95.1637 163.165 96.2177 162.385 97.3108Z" stroke="#0185AF" stroke-opacity="0.78" stroke-width="0.117114"/>
<path d="M190.687 98.521C189.75 96.9595 188.54 95.476 186.979 94.422C188.189 95.7883 189.321 97.3889 190.687 98.521Z" stroke="#0283AD" stroke-opacity="0.82" stroke-width="0.117114"/>
<path d="M173.862 96.8813H177.961C177.063 96.1787 174.799 96.2567 173.862 96.8813Z" stroke="#083453" stroke-opacity="0.56" stroke-width="0.117114"/>
<path d="M166.484 101.8C167.655 100.746 168.67 99.6531 169.763 98.521C168.318 99.1066 167.069 100.356 166.484 101.8Z" stroke="#023356" stroke-opacity="0.34" stroke-width="0.117114"/>
<path d="M185.339 101.41C185.339 101.41 185.417 101.176 185.339 100.98C184.558 100.473 183.739 99.7313 183.27 98.9115C182.919 98.9505 182.763 98.5601 182.45 98.4821C183.192 99.6142 184.285 100.629 185.339 101.41Z" stroke="#073352" stroke-opacity="0.15" stroke-width="0.117114"/>
<path d="M185.339 100.98C184.91 100.161 184.09 99.4579 183.27 98.9114C183.739 99.7702 184.558 100.473 185.339 100.98Z" stroke="#093553" stroke-opacity="0.8" stroke-width="0.117114"/>
<path d="M71.3479 116.986V117.416C72.2848 112.067 71.504 105.86 71.7773 100.2C70.8013 105.392 71.6211 111.443 71.3479 116.986Z" stroke="#093553" stroke-opacity="0.69" stroke-width="0.117114"/>
<path d="M93.5215 117.376V116.947C93.2483 111.404 94.0681 105.353 93.0921 100.122C93.3654 105.86 92.5456 112.028 93.5215 117.376Z" stroke="#073551" stroke-opacity="0.15" stroke-width="0.117114"/>
<path d="M165.234 104.689C165.664 103.869 166.015 103.049 166.484 102.23C165.703 102.581 164.805 104.142 165.234 104.689Z" stroke="#00335D" stroke-opacity="0.22" stroke-width="0.117114"/>
<path d="M158.676 106.329C159.379 106.133 158.988 105.197 159.105 104.689C158.364 104.884 158.793 105.782 158.676 106.329Z" stroke="#056A90" stroke-opacity="0.78" stroke-width="0.117114"/>
<path d="M187.408 109.608C188.033 108.71 188.306 106.173 186.979 105.509C187.72 106.719 187.252 108.242 187.408 109.608Z" stroke="#073251" stroke-opacity="0.44" stroke-width="0.117114"/>
<path d="M194.357 110.818C192.366 110.35 194.435 107.031 193.108 105.899V111.248C193.537 111.169 194.24 111.404 194.357 110.818Z" stroke="#065275" stroke-opacity="0.83" stroke-width="0.117114"/>
<path d="M164.844 109.608V106.719C164.141 107.266 164.259 109.061 164.844 109.608Z" stroke="#083452" stroke-opacity="0.18" stroke-width="0.117114"/>
<path d="M199.705 111.248C199.51 110.545 198.573 110.935 198.066 110.818C198.261 111.56 199.159 111.13 199.705 111.248Z" stroke="#046E95" stroke-opacity="0.78" stroke-width="0.117114"/>
<path d="M116.476 111.638C111.284 110.701 105.194 111.521 99.6505 111.209C99.6505 111.209 99.2211 111.248 99.2211 111.209C104.569 112.185 110.776 111.365 116.476 111.638Z" stroke="#0183AD" stroke-opacity="0.75" stroke-width="0.117114"/>
<path d="M48.8229 144.859V111.638H48.3934C48.6667 122.647 47.8469 134.163 48.8229 144.859Z" stroke="#05648A" stroke-opacity="0.77" stroke-width="0.117114"/>
<path d="M116.476 144.859C117.179 134.241 117.14 122.295 116.476 111.638V144.859Z" stroke="#0096C1" stroke-opacity="0.89" stroke-width="0.117114"/>
<path d="M141.89 117.806C143.1 116.947 144.271 115.737 145.169 114.527C143.959 115.385 142.788 116.596 141.89 117.806Z" stroke="#046990" stroke-opacity="0.78" stroke-width="0.117114"/>
<path d="M209.933 117.376C209.23 116.283 208.137 115.268 207.044 114.488C207.786 115.62 208.879 116.635 209.933 117.376Z" stroke="#0281AB" stroke-opacity="0.77" stroke-width="0.117114"/>
<path d="M168.943 116.986C168.006 116.635 167.499 115.542 166.874 114.917C166.328 115.385 168.475 117.494 168.943 116.986Z" stroke="#063353" stroke-opacity="0.47" stroke-width="0.117114"/>
<path d="M184.519 115.737C184.285 116.4 183.465 116.674 183.27 117.376C184.09 116.83 185.261 116.01 185.339 114.917C184.91 114.995 184.676 115.424 184.519 115.737Z" stroke="#083654" stroke-opacity="0.52" stroke-width="0.117114"/>
<path d="M182.88 117.376C182.88 117.376 183.114 117.454 183.309 117.376C183.504 116.674 184.324 116.4 184.558 115.737C183.817 116.049 183.27 116.752 182.88 117.376Z" stroke="#014858" stroke-opacity="0.04" stroke-width="0.117114"/>
<path d="M154.577 116.986H158.286C157.505 116.283 155.397 116.361 154.577 116.986Z" stroke="#093453" stroke-opacity="0.21" stroke-width="0.117114"/>
<path d="M194.786 116.986H197.675C197.129 116.283 195.333 116.4 194.786 116.986Z" stroke="#093653" stroke-opacity="0.14" stroke-width="0.117114"/>
<path d="M54.5615 117.376H71.3869V116.947C65.8435 117.259 59.7926 116.439 54.5615 117.376Z" stroke="#083553" stroke-opacity="0.82" stroke-width="0.117114"/>
<path d="M93.5215 117.376H110.776C105.428 116.439 99.221 117.259 93.5605 116.947C93.5215 116.986 93.4824 117.376 93.5215 117.376Z" stroke="#083453" stroke-opacity="0.83" stroke-width="0.117114"/>
<path d="M54.5615 139.121V117.376C53.8588 124.169 53.8588 132.328 54.5615 139.121Z" stroke="#093553" stroke-opacity="0.64" stroke-width="0.117114"/>
<path d="M110.308 138.73H110.737V117.416H110.308V138.73Z" stroke="#0C3A51" stroke-opacity="0.09" stroke-width="0.117114"/>
<path d="M180.03 119.055C180.811 118.977 181.748 118.626 182.099 117.806C181.396 118.196 180.498 118.431 180.03 119.055Z" stroke="#073750" stroke-opacity="0.25" stroke-width="0.117114"/>
<path d="M166.054 122.725C165.703 120.968 164.024 119.211 162.346 118.626C163.751 119.758 165.078 121.241 166.054 122.725Z" stroke="#003359" stroke-opacity="0.33" stroke-width="0.117114"/>
<path d="M205.014 121.085C205.522 120.226 203.414 119.016 202.555 118.626C203.062 119.797 204.546 119.992 205.014 121.085Z" stroke="#003459" stroke-opacity="0.36" stroke-width="0.117114"/>
<path d="M146.808 121.085C147.628 120.656 148.331 119.836 148.877 119.016C148.019 119.484 147.316 120.304 146.808 121.085Z" stroke="#093553" stroke-opacity="0.38" stroke-width="0.117114"/>
<path d="M186.979 121.085C187.799 120.656 188.501 119.836 189.048 119.016C188.228 119.484 187.486 120.304 186.979 121.085Z" stroke="#083454" stroke-opacity="0.24" stroke-width="0.117114"/>
<path d="M178.39 119.445H173.862C174.916 120.148 177.297 120.07 178.39 119.445Z" stroke="#083553" stroke-opacity="0.43" stroke-width="0.117114"/>
<path d="M138.611 126.004C139.313 125.809 138.923 124.872 139.04 124.364C138.298 124.559 138.728 125.496 138.611 126.004Z" stroke="#037AA2" stroke-opacity="0.78" stroke-width="0.117114"/>
<path d="M167.303 129.713C168.006 128.815 167.928 126.55 167.303 125.614V129.713Z" stroke="#093452" stroke-opacity="0.39" stroke-width="0.117114"/>
<path d="M184.949 127.643V125.574C184.246 125.887 184.363 127.331 184.949 127.643Z" stroke="#0A3353" stroke-opacity="0.28" stroke-width="0.117114"/>
<path d="M207.474 129.713C208.098 128.815 208.372 126.277 207.044 125.614C207.825 126.785 207.357 128.307 207.474 129.713Z" stroke="#073453" stroke-opacity="0.5" stroke-width="0.117114"/>
<path d="M213.212 130.103C213.915 129.205 213.837 126.941 213.212 126.004V130.103Z" stroke="#055D81" stroke-opacity="0.79" stroke-width="0.117114"/>
<path d="M144.739 129.712V126.824C144.037 127.331 144.154 129.166 144.739 129.712Z" stroke="#093552" stroke-opacity="0.24" stroke-width="0.117114"/>
<path d="M146.808 135.451C147.589 135.959 148.409 136.7 148.878 137.52C148.878 137.52 149.073 137.481 149.307 137.52C148.448 136.154 146.887 135.139 146.028 133.812C145.833 134.553 146.574 134.827 146.808 135.451Z" stroke="#063453" stroke-opacity="0.2" stroke-width="0.117114"/>
<path d="M186.979 135.451C187.759 135.959 188.579 136.7 189.048 137.52C189.048 137.52 189.282 137.442 189.477 137.52C188.774 136.427 187.681 135.412 186.588 134.631C186.549 134.983 186.94 135.1 186.979 135.451Z" stroke="#00385E" stroke-opacity="0.07" stroke-width="0.117114"/>
<path d="M202.984 137.481C203.765 136.817 205.795 135.49 205.444 134.592C204.897 135.724 203.57 136.349 202.984 137.481Z" stroke="#083453" stroke-opacity="0.3" stroke-width="0.117114"/>
<path d="M161.955 137.91C163.361 137.637 164.337 136.076 165.234 135.022C164.063 135.763 163.126 137.169 161.955 137.91Z" stroke="#073353" stroke-opacity="0.17" stroke-width="0.117114"/>
<path d="M148.838 137.481C148.409 136.661 147.589 135.959 146.769 135.412C147.238 136.271 148.058 136.974 148.838 137.481Z" stroke="#093453" stroke-opacity="0.81" stroke-width="0.117114"/>
<path d="M189.048 137.481C188.618 136.661 187.799 135.959 186.979 135.412C187.447 136.271 188.228 136.974 189.048 137.481Z" stroke="#083553" stroke-opacity="0.69" stroke-width="0.117114"/>
<path d="M182.88 139.121C182.45 138.184 181.396 137.598 180.42 137.481C181.006 138.223 182.138 138.418 182.88 139.121Z" stroke="#073458" stroke-opacity="0.23" stroke-width="0.117114"/>
<path d="M200.915 138.301C201.228 138.965 202.36 138.028 202.555 137.481C202.008 137.754 201.462 137.989 200.915 138.301Z" stroke="#002D5F" stroke-opacity="0.21" stroke-width="0.117114"/>
<path d="M159.496 139.121C160.277 139.199 161.096 138.886 161.565 138.301C160.862 138.457 159.964 138.652 159.496 139.121Z" stroke="#0A3653" stroke-opacity="0.45" stroke-width="0.117114"/>
<path d="M54.5615 139.121H71.8163C66.4681 138.184 60.261 139.004 54.6005 138.691C54.5615 138.73 54.5224 139.121 54.5615 139.121Z" stroke="#0A3652" stroke-opacity="0.29" stroke-width="0.117114"/>
<path d="M93.0921 155.946H93.5215V138.691C92.5456 144.04 93.3654 150.247 93.0921 155.946Z" stroke="#063551" stroke-opacity="0.15" stroke-width="0.117114"/>
<path d="M93.5215 139.121C99.182 138.847 105.389 139.667 110.737 138.691H93.4825C93.5215 138.73 93.5215 138.926 93.5215 139.121Z" stroke="#093652" stroke-opacity="0.29" stroke-width="0.117114"/>
<path d="M206.654 142.009C207.864 141.151 209.035 139.94 209.933 138.73C208.723 139.589 207.552 140.799 206.654 142.009Z" stroke="#065375" stroke-opacity="0.83" stroke-width="0.117114"/>
<path d="M71.7772 156.336V139.082H71.3478C71.6211 144.82 70.8403 150.988 71.7772 156.336Z" stroke="#093553" stroke-opacity="0.7" stroke-width="0.117114"/>
<path d="M144.739 141.58C144.154 140.643 143.217 139.745 142.28 139.121C142.866 140.097 143.803 140.955 144.739 141.58Z" stroke="#0091BC" stroke-opacity="0.83" stroke-width="0.117114"/>
<path d="M166.874 141.19C167.694 140.76 168.397 139.94 168.943 139.121C168.123 139.589 167.421 140.37 166.874 141.19Z" stroke="#083653" stroke-opacity="0.13" stroke-width="0.117114"/>
<path d="M185.339 141.19C184.91 140.37 184.09 139.667 183.27 139.121C183.739 139.94 184.558 140.643 185.339 141.19Z" stroke="#083553" stroke-opacity="0.29" stroke-width="0.117114"/>
<path d="M157.466 139.55H154.577C155.124 140.253 156.919 140.136 157.466 139.55Z" stroke="#083553" stroke-opacity="0.64" stroke-width="0.117114"/>
<path d="M197.636 139.55H194.747C195.294 140.253 197.09 140.136 197.636 139.55Z" stroke="#083552" stroke-opacity="0.64" stroke-width="0.117114"/>
<path d="M66.0387 162.075V161.646C65.7654 156.102 66.5852 150.051 65.6092 144.82C65.8825 150.559 65.1017 156.727 66.0387 162.075Z" stroke="#04749B" stroke-opacity="0.75" stroke-width="0.117114"/>
<path d="M158.676 146.108C159.184 144.43 154.772 145.679 153.328 145.289C154.694 146.46 157.349 144.937 158.676 146.108Z" stroke="#03779F" stroke-opacity="0.78" stroke-width="0.117114"/>
<path d="M193.147 146.109H193.576C194.747 144.937 197.285 146.421 198.495 145.289C196.855 145.679 193.771 144.352 193.147 146.109Z" stroke="#037AA2" stroke-opacity="0.77" stroke-width="0.117114"/>
<path d="M187.408 150.208C188.111 149.31 188.033 147.045 187.408 146.109V150.208Z" stroke="#093453" stroke-opacity="0.49" stroke-width="0.117114"/>
<path d="M193.147 150.598C194.084 149.505 193.303 147.514 193.576 146.069H193.147V150.598Z" stroke="#075072" stroke-opacity="0.84" stroke-width="0.117114"/>
<path d="M164.844 149.388V146.928C164.141 147.319 164.259 148.958 164.844 149.388Z" stroke="#083653" stroke-opacity="0.16" stroke-width="0.117114"/>
<path d="M168.943 157.156C167.577 155.634 166.289 153.877 165.234 152.237C165.625 154.306 167.264 155.907 168.943 157.156Z" stroke="#083551" stroke-opacity="0.31" stroke-width="0.117114"/>
<path d="M183.309 157.156C184.402 156.532 185.3 155.439 185.768 154.267C184.793 155.009 184.168 156.219 183.309 157.156Z" stroke="#073750" stroke-opacity="0.3" stroke-width="0.117114"/>
<path d="M71.7772 156.336C78.9602 156.063 86.6508 156.883 93.5215 155.907H71.7772C71.7772 155.946 71.7382 156.336 71.7772 156.336Z" stroke="#093653" stroke-opacity="0.39" stroke-width="0.117114"/>
<path d="M171.832 158.796C171.442 158.093 170.427 158.054 169.763 157.547C170.036 158.405 171.051 158.679 171.832 158.796Z" stroke="#0B3354" stroke-opacity="0.27" stroke-width="0.117114"/>
<path d="M179.601 158.796C180.069 159.616 181.357 158.601 181.67 157.976C180.967 158.21 180.381 158.835 179.601 158.796Z" stroke="#093452" stroke-opacity="0.43" stroke-width="0.117114"/>
<path d="M186.979 161.685C188.189 160.826 189.36 159.616 190.258 158.406C189.048 159.264 187.877 160.475 186.979 161.685Z" stroke="#04698F" stroke-opacity="0.78" stroke-width="0.117114"/>
<path d="M165.234 161.685C164.532 160.592 163.439 159.577 162.346 158.796C163.087 159.889 164.18 160.904 165.234 161.685Z" stroke="#065073" stroke-opacity="0.83" stroke-width="0.117114"/>
<path d="M175.111 159.616C174.799 158.835 173.706 159.382 173.042 159.186C173.354 160.006 174.447 159.46 175.111 159.616Z" stroke="#073551" stroke-opacity="0.36" stroke-width="0.117114"/>
<path d="M177.141 159.616C177.649 159.499 178.546 159.85 178.781 159.186C178.273 159.342 177.375 158.952 177.141 159.616Z" stroke="#0A3653" stroke-opacity="0.31" stroke-width="0.117114"/>
<path d="M66.0387 162.075C77.0474 161.802 88.5636 162.622 99.2601 161.646H66.0387C66.0387 161.685 65.9996 162.075 66.0387 162.075Z" stroke="#065477" stroke-opacity="0.84" stroke-width="0.117114"/>
<path d="M178.39 165.354C178.898 165.237 179.796 165.588 180.03 164.925C179.483 165.081 178.586 164.691 178.39 165.354Z" stroke="#056B91" stroke-opacity="0.79" stroke-width="0.117114"/>
<path d="M38.5558 176.441C37.6579 175.348 36.6429 174.138 35.667 173.162C36.2135 174.489 37.3847 175.582 38.5558 176.441Z" stroke="#046F95" stroke-opacity="0.78" stroke-width="0.117114"/>
<path d="M217.741 176.441C218.561 176.012 219.263 175.192 219.81 174.372C218.951 174.841 218.248 175.66 217.741 176.441Z" stroke="#065578" stroke-opacity="0.8" stroke-width="0.117114"/>
<path d="M221.02 181.36C222.66 179.954 224.572 178.432 225.548 176.441C224.143 178.042 222.386 179.642 221.02 181.36Z" stroke="#053357" stroke-opacity="0.28" stroke-width="0.117114"/>
<path d="M35.706 181.75C34.4178 180.111 32.8172 178.549 31.1776 177.222C32.4659 179.057 33.8712 180.462 35.706 181.75Z" stroke="#073752" stroke-opacity="0.31" stroke-width="0.117114"/>
<path d="M212.822 178.081H43.4747C99.4553 178.744 156.802 178.744 212.822 178.081Z" stroke="#0189B3" stroke-opacity="0.78" stroke-width="0.117114"/>
<path d="M42.2645 184.21H43.9041C43.9821 184.171 43.9041 183.78 43.9041 183.78C43.3966 183.936 42.4597 183.585 42.2645 184.21Z" stroke="#083453" stroke-opacity="0.63" stroke-width="0.117114"/>
<path d="M43.9041 184.21H68.9275C61.0027 183.273 52.1801 184.093 43.9041 183.78C43.9041 183.819 43.9821 184.171 43.9041 184.21Z" stroke="#093552" stroke-opacity="0.87" stroke-width="0.117114"/>
<path d="M77.0865 184.21C77.1255 184.288 77.5159 184.21 77.5159 184.21H177.141C176.79 185.03 175.814 185.42 175.502 186.279C176.321 185.732 177.492 184.912 177.571 183.819C144.115 184.093 110.23 183.273 77.0865 184.21Z" stroke="#093756" stroke-opacity="0.89" stroke-width="0.117114"/>
<path d="M185.769 184.21H212.432C203.999 183.546 194.201 183.546 185.769 184.21Z" stroke="#093553" stroke-opacity="0.87" stroke-width="0.117114"/>
<path d="M69.3179 185.029C70.5281 185.927 71.7383 187.098 72.5971 188.309C72.6361 188.699 73.1046 188.777 73.4169 188.738C72.1287 187.098 70.5281 185.537 68.8885 184.21C68.9666 184.483 68.8495 185.029 69.3179 185.029Z" stroke="#073851" stroke-opacity="0.6" stroke-width="0.117114"/>
<path d="M79.5459 186.669C79.4287 186.162 78.8041 185.966 78.7261 185.42C78.2186 185.147 77.672 184.756 77.4768 184.171C77.4768 184.171 77.0865 184.249 77.0474 184.171C77.672 185.186 78.648 186.044 79.5459 186.669Z" stroke="#084464" stroke-opacity="0.63" stroke-width="0.117114"/>
<path d="M78.726 185.459C79.3506 185.849 80.0533 186.396 80.3656 187.098C80.9903 187.489 81.6929 188.035 82.0052 188.738C92.3113 196.155 104.179 201.777 116.866 203.494C117.491 203.651 118.584 203.104 118.935 203.924H136.229C136.463 203.26 137.361 203.612 137.869 203.494C151.805 201.503 164.688 195.257 175.58 186.279C175.892 185.459 176.907 185.068 177.219 184.21H77.5939C77.672 184.795 78.2576 185.186 78.726 185.459Z" stroke="#00B8F0" stroke-width="0.117114"/>
<path d="M181.67 188.309C183.465 187.411 184.441 185.693 185.769 184.21C184.246 185.342 182.841 186.825 181.67 188.309Z" stroke="#033355" stroke-opacity="0.46" stroke-width="0.117114"/>
<path d="M72.5971 188.309C71.7382 187.098 70.5281 185.927 69.3179 185.029C70.1767 186.279 71.3869 187.411 72.5971 188.309Z" stroke="#013056" stroke-opacity="0.04" stroke-width="0.117114"/>
<path d="M79.5459 186.669C79.8972 186.63 80.0534 187.02 80.3657 187.098C80.0534 186.396 79.3507 185.849 78.7261 185.459C78.8042 185.966 79.4288 186.162 79.5459 186.669Z" stroke="#01A4D7" stroke-opacity="0.67" stroke-width="0.117114"/>
<path d="M82.0053 188.738C81.693 188.036 80.9903 187.489 80.3657 187.099C80.678 187.801 81.3807 188.348 82.0053 188.738Z" stroke="#084263" stroke-opacity="0.67" stroke-width="0.117114"/>
<path d="M178.39 191.588C179.601 190.729 180.772 189.519 181.67 188.309C180.42 189.167 179.288 190.378 178.39 191.588Z" stroke="#013057" stroke-opacity="0.22" stroke-width="0.117114"/>
<path d="M77.0864 192.017C76.8132 191.432 76.1886 190.69 75.4468 190.768C75.7201 191.393 76.3838 192.095 77.0864 192.017Z" stroke="#053954" stroke-opacity="0.37" stroke-width="0.117114"/>
<path d="M80.7951 194.867C80.4437 194.281 79.663 194.125 79.1555 193.618C79.4287 194.242 80.0533 194.984 80.7951 194.867Z" stroke="#063653" stroke-opacity="0.28" stroke-width="0.117114"/>
<path d="M118.935 203.924C118.623 203.143 117.53 203.69 116.866 203.495C117.179 204.275 118.272 203.729 118.935 203.924Z" stroke="#085275" stroke-opacity="0.76" stroke-width="0.117114"/>
<path d="M136.151 203.924C136.659 203.807 137.556 204.158 137.791 203.495C137.283 203.612 136.346 203.26 136.151 203.924Z" stroke="#084C6E" stroke-opacity="0.8" stroke-width="0.117114"/>
<path d="M123.425 204.314V203.885H120.146C120.848 204.822 122.41 204.08 123.425 204.314Z" stroke="#085276" stroke-opacity="0.76" stroke-width="0.117114"/>
<path d="M123.425 204.314H131.232V203.885H123.425V204.314Z" stroke="#019DCF" stroke-opacity="0.85" stroke-width="0.117114"/>
<path d="M131.232 204.314C132.13 204.119 133.497 204.705 134.121 203.885H131.232V204.314Z" stroke="#085277" stroke-opacity="0.79" stroke-width="0.117114"/>
<path d="M111.128 208.843H112.767C112.611 208.179 111.323 208.257 111.128 208.843Z" stroke="#0A3553" stroke-opacity="0.43" stroke-width="0.117114"/>
<path d="M117.296 209.662C117.101 208.96 116.164 209.35 115.656 209.233C115.851 209.975 116.749 209.545 117.296 209.662Z" stroke="#0A3755" stroke-opacity="0.27" stroke-width="0.117114"/>
<path d="M136.542 209.662C137.322 209.506 138.532 210.014 139.001 209.233C138.259 209.389 137.01 208.882 136.542 209.662Z" stroke="#083452" stroke-opacity="0.47" stroke-width="0.117114"/>
<path d="M121.395 210.053C120.848 209.194 119.404 209.858 118.506 209.624C119.091 210.521 120.497 209.858 121.395 210.053Z" stroke="#093453" stroke-opacity="0.31" stroke-width="0.117114"/>
<path d="M132.052 210.053H133.692C133.77 210.014 133.692 209.623 133.692 209.623C133.184 209.741 132.247 209.389 132.052 210.053Z" stroke="#093553" stroke-opacity="0.66" stroke-width="0.117114"/>
<path d="M133.692 210.053C134.472 209.897 135.683 210.404 136.151 209.623H133.692C133.692 209.662 133.77 210.014 133.692 210.053Z" stroke="#073553" stroke-opacity="0.25" stroke-width="0.117114"/>
<path d="M129.983 210.053H124.635C125.962 210.756 128.656 210.717 129.983 210.053Z" stroke="#083653" stroke-opacity="0.11" stroke-width="0.117114"/>
<path d="M123.854 46.8738H130.842C128.968 46.1711 125.728 46.2102 123.854 46.8738Z" fill="#083554" fill-opacity="0.13"/>
<path d="M116.866 47.3031C116.632 47.9667 115.734 47.6154 115.227 47.7325C106.365 48.6694 98.0499 51.7925 90.2033 55.9305C89.6177 56.9064 88.3685 57.3359 87.3144 57.5701C85.4797 58.5851 83.7229 59.6391 81.9662 60.8493C81.3416 62.0595 80.1314 62.606 79.0774 63.3087C79.0774 63.3087 78.8432 63.2306 78.648 63.3087C78.2576 63.9333 77.7111 64.636 77.0084 64.9483C76.7351 65.0264 76.1886 64.9093 76.1886 65.3777C75.7982 66.0023 75.2517 66.705 74.549 67.0173C74.1196 67.0564 73.8853 67.4858 73.7292 67.8371C70.8404 72.7169 66.0387 74.0832 60.6124 73.1853C54.6786 72.9121 48.1983 73.7319 42.5768 72.7559C39.6489 73.2634 36.3697 74.1223 34.3788 76.4645C33.4809 77.6747 32.3098 78.8849 31.0996 79.7437C29.6161 81.8908 28.5231 84.4283 28.6402 87.1219V169.922C28.5231 172.654 29.6161 175.114 31.0996 177.3C32.7392 178.627 34.3397 180.189 35.628 181.828C37.7361 182.882 39.8441 184.054 42.1864 184.288C42.4206 183.624 43.3185 183.975 43.826 183.858C52.1021 184.132 60.9247 183.312 68.8494 184.288C70.489 185.615 72.0896 187.177 73.3778 188.816C73.8073 189.636 74.6271 190.339 75.4469 190.885C76.1886 190.807 76.8132 191.51 77.0865 192.134C77.5159 192.837 78.2186 193.813 79.1555 193.774C79.663 194.242 80.4437 194.438 80.7951 195.023C89.4615 202.167 100.392 206.227 111.128 208.96C111.323 208.413 112.611 208.335 112.767 208.96C113.626 209.545 114.641 209.35 115.656 209.389C116.164 209.506 117.101 209.077 117.296 209.819H118.545C119.443 210.014 120.848 209.35 121.434 210.248H132.13C132.364 209.584 133.262 209.936 133.77 209.819H136.229C136.229 209.819 136.424 209.78 136.659 209.819C137.127 209.038 138.337 209.584 139.118 209.389C153.679 207.789 167.147 201.074 178.468 191.744C179.366 190.534 180.537 189.324 181.748 188.465C182.919 186.981 184.363 185.498 185.847 184.366C194.279 183.702 204.077 183.663 212.51 184.366C215.672 184.444 218.6 183.273 221.137 181.477C222.503 179.759 224.299 178.159 225.665 176.558C227.032 174.177 228.047 171.639 227.735 168.751V88.4102C228.086 84.8577 226.563 81.5785 224.455 78.963C223.245 78.0651 222.035 76.894 221.176 75.6838C221.176 75.6838 220.942 75.7228 220.747 75.6838C220.2 75.2934 219.302 75.2544 219.107 74.4346C217.077 73.3805 214.891 72.7169 212.549 72.795C204.116 73.4586 194.318 73.4976 185.886 72.795C183.856 71.0773 181.826 69.0863 180.147 67.0564C179.522 66.666 178.82 66.1194 178.507 65.4168C178.507 65.4168 178.273 65.4948 178.078 65.4168C177.453 65.0264 176.751 64.4798 176.438 63.7772C176.438 63.7772 176.204 63.8552 176.009 63.7772C175.502 63.66 175.306 63.0354 174.76 62.9574C173.628 61.8252 171.988 61.3178 171.051 60.0685C167.147 57.1797 162.58 54.6032 157.934 53.0807C157.193 52.9636 156.178 52.6513 155.865 51.8315C150.986 50.2309 146.145 48.6694 141.109 47.7325C140.914 48.279 139.626 48.3571 139.469 47.7325C138.767 46.8346 137.205 47.5373 136.19 47.3031C135.292 47.1079 133.887 47.7715 133.301 46.8737H122.605C122.371 47.5373 121.473 47.186 120.965 47.3031C120.458 47.186 119.521 47.6154 119.326 46.8737C118.467 46.9517 117.803 47.5373 116.866 47.3031ZM134.512 53.0417H136.151C136.659 53.1588 137.596 52.7294 137.791 53.4711C151.532 55.3449 164.298 61.7081 175.111 70.2965C176.048 71.0773 177.414 71.8971 177.571 73.1853C144.154 72.9121 110.191 73.7319 77.1255 72.7559C77.633 71.9752 78.3747 71.1554 79.1945 70.6869C79.702 70.5698 79.8972 69.9452 80.4437 69.8671C91.2573 60.9274 104.257 54.9155 118.155 53.4711C118.389 52.8074 119.287 53.1588 119.794 53.0417C119.989 53.0807 120.224 53.0417 120.224 53.0417C120.809 52.2219 122.175 52.8074 123.112 52.6123H132.13C132.833 52.8074 134.082 52.1828 134.512 53.0417ZM213.212 78.8459C217.155 79.1191 220.825 82.8277 221.41 86.6535C222.113 114.097 222.113 142.868 221.41 170.312C221.449 171.874 220.278 173.045 219.771 174.411C219.263 175.192 218.522 176.012 217.702 176.48C216.101 177.183 214.696 178.432 212.783 178.12C156.763 178.822 99.4163 178.822 43.4356 178.12C41.5228 178.471 40.1174 177.144 38.5168 176.48C37.3066 175.621 36.1745 174.567 35.628 173.201C32.8953 164.691 35.1205 154.814 34.3788 145.718V87.9027C34.4959 87.3952 34.0665 86.4583 34.8082 86.2631C34.6911 85.0139 35.628 84.077 36.0574 82.9839C36.682 82.047 37.5799 81.1101 38.5168 80.5245C40.1174 79.8218 41.5228 78.5726 43.4356 78.8849C99.6115 78.1822 157.115 78.1822 213.212 78.8459ZM175.502 186.279C164.571 195.257 151.688 201.504 137.791 203.495C137.556 204.158 136.659 203.807 136.151 203.924H134.082C133.497 204.744 132.13 204.158 131.193 204.353H123.386C122.371 204.119 120.809 204.822 120.106 203.924H118.857C118.233 203.768 117.14 204.314 116.788 203.495C104.101 201.777 92.2723 196.155 81.9272 188.738C81.3026 188.348 80.5999 187.801 80.2876 187.099C79.9753 187.059 79.8191 186.669 79.4678 186.669C78.5309 186.044 77.594 185.147 77.0084 184.21C110.113 183.273 144.037 184.093 177.453 183.78C177.492 184.912 176.321 185.693 175.502 186.279Z" fill="#083553" fill-opacity="0.98"/>
<path d="M120.965 47.3031C120.887 47.264 120.965 46.8737 120.965 46.8737H119.326C119.521 47.6154 120.458 47.186 120.965 47.3031Z" fill="#093452" fill-opacity="0.4"/>
<path d="M120.965 47.3031C121.473 47.186 122.371 47.5373 122.605 46.8737H120.965C120.965 46.8737 120.887 47.264 120.965 47.3031Z" fill="#083552" fill-opacity="0.73"/>
<path d="M136.151 47.3031C135.605 46.4443 134.16 47.1079 133.262 46.8737C133.848 47.7716 135.253 47.0689 136.151 47.3031Z" fill="#0A3453" fill-opacity="0.34"/>
<path d="M115.227 47.6935C115.734 47.5763 116.632 47.9277 116.866 47.264C116.359 47.4202 115.461 47.0298 115.227 47.6935Z" fill="#053152" fill-opacity="0.21"/>
<path d="M141.07 47.6935H139.43C139.586 48.3571 140.875 48.24 141.07 47.6935Z" fill="#093453" fill-opacity="0.6"/>
<path d="M157.856 53.0417C157.466 52.339 156.451 52.3 155.787 51.7925C156.1 52.6123 157.115 52.9246 157.856 53.0417Z" fill="#063556" fill-opacity="0.31"/>
<path d="M120.146 53.0417H123.034C123.073 53.0417 123.034 52.6122 123.034 52.6122C122.136 52.8074 120.731 52.2219 120.146 53.0417Z" fill="#084D70" fill-opacity="0.77"/>
<path d="M123.034 53.0417H132.052C132.013 53.0417 132.052 52.6123 132.052 52.6123H123.034V53.0417Z" fill="#0299CB" fill-opacity="0.84"/>
<path d="M132.052 53.0418H134.512C134.082 52.1829 132.833 52.8075 132.052 52.6123C132.052 52.6123 132.013 53.0027 132.052 53.0418Z" fill="#084668" fill-opacity="0.81"/>
<path d="M118.115 53.4321C118.623 53.315 119.56 53.7444 119.755 53.0027C119.248 53.1588 118.311 52.7685 118.115 53.4321Z" fill="#048BBA" fill-opacity="0.76"/>
<path d="M118.115 53.4321C104.218 54.8765 91.2182 60.8884 80.4047 69.8281C80.0143 70.4527 79.4678 71.1554 78.7651 71.4677C78.2576 71.741 77.7111 72.1314 77.5159 72.7169H177.141C176.673 71.741 175.502 71.2335 175.072 70.2575C164.259 61.6691 151.493 55.3059 137.752 53.4321C137.244 53.315 136.307 53.7444 136.112 53.0027H120.106C120.106 53.0027 119.911 53.0417 119.677 53.0027C119.521 53.7444 118.623 53.315 118.115 53.4321Z" fill="#00B8F0"/>
<path d="M137.791 53.4321C137.596 52.7294 136.659 53.1198 136.151 53.0027C136.346 53.7444 137.244 53.315 137.791 53.4321Z" fill="#084D6F" fill-opacity="0.81"/>
<path d="M87.3535 57.5311C88.4075 57.2969 89.6567 56.8674 90.2423 55.8915C89.2663 56.438 88.0952 56.7503 87.3535 57.5311Z" fill="#083455" fill-opacity="0.27"/>
<path d="M174.682 62.8793C174.643 62.567 174.252 62.4108 174.252 62.0595C173.159 61.3959 172.183 60.537 170.973 59.9905C171.91 61.2397 173.55 61.7472 174.682 62.8793Z" fill="#093553" fill-opacity="0.41"/>
<path d="M79.1555 63.2697C80.1704 62.567 81.4197 62.0205 82.0443 60.8103C81.1074 61.6691 79.7801 62.1376 79.1555 63.2697Z" fill="#003159" fill-opacity="0.24"/>
<path d="M174.682 62.8792C175.228 62.9573 175.384 63.5819 175.931 63.699C175.619 62.9964 174.916 62.4498 174.291 62.0594C174.252 62.4108 174.643 62.5279 174.682 62.8792Z" fill="#002F60" fill-opacity="0.18"/>
<path d="M77.0865 64.9093C77.7892 64.5969 78.3357 63.8943 78.7261 63.2697C78.0624 63.582 77.5159 64.2846 77.0865 64.9093Z" fill="#07384D" fill-opacity="0.2"/>
<path d="M177.961 65.3387C177.649 64.636 176.946 64.0895 176.321 63.6991C176.634 64.3627 177.336 64.9483 177.961 65.3387Z" fill="#063256" fill-opacity="0.23"/>
<path d="M74.6271 66.9782C75.3298 66.6659 75.8763 65.9632 76.2667 65.3386C75.603 65.6509 75.0565 66.3146 74.6271 66.9782Z" fill="#063254" fill-opacity="0.17"/>
<path d="M180.03 66.9782C179.718 66.2755 179.015 65.729 178.39 65.3386C178.664 66.0023 179.366 66.5878 180.03 66.9782Z" fill="#00315E" fill-opacity="0.09"/>
<path d="M185.769 72.7169C184.129 70.4917 182.255 68.6569 180.03 66.9783C181.709 69.0083 183.699 70.9992 185.769 72.7169Z" fill="#023357" fill-opacity="0.41"/>
<path d="M72.5971 68.6179C71.8163 69.711 70.8013 70.765 69.7083 71.5067C66.4291 74.1613 60.8466 72.0533 56.5914 72.756H42.6548C48.2763 73.6929 54.7567 72.8731 60.6904 73.1854C66.1167 74.1223 70.9184 72.7169 73.8073 67.8372C73.4169 68.0323 72.8313 68.1885 72.5971 68.6179Z" fill="#083452" fill-opacity="0.75"/>
<path d="M69.7083 71.4677C70.8013 70.765 71.8163 69.6719 72.5971 68.5789C71.504 69.3206 70.489 70.4136 69.7083 71.4677Z" fill="#023058" fill-opacity="0.04"/>
<path d="M79.1555 70.6478C79.1165 70.9601 78.7261 71.1163 78.7261 71.4676C79.4288 71.1553 79.9753 70.4526 80.3657 69.828C79.8582 69.9061 79.663 70.5307 79.1555 70.6478Z" fill="#01A5D9" fill-opacity="0.66"/>
<path d="M77.5159 72.7168H77.0865C110.152 73.6538 144.115 72.834 177.532 73.1463C177.375 71.858 176.009 71.0382 175.072 70.2574C175.502 71.2334 176.673 71.7409 177.141 72.7168H77.5159Z" fill="#083A5B" fill-opacity="0.84"/>
<path d="M77.0865 72.7168H77.5159C77.6721 72.1703 78.2576 71.7799 78.7651 71.4676C78.7261 71.1163 79.1165 70.9601 79.1945 70.6478C78.3357 71.1163 77.633 71.897 77.0865 72.7168Z" fill="#084668" fill-opacity="0.6"/>
<path d="M212.393 72.7169H185.729C194.162 73.3806 203.96 73.3806 212.393 72.7169Z" fill="#093452" fill-opacity="0.8"/>
<path d="M220.591 75.5666C220.395 74.7858 219.497 74.7468 218.951 74.3174C219.146 75.1372 220.044 75.1762 220.591 75.5666Z" fill="#053153" fill-opacity="0.27"/>
<path d="M224.299 78.8458C223.44 77.6357 222.23 76.4645 221.02 75.5667C221.879 76.8159 223.089 77.948 224.299 78.8458Z" fill="#083354" fill-opacity="0.28"/>
<path d="M31.1776 79.6657C32.3878 78.8068 33.5589 77.5967 34.4568 76.3865C33.0514 77.1282 32.2316 78.4165 31.1776 79.6657Z" fill="#023158" fill-opacity="0.36"/>
<path d="M43.4747 78.8459H213.212C157.115 78.1822 99.6115 78.1822 43.4747 78.8459Z" fill="#0381AB" fill-opacity="0.76"/>
<path d="M38.5558 80.4855C37.9312 81.4224 37.0334 82.3594 36.0964 82.9449C35.667 84.038 34.7301 84.9749 34.8472 86.2241C34.7301 86.7316 35.1595 87.6685 34.4178 87.8637V145.679C35.1205 154.736 32.9344 164.613 35.667 173.162C36.643 174.138 37.658 175.348 38.5558 176.441C40.1564 177.105 41.5618 178.432 43.4746 178.081H212.822C214.735 178.393 216.14 177.144 217.741 176.441C218.248 175.66 218.99 174.841 219.81 174.372C220.317 173.006 221.488 171.835 221.449 170.273V86.6145C220.864 82.7888 217.194 79.0802 213.251 78.8069H43.5137C41.5618 78.5336 40.1564 79.8219 38.5558 80.4855ZM179.21 91.1429C182.06 91.4943 184.597 93.0558 187.018 94.4221C188.54 95.4762 189.789 96.9596 190.726 98.5211C191.819 100.824 193.186 103.167 193.186 105.899C194.513 107.031 192.444 110.35 194.435 110.818H198.144C198.651 110.935 199.588 110.506 199.783 111.248C202.438 111.794 204.858 113.121 207.161 114.527C208.254 115.308 209.309 116.323 210.05 117.416C211.534 120.031 213.29 122.803 213.329 126.043C213.954 126.98 214.032 129.244 213.329 130.142C213.212 133.304 211.807 136.193 210.05 138.769C209.152 139.98 207.981 141.19 206.771 142.049C204.234 143.688 201.579 144.976 198.573 145.328C197.363 146.46 194.825 144.976 193.654 146.148C193.381 147.592 194.162 149.544 193.225 150.676C193.147 153.526 191.546 155.946 190.336 158.484C189.438 159.694 188.267 160.904 187.057 161.763C184.949 163.363 182.645 164.496 180.069 165.042C179.835 165.706 178.937 165.354 178.429 165.471C173.628 165.862 169.021 164.691 165.313 161.763C164.219 160.982 163.165 159.967 162.424 158.874C159.574 155.283 158.442 150.832 158.715 146.148C157.388 144.976 154.694 146.499 153.367 145.328C150.205 144.898 147.433 143.298 144.739 141.619C143.803 140.995 142.866 140.097 142.28 139.16C139.821 135.334 138.064 130.884 138.571 126.043C138.689 125.535 138.259 124.599 139.001 124.403C139.586 122.061 140.523 119.875 141.89 117.845C142.788 116.635 143.959 115.425 145.169 114.566C149.073 111.716 153.757 110.506 158.715 110.857V106.329C158.832 105.821 158.403 104.884 159.145 104.689C159.769 102.074 160.901 99.5361 162.424 97.3109C163.204 96.2179 164.219 95.1639 165.313 94.4221C168.006 93.0558 170.661 91.1039 173.94 91.1429C175.189 90.5183 177.883 90.4402 179.21 91.1429ZM99.6505 111.248C105.194 111.521 111.245 110.701 116.476 111.677C117.14 122.295 117.179 134.28 116.476 144.898H99.2601V161.724C88.5637 162.661 77.0474 161.841 66.0387 162.153C65.1018 156.805 65.8825 150.598 65.6093 144.937H48.7838C47.8469 134.241 48.6667 122.725 48.3544 111.716C53.7026 110.779 59.9097 111.56 65.5702 111.287V94.4612C76.3838 93.7194 88.2904 93.9146 99.2991 94.3831C100.08 99.7703 99.4553 105.626 99.6505 111.248Z" fill="#0096C3"/>
<path d="M36.0964 82.9449C37.0333 82.3593 37.9312 81.4224 38.5558 80.4855C37.6189 81.071 36.7601 82.008 36.0964 82.9449Z" fill="#056388" fill-opacity="0.78"/>
<path d="M34.4568 87.8636C35.1595 87.6684 34.7691 86.7315 34.8863 86.224C34.1445 86.4582 34.574 87.3561 34.4568 87.8636Z" fill="#0280A9" fill-opacity="0.8"/>
<path d="M221.41 170.273C222.113 142.868 222.113 114.058 221.41 86.6144V170.273Z" fill="#0091BD" fill-opacity="0.84"/>
<path d="M28.7183 169.883V87.0829C28.0546 114.214 28.0546 142.712 28.7183 169.883Z" fill="#073351" fill-opacity="0.27"/>
<path d="M227.578 168.633C228.281 142.322 228.281 114.644 227.578 88.2931V168.633Z" fill="#0C3358" fill-opacity="0.08"/>
<path d="M173.862 91.1429H179.21C177.883 90.4403 175.189 90.5183 173.862 91.1429Z" fill="#04668C" fill-opacity="0.78"/>
<path d="M165.235 94.422C164.454 95.5151 163.439 96.5691 162.346 97.3108C160.823 99.536 159.691 102.073 159.066 104.689C158.949 105.197 159.379 106.133 158.637 106.329V110.857C153.679 110.467 148.995 111.716 145.091 114.566C144.193 115.776 143.022 116.986 141.812 117.845C140.484 119.875 139.508 122.061 138.923 124.403C138.806 124.911 139.235 125.848 138.493 126.043C137.986 130.884 139.743 135.334 142.202 139.16C143.139 139.784 144.076 140.682 144.661 141.619C147.355 143.298 150.088 144.898 153.289 145.328C154.733 145.718 159.145 144.469 158.637 146.147C158.364 150.793 159.496 155.243 162.346 158.874C163.439 159.655 164.493 160.67 165.235 161.763C168.943 164.652 173.55 165.862 178.351 165.471C178.586 164.808 179.483 165.159 179.991 165.042C182.567 164.495 184.871 163.363 186.979 161.763C187.877 160.553 189.048 159.342 190.258 158.484C191.468 155.985 193.03 153.565 193.147 150.676V146.147C193.771 144.43 196.855 145.757 198.495 145.328C201.501 144.976 204.156 143.688 206.693 142.048C207.591 140.838 208.762 139.628 209.972 138.769C211.729 136.232 213.134 133.343 213.251 130.142V126.043C213.212 122.803 211.456 120.07 209.972 117.415C208.879 116.635 207.825 115.62 207.083 114.527C204.78 113.121 202.36 111.794 199.705 111.247C199.198 111.13 198.261 111.56 198.066 110.818H194.357C194.24 111.404 193.498 111.13 193.108 111.247V105.899C193.108 103.167 191.741 100.824 190.648 98.521C189.282 97.3498 188.189 95.7883 186.94 94.422C184.519 93.0557 182.021 91.4941 179.132 91.1428H173.784C170.583 91.1038 167.967 93.0557 165.235 94.422ZM177.961 96.8814C179.483 97.4279 180.928 98.0525 182.489 98.521C182.802 98.56 182.958 98.9504 183.309 98.9504C184.09 99.4579 184.91 100.2 185.378 101.019C185.456 101.176 185.378 101.449 185.378 101.449C185.925 102.815 187.057 103.986 187.018 105.548C188.306 106.211 188.072 108.749 187.447 109.647C187.174 111.56 186.315 113.277 185.378 114.995C185.3 116.088 184.129 116.908 183.309 117.454C183.153 117.533 182.88 117.454 182.88 117.454C182.567 117.494 182.411 117.884 182.06 117.884C181.709 118.665 180.811 119.016 179.991 119.133C179.366 118.977 178.898 119.328 178.351 119.563C177.297 120.187 174.877 120.265 173.823 119.563C172.105 118.899 170.388 118.235 168.904 117.103C168.436 117.611 166.289 115.503 166.835 115.034C165.859 113.355 164.922 111.677 164.766 109.686C164.18 109.139 164.063 107.344 164.766 106.797C164.493 106.016 165.274 105.509 165.195 104.728C164.727 104.182 165.664 102.62 166.445 102.269C166.523 102.073 166.445 101.839 166.445 101.839C167.03 100.395 168.279 99.1066 169.724 98.56C171.09 98.1306 172.613 97.4279 173.823 96.9204C174.799 96.2568 177.063 96.1787 177.961 96.8814ZM158.286 116.986C159.613 117.65 161.096 117.806 162.385 118.626C164.024 119.211 165.742 120.968 166.093 122.725C166.718 123.583 166.523 124.95 167.343 125.613C167.967 126.55 168.045 128.815 167.343 129.712C167.264 131.664 166.093 133.304 165.274 135.061C164.376 136.115 163.4 137.676 161.994 137.949C161.838 137.989 161.682 138.223 161.565 138.379C161.136 138.964 160.277 139.277 159.496 139.199C158.754 139.121 158.091 139.238 157.427 139.628C156.88 140.214 155.085 140.331 154.538 139.628C152.664 139.16 150.908 138.418 149.19 137.559C148.995 137.52 148.76 137.559 148.76 137.559C147.98 137.052 147.16 136.31 146.691 135.49C146.457 134.904 145.715 134.592 145.872 133.85C145.637 132.445 144.583 131.274 144.622 129.751C144.037 129.205 143.92 127.409 144.622 126.863C144.74 124.794 145.911 122.959 146.691 121.124C147.199 120.343 147.941 119.523 148.76 119.055C150.595 118.274 152.352 117.025 154.499 116.986C155.397 116.361 157.505 116.283 158.286 116.986ZM197.636 116.986C199.432 117.025 200.954 118.079 202.555 118.626C203.414 119.016 205.522 120.226 205.014 121.085C205.873 122.49 207.005 123.896 207.083 125.613C208.372 126.277 208.137 128.815 207.513 129.712C207.044 131.43 206.615 133.226 205.444 134.631C205.795 135.49 203.765 136.817 202.984 137.52C202.828 137.598 202.555 137.52 202.555 137.52C202.36 138.067 201.228 139.003 200.915 138.34C199.939 139.121 198.69 139.004 197.636 139.589C197.09 140.175 195.294 140.292 194.747 139.589C192.952 138.964 191.078 138.574 189.399 137.52C189.204 137.442 188.97 137.52 188.97 137.52C188.189 137.013 187.369 136.271 186.901 135.451C186.862 135.139 186.471 134.983 186.471 134.631C185.573 132.523 184.285 129.947 184.832 127.643C184.246 127.331 184.168 125.887 184.832 125.574C185.261 123.935 186.354 122.607 186.901 121.046C187.408 120.265 188.15 119.445 188.97 118.977C190.843 118.313 192.522 116.713 194.708 116.908C195.333 116.4 197.129 116.283 197.636 116.986ZM180.42 137.481C181.396 137.598 182.489 138.184 182.88 139.121C183.036 139.199 183.309 139.121 183.309 139.121C184.09 139.628 184.91 140.37 185.378 141.19C186.12 142.79 186.862 144.391 187.447 146.108C188.072 147.045 188.15 149.31 187.447 150.207C186.94 151.613 186.354 152.94 185.808 154.306C185.339 155.478 184.441 156.532 183.348 157.195C182.606 156.961 182.333 157.898 181.709 158.015C181.435 158.64 180.108 159.655 179.64 158.835C179.327 158.874 179.171 159.264 178.82 159.264C178.586 159.928 177.688 159.577 177.18 159.694H175.111C174.487 159.538 173.393 160.084 173.042 159.264C172.925 158.679 172.183 158.952 171.793 158.835C171.051 158.718 170.036 158.405 169.724 157.586C169.724 157.117 169.177 157.234 168.904 157.156C167.225 155.907 165.586 154.306 165.195 152.237C165.313 151.222 164.532 150.442 164.766 149.349C164.18 148.919 164.063 147.28 164.766 146.889C164.649 144.742 165.976 143.024 166.835 141.151C167.343 140.37 168.084 139.55 168.904 139.082C172.378 136.856 176.517 136.037 180.42 137.481Z" fill="#083553" fill-opacity="0.98"/>
<path d="M65.6093 94.422H99.2601V111.247C99.2601 111.286 99.6895 111.247 99.6895 111.247C99.4943 105.665 100.119 99.7702 99.3772 94.3439C88.3685 93.8755 76.4618 93.6803 65.6093 94.422Z" fill="#0094C0" fill-opacity="0.86"/>
<path d="M48.3934 111.638H66.0387V94.422H65.6092V111.247C59.9487 111.521 53.7807 110.701 48.3934 111.638Z" fill="#027BA4" fill-opacity="0.75"/>
<path d="M48.8229 111.638V144.859H65.6483C66.5852 150.09 65.8045 156.141 66.0777 161.685H99.2991V144.859H116.515V111.638C110.854 111.365 104.647 112.184 99.2991 111.208V94.3831H66.0777V111.599C60.3001 111.638 54.5615 111.638 48.8229 111.638ZM93.5215 116.986C99.182 117.259 105.389 116.44 110.737 117.416V138.73C105.389 139.667 99.182 138.886 93.5215 139.16V155.985C86.6508 156.922 78.9603 156.141 71.7773 156.415C70.8404 151.066 71.6211 144.859 71.3479 139.199H54.5224C53.8588 132.406 53.8198 124.247 54.5224 117.455C59.7535 116.518 65.8045 117.298 71.3479 117.025C71.6211 111.482 70.8013 105.431 71.7773 100.2H93.0921C94.029 105.392 93.2482 111.443 93.5215 116.986Z" fill="#093553"/>
<path d="M162.385 97.3108C163.478 96.6081 164.493 95.5151 165.274 94.422C164.18 95.1637 163.165 96.2177 162.385 97.3108Z" fill="#0185AF" fill-opacity="0.78"/>
<path d="M190.687 98.521C189.75 96.9595 188.54 95.476 186.979 94.422C188.189 95.7883 189.321 97.3889 190.687 98.521Z" fill="#0283AD" fill-opacity="0.82"/>
<path d="M173.862 96.8813H177.961C177.063 96.1787 174.799 96.2567 173.862 96.8813Z" fill="#083453" fill-opacity="0.56"/>
<path d="M166.484 101.8C167.655 100.746 168.67 99.6531 169.763 98.521C168.318 99.1066 167.069 100.356 166.484 101.8Z" fill="#023356" fill-opacity="0.34"/>
<path d="M185.339 101.41C185.339 101.41 185.417 101.176 185.339 100.98C184.558 100.473 183.739 99.7313 183.27 98.9115C182.919 98.9505 182.763 98.5601 182.45 98.4821C183.192 99.6142 184.285 100.629 185.339 101.41Z" fill="#073352" fill-opacity="0.15"/>
<path d="M185.339 100.98C184.91 100.161 184.09 99.4579 183.27 98.9114C183.739 99.7702 184.558 100.473 185.339 100.98Z" fill="#093553" fill-opacity="0.8"/>
<path d="M71.3479 116.986V117.416C72.2848 112.067 71.504 105.86 71.7773 100.2C70.8013 105.392 71.6211 111.443 71.3479 116.986Z" fill="#093553" fill-opacity="0.69"/>
<path d="M93.5215 117.376V116.947C93.2483 111.404 94.0681 105.353 93.0921 100.122C93.3654 105.86 92.5456 112.028 93.5215 117.376Z" fill="#073551" fill-opacity="0.15"/>
<path d="M165.234 104.689C165.664 103.869 166.015 103.049 166.484 102.23C165.703 102.581 164.805 104.142 165.234 104.689Z" fill="#00335D" fill-opacity="0.22"/>
<path d="M158.676 106.329C159.379 106.133 158.988 105.197 159.105 104.689C158.364 104.884 158.793 105.782 158.676 106.329Z" fill="#056A90" fill-opacity="0.78"/>
<path d="M187.408 109.608C188.033 108.71 188.306 106.173 186.979 105.509C187.72 106.719 187.252 108.242 187.408 109.608Z" fill="#073251" fill-opacity="0.44"/>
<path d="M194.357 110.818C192.366 110.35 194.435 107.031 193.108 105.899V111.248C193.537 111.169 194.24 111.404 194.357 110.818Z" fill="#065275" fill-opacity="0.83"/>
<path d="M164.844 109.608V106.719C164.141 107.266 164.259 109.061 164.844 109.608Z" fill="#083452" fill-opacity="0.18"/>
<path d="M199.705 111.248C199.51 110.545 198.573 110.935 198.066 110.818C198.261 111.56 199.159 111.13 199.705 111.248Z" fill="#046E95" fill-opacity="0.78"/>
<path d="M116.476 111.638C111.284 110.701 105.194 111.521 99.6505 111.209C99.6505 111.209 99.2211 111.248 99.2211 111.209C104.569 112.185 110.776 111.365 116.476 111.638Z" fill="#0183AD" fill-opacity="0.75"/>
<path d="M48.8229 144.859V111.638H48.3934C48.6667 122.647 47.8469 134.163 48.8229 144.859Z" fill="#05648A" fill-opacity="0.77"/>
<path d="M116.476 144.859C117.179 134.241 117.14 122.295 116.476 111.638V144.859Z" fill="#0096C1" fill-opacity="0.89"/>
<path d="M141.89 117.806C143.1 116.947 144.271 115.737 145.169 114.527C143.959 115.385 142.788 116.596 141.89 117.806Z" fill="#046990" fill-opacity="0.78"/>
<path d="M209.933 117.376C209.23 116.283 208.137 115.268 207.044 114.488C207.786 115.62 208.879 116.635 209.933 117.376Z" fill="#0281AB" fill-opacity="0.77"/>
<path d="M168.943 116.986C168.006 116.635 167.499 115.542 166.874 114.917C166.328 115.385 168.475 117.494 168.943 116.986Z" fill="#063353" fill-opacity="0.47"/>
<path d="M184.519 115.737C184.285 116.4 183.465 116.674 183.27 117.376C184.09 116.83 185.261 116.01 185.339 114.917C184.91 114.995 184.676 115.424 184.519 115.737Z" fill="#083654" fill-opacity="0.52"/>
<path d="M182.88 117.376C182.88 117.376 183.114 117.454 183.309 117.376C183.504 116.674 184.324 116.4 184.558 115.737C183.817 116.049 183.27 116.752 182.88 117.376Z" fill="#014858" fill-opacity="0.04"/>
<path d="M154.577 116.986H158.286C157.505 116.283 155.397 116.361 154.577 116.986Z" fill="#093453" fill-opacity="0.21"/>
<path d="M194.786 116.986H197.675C197.129 116.283 195.333 116.4 194.786 116.986Z" fill="#093653" fill-opacity="0.14"/>
<path d="M54.5615 117.376H71.3869V116.947C65.8435 117.259 59.7926 116.439 54.5615 117.376Z" fill="#083553" fill-opacity="0.82"/>
<path d="M93.5215 117.376H110.776C105.428 116.439 99.221 117.259 93.5605 116.947C93.5215 116.986 93.4824 117.376 93.5215 117.376Z" fill="#083453" fill-opacity="0.83"/>
<path d="M54.5615 139.121V117.376C53.8588 124.169 53.8588 132.328 54.5615 139.121Z" fill="#093553" fill-opacity="0.64"/>
<path d="M110.308 138.73H110.737V117.416H110.308V138.73Z" fill="#0C3A51" fill-opacity="0.09"/>
<path d="M180.03 119.055C180.811 118.977 181.748 118.626 182.099 117.806C181.396 118.196 180.498 118.431 180.03 119.055Z" fill="#073750" fill-opacity="0.25"/>
<path d="M166.054 122.725C165.703 120.968 164.024 119.211 162.346 118.626C163.751 119.758 165.078 121.241 166.054 122.725Z" fill="#003359" fill-opacity="0.33"/>
<path d="M205.014 121.085C205.522 120.226 203.414 119.016 202.555 118.626C203.062 119.797 204.546 119.992 205.014 121.085Z" fill="#003459" fill-opacity="0.36"/>
<path d="M146.808 121.085C147.628 120.656 148.331 119.836 148.877 119.016C148.019 119.484 147.316 120.304 146.808 121.085Z" fill="#093553" fill-opacity="0.38"/>
<path d="M186.979 121.085C187.799 120.656 188.501 119.836 189.048 119.016C188.228 119.484 187.486 120.304 186.979 121.085Z" fill="#083454" fill-opacity="0.24"/>
<path d="M178.39 119.445H173.862C174.916 120.148 177.297 120.07 178.39 119.445Z" fill="#083553" fill-opacity="0.43"/>
<path d="M138.611 126.004C139.313 125.809 138.923 124.872 139.04 124.364C138.298 124.559 138.728 125.496 138.611 126.004Z" fill="#037AA2" fill-opacity="0.78"/>
<path d="M167.303 129.713C168.006 128.815 167.928 126.55 167.303 125.614V129.713Z" fill="#093452" fill-opacity="0.39"/>
<path d="M184.949 127.643V125.574C184.246 125.887 184.363 127.331 184.949 127.643Z" fill="#0A3353" fill-opacity="0.28"/>
<path d="M207.474 129.713C208.098 128.815 208.372 126.277 207.044 125.614C207.825 126.785 207.357 128.307 207.474 129.713Z" fill="#073453" fill-opacity="0.5"/>
<path d="M213.212 130.103C213.915 129.205 213.837 126.941 213.212 126.004V130.103Z" fill="#055D81" fill-opacity="0.79"/>
<path d="M144.739 129.712V126.824C144.037 127.331 144.154 129.166 144.739 129.712Z" fill="#093552" fill-opacity="0.24"/>
<path d="M146.808 135.451C147.589 135.959 148.409 136.7 148.878 137.52C148.878 137.52 149.073 137.481 149.307 137.52C148.448 136.154 146.887 135.139 146.028 133.812C145.833 134.553 146.574 134.827 146.808 135.451Z" fill="#063453" fill-opacity="0.2"/>
<path d="M186.979 135.451C187.759 135.959 188.579 136.7 189.048 137.52C189.048 137.52 189.282 137.442 189.477 137.52C188.774 136.427 187.681 135.412 186.588 134.631C186.549 134.983 186.94 135.1 186.979 135.451Z" fill="#00385E" fill-opacity="0.07"/>
<path d="M202.984 137.481C203.765 136.817 205.795 135.49 205.444 134.592C204.897 135.724 203.57 136.349 202.984 137.481Z" fill="#083453" fill-opacity="0.3"/>
<path d="M161.955 137.91C163.361 137.637 164.337 136.076 165.234 135.022C164.063 135.763 163.126 137.169 161.955 137.91Z" fill="#073353" fill-opacity="0.17"/>
<path d="M148.838 137.481C148.409 136.661 147.589 135.959 146.769 135.412C147.238 136.271 148.058 136.974 148.838 137.481Z" fill="#093453" fill-opacity="0.81"/>
<path d="M189.048 137.481C188.618 136.661 187.799 135.959 186.979 135.412C187.447 136.271 188.228 136.974 189.048 137.481Z" fill="#083553" fill-opacity="0.69"/>
<path d="M182.88 139.121C182.45 138.184 181.396 137.598 180.42 137.481C181.006 138.223 182.138 138.418 182.88 139.121Z" fill="#073458" fill-opacity="0.23"/>
<path d="M200.915 138.301C201.228 138.965 202.36 138.028 202.555 137.481C202.008 137.754 201.462 137.989 200.915 138.301Z" fill="#002D5F" fill-opacity="0.21"/>
<path d="M159.496 139.121C160.277 139.199 161.096 138.886 161.565 138.301C160.862 138.457 159.964 138.652 159.496 139.121Z" fill="#0A3653" fill-opacity="0.45"/>
<path d="M54.5615 139.121H71.8163C66.4681 138.184 60.261 139.004 54.6005 138.691C54.5615 138.73 54.5224 139.121 54.5615 139.121Z" fill="#0A3652" fill-opacity="0.29"/>
<path d="M93.0921 155.946H93.5215V138.691C92.5456 144.04 93.3654 150.247 93.0921 155.946Z" fill="#063551" fill-opacity="0.15"/>
<path d="M93.5215 139.121C99.182 138.847 105.389 139.667 110.737 138.691H93.4825C93.5215 138.73 93.5215 138.926 93.5215 139.121Z" fill="#093652" fill-opacity="0.29"/>
<path d="M206.654 142.009C207.864 141.151 209.035 139.94 209.933 138.73C208.723 139.589 207.552 140.799 206.654 142.009Z" fill="#065375" fill-opacity="0.83"/>
<path d="M71.7772 156.336V139.082H71.3478C71.6211 144.82 70.8403 150.988 71.7772 156.336Z" fill="#093553" fill-opacity="0.7"/>
<path d="M144.739 141.58C144.154 140.643 143.217 139.745 142.28 139.121C142.866 140.097 143.803 140.955 144.739 141.58Z" fill="#0091BC" fill-opacity="0.83"/>
<path d="M166.874 141.19C167.694 140.76 168.397 139.94 168.943 139.121C168.123 139.589 167.421 140.37 166.874 141.19Z" fill="#083653" fill-opacity="0.13"/>
<path d="M185.339 141.19C184.91 140.37 184.09 139.667 183.27 139.121C183.739 139.94 184.558 140.643 185.339 141.19Z" fill="#083553" fill-opacity="0.29"/>
<path d="M157.466 139.55H154.577C155.124 140.253 156.919 140.136 157.466 139.55Z" fill="#083553" fill-opacity="0.64"/>
<path d="M197.636 139.55H194.747C195.294 140.253 197.09 140.136 197.636 139.55Z" fill="#083552" fill-opacity="0.64"/>
<path d="M66.0387 162.075V161.646C65.7654 156.102 66.5852 150.051 65.6092 144.82C65.8825 150.559 65.1017 156.727 66.0387 162.075Z" fill="#04749B" fill-opacity="0.75"/>
<path d="M158.676 146.108C159.184 144.43 154.772 145.679 153.328 145.289C154.694 146.46 157.349 144.937 158.676 146.108Z" fill="#03779F" fill-opacity="0.78"/>
<path d="M193.147 146.109H193.576C194.747 144.937 197.285 146.421 198.495 145.289C196.855 145.679 193.771 144.352 193.147 146.109Z" fill="#037AA2" fill-opacity="0.77"/>
<path d="M187.408 150.208C188.111 149.31 188.033 147.045 187.408 146.109V150.208Z" fill="#093453" fill-opacity="0.49"/>
<path d="M193.147 150.598C194.084 149.505 193.303 147.514 193.576 146.069H193.147V150.598Z" fill="#075072" fill-opacity="0.84"/>
<path d="M164.844 149.388V146.928C164.141 147.319 164.259 148.958 164.844 149.388Z" fill="#083653" fill-opacity="0.16"/>
<path d="M168.943 157.156C167.577 155.634 166.289 153.877 165.234 152.237C165.625 154.306 167.264 155.907 168.943 157.156Z" fill="#083551" fill-opacity="0.31"/>
<path d="M183.309 157.156C184.402 156.532 185.3 155.439 185.768 154.267C184.793 155.009 184.168 156.219 183.309 157.156Z" fill="#073750" fill-opacity="0.3"/>
<path d="M71.7772 156.336C78.9602 156.063 86.6508 156.883 93.5215 155.907H71.7772C71.7772 155.946 71.7382 156.336 71.7772 156.336Z" fill="#093653" fill-opacity="0.39"/>
<path d="M171.832 158.796C171.442 158.093 170.427 158.054 169.763 157.547C170.036 158.405 171.051 158.679 171.832 158.796Z" fill="#0B3354" fill-opacity="0.27"/>
<path d="M179.601 158.796C180.069 159.616 181.357 158.601 181.67 157.976C180.967 158.21 180.381 158.835 179.601 158.796Z" fill="#093452" fill-opacity="0.43"/>
<path d="M186.979 161.685C188.189 160.826 189.36 159.616 190.258 158.406C189.048 159.264 187.877 160.475 186.979 161.685Z" fill="#04698F" fill-opacity="0.78"/>
<path d="M165.234 161.685C164.532 160.592 163.439 159.577 162.346 158.796C163.087 159.889 164.18 160.904 165.234 161.685Z" fill="#065073" fill-opacity="0.83"/>
<path d="M175.111 159.616C174.799 158.835 173.706 159.382 173.042 159.186C173.354 160.006 174.447 159.46 175.111 159.616Z" fill="#073551" fill-opacity="0.36"/>
<path d="M177.141 159.616C177.649 159.499 178.546 159.85 178.781 159.186C178.273 159.342 177.375 158.952 177.141 159.616Z" fill="#0A3653" fill-opacity="0.31"/>
<path d="M66.0387 162.075C77.0474 161.802 88.5636 162.622 99.2601 161.646H66.0387C66.0387 161.685 65.9996 162.075 66.0387 162.075Z" fill="#065477" fill-opacity="0.84"/>
<path d="M178.39 165.354C178.898 165.237 179.796 165.588 180.03 164.925C179.483 165.081 178.586 164.691 178.39 165.354Z" fill="#056B91" fill-opacity="0.79"/>
<path d="M38.5558 176.441C37.6579 175.348 36.6429 174.138 35.667 173.162C36.2135 174.489 37.3847 175.582 38.5558 176.441Z" fill="#046F95" fill-opacity="0.78"/>
<path d="M217.741 176.441C218.561 176.012 219.263 175.192 219.81 174.372C218.951 174.841 218.248 175.66 217.741 176.441Z" fill="#065578" fill-opacity="0.8"/>
<path d="M221.02 181.36C222.66 179.954 224.572 178.432 225.548 176.441C224.143 178.042 222.386 179.642 221.02 181.36Z" fill="#053357" fill-opacity="0.28"/>
<path d="M35.706 181.75C34.4178 180.111 32.8172 178.549 31.1776 177.222C32.4659 179.057 33.8712 180.462 35.706 181.75Z" fill="#073752" fill-opacity="0.31"/>
<path d="M212.822 178.081H43.4747C99.4553 178.744 156.802 178.744 212.822 178.081Z" fill="#0189B3" fill-opacity="0.78"/>
<path d="M42.2645 184.21H43.9041C43.9821 184.171 43.9041 183.78 43.9041 183.78C43.3966 183.936 42.4597 183.585 42.2645 184.21Z" fill="#083453" fill-opacity="0.63"/>
<path d="M43.9041 184.21H68.9275C61.0027 183.273 52.1801 184.093 43.9041 183.78C43.9041 183.819 43.9821 184.171 43.9041 184.21Z" fill="#093552" fill-opacity="0.87"/>
<path d="M77.0865 184.21C77.1255 184.288 77.5159 184.21 77.5159 184.21H177.141C176.79 185.03 175.814 185.42 175.502 186.279C176.321 185.732 177.492 184.912 177.571 183.819C144.115 184.093 110.23 183.273 77.0865 184.21Z" fill="#093756" fill-opacity="0.89"/>
<path d="M185.769 184.21H212.432C203.999 183.546 194.201 183.546 185.769 184.21Z" fill="#093553" fill-opacity="0.87"/>
<path d="M69.3179 185.029C70.5281 185.927 71.7383 187.098 72.5971 188.309C72.6361 188.699 73.1046 188.777 73.4169 188.738C72.1287 187.098 70.5281 185.537 68.8885 184.21C68.9666 184.483 68.8495 185.029 69.3179 185.029Z" fill="#073851" fill-opacity="0.6"/>
<path d="M79.5459 186.669C79.4287 186.162 78.8041 185.966 78.7261 185.42C78.2186 185.147 77.672 184.756 77.4768 184.171C77.4768 184.171 77.0865 184.249 77.0474 184.171C77.672 185.186 78.648 186.044 79.5459 186.669Z" fill="#084464" fill-opacity="0.63"/>
<path d="M78.726 185.459C79.3506 185.849 80.0533 186.396 80.3656 187.098C80.9903 187.489 81.6929 188.035 82.0052 188.738C92.3113 196.155 104.179 201.777 116.866 203.494C117.491 203.651 118.584 203.104 118.935 203.924H136.229C136.463 203.26 137.361 203.612 137.869 203.494C151.805 201.503 164.688 195.257 175.58 186.279C175.892 185.459 176.907 185.068 177.219 184.21H77.5939C77.672 184.795 78.2576 185.186 78.726 185.459Z" fill="#00B8F0"/>
<path d="M181.67 188.309C183.465 187.411 184.441 185.693 185.769 184.21C184.246 185.342 182.841 186.825 181.67 188.309Z" fill="#033355" fill-opacity="0.46"/>
<path d="M72.5971 188.309C71.7382 187.098 70.5281 185.927 69.3179 185.029C70.1767 186.279 71.3869 187.411 72.5971 188.309Z" fill="#013056" fill-opacity="0.04"/>
<path d="M79.5459 186.669C79.8972 186.63 80.0534 187.02 80.3657 187.098C80.0534 186.396 79.3507 185.849 78.7261 185.459C78.8042 185.966 79.4288 186.162 79.5459 186.669Z" fill="#01A4D7" fill-opacity="0.67"/>
<path d="M82.0053 188.738C81.693 188.036 80.9903 187.489 80.3657 187.099C80.678 187.801 81.3807 188.348 82.0053 188.738Z" fill="#084263" fill-opacity="0.67"/>
<path d="M178.39 191.588C179.601 190.729 180.772 189.519 181.67 188.309C180.42 189.167 179.288 190.378 178.39 191.588Z" fill="#013057" fill-opacity="0.22"/>
<path d="M77.0864 192.017C76.8132 191.432 76.1886 190.69 75.4468 190.768C75.7201 191.393 76.3838 192.095 77.0864 192.017Z" fill="#053954" fill-opacity="0.37"/>
<path d="M80.7951 194.867C80.4437 194.281 79.663 194.125 79.1555 193.618C79.4287 194.242 80.0533 194.984 80.7951 194.867Z" fill="#063653" fill-opacity="0.28"/>
<path d="M118.935 203.924C118.623 203.143 117.53 203.69 116.866 203.495C117.179 204.275 118.272 203.729 118.935 203.924Z" fill="#085275" fill-opacity="0.76"/>
<path d="M136.151 203.924C136.659 203.807 137.556 204.158 137.791 203.495C137.283 203.612 136.346 203.26 136.151 203.924Z" fill="#084C6E" fill-opacity="0.8"/>
<path d="M123.425 204.314V203.885H120.146C120.848 204.822 122.41 204.08 123.425 204.314Z" fill="#085276" fill-opacity="0.76"/>
<path d="M123.425 204.314H131.232V203.885H123.425V204.314Z" fill="#019DCF" fill-opacity="0.85"/>
<path d="M131.232 204.314C132.13 204.119 133.497 204.705 134.121 203.885H131.232V204.314Z" fill="#085277" fill-opacity="0.79"/>
<path d="M111.128 208.843H112.767C112.611 208.179 111.323 208.257 111.128 208.843Z" fill="#0A3553" fill-opacity="0.43"/>
<path d="M117.296 209.662C117.101 208.96 116.164 209.35 115.656 209.233C115.851 209.975 116.749 209.545 117.296 209.662Z" fill="#0A3755" fill-opacity="0.27"/>
<path d="M136.542 209.662C137.322 209.506 138.532 210.014 139.001 209.233C138.259 209.389 137.01 208.882 136.542 209.662Z" fill="#083452" fill-opacity="0.47"/>
<path d="M121.395 210.053C120.848 209.194 119.404 209.858 118.506 209.624C119.091 210.521 120.497 209.858 121.395 210.053Z" fill="#093453" fill-opacity="0.31"/>
<path d="M132.052 210.053H133.692C133.77 210.014 133.692 209.623 133.692 209.623C133.184 209.741 132.247 209.389 132.052 210.053Z" fill="#093553" fill-opacity="0.66"/>
<path d="M133.692 210.053C134.472 209.897 135.683 210.404 136.151 209.623H133.692C133.692 209.662 133.77 210.014 133.692 210.053Z" fill="#073553" fill-opacity="0.25"/>
<path d="M129.983 210.053H124.635C125.962 210.756 128.656 210.717 129.983 210.053Z" fill="#083653" fill-opacity="0.11"/>
</g>
<defs>
<clipPath id="clip0_1230_433">
<rect width="200" height="164.323" fill="white" transform="translate(28.16 46.3035)"/>
</clipPath>
</defs>
</svg>
