<svg width="256" height="256" viewBox="0 0 256 256" fill="none" xmlns="http://www.w3.org/2000/svg">
<rect width="256" height="256" fill="#121315"/>
<path fill-rule="evenodd" clip-rule="evenodd" d="M68 113.078V199.875C68 199.875 82.2578 190.188 97.6484 179.484V133.82C97.6484 110.383 104.797 102.805 124.094 88.5859L148.664 70.5V28C148.664 28 110.383 56.125 94.4453 67.8438C75.1094 82.0625 68 89.6406 68 113.078ZM107.297 228V141.242C107.297 117.805 114.406 110.227 133.703 96.0078C149.641 84.2891 187.922 56.125 187.922 56.125V131.828C187.922 134.016 187.922 136.086 187.961 138.078C188.156 159.055 188.234 170.227 166.594 186.438C148.703 199.875 107.297 228 107.297 228Z" fill="#FAFAFA"/>
</svg>
