<svg width="256" height="256" viewBox="0 0 256 256" fill="none" xmlns="http://www.w3.org/2000/svg">
<g clip-path="url(#clip0_1251_8954)">
<rect width="256" height="256" fill="white"/>
<g clip-path="url(#clip1_1251_8954)">
<mask id="mask0_1251_8954" style="mask-type:luminance" maskUnits="userSpaceOnUse" x="0" y="0" width="256" height="256">
<path d="M256 0H0V256H256V0Z" fill="white"/>
</mask>
<g mask="url(#mask0_1251_8954)">
<path d="M256 0H0V256H256V0Z" fill="#FFF2EA"/>
<mask id="mask1_1251_8954" style="mask-type:luminance" maskUnits="userSpaceOnUse" x="32" y="32" width="192" height="192">
<path d="M224 32H32V224H224V32Z" fill="white"/>
</mask>
<g mask="url(#mask1_1251_8954)">
<path d="M128 220.164C178.899 220.164 220.16 178.902 220.16 128.004C220.16 77.1052 178.899 35.8438 128 35.8438C77.1013 35.8438 35.8398 77.1052 35.8398 128.004C35.8398 178.902 77.1013 220.164 128 220.164Z" fill="#FFE6D5"/>
<path d="M64.8208 144.844L81.3861 125.387L205.785 124.974L189.639 144.844H64.8208Z" fill="#83331B"/>
<path d="M64.8213 144.844V197.132C69.3792 197.335 73.6079 198.298 76.6857 199.834C79.7636 201.369 81.4708 203.368 81.4758 205.442H178.069C177.305 204.346 176.911 203.164 176.911 201.968C176.911 199.789 178.219 197.69 180.576 196.084C182.932 194.479 186.166 193.483 189.64 193.295V144.844H64.8213Z" fill="#F8A37B"/>
<path d="M136.274 153.664C138.283 152.579 141.384 149.318 139.471 146.058C139.116 145.455 138.77 145.067 138.438 144.846H146.779C145.693 147.235 141.772 150.125 141.772 150.125C141.772 150.125 141.451 150.746 139.712 152.113C138.728 152.885 137.315 153.379 136.274 153.664ZM111.656 153.53C110.631 153.054 109.142 152.238 108.094 151.126C106.345 149.269 105.993 146.834 105.993 146.834L104.756 144.846H109.725C109.394 145.067 109.049 145.455 108.694 146.058C106.854 149.193 109.652 152.329 111.656 153.53ZM134.478 152.546C133.387 152.439 131.365 152.165 129.342 151.491C126.361 150.498 124.623 148.262 124.623 148.262C124.623 148.262 121.269 150.311 116.798 151.126C115.305 151.397 114.332 151.488 113.698 151.488C113.687 151.488 113.678 151.488 113.668 151.488C113.579 149.989 113.272 148.386 113.272 148.386C113.272 148.386 112.425 145.67 111.154 144.846H116.446H137.011C135.74 145.67 134.892 148.386 134.892 148.386C134.892 148.386 134.417 150.87 134.478 152.546Z" fill="#DA845D"/>
<path d="M113.272 148.384C113.272 148.384 114.217 153.321 113.272 153.973C112.327 154.625 106.179 150.34 108.694 146.055C111.209 141.771 113.272 148.384 113.272 148.384Z" fill="#DEE6E3"/>
<path d="M134.892 148.384C134.892 148.384 133.948 153.321 134.892 153.973C135.837 154.625 141.986 150.34 139.471 146.055C136.956 141.771 134.892 148.384 134.892 148.384Z" fill="#DEE6E3"/>
<path d="M98.4367 107.008C99.5805 112.471 96.0794 117.827 90.6164 118.971C85.1534 120.115 79.7979 116.614 78.654 111.151C77.5102 105.688 81.0113 100.331 86.4743 99.1872C91.9374 98.0434 97.2929 101.545 98.4367 107.008Z" fill="#D4541E"/>
<path d="M94.481 100.908C92.2528 99.2892 89.3825 98.5724 86.4743 99.1817C81.0113 100.326 77.5102 105.682 78.654 111.145C78.9029 112.334 79.3606 113.423 79.9668 114.398C84.4202 112.884 91.1622 109.271 94.481 100.908Z" fill="#852E1B"/>
<path d="M94.0521 107.923C94.688 110.965 92.7393 113.946 89.6981 114.583C86.6578 115.219 83.6759 113.271 83.039 110.229C82.4021 107.188 84.3518 104.207 87.392 103.57C90.4333 102.933 93.4152 104.882 94.0521 107.923Z" fill="white"/>
<path d="M163.259 105.125C160.912 105.125 158.726 103.634 157.95 101.283C156.986 98.3603 158.566 95.2085 161.481 94.2306C163.097 93.6725 170.962 90.5441 168.609 83.2072C166.909 77.9029 163.693 77.1308 154.191 76.1222C152.448 75.9378 150.647 75.7453 148.775 75.4781C142.05 74.5175 137.105 71.7363 134.079 67.2123C129.664 60.6126 131.394 53.1313 131.606 52.3008C132.368 49.3087 135.413 47.5054 138.406 48.2632C141.398 49.0261 143.205 52.0704 142.442 55.0626C142.444 55.0626 141.685 58.5349 143.411 61.0478C144.607 62.7897 146.944 63.9191 150.357 64.4076C152.028 64.6462 153.728 64.8264 155.371 65.0015C164.201 65.9385 175.191 67.1068 179.258 79.7911C183.588 93.2946 173.11 102.171 165.012 104.842C164.431 105.034 163.84 105.125 163.259 105.125Z" fill="#E2591E"/>
<path d="M143.411 61.0494L143.245 60.7812C139.559 63.1365 134.904 63.6391 132.297 63.718C132.734 64.8833 133.308 66.0619 134.079 67.2139C135.068 68.6936 136.284 69.9664 137.68 71.0703C142.578 70.2583 146.523 66.5852 148.695 64.0917C146.181 63.505 144.4 62.4902 143.411 61.0494Z" fill="#852E1B"/>
<path d="M155.284 76.2404C159.291 76.6838 162.099 77.1231 164.113 77.969C165.495 75.6752 167.423 71.869 168.138 67.5784C165.171 66.3834 161.977 65.7977 158.891 65.4014C159.16 68.1826 158.971 72.9769 155.284 76.2404Z" fill="#852E1B"/>
<path d="M179.773 90.0778C180.401 87.5301 180.462 84.6957 179.748 81.6011C178.647 82.491 177.232 83.2979 175.445 83.7618C172.42 84.5482 170.257 84.5001 168.883 84.283C169.478 87.3007 168.292 89.5341 166.681 91.1172C171.65 93.287 176.505 91.7858 179.773 90.0778Z" fill="#852E1B"/>
<path d="M168.916 87.1408C168.913 87.1398 168.91 87.1378 168.907 87.1367C168.919 87.0712 168.931 87.0057 168.941 86.9391L168.942 86.937L168.971 86.6933C169.003 86.4363 169.024 86.1752 169.028 85.9049L169.029 85.741C169.025 85.3949 169.002 85.0396 168.946 84.6689L168.947 84.6699C168.88 84.2091 168.776 83.7319 168.618 83.2322C168.731 83.5927 168.822 83.9419 168.889 84.2818C168.887 84.2818 168.885 84.2818 168.883 84.2808C169.089 85.3263 169.082 86.2776 168.916 87.1408ZM154.191 76.1216C152.448 75.9373 150.647 75.7447 148.774 75.4775C150.646 75.7447 152.448 75.9373 154.191 76.1216ZM148.589 75.4498C148.582 75.4488 148.574 75.4478 148.566 75.4467C148.574 75.4478 148.581 75.4488 148.589 75.4498ZM148.513 75.4385C148.512 75.4385 148.51 75.4385 148.509 75.4385C148.509 75.4385 148.512 75.4385 148.513 75.4385Z" fill="#83BAD2"/>
<path d="M178.92 92.625C178.298 92.1611 177.662 91.7136 177.01 91.2825C177.996 90.9405 178.906 90.5319 179.72 90.109C179.733 90.1172 179.746 90.1264 179.758 90.1357C179.542 90.9999 179.258 91.8283 178.92 92.625ZM170.741 84.4248C170.013 84.4248 169.397 84.3675 168.889 84.2876C168.822 83.9476 168.731 83.5984 168.618 83.238L168.617 83.2349C168.614 83.2277 168.612 83.2195 168.609 83.2124C167.732 80.4773 166.453 78.9474 164.117 77.9685C164.623 77.1288 165.202 76.0854 165.768 74.8903C168.583 76.0249 170.504 77.779 171.928 80.6278C172.508 81.786 172.704 83.0352 172.64 84.306C171.939 84.39 171.306 84.4248 170.741 84.4248ZM155.286 76.2461C154.931 76.2062 154.565 76.1673 154.191 76.1273C152.448 75.943 150.647 75.7505 148.775 75.4832C148.725 75.4761 148.674 75.4689 148.624 75.4607C148.613 75.4597 148.601 75.4576 148.589 75.4556C148.581 75.4546 148.574 75.4535 148.566 75.4525C148.547 75.4494 148.53 75.4474 148.513 75.4443H148.509C143.514 74.6896 139.53 72.9038 136.59 70.1421C136.939 70.4656 137.303 70.7759 137.68 71.0739C138.261 70.9776 138.83 70.8404 139.384 70.6704C142.202 71.5849 145.754 72.3549 150.071 72.6027C152.933 72.7666 155.443 72.9365 157.652 73.1721C157.099 74.2657 156.334 75.3174 155.286 76.2461Z" fill="#BA4A1F"/>
<path d="M137.68 71.0704C137.303 70.7724 136.939 70.4622 136.59 70.1386C136.277 69.8447 135.976 69.5395 135.686 69.2241C136.735 69.7095 137.966 70.2061 139.384 70.6669C138.83 70.8369 138.261 70.9742 137.68 71.0704Z" fill="#6F2717"/>
<path d="M164.117 77.9689C162.1 77.124 159.297 76.6899 155.286 76.2465C156.334 75.3177 157.099 74.2661 157.652 73.1724C160.985 73.5267 163.634 74.0306 165.768 74.8907C165.202 76.0857 164.623 77.1292 164.117 77.9689Z" fill="#6F2717"/>
<path d="M177.01 91.2811C174.521 89.6305 171.826 88.2194 168.916 87.1452C169.082 86.282 169.089 85.3307 168.883 84.2852C168.885 84.2862 168.887 84.2862 168.889 84.2862C169.397 84.3661 170.013 84.4234 170.741 84.4234C171.306 84.4234 171.939 84.3886 172.64 84.3046C172.612 84.8668 172.534 85.4321 172.416 85.9963C175.028 87.1257 177.468 88.5092 179.72 90.1076C178.906 90.5306 177.996 90.9391 177.01 91.2811Z" fill="#6F2717"/>
<path d="M177.52 80.7107C177.52 80.7107 172.986 74.3671 167.235 71.2224C167.474 70.4903 167.688 69.7314 167.867 68.9521C168.816 69.3986 169.681 69.9096 170.404 70.4953C175.487 74.6108 177.52 80.7107 177.52 80.7107ZM158.958 67.837C155.632 66.6358 153.291 65.9272 153.291 65.9272C153.291 65.9272 155.776 66.0204 158.963 66.5089C158.978 66.9277 158.979 67.3731 158.958 67.837Z" fill="#E66733"/>
<path d="M167.235 71.2189C166.746 70.9516 166.248 70.7069 165.744 70.4918C163.324 69.4586 160.962 68.5565 158.958 67.8335C158.979 67.3696 158.978 66.9242 158.963 66.5054C161.793 66.9385 165.175 67.683 167.867 68.9487C167.688 69.7279 167.474 70.4867 167.235 71.2189Z" fill="#94401D"/>
<path d="M116.446 98.4803C116.446 98.4803 131.267 81.0068 161.323 85.2297C191.378 89.4527 202.556 128.698 202.556 128.698L189.639 144.844H116.446V98.4803Z" fill="#EF5D22"/>
<path d="M121.179 94.2781C124.372 93.4036 129.447 92.7052 137.271 93.2428C156.248 94.5463 180.884 124.977 180.884 124.977C180.884 124.977 169.96 90.2701 135.194 87.1479C128.963 89.1458 124.297 91.9536 121.179 94.2781Z" fill="#852E1B"/>
<path d="M180.666 139.938H176.382C175.204 136.645 169.293 121.12 159.833 112.988C152.037 106.287 140.731 98.4821 126.645 97.7519C127.366 97.7151 128.08 97.6967 128.787 97.6967C138.944 97.6967 147.732 101.441 154.889 106.036C154.91 105.904 154.924 105.772 154.951 105.639C155.251 104.202 155.846 102.905 156.656 101.79C162.323 105.869 167.627 110.765 171.82 115.006C170.797 115.983 169.576 116.739 168.239 117.217C175.287 125.629 179.67 137.155 180.666 139.938ZM174.176 111.567C171.271 107.129 167.306 102.241 162.073 97.9987C162.226 97.9557 162.381 97.9168 162.535 97.8799L162.706 97.838C162.971 97.7806 163.24 97.7366 163.511 97.7008L163.744 97.667C163.998 97.6393 164.257 97.626 164.516 97.6178C164.609 97.6148 164.701 97.6055 164.795 97.6055C164.803 97.6055 164.811 97.6055 164.819 97.6055C165.07 97.6055 165.323 97.6219 165.576 97.6404C165.669 97.6465 165.761 97.6465 165.854 97.6557C166.206 97.6915 166.56 97.7438 166.914 97.8185C172.377 98.9623 175.878 104.318 174.734 109.781C174.614 110.354 174.438 110.899 174.23 111.425L174.195 111.518C174.189 111.535 174.183 111.55 174.176 111.567Z" fill="#C74D1F"/>
<path d="M171.82 115.008C167.627 110.766 162.323 105.871 156.656 101.792C157.287 100.925 158.05 100.169 158.907 99.5462C159.183 99.3455 159.468 99.1592 159.762 98.9882L159.78 98.9779C160.064 98.8131 160.357 98.6615 160.657 98.5243L160.711 98.4987C160.996 98.3707 161.287 98.257 161.584 98.1556L161.691 98.1167C161.818 98.0758 161.945 98.0369 162.073 98C167.306 102.243 171.271 107.13 174.176 111.568C173.964 112.083 173.709 112.572 173.421 113.036C172.969 113.764 172.429 114.426 171.82 115.008Z" fill="#6F2717"/>
<path d="M150.666 105.641C149.522 111.104 153.024 116.46 158.486 117.604C163.949 118.748 169.306 115.247 170.45 109.783C171.594 104.32 168.092 98.9649 162.629 97.8211C157.166 96.6773 151.811 100.178 150.666 105.641Z" fill="#D4541E"/>
<path d="M154.622 99.5488C156.85 97.9298 159.721 97.213 162.629 97.8223C168.092 98.9661 171.593 104.322 170.45 109.785C170.201 110.975 169.742 112.063 169.137 113.039C164.683 111.524 157.94 107.912 154.622 99.5488Z" fill="#852E1B"/>
<path d="M155.052 106.556C154.415 109.597 156.365 112.578 159.405 113.215C162.446 113.852 165.427 111.903 166.064 108.862C166.701 105.821 164.752 102.839 161.711 102.202C158.67 101.566 155.689 103.515 155.052 106.556Z" fill="white"/>
<path d="M77.614 144.844L72.6455 139.785C72.6455 139.785 88.4817 107.581 110.277 100.132C132.074 92.6813 149.214 103.859 159.833 112.987C170.452 122.116 176.599 140.559 176.599 140.559L172.687 144.844H77.614Z" fill="#F46A2F"/>
<path d="M102.686 113.038C102.686 113.038 120.54 98.9712 124.04 98.9712C127.541 98.9712 144.6 111.314 144.6 111.314L141.772 114.711C141.772 114.711 126.874 102.621 124.04 102.621C121.206 102.621 107.186 114.711 107.186 114.711L102.686 113.038Z" fill="#852E1B"/>
<path d="M111.533 118.437C111.533 118.437 121.789 109.743 124.727 109.743C127.665 109.743 137.426 117.319 137.426 117.319L134.766 122.508C134.766 122.508 127.005 114.091 124.727 114.091C122.449 114.091 113.691 121.915 113.691 121.915L111.533 118.437Z" fill="#852E1B"/>
<path d="M72.6455 139.785L86.4593 135.157C86.4593 135.157 82.054 120.811 94.9083 113.919C107.762 107.026 113.445 114.105 115.214 118.203C116.985 122.302 116.985 133.108 116.985 133.108H132.298C132.298 133.108 132.137 117.024 138.719 112.429C145.301 107.833 155.2 107.213 159.069 115.782C162.938 124.351 159.069 131.803 159.069 131.803L176.599 140.559L172.687 144.844H77.614L72.6455 139.785Z" fill="white"/>
<path d="M113.272 124.977C113.272 128.338 110.548 131.062 107.186 131.062C103.825 131.062 101.1 128.338 101.1 124.977C101.1 121.616 103.825 118.891 107.186 118.891C110.548 118.891 113.272 121.616 113.272 124.977Z" fill="#FDDD04"/>
<path d="M111.533 124.973C111.533 127.374 109.586 129.32 107.186 129.32C104.786 129.32 102.84 127.374 102.84 124.973C102.84 122.573 104.786 120.628 107.186 120.628C109.586 120.628 111.533 122.573 111.533 124.973Z" fill="#391913"/>
<path d="M106.273 122.269C106.273 123.26 105.47 124.062 104.48 124.062C103.489 124.062 102.686 123.26 102.686 122.269C102.686 121.279 103.489 120.476 104.48 120.476C105.47 120.476 106.273 121.279 106.273 122.269Z" fill="white"/>
<path d="M147.857 124.977C147.857 128.338 145.132 131.062 141.772 131.062C138.411 131.062 135.686 128.338 135.686 124.977C135.686 121.616 138.411 118.891 141.772 118.891C145.132 118.891 147.857 121.616 147.857 124.977Z" fill="#FDDD04"/>
<path d="M146.118 124.973C146.118 127.374 144.172 129.32 141.772 129.32C139.371 129.32 137.426 127.374 137.426 124.973C137.426 122.573 139.371 120.628 141.772 120.628C144.172 120.628 146.118 122.573 146.118 124.973Z" fill="#391913"/>
<path d="M140.858 122.269C140.858 123.26 140.055 124.062 139.064 124.062C138.074 124.062 137.271 123.26 137.271 122.269C137.271 121.279 138.074 120.476 139.064 120.476C140.055 120.476 140.858 121.279 140.858 122.269Z" fill="white"/>
<path d="M189.639 144.844H176.972L180.884 140.559C180.884 140.559 180.811 140.34 180.666 139.937H189.639L201.452 125.399C202.193 127.436 202.551 128.682 202.556 128.698L189.639 144.844Z" fill="#C74D1F"/>
<path d="M176.972 144.844H172.687L176.599 140.559C176.599 140.559 176.526 140.34 176.382 139.937H180.666C180.811 140.34 180.884 140.559 180.884 140.559L176.972 144.844Z" fill="#A33F1E"/>
<path d="M176.599 140.562L175.353 139.94H176.382C176.526 140.343 176.599 140.562 176.599 140.562Z" fill="#DE581D"/>
<path d="M172.687 144.844H77.6139L72.7949 139.937H175.353L176.599 140.559L172.687 144.844Z" fill="#D5D0CD"/>
<path d="M115.127 131.558C115.127 131.558 109.311 133.055 107.186 138.578C105.061 144.101 107.949 148.106 112.792 149.224C117.637 150.342 124.623 146.709 124.623 146.709C124.623 146.709 130.359 152.298 137.271 150.901C144.183 149.504 146.419 141.586 143.066 136.835C139.712 132.085 131.515 131.558 131.515 131.558C131.515 131.558 119.044 135.13 115.127 131.558Z" fill="white"/>
<path d="M124.623 146.711C124.623 146.711 124.911 146.987 125.414 147.391V138.579C125.414 138.2 125.106 137.892 124.727 137.892C124.349 137.892 124.04 138.2 124.04 138.579V146.993C124.404 146.822 124.623 146.711 124.623 146.711Z" fill="#A6B9B5"/>
<path d="M132.196 137.616C132.196 137.616 136.696 132.316 133.787 130.036C130.878 127.754 128.12 131.685 124.468 131.333C120.816 130.981 116.992 128.164 115.431 130.747C113.872 133.33 117.789 136.443 117.789 136.443C117.789 136.443 118.719 133.72 121.062 135.031C123.406 136.341 121.432 139.116 121.432 139.116C121.432 139.116 123.157 140.247 124.564 140.479C125.971 140.713 128.157 138.893 128.157 138.893C128.157 138.893 127.022 135.745 129.433 134.529C131.846 133.311 132.196 137.616 132.196 137.616Z" fill="#852E1B"/>
<path d="M87.5506 121.27C87.5506 121.27 84.1027 125.749 84.3823 132.362C84.6619 138.976 94.1717 144.844 94.1717 144.844L90.428 139.019C89.4931 137.565 89.8105 135.64 91.1622 134.562L96.957 129.94C96.957 129.94 89.1326 132.455 87.8291 130.593C86.5245 128.729 87.5506 121.27 87.5506 121.27Z" fill="#852E1B"/>
<path d="M159.688 117.331C159.688 117.331 159.151 123.146 157.722 126.032C156.293 128.92 151.356 127.617 151.356 127.617C151.356 127.617 156.852 130.411 156.852 132.181C156.852 133.951 153.126 139.539 153.126 139.539C153.126 139.539 165.226 131.914 159.688 117.331Z" fill="#852E1B"/>
<path d="M87.4256 144.844C87.4256 144.844 85.0039 143.044 83.4504 140.497C81.8981 137.951 81.4014 136.399 81.4014 136.399C81.4014 136.399 81.2151 139.752 82.1469 141.988C83.0787 144.223 83.8232 144.844 83.8232 144.844H87.4256Z" fill="#852E1B"/>
<path d="M161.447 144.844C161.447 144.844 163.709 142.99 165.67 139.534C167.631 136.079 168.34 131.556 168.34 131.556C168.34 131.556 169.271 138.075 168.651 140.87C168.029 143.664 167.036 144.844 167.036 144.844H161.447Z" fill="#852E1B"/>
<path d="M170.615 87.8393C167.738 86.6125 164.653 85.696 161.323 85.228C158.551 84.8389 155.911 84.6362 153.398 84.585C158.349 85.7626 168.595 88.9513 176.738 96.4439C187.901 106.713 192.248 116.125 192.248 116.125C192.248 116.125 185.533 97.5929 170.615 87.8393Z" fill="#852E1B"/>
<path d="M177.52 100.355C177.52 100.355 184.796 106.076 189.143 117.324C193.49 128.573 193.366 131.555 193.366 131.555L174.86 108.328L187.156 119.63C187.156 119.63 186.659 113.033 177.52 100.355Z" fill="#852E1B"/>
<path d="M205.786 124.977L189.64 144.846V190.869C190.853 189.255 192.309 188.387 193.802 188.388C195.224 188.387 196.614 189.174 197.794 190.648L205.786 176.145V124.977Z" fill="#F6854F"/>
<path d="M172.128 163.352H179.331V157.238H182.595L175.729 149.429L168.864 157.238H172.128V163.352Z" fill="#852E1B"/>
<path d="M175.729 165.214H168.864V167.578H182.595V165.214H175.729Z" fill="#852E1B"/>
<path d="M171.128 92.0936C167.727 90.8504 163.004 89.5755 157.722 89.4516C157.041 89.4352 156.351 89.4281 155.659 89.4281C152.857 89.4281 149.991 89.551 147.317 89.7271C145.919 89.2407 144.468 88.8065 142.965 88.4358C146.297 87.6689 150.414 87.0288 154.871 87.0288C156.049 87.0288 157.249 87.0739 158.466 87.1722C160.169 87.3104 161.741 87.5449 163.186 87.846C165.735 88.9478 168.454 90.3415 171.128 92.0936Z" fill="#F06C34"/>
<path d="M134.766 91.0077C134.766 91.0077 137.993 89.5823 142.965 88.4395C144.468 88.8102 145.919 89.2444 147.317 89.7308C140.405 90.1885 134.766 91.0077 134.766 91.0077Z" fill="#94401D"/>
<path d="M176.599 94.5471C176.599 94.5471 174.522 93.3388 171.128 92.0977C168.454 90.3456 165.735 88.9519 163.186 87.8501C172.521 89.7947 176.599 94.5471 176.599 94.5471Z" fill="#94401D"/>
<path fill-rule="evenodd" clip-rule="evenodd" d="M128 32C115.393 32 102.91 34.4831 91.2624 39.3076C79.6151 44.132 69.0322 51.2033 60.1178 60.1177C51.2033 69.0322 44.132 79.6151 39.3076 91.2624C34.4831 102.91 32 115.393 32 128C32 153.461 42.1143 177.879 60.1178 195.882C78.1213 213.886 102.539 224 128 224C153.461 224 177.879 213.886 195.882 195.882C213.886 177.879 224 153.461 224 128C224 115.393 221.517 102.91 216.692 91.2624C211.868 79.6151 204.797 69.0322 195.882 60.1177C186.968 51.2033 176.385 44.132 164.738 39.3076C153.09 34.4831 140.607 32 128 32ZM128 51.2C138.086 51.2 148.072 53.1865 157.39 57.0461C166.708 60.9056 175.174 66.5627 182.306 73.6942C189.437 80.8258 195.094 89.2921 198.954 98.6099C202.814 107.928 204.8 117.915 204.8 128C204.8 138.086 202.814 148.072 198.954 157.39C195.094 166.708 189.437 175.174 182.306 182.306C175.174 189.437 166.708 195.094 157.39 198.954C148.072 202.814 138.086 204.8 128 204.8C107.631 204.8 88.097 196.709 73.6942 182.306C59.2914 167.903 51.2 148.369 51.2 128C51.2 117.915 53.1865 107.928 57.0461 98.6099C60.9056 89.2921 66.5627 80.8258 73.6942 73.6942C80.8257 66.5627 89.2921 60.9056 98.6099 57.0461C107.928 53.1865 117.914 51.2 128 51.2Z" fill="#E66001"/>
<path d="M143.411 61.0498C141.685 58.537 142.444 55.0646 142.442 55.0646C143.205 52.0724 141.398 49.0281 138.406 48.2652C135.413 47.5074 132.368 49.3107 131.606 52.3028C131.402 53.1026 129.807 60.0627 133.626 66.4689C136.602 65.9108 140.961 64.6472 144.075 61.826C143.829 61.5813 143.6 61.3263 143.411 61.0498Z" fill="white"/>
</g>
</g>
</g>
</g>
<defs>
<clipPath id="clip0_1251_8954">
<rect width="256" height="256" fill="white"/>
</clipPath>
<clipPath id="clip1_1251_8954">
<rect width="256" height="256" fill="white"/>
</clipPath>
</defs>
</svg>
