<svg width="256" height="256" viewBox="0 0 256 256" fill="none" xmlns="http://www.w3.org/2000/svg">
<g clip-path="url(#clip0_1251_8964)">
<rect width="256" height="256" fill="white"/>
<g clip-path="url(#clip1_1251_8964)">
<path d="M256 0H0V256H256V0Z" fill="#171717"/>
<path fill-rule="evenodd" clip-rule="evenodd" d="M73.4628 44.0273H182.54V123.868H211.906L128.001 211.973L44.0966 123.868H73.4628V44.0298V44.0273Z" stroke="black" stroke-width="13.4933" stroke-miterlimit="1.414" stroke-linejoin="round"/>
<path fill-rule="evenodd" clip-rule="evenodd" d="M73.4597 44.0273H182.537V123.871H211.903L127.999 211.974L44.0938 123.871H73.4597V44.0273Z" fill="#FFB300"/>
<path fill-rule="evenodd" clip-rule="evenodd" d="M128.013 211.975L73.5977 44.0273H182.428L128.013 211.974V211.975Z" fill="#FFCA28"/>
<path fill-rule="evenodd" clip-rule="evenodd" d="M96.8852 191.325H51.5586V181.786H78.4535V173.322H51.5586V145.924H96.8852V155.392H69.9902V163.855H96.8852V191.325ZM123.78 181.786H132.243V173.322H123.78V181.786ZM150.675 191.325H105.348V163.855H132.243V155.392H105.348V145.924H150.674V191.325H150.675ZM177.569 181.786H186.032V155.392H177.569V181.786ZM159.137 191.325V127.994H177.569V145.925H204.464V191.325H159.137Z" stroke="black" stroke-width="13.5001" stroke-miterlimit="1.414" stroke-linecap="round" stroke-linejoin="round"/>
<path d="M96.8852 191.325H51.5586V181.786H78.4535V173.322H51.5586V145.924H96.8852V155.392H69.9902V163.855H96.8852V191.325ZM123.78 181.786H132.243V173.322H123.78V181.786ZM150.675 191.325H105.348V163.855H132.243V155.392H105.348V145.924H150.674V191.325H150.675ZM177.569 181.786H186.032V155.392H177.569V181.786ZM159.137 191.325V127.994H177.569V145.925H204.464V191.325H159.137Z" fill="white"/>
</g>
</g>
<defs>
<clipPath id="clip0_1251_8964">
<rect width="256" height="256" fill="white"/>
</clipPath>
<clipPath id="clip1_1251_8964">
<rect width="256" height="256" fill="white"/>
</clipPath>
</defs>
</svg>
