<svg width="64" height="64" viewBox="0 0 64 64" fill="none" xmlns="http://www.w3.org/2000/svg">
<g id="ZimaOSLogo">
<path d="M0 12C0 5.37258 5.37258 0 12 0H52C58.6274 0 64 5.37258 64 12V52C64 58.6274 58.6274 64 52 64H12C5.37258 64 0 58.6274 0 52V12Z" fill="#F5F5F5"/>
<path id="Union" fill-rule="evenodd" clip-rule="evenodd" d="M10.5312 25.0022V29.3543H30.6811V24.9974H18.3774L28.1888 15.1861C28.7256 14.654 29.4398 14.3569 30.1971 14.3569H30.6811V10H10.5312V14.3569H22.8589L13.0668 24.1538C12.5204 24.7002 11.7918 25.0022 11.0153 25.0022H10.5312ZM46.8221 34.6406H47.5362C47.3062 35.1679 47.3062 35.767 47.5362 36.2942L55.1763 53.9949H50.0334L44.6077 41.4228L39.182 53.9949H34.0391L41.6792 36.2942C41.9092 35.767 41.9092 35.1679 41.6792 34.6406H46.8221ZM29.0515 34.6367H26.0511V35.1879C26.0511 35.9452 25.706 36.6642 25.1164 37.1387L20.6062 40.7622L16.1007 37.1435C15.5112 36.669 15.1661 35.95 15.1661 35.1927V34.6415H10.5312V54.0006H15.1613V42.3343L16.9108 43.7339L20.611 46.7056L24.3064 43.7387L26.0559 42.3343V54.0006H30.6859V34.6415H29.0563L29.0515 34.6367ZM46.3269 15.6366V23.7176V23.7224C46.3269 24.4078 46.8829 24.959 47.5635 24.959H53.7225V29.3638H34.5312V24.959H40.6903C41.3757 24.959 41.9269 24.4031 41.9269 23.7224V15.6414C41.9269 14.956 41.3709 14.4048 40.6903 14.4048H34.5312V10H53.7225V14.4H47.5635C46.8781 14.4 46.3269 14.956 46.3269 15.6366Z" fill="black"/>
</g>
</svg>
