<svg width="256" height="256" viewBox="0 0 256 256" fill="none" xmlns="http://www.w3.org/2000/svg">
<g clip-path="url(#clip0_1230_111)">
<rect width="256" height="256" fill="white"/>
<g clip-path="url(#clip1_1230_111)">
<mask id="mask0_1230_111" style="mask-type:luminance" maskUnits="userSpaceOnUse" x="0" y="0" width="256" height="256">
<path d="M256 0H0V256H256V0Z" fill="white"/>
</mask>
<g mask="url(#mask0_1230_111)">
<path d="M256 0H0V256H256V0Z" fill="#EDEDED"/>
<path d="M121.875 198.438C111.462 198.438 103.5 190.475 103.5 180.063V149.438C103.5 139.025 111.462 131.063 121.875 131.063H170.875C181.287 131.063 189.25 139.025 189.25 149.438V180.063C189.25 190.475 181.287 198.438 170.875 198.438H121.875Z" fill="#65B1DD"/>
<path d="M170.875 137.188C177.613 137.188 183.125 142.7 183.125 149.438V180.063C183.125 186.8 177.613 192.313 170.875 192.313H121.875C115.138 192.313 109.625 186.8 109.625 180.063V149.438C109.625 142.7 115.138 137.188 121.875 137.188H170.875ZM170.875 124.938H121.875C108.4 124.938 97.375 135.963 97.375 149.438V180.063C97.375 193.538 108.4 204.563 121.875 204.563H170.875C184.35 204.563 195.375 193.538 195.375 180.063V149.438C195.375 135.963 184.35 124.938 170.875 124.938Z" fill="white"/>
<path d="M54.5 210.688C44.0875 210.688 36.125 202.725 36.125 192.313V149.438C36.125 139.025 44.0875 131.063 54.5 131.063H115.75C126.162 131.063 134.125 139.025 134.125 149.438V192.313C134.125 202.725 126.162 210.688 115.75 210.688H54.5Z" fill="#336697"/>
<path d="M115.75 137.188C122.488 137.188 128 142.7 128 149.438V192.313C128 199.05 122.488 204.563 115.75 204.563H54.5C47.7625 204.563 42.25 199.05 42.25 192.313V149.438C42.25 142.7 47.7625 137.188 54.5 137.188H115.75ZM115.75 124.938H54.5C41.025 124.938 30 135.963 30 149.438V192.313C30 205.788 41.025 216.813 54.5 216.813H115.75C129.225 216.813 140.25 205.788 140.25 192.313V149.438C140.25 135.963 129.225 124.938 115.75 124.938Z" fill="white"/>
<path d="M103.5 155.563C93.0875 155.563 85.125 147.6 85.125 137.188V63.688C85.125 53.2755 93.0875 45.313 103.5 45.313H201.5C211.912 45.313 219.875 53.2755 219.875 63.688V137.188C219.875 147.6 211.912 155.563 201.5 155.563H103.5Z" fill="#1D4775"/>
<path d="M201.5 51.438C208.238 51.438 213.75 56.9505 213.75 63.688V137.188C213.75 143.925 208.238 149.438 201.5 149.438H103.5C96.7625 149.438 91.25 143.925 91.25 137.188V63.688C91.25 56.9505 96.7625 51.438 103.5 51.438H201.5ZM201.5 39.188H103.5C90.025 39.188 79 50.213 79 63.688V137.188C79 150.663 90.025 161.688 103.5 161.688H201.5C214.975 161.688 226 150.663 226 137.188V63.688C226 50.213 214.975 39.188 201.5 39.188Z" fill="white"/>
</g>
</g>
</g>
<defs>
<clipPath id="clip0_1230_111">
<rect width="256" height="256" fill="white"/>
</clipPath>
<clipPath id="clip1_1230_111">
<rect width="256" height="256" fill="white"/>
</clipPath>
</defs>
</svg>
