<svg width="256" height="256" viewBox="0 0 256 256" fill="none" xmlns="http://www.w3.org/2000/svg">
<rect width="256" height="256" fill="white"/>
<path d="M226.633 125.547L218.237 120.349C218.166 119.533 218.086 118.718 217.998 117.904L225.213 111.173C225.574 110.838 225.843 110.416 225.994 109.947C226.145 109.478 226.173 108.979 226.077 108.496C225.981 108.013 225.764 107.562 225.446 107.187C225.127 106.812 224.717 106.524 224.256 106.352L215.032 102.903C214.8 102.106 214.559 101.312 214.309 100.522L220.063 92.5304C221.32 90.7882 220.304 88.3319 218.183 87.9882L208.456 86.4062C208.078 85.6687 207.684 84.9421 207.288 84.2218L211.374 75.2507C211.58 74.8031 211.668 74.3101 211.628 73.8189C211.589 73.3278 211.424 72.855 211.149 72.446C210.877 72.0357 210.504 71.7022 210.065 71.4776C209.627 71.253 209.138 71.1447 208.646 71.1632L198.774 71.5069C198.264 70.8683 197.745 70.2378 197.215 69.6155L199.484 59.9999C199.597 59.5203 199.585 59.0198 199.45 58.5459C199.316 58.072 199.062 57.6404 198.713 57.2921C198.365 56.9438 197.934 56.6902 197.46 56.5554C196.987 56.4206 196.486 56.409 196.007 56.5218L186.394 58.7882C185.77 58.2591 185.138 57.7392 184.498 57.2288L184.844 47.3577C184.863 46.8656 184.755 46.3768 184.53 45.9384C184.306 45.4999 183.973 45.1265 183.562 44.8538C183.153 44.5796 182.681 44.4148 182.19 44.3751C181.699 44.3354 181.206 44.4222 180.758 44.6272L171.789 48.7163C171.066 48.317 170.337 47.9264 169.605 47.5444L168.019 37.8163C167.673 35.6983 165.22 34.6827 163.478 35.9358L155.481 41.6897C154.695 41.4392 153.903 41.1991 153.105 40.9694L149.655 31.7437C149.484 31.2815 149.197 30.871 148.821 30.5515C148.446 30.232 147.995 30.0141 147.511 29.9187C147.028 29.8239 146.53 29.8535 146.062 30.0047C145.594 30.1558 145.172 30.4236 144.836 30.7827L138.105 38.0038C137.292 37.9126 136.476 37.8329 135.66 37.7647L130.462 29.3663C129.333 27.5413 126.679 27.5413 125.549 29.3663L120.352 37.7647C119.534 37.833 118.718 37.9127 117.904 38.0038L111.172 30.7827C109.709 29.2093 107.101 29.7296 106.352 31.7437L102.904 40.9694C102.105 41.1983 101.314 41.4413 100.525 41.6897L92.5297 35.9358C92.1302 35.6473 91.6634 35.466 91.1739 35.4093C90.6844 35.3525 90.1885 35.4222 89.7336 35.6116C89.2789 35.8001 88.8799 36.1015 88.5743 36.4873C88.2688 36.8731 88.0668 37.3306 87.9875 37.8163L86.4016 47.5444C85.6672 47.9249 84.9414 48.3163 84.2172 48.7163L75.2477 44.6265C74.7999 44.4219 74.3072 44.3353 73.8165 44.3751C73.3258 44.4149 72.8535 44.5797 72.4445 44.8538C72.0341 45.1263 71.7006 45.4997 71.4759 45.9381C71.2513 46.3766 71.1431 46.8654 71.1617 47.3577L71.5055 57.2288C70.8669 57.7403 70.2352 58.2601 69.6102 58.7882L59.9969 56.5226C59.5173 56.4102 59.017 56.4219 58.5433 56.5565C58.0695 56.6912 57.6378 56.9443 57.2891 57.2921C56.9405 57.6404 56.6868 58.072 56.552 58.5459C56.4172 59.0198 56.4057 59.5203 56.5187 59.9999L58.7836 69.6155C58.2576 70.2379 57.7391 70.8684 57.2281 71.5069L47.3562 71.1632C46.3562 71.1319 45.4109 71.6163 44.8531 72.4452C44.5795 72.8546 44.4149 73.3272 44.3751 73.818C44.3354 74.3089 44.4216 74.8018 44.6258 75.2499L48.7148 84.2218C48.3172 84.9421 47.9242 85.6687 47.543 86.4062L37.8172 87.9882C35.6977 88.3335 34.682 90.7882 35.9367 92.5304L41.6906 100.523C41.4406 101.312 41.1977 102.104 40.968 102.903L31.743 106.352C29.7352 107.107 29.218 109.708 30.7859 111.173L38.0023 117.903C37.9125 118.716 37.8328 119.533 37.7641 120.349L29.3664 125.547C28.9482 125.806 28.6032 126.168 28.3639 126.598C28.1247 127.028 27.9991 127.512 27.9992 128.004C27.9992 129.007 28.5172 129.936 29.3672 130.459L37.7641 135.657C37.8328 136.476 37.9122 137.291 38.0023 138.103L30.7852 144.835C29.2141 146.298 29.7312 148.904 31.743 149.655L40.968 153.104C41.1977 153.902 41.4406 154.695 41.6906 155.484L35.9367 163.477C34.6789 165.219 35.6977 167.676 37.8195 168.018L47.5437 169.6C47.9242 170.337 48.3141 171.064 48.7156 171.787L44.6258 180.756C44.4209 181.204 44.3342 181.697 44.374 182.188C44.4138 182.679 44.5788 183.152 44.8531 183.561C45.1256 183.971 45.4989 184.304 45.9372 184.529C46.3755 184.753 46.8642 184.861 47.3562 184.843L57.2234 184.498C57.7383 185.139 58.2562 185.768 58.7836 186.393L56.5187 196.01C56.4052 196.489 56.4164 196.989 56.5513 197.462C56.6861 197.935 56.9402 198.366 57.2891 198.712C57.6367 199.062 58.0684 199.316 58.5426 199.45C59.0168 199.585 59.5176 199.595 59.9969 199.48L69.6102 197.216C70.2352 197.748 70.868 198.263 71.5062 198.771L71.1625 208.645C71.0844 210.791 73.2953 212.267 75.2477 211.373L84.2172 207.287C84.9391 207.688 85.6672 208.078 86.4016 208.458L87.9875 218.18C88.0657 218.667 88.2673 219.125 88.5729 219.511C88.8786 219.898 89.2782 220.199 89.7336 220.387C90.1885 220.576 90.6842 220.646 91.1736 220.589C91.6629 220.533 92.1297 220.352 92.5297 220.065L100.521 214.307C101.31 214.557 102.103 214.801 102.902 215.031L106.351 224.253C106.523 224.714 106.81 225.124 107.185 225.443C107.561 225.762 108.011 225.979 108.495 226.074C108.977 226.171 109.477 226.143 109.945 225.992C110.414 225.84 110.836 225.571 111.17 225.21L117.902 217.993C118.715 218.087 119.532 218.165 120.35 218.237L125.548 226.634C125.807 227.052 126.168 227.397 126.598 227.636C127.028 227.876 127.511 228.001 128.003 228.001C129.003 228.001 129.933 227.484 130.46 226.634L135.658 218.237C136.476 218.165 137.292 218.087 138.104 217.993L144.834 225.21C145.169 225.571 145.591 225.84 146.059 225.991C146.527 226.143 147.027 226.171 147.509 226.074C147.992 225.979 148.443 225.762 148.818 225.443C149.194 225.124 149.481 224.714 149.653 224.253L153.102 215.031C153.901 214.801 154.695 214.557 155.484 214.307L163.477 220.065C165.22 221.318 167.673 220.3 168.017 218.18L169.603 208.458C170.337 208.077 171.062 207.682 171.787 207.286L180.756 211.373C182.709 212.27 184.922 210.793 184.842 208.645L184.498 198.772C185.138 198.263 185.769 197.745 186.391 197.216L196.005 199.48C196.982 199.71 198.005 199.426 198.711 198.712C199.06 198.366 199.314 197.935 199.449 197.462C199.584 196.989 199.595 196.489 199.481 196.01L197.217 186.393C197.745 185.768 198.264 185.139 198.772 184.498L208.644 184.843C209.136 184.862 209.624 184.754 210.063 184.529C210.501 184.305 210.874 183.972 211.147 183.562C211.421 183.152 211.586 182.679 211.626 182.188C211.665 181.697 211.578 181.203 211.373 180.755L207.285 171.788C207.684 171.064 208.077 170.337 208.455 169.601L218.181 168.018C218.668 167.94 219.126 167.738 219.512 167.432C219.898 167.127 220.199 166.727 220.386 166.271C220.574 165.816 220.643 165.321 220.587 164.832C220.53 164.343 220.349 163.877 220.062 163.477L214.308 155.485C214.557 154.695 214.798 153.902 215.03 153.104L224.254 149.655C224.716 149.483 225.126 149.196 225.445 148.82C225.764 148.445 225.981 147.994 226.075 147.51C226.172 147.028 226.144 146.528 225.992 146.06C225.841 145.591 225.572 145.17 225.211 144.835L217.996 138.103C218.084 137.291 218.164 136.473 218.234 135.658L226.631 130.459C227.05 130.201 227.395 129.839 227.635 129.41C227.874 128.98 228 128.496 227.999 128.004C227.999 127.003 227.484 126.073 226.633 125.547ZM170.436 195.2C167.23 194.508 165.191 191.348 165.879 188.132C166.565 184.919 169.723 182.875 172.928 183.566C176.134 184.253 178.177 187.419 177.489 190.629C176.802 193.84 173.641 195.887 170.436 195.2ZM68.0922 113.817C69.4058 113.233 70.4338 112.151 70.9501 110.81C71.4664 109.468 71.4287 107.976 70.8453 106.662C70.8453 106.662 65.1813 94.0749 65.3516 92.7374C66.5406 83.3858 73.6242 74.6968 81.4039 67.8866C89.4078 60.8804 104.099 58.0101 113.461 55.4741C114.12 55.2952 123.584 65.0851 123.584 65.0851C124.074 65.6 124.662 66.0132 125.312 66.3008C125.963 66.5885 126.664 66.745 127.375 66.7614C128.086 66.7778 128.793 66.6537 129.456 66.3964C130.119 66.139 130.725 65.7534 131.239 65.2616L141.472 55.4741C162.913 59.4663 181.067 72.8132 191.529 91.1249L184.523 106.948C183.314 109.686 184.548 112.888 187.279 114.101L200.766 120.092C200.999 122.487 201.122 124.905 201.122 127.358C202.998 145.281 194.743 164.141 180.148 178.603L167.584 175.903C166.889 175.754 166.17 175.743 165.47 175.872C164.77 176.001 164.102 176.266 163.505 176.653C162.908 177.04 162.393 177.541 161.99 178.127C161.586 178.713 161.302 179.373 161.154 180.069L158.173 193.98C148.973 198.155 138.759 200.475 128 200.475C116.995 200.475 106.558 198.041 97.1953 193.687L94.2156 179.776C93.5891 176.849 90.7109 174.984 87.7875 175.612L75.5062 178.25C63.2719 164.454 55.1992 143.023 54.8805 127.358C54.8805 124.703 55.0234 122.08 55.2984 119.501L68.0922 113.817ZM84.9352 194.911C81.7281 195.603 78.5711 193.559 77.8805 190.346C77.1953 187.128 79.2344 183.969 82.4406 183.278C83.982 182.949 85.591 183.245 86.9137 184.102C88.2364 184.96 89.1645 186.307 89.4937 187.848C90.1797 191.059 88.1398 194.223 84.9352 194.911ZM62.2656 102.989C63.5961 105.991 62.2422 109.508 59.2445 110.837C56.2469 112.169 52.7383 110.813 51.4086 107.809C50.7694 106.368 50.7286 104.732 51.295 103.26C51.8615 101.789 52.989 100.602 54.4297 99.9616C55.1429 99.6455 55.9114 99.4731 56.6913 99.4541C57.4711 99.4352 58.2471 99.5701 58.9748 99.8511C59.7025 100.132 60.3677 100.554 60.9324 101.092C61.497 101.63 61.9501 102.276 62.2656 102.989ZM123.587 47.3319C125.957 45.0624 129.716 45.1522 131.984 47.5249C134.248 49.9046 134.163 53.6671 131.788 55.9351C129.418 58.2054 125.659 58.1171 123.391 55.7397C122.303 54.5979 121.713 53.0714 121.75 51.4951C121.787 49.9189 122.448 48.4216 123.587 47.3319ZM193.105 103.277C193.421 102.564 193.874 101.919 194.438 101.381C195.003 100.843 195.668 100.421 196.395 100.14C197.123 99.8591 197.899 99.7244 198.679 99.7436C199.459 99.7629 200.227 99.9357 200.94 100.252C203.938 101.582 205.291 105.098 203.961 108.1C203.646 108.814 203.193 109.458 202.629 109.997C202.064 110.536 201.399 110.958 200.671 111.239C199.943 111.52 199.167 111.655 198.387 111.636C197.607 111.617 196.838 111.444 196.125 111.127C193.13 109.797 191.777 106.284 193.105 103.277Z" fill="black"/>
<path d="M59.5375 71.9548L87.2398 58.6431L127.71 167.901L164.494 63.6431L195.796 71.9548L147.648 201.947H107.685L59.5375 71.9548Z" fill="black"/>
</svg>
