<svg width="256" height="256" viewBox="0 0 256 256" fill="none" xmlns="http://www.w3.org/2000/svg">
<rect width="256" height="256" fill="white"/>
<g clip-path="url(#clip0_1230_70)">
<path d="M220.033 70.8018C218.042 69.831 217.186 71.683 216.021 72.6239C215.628 72.9326 215.289 73.3358 214.955 73.6893C212.043 76.8059 208.648 78.8471 204.217 78.5981C197.725 78.2447 192.189 80.2809 187.295 85.2544C186.254 79.1259 182.794 75.4666 177.537 73.1168C174.779 71.897 171.996 70.6773 170.074 68.0238C168.725 66.1419 168.361 64.0409 167.679 61.9699C167.256 60.7203 166.823 59.4358 165.389 59.2217C163.831 58.9728 163.219 60.2871 162.611 61.3824C160.157 65.8581 159.216 70.8018 159.301 75.8052C159.515 87.0467 164.264 95.9981 173.683 102.376C174.759 103.102 175.033 103.844 174.694 104.91C174.052 107.1 173.29 109.231 172.608 111.426C172.185 112.83 171.543 113.139 170.044 112.522C164.871 110.361 160.401 107.165 156.458 103.287C149.757 96.8046 143.698 89.6405 136.14 84.0347C134.363 82.7203 132.596 81.5006 130.759 80.3456C123.047 72.843 131.769 66.6796 133.786 65.9577C135.901 65.2009 134.517 62.5773 127.697 62.6071C120.881 62.637 114.633 64.9221 106.683 67.964C105.518 68.427 104.298 68.7656 103.038 69.0294C95.8194 67.6703 88.3268 67.3616 80.4906 68.2428C65.7442 69.8957 53.965 76.8756 45.3024 88.7941C34.9023 103.102 32.4528 119.372 35.4499 136.359C38.6013 154.237 47.717 169.058 61.7365 180.638C76.2638 192.636 93.0016 198.516 112.094 197.391C123.689 196.728 136.603 195.17 151.166 182.833C154.84 184.656 158.693 185.382 165.091 185.935C170.014 186.398 174.754 185.686 178.428 184.929C184.178 183.71 183.78 178.383 181.704 177.397C164.842 169.541 168.541 172.737 165.175 170.158C173.743 159.997 186.658 149.452 191.711 115.3C192.104 112.582 191.765 110.884 191.711 108.678C191.681 107.349 191.98 106.826 193.508 106.672C197.73 106.194 201.832 105.034 205.596 102.953C216.519 96.9788 220.92 87.1761 221.96 75.4069C222.115 73.6146 221.93 71.7477 220.038 70.8068L220.033 70.8018ZM124.849 176.67C108.505 163.81 100.584 159.579 97.313 159.763C94.2562 159.932 94.8038 163.437 95.4759 165.722C96.1779 167.978 97.0989 169.536 98.3883 171.512C99.2745 172.827 99.8869 174.783 97.5022 176.237C92.2399 179.513 83.0893 175.142 82.6562 174.923C72.0121 168.655 63.1105 160.365 56.8326 149.029C50.7788 138.116 47.2589 126.412 46.6814 113.921C46.5271 110.894 47.4133 109.828 50.4103 109.291C54.3533 108.564 58.4307 108.41 62.3737 108.982C79.0468 111.422 93.2455 118.894 105.139 130.703C111.935 137.449 117.073 145.495 122.37 153.351C127.996 161.705 134.059 169.655 141.771 176.172C144.489 178.457 146.665 180.2 148.741 181.484C142.473 182.181 132.003 182.336 124.849 176.665V176.67ZM132.68 126.228C132.68 124.883 133.751 123.818 135.105 123.818C135.404 123.818 135.682 123.878 135.931 123.972C136.265 124.097 136.574 124.281 136.813 124.56C137.246 124.978 137.49 125.595 137.49 126.228C137.49 127.572 136.419 128.637 135.075 128.637C133.731 128.637 132.68 127.572 132.68 126.228ZM157.005 138.734C155.447 139.366 153.889 139.924 152.39 139.983C150.065 140.093 147.526 139.147 146.142 137.992C144.002 136.2 142.478 135.199 141.826 132.048C141.557 130.703 141.711 128.637 141.95 127.447C142.508 124.883 141.891 123.245 140.088 121.752C138.615 120.532 136.753 120.209 134.702 120.209C133.935 120.209 133.233 119.87 132.71 119.591C131.854 119.158 131.152 118.093 131.824 116.783C132.038 116.365 133.084 115.33 133.328 115.145C136.106 113.557 139.317 114.08 142.289 115.27C145.047 116.395 147.123 118.466 150.115 121.384C153.182 124.918 153.73 125.909 155.472 128.548C156.846 130.634 158.106 132.764 158.962 135.204C159.48 136.717 158.808 137.967 157 138.739L157.005 138.734Z" fill="#4D6BFE"/>
</g>
<defs>
<clipPath id="clip0_1230_70">
<rect width="187.74" height="138.333" fill="white" transform="translate(34.26 59.1914)"/>
</clipPath>
</defs>
</svg>
