<svg width="256" height="256" viewBox="0 0 256 256" fill="none" xmlns="http://www.w3.org/2000/svg">
<rect width="256" height="256" fill="white"/>
<g clip-path="url(#clip0_1229_258)">
<path d="M116.059 120.325C105.657 114.171 100.156 83.7812 121.342 92.005C124.664 93.3121 126.026 97.8869 128.858 97.8869C129.566 97.8869 147.102 80.459 151.024 99.5752C151.35 101.1 151.459 103.496 151.024 105.076C147.484 117.057 136.373 115.696 129.566 122.231C125.481 126.153 129.566 146.14 129.566 160.954" stroke="black" stroke-opacity="0.9" stroke-width="17.4278" stroke-miterlimit="8" stroke-linecap="round" stroke-linejoin="round"/>
<path d="M62.4139 144.942C101.082 173.153 152.494 174.025 193.286 150.171" stroke="black" stroke-opacity="0.9" stroke-width="17.4278" stroke-miterlimit="8" stroke-linecap="round" stroke-linejoin="round"/>
<path d="M97.3241 165.91C100.919 207.41 91.9868 220.263 115.024 220.045H124.392C124.501 220.1 127.006 167.163 130.056 167.163C133.215 167.163 132.724 220.154 133.977 220.045C162.733 218.575 161.862 224.13 162.515 205.885C162.733 199.186 161.262 175.223 162.515 165.856M94.3287 54.8077C94.4376 49.4159 94.7643 44.1331 94.7643 38.7414M161.589 56.0058C161.154 49.307 162.243 42.826 162.243 36.2361" stroke="black" stroke-opacity="0.9" stroke-width="17.4278" stroke-miterlimit="8" stroke-linecap="round" stroke-linejoin="round"/>
</g>
<defs>
<clipPath id="clip0_1229_258">
<rect width="148.3" height="201.237" fill="white" transform="translate(53.7 27.5221)"/>
</clipPath>
</defs>
</svg>
