<svg width="256" height="256" viewBox="0 0 256 256" fill="none" xmlns="http://www.w3.org/2000/svg">
<g clip-path="url(#clip0_1251_8930)">
<rect width="256" height="256" fill="white"/>
<g clip-path="url(#clip1_1251_8930)">
<mask id="mask0_1251_8930" style="mask-type:luminance" maskUnits="userSpaceOnUse" x="0" y="0" width="256" height="256">
<path d="M256 0H0V256H256V0Z" fill="white"/>
</mask>
<g mask="url(#mask0_1251_8930)">
<path d="M256 0H0V256H256V0Z" fill="#262626"/>
<path d="M206 0H50C22.3858 0 0 22.3858 0 50V206C0 233.614 22.3858 256 50 256H206C233.614 256 256 233.614 256 206V50C256 22.3858 233.614 0 206 0Z" fill="#262626"/>
<g filter="url(#filter0_f_1251_8930)">
<path d="M179.601 218.75C178.301 228.25 168.951 235.7 159.601 233.1C146.351 229.5 131.001 223.8 117.201 222.75L96.0006 221.15C92.595 220.91 89.3943 219.434 87.0006 217L50.5006 179.6C48.5622 177.608 47.2681 175.078 46.7866 172.341C46.305 169.603 46.6584 166.784 47.8006 164.25C47.8006 164.25 70.3006 114.95 71.2006 112.4C72.0006 109.85 75.1006 87.45 76.9006 75.45C77.4053 72.2637 78.9949 69.3494 81.4006 67.2L124.501 28.6C125.921 27.3262 127.586 26.3561 129.394 25.7491C131.203 25.1421 133.116 24.9111 135.017 25.0703C136.918 25.2295 138.767 25.7755 140.449 26.6748C142.131 27.5742 143.612 28.8078 144.801 30.3L181.101 76.1C183.132 78.7156 184.224 81.9385 184.201 85.25C184.201 93.9 184.951 111.75 189.801 123.25C194.613 133.593 200.585 143.355 207.601 152.35C208.45 153.453 208.952 154.784 209.041 156.174C209.13 157.563 208.802 158.948 208.101 160.15C204.951 165.5 198.651 175.8 189.801 188.95C184.198 197.992 180.695 208.175 179.551 218.75H179.601Z" fill="black" fill-opacity="0.3"/>
</g>
<path d="M179.951 217.15C178.651 226.7 169.301 234.15 159.951 231.6C146.751 227.95 131.451 222.25 117.601 221.2L96.4506 219.6C93.0369 219.352 89.8338 217.857 87.4506 215.4L50.9506 177.9C48.9934 175.888 47.6887 173.332 47.207 170.567C46.7253 167.802 47.089 164.955 48.2506 162.4C48.2506 162.4 70.8006 112.9 71.6506 110.3C72.5006 107.75 75.5506 85.3001 77.3506 73.2001C77.8443 69.9958 79.4348 67.0622 81.8506 64.9001L124.951 26.1501C126.374 24.8791 128.042 23.9124 129.852 23.3095C131.663 22.7066 133.577 22.4801 135.478 22.644C137.379 22.8079 139.227 23.3587 140.907 24.2625C142.588 25.1664 144.066 26.4042 145.251 27.9001L181.501 73.9001C183.525 76.5193 184.616 79.7398 184.601 83.0501C184.601 91.7501 185.351 109.65 190.151 121.2C194.96 131.591 200.931 141.404 207.951 150.45C208.819 151.553 209.335 152.891 209.433 154.29C209.531 155.69 209.206 157.087 208.501 158.3C205.301 163.7 199.051 174 190.151 187.25C184.568 196.334 181.084 206.549 179.951 217.15Z" fill="#6C31E3"/>
<path d="M91.3504 218.2C108.3 183.85 107.85 159.2 100.6 141.7C94.0004 125.5 81.6504 115.3 71.9504 108.95C71.7504 109.9 71.4504 110.8 71.0504 111.65L48.2504 162.4C47.0951 164.96 46.7395 167.81 47.2301 170.575C47.7208 173.341 49.0349 175.894 51.0004 177.9L87.4504 215.4C88.6004 216.55 89.9504 217.5 91.3504 218.2Z" fill="url(#paint0_radial_1251_8930)"/>
<path d="M137.45 148.5C142 148.95 146.45 149.95 150.85 151.55C164.75 156.75 177.4 168.45 187.85 191C188.6 189.7 189.35 188.45 190.15 187.25C196.536 177.773 202.655 168.12 208.5 158.3C209.213 157.092 209.546 155.698 209.457 154.298C209.368 152.898 208.86 151.558 208 150.45C200.963 141.406 194.975 131.594 190.15 121.2C185.35 109.7 184.65 91.7499 184.6 83.0499C184.6 79.7499 183.55 76.4999 181.5 73.8999L145.25 27.8999L144.65 27.1499C147.3 35.8999 147.15 42.8999 145.5 49.2499C144 55.1499 141.2 60.4999 138.25 66.1499C137.25 68.0499 136.25 69.9999 135.3 71.9999C130.598 80.9805 127.902 90.8752 127.4 101C126.9 113.1 129.35 128.25 137.4 148.5H137.45Z" fill="url(#paint1_radial_1251_8930)"/>
<path d="M137.4 148.5C129.35 128.25 126.9 113.1 127.4 101C127.9 88.9999 131.4 79.9999 135.3 71.9999L138.3 66.1499C141.2 60.4999 143.95 55.1499 145.5 49.2499C147.341 41.954 147.046 34.2828 144.65 27.1499C142.163 24.4172 138.697 22.7786 135.006 22.5913C131.316 22.4039 127.701 23.6831 124.95 26.1499L81.8502 64.8999C79.4344 67.062 77.8439 69.9956 77.3502 73.1999L72.1002 108C72.1002 108.35 72.0002 108.65 71.9502 109C81.6502 115.3 93.9502 125.5 100.6 141.65C101.9 144.85 103 148.2 103.8 151.85C114.726 148.82 126.088 147.67 137.4 148.45V148.5Z" fill="url(#paint2_radial_1251_8930)"/>
<path d="M160 231.6C169.3 234.15 178.65 226.7 179.95 217.1C181.015 207.994 183.708 199.153 187.9 191C177.4 168.45 164.75 156.75 150.9 151.55C136.15 146.05 120.1 147.9 103.8 151.85C107.45 168.4 105.3 190.05 91.4004 218.2C92.9504 219 94.7004 219.45 96.4504 219.6L118.4 221.25C130.3 222.1 148.05 228.25 160 231.6Z" fill="url(#paint3_radial_1251_8930)"/>
<path fill-rule="evenodd" clip-rule="evenodd" d="M127.501 100.25C126.951 112.25 128.451 125.95 136.501 146.15L134.001 145.9C126.751 124.85 125.151 114.05 125.701 101.9C126.201 89.75 130.151 80.4 134.051 72.4C135.051 70.4 137.351 66.65 138.351 64.75C141.251 59.1 143.201 56.15 144.851 51C147.251 43.8 146.751 40.4 146.451 37C148.301 49.25 141.251 59.9 135.951 70.75C131.044 79.8638 128.146 89.9226 127.451 100.25H127.501Z" fill="url(#paint4_radial_1251_8930)"/>
<path fill-rule="evenodd" clip-rule="evenodd" d="M103 142.55C104 144.75 104.85 146.55 105.45 149.3L103.3 149.8C102.45 146.6 101.8 144.3 100.55 141.55C93.2498 124.4 81.5498 115.55 72.0498 109.05C83.5498 115.25 95.3998 125 103 142.55Z" fill="url(#paint5_radial_1251_8930)"/>
<path fill-rule="evenodd" clip-rule="evenodd" d="M105.55 151.5C109.55 170.25 105.05 194.1 91.7998 217.3C102.9 194.3 108.3 172.25 103.8 151.8L105.55 151.45V151.5Z" fill="url(#paint6_radial_1251_8930)"/>
<path fill-rule="evenodd" clip-rule="evenodd" d="M151.35 149.75C173.1 157.9 181.5 175.75 187.75 190.7C180 175.1 169.25 157.85 150.55 151.45C136.35 146.55 124.35 147.15 103.8 151.8L103.35 149.8C125.15 144.8 136.55 144.2 151.35 149.8V149.75Z" fill="url(#paint7_radial_1251_8930)"/>
</g>
</g>
</g>
<defs>
<filter id="filter0_f_1251_8930" x="40.0771" y="18.5215" width="175.478" height="221.602" filterUnits="userSpaceOnUse" color-interpolation-filters="sRGB">
<feFlood flood-opacity="0" result="BackgroundImageFix"/>
<feBlend mode="normal" in="SourceGraphic" in2="BackgroundImageFix" result="shape"/>
<feGaussianBlur stdDeviation="3.25" result="effect1_foregroundBlur_1251_8930"/>
</filter>
<radialGradient id="paint0_radial_1251_8930" cx="0" cy="0" r="1" gradientUnits="userSpaceOnUse" gradientTransform="translate(89.5004 214.85) rotate(-104.545) scale(95.5628 63.5472)">
<stop stop-color="white" stop-opacity="0.4"/>
<stop offset="1" stop-opacity="0.1"/>
</radialGradient>
<radialGradient id="paint1_radial_1251_8930" cx="0" cy="0" r="1" gradientUnits="userSpaceOnUse" gradientTransform="translate(170.8 175.65) rotate(-82.4659) scale(156.35 115.478)">
<stop stop-color="white" stop-opacity="0.6"/>
<stop offset="1" stop-color="white" stop-opacity="0.1"/>
</radialGradient>
<radialGradient id="paint2_radial_1251_8930" cx="0" cy="0" r="1" gradientUnits="userSpaceOnUse" gradientTransform="translate(95.2502 148.15) rotate(-77.6806) scale(133.576 91.1112)">
<stop stop-color="white" stop-opacity="0.8"/>
<stop offset="1" stop-color="white" stop-opacity="0.4"/>
</radialGradient>
<radialGradient id="paint3_radial_1251_8930" cx="0" cy="0" r="1" gradientUnits="userSpaceOnUse" gradientTransform="translate(160.7 232.1) rotate(-120.71) scale(77.3466 88.7531)">
<stop stop-color="white" stop-opacity="0.3"/>
<stop offset="1" stop-opacity="0.3"/>
</radialGradient>
<radialGradient id="paint4_radial_1251_8930" cx="0" cy="0" r="1" gradientUnits="userSpaceOnUse" gradientTransform="translate(150.351 74.95) rotate(102.037) scale(69.5288 47.074)">
<stop stop-color="white" stop-opacity="0"/>
<stop offset="1" stop-color="white" stop-opacity="0.2"/>
</radialGradient>
<radialGradient id="paint5_radial_1251_8930" cx="0" cy="0" r="1" gradientUnits="userSpaceOnUse" gradientTransform="translate(68.8998 112.6) rotate(45.3951) scale(51.2665 108.897)">
<stop stop-color="white" stop-opacity="0.2"/>
<stop offset="1" stop-color="white" stop-opacity="0.4"/>
</radialGradient>
<radialGradient id="paint6_radial_1251_8930" cx="0" cy="0" r="1" gradientUnits="userSpaceOnUse" gradientTransform="translate(107.55 136.85) rotate(80.3803) scale(59.8415 127.328)">
<stop stop-color="white" stop-opacity="0.1"/>
<stop offset="1" stop-color="white" stop-opacity="0.3"/>
</radialGradient>
<radialGradient id="paint7_radial_1251_8930" cx="0" cy="0" r="1" gradientUnits="userSpaceOnUse" gradientTransform="translate(187.2 185.85) rotate(-152.314) scale(91.4727 288.064)">
<stop stop-color="white" stop-opacity="0.2"/>
<stop offset="0.5" stop-color="white" stop-opacity="0.2"/>
<stop offset="1" stop-color="white" stop-opacity="0.3"/>
</radialGradient>
<clipPath id="clip0_1251_8930">
<rect width="256" height="256" fill="white"/>
</clipPath>
<clipPath id="clip1_1251_8930">
<rect width="256" height="256" fill="white"/>
</clipPath>
</defs>
</svg>
