<svg width="256" height="256" viewBox="0 0 256 256" fill="none" xmlns="http://www.w3.org/2000/svg">
<rect width="256" height="256" fill="white"/>
<path d="M85 75.998L98 91.998H72L66 115.998H50L56 91.998H40L28 139.998H60L56 155.998H84L63 179.998H86.5L106 155.998H150L169.5 179.998H193L172 155.998H200L196 139.998H228L216 91.998H200L206 115.998H190L184 91.998H158L171 75.998H154L140 91.998H116L102 75.998H85ZM87 107.998H103V123.998H87V107.998ZM153.042 107.998H169.042V123.998H153.042V107.998Z" fill="black"/>
</svg>
