<svg width="256" height="256" viewBox="0 0 256 256" fill="none" xmlns="http://www.w3.org/2000/svg">
<g clip-path="url(#clip0_1251_8905)">
<rect width="256" height="256" fill="white"/>
<g clip-path="url(#clip1_1251_8905)">
<path d="M257 0H1V256H257V0Z" fill="white"/>
<mask id="mask0_1251_8905" style="mask-type:luminance" maskUnits="userSpaceOnUse" x="21" y="20" width="217" height="217">
<path d="M237.77 20.1599H21.1602V236.77H237.77V20.1599Z" fill="white"/>
</mask>
<g mask="url(#mask0_1251_8905)">
<path d="M129.461 43.6467C78.83 43.6467 37.7852 84.6915 37.7852 135.323C37.8034 156.711 45.299 177.419 58.9745 193.864C59.2385 193.422 59.5356 193.002 59.872 192.602C64.9902 186.523 70.7811 181.916 79.694 172.46C83.6562 168.257 86.3284 188.813 87.6909 187.431C89.0764 186.025 87.845 167.551 91.3592 161.616C97.6955 150.915 102.588 142.713 114.728 129.594C117.704 126.377 120.517 141.336 121.849 139.257C123.044 137.392 121.567 119.754 123.488 114.385C128.595 100.107 127.006 100.564 139.79 81.556C141.985 78.2923 146.586 89.8633 147.339 88.1753C148.072 86.5292 146.458 76.5297 146.636 71.6396C147.025 68.3441 150.406 57.9768 154.698 47.1922C146.492 44.8411 137.998 43.6475 129.462 43.646L129.461 43.6467ZM174.598 55.5278C180.422 119.971 155.32 181.808 108.899 224.652C115.643 226.206 122.542 226.992 129.462 226.994C180.094 226.994 221.139 185.949 221.139 135.317C221.138 102.276 203.358 71.7911 174.598 55.5232V55.5278Z" fill="url(#paint0_linear_1251_8905)"/>
<path d="M129.461 43.6467C78.83 43.6467 37.7852 84.6915 37.7852 135.323C37.8034 156.711 45.299 177.419 58.9745 193.864C59.2385 193.422 59.5356 193.002 59.872 192.602C64.9902 186.523 70.7811 181.916 79.694 172.46C83.6562 168.257 86.3284 188.813 87.6909 187.431C89.0764 186.025 87.845 167.551 91.3592 161.616C97.6955 150.915 102.588 142.713 114.728 129.594C117.704 126.377 120.517 141.336 121.849 139.257C123.044 137.392 121.567 119.754 123.488 114.385C128.595 100.107 127.006 100.564 139.79 81.556C141.985 78.2923 146.586 89.8633 147.339 88.1753C148.072 86.5292 146.458 76.5297 146.636 71.6396C147.025 68.3441 150.406 57.9768 154.698 47.1922C146.492 44.8411 137.998 43.6475 129.462 43.646L129.461 43.6467ZM174.598 55.5278C180.422 119.971 155.32 181.808 108.899 224.652C115.643 226.206 122.542 226.992 129.462 226.994C180.094 226.994 221.139 185.949 221.139 135.317C221.138 102.276 203.358 71.7911 174.598 55.5232V55.5278Z" fill="url(#paint1_linear_1251_8905)"/>
<path d="M168.293 20.1596C160.226 29.9926 147.419 65.0305 146.64 71.6385C146.462 76.5283 148.076 86.5275 147.343 88.1742C146.59 89.8622 141.989 78.2914 139.794 81.5551C127.01 100.563 128.599 100.106 123.492 114.384C121.571 119.753 123.047 137.391 121.853 139.256C120.521 141.335 117.707 126.377 114.732 129.593C102.592 142.713 97.6999 150.914 91.3628 161.615C87.8487 167.55 89.0803 186.024 87.6947 187.43C86.3322 188.813 83.6598 168.257 79.6977 172.459C70.7845 181.915 64.9939 186.522 59.8757 192.601C54.4373 199.061 59.057 210.998 54.5742 229.62L54.7257 229.851C135.753 177.217 160.939 96.8121 167.311 40.2841C166.599 107.17 136.541 189.665 57.1111 233.471L57.229 233.651C78.4059 231.369 80.5674 244.592 103.851 229.169C162.223 178.66 189.492 99.1323 168.292 20.1521L168.293 20.1596Z" fill="url(#paint2_linear_1251_8905)"/>
</g>
</g>
</g>
<defs>
<linearGradient id="paint0_linear_1251_8905" x1="72.426" y1="217.255" x2="175.443" y2="20.1598" gradientUnits="userSpaceOnUse">
<stop stop-color="#4F00DA"/>
<stop offset="1" stop-color="#E5311B"/>
</linearGradient>
<linearGradient id="paint1_linear_1251_8905" x1="84.6868" y1="217.014" x2="220.84" y2="59.6813" gradientUnits="userSpaceOnUse">
<stop stop-color="#72004E"/>
<stop offset="1" stop-color="#0015B1"/>
</linearGradient>
<linearGradient id="paint2_linear_1251_8905" x1="53.4032" y1="236.789" x2="179.999" y2="18.0868" gradientUnits="userSpaceOnUse">
<stop stop-color="#DC180D"/>
<stop offset="0.5" stop-color="#F96E20"/>
<stop offset="1" stop-color="#F4CE41"/>
</linearGradient>
<clipPath id="clip0_1251_8905">
<rect width="256" height="256" fill="white"/>
</clipPath>
<clipPath id="clip1_1251_8905">
<rect width="256" height="256" fill="white" transform="translate(1)"/>
</clipPath>
</defs>
</svg>
