<svg width="256" height="256" viewBox="0 0 256 256" fill="none" xmlns="http://www.w3.org/2000/svg">
<g clip-path="url(#clip0_1251_8922)">
<rect width="256" height="256" fill="white"/>
<g clip-path="url(#clip1_1251_8922)">
<path d="M256 0H0V256H256V0Z" fill="url(#paint0_linear_1251_8922)"/>
<g filter="url(#filter0_d_1251_8922)">
<path fill-rule="evenodd" clip-rule="evenodd" d="M209.9 102.8C209.9 112.078 202.378 119.6 193.1 119.6C185.272 119.6 178.694 114.246 176.829 107H153.373C149.267 107 145.763 109.969 145.088 114.019L144.397 118.162C143.742 122.095 141.752 125.519 138.938 128C141.752 130.481 143.742 133.905 144.397 137.838L145.088 141.981C145.763 146.031 149.267 149 153.373 149H160.029C161.894 141.754 168.472 136.4 176.3 136.4C185.578 136.4 193.1 143.922 193.1 153.2C193.1 162.478 185.578 170 176.3 170C168.472 170 161.894 164.646 160.029 157.4H153.373C145.161 157.4 138.152 151.463 136.802 143.362L136.111 139.219C135.436 135.169 131.932 132.2 127.826 132.2H120.974C118.877 139.088 112.473 144.1 104.9 144.1C97.3257 144.1 90.9226 139.088 88.8255 132.2H78.9738C76.8767 139.088 70.4734 144.1 62.8996 144.1C53.6212 144.1 46.0996 136.578 46.0996 127.3C46.0996 118.022 53.6212 110.5 62.8996 110.5C70.9778 110.5 77.7243 116.202 79.3346 123.8H88.4647C90.075 116.202 96.8215 110.5 104.9 110.5C112.978 110.5 119.724 116.202 121.335 123.8H127.826C131.932 123.8 135.436 120.831 136.111 116.781L136.802 112.638C138.152 104.537 145.161 98.6 153.373 98.6H176.829C178.694 91.3541 185.272 86 193.1 86C202.378 86 209.9 93.5216 209.9 102.8ZM201.5 102.8C201.5 107.439 197.739 111.2 193.1 111.2C188.46 111.2 184.7 107.439 184.7 102.8C184.7 98.1608 188.46 94.4 193.1 94.4C197.739 94.4 201.5 98.1608 201.5 102.8ZM62.8996 135.7C67.5389 135.7 71.2995 131.939 71.2995 127.3C71.2995 122.661 67.5389 118.9 62.8996 118.9C58.2604 118.9 54.4996 122.661 54.4996 127.3C54.4996 131.939 58.2604 135.7 62.8996 135.7ZM104.9 135.7C109.539 135.7 113.3 131.939 113.3 127.3C113.3 122.661 109.539 118.9 104.9 118.9C100.26 118.9 96.4995 122.661 96.4995 127.3C96.4995 131.939 100.26 135.7 104.9 135.7ZM176.3 161.6C180.939 161.6 184.7 157.839 184.7 153.2C184.7 148.561 180.939 144.8 176.3 144.8C171.66 144.8 167.9 148.561 167.9 153.2C167.9 157.839 171.66 161.6 176.3 161.6Z" fill="white"/>
</g>
</g>
</g>
<defs>
<filter id="filter0_d_1251_8922" x="12.0996" y="83" width="231.8" height="152" filterUnits="userSpaceOnUse" color-interpolation-filters="sRGB">
<feFlood flood-opacity="0" result="BackgroundImageFix"/>
<feColorMatrix in="SourceAlpha" type="matrix" values="0 0 0 0 0 0 0 0 0 0 0 0 0 0 0 0 0 0 127 0" result="hardAlpha"/>
<feOffset dy="31"/>
<feGaussianBlur stdDeviation="17"/>
<feComposite in2="hardAlpha" operator="out"/>
<feColorMatrix type="matrix" values="0 0 0 0 0 0 0 0 0 0 0 0 0 0 0 0 0 0 0.16 0"/>
<feBlend mode="normal" in2="BackgroundImageFix" result="effect1_dropShadow_1251_8922"/>
<feBlend mode="normal" in="SourceGraphic" in2="effect1_dropShadow_1251_8922" result="shape"/>
</filter>
<linearGradient id="paint0_linear_1251_8922" x1="0" y1="0" x2="256" y2="256" gradientUnits="userSpaceOnUse">
<stop stop-color="#F26587"/>
<stop offset="1" stop-color="#E23A62"/>
</linearGradient>
<clipPath id="clip0_1251_8922">
<rect width="256" height="256" fill="white"/>
</clipPath>
<clipPath id="clip1_1251_8922">
<rect width="256" height="256" fill="white"/>
</clipPath>
</defs>
</svg>
