<svg width="256" height="256" viewBox="0 0 256 256" fill="none" xmlns="http://www.w3.org/2000/svg">
<rect width="256" height="256" fill="white"/>
<path d="M175.852 173.508C177.102 163 176.75 161.477 184.563 163.156L186.555 163.312C192.57 163.586 200.422 162.336 205.07 160.187C215.031 155.578 220.93 147.883 211.125 149.875C188.742 154.484 187.219 146.906 187.219 146.906C210.852 111.867 220.734 67.375 212.18 56.4765C188.899 26.8281 148.625 40.8906 147.961 41.2421L147.766 41.2812C143.352 40.3828 138.391 39.7968 132.844 39.7187C122.727 39.5625 115.031 42.375 109.211 46.789C109.211 46.789 37.4141 17.2187 40.7735 83.9765C41.4766 98.1953 61.1251 191.477 84.5626 163.273C93.1173 152.961 101.398 144.25 101.398 144.25C105.5 146.984 110.422 148.391 115.578 147.883L115.969 147.531C115.852 148.82 115.891 150.07 116.125 151.555C110.07 158.312 111.867 159.484 99.7969 161.984C87.5704 164.484 94.7579 168.977 99.4454 170.148C105.109 171.555 118.274 173.586 127.141 161.164L126.789 162.57C129.172 164.484 129.016 176.203 129.328 184.562C129.68 192.922 130.227 200.773 131.945 205.383C133.664 209.992 135.656 221.867 151.516 218.469C164.797 215.617 174.914 211.555 175.852 173.508Z" fill="black" stroke="black" stroke-width="14.6075"/>
<path d="M211.086 149.914C188.703 154.523 187.18 146.945 187.18 146.945C210.812 111.906 220.695 67.4138 212.14 56.5154C188.898 26.8279 148.625 40.8904 147.961 41.2419L147.726 41.281C143.312 40.3826 138.351 39.8357 132.804 39.7185C122.687 39.5623 114.992 42.3748 109.172 46.7888C109.172 46.7888 37.3748 17.2185 40.7342 83.9763C41.4373 98.1951 61.0858 191.476 84.5233 163.273C93.0779 152.961 101.359 144.25 101.359 144.25C105.461 146.984 110.383 148.39 115.539 147.883L115.93 147.531C115.812 148.82 115.851 150.07 116.086 151.554C110.031 158.312 111.828 159.484 99.7576 161.984C87.5311 164.484 94.7186 168.976 99.4061 170.148C105.07 171.554 118.234 173.586 127.101 161.164L126.75 162.57C129.133 164.484 130.773 174.914 130.5 184.367C130.226 193.82 130.031 200.304 131.906 205.383C133.781 210.461 135.617 221.867 151.476 218.469C164.719 215.617 171.594 208.273 172.57 195.969C173.234 187.219 174.797 188.547 174.875 180.734L176.125 177.023C177.531 165.187 176.359 161.359 184.523 163.156L186.515 163.312C192.531 163.586 200.383 162.336 205.031 160.187C214.992 155.617 220.851 147.922 211.086 149.914Z" fill="#336791"/>
<path d="M128.117 156.711C127.492 178.742 128.273 200.93 130.422 206.281C132.57 211.672 137.18 222.141 153.078 218.742C166.32 215.891 171.164 210.383 173.234 198.273C174.758 189.328 177.765 164.523 178.117 159.445M109.094 46.3203C109.094 46.3203 37.2576 16.9453 40.578 83.7422C41.2811 97.961 60.9295 191.242 84.367 163.039C92.9217 152.727 100.695 144.641 100.695 144.641M147.883 40.9688C145.383 41.75 187.844 25.461 211.984 56.2813C220.5 67.1797 210.617 111.672 187.023 146.711" stroke="white" stroke-width="4.86918" stroke-linecap="round" stroke-linejoin="round"/>
<path d="M186.984 146.711C186.984 146.711 188.508 154.289 210.89 149.68C220.695 147.648 214.797 155.344 204.836 159.992C196.672 163.781 178.39 164.758 178.078 159.523C177.336 145.969 187.765 150.07 186.984 146.711ZM186.984 146.711C186.32 143.664 181.672 140.656 178.586 133.234C175.89 126.711 141.75 76.8281 188.039 84.2109C189.719 83.8593 175.969 40.1875 132.648 39.4843C89.3279 38.7812 90.7732 92.7656 90.7732 92.7656" stroke="white" stroke-width="4.86918" stroke-linecap="round" stroke-linejoin="bevel"/>
<path d="M115.969 151.321C109.914 158.078 111.711 159.25 99.6406 161.75C87.414 164.25 94.6015 168.742 99.289 169.914C104.953 171.321 118.117 173.352 126.984 160.93C129.68 157.141 126.984 151.125 123.273 149.563C121.477 148.781 119.055 147.844 115.969 151.321Z" stroke="white" stroke-width="4.86918" stroke-linecap="round" stroke-linejoin="round"/>
<path d="M115.578 151.203C114.953 147.219 116.867 142.531 118.937 136.984C122.023 128.703 129.133 120.422 123.43 94.1328C119.211 74.5625 90.7733 90.0703 90.7733 92.7265C90.7733 95.3828 92.0624 106.203 90.3045 118.781C87.9999 135.187 100.734 149.094 115.422 147.648" stroke="white" stroke-width="4.86918" stroke-linecap="round" stroke-linejoin="round"/>
<path d="M108.82 92.336C108.703 93.2344 110.5 95.6563 112.805 95.9688C115.148 96.2813 117.141 94.4063 117.258 93.5078C117.375 92.6094 115.617 91.5938 113.273 91.2813C110.93 90.9297 108.938 91.3985 108.82 92.336Z" fill="white" stroke="white" stroke-width="1.62305"/>
<path d="M179.719 90.461C179.836 91.3595 178.078 93.7813 175.734 94.0938C173.391 94.4063 171.398 92.5313 171.281 91.6329C171.164 90.7345 172.961 89.7188 175.266 89.4063C177.57 89.0938 179.602 89.5626 179.719 90.461Z" fill="white" stroke="white" stroke-width="0.811523"/>
<path d="M188.078 84.2109C188.469 91.3203 186.555 96.1641 186.32 103.742C185.969 114.758 191.555 127.336 183.117 139.953" stroke="white" stroke-width="4.86918" stroke-linecap="round" stroke-linejoin="round"/>
</svg>
