<svg width="256" height="256" viewBox="0 0 256 256" fill="none" xmlns="http://www.w3.org/2000/svg">
<rect width="256" height="256" fill="white"/>
<g clip-path="url(#clip0_1230_481)">
<path d="M227.995 145.445C227.613 121.94 210.613 103.313 190.293 104.152C187.316 104.285 184.511 102.409 183.08 99.385C174.265 80.6698 157.112 68.0017 137.403 68.0017C117.178 68.0017 99.6624 81.354 91.0573 100.82C88.5387 106.492 83.5397 105.741 81.4219 105.741C65.7381 105.741 52.4393 117.416 47.6311 133.66C46.8298 136.352 44.9218 138.382 42.594 139.331C33.8172 142.907 27.6353 152.728 28.0169 164.16C28.4748 177.799 38.5109 188.393 50.3023 188.393H190.865C211.281 188.393 228.395 169.06 227.995 145.445Z" fill="#9DC6FB"/>
<path d="M74.1905 164.16C73.8089 152.728 80.0099 142.907 88.7486 139.354C91.0764 138.405 92.9844 136.374 93.7857 133.682C98.5939 117.438 111.912 105.763 127.576 105.763C129.713 105.763 134.712 106.514 137.212 100.842C142.287 89.3433 150.472 80.0077 160.47 74.2475C153.506 70.2528 145.683 68.0017 137.384 68.0017C117.159 68.0017 99.6433 81.354 91.0382 100.82C88.5196 106.492 83.5207 105.741 81.4028 105.741C65.719 105.741 52.4202 117.416 47.6121 133.66C46.8107 136.352 44.9027 138.382 42.5749 139.331C33.8172 142.907 27.6353 152.728 28.0169 164.16C28.4748 177.799 38.5109 188.393 50.3023 188.393H96.476C84.6845 188.393 74.6484 177.799 74.1905 164.16Z" fill="#80B4FB"/>
<path d="M164.092 113.998L160.43 110.904C159.3 109.95 157.642 109.995 156.569 111.006L154.548 112.902C152.839 112.079 151.028 111.494 149.154 111.159L148.586 108.371C148.297 106.929 146.957 105.93 145.492 106.049L140.711 106.458C139.246 106.589 138.094 107.781 138.048 109.257L137.958 112.096C136.118 112.76 134.386 113.663 132.808 114.804L130.389 113.198C129.157 112.386 127.516 112.618 126.562 113.743L123.468 117.427C122.514 118.557 122.559 120.215 123.57 121.288L125.688 123.542C124.955 125.195 124.433 126.926 124.132 128.704L121.112 129.322C119.669 129.612 118.67 130.952 118.789 132.417L119.198 137.198C119.329 138.662 120.521 139.815 121.997 139.86L125.262 139.963C125.852 141.518 126.636 142.995 127.573 144.38L125.75 147.134C124.938 148.366 125.171 150.007 126.295 150.96L129.958 154.055C131.087 155.009 132.745 154.963 133.818 153.953L136.214 151.71C137.782 152.442 139.434 152.987 141.131 153.317L141.796 156.593C142.085 158.035 143.425 159.034 144.89 158.915L149.671 158.506C151.136 158.376 152.288 157.183 152.334 155.707L152.436 152.499C154.179 151.88 155.831 151.046 157.353 150.012L159.993 151.755C161.225 152.567 162.866 152.335 163.82 151.21L166.914 147.548C167.868 146.418 167.823 144.76 166.812 143.687L164.683 141.433C165.461 139.781 166.034 138.038 166.358 136.249L169.265 135.659C170.707 135.369 171.706 134.029 171.587 132.564L171.178 127.784C171.048 126.319 169.855 125.166 168.379 125.121L165.461 125.03C164.859 123.332 164.041 121.731 163.031 120.238L164.62 117.842C165.455 116.604 165.222 114.952 164.092 113.998ZM146.088 141.621C140.927 142.063 136.368 138.214 135.942 133.053C135.499 127.892 139.349 123.332 144.51 122.907C149.671 122.464 154.23 126.313 154.656 131.474C155.093 136.635 151.249 141.189 146.088 141.621Z" fill="#4D4D4D"/>
<path d="M87.0562 154.475C85.5913 154.628 84.4614 155.86 84.4501 157.337L84.416 160.278C84.3933 161.754 85.4834 163.009 86.9483 163.196L89.1115 163.474C89.4692 164.786 89.9859 166.046 90.6445 167.227L89.2478 168.948C88.3166 170.1 88.3848 171.747 89.4238 172.809L91.4792 174.915C92.5125 175.971 94.1648 176.09 95.3401 175.182L97.0718 173.848C98.2925 174.569 99.5814 175.137 100.933 175.534L101.165 177.765C101.319 179.23 102.551 180.36 104.027 180.371L106.968 180.405C108.444 180.428 109.699 179.338 109.887 177.873L110.153 175.755C111.618 175.398 113.015 174.847 114.338 174.126L115.967 175.437C117.12 176.369 118.767 176.3 119.828 175.261L121.935 173.206C122.991 172.173 123.11 170.52 122.202 169.345L120.958 167.727C121.725 166.449 122.321 165.087 122.724 163.656L124.654 163.457C126.119 163.304 127.249 162.072 127.261 160.596L127.295 157.655C127.317 156.178 126.227 154.924 124.762 154.736L122.877 154.492C122.52 153.073 121.98 151.704 121.288 150.421L122.463 148.979C123.394 147.826 123.326 146.18 122.287 145.118L120.231 143.012C119.733 142.5 119.064 142.191 118.352 142.141C117.64 142.092 116.934 142.307 116.371 142.745L114.962 143.824C113.64 143.023 112.22 142.404 110.733 141.99L110.545 140.167C110.392 138.702 109.16 137.572 107.684 137.561L104.742 137.527C103.266 137.504 102.011 138.594 101.824 140.059L101.591 141.87C100.058 142.268 98.5821 142.87 97.2081 143.659L95.7545 142.472C94.6019 141.541 92.9554 141.615 91.8936 142.648L89.7758 144.715C89.2646 145.213 88.9548 145.882 88.9056 146.594C88.8564 147.307 89.0712 148.012 89.509 148.576L90.7524 150.183C90.0313 151.46 89.4636 152.823 89.0888 154.254C89.0888 154.271 87.0562 154.475 87.0562 154.475ZM106.037 151.154C110.256 151.199 113.64 154.674 113.594 158.898C113.549 163.117 110.074 166.501 105.85 166.455C101.631 166.41 98.2471 162.935 98.2925 158.711C98.3436 154.486 101.818 151.108 106.037 151.154Z" fill="#4D4D4D"/>
</g>
<defs>
<clipPath id="clip0_1230_481">
<rect width="200" height="120.392" fill="white" transform="translate(28 68)"/>
</clipPath>
</defs>
</svg>
