<svg width="256" height="256" viewBox="0 0 256 256" fill="none" xmlns="http://www.w3.org/2000/svg">
<g clip-path="url(#clip0_1225_44)">
<mask id="mask0_1225_44" style="mask-type:luminance" maskUnits="userSpaceOnUse" x="0" y="0" width="256" height="256">
<path d="M256 0H0V256H256V0Z" fill="white"/>
</mask>
<g mask="url(#mask0_1225_44)">
<path d="M256 0H0V256H256V0Z" fill="url(#paint0_linear_1225_44)"/>
<path d="M167.581 118.926C166.952 116.12 166.017 113.434 164.827 110.883C163.501 108.027 161.852 105.34 159.914 102.875C157.908 100.324 155.614 98.029 153.064 96.0225C150.599 94.0842 147.914 92.435 145.058 91.1087C142.508 89.9185 139.822 89.0002 137.018 88.3542C134.111 87.6742 131.068 87.334 127.957 87.334C124.847 87.334 121.804 87.6742 118.897 88.3542C118.472 90.4457 118.064 92.639 117.707 94.9345C117.044 99.0152 116.501 103.419 116.076 108.163C115.872 110.543 115.702 113.026 115.566 115.593C115.362 119.521 115.243 123.652 115.243 128.005C115.243 132.358 115.362 136.473 115.566 140.417C119.492 140.621 123.623 140.74 127.975 140.74C132.326 140.74 136.44 140.621 140.383 140.417C142.933 140.281 145.415 140.111 147.794 139.907C152.554 139.482 156.957 138.938 161.036 138.275C163.331 137.901 165.524 137.51 167.615 137.085C168.278 134.177 168.635 131.134 168.635 128.022C168.635 124.911 168.295 121.867 167.615 118.96L167.581 118.926ZM155.801 115.848C154.764 116.001 153.761 116.256 152.775 116.596C151.007 117.208 149.375 118.109 147.896 119.249C144.208 122.054 141.556 126.271 140.791 130.811C140.791 130.896 140.706 130.93 140.655 130.913C140.604 130.913 140.553 130.862 140.553 130.811C139.346 123.074 133.091 117.038 125.544 115.831C125.408 115.814 125.408 115.61 125.544 115.593C126.071 115.508 126.58 115.406 127.09 115.27C131.34 114.199 135.029 111.563 137.493 108.061C138.292 106.938 138.955 105.731 139.482 104.439C139.992 103.198 140.366 101.889 140.57 100.545C140.587 100.409 140.791 100.409 140.808 100.545C141.267 103.47 142.457 106.139 144.14 108.418C145.109 109.727 146.231 110.883 147.505 111.886C149.885 113.774 152.724 115.083 155.801 115.61C155.937 115.627 155.937 115.831 155.801 115.848Z" fill="#F1F2F2"/>
<path d="M213 125.106L212.932 130.904C212.932 139.575 203.6 147.465 186.67 153.11C180.703 155.099 173.989 156.748 166.764 158.04C166.238 158.142 165.711 158.227 165.184 158.329C163.212 158.652 161.223 158.959 159.167 159.231C157.161 159.503 155.121 159.741 153.064 159.962C150.65 160.217 148.219 160.438 145.738 160.625C143.256 160.795 140.757 160.948 138.208 161.05C134.825 161.186 131.408 161.254 127.957 161.254C124.507 161.254 121.073 161.186 117.707 161.05C115.158 160.931 112.659 160.795 110.177 160.625C107.696 160.438 105.265 160.234 102.868 159.962C100.794 159.741 98.7715 159.503 96.7655 159.231C94.7258 158.959 92.72 158.652 90.7653 158.329C90.2213 158.244 89.6943 158.142 89.1675 158.04C81.943 156.765 75.2288 155.116 69.2623 153.11C52.332 147.465 43 139.575 43 130.904V125.072C43 116.4 52.332 108.511 69.2623 102.866C75.2288 100.876 81.943 99.2269 89.1675 97.9347C89.0825 98.6489 88.9975 99.3459 88.9125 100.077C88.4705 103.801 88.1305 107.592 87.8925 111.469C86.0228 111.843 84.2208 112.217 82.47 112.642C65.9818 116.519 55.0857 122.266 52.264 127.996C55.0857 133.726 65.9818 139.473 82.47 143.333C84.2208 143.741 86.0228 144.132 87.8925 144.506C88.9465 144.71 90.0173 144.914 91.1223 145.101C92.516 145.339 93.927 145.577 95.3717 145.781C99.5703 146.41 104.007 146.937 108.664 147.311C111.095 147.516 113.577 147.686 116.11 147.805C119.951 147.992 123.929 148.094 128.008 148.094C132.088 148.094 136.049 147.992 139.907 147.805C142.44 147.686 144.922 147.516 147.335 147.311C151.993 146.92 156.43 146.41 160.628 145.781C162.073 145.56 163.501 145.339 164.878 145.101C165.966 144.914 167.036 144.71 168.107 144.506C169.977 144.149 171.779 143.758 173.53 143.35C190.018 139.473 200.914 133.726 203.736 127.996C200.914 122.266 190.018 116.519 173.53 112.659C172 108.12 169.824 103.903 167.087 100.094C166.493 99.2609 165.881 98.4619 165.235 97.6797C165.762 97.7647 166.306 97.8667 166.833 97.9687C174.057 99.2439 180.771 100.893 186.738 102.9C203.668 108.545 213 116.434 213 125.106Z" fill="#F1F2F2"/>
<path d="M158.249 90.7445C157.467 90.0982 156.668 89.4863 155.835 88.8913C152.027 86.1538 147.794 83.9772 143.273 82.447C139.414 65.954 133.669 55.0552 127.94 52.2327C122.212 55.0552 116.467 65.954 112.608 82.447C112.183 84.1982 111.809 86.0008 111.435 87.871C111.231 88.9253 111.027 90.0133 110.84 91.1015C110.602 92.4958 110.364 93.907 110.16 95.3522C109.531 99.552 109.005 103.99 108.631 108.649C108.427 111.063 108.256 113.546 108.137 116.079C107.95 119.922 107.849 123.9 107.849 127.981C107.849 132.062 107.95 136.024 108.137 139.883C103.378 139.458 98.9755 138.914 94.913 138.251C94.777 134.867 94.709 131.45 94.709 127.998C94.709 124.547 94.777 121.112 94.913 117.745C95.032 115.195 95.168 112.695 95.3548 110.213C95.5248 107.73 95.7457 105.282 96.0007 102.902C96.2217 100.827 96.4598 98.787 96.7318 96.7805C97.0038 94.7403 97.3098 92.7338 97.6328 90.7785C97.7175 90.2515 97.8195 89.7073 97.9215 89.1803C99.1965 81.954 100.845 75.2378 102.851 69.2698C108.494 52.3348 116.382 43 125.051 43H130.881C139.551 43 147.438 52.3348 153.081 69.2698C155.07 75.2378 156.719 81.954 158.01 89.1803C158.112 89.7073 158.197 90.2515 158.299 90.7785L158.249 90.7445Z" fill="#F1F2F2"/>
<path d="M157.977 166.82C156.702 174.047 155.053 180.763 153.047 186.731C147.404 203.666 139.516 213 130.847 213H125.017C116.348 213 108.461 203.666 102.817 186.731C100.828 180.763 99.1795 174.047 97.8877 166.82C98.6015 166.905 99.2985 166.99 100.03 167.075C103.752 167.517 107.543 167.857 111.418 168.095C111.792 169.966 112.166 171.768 112.591 173.519C116.45 190.012 122.195 200.911 127.924 203.734C133.652 200.911 139.397 190.012 143.273 173.519C143.681 171.768 144.072 169.966 144.429 168.095C148.305 167.84 152.112 167.5 155.818 167.075C156.532 167.007 157.246 166.905 157.96 166.82H157.977Z" fill="#F1F2F2"/>
<path d="M192.436 0.148438H63.0305C28.3197 0.148438 0.181152 28.2872 0.181152 62.9979V192.404C0.181152 227.114 28.3197 255.253 63.0305 255.253H192.436C227.147 255.253 255.285 227.114 255.285 192.404V62.9979C255.285 28.2872 227.147 0.148438 192.436 0.148438Z" fill="url(#paint1_linear_1225_44)"/>
<g opacity="0.3" filter="url(#filter0_dddddd_1225_44)">
<path d="M169.634 118.585C168.975 115.645 167.995 112.83 166.748 110.157C165.358 107.163 163.63 104.347 161.6 101.764C159.497 99.0906 157.093 96.6851 154.42 94.5823C151.837 92.5508 149.022 90.8223 146.03 89.4323C143.357 88.1851 140.543 87.2228 137.603 86.5456C134.557 85.8328 131.368 85.4766 128.108 85.4766C124.848 85.4766 121.659 85.8328 118.613 86.5456C118.168 88.7373 117.74 91.0361 117.366 93.4418C116.671 97.7186 116.101 102.334 115.656 107.305C115.442 109.8 115.264 112.402 115.121 115.093C114.908 119.209 114.783 123.539 114.783 128.101C114.783 132.663 114.908 136.975 115.121 141.109C119.236 141.323 123.565 141.448 128.126 141.448C132.686 141.448 136.998 141.323 141.131 141.109C143.803 140.967 146.404 140.788 148.898 140.575C153.886 140.129 158.5 139.559 162.775 138.864C165.18 138.472 167.478 138.062 169.67 137.617C170.364 134.569 170.739 131.38 170.739 128.119C170.739 124.858 170.382 121.668 169.67 118.621L169.634 118.585ZM157.288 115.36C156.202 115.52 155.151 115.788 154.117 116.144C152.265 116.785 150.555 117.73 149.005 118.924C145.139 121.864 142.36 126.283 141.558 131.041C141.558 131.13 141.469 131.166 141.416 131.148C141.362 131.148 141.309 131.095 141.309 131.041C140.044 122.933 133.488 116.607 125.578 115.342C125.436 115.324 125.436 115.11 125.578 115.093C126.131 115.004 126.665 114.897 127.2 114.754C131.653 113.631 135.519 110.869 138.102 107.199C138.939 106.022 139.634 104.757 140.186 103.403C140.721 102.102 141.113 100.73 141.327 99.3223C141.344 99.1796 141.558 99.1796 141.576 99.3223C142.057 102.387 143.304 105.185 145.068 107.573C146.083 108.945 147.259 110.157 148.595 111.208C151.089 113.186 154.064 114.558 157.288 115.11C157.431 115.128 157.431 115.342 157.288 115.36Z" fill="url(#paint2_radial_1225_44)"/>
<path d="M217.235 125.061L217.164 131.138C217.164 140.226 207.383 148.494 189.64 154.41C183.387 156.495 176.35 158.224 168.779 159.578C168.227 159.685 167.675 159.774 167.122 159.881C165.056 160.219 162.972 160.54 160.816 160.825C158.714 161.11 156.576 161.36 154.421 161.591C151.891 161.859 149.343 162.09 146.742 162.286C144.142 162.465 141.523 162.625 138.851 162.732C135.305 162.874 131.725 162.946 128.108 162.946C124.492 162.946 120.893 162.874 117.366 162.732C114.694 162.607 112.075 162.465 109.474 162.286C106.873 162.09 104.326 161.877 101.814 161.591C99.6405 161.36 97.5205 161.11 95.4185 160.825C93.2808 160.54 91.1785 160.219 89.1298 159.881C88.5598 159.792 88.0075 159.685 87.4553 159.578C79.884 158.241 72.8473 156.513 66.5945 154.41C48.851 148.494 39.0708 140.226 39.0708 131.138V125.026C39.0708 115.938 48.851 107.669 66.5945 101.753C72.8473 99.6686 79.884 97.9401 87.4553 96.5856C87.3663 97.3341 87.2773 98.0646 87.188 98.8309C86.725 102.733 86.3685 106.707 86.1193 110.77C84.1595 111.162 82.2713 111.554 80.4363 112C63.1563 116.062 51.737 122.086 48.7798 128.091C51.737 134.096 63.1563 140.119 80.4363 144.164C82.2713 144.592 84.1595 145.001 86.1193 145.393C87.2238 145.607 88.346 145.821 89.504 146.017C90.9648 146.267 92.4435 146.516 93.9578 146.73C98.3578 147.389 103.008 147.942 107.889 148.334C110.436 148.548 113.037 148.726 115.692 148.85C119.718 149.047 123.886 149.153 128.162 149.153C132.437 149.153 136.588 149.047 140.632 148.85C143.286 148.726 145.887 148.548 148.417 148.334C153.298 147.924 157.948 147.389 162.348 146.73C163.862 146.498 165.359 146.267 166.802 146.017C167.942 145.821 169.064 145.607 170.187 145.393C172.146 145.019 174.034 144.609 175.869 144.182C193.15 140.119 204.569 134.096 207.526 128.091C204.569 122.086 193.15 116.062 175.869 112.017C174.266 107.26 171.986 102.84 169.118 98.8489C168.494 97.9756 167.853 97.1381 167.176 96.3184C167.728 96.4076 168.298 96.5144 168.85 96.6214C176.422 97.9579 183.458 99.6864 189.711 101.789C207.455 107.705 217.235 115.973 217.235 125.061Z" fill="url(#paint3_radial_1225_44)"/>
<path d="M159.854 89.0509C159.035 88.3737 158.197 87.7322 157.324 87.1084C153.334 84.2397 148.898 81.9587 144.159 80.3549C140.115 63.0699 134.094 51.6477 128.091 48.6897C122.087 51.6477 116.066 63.0699 112.022 80.3549C111.576 82.1904 111.185 84.0792 110.793 86.0394C110.579 87.1442 110.365 88.2847 110.169 89.4252C109.92 90.8862 109.67 92.3654 109.457 93.8799C108.797 98.2814 108.245 102.932 107.853 107.815C107.639 110.345 107.461 112.947 107.337 115.602C107.141 119.629 107.034 123.799 107.034 128.076C107.034 132.352 107.141 136.504 107.337 140.549C102.348 140.104 97.7345 139.534 93.4768 138.839C93.3343 135.293 93.263 131.711 93.263 128.093C93.263 124.476 93.3343 120.877 93.4768 117.348C93.6015 114.675 93.744 112.056 93.9398 109.454C94.118 106.853 94.3495 104.287 94.6168 101.792C94.8485 99.6179 95.0978 97.4794 95.3828 95.3769C95.668 93.2384 95.9885 91.1357 96.327 89.0864C96.416 88.5342 96.523 87.9639 96.63 87.4114C97.966 79.8382 99.694 72.7994 101.796 66.5447C107.711 48.7964 115.977 39.0137 125.062 39.0137H131.173C140.258 39.0137 148.524 48.7964 154.438 66.5447C156.523 72.7994 158.251 79.8382 159.605 87.4114C159.712 87.9639 159.801 88.5342 159.908 89.0864L159.854 89.0509Z" fill="url(#paint4_radial_1225_44)"/>
<path d="M159.569 168.779C158.233 176.353 156.505 183.391 154.403 189.646C148.488 207.394 140.222 217.177 131.137 217.177H125.027C115.941 217.177 107.675 207.394 101.761 189.646C99.6763 183.391 97.9483 176.353 96.5943 168.779C97.3425 168.868 98.073 168.958 98.839 169.047C102.741 169.51 106.713 169.866 110.775 170.116C111.167 172.076 111.559 173.965 112.004 175.8C116.048 193.085 122.069 204.508 128.073 207.466C134.076 204.508 140.098 193.085 144.16 175.8C144.587 173.965 144.997 172.076 145.371 170.116C149.433 169.849 153.423 169.492 157.307 169.047C158.055 168.975 158.803 168.868 159.551 168.779H159.569Z" fill="url(#paint5_radial_1225_44)"/>
</g>
<path d="M169.563 118.572C168.904 115.631 167.924 112.816 166.677 110.143C165.288 107.149 163.559 104.334 161.529 101.75C159.426 99.0771 157.022 96.6714 154.35 94.5686C151.766 92.5371 148.952 90.8086 145.959 89.4189C143.287 88.1714 140.472 87.2091 137.533 86.5321C134.486 85.8194 131.297 85.4629 128.037 85.4629C124.777 85.4629 121.588 85.8194 118.542 86.5321C118.097 88.7239 117.669 91.0226 117.295 93.4281C116.6 97.7049 116.03 102.32 115.585 107.292C115.371 109.787 115.193 112.388 115.05 115.079C114.836 119.195 114.712 123.525 114.712 128.087C114.712 132.649 114.836 136.961 115.05 141.096C119.165 141.309 123.494 141.434 128.055 141.434C132.615 141.434 136.927 141.309 141.06 141.096C143.732 140.953 146.333 140.775 148.827 140.561C153.815 140.115 158.429 139.545 162.704 138.85C165.109 138.458 167.408 138.048 169.599 137.603C170.294 134.556 170.667 131.366 170.667 128.105C170.667 124.844 170.311 121.654 169.599 118.607L169.563 118.572ZM157.217 115.346C156.131 115.507 155.08 115.774 154.046 116.13C152.194 116.772 150.484 117.716 148.934 118.91C145.068 121.85 142.289 126.27 141.487 131.027C141.487 131.117 141.398 131.152 141.345 131.134C141.291 131.134 141.238 131.081 141.238 131.027C139.973 122.92 133.417 116.594 125.507 115.328C125.365 115.311 125.365 115.097 125.507 115.079C126.06 114.99 126.594 114.883 127.129 114.74C131.582 113.618 135.448 110.856 138.031 107.185C138.868 106.009 139.563 104.744 140.115 103.389C140.65 102.089 141.042 100.716 141.256 99.3086C141.274 99.1661 141.487 99.1661 141.505 99.3086C141.986 102.374 143.233 105.171 144.997 107.559C146.012 108.931 147.188 110.143 148.524 111.194C151.018 113.172 153.993 114.544 157.217 115.097C157.36 115.115 157.36 115.328 157.217 115.346Z" fill="url(#paint6_radial_1225_44)"/>
<path d="M217.164 125.047L217.093 131.124C217.093 140.212 207.312 148.48 189.569 154.396C183.316 156.481 176.28 158.21 168.708 159.564C168.156 159.671 167.604 159.76 167.051 159.867C164.985 160.205 162.901 160.526 160.745 160.811C158.643 161.096 156.505 161.346 154.35 161.578C151.82 161.845 149.272 162.077 146.671 162.273C144.07 162.451 141.452 162.611 138.78 162.718C135.235 162.861 131.654 162.932 128.038 162.932C124.421 162.932 120.822 162.861 117.295 162.718C114.623 162.593 112.004 162.451 109.403 162.273C106.803 162.077 104.255 161.863 101.743 161.578C99.5697 161.346 97.4497 161.096 95.3477 160.811C93.21 160.526 91.1077 160.205 89.059 159.867C88.489 159.778 87.9367 159.671 87.3845 159.564C79.8132 158.228 72.7765 156.499 66.5235 154.396C48.7802 148.48 39 140.212 39 131.124V125.012C39 115.924 48.7802 107.656 66.5235 101.74C72.7765 99.6547 79.8132 97.9262 87.3845 96.5719C87.2955 97.3204 87.2062 98.0509 87.1172 98.8172C86.654 102.72 86.2978 106.693 86.0485 110.756C84.0888 111.148 82.2005 111.54 80.3655 111.986C63.0853 116.049 51.6662 122.072 48.709 128.077C51.6662 134.082 63.0853 140.105 80.3655 144.15C82.2005 144.578 84.0888 144.988 86.0485 145.38C87.153 145.593 88.2753 145.807 89.4333 146.003C90.894 146.253 92.3725 146.502 93.8867 146.716C98.287 147.375 102.937 147.928 107.818 148.32C110.365 148.534 112.966 148.712 115.621 148.837C119.647 149.033 123.816 149.14 128.091 149.14C132.367 149.14 136.517 149.033 140.561 148.837C143.215 148.712 145.816 148.534 148.346 148.32C153.227 147.91 157.877 147.375 162.277 146.716C163.792 146.484 165.288 146.253 166.731 146.003C167.871 145.807 168.993 145.593 170.115 145.38C172.075 145.005 173.963 144.596 175.798 144.168C193.078 140.105 204.498 134.082 207.455 128.077C204.498 122.072 193.078 116.049 175.798 112.004C174.195 107.246 171.915 102.827 169.047 98.8349C168.423 97.9619 167.782 97.1242 167.105 96.3047C167.657 96.3937 168.227 96.5007 168.779 96.6074C176.351 97.9439 183.388 99.6724 189.641 101.775C207.384 107.691 217.164 115.96 217.164 125.047Z" fill="url(#paint7_radial_1225_44)"/>
<path d="M159.783 89.0372C158.964 88.3602 158.126 87.7188 157.253 87.095C153.263 84.226 148.827 81.9452 144.089 80.3412C140.045 63.0565 134.023 51.634 128.02 48.676C122.016 51.634 115.995 63.0565 111.951 80.3412C111.505 82.1767 111.113 84.0657 110.722 86.0257C110.508 87.1307 110.294 88.271 110.098 89.4115C109.849 90.8727 109.599 92.3518 109.385 93.8665C108.726 98.2678 108.174 102.919 107.782 107.801C107.568 110.332 107.39 112.933 107.266 115.589C107.07 119.616 106.963 123.786 106.963 128.062C106.963 132.339 107.07 136.491 107.266 140.536C102.277 140.09 97.6635 139.52 93.406 138.825C93.2632 135.279 93.192 131.697 93.192 128.08C93.192 124.463 93.2632 120.863 93.406 117.335C93.5305 114.662 93.673 112.042 93.869 109.441C94.0473 106.839 94.2787 104.273 94.546 101.778C94.7775 99.6043 95.027 97.466 95.312 95.3633C95.597 93.225 95.9177 91.1222 96.2562 89.073C96.3452 88.5205 96.4522 87.9503 96.559 87.398C97.8952 79.8245 99.6233 72.786 101.725 66.5312C107.64 48.783 115.906 39 124.991 39H131.102C140.187 39 148.453 48.783 154.367 66.5312C156.452 72.786 158.18 79.8245 159.534 87.398C159.641 87.9503 159.73 88.5205 159.837 89.073L159.783 89.0372Z" fill="url(#paint8_radial_1225_44)"/>
<path d="M159.498 168.766C158.162 176.339 156.434 183.378 154.332 189.632C148.418 207.381 140.151 217.164 131.066 217.164H124.956C115.87 217.164 107.604 207.381 101.69 189.632C99.6055 183.378 97.8775 176.339 96.5235 168.766C97.2717 168.855 98.0022 168.944 98.7682 169.033C102.67 169.496 106.642 169.853 110.704 170.102C111.096 172.062 111.488 173.951 111.933 175.787C115.977 193.072 121.999 204.494 128.002 207.452C134.006 204.494 140.027 193.072 144.089 175.787C144.516 173.951 144.926 172.062 145.3 170.102C149.362 169.835 153.352 169.479 157.236 169.033C157.984 168.962 158.732 168.855 159.481 168.766H159.498Z" fill="url(#paint9_radial_1225_44)"/>
</g>
</g>
<defs>
<filter id="filter0_dddddd_1225_44" x="3.473" y="3.4159" width="249.36" height="249.359" filterUnits="userSpaceOnUse" color-interpolation-filters="sRGB">
<feFlood flood-opacity="0" result="BackgroundImageFix"/>
<feColorMatrix in="SourceAlpha" type="matrix" values="0 0 0 0 0 0 0 0 0 0 0 0 0 0 0 0 0 0 127 0" result="hardAlpha"/>
<feOffset/>
<feGaussianBlur stdDeviation="0.423781"/>
<feColorMatrix type="matrix" values="0 0 0 0 1 0 0 0 0 1 0 0 0 0 1 0 0 0 1 0"/>
<feBlend mode="normal" in2="BackgroundImageFix" result="effect1_dropShadow_1225_44"/>
<feColorMatrix in="SourceAlpha" type="matrix" values="0 0 0 0 0 0 0 0 0 0 0 0 0 0 0 0 0 0 127 0" result="hardAlpha"/>
<feOffset/>
<feGaussianBlur stdDeviation="0.847564"/>
<feColorMatrix type="matrix" values="0 0 0 0 1 0 0 0 0 1 0 0 0 0 1 0 0 0 1 0"/>
<feBlend mode="normal" in2="effect1_dropShadow_1225_44" result="effect2_dropShadow_1225_44"/>
<feColorMatrix in="SourceAlpha" type="matrix" values="0 0 0 0 0 0 0 0 0 0 0 0 0 0 0 0 0 0 127 0" result="hardAlpha"/>
<feOffset/>
<feGaussianBlur stdDeviation="2.96647"/>
<feColorMatrix type="matrix" values="0 0 0 0 1 0 0 0 0 1 0 0 0 0 1 0 0 0 1 0"/>
<feBlend mode="normal" in2="effect2_dropShadow_1225_44" result="effect3_dropShadow_1225_44"/>
<feColorMatrix in="SourceAlpha" type="matrix" values="0 0 0 0 0 0 0 0 0 0 0 0 0 0 0 0 0 0 127 0" result="hardAlpha"/>
<feOffset/>
<feGaussianBlur stdDeviation="5.93295"/>
<feColorMatrix type="matrix" values="0 0 0 0 0.890196 0 0 0 0 0.890196 0 0 0 0 0.890196 0 0 0 1 0"/>
<feBlend mode="normal" in2="effect3_dropShadow_1225_44" result="effect4_dropShadow_1225_44"/>
<feColorMatrix in="SourceAlpha" type="matrix" values="0 0 0 0 0 0 0 0 0 0 0 0 0 0 0 0 0 0 127 0" result="hardAlpha"/>
<feOffset/>
<feGaussianBlur stdDeviation="10.1708"/>
<feColorMatrix type="matrix" values="0 0 0 0 0.890196 0 0 0 0 0.890196 0 0 0 0 0.890196 0 0 0 1 0"/>
<feBlend mode="normal" in2="effect4_dropShadow_1225_44" result="effect5_dropShadow_1225_44"/>
<feColorMatrix in="SourceAlpha" type="matrix" values="0 0 0 0 0 0 0 0 0 0 0 0 0 0 0 0 0 0 127 0" result="hardAlpha"/>
<feOffset/>
<feGaussianBlur stdDeviation="17.7989"/>
<feColorMatrix type="matrix" values="0 0 0 0 0.890196 0 0 0 0 0.890196 0 0 0 0 0.890196 0 0 0 1 0"/>
<feBlend mode="normal" in2="effect5_dropShadow_1225_44" result="effect6_dropShadow_1225_44"/>
<feBlend mode="normal" in="SourceGraphic" in2="effect6_dropShadow_1225_44" result="shape"/>
</filter>
<linearGradient id="paint0_linear_1225_44" x1="203.859" y1="259.39" x2="52.1418" y2="-3.39126" gradientUnits="userSpaceOnUse">
<stop stop-color="#2F2F2F"/>
<stop offset="0.34" stop-color="#292929"/>
<stop offset="0.72" stop-color="#232121"/>
<stop offset="1" stop-color="#191919"/>
</linearGradient>
<linearGradient id="paint1_linear_1225_44" x1="203.327" y1="258.633" x2="52.1405" y2="-3.23095" gradientUnits="userSpaceOnUse">
<stop stop-color="#2F2F2F"/>
<stop offset="0.34" stop-color="#292929"/>
<stop offset="0.72" stop-color="#232121"/>
<stop offset="1" stop-color="#191919"/>
</linearGradient>
<radialGradient id="paint2_radial_1225_44" cx="0" cy="0" r="1" gradientUnits="userSpaceOnUse" gradientTransform="translate(141.5 114.626) rotate(173.307) scale(96.5327 116.135)">
<stop offset="0.0259528" stop-color="white"/>
<stop offset="1" stop-color="#E0E0E0"/>
</radialGradient>
<radialGradient id="paint3_radial_1225_44" cx="0" cy="0" r="1" gradientUnits="userSpaceOnUse" gradientTransform="translate(141.5 114.626) rotate(173.307) scale(96.5327 116.134)">
<stop offset="0.0259528" stop-color="white"/>
<stop offset="1" stop-color="#E0E0E0"/>
</radialGradient>
<radialGradient id="paint4_radial_1225_44" cx="0" cy="0" r="1" gradientUnits="userSpaceOnUse" gradientTransform="translate(141.5 114.626) rotate(173.307) scale(96.5328 116.134)">
<stop offset="0.0259528" stop-color="white"/>
<stop offset="1" stop-color="#E0E0E0"/>
</radialGradient>
<radialGradient id="paint5_radial_1225_44" cx="0" cy="0" r="1" gradientUnits="userSpaceOnUse" gradientTransform="translate(141.5 114.626) rotate(173.307) scale(96.5328 116.134)">
<stop offset="0.0259528" stop-color="white"/>
<stop offset="1" stop-color="#E0E0E0"/>
</radialGradient>
<radialGradient id="paint6_radial_1225_44" cx="0" cy="0" r="1" gradientUnits="userSpaceOnUse" gradientTransform="translate(141.429 114.612) rotate(173.307) scale(96.5327 116.134)">
<stop offset="0.0259528" stop-color="white"/>
<stop offset="1" stop-color="#E0E0E0"/>
</radialGradient>
<radialGradient id="paint7_radial_1225_44" cx="0" cy="0" r="1" gradientUnits="userSpaceOnUse" gradientTransform="translate(141.429 114.612) rotate(173.307) scale(96.5327 116.135)">
<stop offset="0.0259528" stop-color="white"/>
<stop offset="1" stop-color="#E0E0E0"/>
</radialGradient>
<radialGradient id="paint8_radial_1225_44" cx="0" cy="0" r="1" gradientUnits="userSpaceOnUse" gradientTransform="translate(141.429 114.612) rotate(173.307) scale(96.5328 116.134)">
<stop offset="0.0259528" stop-color="white"/>
<stop offset="1" stop-color="#E0E0E0"/>
</radialGradient>
<radialGradient id="paint9_radial_1225_44" cx="0" cy="0" r="1" gradientUnits="userSpaceOnUse" gradientTransform="translate(141.429 114.612) rotate(173.307) scale(96.5328 116.134)">
<stop offset="0.0259528" stop-color="white"/>
<stop offset="1" stop-color="#E0E0E0"/>
</radialGradient>
<clipPath id="clip0_1225_44">
<rect width="256" height="256" fill="white"/>
</clipPath>
</defs>
</svg>
