<svg width="256" height="256" viewBox="0 0 256 256" fill="none" xmlns="http://www.w3.org/2000/svg">
<rect width="256" height="256" fill="white"/>
<path opacity="0.998" fill-rule="evenodd" clip-rule="evenodd" d="M213.84 177.121C211.738 175.515 209.524 174.05 207.199 172.727C205.437 171.812 203.614 171.063 201.73 170.48C201.016 150.222 192.227 134.565 175.363 123.508C159.797 114.221 143.261 112.008 125.754 116.867C109.983 121.868 98.232 131.666 90.5 146.262C82.4111 138.511 73.0688 136.525 62.4727 140.305C53.7711 144.198 48.7906 150.871 47.5313 160.324C47.401 161.952 47.401 163.579 47.5313 165.207C47.9377 167.614 48.5236 169.958 49.2891 172.238C46.6501 173.604 44.2086 175.232 41.9649 177.121C35.3657 165.82 31.2315 153.646 29.5625 140.598C26.1608 109.398 35.0149 82.315 56.125 59.3477C75.7854 39.3833 99.7111 29.162 127.902 28.6836C160.612 29.4626 187.012 42.6136 207.102 68.1367C225.525 93.7082 231.125 121.898 223.898 152.707C221.665 161.334 218.312 169.472 213.84 177.121Z" fill="#5DC76C"/>
<path opacity="0.999" fill-rule="evenodd" clip-rule="evenodd" d="M213.84 177.121C213.406 178.053 212.918 178.965 212.375 179.856C211.263 181.694 210.058 183.452 208.762 185.129C206.897 183.642 204.814 182.503 202.512 181.711C199.539 180.922 196.577 180.108 193.625 179.27C194.799 168.018 192.325 157.666 186.203 148.215C178.067 136.052 166.901 128.077 152.707 124.289C137.436 121.665 123.764 125.181 111.691 134.836C108.462 137.48 105.564 140.442 103 143.723C99.6299 148.493 96.1467 153.18 92.5508 157.785C88.5732 155.207 84.7322 152.44 81.0273 149.484C74.5719 145.638 68.3871 146.029 62.4727 150.656C59.1279 153.538 57.0771 157.151 56.3203 161.496C56.1187 163.296 56.3141 165.054 56.9062 166.77C58.1434 169.668 59.2826 172.598 60.3242 175.559C54.9762 177.353 50.3537 180.283 46.457 184.348C44.7291 182.095 43.2317 179.687 41.9648 177.121C44.2086 175.232 46.65 173.604 49.2891 172.238C48.5236 169.958 47.9377 167.614 47.5312 165.207C47.401 163.58 47.401 161.952 47.5312 160.324C48.7906 150.872 53.7711 144.198 62.4727 140.305C73.0688 136.525 82.4111 138.511 90.5 146.262C98.232 131.666 109.983 121.868 125.754 116.867C143.261 112.008 159.797 114.221 175.363 123.508C192.227 134.565 201.016 150.223 201.73 170.481C203.614 171.064 205.437 171.812 207.199 172.727C209.524 174.05 211.738 175.515 213.84 177.121Z" fill="#FEFEFE"/>
<path opacity="0.998" fill-rule="evenodd" clip-rule="evenodd" d="M208.762 185.129C194.17 205.462 174.639 218.581 150.168 224.484C147.005 225.207 143.815 225.76 140.598 226.144C148.255 217.441 155.938 208.75 163.645 200.07C157.72 199.973 151.796 199.94 145.871 199.973C145.871 186.431 145.871 172.889 145.871 159.348C133.892 159.348 121.913 159.348 109.934 159.348C109.934 172.824 109.934 186.301 109.934 199.777C103.878 199.712 97.8229 199.777 91.7695 199.973C91.7938 200.091 91.8588 200.156 91.9648 200.168C99.6416 208.822 107.324 217.481 115.012 226.144C90.2324 222.593 69.5617 211.526 53 192.941C50.627 190.212 48.4459 187.347 46.457 184.348C50.3537 180.283 54.9762 177.353 60.3242 175.559C59.2826 172.597 58.1434 169.668 56.9062 166.769C56.3141 165.054 56.1187 163.296 56.3203 161.496C57.0771 157.151 59.1279 153.537 62.4727 150.656C68.3871 146.029 74.5719 145.638 81.0273 149.484C84.7322 152.44 88.5732 155.207 92.5508 157.785C96.1467 153.18 99.6299 148.493 103 143.723C105.564 140.442 108.462 137.48 111.691 134.836C123.764 125.181 137.436 121.665 152.707 124.289C166.901 128.077 178.067 136.052 186.203 148.215C192.325 157.666 194.799 168.018 193.625 179.269C196.577 180.108 199.539 180.921 202.512 181.711C204.814 182.503 206.897 183.642 208.762 185.129Z" fill="#5DC76C"/>
<path opacity="0.999" fill-rule="evenodd" clip-rule="evenodd" d="M140.598 226.145C132.07 227.184 123.541 227.184 115.012 226.145C107.324 217.481 99.6416 208.822 91.9648 200.168C97.9545 200.038 103.944 199.908 109.934 199.777C109.934 186.301 109.934 172.824 109.934 159.348C121.913 159.348 133.892 159.348 145.871 159.348C145.871 172.889 145.871 186.431 145.871 199.973C151.796 199.94 157.72 199.973 163.645 200.07C155.938 208.75 148.255 217.441 140.598 226.145Z" fill="#FEFEFE"/>
<path fill-rule="evenodd" clip-rule="evenodd" d="M109.934 199.777C103.944 199.908 97.9545 200.038 91.9648 200.168C91.8588 200.156 91.7937 200.091 91.7695 199.973C97.8229 199.777 103.878 199.712 109.934 199.777Z" fill="#ADE2B5"/>
</svg>
