<?xml version="1.0" encoding="UTF-8" standalone="no"?>
<!DOCTYPE svg PUBLIC "-//W3C//DTD SVG 1.1//EN" "http://www.w3.org/Graphics/SVG/1.1/DTD/svg11.dtd">
<svg width="100%" height="100%" viewBox="0 0 512 512" version="1.1" xmlns="http://www.w3.org/2000/svg" xmlns:xlink="http://www.w3.org/1999/xlink" xml:space="preserve" xmlns:serif="http://www.serif.com/" style="fill-rule:evenodd;clip-rule:evenodd;stroke-linejoin:round;stroke-miterlimit:2;">
    <g transform="matrix(1.45236,0,0,1.45236,-539.05,-294.349)">
        <path d="M559.7,387C559.7,384.5 559.7,384.5 557.2,384.3C552.9,383.9 548.5,383.3 544.2,383C541.6,382.8 539,382 536.5,383.2C533.2,384.8 529.9,386.4 526.6,387.9C526,388.2 525.5,388.6 525.5,389.3C525.5,390.8 525.5,392.2 525.6,393.7C525.6,394.5 525.9,395.2 527,395.3C527.8,395.4 528.2,395.8 528.2,396.7L528.2,415.1C537.8,411.7 547.6,408.8 557.3,405.7C559.3,405 559.8,404.5 559.8,402.4C559.8,397.2 559.8,392.1 559.7,387ZM535.7,398.6C535.6,399.7 534.5,399.7 533.8,399.7C532.9,399.7 533.3,398.8 533.3,398.3C533.2,397.8 533.3,397.3 533.3,396.9L533.3,395.2C533.3,394.2 534.4,393.3 535.3,393.4C535.7,393.4 535.6,393.7 535.6,393.9C536,395.5 535.9,397.1 535.7,398.6ZM549.2,398.5C548.2,398.9 547,398.6 545.9,398.4C545.6,398.3 545.3,398.2 545.3,397.9C545.1,396.5 545.1,395.1 545.3,393.7C545.3,393.4 545.6,393.3 545.8,393.2L546.2,393.2C549,393 549.5,393.3 549.5,396.3C549.3,397 549.9,398.2 549.2,398.5ZM553.7,399.1C553.5,399 553.2,398.8 553.2,398.6C553,397.2 553,395.8 553.2,394.4C553.3,394 553.6,393.7 554.1,393.8C555,393.9 555.8,394 556.7,394.1C557.1,394.2 557.3,394.6 557.3,395L557.3,396.7C557.3,399.4 556.2,400.2 553.7,399.1Z" style="fill:rgb(109,40,217);fill-rule:nonzero;"/>
        <path d="M522.4,422.9C522.4,421.1 523.4,420.5 524.8,420C530,418.2 535.2,416.3 540.5,414.6C546.7,412.6 552.9,410.7 559.1,408.7C561.8,407.8 563.5,406 564.1,403.2C564.4,401.5 565.5,400.4 567.2,399.8C580.5,395.3 593.9,391.4 607.8,389.4C614.4,388.4 621,388.5 627.6,388.9C630.1,389.1 632.5,389.3 634.9,389.9C637.6,390.6 637.7,390.8 636.9,393.4C635.1,399.6 632.3,405.3 629,410.8C625.7,416.2 622,421.3 619.1,426.9C617.7,429.5 616.5,432.2 615.7,435.1C615.5,435.8 615.4,436.3 614.6,435.7C611.5,433.4 607.9,432.8 604.2,432.5C593.7,431.7 583.6,434 573.5,436.9C565.5,439.2 557.6,442 549.3,443.3C543.5,444.2 537.7,444.5 531.9,443.2C530.8,442.9 530,442.4 529.4,441.4C526.2,435.8 523.7,430 522.6,423.7C522.5,423.5 522.4,423.1 522.4,422.9Z" style="fill:rgb(109,40,217);fill-rule:nonzero;"/>
        <path d="M614.2,449.5C613.8,451.7 613.3,453.9 612.8,456C612.7,456.3 612.7,456.7 612.7,457C610.6,459.9 607,462 602.7,463L595.8,463C593.1,463 590.5,462.5 588,461.7L587.9,461.7C585.9,461 583.9,460.6 581.8,460.5C576.5,460.2 571.3,461.3 566,462.1C560.7,462.9 555.3,463.6 549.9,463.4C541.5,463.1 533.4,461.4 526.1,457.1C521.1,454.1 517.4,449.9 515,444.6C514.8,444.1 514.6,443.6 514.4,443.1L514.4,442.7C514.6,442.5 514.8,442.6 515,442.8C520.3,447.2 526.6,449.1 533.3,450C546.4,451.7 558.7,448.5 570.8,444C577,441.7 583.2,439.4 589.7,438.3C595.1,437.3 600.5,437 605.9,438.1C607.8,438.5 609.6,439.1 611.1,440.3C611.9,440.9 612.5,441.5 613,442.1C614.6,444.1 614.7,446.7 614.2,449.5Z" style="fill:rgb(109,40,217);fill-rule:nonzero;"/>
        <path d="M562.6,387.7L562.6,379.8C562.6,378.7 562.9,378 564.1,377.8C567.7,377 571.3,376.2 574.9,375.3C576,375 576.4,375.4 576.4,376.5L576.4,391.5C576.4,392.4 576.1,392.9 575.2,393.2C571.5,394.4 567.8,395.6 564.1,396.9C562.9,397.3 562.5,397 562.5,395.7C562.6,393.1 562.6,390.4 562.6,387.7Z" style="fill:rgb(109,40,217);fill-rule:nonzero;"/>
        <path d="M578.6,365L578.6,359.6C578.6,358.4 578.9,357.8 580.3,358C584.4,358.5 588.4,359.1 592.4,359.8C593.3,359.9 593.6,360.4 593.6,361.3L593.6,372.8C593.6,373.9 593.1,374.2 592,374.1C588.1,373.5 584.2,373 580.3,372.5C579,372.3 578.5,371.8 578.5,370.4C578.7,368.6 578.6,366.8 578.6,365Z" style="fill:rgb(109,40,217);fill-rule:nonzero;"/>
        <path d="M578.6,390.3L578.6,376.6C578.6,375.7 579,375.2 579.9,375.3C584.1,375.8 588.4,376.4 592.6,376.9C593.5,377 593.8,377.4 593.8,378.3L593.8,387C593.8,387.8 593.5,388.2 592.7,388.4C588.6,389.5 584.4,390.6 580.3,391.6C578.8,392 578.6,391.9 578.6,390.3Z" style="fill:rgb(109,40,217);fill-rule:nonzero;"/>
        <path d="M562.6,368.5L562.6,362.8C562.6,361.9 562.9,361.5 563.8,361.2C567.3,360.3 570.8,359.3 574.3,358.4C576,358 576.1,358.1 576.1,359.9C576.1,363.4 576,366.9 576.3,370.4C576.4,371.7 576,372.3 574.6,372.6C571.1,373.4 567.7,374.3 564.3,375.1C562.7,375.5 562.5,375.4 562.5,373.7C562.6,372 562.6,370.2 562.6,368.5Z" style="fill:rgb(109,40,217);fill-rule:nonzero;"/>
        <path d="M596.1,373.4L596.1,361.9C596.1,361 596.4,360.6 597.4,360.7C601,361.2 604.5,361.9 608,362.7C608.7,362.9 609.1,363.3 609,364C608.9,367.7 608.8,371.5 608.7,375.2C608.7,376 608.2,376.3 607.5,376.2C604,375.7 600.5,375.3 597,374.8C596.1,374.7 596.1,374 596.1,373.4Z" style="fill:rgb(109,40,217);fill-rule:nonzero;"/>
        <path d="M552.4,374.6L552.4,379.7C552.4,380.6 552.1,381.1 551.1,381C548.6,380.8 546.1,380.6 543.6,380.4C543,380.4 542.8,380 542.7,379.4C542.3,376.1 542.5,372.7 542.5,369.4C542.5,368.5 543.1,368.1 543.8,367.9C546.3,367.2 548.9,367.3 551.4,367.9C552.2,368.1 552.3,368.8 552.3,369.5C552.4,371.2 552.4,372.9 552.4,374.6Z" style="fill:rgb(109,40,217);fill-rule:nonzero;"/>
        <path d="M596.4,382.7L596.4,379.1C596.4,378.1 596.8,377.5 597.9,377.7C601.3,378.2 604.7,378.7 608.1,379.1C608.8,379.2 609,379.5 609.1,380.2L609.1,380.5C609.4,385.3 609.4,385.2 604.7,386.1C602.4,386.5 600.1,387 597.9,387.5C596.8,387.7 596.5,387.4 596.5,386.4C596.4,385.1 596.4,383.9 596.4,382.7Z" style="fill:rgb(109,40,217);fill-rule:nonzero;"/>
        <path d="M614.4,452.9C614.2,454.4 613.5,455.8 612.6,457C610.5,459.9 606.9,462 602.6,463C598.2,464 593,463.8 588,461.7L587.9,461.7C575.6,456.7 567.6,456.7 566.4,456.7C565.2,456.7 581.9,450.3 581.9,450.3L589.6,449.1L613,441.9C613.2,442.1 615.8,444.5 614.4,452.9Z" style="fill:rgb(109,40,217);fill-rule:nonzero;"/>
        <path d="M580.2,346.3C580.9,346.3 581.4,345.6 581.1,345C579.1,339.7 576.9,334.5 574.8,329.2C570.1,317.7 565.4,306.1 560.8,294.5C560.2,293.1 559.5,292.6 557.3,293C548.6,294.3 539.7,293.7 530.9,292.9C529.4,292.8 528.7,293.2 528.2,294.3C526.9,297.6 525.5,300.9 524.1,304.3C518.4,318.5 512.8,332.6 507.1,346.8C501.2,361.5 495.2,376.1 489.3,390.8C483.1,406.2 477.3,421.7 470.8,436.9C468.4,442.6 462.1,456.1 459.4,461.7C458.8,462.9 458.2,464 457.5,465L489.3,465C489.4,464.5 489.5,464.1 489.7,463.6C491.3,459 494.3,451.8 497.2,445.1L513,405.8C513,405.5 513.1,405.1 513.3,404.6C513.4,404.3 513.5,404 513.7,403.6C516.1,397.6 518.4,391.7 520.8,385.7C527.4,368.9 533.9,352.1 540.5,335.4C541.6,332.7 542.7,330 543.8,327.2C544.4,327.7 544.5,328.3 544.7,328.7C546.9,334.3 549.1,340 551.2,345.6C551.3,346 551.7,346.2 552.1,346.2L580.2,346.2L580.2,346.3Z" style="fill:rgb(109,40,217);fill-rule:nonzero;"/>
        <path d="M531,292.9L557.3,292.9L558.5,297.2L558.5,298.5L549.5,303.6L542.7,305.8L539.2,307.2L531,292.9Z" style="fill:rgb(109,40,217);fill-rule:nonzero;"/>
    </g>
</svg>
