<svg width="256" height="256" viewBox="0 0 256 256" fill="none" xmlns="http://www.w3.org/2000/svg">
<rect width="256" height="256" fill="white"/>
<g clip-path="url(#clip0_1251_8936)">
<path d="M107.92 38.028C107.776 38.0632 107.034 38.1897 106.292 38.2987C100.895 39.1671 94.7605 42.173 89.5432 46.5184C87.7854 47.9845 84.2381 51.6408 82.6279 53.6342C79.3512 57.7089 72.4886 67.936 70.01 72.4256C69.8483 72.7139 69.5389 73.2588 69.321 73.6033C68.7971 74.5069 67.0744 77.569 66.0619 79.4886C64.6486 82.1324 60.8482 89.9161 60.8482 90.1693C60.8482 90.2044 60.5599 90.8759 60.1977 91.6529C59.8356 92.4299 59.3821 93.4635 59.1852 93.9697C59.0059 94.4584 58.7317 95.1088 58.6051 95.4182C57.8457 97.1022 55.9262 102.281 54.875 105.466C54.2949 107.241 53.082 111.116 52.973 111.587C52.9203 111.749 52.6109 112.944 52.2488 114.248C51.9042 115.535 51.5773 116.766 51.5245 116.962C51.0886 118.738 50.6562 120.601 50.4558 121.578C49.8933 124.205 49.4608 126.413 49.3518 127.19C49.2991 127.643 49.2077 128.132 49.1725 128.276C49.0811 128.585 48.9721 129.271 48.8104 130.357C48.7577 130.754 48.6311 131.535 48.5397 132.076C48.4483 132.618 48.3217 133.525 48.269 134.066C48.1952 134.608 48.1249 135.262 48.0897 135.515C48.0545 135.768 47.9631 136.492 47.8893 137.142C47.8155 137.793 47.7452 138.517 47.71 138.77C47.6748 139.023 47.601 139.892 47.5483 140.725C47.4745 141.541 47.4041 142.353 47.369 142.536C46.9155 144.979 46.8979 164.586 47.369 167.015C47.4041 167.159 47.478 168.102 47.5483 169.097C47.6221 170.092 47.71 170.942 47.7276 170.999C47.7627 171.051 47.8366 171.631 47.8893 172.285C47.9631 172.918 48.0334 173.642 48.0897 173.878C48.1249 174.113 48.2163 174.764 48.2901 175.326C48.3428 175.889 48.4342 176.395 48.4694 176.448C48.487 176.501 48.5784 176.954 48.6311 177.443C48.7049 177.932 48.9194 179.053 49.1198 179.96C49.3202 180.846 49.5171 181.771 49.5557 182.006C50.1534 185.082 51.637 189.829 53.1031 193.358C59.0235 207.534 67.6053 215.43 78.7571 216.878C79.861 217.023 83.1763 217.023 84.5334 216.896C85.458 216.787 87.8663 216.333 89.0967 216.01C89.3499 215.936 91.287 215.268 92.5914 214.78L93.0976 214.6L92.0113 213.479C90.6366 212.083 89.6206 210.782 87.81 208.082C87.033 206.922 86.3264 205.927 86.235 205.874C86.1436 205.822 85.5107 205.695 84.8217 205.586C84.1326 205.477 83.338 205.35 83.0287 205.298C81.9247 205.118 79.4602 204.159 78.1032 203.396C75.4418 201.895 72.9246 198.924 71.2581 195.355C70.2245 193.109 68.5792 188.313 68.1995 186.394C68.1467 186.141 67.9112 184.963 67.658 183.768C67.4225 182.572 67.1694 181.141 67.1166 180.582C67.0428 180.02 66.9725 179.405 66.9373 179.225C66.8459 178.754 66.628 176.293 66.5401 174.827C66.2869 170.193 66.2307 168.165 66.2307 163.855C66.2307 159.544 66.3748 154.985 66.5576 153.083C66.5928 152.738 66.6666 151.726 66.7369 150.857C66.7897 149.971 66.8811 148.994 66.9162 148.684C66.9514 148.358 67.0252 147.581 67.0955 146.927C67.1483 146.276 67.2397 145.552 67.2748 145.299C67.31 145.046 67.3838 144.322 67.4541 143.671C67.5069 143.021 67.5983 142.367 67.6334 142.223C67.6686 142.078 67.76 141.59 67.8127 141.136C67.8655 140.683 67.992 139.871 68.0835 139.326C68.1749 138.781 68.3014 137.969 68.3542 137.515C68.4069 137.062 68.4983 136.573 68.5335 136.429C68.5686 136.285 68.6424 135.831 68.7128 135.434C68.7655 135.037 68.8393 134.583 68.8921 134.439C68.9272 134.295 69.001 133.876 69.0538 133.535C69.1065 133.194 69.3069 132.161 69.5073 131.271C69.7077 130.368 69.9046 129.387 69.9608 129.099C70.0522 128.684 71.3917 122.999 71.8066 121.35C71.8417 121.188 71.9156 120.896 71.9507 120.717C72.0773 120.211 72.9457 117.24 73.2726 116.154C73.4343 115.612 73.5996 115.067 73.6172 114.976C73.7261 114.378 76.2434 106.809 77.2207 104.113C80.2618 95.7663 83.883 87.42 88.3374 78.4937C89.712 75.7585 91.1253 72.9881 91.4698 72.3377C91.8144 71.6873 92.4648 70.5095 92.8832 69.7115C96.5043 62.9402 101.465 57.2378 106.735 53.7783C110.736 51.1521 114.828 50.7724 118.794 52.6568L120.007 53.2369L121.42 51.8974C123.972 49.5243 127.956 46.413 129.007 46.0122C129.098 45.977 128.789 45.5235 128.283 44.9996C126.961 43.6039 125.621 42.6652 122.798 41.0691C121.856 40.5453 119.195 39.3851 118.688 39.2761C118.488 39.2409 118.165 39.132 117.964 39.0405C116.804 38.478 114.055 38.0632 111.175 38.028C109.53 37.9894 108.064 37.9894 107.92 38.028Z" fill="#6BC2F9"/>
<path d="M151.514 41.8278C151.479 41.8454 150.934 41.9192 150.284 41.9895C142.753 42.7137 134.73 47.0943 126.764 54.8605C124.429 57.1246 120.137 61.8497 118.688 63.713C118.4 64.1102 117.82 64.8345 117.402 65.3407C115.355 67.8931 112.532 71.9116 109.688 76.3132C108.802 77.6703 106.464 81.5622 106.464 81.6711C106.464 81.7063 106.264 82.0508 106.028 82.4305C105.81 82.7926 105.357 83.5907 105.033 84.1884C104.71 84.786 104.274 85.563 104.074 85.9076C103.349 87.1205 98.8773 96.1734 97.3199 99.5766C93.3717 108.176 90.7666 115.074 88.3759 123.114C87.8873 124.781 86.4212 130.61 86.2947 131.408C86.2419 131.735 86.1505 132.132 86.1154 132.276C86.0626 132.42 85.9888 132.73 85.9361 132.983C85.9009 133.236 85.7357 134.051 85.5915 134.793C85.4298 135.535 85.2646 136.46 85.2118 136.857C85.138 137.237 85.0677 137.599 85.0325 137.673C84.9974 137.725 84.906 138.214 84.8532 138.759C84.7794 139.283 84.7091 139.771 84.6739 139.845C84.6388 139.898 84.5649 140.352 84.4946 140.858C84.4419 141.347 84.3505 142.088 84.2942 142.486C84.238 142.883 84.1501 143.498 84.0938 143.843C84.0376 144.187 83.9673 144.767 83.9321 145.108C83.8794 145.797 83.6966 147.355 83.57 148.367C83.5348 148.712 83.4434 149.563 83.3907 150.269C83.338 150.958 83.2641 151.936 83.2114 152.442C82.7754 157.494 82.7579 171.905 83.2114 174.802C83.2465 175.055 83.3204 175.98 83.3907 176.866C83.4645 177.769 83.5348 178.623 83.57 178.785C83.6052 178.964 83.679 179.527 83.7493 180.072C83.9848 182.062 84.7829 186.354 85.3067 188.474C87.7326 198.216 92.6405 206.869 98.7754 212.191C100.512 213.714 103.81 215.612 106.197 216.502C108.025 217.191 109.365 217.496 111.935 217.897C113.074 218.059 119.177 218.024 120.045 217.823C120.298 217.788 121.005 217.644 121.638 217.535C127.541 216.502 136.358 212.23 143.129 207.16C146.951 204.281 151.222 200.045 152.527 197.854C152.671 197.584 152.453 197.654 151.005 198.308C140.468 203.015 131.088 206.239 125.839 206.963C125.386 207.016 124.862 207.108 124.661 207.164C123.702 207.399 118.432 207.364 117.075 207.111C111.228 206.042 107.262 202.495 104.692 195.994C104.151 194.599 103.135 191.16 102.956 190.021C102.903 189.677 102.811 189.188 102.755 188.935C102.34 187.051 101.813 182.199 101.651 178.796C101.577 177.02 101.577 169.905 101.651 168.565C101.686 168.059 101.778 166.719 101.831 165.577C101.904 164.438 101.992 163.168 102.031 162.771C102.066 162.374 102.157 161.432 102.21 160.69C102.284 159.948 102.354 159.206 102.39 159.062C102.425 158.918 102.498 158.137 102.569 157.343C102.622 156.545 102.713 155.768 102.748 155.624C102.783 155.48 102.875 154.9 102.927 154.358C102.98 153.817 103.107 152.91 103.198 152.368C103.307 151.827 103.543 150.305 103.761 149.018C104.14 146.592 105.244 141.051 105.589 139.786C105.68 139.388 105.807 138.861 105.859 138.608C106.095 137.286 107.67 131.492 108.665 128.198C110.222 123.075 113.172 114.782 114.512 111.723C114.638 111.414 114.926 110.728 115.144 110.183C115.362 109.642 115.777 108.682 116.069 108.046C116.357 107.413 116.593 106.868 116.593 106.815C116.593 106.78 116.92 106.038 117.317 105.188C117.714 104.337 118.041 103.613 118.041 103.577C118.041 103.525 120.179 99.0316 121.065 97.2421C123.508 92.2639 127.33 85.3099 130.659 79.7516C131.637 78.1238 132.505 76.6367 132.614 76.4749C133.5 74.9351 135.891 71.2612 136.903 69.8479C140.633 64.6692 145.72 59.9442 149.704 57.9543C153.578 55.9995 156.728 55.8554 160.768 57.448C161.763 57.8453 164.245 59.2234 164.842 59.7121C164.951 59.8035 165.658 60.3625 166.435 60.9602C167.992 62.1555 171.287 65.3794 172.988 67.3517C173.586 68.0408 174.166 68.6912 174.275 68.8002C174.873 69.433 178.167 73.8874 179.615 76.0601C182.459 80.2965 184.467 83.7735 187.037 88.9521C187.94 90.7803 188.721 92.2639 188.756 92.2639C188.809 92.2639 188.809 92.2112 188.756 92.1198C188.721 92.046 188.629 91.1776 188.577 90.1826C188.468 88.6076 188.288 87.0326 187.997 85.3837C187.961 85.1306 187.87 84.6419 187.817 84.2974C185.392 69.4506 178.729 56.0171 169.912 48.2861C166.6 45.3892 161.492 42.8719 157.565 42.204C157.238 42.1512 156.696 42.0598 156.387 42.0036C155.789 41.884 151.606 41.7364 151.514 41.8278Z" fill="#6BC2F9"/>
<path d="M196.905 92.5599C195.819 94.0084 194.68 95.5483 194.371 95.9631C192.486 98.6245 190.823 100.959 190.117 101.957C186.081 107.625 185.121 108.964 184.956 109.143C184.847 109.27 183.887 110.574 182.818 112.076C181.749 113.559 180.174 115.771 179.306 116.962C178.437 118.158 176.88 120.33 175.829 121.779C172.661 126.159 164.441 137.459 162.793 139.684C160.223 143.144 157.959 146.6 157.523 147.742C156.925 149.282 156.925 151.054 157.523 152.232C158.046 153.283 159.062 154.243 160.564 155.129C163.823 157.031 167.208 156.486 169.652 153.645C170.302 152.903 172.078 149.553 172.728 147.834C172.855 147.489 173.09 147.057 173.234 146.874C173.378 146.712 173.452 146.564 173.396 146.564C173.34 146.564 173.575 146.002 173.92 145.299C174.247 144.61 174.535 143.995 174.535 143.959C174.535 143.907 174.989 142.926 175.53 141.769C176.071 140.591 176.525 139.614 176.525 139.596C176.525 139.561 176.796 138.946 177.14 138.201C177.682 137.04 180.308 131.229 181.686 128.188C181.957 127.59 182.357 126.687 182.589 126.198C182.807 125.692 183.75 123.628 184.671 121.582C185.595 119.536 186.534 117.419 186.791 116.874C187.044 116.333 187.568 115.138 187.969 114.248C188.784 112.42 189.146 111.587 190.05 109.632C190.394 108.89 190.774 108.022 190.918 107.73C191.045 107.421 191.354 106.735 191.607 106.19C191.987 105.357 194.522 99.7073 195.752 96.958C195.953 96.5045 196.35 95.6537 196.621 95.0561C196.909 94.4584 197.345 93.4986 197.598 92.9185C197.851 92.356 198.269 91.4349 198.523 90.89C198.776 90.3485 198.959 89.895 198.92 89.895C198.913 89.8985 198.009 91.0939 196.905 92.5599ZM165.872 146.167C166.688 146.494 167.159 147.363 167.247 148.72C167.321 149.753 167.282 149.985 166.902 150.53C166.069 151.743 164.403 152.179 163.046 151.525C162.142 151.11 161.632 150.312 161.545 149.208C161.492 148.431 161.562 148.157 161.998 147.507C162.884 146.167 164.459 145.626 165.872 146.167Z" fill="#6BC2F9"/>
<path d="M165.095 98.8422C165.078 98.8774 163.9 98.9512 162.508 99.0251C159.92 99.134 158.725 99.2254 157.438 99.4223C157.041 99.4751 156.496 99.5489 156.225 99.584C154.162 99.8548 150.811 100.653 148.333 101.468C142.159 103.497 136.998 106.629 132.779 110.919C131.964 111.752 131.113 112.676 130.877 112.982C130.659 113.271 130.424 113.562 130.371 113.615C129.664 114.266 127.274 118.034 126.208 120.116C124.324 123.863 122.605 129.749 122.134 133.985C122.081 134.474 121.99 135.089 121.954 135.342C121.413 138.274 121.518 147.292 122.134 151.092C122.186 151.437 122.278 151.978 122.313 152.288C122.348 152.576 122.601 153.81 122.854 155.002C125.607 167.314 132.85 176.729 143.404 181.725C145.72 182.811 150.013 184.333 151.732 184.657C151.985 184.71 152.928 184.892 153.814 185.093C154.717 185.293 155.934 185.508 156.528 185.581C157.125 185.655 157.814 185.743 158.068 185.782C160.965 186.144 168.242 186.271 171.23 185.982C173.259 185.803 177.731 185.04 179.503 184.569C185.205 183.068 190.964 180.259 195 177.021C197.461 175.048 200.414 171.807 202.133 169.198C202.622 168.456 203.167 167.623 203.346 167.37C203.909 166.537 205.807 162.462 206.37 160.87C206.985 159.168 207.547 157.266 207.853 155.891C207.98 155.385 208.106 154.823 208.142 154.626C208.286 153.993 208.919 150.298 209.01 149.556C209.516 145.285 209.534 136.031 209.028 134.077C208.992 133.932 208.919 133.479 208.848 133.082C207.871 126.346 204.83 119.631 200.358 114.343C199.49 113.33 195.432 109.33 195.053 109.129C194.743 108.95 194.529 109.291 192.753 112.859L190.799 116.807L192.919 120.228C194.096 122.13 195.436 124.447 195.925 125.389C197.517 128.596 198.66 132.47 199.236 136.685C199.525 138.784 199.563 143.945 199.31 146.301C199.166 147.566 198.495 151.335 198.189 152.457C197.429 155.28 196.705 157.182 195.366 159.878C192.325 165.96 188.215 170.053 181.841 173.329C179.197 174.686 175.611 176.008 173.639 176.37C173.385 176.423 172.897 176.532 172.552 176.623C172.208 176.715 171.431 176.841 170.833 176.912C170.235 176.964 169.585 177.056 169.385 177.112C168.896 177.204 163.137 177.204 162.687 177.095C162.487 177.059 161.801 176.968 161.147 176.894C160.497 176.82 159.934 176.75 159.882 176.715C159.829 176.68 159.393 176.606 158.904 176.553C158.416 176.479 157.945 176.391 157.892 176.353C157.818 176.318 157.53 176.244 157.241 176.191C155.178 175.829 149.925 173.927 147.176 172.552C142.307 170.109 138.014 166.252 135.518 162.033C133.799 159.154 131.932 153.958 131.552 151.008C131.5 150.611 131.426 149.996 131.373 149.651C131.085 147.531 131.011 146.248 131.011 142.592C131.011 137.395 131.155 135.912 132.006 132.09C134.396 121.336 141.294 114.093 152.284 110.764C153.532 110.384 156.106 109.751 157.171 109.569C157.516 109.516 158.004 109.424 158.257 109.368C158.511 109.312 159.073 109.224 159.523 109.168C159.977 109.115 160.754 108.989 161.242 108.897C162.202 108.735 169.318 108.806 170.387 108.989C172.686 109.403 173.772 109.53 176.525 109.748L178.118 109.857L178.916 108.609C179.352 107.937 180.635 106.039 181.777 104.425C182.899 102.797 183.788 101.437 183.732 101.384C183.676 101.331 182.755 101.096 181.668 100.86C180.6 100.625 179.151 100.298 178.445 100.154C177.755 99.9919 176.852 99.8091 176.455 99.7563C176.057 99.7036 175.604 99.6122 175.46 99.5946C174.173 99.3415 172.253 99.1973 168.309 99.0532C166.825 98.9793 165.503 98.909 165.377 98.8739C165.257 98.8247 165.131 98.8247 165.095 98.8422Z" fill="#6BC2F9"/>
<path d="M162.181 116.439C162.163 116.456 161.492 116.513 160.697 116.583C156.841 116.91 152.133 118.647 148.93 120.946C144.17 124.349 140.929 128.986 139.044 135.051C138.682 136.246 138.664 136.264 140.222 134.309C143.21 130.579 147.211 127.394 151.447 125.4C152.643 124.838 155.54 123.808 156.334 123.642C156.552 123.607 157.132 123.498 157.621 123.407C159.414 123.045 160.012 122.992 161.966 123.01C163.179 123.027 164.593 123.171 165.588 123.372C166.491 123.572 167.272 123.66 167.345 123.607C167.398 123.533 168.432 122.176 169.645 120.584L171.817 117.687L171.058 117.469C170.081 117.18 167.852 116.745 166.586 116.583C165.654 116.477 162.269 116.351 162.181 116.439ZM184.738 131.032L183.254 133.964L183.743 134.78C183.996 135.234 184.266 135.648 184.323 135.705C184.611 135.94 186.334 139.579 186.822 140.954C187.835 143.868 188.197 146.259 188.218 150.133C188.218 153.972 188.201 153.934 189.213 151.364C190.57 147.96 191.242 144.61 191.224 141.316C191.224 140.177 191.189 139.069 191.133 138.872C191.097 138.672 191.006 138.131 190.953 137.659C190.774 136.355 189.976 133.768 189.361 132.446C188.51 130.653 186.717 128.1 186.32 128.1C186.26 128.1 185.536 129.422 184.738 131.032Z" fill="#6BC2F9"/>
</g>
<defs>
<clipPath id="clip0_1251_8936">
<rect width="162.376" height="180" fill="white" transform="translate(47.0209 38)"/>
</clipPath>
</defs>
</svg>
