<svg width="256" height="256" viewBox="0 0 256 256" fill="none" xmlns="http://www.w3.org/2000/svg">
<g clip-path="url(#clip0_1251_8951)">
<rect width="256" height="256" fill="white"/>
<g clip-path="url(#clip1_1251_8951)">
<path d="M256 0H0V256H256V0Z" fill="white"/>
<mask id="mask0_1251_8951" style="mask-type:luminance" maskUnits="userSpaceOnUse" x="19" y="19" width="220" height="220">
<path d="M239 19H19V239H239V19Z" fill="white"/>
</mask>
<g mask="url(#mask0_1251_8951)">
<path d="M239 19H19V239H239V19Z" fill="white"/>
<path d="M159.429 105.114L154.039 99.5371L99.615 152.136L105.005 157.713L159.429 105.114Z" fill="white"/>
<path d="M156.14 101.861H204.989C207.986 101.861 210.416 104.292 210.416 107.289V204.983C210.416 207.981 207.986 210.41 204.989 210.41H107.295C104.297 210.41 101.867 207.981 101.867 204.983V156.134" fill="white"/>
<path d="M156.14 101.861H204.989C207.986 101.861 210.416 104.292 210.416 107.289V204.983C210.416 207.981 207.986 210.41 204.989 210.41H107.295C104.297 210.41 101.867 207.981 101.867 204.983V156.134" stroke="#16161A" stroke-width="10.526" stroke-linecap="round" stroke-linejoin="round"/>
<path d="M156.139 101.862V53.0136C156.139 50.016 153.709 47.5859 150.711 47.5859H53.0175C50.0199 47.5859 47.5898 50.016 47.5898 53.0136V150.707C47.5898 153.705 50.0199 156.135 53.0175 156.135H101.866" fill="white"/>
<path d="M156.139 101.862V53.0136C156.139 50.016 153.709 47.5859 150.711 47.5859H53.0175C50.0199 47.5859 47.5898 50.016 47.5898 53.0136V150.707C47.5898 153.705 50.0199 156.135 53.0175 156.135H101.866" stroke="#16161A" stroke-width="10.526" stroke-linecap="round" stroke-linejoin="round"/>
<path d="M83.7692 129.001C81.2712 129.001 79.2461 126.976 79.2461 124.478V74.7242C79.2461 72.2263 81.2711 70.2012 83.7692 70.2012H100.744C104.033 70.2012 107.104 70.5318 109.958 71.1931C112.874 71.7944 115.387 72.8465 117.496 74.3495C119.668 75.7925 121.374 77.7464 122.615 80.2114C123.856 82.6163 124.476 85.5925 124.476 89.1395C124.476 92.5666 123.825 95.5428 122.522 98.0675C121.281 100.593 119.575 102.667 117.403 104.29C115.232 105.914 112.719 107.116 109.865 107.898C107.011 108.679 103.971 109.07 100.744 109.07H97.4495C94.9514 109.07 92.9264 111.095 92.9264 113.593V124.477C92.9264 126.975 90.9015 129 88.4033 129L83.7692 129.001ZM92.9267 93.9959C92.9267 96.4939 94.9516 98.5189 97.4497 98.5189H99.9066C107.352 98.5189 111.074 95.3926 111.074 89.1397C111.074 86.0736 110.113 83.9093 108.189 82.6466C106.328 81.384 103.567 80.7528 99.9064 80.7528H97.4496C94.9515 80.7528 92.9265 82.7779 92.9265 85.2758L92.9267 93.9959Z" fill="#16161A"/>
<path d="M138.05 187.798C135.552 187.798 133.527 185.773 133.527 183.275V133.521C133.527 131.023 135.552 128.998 138.05 128.998H153.825C156.976 128.998 159.881 129.239 162.537 129.719C165.256 130.141 167.605 130.922 169.582 132.064C171.559 133.207 173.104 134.71 174.216 136.573C175.39 138.437 175.977 140.782 175.977 143.608C175.977 144.93 175.76 146.253 175.328 147.576C174.957 148.898 174.339 150.131 173.474 151.273C172.609 152.416 171.528 153.438 170.231 154.34C168.974 155.213 167.486 155.86 165.767 156.282C165.667 156.307 165.596 156.396 165.596 156.499C165.596 156.606 165.674 156.698 165.779 156.718C170.014 157.508 173.228 159 175.42 161.193C177.645 163.418 178.757 166.514 178.757 170.482C178.757 173.488 178.17 176.074 176.996 178.238C175.822 180.402 174.185 182.206 172.084 183.649C169.983 185.031 167.511 186.084 164.669 186.805C161.888 187.467 158.861 187.797 155.586 187.797L138.05 187.798ZM147.152 148.103C147.152 150.601 149.177 152.626 151.675 152.626H153.177C156.513 152.626 158.923 151.995 160.406 150.732C161.889 149.47 162.63 147.696 162.63 145.412C162.63 143.247 161.858 141.714 160.313 140.812C158.831 139.85 156.482 139.369 153.27 139.369H151.675C149.177 139.369 147.152 141.395 147.152 143.892V148.103ZM147.152 172.904C147.152 175.401 149.177 177.427 151.675 177.427H154.474C161.765 177.427 165.411 174.781 165.411 169.491C165.411 166.906 164.515 165.042 162.723 163.9C160.993 162.757 158.244 162.186 154.474 162.186H151.675C149.177 162.186 147.152 164.211 147.152 166.709V172.904Z" fill="#16161A"/>
</g>
</g>
</g>
<defs>
<clipPath id="clip0_1251_8951">
<rect width="256" height="256" fill="white"/>
</clipPath>
<clipPath id="clip1_1251_8951">
<rect width="256" height="256" fill="white"/>
</clipPath>
</defs>
</svg>
