<svg width="256" height="256" viewBox="0 0 256 256" fill="none" xmlns="http://www.w3.org/2000/svg">
<rect width="256" height="256" fill="white"/>
<g clip-path="url(#clip0_1251_8906)">
<path d="M128 208.386C172.399 208.386 208.392 172.393 208.392 127.993C208.392 83.5941 172.399 47.6013 128 47.6013C83.6006 47.6013 47.6078 83.5941 47.6078 127.993C47.6078 172.393 83.6006 208.386 128 208.386Z" fill="black"/>
<mask id="mask0_1251_8906" style="mask-type:luminance" maskUnits="userSpaceOnUse" x="47" y="47" width="162" height="162">
<path d="M128 208.386C172.399 208.386 208.392 172.393 208.392 127.993C208.392 83.5941 172.399 47.6013 128 47.6013C83.6006 47.6013 47.6078 83.5941 47.6078 127.993C47.6078 172.393 83.6006 208.386 128 208.386Z" fill="white"/>
</mask>
<g mask="url(#mask0_1251_8906)">
<path d="M194.686 34.1696L199.294 36.9932L203.843 34.1696M194.686 34.1696V28.5226M194.686 34.1696L190.137 36.9932L185.588 34.1696M203.843 34.1696V28.5226M203.843 34.1696L208.392 36.9932M203.843 28.5226L199.294 25.6991L194.686 28.5226M203.843 28.5226L208.392 25.6794L212.941 28.503M194.686 28.5226L190.137 25.6991L185.588 28.5226M185.588 28.5226L181.039 25.6991L176.49 28.5226V34.1892L181.039 37.0128M185.588 28.5226V34.1892L181.039 37.0128M181.039 37.0128V42.6794M185.588 45.4441V51.1108M185.588 45.4441L190.137 42.6598L194.686 45.4441M185.588 45.4441L181.039 42.6598L176.49 45.4441M185.588 51.1108L190.137 53.9343M185.588 51.1108L181.039 53.9343M190.137 53.9343L194.686 51.1108M190.137 53.9343V59.601M194.686 51.1108V45.4441M194.686 51.1108L199.294 53.9343M194.686 45.4441L199.294 42.6598L203.843 45.4441M199.294 53.9343L203.843 51.1108M199.294 53.9343V59.601M203.843 51.1108V45.4441M203.843 51.1108L208.392 53.9343M203.843 45.4441L208.392 42.6598M199.294 37.0128V42.6794M190.137 37.0128V42.6794M212.941 28.503L217.49 25.6794L222.039 28.503M212.941 28.503V34.1696M222.039 28.503L226.588 25.6794L231.137 28.503V34.1696M222.039 28.503V34.1696M231.137 34.1696L235.686 36.9932V42.6598L231.137 45.4441V51.1108M231.137 34.1696L226.588 36.9932M231.137 51.1108L235.686 53.9343V59.601L231.137 62.4245V68.0912M231.137 51.1108L226.588 53.9343M231.137 68.0912L235.686 70.9147V76.5814L231.137 79.3657V85.0324L235.686 87.8559V93.5226L231.137 96.3461V102.013L235.686 104.836V110.503L231.137 113.287V118.954L235.686 121.777V127.444L231.137 130.268V135.934L235.686 138.758V144.425L231.137 147.209V152.876L235.686 155.699V161.366L231.137 164.189V169.856L235.686 172.679V178.346L231.137 181.13V186.797L235.686 189.621V195.287L231.137 198.111V203.777L235.686 206.601V212.268L231.137 215.052V220.719L235.686 223.542V229.209L231.137 232.032L226.588 229.209L222.039 232.032L217.49 229.209L212.941 232.032L208.392 229.209L203.843 232.032L199.294 229.209L194.686 232.032L190.137 229.209L185.588 232.032L181.039 229.209L176.49 232.032L171.941 229.209L167.392 232.032L162.843 229.209L158.294 232.032L153.745 229.209L149.137 232.032L144.588 229.209L140.039 232.032L135.49 229.209L130.941 232.032L126.392 229.209L121.843 232.032L117.294 229.209L112.745 232.032L108.196 229.209L103.647 232.032L99.098 229.209L94.549 232.032L90 229.209L85.3922 232.032L80.8431 229.209L76.2941 232.032L71.7451 229.209L67.1961 232.032L62.6471 229.209L58.098 232.032L53.549 229.209L49 232.032L44.451 229.209L39.7647 232.013L35.2157 229.189L30.6667 232.013L26.1176 229.189L21.5686 232.013L17.0196 229.189V223.523L12.4706 220.699V215.032L17.0196 212.248V206.581L12.4706 203.758V198.091L17.0196 195.268V189.601L12.4706 186.777V181.111L17.0196 178.327V172.66L12.4706 169.836V164.17L17.0196 161.346V155.679L12.4706 152.856V147.189L17.0196 144.405V138.738L12.4706 135.915V130.248L17.0196 127.405V121.738L12.4706 118.915V113.248L17.0196 110.464V104.797L12.4706 101.974V96.3069L17.0196 93.4834V87.8559L12.4706 85.0324V79.3657L17.0196 76.5814V70.9147L12.4706 68.0912V62.4245L17.0196 59.601V53.9343L12.4706 51.1108V45.4441L17.0196 42.6598V37.0128L12.4706 34.1892V28.5226L17.0196 25.6991L21.5686 28.5226L26.1176 25.6991L30.6667 28.5226L35.2157 25.6991L39.7647 28.5226L44.3725 25.6991L48.9216 28.5226L53.4706 25.6991L58.0196 28.5226L62.5686 25.6991L67.1176 28.5226L71.6667 25.6991L76.2353 28.5226L80.7843 25.6991L85.3333 28.5226L89.9412 25.6991L94.4902 28.5226L99.0392 25.6991L103.588 28.5226L108.137 25.6991L112.706 28.5226L117.255 25.6991L121.804 28.5226M231.137 68.0912L226.588 70.9147M121.804 28.5226L126.353 25.6991L130.902 28.5226M121.804 28.5226V34.1892L126.353 37.0128M130.902 28.5226L135.451 25.6794L140 28.503L144.549 25.6794L149.098 28.503L153.706 25.6794L158.255 28.503L162.804 25.6794L167.353 28.503L171.922 25.6794L176.471 28.503M130.902 28.5226V34.1892M167.373 28.5226V34.1892M167.373 34.1892L171.922 37.0128M167.373 34.1892L162.824 37.0128M171.922 37.0128L176.471 34.1892M171.922 37.0128V42.6794M167.373 45.4441V51.1108M167.373 45.4441L171.922 42.6598L176.471 45.4441V51.1108L171.922 53.9343M167.373 45.4441L162.824 42.6598L158.275 45.4441M167.373 51.1108L171.922 53.9343M167.373 51.1108L162.824 53.9343M171.922 53.9343V59.601M158.275 45.4441V51.1108M158.275 45.4441L153.725 42.6598L149.118 45.4441M176.49 62.4245V68.0912L181.039 70.9147L185.588 68.0912M176.49 62.4245L181.039 59.601M176.49 62.4245L171.922 59.601M185.588 68.0912V62.4245M185.588 68.0912L190.137 70.9147M185.588 62.4245L181.039 59.601M185.588 62.4245L190.137 59.601M181.039 59.601V53.9343M171.922 59.601L167.373 62.4245M167.373 62.4245V68.0912M167.373 62.4245L162.824 59.601M167.373 68.0912L171.922 70.9147M167.373 68.0912L162.824 70.9147M171.922 70.9147L176.471 68.0912M171.922 70.9147V76.5814M181.039 53.9343L176.49 51.1108M171.922 76.5814L176.471 79.3657M171.922 76.5814L167.373 79.3657M176.471 79.3657L181.02 76.5814V70.9147M176.471 79.3657V85.0324M190.137 59.601L194.686 62.4245M194.686 62.4245L199.294 59.601M194.686 62.4245V68.0912M199.294 59.601L203.843 62.4245M181.039 76.5814L185.588 79.3657M185.588 79.3657L190.137 76.5814M185.588 79.3657V85.0324L190.137 87.8559M190.137 76.5814V70.9147M190.137 76.5814L194.686 79.3657M190.137 70.9147L194.686 68.0912M194.686 68.0912L199.294 70.9147M199.294 70.9147L203.843 68.0912M199.294 70.9147V76.5814M203.843 68.0912V62.4245M203.843 68.0912L208.392 70.9147M203.843 62.4245L208.392 59.601M199.294 76.5814L203.843 79.3657M199.294 76.5814L194.686 79.3657M203.843 79.3657L208.392 76.5814M203.843 79.3657V85.0324L199.294 87.8559M208.392 76.5814V70.9147M208.392 76.5814L212.941 79.3461M208.392 70.9147L212.941 68.0912M158.275 28.5226V34.1892L162.824 37.0128M162.824 37.0128V42.6794M140.02 28.5226V34.1892L144.569 37.0128M144.569 37.0128L149.118 34.1892V28.5226M144.569 37.0128V42.6794M149.118 34.1696L153.725 36.9932L158.275 34.1696M149.118 45.4441V51.1108M149.118 45.4441L144.569 42.6598L140.02 45.4441M149.118 51.1108L153.725 53.9343M149.118 51.1108L144.569 53.9343L140.02 51.1108M153.725 53.9343L158.275 51.1108M153.725 53.9343V59.601M158.275 51.1108L162.824 53.9343M140.02 45.4441V51.1108M140.02 45.4441L135.451 42.6598L130.902 45.4441M140.02 51.1108L135.451 53.9343M153.725 37.0128V42.6794M130.902 34.1892L135.451 37.0128M130.902 34.1892L126.353 37.0128M135.451 37.0128L140 34.1892M135.451 37.0128V42.6794M126.353 37.0128V42.6794M126.353 53.9343L121.804 51.1108V45.4441L126.353 42.6598L130.902 45.4441M126.353 53.9343L130.902 51.1108M126.353 53.9343V59.601L130.902 62.4245M130.902 51.1108V45.4441M130.902 51.1108L135.451 53.9343M135.451 53.9343V59.601M135.451 59.601L140 62.4245M135.451 59.601L130.902 62.4245M140 62.4245L144.549 59.601V53.9343M140 62.4245V68.0912L135.451 70.9147M130.902 62.4245V68.0912M126.353 76.5814L130.902 79.3657M126.353 76.5814V70.9147L130.902 68.0912M126.353 76.5814L121.804 79.3657V85.0324L126.353 87.8559M130.902 79.3657L135.451 76.5814M130.902 79.3657V85.0324L126.353 87.8559M135.451 76.5814V70.9147M135.451 76.5814L140 79.3657L144.549 76.5814V70.9147M135.451 70.9147L130.902 68.0912M126.353 87.8559V93.5226M153.725 59.601L158.275 62.4245M153.725 59.601L149.118 62.4245M158.275 62.4245L162.824 59.601M158.275 62.4245V68.0912M162.824 59.601V53.9343M140.02 68.0912L144.569 70.9147L149.118 68.0912M149.118 68.0912V62.4245M149.118 68.0912L153.725 70.9147M149.118 62.4245L144.569 59.601M153.725 76.5814L158.275 79.3657M153.725 76.5814V70.9147M153.725 76.5814L149.118 79.3657V85.0324M158.275 79.3657L162.824 76.5814M158.275 79.3657V85.0324M162.824 76.5814V70.9147M162.824 76.5814L167.373 79.3657M162.824 70.9147L158.275 68.0912M158.275 68.0912L153.725 70.9147M149.118 85.0324L144.569 87.8559M149.118 85.0324L153.725 87.8559M144.569 87.8559V93.5226L149.118 96.3461M144.569 87.8559L140.02 85.0324L135.451 87.8559M149.118 96.3461L153.725 93.5226M149.118 96.3461V102.013L153.725 104.836L158.275 102.013V96.3461L153.725 93.5226M153.725 93.5226V87.8559M153.725 87.8559L158.275 85.0324M158.275 85.0324L162.824 87.8559M162.824 87.8559L167.373 85.0324V79.3657M162.824 87.8559V93.5226M158.275 101.993L162.824 104.817L167.373 101.993M167.373 101.993V96.3265M167.373 101.993L171.922 104.817L176.471 101.993M167.373 96.3265L162.824 93.503L158.275 96.3265M167.373 96.3265L171.922 93.503L176.471 96.3265V101.993M135.451 87.8559V93.5226L140 96.3461L144.549 93.5226M135.451 87.8559L130.902 85.0128M140.02 85.0128V79.3461M121.804 96.3265L126.353 93.503L130.902 96.3265M121.804 96.3265V101.993L126.353 104.817L130.902 101.993M121.804 96.3265L117.255 93.503M130.902 101.993V96.3265M130.902 101.993L135.451 104.817L140 101.993V96.3265M130.902 96.3265L135.451 93.503M135.451 110.503L130.902 113.287M135.451 110.503L140 113.287V118.954L135.451 121.777L130.902 118.954V113.287M135.451 110.503V104.836M130.902 113.287L126.353 110.503V104.836M130.902 118.934L126.353 121.758V127.425L130.902 130.268L135.451 127.425M135.451 127.425V121.758M135.451 127.425L140 130.268L144.549 127.425V121.758M158.275 118.934V113.268L162.824 110.483L167.373 113.268M158.275 118.934L162.824 121.758M158.275 118.934L153.725 121.758M162.824 121.758L167.373 118.934M162.824 121.758V127.425L158.275 130.268L153.725 127.425V121.758M167.373 118.934V113.268M167.373 118.934L171.922 121.758M167.373 113.268L171.922 110.483L176.471 113.268M162.824 104.836V110.503M149.118 101.993L144.569 104.817M144.569 104.817V110.483L149.118 113.268M144.569 104.817L140.02 101.993M149.118 113.268L153.725 110.483V104.817M149.118 113.268V118.934M140.02 118.934L144.569 121.758L149.118 118.934M149.118 118.934L153.725 121.758M153.725 110.503L158.275 113.287M144.569 110.503L140.02 113.287M194.686 79.3657V85.0324M194.686 85.0324L199.294 87.8559M194.686 85.0324L190.137 87.8559M199.294 87.8559V93.5226M190.137 87.8559V93.5226M185.588 101.993L190.137 104.817L194.686 101.993M185.588 101.993V96.3265L190.137 93.503L194.686 96.3265M185.588 101.993L181.039 104.817V110.483M194.686 101.993V96.3265M194.686 101.993L199.294 104.817L203.843 101.993V96.3265M194.686 96.3265L199.294 93.503L203.843 96.3265M203.843 96.3265L208.392 93.503M176.471 85.0324L181.02 87.8559M176.471 85.0324L171.922 87.8559M181.02 87.8559L185.569 85.0324M181.02 87.8559V93.5226M167.373 85.0128L171.922 87.8559M171.922 87.8559V93.5226M176.471 101.993L181.02 104.817M185.588 96.3461L181.039 93.5226L176.49 96.3461M176.471 113.268V118.934M176.471 113.268L181.02 110.483L185.569 113.268V118.934L181.02 121.758L176.471 118.934M176.471 118.934L171.922 121.758M171.922 104.836V110.503M171.922 121.758V127.425L176.471 130.248M176.471 130.248L181.02 127.405M176.471 130.248V135.895M181.02 127.405V121.738M181.02 127.405L185.569 130.248M199.294 104.836V110.503L203.843 113.287L208.392 110.503V104.836L203.843 102.013M199.294 110.483L194.686 113.268V118.934M194.686 118.934L199.294 121.758M194.686 118.934L190.137 121.758M199.294 121.758L203.843 118.934V113.268M199.294 121.758V127.425L194.686 130.268L190.137 127.425V121.758M190.137 104.836V110.503L194.686 113.287M190.137 110.483L185.588 113.268M190.137 121.758L185.588 118.934M149.118 79.3461L144.569 76.5618M226.588 36.9932L222.039 34.1696M226.588 36.9932V42.6598L222.039 45.4441M222.039 34.1696L217.49 36.9932M217.49 36.9932V42.6598M217.49 36.9932L212.941 34.1696M217.49 42.6598L222.039 45.4441M217.49 42.6598L212.941 45.4441M222.039 45.4441V51.1108M231.157 45.4441L226.608 42.6598M208.392 36.9932L212.941 34.1696M208.392 36.9932V42.6598M208.392 53.9343L212.941 51.1108M208.392 53.9343V59.601M212.941 51.1108V45.4441M212.941 51.1108L217.49 53.9343M212.941 45.4441L208.392 42.6598M217.49 53.9343V59.601M217.49 53.9343L222.039 51.1108M217.49 59.601L222.039 62.4245M217.49 59.601L212.941 62.4245M222.039 62.4245L226.588 59.601V53.9343M222.039 62.4245V68.0912M226.588 53.9343L222.039 51.1108M212.941 68.0912V62.4245M212.941 68.0912L217.49 70.9147M212.941 62.4245L208.392 59.601M217.49 70.9147V76.5814L222.039 79.3657L226.588 76.5814V70.9147M217.49 70.9147L222.039 68.0912M226.588 70.9147L222.039 68.0912M231.157 62.4245L226.608 59.601M222.039 79.3461V85.0128M222.039 85.0128L226.588 87.8363M222.039 85.0128L217.49 87.8363M226.588 87.8363L231.137 85.0128M226.588 87.8363V93.503L222.039 96.3265M217.49 87.8363V93.503M217.49 87.8363L212.941 85.0128M217.49 93.503L222.039 96.3265M217.49 93.503L212.941 96.3265M222.039 96.3265V101.993M231.157 96.3265L226.608 93.503M203.843 85.0128L208.392 87.8363M208.392 87.8363L212.941 85.0128M208.392 87.8363V93.503M212.941 85.0128V79.3461M212.941 79.3461L217.49 76.5618M208.392 104.817L212.941 101.993M212.941 101.993V96.3265M212.941 101.993L217.49 104.817M212.941 96.3265L208.392 93.503M222.039 101.993L226.588 104.817M222.039 101.993L217.49 104.817M226.588 104.817L231.137 101.993M226.588 104.817V110.483L222.039 113.268M208.392 110.483L212.941 113.268M212.941 113.268L217.49 110.483M212.941 113.268V118.934L217.49 121.758M217.49 110.483V104.817M217.49 110.483L222.039 113.268M217.49 121.758L222.039 118.934V113.268M217.49 121.758V127.425L212.941 130.268L208.392 127.425V121.758M203.843 118.915L208.392 121.738L212.941 118.915M231.157 113.268L226.608 110.483M222.039 118.915L226.588 121.738M226.588 121.738L231.137 118.915M226.588 121.738V127.405M217.49 127.405L222.039 130.248M222.039 130.248L226.588 127.405M222.039 130.248V135.895M226.588 127.405L231.137 130.248M231.157 79.3461L226.608 76.5618M226.588 138.738L222.039 135.895M226.588 138.738V144.385L222.039 147.17L217.49 144.385V138.719M226.588 138.738L231.137 135.915M222.039 135.895L217.49 138.719M217.49 138.719L212.941 135.895M231.157 147.17L226.608 144.385M212.941 130.248V135.895M212.941 135.895L208.392 138.738M203.843 135.895L199.294 138.719M203.843 135.895L208.392 138.719V144.385L203.843 147.17L199.294 144.385V138.719M203.843 135.895V130.228M199.294 138.719L194.686 135.895M203.843 130.228L199.294 127.385M203.843 130.228L208.392 127.405M217.49 144.405L212.941 147.189M212.941 147.189V152.856L217.49 155.679L222.039 152.856V147.189M212.941 147.189L208.392 144.405M199.275 144.405L194.667 147.189V152.856L199.275 155.679L203.824 152.856V147.189M217.49 161.327L212.941 164.15M217.49 161.327L222.039 164.15M217.49 161.327V155.66M212.941 164.15V169.817M212.941 164.15L208.392 161.327M212.941 169.817L217.49 172.64M212.941 169.817L208.392 172.64M217.49 172.64L222.039 169.817M217.49 172.64V178.307M222.039 169.817V164.15M222.039 169.817L226.588 172.64M222.039 164.15L226.588 161.327V155.66M212.941 152.836L208.392 155.66M208.392 155.66V161.327M208.392 155.66L203.843 152.836M208.392 161.327L203.843 164.15V169.817L208.392 172.64M208.392 172.64V178.307M208.392 178.307L212.941 181.091M208.392 178.307L203.843 181.091V186.758M212.941 181.091L217.49 178.307M212.941 181.091V186.758L208.392 189.581M217.49 178.307L222.039 181.091M226.588 155.66L222.039 152.836M226.588 155.66L231.137 152.836M231.157 164.15L226.608 161.327M222.039 181.091L226.588 178.307V172.64M222.039 181.091V186.758L226.588 189.581L231.137 186.758M226.588 172.64L231.137 169.817M231.157 198.072L226.608 195.248L222.059 198.072V203.738L226.608 206.562L231.157 203.738M226.588 195.228V189.562M222.039 186.738L217.49 189.562M217.49 189.562V195.228M217.49 189.562L212.941 186.738M217.49 195.228L222.039 198.052M217.49 195.228L212.941 198.052M203.843 186.758L208.392 189.581M203.843 186.758L199.294 189.581L194.686 186.758M208.392 189.581V195.248M208.392 206.562L212.941 203.738V198.072L208.392 195.228L203.843 198.052V203.719M208.392 206.562L203.843 203.719M208.392 206.562V212.228L212.941 215.013L217.49 212.228M203.843 203.719L199.294 206.542V212.209L203.843 214.993M217.49 212.228V206.562M217.49 212.228L222.039 215.013L226.588 212.228V206.562M212.941 203.719L217.49 206.542L222.039 203.719M203.843 214.993L208.392 212.209M203.843 214.993V220.66L208.392 223.483M208.392 223.483L212.941 220.66M208.392 223.483V229.15M212.941 220.66V214.993M212.941 220.66L217.49 223.483M226.588 229.15V223.483M226.588 223.483L222.039 220.66M226.588 223.483L231.137 220.66M222.039 220.66L217.49 223.483M222.039 220.66V214.993M217.49 223.483V229.15M231.157 214.993L226.608 212.209M231.157 181.091L226.608 178.307M194.686 130.248V135.895M194.686 135.895L190.137 138.719L185.588 135.895V130.248L190.137 127.405M194.686 147.17L190.137 144.385L185.588 147.17V152.836L190.137 155.66L194.686 152.836M190.137 144.405V138.738M176.471 135.895L181.02 138.719M176.471 135.895L171.922 138.719L167.373 135.895V130.248M181.02 138.719L185.569 135.895M181.02 138.719V144.385L176.471 147.17M171.922 127.405L167.373 130.248M167.373 130.248L162.824 127.405M167.373 152.836L171.922 155.66M167.373 152.836V147.189L171.922 144.405M167.373 152.836L162.824 155.66V161.327M171.922 155.66L176.471 152.836M171.922 155.66V161.327M176.471 152.836V147.17M176.471 152.836L181.02 155.66M176.471 147.17L171.922 144.405M171.922 144.405V138.738M162.824 161.327L167.373 164.15M162.824 161.327L158.275 164.15V169.817L162.824 172.64L167.373 169.817M176.471 164.15V169.817M176.471 164.15L181.02 161.327M176.471 164.15L171.922 161.327M176.471 169.817L181.02 172.64M176.471 169.817L171.922 172.64M181.02 172.64L185.569 169.817M181.02 172.64V178.307M185.569 169.817V164.15M185.569 169.817L190.118 172.64M185.569 164.15L181.02 161.327M185.569 164.15L190.118 161.327V155.66M181.02 161.327V155.66M185.569 152.836L181.02 155.66M171.922 161.327L167.373 164.15M167.373 164.15V169.817M167.373 169.817L171.922 172.64M171.922 172.64V178.307M171.922 178.307L176.471 181.091M171.922 178.307L167.373 181.091M176.471 181.091L181.02 178.307M176.471 181.091V186.758M181.02 178.307L185.569 181.091M199.275 155.66V161.327M199.275 161.327L203.824 164.15M199.275 161.327L194.667 164.15V169.817L199.275 172.64L203.824 169.817M194.686 169.817L190.137 172.64V178.307M190.137 178.307L194.686 181.091M190.137 178.307L185.588 181.091V186.758L190.137 189.581M194.686 181.091L199.294 178.307V172.64M194.686 181.091V186.758M194.686 164.15L190.137 161.327M181.02 144.405L185.569 147.189M153.706 127.405L149.098 130.228V135.895L153.706 138.719L158.255 135.895V130.228M153.706 138.738V144.405M153.706 144.405L158.255 147.189M153.706 144.405L149.098 147.189V152.856L153.706 155.679L158.255 152.856V147.189M158.255 147.189L162.804 144.405V138.738L158.255 135.915M140 130.248V135.915M140 135.915L144.549 138.738M140 135.915L135.451 138.738M144.549 138.738L149.098 135.915M144.549 138.738V144.405M149.118 147.17L144.569 144.385L140.02 147.17V152.836L144.569 155.66L149.118 152.836M135.451 138.738V144.405L140 147.189M135.451 138.738L130.902 135.915M126.353 127.405L121.804 130.228M121.804 130.228V135.895L126.353 138.719L130.902 135.895V130.228M121.804 130.228L117.255 127.385M130.902 147.17L126.353 144.385L121.804 147.17M130.902 147.17V152.836M130.902 147.17L135.451 144.385M121.804 147.17V152.836L126.353 155.66M121.804 147.17L117.255 144.385M126.353 155.66L130.902 152.836M126.353 155.66V161.327M130.902 152.836L135.451 155.66M126.353 138.738V144.405M135.451 161.327L130.902 164.15M135.451 161.327L140 164.15M135.451 161.327V155.66M130.902 164.15V169.817M130.902 164.15L126.353 161.327M130.902 169.817L135.451 172.64M130.902 169.817L126.353 172.64M135.451 172.64L140 169.817M135.451 172.64V178.307M140 169.817V164.15M140 169.817L144.549 172.64M140 164.15L144.549 161.327M140 152.836L135.451 155.66M126.353 161.327L121.804 164.15M126.353 172.64V178.307M126.353 172.64L121.804 169.817M126.353 178.307L130.902 181.091M126.353 178.307L121.804 181.091V186.758L126.353 189.581M130.902 181.091L135.451 178.307M130.902 181.091V186.758M135.451 178.307L140 181.091M144.549 155.66V161.327M144.549 161.327L149.098 164.15L153.706 161.327M153.706 161.327V155.66M153.706 161.327L158.255 164.15M144.549 178.307L149.098 181.091L153.706 178.307M153.706 178.307V172.64M153.706 178.307L158.255 181.091M153.706 172.64L149.118 169.817M153.706 172.64L158.255 169.817M149.118 169.817L144.569 172.64V178.307L140.02 181.091V186.758L144.569 189.581L149.118 186.758M149.118 169.817V164.15M149.118 186.758V181.091M149.118 186.758L153.725 189.581M158.255 181.091L162.804 178.307V172.64M158.255 181.091V186.758M158.255 152.836L162.804 155.66M158.255 186.758L153.706 189.581V195.248M158.255 186.758L162.804 189.581V195.248L158.255 198.072M153.706 195.248L158.255 198.072M153.706 195.248L149.098 198.072V203.738L153.706 206.562M158.255 198.072V203.738M153.706 206.562L158.255 203.738M153.706 206.562V212.228M158.255 203.738L162.804 206.562V212.228L158.255 215.013M149.118 198.072L144.569 195.248L140.02 198.072V203.738L144.569 206.562L149.118 203.738M153.706 212.228L158.255 215.013M153.706 212.228L149.098 215.013M158.255 215.013V220.679M144.549 195.248V189.581M130.902 186.758L135.451 189.581M130.902 186.758L126.353 189.581M135.451 189.581L140 186.758M135.451 189.581V195.248M126.353 189.581V195.248M126.353 195.248L121.804 198.072M126.353 195.248L130.902 198.072M121.804 198.072V203.738L126.353 206.562M121.804 198.072L117.255 195.248L112.706 198.072M126.353 206.562L130.902 203.738M126.353 206.562V212.228L130.902 215.013L135.451 212.228M130.902 203.738V198.072M130.902 203.738L135.451 206.562M130.902 198.072L135.451 195.248M140 203.738L135.451 206.562M135.451 206.562V212.228M135.451 212.228L140 215.013L144.549 212.228M144.549 212.228V206.562M144.549 212.228L149.098 215.013M135.451 195.248L140 198.072M135.451 229.15V223.483L130.902 220.66M130.902 220.66L126.353 223.483M130.902 220.66V214.993M126.353 223.483V229.15M126.353 223.483L121.804 220.66M144.549 229.15V223.483L140 220.66M140 220.66L135.451 223.503M140 220.66V214.993M144.549 223.503L149.098 220.679V215.013M153.706 229.15V223.483L149.098 220.66M171.922 229.15V223.483L167.373 220.66L162.824 223.483V229.15M158.255 220.679L162.804 223.503M158.255 220.679L153.706 223.503M194.686 186.758L190.137 189.581M190.137 189.581V195.248M190.137 206.562L194.686 203.738M190.137 206.562L185.588 203.738V198.072L190.137 195.248M190.137 206.562V212.228L194.686 215.013L199.294 212.228M194.686 203.738V198.072M194.686 203.738L199.294 206.562M194.686 198.072L190.137 195.248M194.686 198.072L199.294 195.248L203.843 198.072M199.275 195.248V189.581M176.471 186.758L181.02 189.581M176.471 186.758L171.922 189.581M181.02 189.581L185.569 186.758M181.02 189.581V195.248M167.373 181.091V186.758M167.373 181.091L162.824 178.307M167.373 186.758L171.922 189.581M167.373 186.758L162.824 189.581M171.922 189.581V195.248M167.373 198.072V203.738M167.373 198.072L171.922 195.248M167.373 198.072L162.824 195.248M167.373 203.738L171.922 206.562M167.373 203.738L162.824 206.562M171.922 206.562L176.471 203.738M171.922 206.562V212.228M176.471 203.738V198.072M176.471 203.738L181.02 206.562M176.471 198.072L171.922 195.248M176.471 198.072L181.02 195.248M185.569 198.072L181.02 195.248M181.02 206.562L185.569 203.738M181.02 206.562V212.228M171.922 212.228L176.471 215.013L181.02 212.228M171.922 212.228L167.373 215.013V220.679M181.02 212.228L185.569 215.013M181.02 229.15V223.483L176.471 220.66M176.471 220.66L171.922 223.503M176.471 220.66V214.993M185.569 215.013L190.118 212.228M185.569 215.013V220.679M185.569 220.679L190.118 223.503L194.667 220.679V215.013M185.569 220.679L181.02 223.503M190.137 223.503V229.17M199.275 229.15V223.483L194.667 220.66M167.373 147.17L162.824 144.385M162.824 138.738L167.373 135.915M167.373 214.993L162.824 212.209M199.275 223.503L203.824 220.679M203.824 181.091L199.275 178.307M149.118 130.248L144.569 127.405M30.6471 28.503V34.1696M30.6471 34.1696L35.1961 36.9932M30.6471 34.1696L26.098 36.9932M35.1961 36.9932L39.7647 34.1696M35.1961 36.9932V42.6598M39.7647 34.1696V28.503M39.7647 34.1696L44.3725 36.9932L48.9216 34.1696V28.503M21.549 28.503V34.1696M21.549 34.1696L26.098 36.9932M21.549 34.1696L17 36.9932M26.098 36.9932V42.6598M26.098 42.6598L21.549 45.4441M26.098 42.6598L30.6471 45.4441M21.549 45.4441V51.1108M21.549 45.4441L17 42.6598M21.549 51.1108L26.098 53.9343M21.549 51.1108L17 53.9343M26.098 53.9343L30.6471 51.1108V45.4441M26.098 53.9343V59.601L30.6471 62.4245M30.6471 45.4441L35.1961 42.6598M30.6471 51.0912L35.1961 53.9343M35.1961 53.9343L39.7647 51.0912M35.1961 53.9343V59.5814M39.7647 51.0912V45.4441M39.7647 51.0912L44.3529 53.9343M39.7647 45.4441L35.1961 42.6598M39.7647 45.4441L44.3529 42.6598M44.3529 53.9343L48.902 51.1108V45.4441M44.3529 53.9343V59.601M48.902 45.4441L44.3529 42.6598M48.902 45.4441L53.451 42.6598L58 45.4441V51.0912L53.451 53.9147L48.902 51.0912M44.3529 42.6598V36.9932M17 70.9147L21.549 68.0912V62.4245L17 59.601M35.1961 59.5814L30.6471 62.4049V68.0716M35.1961 59.5814L39.7647 62.4049V68.0716M30.6471 68.0716L35.1961 70.8951M30.6471 68.0716L26.098 70.8951M35.1961 70.8951L39.7647 68.0716M35.1961 70.8951V76.5618L30.6471 79.3461M39.7647 68.0716L44.3725 70.8951L48.9216 68.0716V62.4049L44.3725 59.5814L39.7647 62.4245M26.098 70.8951V76.5618M26.098 70.8951L21.549 68.0716M26.098 76.5618L30.6471 79.3461M26.098 76.5618L21.549 79.3461M30.6471 79.3461V85.0128M44.3529 70.9147V76.5814L48.902 79.3657L53.451 76.5814V70.9147L48.902 68.0912M26.098 59.5814L21.549 62.4049M39.7647 85.0128L35.2157 87.8363V93.503L39.7647 96.3265M39.7647 85.0128L44.3725 87.8363V93.503M39.7647 85.0128V79.3461M39.7647 96.3265L44.3725 93.503M39.7647 96.3265V101.993M44.3725 93.503L48.9216 96.3265V101.993L44.3725 104.817L39.7647 101.993M44.3529 76.5618L39.7647 79.3461M39.7647 79.3461L35.2157 76.5618M21.549 79.3461V85.0128M21.549 79.3461L17 76.5618M21.549 85.0128L26.098 87.8363M21.549 85.0128L17 87.8363M26.098 87.8363L30.6471 85.0128M26.098 87.8363V93.503M30.6471 85.0128L35.1961 87.8363M30.6471 96.3265L26.098 93.503M30.6471 96.3265V101.993M30.6471 96.3265L35.1961 93.503M26.098 93.503L21.549 96.3265M21.549 96.3265V101.993M21.549 96.3265L17 93.503M21.549 101.993L26.098 104.817M21.549 101.993L17 104.817M26.098 104.817L30.6471 101.993M26.098 104.817V110.483M30.6471 101.993L35.1961 104.817M39.7647 101.993L35.2157 104.817V110.483L39.7647 113.248M17 121.738L21.549 118.915M21.549 118.915V113.248L17 110.464M21.549 118.915L26.098 121.738M39.7647 113.248V118.915M39.7647 113.248L44.3725 110.464L48.9216 113.248M39.7647 118.915L44.3725 121.738L48.9216 118.915V113.248M39.7647 118.915L35.1961 121.738M48.9216 113.248L53.4706 110.464L58.0196 113.248M44.3529 104.817V110.483M26.098 110.483L30.6471 113.268L35.1961 110.483M26.098 110.483L21.549 113.268M26.098 121.738V127.405M26.098 121.738L30.6471 118.915M26.098 127.405L30.6471 130.248M26.098 127.405L21.549 130.248V135.895L26.098 138.719L30.6471 135.895M30.6471 130.248L35.1961 127.405V121.738M30.6471 130.248V135.895M35.1961 121.738L30.6471 118.915M30.6471 118.915V113.248M44.3529 121.738V127.405M44.3529 127.405L48.902 130.248L53.451 127.405V121.738L48.902 118.915M44.3529 127.405L39.7647 130.228M112.686 28.503V34.1696M112.686 34.1696L117.235 36.9932M112.686 34.1696L108.137 36.9932M117.235 36.9932L121.784 34.1696M117.235 36.9932V42.6598M103.588 28.503V34.1696M103.588 34.1696L108.137 36.9932M103.588 34.1696L99.0392 36.9932M108.137 36.9932V42.6598M108.137 42.6598L103.588 45.4441V51.1108L108.137 53.9343L112.686 51.1108V45.4245L108.137 42.6598ZM121.804 45.4245L117.255 42.6402L112.706 45.4245M94.4902 28.503V34.1696M94.4902 34.1696L99.0392 36.9932M94.4902 34.1696L89.9412 36.9932L85.3333 34.1696V28.503M99.0392 36.9932V42.6598M85.3333 45.4245V51.0912M85.3333 45.4245L89.9412 42.6402L94.4902 45.4245M85.3333 45.4245L80.7843 42.6402L76.2353 45.4245M85.3333 51.0912L89.9412 53.9147L94.4902 51.0912M85.3333 51.0912L80.7843 53.9343V59.601L85.3333 62.4245M94.4902 51.0912V45.4245M94.4902 51.0912L99.0392 53.9147M94.4902 45.4245L99.0392 42.6402L103.588 45.4245M89.9216 36.9932V42.6598M103.588 51.0912L99.0392 53.9147M99.0392 53.9147V59.5814M99.0392 59.5814L103.588 62.4049M99.0392 59.5814L94.4902 62.4049V68.0716M103.588 62.4049L108.137 59.5814M103.588 62.4049V68.0716L99.0392 70.8951M108.137 59.5814V53.9147M108.137 59.5814L112.686 62.4049M94.4902 68.0716L99.0392 70.8951M94.4902 68.0716L89.9412 70.8951V76.5618L94.4902 79.3461M99.0392 70.8951V76.5618M85.3333 62.4245L89.9412 59.601M85.3333 62.4245V68.0912L89.9412 70.9147M89.9412 59.601V53.9343M89.9412 59.601L94.4902 62.4245M94.4902 79.3461L99.0392 76.5618M94.4902 79.3461V85.0128M99.0392 76.5618L103.588 79.3461M112.686 51.0912L117.235 53.9147L121.784 51.0912M117.235 59.5814L112.686 62.4049M117.235 59.5814L121.784 62.4049V68.0716L117.235 70.8951M117.235 59.5814V53.9343M112.686 62.4049V68.0716M112.686 68.0716L117.235 70.8951M112.686 68.0716L108.137 70.8951V76.5618M117.235 70.8951V76.5618L112.686 79.3461M108.137 76.5618L112.686 79.3461M108.137 76.5618L103.588 79.3461M112.686 79.3461V85.0128M108.137 70.9147L103.588 68.0912M76.2157 28.503V34.1696M76.2157 34.1696L80.7647 36.9932L85.3137 34.1696M76.2157 34.1696L71.6667 36.9932M67.1176 28.503V34.1696M67.1176 34.1696L71.6667 36.9932M67.1176 34.1696L62.5686 36.9932M71.6667 36.9932V42.6598M67.1176 45.4441V51.1108L71.6667 53.9343M67.1176 45.4441L71.6667 42.6598M67.1176 45.4441L62.5686 42.6598M71.6667 53.9343L76.2157 51.1108V45.4441L71.6667 42.6598M71.6667 53.9343V59.601L67.1176 62.4245L62.5686 59.601V53.9343M62.5686 42.6598L58.0196 45.4441M62.5686 42.6598V36.9932M80.7843 36.9932V42.6598M58.0196 28.503V34.1696L62.5686 36.9932M48.902 34.1696L53.451 36.9932L58 34.1696M53.4706 36.9932V42.6598M58.0196 51.0912L62.5686 53.9147L67.1176 51.0912M62.5686 59.5814L58.0196 62.4049V68.0716L62.5686 70.8951L67.1176 68.0716V62.4049M48.902 62.4245L53.451 59.601V53.9343M62.5686 70.9147V76.5814L67.1176 79.3657L71.6667 76.5814V70.9147M71.6667 70.9147L67.1176 68.0912M71.6667 70.9147L76.2157 68.0912M58.0196 62.4245L53.4706 59.601M53.4706 70.9147L58.0196 68.0912M76.2157 51.0912L80.7647 53.9147M80.7843 59.5814L76.2353 62.4049V68.0716L80.7843 70.8951L85.3333 68.0716M71.6667 76.5618L76.2157 79.3461M76.2157 79.3461L80.7647 76.5618M76.2157 79.3461V85.0128M80.7647 76.5618V70.8951M80.7647 76.5618L85.3137 79.3461M71.6667 59.5814L76.2157 62.4049M76.2157 85.0128L80.7647 87.8363L85.3137 85.0128V79.3461M76.2157 85.0128L71.6667 87.8363M85.3137 79.3461L89.9216 76.5618M67.1176 79.3461V85.0128M67.1176 85.0128L71.6667 87.8363M67.1176 85.0128L62.5686 87.8363M71.6667 87.8363V93.503M67.1176 101.993L71.6667 104.817M67.1176 101.993V96.3265M67.1176 101.993L62.5686 104.817M71.6667 104.817L76.2157 101.993M71.6667 104.817V110.483M76.2157 101.993V96.3265M76.2157 101.993L80.7647 104.817L85.3137 101.993V96.3265M76.2157 96.3265L71.6667 93.503M76.2157 96.3265L80.7647 93.503L85.3137 96.3265M71.6667 93.503L67.1176 96.3265M67.1176 96.3265L62.5686 93.503M62.5686 104.817V110.483M62.5686 104.817L58.0196 101.993M85.3137 96.3265L89.9216 93.503M80.7843 87.8363V93.503M62.5686 76.5618L58.0196 79.3461M58.0196 79.3461V85.0128L62.5686 87.8363M58.0196 79.3461L53.4706 76.5618M62.5686 87.8363V93.503M48.902 79.3461V85.0128M48.902 85.0128L53.451 87.8363L58 85.0128M48.902 85.0128L44.3529 87.8363M48.902 101.993L53.451 104.817L58 101.993V96.3265L53.451 93.503L48.902 96.3265M62.5686 93.503L58.0196 96.3265M53.4706 87.8363V93.503M58.0196 113.248V118.915L62.5686 121.738L67.1176 118.915M58.0196 113.248L62.5686 110.464L67.1176 113.248M67.1176 118.915V113.248M67.1176 118.915L71.6667 121.738V127.405M67.1176 113.248L71.6667 110.464L76.2157 113.248M53.4706 104.817V110.483M62.5686 121.758V127.425L67.1176 130.248M67.1176 130.248L71.6667 127.405M67.1176 130.248V135.895M71.6667 127.405L76.2157 130.248M53.4706 121.758L58.0196 118.934M80.7843 104.817V110.483M80.7843 110.483L85.3333 113.268M80.7843 110.483L76.2353 113.268V118.934L80.7843 121.758M85.3333 113.268L89.9412 110.483V104.817L85.3333 101.993M85.3333 113.268V118.934M80.7843 121.758L85.3333 118.934M80.7843 121.758V127.425L85.3333 130.268L89.9412 127.425V121.758L85.3333 118.934M71.6667 121.758L76.2157 118.934M112.686 85.0128L117.235 87.8363M112.686 85.0128L108.137 87.8363M117.235 87.8363L121.784 85.0128M117.235 87.8363V93.503L112.686 96.3265M108.137 87.8363V93.503M108.137 87.8363L103.588 85.0128M108.137 93.503L112.686 96.3265M108.137 93.503L103.588 96.3265M112.686 96.3265V101.993M103.588 96.3265V101.993M103.588 96.3265L99.0392 93.503M103.588 101.993L108.137 104.817M103.588 101.993L99.0392 104.817M108.137 104.817L112.686 101.993M108.137 104.817V110.483L103.588 113.268M112.686 101.993L117.235 104.817M94.4902 85.0128L99.0392 87.8363M94.4902 85.0128L89.9412 87.8363L85.3333 85.0128M99.0392 87.8363L103.588 85.0128M99.0392 87.8363V93.503M103.588 85.0128V79.3461M89.9216 104.817L94.4706 101.993V96.3265L89.9216 93.503M89.9216 93.503V87.8363M99.0392 93.503L94.4902 96.3265M99.0392 104.817V110.483M99.0392 104.817L94.4902 101.993M99.0392 110.483L103.588 113.268M99.0392 110.483L94.4902 113.268V118.934L99.0392 121.758M103.588 113.268V118.934L99.0392 121.758M99.0392 121.758V127.425L103.588 130.248M103.588 130.248L108.137 127.405M103.588 130.248V135.895M108.137 127.405V121.738L103.588 118.915M108.137 127.405L112.686 130.248M94.4902 113.248L89.9412 110.464M89.9216 121.758L94.4706 118.934M117.235 110.483L112.686 113.268V118.934M117.235 110.483L121.784 113.268V118.934L117.235 121.758L112.686 118.934M117.235 110.483V104.817M112.686 118.934L108.137 121.758M117.235 104.817L121.784 101.993M112.686 113.248L108.137 110.464M112.686 130.248L117.235 127.405V121.738M112.686 130.248V135.895M121.804 79.3461L117.255 76.5618M112.686 135.895L117.235 138.719M112.686 135.895L108.137 138.719M117.235 138.719L121.784 135.895M117.235 138.719V144.385L112.686 147.17M108.137 138.719V144.385M108.137 138.719L103.588 135.895M108.137 144.385L112.686 147.17M108.137 144.385L103.588 147.17M112.686 147.17V152.836M103.588 147.17V152.836M103.588 147.17L99.0392 144.385M103.588 152.836L108.137 155.66M103.588 152.836L99.0392 155.66M108.137 155.66L112.686 152.836M108.137 155.66V161.327M112.686 152.836L117.235 155.66M103.588 135.895L99.0392 138.719V144.385M99.0392 144.385L94.4902 147.17L89.9412 144.385V138.719M99.0392 138.738L94.4902 135.895M94.4902 135.895L89.9412 138.719M94.4902 135.895V130.228L89.9412 127.385M89.9412 138.719L85.3333 135.895M85.3333 130.248V135.895M85.3333 135.895L80.7843 138.719L76.2353 135.895V130.228L80.7843 127.405M89.9216 144.385L85.3137 147.17V152.836L89.9216 155.66M89.9216 155.66L94.4706 152.836V147.17M89.9216 155.66V161.327M94.4902 164.15V169.817M94.4902 164.15L99.0392 161.327M94.4902 164.15L89.9412 161.327L85.3333 164.15M94.4902 169.817L99.0392 172.64M94.4902 169.817L89.9412 172.64M99.0392 172.64L103.588 169.817M99.0392 172.64V178.307M103.588 169.817V164.15M103.588 169.817L108.137 172.64M103.588 164.15L99.0392 161.327M103.588 164.15L108.137 161.327M99.0392 161.327V155.66M85.3333 164.15V169.817M85.3333 164.15L80.7843 161.327M85.3333 169.817L89.9412 172.64M85.3333 169.817L80.7843 172.64M89.9412 172.64V178.307L85.3333 181.091L80.7843 178.307M99.0392 155.66L94.4902 152.836M80.7843 172.64V178.307M80.7843 172.64L76.2353 169.817V164.15L80.7843 161.327M80.7843 178.307L76.2353 181.091M99.0392 178.307L103.588 181.091L108.137 178.307M99.0392 178.307L94.4902 181.091V186.758L99.0392 189.581L103.588 186.758M108.137 178.307V172.64M108.137 178.307L112.686 181.091L117.235 178.307V172.64M108.137 172.64L112.686 169.817M117.235 161.327L112.686 164.15M117.235 161.327L121.784 164.15V169.817L117.235 172.64M117.235 161.327V155.66M112.686 164.15V169.817M112.686 164.15L108.137 161.327M112.686 169.817L117.235 172.64M117.235 155.66L121.784 152.836M67.1176 135.895L71.6667 138.719M67.1176 135.895L62.5686 138.719M71.6667 138.719L76.2157 135.895M71.6667 138.719V144.385L67.1176 147.17L62.5686 144.385V138.719M62.5686 138.719L58.0196 135.895V130.228M62.5686 144.405L58.0196 147.189V152.856L62.5686 155.679L67.1176 152.856V147.189M85.3333 147.17L80.7843 144.385L76.2353 147.17V152.836L80.7843 155.66M80.7843 155.66L85.3333 152.836M80.7843 155.66V161.327M80.7843 138.738V144.405M71.6667 144.405L76.2157 147.189M62.5686 127.405L58.0196 130.228M58.0196 130.228L53.4706 127.385M48.902 135.895L44.3529 138.719V144.385M48.902 135.895L53.451 138.719V144.385L48.902 147.17M48.902 135.895V130.228M44.3529 144.385L48.902 147.17M44.3529 144.385L39.7647 147.17M48.902 147.17V152.836M48.902 152.836L53.451 155.66L58 152.836M48.902 152.836L44.3529 155.66M58.0196 147.17L53.4706 144.385M53.4706 138.738L58.0196 135.915M58.0196 164.15V169.817M58.0196 164.15L62.5686 161.327M58.0196 164.15L53.4706 161.327M58.0196 169.817L62.5686 172.64M58.0196 169.817L53.4706 172.64L48.9216 169.817V164.15M62.5686 172.64L67.1176 169.817M62.5686 172.64V178.307M67.1176 169.817V164.15M67.1176 169.817L71.6667 172.64M67.1176 164.15L62.5686 161.327M67.1176 164.15L71.6667 161.327M62.5686 161.327V155.66M53.4706 155.66V161.327M53.4706 161.327L48.9216 164.15M48.9216 164.15L44.3725 161.327M48.902 169.817L44.3529 172.64V178.307M44.3529 178.307L48.902 181.091M44.3529 178.307L39.7647 181.072M48.902 181.091L53.451 178.307M48.902 181.091V186.758L53.451 189.581L58 186.758V181.091L53.451 178.307M53.451 178.307V172.64M62.5686 178.307L67.1176 181.091M62.5686 178.307L58.0196 181.091M67.1176 181.091L71.6667 178.307M67.1176 181.091V186.758L71.6667 189.581M71.6667 178.307V172.64M71.6667 178.307L76.2157 181.091V186.758L71.6667 189.581M71.6667 172.64L76.2157 169.817M76.2157 164.15L71.6667 161.327M71.6667 161.327V155.66M76.2157 152.836L71.6667 155.66M71.6667 155.66L67.1176 152.836M71.6667 189.581V195.248M76.2157 186.738L80.7647 189.562L85.3137 186.738V181.072M76.2157 203.719L71.6667 206.542L67.1176 203.719V198.052L71.6667 195.228L76.2157 198.052M76.2157 203.719V198.052M76.2157 203.719L80.7647 206.542L85.3137 203.719V198.052L80.7647 195.228L76.2157 198.052M80.7843 189.581V195.248M58.0196 186.738L62.5686 189.562L67.1176 186.738M48.902 186.738L44.3529 189.562V195.228M44.3529 195.228L48.902 198.052L53.451 195.228V189.562M44.3529 195.228L39.7647 198.072M39.7647 198.072V203.738L44.3725 206.562L48.9216 203.738V198.072M39.7647 198.072L35.2157 195.248M44.3529 206.562V212.228L48.902 215.013L53.451 212.228V206.562L48.902 203.738M67.1176 198.072L62.5686 195.248M62.5686 195.248L58.0196 198.072M62.5686 195.248V189.581M58.0196 198.072V203.738M58.0196 198.072L53.4706 195.248M58.0196 203.738L62.5686 206.562M58.0196 203.738L53.4706 206.562M62.5686 206.562L67.1176 203.738M62.5686 206.562V212.228M58.0196 214.993V220.66L62.5686 223.483M58.0196 214.993L62.5686 212.209L67.1176 214.993M58.0196 214.993L53.4706 212.209M62.5686 223.483L67.1176 220.66M62.5686 223.483V229.15M67.1176 220.66V214.993M67.1176 220.66L71.6667 223.483M67.1176 214.993L71.6667 212.209M48.902 214.993V220.66L53.451 223.483L58 220.66M53.4706 223.483V229.15M71.6667 206.562V212.228L76.2157 215.013L80.7647 212.228V206.562M71.6667 223.483L76.2157 220.66V214.993M71.6667 223.483V229.15M80.7843 229.15V223.483M80.7843 223.483L76.2353 220.66M80.7843 223.483L85.3333 220.66M112.686 181.072V186.738M112.686 186.738L117.235 189.562M112.686 186.738L108.137 189.562M117.235 189.562L121.784 186.738M117.235 189.562V195.228M103.588 181.072V186.738L108.137 189.562M108.137 189.562V195.228M108.137 195.228L103.588 198.052V203.719M108.137 195.228L112.686 198.052V203.719M103.588 203.719L108.137 206.542M103.588 203.719L99.0392 206.542V212.209L103.588 214.993M108.137 206.542L112.686 203.719M108.137 206.542V212.209M112.686 203.719L117.235 206.542M117.235 206.542L121.784 203.719M117.235 206.542V212.209M85.3333 186.738L89.9412 189.562L94.4902 186.738M85.3333 203.719L89.9412 206.542L94.4902 203.719V198.052L89.9412 195.228L85.3333 198.052M103.588 214.993L108.137 212.209M103.588 214.993V220.66M108.137 212.209L112.686 214.993M103.588 198.072L99.0392 195.248L94.4902 198.072M99.0392 206.562L94.4902 203.738M89.9216 195.228V189.562M99.0392 189.562V195.228M89.9216 206.562V212.228L94.4706 215.013L99.0196 212.228M80.7843 212.209L85.3333 214.993M85.3333 214.993L89.9412 212.209M85.3333 214.993V220.66M85.3333 220.66L89.9412 223.483L94.4902 220.66M94.4902 220.66V214.993M94.4902 220.66L99.0392 223.483M89.9216 223.483V229.15M108.137 229.15V223.483M108.137 223.483L103.588 220.66M108.137 223.483L112.686 220.66M103.588 220.66L99.0392 223.483M99.0392 223.483V229.15M117.235 212.209L112.686 214.993M117.235 212.209L121.784 214.993V220.66L117.235 223.483M112.686 214.993V220.66M112.686 220.66L117.235 223.483M117.235 223.483V229.15M94.4902 181.072L89.9412 178.287M121.804 181.072L117.255 178.287M30.6471 135.895L35.1961 138.719L39.7647 135.895M39.7647 135.895V130.228M39.7647 135.895L44.3725 138.719M39.7647 130.228L35.2157 127.385M21.549 147.17L26.098 144.385L30.6471 147.17V152.836M21.549 147.17V152.836M21.549 147.17L17 144.385M21.549 152.836L26.098 155.66M21.549 152.836L17 155.66M26.098 155.66L30.6471 152.836M26.098 155.66V161.327M30.6471 152.836L35.1961 155.66L39.7647 152.836M39.7647 152.836V147.17M39.7647 152.836L44.3725 155.66V161.327M39.7647 147.17L35.2157 144.385M35.2157 144.385L30.6667 147.17M35.2157 144.385V138.719M26.098 138.738V144.405M17 138.738L21.549 135.915M17 172.64L21.549 169.817M21.549 169.817V164.15M21.549 169.817L26.098 172.64M21.549 164.15L17 161.327M21.549 164.15L26.098 161.327M35.2157 155.66V161.327L39.7647 164.15M39.7647 164.15L44.3725 161.327M39.7647 164.15V169.817M26.098 161.327L30.6471 164.15M30.6471 164.15L35.1961 161.327M30.6471 164.15V169.817M26.098 178.307L30.6471 181.091L35.1961 178.307V172.64L30.6471 169.817M26.098 178.307V172.64M26.098 178.307L21.549 181.091M30.6471 169.817L26.098 172.64M35.2157 172.64L39.7647 169.817M39.7647 169.817L44.3725 172.64M30.6471 181.072V186.738M30.6471 186.738L35.1961 189.562M30.6471 186.738L26.098 189.562M35.1961 189.562L39.7647 186.738M35.1961 189.562V195.228L30.6471 198.052M39.7647 186.738V181.072M39.7647 186.738L44.3725 189.562M39.7647 181.072L35.2157 178.287M26.098 189.562V195.228M26.098 189.562L21.549 186.738M26.098 195.228L30.6471 198.052M26.098 195.228L21.549 198.052M30.6471 198.052V203.719M21.549 198.052V203.719L26.098 206.542M21.549 198.052L17 195.228M26.098 206.542L30.6471 203.719M26.098 206.542V212.209M30.6471 203.719L35.1961 206.542L39.7647 203.719M17 189.562L21.549 186.738M21.549 186.738V181.072L17 178.287M17 206.562L21.549 203.738M17 223.483L21.549 220.66M21.549 220.66V214.993M21.549 220.66L26.098 223.483M21.549 214.993L17 212.209M21.549 214.993L26.098 212.209M44.3529 212.209L39.7647 214.993M39.7647 214.993V220.66M39.7647 214.993L35.2157 212.209M39.7647 220.66L44.3725 223.483L48.9216 220.66M39.7647 220.66L35.2157 223.483M35.2157 212.209L30.6667 214.993V220.66L35.2157 223.483M35.2157 212.209V206.542M35.2157 223.483V229.15M26.098 212.209L30.6471 214.993M30.6471 220.66L26.098 223.483M26.098 223.483V229.15M44.3529 229.15V223.483M21.549 130.228L17 127.385M99.0392 127.405L94.4902 130.248M121.804 68.0716L126.353 70.8951M126.353 59.5814L121.804 62.4049M126.353 212.209L121.804 214.993M121.804 118.915L126.353 121.738M126.353 110.483L121.804 113.268" stroke="#989898" stroke-width="0.396627" stroke-miterlimit="1" stroke-linecap="square"/>
</g>
<path d="M128 218.19C177.814 218.19 218.196 177.807 218.196 127.993C218.196 78.1795 177.814 37.7974 128 37.7974C78.1861 37.7974 37.804 78.1795 37.804 127.993C37.804 177.807 78.1861 218.19 128 218.19Z" stroke="#E5E5E5" stroke-width="19.4118"/>
<path d="M128 180.935C157.239 180.935 180.941 157.232 180.941 127.993C180.941 98.7548 157.239 75.0522 128 75.0522C98.7614 75.0522 75.0588 98.7548 75.0588 127.993C75.0588 157.232 98.7614 180.935 128 180.935Z" fill="#E5E5E5" stroke="#E5E5E5" stroke-width="14.902"/>
<path d="M128 208.386C172.399 208.386 208.392 172.393 208.392 127.993C208.392 83.5941 172.399 47.6013 128 47.6013C83.6006 47.6013 47.6078 83.5941 47.6078 127.993C47.6078 172.393 83.6006 208.386 128 208.386Z" stroke="#009252" stroke-width="2.35294"/>
<path d="M128 152.307V41.5229L63.2941 152.307H128ZM128 103.68V214.464L192.706 103.68H128Z" fill="black"/>
<path d="M128 152.307V41.5229L63.2941 152.307H128ZM128 103.68V214.464L192.706 103.68H128Z" stroke="#009252" stroke-width="3.13725"/>
<path d="M128 157.405C144.244 157.405 157.412 144.237 157.412 127.994C157.412 111.75 144.244 98.5818 128 98.5818C111.756 98.5818 98.5883 111.75 98.5883 127.994C98.5883 144.237 111.756 157.405 128 157.405Z" fill="#009252"/>
</g>
<defs>
<clipPath id="clip0_1251_8906">
<rect width="200" height="200" fill="white" transform="translate(28 28)"/>
</clipPath>
</defs>
</svg>
