<svg width="256" height="256" viewBox="0 0 256 256" fill="none" xmlns="http://www.w3.org/2000/svg">
<g clip-path="url(#clip0_1251_8968)">
<rect width="256" height="256" fill="white"/>
<g clip-path="url(#clip1_1251_8968)">
<path d="M256 0H0V256H256V0Z" fill="white"/>
<path d="M128.001 119.333C118.467 119.333 110.667 127.133 110.667 136.667C110.667 146.2 118.467 154 128.001 154C137.534 154 145.334 146.2 145.334 136.667C145.334 127.133 137.534 119.333 128.001 119.333ZM180.001 136.667C180.001 107.98 156.687 84.6667 128.001 84.6667C99.314 84.6667 76.0006 107.98 76.0006 136.667C76.0006 155.907 86.4873 172.633 102.001 181.647L110.667 166.567C100.354 160.5 93.334 149.493 93.334 136.667C93.334 117.513 108.847 102 128.001 102C147.154 102 162.667 117.513 162.667 136.667C162.667 149.493 155.647 160.5 145.334 166.567L154.001 181.647C169.514 172.633 180.001 155.907 180.001 136.667ZM128.001 50C80.1606 50 41.334 88.8267 41.334 136.667C41.334 168.733 58.754 196.64 84.5806 211.633L93.2473 196.64C72.6206 184.593 58.6673 162.32 58.6673 136.667C58.6673 98.36 89.694 67.3333 128.001 67.3333C166.307 67.3333 197.334 98.36 197.334 136.667C197.334 162.32 183.381 184.593 162.667 196.64L171.334 211.633C197.247 196.64 214.667 168.733 214.667 136.667C214.667 88.8267 175.841 50 128.001 50Z" fill="#4285F4"/>
</g>
</g>
<defs>
<clipPath id="clip0_1251_8968">
<rect width="256" height="256" fill="white"/>
</clipPath>
<clipPath id="clip1_1251_8968">
<rect width="256" height="256" fill="white"/>
</clipPath>
</defs>
</svg>
