<svg width="256" height="256" viewBox="0 0 256 256" fill="none" xmlns="http://www.w3.org/2000/svg">
<g clip-path="url(#clip0_1251_8978)">
<rect width="256" height="256" fill="white"/>
<g clip-path="url(#clip1_1251_8978)">
<path d="M256 0H0V256H256V0Z" fill="#1F2124"/>
<path d="M68.2658 87.4951C79.3469 87.4951 88.3299 78.5078 88.3299 67.4214C88.3299 56.335 79.3469 47.3477 68.2658 47.3477C57.1848 47.3477 48.2018 56.335 48.2018 67.4214C48.2018 78.5078 57.1848 87.4951 68.2658 87.4951Z" fill="#54514D"/>
<path d="M68.2658 147.343C79.3469 147.343 88.3299 138.355 88.3299 127.269C88.3299 116.183 79.3469 107.195 68.2658 107.195C57.1848 107.195 48.2018 116.183 48.2018 127.269C48.2018 138.355 57.1848 147.343 68.2658 147.343Z" fill="#FFFEFA"/>
<path d="M68.2658 208.308C79.3469 208.308 88.3299 199.32 88.3299 188.234C88.3299 177.147 79.3469 168.16 68.2658 168.16C57.1848 168.16 48.2018 177.147 48.2018 188.234C48.2018 199.32 57.1848 208.308 68.2658 208.308Z" fill="#54514D"/>
<path d="M128.458 147.343C139.539 147.343 148.522 138.355 148.522 127.269C148.522 116.183 139.539 107.195 128.458 107.195C117.377 107.195 108.394 116.183 108.394 127.269C108.394 138.355 117.377 147.343 128.458 147.343Z" fill="#FFFEFA"/>
<path d="M128.458 208.308C139.539 208.308 148.522 199.32 148.522 188.234C148.522 177.147 139.539 168.16 128.458 168.16C117.377 168.16 108.394 177.147 108.394 188.234C108.394 199.32 117.377 208.308 128.458 208.308Z" fill="#FFFEFA"/>
<path d="M128.458 87.4951C139.539 87.4951 148.522 78.5078 148.522 67.4214C148.522 56.335 139.539 47.3477 128.458 47.3477C117.377 47.3477 108.394 56.335 108.394 67.4214C108.394 78.5078 117.377 87.4951 128.458 87.4951Z" fill="#54514D"/>
<path d="M187.907 87.4951C198.988 87.4951 207.971 78.5078 207.971 67.4214C207.971 56.335 198.988 47.3477 187.907 47.3477C176.826 47.3477 167.843 56.335 167.843 67.4214C167.843 78.5078 176.826 87.4951 187.907 87.4951Z" fill="#54514D"/>
<path d="M187.907 147.343C198.988 147.343 207.971 138.355 207.971 127.269C207.971 116.183 198.988 107.195 187.907 107.195C176.826 107.195 167.843 116.183 167.843 127.269C167.843 138.355 176.826 147.343 187.907 147.343Z" fill="#FFFEFA"/>
<path d="M187.907 208.308C198.988 208.308 207.971 199.32 207.971 188.234C207.971 177.147 198.988 168.16 187.907 168.16C176.826 168.16 167.843 177.147 167.843 188.234C167.843 199.32 176.826 208.308 187.907 208.308Z" fill="#54514D"/>
</g>
</g>
<defs>
<clipPath id="clip0_1251_8978">
<rect width="256" height="256" fill="white"/>
</clipPath>
<clipPath id="clip1_1251_8978">
<rect width="256" height="256" fill="white"/>
</clipPath>
</defs>
</svg>
