<svg width="256" height="256" viewBox="0 0 256 256" fill="none" xmlns="http://www.w3.org/2000/svg">
<rect width="256" height="256" fill="white"/>
<g clip-path="url(#clip0_1230_441)">
<path d="M204.656 186.875C204.375 186.625 203.969 186.531 203.594 186.625C195.219 174.281 184.594 162.563 174.281 151.25L172.594 149.406C172.594 149.188 172.5 149 172.344 148.813C172.187 148.594 171.937 148.469 171.656 148.406L171.312 148.063L171.062 147.875C170.75 147.25 170 146.75 169.156 147.188C166 148.813 163.156 151.125 160.375 153.25C156.656 156.094 153 159.094 149.562 162.281C148.156 163.594 146.781 164.938 145.625 166.438C145.062 167.188 145.5 167.875 146.156 168.188C143.719 170.594 141.281 173.063 138.812 175.656C138.594 175.906 138.469 176.219 138.5 176.531C138.531 176.844 138.687 177.156 138.937 177.344L143.25 180.625C143.25 180.625 143.281 180.688 143.312 180.719C149.469 186.813 160.312 195.25 171.75 204.188C173.437 205.531 175.156 206.875 176.875 208.188C177.656 209.125 178.406 210.063 179.125 210.969C179.5 211.469 180.219 211.563 180.719 211.188C180.969 211.375 181.25 211.594 181.5 211.813C182 212.188 182.719 212.094 183.094 211.625C183.219 211.438 183.281 211.219 183.312 211C183.406 211 183.437 211.063 183.5 211.063C183.812 211.063 184.125 210.938 184.344 210.719L204.656 188.531C205.062 188.094 205.062 187.375 204.594 186.938L204.656 186.875ZM146.312 179.188C146.437 179.375 146.594 179.531 146.719 179.688C149.031 181.656 151.5 183.75 154.031 185.906L143.812 178.094C143.812 178.094 143.187 177.656 142.781 177.375C142.562 177.219 142.375 177.063 142.156 176.906L141.406 176.281C141.406 176.281 141.531 176.156 141.594 176.063L142.281 175.375C145.719 171.906 151.594 166.125 154.625 163.281C151.437 166.5 144.906 175.969 146.312 179.188ZM181.281 206.75L172.844 200.313C169.562 196.906 166 193.531 162.375 190.281C166.937 193.781 170.812 196.781 171.406 197.281C175.812 201.219 175.625 200.5 178.656 203.094L182.312 205.75C181.969 206.094 181.594 206.406 181.281 206.75ZM183.406 208.375L183.25 208.25C183.562 208 183.906 207.75 184.219 207.5L183.406 208.375ZM49.8124 78.0314C50.0937 79.4689 50.3437 80.8751 50.6249 82.2501C51.9999 89.6251 53.2812 96.2814 55.7187 101.344L56.6874 105.188C57.0624 106.656 57.5937 108.469 58.0937 108.844C63.7812 113.875 72.4999 121.375 81.8124 128.438C82.2187 128.75 82.8124 128.75 83.2187 128.406L83.3124 128.5C83.5312 128.688 83.7812 128.813 84.0624 128.813C84.3749 128.813 84.6874 128.688 84.9062 128.438C96.8437 115.156 105.719 104.25 112.062 95.0939C112.469 94.5939 112.656 94.0314 112.656 93.4064C113.062 92.9376 113.469 92.4376 113.844 92.0626C114.281 91.6251 114.25 90.9064 113.812 90.5001C113.75 90.4376 113.687 90.4064 113.625 90.3439C113.594 90.0626 113.469 89.8126 113.281 89.6251C110.5 86.9376 108.437 85.0001 106.375 83.0626C102.687 79.6251 98.9062 76.0626 90.8749 68.0626L90.7499 67.9376C90.6249 67.8126 90.4687 67.7189 90.3124 67.6564C88.0937 66.8751 83.5312 66.0939 77.8124 65.0939C69.3749 63.6564 57.8437 61.6564 47.4687 58.5626H47.3437V58.5314C47.3437 58.5314 47.3124 58.5314 47.2812 58.5626L47.3749 58.5314C47.3749 58.5314 46.7499 58.5626 46.6249 58.6251C46.4687 58.7189 46.3437 58.8126 46.2499 58.9376C46.1562 59.0626 46.0624 59.1876 45.3124 59.3439C44.5624 59.5001 45.4687 59.3439 45.5312 59.3439H45.3124V59.4064C45.4374 60.0939 45.4062 60.5626 45.6249 61.3439C45.5937 61.5314 46.0312 63.3751 46.0937 63.5626L49.7499 78.0626L49.8124 78.0314ZM111.594 91.0939C111.594 91.0939 111.531 91.1876 111.5 91.1876L110.219 89.7814C110.656 90.1876 111.094 90.5939 111.594 91.0939ZM97.4374 109.844C97.4374 109.844 97.3124 110 97.2499 110.094L97.2187 110.063C97.2812 109.969 97.3437 109.906 97.4374 109.844ZM89.3437 69.7189C90.0312 70.4064 92.8125 73.0001 93.4687 73.6564C90.5624 72.3439 83.3749 69.0001 79.9999 67.9064C83.3124 68.4689 87.8437 69.2189 89.3437 69.7189ZM51.0624 64.1876C52.7499 67.0626 54.0624 77.1564 55.3749 86.9376C54.6249 83.7814 53.9999 80.7189 53.4062 77.7501C52.3749 72.6251 51.4062 68.0626 50.0624 64.0314C50.3437 64.0626 50.6874 64.0939 51.0312 64.1251C51.0624 64.1564 51.0624 64.1564 51.0624 64.1876ZM50.4999 61.7814C50.0312 61.7501 49.6249 61.6876 49.2499 61.6876C49.2187 61.5939 49.1874 61.5314 49.1562 61.4376L50.4999 61.7814ZM202.812 60.3126C202.906 59.8439 200.625 57.8439 201.344 57.8126C203.031 57.7189 203.062 55.1251 201.344 55.1876C199.094 55.3126 196.812 55.8126 194.625 56.2501C190.687 57.0001 186.75 57.8126 182.812 58.6564C174.062 60.5314 165.312 62.5001 156.656 64.8751C153.937 65.6251 150.937 66.2814 148.437 67.5939C147.594 68.0314 147.625 68.9376 148.094 69.5001C147.906 69.5939 147.75 69.6564 147.531 69.6876C146.781 69.8126 146.062 69.9376 145.312 70.0626C144.687 70.1564 144.281 70.7501 144.375 71.3439C144.406 71.5001 144.437 71.6251 144.531 71.7814C139.906 77.9689 134.625 84.6251 128.937 91.6564C123.344 98.0626 117.5 104.875 111.531 111.906C92.7499 133.938 71.4687 158.969 47.8749 181C47.4062 181.406 47.4062 182.125 47.8124 182.594C47.9062 182.719 48.0624 182.781 48.1874 182.844C47.8749 183.156 47.5624 183.438 47.2187 183.719C47.0312 183.906 46.9374 184.125 46.9062 184.344C46.7499 184.5 46.5937 184.688 46.4374 184.844C46.0312 185.313 46.0312 186.031 46.4999 186.438C46.9687 186.844 47.6874 186.844 48.0937 186.375C48.1874 186.281 48.2499 186.188 48.3437 186.125C48.9687 185.438 50.0312 185.438 50.7187 186.063L50.7812 186.125C52.1562 187.594 53.4687 189 54.6874 190.281L51.9374 188C51.4687 187.594 50.7499 187.656 50.3437 188.125C49.9374 188.594 49.9999 189.313 50.4687 189.719L80.0624 214.531C80.2812 214.719 80.5312 214.781 80.8124 214.781C81.1249 214.781 81.4062 214.656 81.6249 214.438L82.3437 213.719C82.7812 213.906 83.2812 213.813 83.5937 213.469C123.687 173.188 156 142.75 192.969 115.531C193.312 115.281 193.469 114.906 193.437 114.5C193.875 114.438 194.25 114.156 194.406 113.719C201.219 92.8439 202.562 74.3439 202.937 65.2814C202.937 65.2189 202.969 65.1876 202.969 65.1564L203.062 64.8751C203.125 64.6564 203.156 64.5001 203.156 64.5001C203.687 62.9376 203.5 61.4376 202.844 60.2189L202.812 60.3126ZM131.125 92.9689C132.906 90.9064 134.687 88.9064 136.469 86.9376C124.969 102.063 105.937 125.375 78.9687 153.094C97.3124 132.781 115.812 111.719 131.125 92.9689ZM66.1562 198.406L66.0937 198.344C66.3124 198.375 66.4687 198.438 66.4999 198.438C66.3749 198.406 66.2812 198.406 66.1562 198.406ZM79.9374 211.219L79.8437 211.125L79.9062 211.063C79.9374 211.063 79.9687 211.094 79.9999 211.094C79.9687 211.156 79.9374 211.156 79.9374 211.219ZM96.6249 196.813L99.3749 193.938C99.4062 193.969 99.4062 194 99.4374 194.031C98.4999 194.969 97.5624 195.906 96.6249 196.813ZM101.094 192.406C101.625 191.813 102.219 191.094 102.844 190.375C102.875 190.344 102.875 190.313 102.937 190.281C109.5 183.5 116.281 176.656 123.25 169.813L123.375 169.688C125.094 168.375 127 166.906 128.812 165.531C119.781 174.188 110.594 183.094 101.094 192.406ZM144.312 80.8751C140.594 85.7189 136.531 91.9689 133.062 96.9689C122.156 112.75 87.0624 151.406 86.2812 152.156C80.875 157.375 64.5624 173.031 54.1562 182.844C53.8749 183.094 53.6562 183.313 53.4687 183.531C52.8749 182.906 52.8749 181.906 53.4999 181.281C103.031 134.563 133.094 95.6564 145.312 78.7189C145.062 79.3751 144.844 80.0939 144.219 80.9064L144.312 80.8751ZM177.25 95.0314L177.219 95.0626C177.25 95.0314 177.187 94.9376 177.25 95.0314ZM163.687 103.656C159.187 101.031 157.062 97.1251 158.281 93.1876L158.656 91.8751C158.812 91.5001 159 91.1251 159.219 90.7501C160.406 88.7814 162.187 87.0626 164.25 86.0314C164.344 86.0001 164.437 85.9689 164.562 85.9376C164.469 85.6564 164.437 85.3751 164.469 85.0939C164.562 84.4689 164.969 83.9376 165.781 83.9376C167.125 83.9376 171.281 85.1876 172.844 86.5314C173.312 86.9064 173.781 87.3439 174.187 87.7814C174.781 88.4689 175.656 89.6251 176.094 90.4376C176.344 90.5626 176.562 91.6876 176.844 92.2501C177.125 93.1564 177.25 94.0939 177.187 95.0314C177.187 95.0626 177.187 95.0626 177.219 95.0939C177.156 95.2189 177.219 95.8439 177.125 95.9064C176.937 97.3439 176.406 98.7501 175.625 100C175.531 100.094 175.5 100.219 175.406 100.313C175.406 100.344 175.375 100.344 175.344 100.406C174.75 101.25 174.031 102.063 173.187 102.656C170.687 104.438 167.75 104.969 164.812 104.219C164.437 104.063 164.031 103.906 163.687 103.719V103.656ZM196.156 100.406C195.187 104.5 193.969 108.781 192.562 113.156C192.5 113.313 192.5 113.469 192.5 113.625C192.312 113.656 192.125 113.719 191.969 113.844C183.094 120.344 174.531 127.063 166.062 134.031C173.375 127.406 180.812 120.813 188.469 114.156C190.687 112.219 192.187 109.594 192.687 106.688L193.812 99.9689L193.875 99.7814C194.375 98.3751 196.562 98.9689 196.219 100.438L196.156 100.406Z" fill="#6965DB"/>
</g>
<defs>
<clipPath id="clip0_1230_441">
<rect width="160" height="160" fill="white" transform="translate(45 55)"/>
</clipPath>
</defs>
</svg>
