<svg width="256" height="256" viewBox="0 0 256 256" fill="none" xmlns="http://www.w3.org/2000/svg">
<g clip-path="url(#clip0_1251_8901)">
<path d="M228 128C228 183.234 183.234 228 128 228C72.7656 228 28 183.234 28 128C28 72.7656 72.7656 28 128 28C183.234 28 228 72.7656 228 128Z" fill="#005ED3"/>
<path d="M228 128C228 123.43 227.688 118.938 227.102 114.523L177.414 64.8359L153.195 75.6172L128 50.2266L111.086 79.2891L78.5859 64.8359L83.3906 97.6875L47.4922 103.703L72.6484 128L47.4922 152.297L79.5625 184.406L78.5469 191.203L114.484 227.141C118.898 227.727 123.391 228.039 127.961 228.039C183.234 228 228 183.234 228 128Z" fill="#00459F"/>
<path d="M128 61.8672L142.492 86.75L170.07 74.4844L165.969 102.492L196.086 107.531L174.914 128L196.047 148.43L165.93 153.469L170.031 181.477L142.453 169.211L128 194.133L113.508 169.25L85.9297 181.516L90.0312 153.508L59.9141 148.469L81.0469 128.039L59.9141 107.609L90.0312 102.57L85.9297 74.5625L113.508 86.8281L128 61.8672Z" fill="#FF0335"/>
<path d="M196.047 148.43L165.93 153.469L170.031 181.477L142.453 169.211L128 194.133V61.8672L142.492 86.75L170.07 74.4844L167.414 92.4922L165.93 102.492L188.898 106.359L196.047 107.57L190.812 112.609L174.914 128L179.367 132.297L196.047 148.43Z" fill="#C2001B"/>
<path d="M128 205.773L111.086 176.711L78.5859 191.164L83.3906 158.313L47.4922 152.297L72.6484 128L47.4922 103.703L83.3906 97.6875L78.5859 64.8359L111.086 79.2891L128 50.2266L144.914 79.2891L177.414 64.8359L172.609 97.6875L208.508 103.703L183.352 128L208.508 152.297L172.609 158.313L177.414 191.164L144.914 176.711L128 205.773ZM115.93 161.711L128 182.453L140.07 161.711L162.727 171.789L159.328 148.625L183.625 144.562L166.477 128L183.625 111.438L159.328 107.375L162.727 84.2109L140.07 94.2891L128 73.5469L115.93 94.2891L93.2734 84.2109L96.6719 107.375L72.375 111.438L89.5234 128L72.375 144.562L96.6719 148.625L93.2734 171.789L115.93 161.711Z" fill="#FFDF47"/>
<path d="M185.539 130.109L183.352 128L193.195 118.508L208.508 103.703L186.711 100.07L172.57 97.6875L173.664 90.2266L177.414 64.8359L144.914 79.2891L128 50.2266V73.5078L140.07 94.25L162.727 84.1719L161.203 94.6016L160.227 101.398L159.367 107.336L160.344 107.492L183.703 111.398L166.477 128L173.117 134.406L183.664 144.562L159.367 148.625L162.766 171.789L140.109 161.711L128 182.453V205.734L144.914 176.672L177.414 191.125L172.57 158.273L208.469 152.258L185.539 130.109Z" fill="#FEC000"/>
<path d="M115.63 187.795L92.4097 106.803L102.189 103.895L113.708 144.074L114.655 143.793L139.414 92.825L152.191 89.0257L128.754 135.652L175.411 170.018L163.581 173.535L124.71 144.236L117.881 158.628L125.409 184.887L115.63 187.795Z" fill="white"/>
<path d="M115.63 187.795L115.28 187.899C115.335 188.093 115.537 188.203 115.73 188.146L115.63 187.795ZM92.4097 106.803L92.3091 106.452C92.1159 106.51 92.0043 106.713 92.0599 106.907L92.4097 106.803ZM102.189 103.895L102.539 103.791C102.483 103.597 102.282 103.487 102.089 103.544L102.189 103.895ZM113.708 144.074L113.359 144.178C113.414 144.372 113.616 144.483 113.809 144.425L113.708 144.074ZM114.655 143.793L114.755 144.144C114.854 144.114 114.936 144.044 114.982 143.951L114.655 143.793ZM139.414 92.825L139.314 92.4742C139.215 92.5036 139.133 92.5735 139.087 92.6667L139.414 92.825ZM152.191 89.0257L152.515 89.1885C152.581 89.0581 152.564 88.9017 152.471 88.7902C152.379 88.6787 152.229 88.6334 152.09 88.6748L152.191 89.0257ZM128.754 135.652L128.43 135.489C128.349 135.649 128.395 135.842 128.537 135.947L128.754 135.652ZM175.411 170.018L175.511 170.368C175.644 170.329 175.744 170.217 175.769 170.08C175.793 169.942 175.739 169.804 175.627 169.722L175.411 170.018ZM163.581 173.535L163.361 173.829C163.452 173.898 163.571 173.919 163.681 173.886L163.581 173.535ZM124.71 144.236L124.93 143.943C124.843 143.877 124.731 143.854 124.625 143.881C124.518 143.908 124.429 143.981 124.382 144.081L124.71 144.236ZM117.881 158.628L117.553 158.472C117.514 158.553 117.506 158.646 117.531 158.732L117.881 158.628ZM125.409 184.887L125.51 185.238C125.703 185.18 125.815 184.976 125.759 184.783L125.409 184.887ZM115.63 187.795L115.98 187.691L92.7595 106.699L92.4097 106.803L92.0599 106.907L115.28 187.899L115.63 187.795ZM92.4097 106.803L92.5103 107.154L102.29 104.246L102.189 103.895L102.089 103.544L92.3091 106.452L92.4097 106.803ZM102.189 103.895L101.839 103.999L113.359 144.178L113.708 144.074L114.058 143.97L102.539 103.791L102.189 103.895ZM113.708 144.074L113.809 144.425L114.755 144.144L114.655 143.793L114.554 143.442L113.608 143.724L113.708 144.074ZM114.655 143.793L114.982 143.951L139.741 92.9834L139.414 92.825L139.087 92.6667L114.328 143.635L114.655 143.793ZM139.414 92.825L139.515 93.1759L152.291 89.3765L152.191 89.0257L152.09 88.6748L139.314 92.4742L139.414 92.825ZM152.191 89.0257L151.866 88.8628L128.43 135.489L128.754 135.652L129.079 135.815L152.515 89.1885L152.191 89.0257ZM128.754 135.652L128.537 135.947L175.194 170.313L175.411 170.018L175.627 169.722L128.971 135.356L128.754 135.652ZM175.411 170.018L175.31 169.667L163.48 173.185L163.581 173.535L163.681 173.886L175.511 170.368L175.411 170.018ZM163.581 173.535L163.801 173.242L124.93 143.943L124.71 144.236L124.491 144.53L163.361 173.829L163.581 173.535ZM124.71 144.236L124.382 144.081L117.553 158.472L117.881 158.628L118.209 158.783L125.039 144.391L124.71 144.236ZM117.881 158.628L117.531 158.732L125.059 184.991L125.409 184.887L125.759 184.783L118.231 158.524L117.881 158.628ZM125.409 184.887L125.309 184.536L115.529 187.444L115.63 187.795L115.73 188.146L125.51 185.238L125.409 184.887Z" fill="black"/>
</g>
<defs>
<clipPath id="clip0_1251_8901">
<rect width="200" height="200" fill="white" transform="translate(28 28)"/>
</clipPath>
</defs>
</svg>
