<svg width="256" height="256" viewBox="0 0 256 256" fill="none" xmlns="http://www.w3.org/2000/svg">
<g clip-path="url(#clip0_1251_8923)">
<rect width="256" height="256" fill="white"/>
<g clip-path="url(#clip1_1251_8923)">
<mask id="mask0_1251_8923" style="mask-type:luminance" maskUnits="userSpaceOnUse" x="0" y="0" width="256" height="256">
<path d="M256 0H0V256H256V0Z" fill="white"/>
</mask>
<g mask="url(#mask0_1251_8923)">
<path d="M256 0H0V256H256V0Z" fill="#0D1822"/>
<path d="M127.999 221.072C179.402 221.072 221.072 179.402 221.072 127.998C221.072 76.5953 179.402 34.9248 127.999 34.9248C76.5957 34.9248 34.9252 76.5953 34.9252 127.998C34.9252 179.402 76.5957 221.072 127.999 221.072Z" fill="#0084FF" stroke="black" stroke-width="10.3641"/>
<path d="M127.999 161.142C146.304 161.142 161.143 146.303 161.143 127.998C161.143 109.693 146.304 94.8545 127.999 94.8545C109.694 94.8545 94.855 109.693 94.855 127.998C94.855 146.303 109.694 161.142 127.999 161.142Z" fill="white" stroke="black" stroke-width="9.99994"/>
<path d="M183.894 127.999C183.894 158.869 158.869 183.894 127.999 183.894M72.1047 127.999C72.1047 97.1294 97.1296 72.1045 127.999 72.1045" stroke="black" stroke-width="9.99994" stroke-linecap="round"/>
<path d="M201.429 127.999C201.429 128.944 201.412 129.885 201.376 130.821M199.655 144.117C192.308 176.918 163.016 201.429 127.999 201.429M54.5696 127.999C54.5696 127.156 54.5839 126.315 54.612 125.478M56.034 113.335C62.8293 79.8071 92.467 54.5693 127.999 54.5693" stroke="black" stroke-width="9.99994" stroke-linecap="round"/>
<path d="M127.999 134.846C131.781 134.846 134.846 131.78 134.846 127.998C134.846 124.216 131.781 121.15 127.999 121.15C124.217 121.15 121.151 124.216 121.151 127.998C121.151 131.78 124.217 134.846 127.999 134.846Z" fill="white" stroke="black" stroke-width="9.99994"/>
</g>
</g>
</g>
<defs>
<clipPath id="clip0_1251_8923">
<rect width="256" height="256" fill="white"/>
</clipPath>
<clipPath id="clip1_1251_8923">
<rect width="256" height="256" fill="white"/>
</clipPath>
</defs>
</svg>
