<svg width="256" height="256" viewBox="0 0 256 256" fill="none" xmlns="http://www.w3.org/2000/svg">
<g clip-path="url(#clip0_1251_8921)">
<rect width="256" height="256" fill="white"/>
<g clip-path="url(#clip1_1251_8921)">
<mask id="mask0_1251_8921" style="mask-type:luminance" maskUnits="userSpaceOnUse" x="0" y="0" width="256" height="256">
<path d="M256 0H0V256H256V0Z" fill="white"/>
</mask>
<g mask="url(#mask0_1251_8921)">
<path d="M256 0H0V256H256V0Z" fill="#1C2130"/>
<path d="M169.157 40.2048C171.395 41.2825 172.316 44.0353 170.536 45.7691C170.229 46.073 169.918 46.3769 169.599 46.6881C169.276 47.0031 168.954 47.3144 168.621 47.6368C167.644 48.588 166.995 49.2205 166.466 49.7585C164.303 51.9562 161.171 53.0097 158.296 51.8947C148.428 48.0926 138.734 46.2805 128.154 46.3324C127.591 46.3324 127.591 46.3324 127.013 46.3362C121.384 46.3584 115.944 46.5511 110.456 47.9037C109.878 48.0408 109.878 48.0408 109.289 48.1816C96.0554 51.4093 83.5524 57.5052 73.5618 66.8473C72.6243 67.7181 71.6608 68.5259 70.6714 69.3375C54.9688 83.1495 48.1508 103.8 46.0294 123.939C45.9841 124.369 46.3259 124.744 46.7585 124.738C47.9702 124.726 49.182 124.723 50.3938 124.715C50.8162 124.712 51.2387 124.708 51.6722 124.704C52.0762 124.7 52.4801 124.701 52.8951 124.701C53.2694 124.697 53.64 124.693 54.0254 124.689C55.2378 124.762 55.9079 125.987 55.9079 127.201C55.9079 127.488 55.9079 127.775 55.9079 128.063C55.9079 129.808 54.889 131.448 53.1439 131.433C53.0635 131.432 52.9807 131.431 52.8951 131.43C52.4912 131.43 52.0873 131.43 51.6722 131.426C51.2498 131.423 50.8273 131.419 50.3938 131.415C49.9676 131.412 49.5415 131.412 49.1042 131.408C47.4192 131.402 46.0894 132.851 46.2888 134.525C47.5468 145.077 49.8611 154.827 54.5405 164.57C54.7393 165.029 54.8437 165.271 54.8985 165.499C55.0112 165.968 55.4392 166.316 55.893 166.153C91.8184 153.523 130.286 150.816 199.709 166.187C200.462 166.354 201.234 165.925 201.475 165.193C201.89 163.963 202.335 162.781 202.839 161.587C205.025 156.344 206.893 151.152 208.168 145.616C208.283 145.134 208.283 145.134 208.405 144.645C210.858 134.087 210.758 121.028 208.168 110.515C208.031 109.937 208.031 109.937 207.89 109.348C205.38 99.0646 201.285 88.8689 194.628 80.5634C194.259 80.1036 193.824 79.5293 193.63 78.9729C193.292 78.0042 193.935 77.0928 194.568 76.2856C195.251 75.4151 196.014 74.6618 196.873 73.8436C197.139 73.5859 197.404 73.3272 197.667 73.0672C200.802 69.965 205.648 69.4617 208.049 73.1618C208.424 73.7325 208.424 73.7325 208.805 74.318C209.55 75.4704 210.284 76.6266 211.014 77.7865C211.214 78.1015 211.41 78.4128 211.614 78.7352C224.888 100.01 227.804 126.965 222.309 151.1C220.345 159.145 217.347 166.812 213.385 174.076C213.234 174.357 213.082 174.642 212.926 174.935C204.87 189.943 192.652 202.076 178.285 211.073C178 211.251 177.718 211.433 177.425 211.618C156.299 224.77 129.555 227.853 105.535 222.535C80.1395 216.558 58.7575 200.312 44.9983 178.344C44.8204 178.059 44.6388 177.777 44.4535 177.481C31.302 156.359 28.2188 129.614 33.5365 105.594C39.5138 80.1989 55.7596 58.817 77.727 45.0577C78.1532 44.7872 78.1532 44.7872 78.5905 44.513C105.142 27.9849 141.063 26.6811 169.157 40.2048Z" fill="#E6E8FD"/>
<path d="M187.623 51.0456C190.247 52.3389 191.748 54.1732 192.93 56.8265C193.864 59.628 193.512 62.0071 192.237 64.6307C190.951 66.7837 189.243 68.5217 187.505 70.3153C187.168 70.6673 186.83 71.023 186.486 71.3862C184.151 73.8209 181.776 76.2073 179.374 78.579C178.437 79.5313 177.551 80.5022 176.684 81.5213C175.172 83.2963 173.538 84.9231 171.882 86.5611C170.244 88.1805 168.628 89.785 167.138 91.5415C165.649 93.298 164.033 94.9026 162.395 96.522C160.768 98.1303 159.16 99.7237 157.681 101.473C155.843 103.644 153.798 105.605 151.778 107.606C150.085 109.288 148.476 111.004 146.935 112.827C145.404 114.535 143.755 116.121 142.125 117.73C140.72 119.127 139.364 120.531 138.086 122.047C132.935 128.05 132.935 128.05 128.955 128.539C125.92 128.565 123.73 128.202 121.365 126.168C119.105 123.874 118.019 121.88 117.867 118.667C118.023 113.809 120.902 111.293 124.234 108.084C125.316 107.042 126.324 105.972 127.294 104.823C128.714 103.151 130.244 101.617 131.801 100.079C133.327 98.5712 134.832 97.0704 136.218 95.4251C137.878 93.4685 139.701 91.6861 141.524 89.8814C143.607 87.821 145.627 85.7606 147.517 83.5187C149.04 81.8178 150.689 80.2354 152.312 78.6271C153.672 77.2783 154.991 75.9257 156.229 74.4656C157.967 72.4164 159.89 70.5561 161.798 68.6699C163.158 67.3173 164.478 65.9648 165.715 64.5047C167.453 62.4555 169.369 60.5952 171.281 58.7164C172.712 57.3045 174.038 55.8778 175.291 54.3066C178.567 50.4786 182.95 49.2187 187.623 51.0456Z" fill="#E6E8FD"/>
<path d="M45.9453 128.064C45.9453 126.227 47.4274 124.733 49.2647 124.722C49.6405 124.719 50.0163 124.717 50.3922 124.715C51.0258 124.708 51.0258 124.708 51.6706 124.704C52.2746 124.701 52.2746 124.701 52.8935 124.701C53.2678 124.697 53.6383 124.693 54.0237 124.689C55.2361 124.762 55.9062 125.987 55.9062 127.201C55.9062 127.488 55.9062 127.775 55.9062 128.063C55.9062 129.808 54.8873 131.448 53.1423 131.432C53.0619 131.432 52.9791 131.431 52.8935 131.43C52.4896 131.43 52.0857 131.43 51.6706 131.426C51.2482 131.423 50.8257 131.419 50.3922 131.415C49.7548 131.411 49.7548 131.411 49.1026 131.408C47.3552 131.401 45.9453 129.975 45.9453 128.228C45.9453 128.174 45.9453 128.119 45.9453 128.064Z" fill="#E68A00"/>
<path d="M125.118 49.4783C125.136 47.7257 126.567 46.3213 128.319 46.3213C128.379 46.3213 128.438 46.3213 128.497 46.3213C130.337 46.3213 131.843 47.7866 131.877 49.6259C131.882 49.9177 131.887 50.2095 131.892 50.5013C131.903 50.8978 131.914 51.2906 131.929 51.6982C131.936 52.2689 131.936 52.2689 131.943 52.8507C131.946 52.9552 131.947 53.039 131.949 53.1103C131.96 53.6452 131.942 54.2552 131.742 54.7512C131.215 56.0533 129.655 56.4588 128.251 56.4311C128.239 56.4309 128.228 56.4307 128.216 56.4304C127.845 56.4304 127.471 56.4266 127.089 56.4228C127.01 56.4115 126.938 56.4011 126.871 56.3911C125.546 56.192 125.052 54.6089 125.069 53.2693C125.073 52.8654 125.077 52.4614 125.081 52.0464C125.088 51.6239 125.095 51.2015 125.103 50.7679C125.107 50.3418 125.11 49.9156 125.118 49.4783Z" fill="#42C557"/>
<path d="M203.577 124.701C203.959 124.701 204.34 124.701 204.737 124.704C205.333 124.708 205.333 124.708 205.945 124.716C206.349 124.719 206.749 124.719 207.168 124.723C208.821 124.729 210.155 126.079 210.155 127.732C210.155 127.843 210.155 127.955 210.155 128.066C210.155 129.904 208.673 131.399 206.835 131.41C206.539 131.412 206.242 131.414 205.945 131.416C205.345 131.423 205.345 131.423 204.737 131.427C204.351 131.43 203.97 131.43 203.577 131.43C203.225 131.434 202.873 131.438 202.51 131.442C201.322 131.367 200.668 130.16 200.668 128.97C200.668 128.669 200.668 128.368 200.668 128.065C200.668 126.321 201.685 124.684 203.429 124.699C203.477 124.7 203.527 124.7 203.577 124.701Z" fill="#C54242"/>
</g>
</g>
</g>
<defs>
<clipPath id="clip0_1251_8921">
<rect width="256" height="256" fill="white"/>
</clipPath>
<clipPath id="clip1_1251_8921">
<rect width="256" height="256" fill="white"/>
</clipPath>
</defs>
</svg>
