<svg width="256" height="256" viewBox="0 0 256 256" fill="none" xmlns="http://www.w3.org/2000/svg">
<g clip-path="url(#clip0_1251_8911)">
<rect width="256" height="256" fill="white"/>
<path d="M163.348 186.572V213.964H159.891V209.27C156.759 213.017 153.188 214.894 149.16 214.894C145.133 214.894 141.729 213.464 138.948 210.613C136.193 207.726 134.824 204.304 134.824 200.347C134.824 196.355 136.219 192.951 139 190.135C141.782 187.283 145.124 185.853 149.011 185.853C153.486 185.853 157.11 187.766 159.9 191.582V186.581H163.348M160.101 200.391C160.101 197.259 159.049 194.627 156.952 192.495C154.855 190.328 152.275 189.249 149.213 189.249C146.186 189.249 143.624 190.363 141.527 192.6C139.43 194.802 138.377 197.417 138.377 200.444C138.377 203.471 139.448 206.103 141.58 208.34C143.712 210.543 146.256 211.639 149.213 211.639C152.205 211.639 154.767 210.569 156.899 208.437C159.04 206.314 160.101 203.629 160.101 200.391Z" fill="#1F305F"/>
<path d="M170.351 213.964V176.93H178.037C183.302 176.93 187.153 177.325 189.592 178.114C192.067 178.869 194.199 180.089 195.989 181.773C197.778 183.423 199.156 185.449 200.112 187.862C201.077 190.266 201.56 193.091 201.56 196.32C201.56 199.523 200.805 202.541 199.287 205.401C197.805 208.217 195.778 210.35 193.198 211.797C190.654 213.245 186.978 213.964 182.161 213.964H170.351ZM173.913 210.455H178.195C182.67 210.455 185.899 210.235 187.89 209.788C189.917 209.341 191.689 208.463 193.207 207.156C194.716 205.813 195.874 204.199 196.664 202.304C197.454 200.409 197.849 198.25 197.849 195.802C197.849 193.363 197.384 191.108 196.454 189.047C195.559 186.985 194.269 185.283 192.584 183.94C190.9 182.598 188.908 181.703 186.601 181.255C184.328 180.773 180.976 180.536 176.546 180.536H173.913V210.455Z" fill="#1F305F"/>
<path d="M124.35 178.939C124.35 178.15 124.622 177.456 125.175 176.877C125.763 176.29 126.447 176 127.237 176C128.061 176 128.746 176.29 129.299 176.877C129.886 177.43 130.176 178.114 130.176 178.939C130.176 179.729 129.886 180.422 129.299 181.001C128.746 181.554 128.061 181.826 127.237 181.826C126.447 181.826 125.754 181.536 125.175 180.948C124.622 180.361 124.35 179.694 124.35 178.939ZM125.482 186.572H129.044V213.964H125.482V186.572Z" fill="#1F305F"/>
<path d="M28 213.964L33.2643 176.93H33.8346L48.8905 207.305L63.8499 176.921H64.4202L69.7372 213.956H66.0785L62.4637 187.441L49.3643 213.956H48.4343L35.177 187.239L31.5622 213.956H28" fill="#1F305F"/>
<path d="M101.847 186.572V213.964H98.3904V209.27C95.2581 213.017 91.6871 214.894 87.6599 214.894C83.6328 214.894 80.2285 213.464 77.4472 210.613C74.6922 207.726 73.3235 204.304 73.3235 200.347C73.3235 196.355 74.7185 192.951 77.4998 190.135C80.2811 187.283 83.624 185.853 87.5108 185.853C91.9854 185.853 95.609 187.766 98.3991 191.582V186.581H101.847M98.6009 200.391C98.6009 197.259 97.5481 194.627 95.4511 192.495C93.3542 190.328 90.7747 189.249 87.7126 189.249C84.6856 189.249 82.1236 190.363 80.0267 192.6C77.9297 194.802 76.8769 197.417 76.8769 200.444C76.8769 203.471 77.9385 206.103 80.0793 208.34C82.2114 210.543 84.7558 211.639 87.7126 211.639C90.7045 211.639 93.2664 210.569 95.3985 208.437C97.5305 206.314 98.6009 203.629 98.6009 200.391Z" fill="#1F305F"/>
<path d="M107.816 186.572H111.43V190.547C112.396 188.933 113.326 187.748 114.212 186.985C115.142 186.23 116.151 185.853 117.256 185.853C118.388 185.853 119.529 186.16 120.661 186.783L118.801 189.775C118.283 189.468 117.748 189.31 117.204 189.31C116.142 189.31 115.124 189.863 114.159 190.959C113.229 192.056 112.545 193.486 112.097 195.241C111.65 196.961 111.43 200.111 111.43 204.682V213.964H107.816V186.572Z" fill="#1F305F"/>
<path d="M205.776 176.921H213.102C216.989 176.921 219.928 177.711 221.92 179.29C223.947 180.834 224.964 183.072 224.964 185.993C224.964 187.608 224.552 189.108 223.727 190.477C222.938 191.819 221.771 192.898 220.218 193.723C222.762 194.548 224.692 195.785 225.991 197.434C227.333 199.084 228 201.049 228 203.313C228 206.375 226.886 208.919 224.648 210.946C222.411 212.938 219.525 213.938 215.98 213.938H205.776V176.921ZM209.435 180.536V192.398H211.549C214.778 192.398 217.191 191.881 218.77 190.854C220.349 189.819 221.139 188.204 221.139 186.002C221.139 182.361 218.665 180.536 213.707 180.536H209.435ZM209.435 196.118V210.349H214.023C216.673 210.349 218.612 210.095 219.849 209.577C221.121 209.025 222.157 208.2 222.946 207.103C223.736 205.971 224.131 204.813 224.131 203.646C224.131 202.479 223.911 201.444 223.464 200.549C223.017 199.654 222.35 198.865 221.455 198.18C220.595 197.496 219.542 196.978 218.305 196.636C217.103 196.294 214.831 196.118 211.496 196.118H209.435Z" fill="#1F305F"/>
<path fill-rule="evenodd" clip-rule="evenodd" d="M223.622 36.0035C220.552 36.1047 221.441 37.488 214.794 39.1299C208.081 40.783 199.961 39.7709 192.741 42.8073C173.848 50.7244 170.789 81.3357 148.286 93.1776C133.531 101.511 118.484 103.423 105.034 107.64C94.2383 111.97 87.5245 114.837 79.6074 121.664C73.4672 126.96 71.9715 132.1 65.5501 138.746C59.0387 147.597 34.3539 139.736 28 150.835C31.3513 153.006 33.2855 153.602 39.1671 152.826C37.9525 155.131 30.2154 158.168 31.6211 161.564C31.6211 161.564 50.3231 164.971 66.0898 155.457C73.4447 152.466 80.3383 146.135 91.7642 144.616C106.564 142.648 123.241 147.72 141.134 149.148C137.434 156.458 133.621 160.777 129.539 166.805C128.28 168.165 130.619 169.369 134.96 168.548C142.764 166.613 148.421 164.522 154.033 160.642C161.354 155.592 164.503 150.97 170.677 143.649C176.041 152.252 194.957 154.142 198.836 146.708C191.617 143.649 190.076 127.736 192.55 120.865C195.474 114.32 197.577 105.065 199.939 96.4614C202.064 88.713 203.38 76.8936 205.921 70.8433C208.958 63.3198 214.862 60.9694 219.293 56.9771C223.724 52.9848 228.132 49.656 227.997 40.5244C227.952 37.5554 226.423 35.9135 223.622 36.0035Z" fill="#1F305F"/>
<path d="M33.6455 159.989C45.24 160.338 48.3889 160.034 57.5543 156.053C65.3477 152.668 75.7725 143.548 84.9829 140.602C98.5005 136.261 112.997 136.913 127.38 138.611C132.193 139.185 137.029 139.983 140.482 139.612C145.868 136.306 146.127 127.331 149.467 126.612C148.556 143.975 141.111 155.086 133.666 165.163C149.354 162.396 159.836 152.601 166.178 140.478C168.101 136.8 171.295 130.784 172.757 126.645C173.915 129.389 171.25 131.133 172.499 134.124C182.597 125.791 187.366 116.299 191.459 102.399C196.205 86.3178 201.074 72.4966 204.133 67.7396C207.113 63.095 211.758 60.2273 215.998 57.2584C220.811 53.8734 225.118 50.3534 225.86 43.9095C220.777 43.4372 219.608 42.2676 218.854 39.7036C216.313 41.1318 213.973 41.4467 211.331 41.5254C209.036 41.5929 206.517 41.4917 203.436 41.8066C177.987 44.4156 176.806 69.2915 158.306 87.5549C157.114 88.7132 155.079 90.4226 153.729 91.4347C148.016 95.6969 141.898 98.036 135.454 100.499C125.018 104.48 115.122 105.638 105.338 109.079C98.152 111.598 91.4718 114.489 85.5677 118.526C84.0945 119.538 82.0927 121.337 80.8107 122.383C77.347 125.217 75.0754 128.355 72.8712 131.594C70.5995 134.922 68.4177 138.352 65.0777 141.625C59.6684 146.933 39.4708 143.177 32.3522 148.103C31.565 148.654 30.9239 149.306 30.4966 150.093C34.3764 151.859 36.9742 150.779 41.4388 151.263C41.9899 155.525 32.1948 158.044 33.6455 159.989Z" fill="#C0765A"/>
<path fill-rule="evenodd" clip-rule="evenodd" d="M194.957 52.3327C198.555 55.459 206.112 52.9512 204.763 46.7322C199.162 46.2599 195.924 48.1604 194.957 52.3327Z" fill="#1F305F"/>
<path d="M220.069 45.0564C219.113 47.0694 217.28 49.656 217.28 54.7728C217.268 55.65 216.616 56.2573 216.605 54.8966C216.65 49.8921 217.977 47.7329 219.383 44.899C220.024 43.7406 220.417 44.213 220.069 45.0564Z" fill="#1F305F"/>
<path d="M219.101 44.3028C217.966 46.2146 215.244 49.7121 214.806 54.8177C214.727 55.6949 214.007 56.2347 214.12 54.8852C214.614 49.9145 216.785 46.7994 218.438 44.0891C219.18 42.987 219.529 43.4931 219.101 44.3028Z" fill="#1F305F"/>
<path d="M218.224 43.3023C216.931 45.1129 212.748 49.3189 211.87 54.357C211.713 55.223 210.959 55.6953 211.184 54.3683C212.095 49.4538 215.705 45.5852 217.572 43.0324C218.404 41.9866 218.719 42.5264 218.224 43.3023Z" fill="#1F305F"/>
<path d="M217.437 42.1775C215.908 43.7969 210.915 49.1499 209.34 54.0194C209.059 54.8516 208.249 55.2227 208.654 53.9294C210.24 49.1836 214.615 44.078 216.83 41.8176C217.808 40.9067 218.033 41.4915 217.437 42.1775Z" fill="#1F305F"/>
</g>
<defs>
<clipPath id="clip0_1251_8911">
<rect width="256" height="256" fill="white"/>
</clipPath>
</defs>
</svg>
