<svg width="256" height="256" viewBox="0 0 256 256" fill="none" xmlns="http://www.w3.org/2000/svg">
<rect width="256" height="256" fill="white"/>
<g clip-path="url(#clip0_1251_8903)">
<path d="M109.292 40.6667C106.708 40.6667 104.225 41.7001 102.392 43.5251L61.6417 84.2668C59.8143 86.0956 57.3353 87.1237 54.75 87.1251H37.75C36.4483 87.1247 35.1597 87.3849 33.9602 87.8904C32.7607 88.396 31.6745 89.1366 30.7658 90.0686C29.8571 91.0006 29.1442 92.1052 28.6692 93.3171C28.1941 94.529 27.9666 95.8238 28 97.1251L28.4333 113.658C28.4985 116.201 29.5545 118.617 31.3759 120.392C33.1974 122.166 35.6402 123.159 38.1833 123.158H57.9333C60.5167 123.158 62.9917 122.125 64.825 120.292L105.908 79.2084C107.742 77.3751 110.217 76.3501 112.8 76.3501H136.75C138.03 76.3501 139.298 76.0979 140.481 75.6079C141.664 75.1179 142.739 74.3997 143.644 73.4944C144.55 72.589 145.268 71.5142 145.758 70.3312C146.248 69.1483 146.5 67.8805 146.5 66.6001V50.4167C146.5 47.8309 145.473 45.3509 143.644 43.5225C141.816 41.694 139.336 40.6667 136.75 40.6667H109.292ZM190.792 61.5251C188.208 61.5251 185.725 62.5501 183.892 64.3834L143.15 105.125C141.321 106.951 138.842 107.976 136.258 107.975H113.292C110.708 107.975 108.225 109.008 106.4 110.842L62.5833 154.642C60.7559 156.471 58.277 157.499 55.6917 157.5H39C36.4141 157.5 33.9342 158.527 32.1057 160.356C30.2772 162.184 29.25 164.664 29.25 167.25V183.883C29.25 189.267 33.6167 193.633 39 193.633H55.8083C58.325 193.633 60.7417 192.667 62.5583 190.925L108.683 146.725C110.498 144.982 112.917 144.009 115.433 144.008H139.433C142.017 144.008 144.492 142.983 146.325 141.158L187.408 100.075C189.242 98.2418 191.717 97.2084 194.3 97.2084H218.242C219.523 97.2095 220.792 96.9581 221.975 96.4686C223.159 95.9791 224.235 95.2611 225.141 94.3557C226.048 93.4502 226.767 92.375 227.257 91.1915C227.748 90.008 228 88.7395 228 87.4584V71.2751C228 68.6892 226.973 66.2093 225.144 64.3808C223.316 62.5523 220.836 61.5251 218.25 61.5251H190.792ZM190.792 132.85C188.208 132.85 185.725 133.875 183.892 135.708L143.15 176.45C141.323 178.279 138.844 179.307 136.258 179.308H119.258C117.957 179.308 116.668 179.568 115.469 180.074C114.269 180.579 113.183 181.32 112.274 182.252C111.365 183.184 110.653 184.288 110.177 185.5C109.702 186.712 109.475 188.007 109.508 189.308L109.942 205.842C110.007 208.384 111.063 210.8 112.884 212.575C114.706 214.35 117.149 215.343 119.692 215.342H139.442C142.025 215.342 144.5 214.308 146.333 212.483L187.417 171.4C189.25 169.567 191.725 168.542 194.308 168.542H218.25C220.836 168.542 223.316 167.515 225.144 165.686C226.973 163.858 228 161.378 228 158.792V142.6C228 140.014 226.973 137.534 225.144 135.706C223.316 133.877 220.836 132.85 218.25 132.85H190.792Z" fill="black"/>
</g>
<defs>
<clipPath id="clip0_1251_8903">
<rect width="200" height="200" fill="white" transform="translate(28 28)"/>
</clipPath>
</defs>
</svg>
