<svg width="256" height="256" viewBox="0 0 256 256" fill="none" xmlns="http://www.w3.org/2000/svg">
<rect width="256" height="256" fill="url(#paint0_linear_1229_207)"/>
<path d="M127.787 233.338C185.964 233.338 233.126 186.177 233.126 128C233.126 69.8231 185.964 22.6616 127.787 22.6616C69.6105 22.6616 22.449 69.8231 22.449 128C22.449 186.177 69.6105 233.338 127.787 233.338Z" fill="url(#paint1_linear_1229_207)"/>
<path d="M196.21 120.166C195.359 119.442 194.039 118.42 192.208 117.185V103.22C192.208 67.6242 163.383 38.7988 127.787 38.7988C92.1919 38.7988 63.3666 67.6242 63.3666 103.22V117.185C61.5783 118.42 60.2584 119.484 59.3642 120.166C58.6404 120.762 58.2146 121.656 58.2146 122.635V139.368C58.2146 140.305 58.6404 141.199 59.3642 141.838C61.3654 143.498 65.9212 146.947 73.0318 150.524V152.142C73.0318 156.527 75.8419 160.061 79.3333 160.061C82.8248 160.061 85.6349 156.485 85.6349 152.142V112.033C85.6349 107.648 82.8248 104.114 79.3333 104.114C75.9697 104.114 73.2447 107.392 73.0318 111.48V103.22C73.0318 72.9891 97.5568 48.4641 127.787 48.4641C158.06 48.4641 182.543 72.9891 182.543 103.22V111.48C182.33 107.35 179.562 104.114 176.241 104.114C172.75 104.114 169.94 107.69 169.94 112.033V152.142C169.94 156.527 172.75 160.061 176.241 160.061C179.733 160.061 182.543 156.485 182.543 152.142V150.524C189.653 146.947 194.209 143.498 196.21 141.838C196.934 141.242 197.36 140.305 197.36 139.368V122.635C197.317 121.656 196.934 120.762 196.21 120.166Z" fill="white"/>
<path d="M105.306 189.866C109.521 189.866 112.927 186.46 112.927 182.245V96.833C112.927 92.6177 109.521 89.2115 105.306 89.2115H97.4288C93.2135 89.2115 89.8073 92.6177 89.8073 96.833V182.245C89.8073 186.46 93.2135 189.866 97.4288 189.866H105.306ZM92.7026 109.692H110.074V111.522H92.7026V109.692ZM131.704 189.866C135.919 189.866 139.326 186.46 139.326 182.245V96.833C139.326 92.6177 135.919 89.2115 131.704 89.2115H123.827C119.612 89.2115 116.206 92.6177 116.206 96.833V182.245C116.206 186.46 119.612 189.866 123.827 189.866H131.704ZM119.101 109.692H136.473V111.522H119.101V109.692ZM158.145 189.866C162.36 189.866 165.767 186.46 165.767 182.245V96.833C165.767 92.6177 162.36 89.2115 158.145 89.2115H150.268C146.053 89.2115 142.647 92.6177 142.647 96.833V182.245C142.647 186.46 146.053 189.866 150.268 189.866H158.145ZM145.499 109.692H162.871V111.522H145.499V109.692ZM76.6506 192.506H178.923C182.074 192.506 184.671 195.061 184.671 198.254C184.671 201.405 182.117 204.002 178.923 204.002H76.6506C73.4999 204.002 70.9026 201.447 70.9026 198.254C70.9026 195.061 73.4573 192.506 76.6506 192.506Z" fill="white"/>
<defs>
<linearGradient id="paint0_linear_1229_207" x1="128.002" y1="-0.0175909" x2="127" y2="233.5" gradientUnits="userSpaceOnUse">
<stop offset="0.39425" stop-color="#CD9D49"/>
<stop offset="0.99" stop-color="#875D27"/>
</linearGradient>
<linearGradient id="paint1_linear_1229_207" x1="127.789" y1="22.6471" x2="127.789" y2="233.353" gradientUnits="userSpaceOnUse">
<stop offset="0.32" stop-color="#CD9D49"/>
<stop offset="0.99" stop-color="#875D27"/>
</linearGradient>
</defs>
</svg>
