<svg width="256" height="256" viewBox="0 0 256 256" fill="none" xmlns="http://www.w3.org/2000/svg">
<g clip-path="url(#clip0_1251_8891)">
<rect width="256" height="256" fill="white"/>
<g clip-path="url(#clip1_1251_8891)">
<path d="M256 0H0V256H256V0Z" fill="#F7F8FD"/>
<path d="M121.644 88.4818C134.956 100.266 145.687 112.901 152.588 124.803C164.447 103.594 172.368 78.3944 172.471 62.3419C172.471 62.2291 172.471 62.1257 172.471 62.0317C172.471 38.2797 148.775 29.0337 128.37 29.0337C107.965 29.0337 84.2695 38.275 84.2695 62.0317C84.2695 62.356 84.2695 62.7932 84.2695 63.3149C95.6402 68.3634 109.131 77.3978 121.644 88.4818Z" fill="#FA2921"/>
<path d="M49.0247 153.251C57.3447 143.996 70.1067 133.96 84.514 125.48C99.8378 116.46 115.166 110.161 128.619 107.275C112.116 89.4408 90.5965 74.1217 75.3573 69.0639C75.2491 69.0309 75.1504 68.998 75.0611 68.9651C52.4702 61.6275 36.3566 81.3041 30.0532 100.713C23.745 120.121 25.2163 145.514 47.8072 152.851C48.1127 152.955 48.5264 153.086 49.0247 153.251Z" fill="#ED79B5"/>
<path d="M226.922 100.384C220.614 80.975 204.505 61.2984 181.914 68.636C181.604 68.7347 181.19 68.871 180.692 69.0308C179.399 81.4121 174.976 97.0321 168.301 112.356C161.208 128.658 152.507 142.764 143.322 153.007C167.154 157.731 193.571 157.481 208.872 152.616C208.98 152.583 209.079 152.551 209.168 152.518C231.759 145.185 233.23 119.792 226.922 100.384Z" fill="#FFB400"/>
<path d="M108.227 172.227C104.387 154.868 103.132 138.341 104.542 124.657C82.4821 134.843 61.259 150.576 51.7403 163.503C51.6745 163.592 51.6134 163.677 51.557 163.757C37.5963 182.973 51.3314 204.379 67.8398 216.375C84.3482 228.371 108.951 234.82 122.912 215.604C123.104 215.341 123.358 214.988 123.664 214.565C117.435 203.787 111.837 188.547 108.227 172.227Z" fill="#1E83F7"/>
<path d="M205.046 162.511C192.871 165.11 176.649 165.726 160.009 164.119C142.312 162.408 126.208 158.497 113.629 152.922C116.501 177.05 124.906 202.095 134.26 215.143C134.326 215.233 134.387 215.317 134.443 215.397C148.404 234.613 173.007 228.164 189.515 216.168C206.023 204.172 219.763 182.766 205.802 163.55C205.61 163.287 205.356 162.934 205.046 162.511Z" fill="#18C249"/>
</g>
</g>
<defs>
<clipPath id="clip0_1251_8891">
<rect width="256" height="256" fill="white"/>
</clipPath>
<clipPath id="clip1_1251_8891">
<rect width="256" height="256" fill="white"/>
</clipPath>
</defs>
</svg>
