<svg width="256" height="256" viewBox="0 0 256 256" fill="none" xmlns="http://www.w3.org/2000/svg">
<rect width="256" height="256" fill="white"/>
<g clip-path="url(#clip0_1230_66)">
<path fill-rule="evenodd" clip-rule="evenodd" d="M76.5008 76.4146C57.3743 71.0114 71.5949 46.6806 86.9756 56.6914L76.5008 76.4146ZM161.493 54.8682C176.641 44.2277 190.332 68.227 172.73 74.2599L161.493 54.8682Z" fill="#7ACDC9" stroke="black" stroke-width="0.994445" stroke-linecap="round"/>
<path fill-rule="evenodd" clip-rule="evenodd" d="M164.774 197.438C168.62 199.825 175.647 207.018 169.879 210.499C164.343 215.57 161.228 204.93 156.388 203.471C158.443 200.587 161.095 198.002 164.774 197.438Z" fill="#F6D2A2" stroke="black" stroke-width="0.994445" stroke-linecap="round"/>
<path d="M169.879 210.499C169.017 208.809 168.752 206.82 167.294 205.461" stroke="black" stroke-width="0.994445" stroke-linecap="round"/>
<path fill-rule="evenodd" clip-rule="evenodd" d="M96.0251 205.56C91.5169 206.256 88.9977 210.333 85.1856 212.388C81.6719 214.51 80.2797 211.692 79.9814 211.162C79.3847 210.897 79.4842 211.394 78.6223 210.532C75.3406 205.328 82.0366 201.549 85.5503 198.963C90.4231 198.002 93.4727 202.212 96.0251 205.56Z" fill="#F6D2A2" stroke="black" stroke-width="0.994445" stroke-linecap="round"/>
<path d="M80.0145 211.162C80.1803 209.173 81.7714 207.847 82.5006 206.19" stroke="black" stroke-width="0.994445" stroke-linecap="round"/>
<path fill-rule="evenodd" clip-rule="evenodd" d="M77.2964 69.6851C74.7771 68.3592 72.9208 66.536 74.4788 63.619C75.9042 60.9008 78.5892 61.1991 81.1084 62.5582L77.2964 69.6851ZM168.719 67.1327C171.238 65.8067 173.095 63.9836 171.537 61.0666C170.111 58.3484 167.426 58.6467 164.94 60.0058L168.719 67.1327Z" fill="black"/>
<path fill-rule="evenodd" clip-rule="evenodd" d="M123.638 44.7578C126.024 44.7578 128.411 44.791 130.764 44.9236C131.593 44.9567 133.35 43.3988 134.146 43.4651C135.405 43.5645 135.703 45.2551 136.897 45.3877C150.786 46.9456 162.951 51.8516 170.078 65.9064C172.398 71.7405 174.023 77.8397 174.885 84.0716C174.984 84.7346 176.84 84.9666 176.94 85.6296C177.039 86.4251 175.349 87.6516 175.448 88.4471C176.907 102.303 175.979 116.491 176.807 130.545C177.57 143.738 179.028 158.39 176.774 171.981C176.608 172.975 177.769 174.4 177.57 175.362C177.338 176.489 175.746 177.119 175.448 178.212C174.553 181.66 173.294 185.008 171.702 188.223C167.791 196.079 161.327 201.383 153.769 204.864C152.244 205.56 151.084 208.245 149.46 208.775C147.703 209.372 145.416 207.88 143.593 208.311C136.168 210.002 128.577 210.698 120.953 210.399C106.135 209.869 88.3016 205.062 79.9482 191.571C75.2744 183.98 73.8821 174.632 73.7827 164.986C73.7827 163.428 70.7662 161.705 70.8325 160.147C70.8988 158.589 73.9816 156.998 74.081 155.34C74.5119 148.081 75.2412 140.954 75.5395 134.589C76.1362 119.507 72.9208 104.425 73.6832 89.5079C73.7827 87.0218 69.6723 84.5025 74.3794 82.1158C77.2964 80.6242 75.639 75.6188 76.7329 72.4034C79.3847 64.4479 83.7603 58.8127 89.2629 54.8017C90.4231 53.973 90.7214 51.2549 91.9479 50.5256C93.3401 49.7301 95.6605 50.9566 97.1853 50.3267C104.975 46.9456 114.157 45.5203 123.638 44.7578Z" fill="#7ACDC9" stroke="black" stroke-width="0.994445" stroke-linecap="round"/>
<path fill-rule="evenodd" clip-rule="evenodd" d="M127.019 70.4811C130.466 90.4694 163.117 85.1988 158.443 65.0116C154.233 46.9458 125.858 51.9512 127.019 70.4811Z" fill="white" stroke="black" stroke-width="0.964612" stroke-linecap="round"/>
<path fill-rule="evenodd" clip-rule="evenodd" d="M87.9701 73.6961C92.4119 91.0989 120.29 86.657 119.229 69.1879C117.969 48.3046 83.694 52.3155 87.9701 73.6961Z" fill="white" stroke="black" stroke-width="0.934779" stroke-linecap="round"/>
<path d="M125.03 115.264C130.54 115.264 135.007 109.491 135.007 102.369C135.007 95.248 130.54 89.4749 125.03 89.4749C119.519 89.4749 115.052 95.248 115.052 102.369C115.052 109.491 119.519 115.264 125.03 115.264Z" fill="#010101"/>
<path fill-rule="evenodd" clip-rule="evenodd" d="M130.963 94.4469C130.963 97.0324 131.56 99.9495 131.063 102.734C130.4 103.994 129.107 104.126 127.98 104.623C126.422 104.391 125.129 103.364 124.499 101.905C124.102 98.7562 124.632 95.7065 124.765 92.5243L130.963 94.4469Z" fill="white" stroke="black" stroke-width="0.994445" stroke-linecap="round"/>
<path d="M104.445 75.3868C107.044 75.3868 109.152 73.1013 109.152 70.2819C109.152 67.4626 107.044 65.1771 104.445 65.1771C101.845 65.1771 99.7377 67.4626 99.7377 70.2819C99.7377 73.1013 101.845 75.3868 104.445 75.3868Z" fill="black"/>
<path fill-rule="evenodd" clip-rule="evenodd" d="M106.865 70.1826C106.997 71.3096 106.202 72.3704 105.075 72.503C103.948 72.6355 102.887 71.84 102.754 70.713C102.721 70.5472 102.721 70.3483 102.754 70.1826C102.622 69.0555 103.417 67.9948 104.544 67.8622C105.671 67.7296 106.732 68.5252 106.865 69.6522V70.1826Z" fill="white"/>
<path d="M143.858 74.094C146.421 74.094 148.499 71.8085 148.499 68.9892C148.499 66.1699 146.421 63.8844 143.858 63.8844C141.295 63.8844 139.217 66.1699 139.217 68.9892C139.217 71.8085 141.295 74.094 143.858 74.094Z" fill="black"/>
<path fill-rule="evenodd" clip-rule="evenodd" d="M146.742 68.9561C146.742 70.5804 145.648 71.8731 144.256 71.8731C142.863 71.8731 141.736 70.5804 141.736 68.9561C141.736 67.3318 142.83 66.0391 144.223 66.0391C145.615 66.0391 146.742 67.3318 146.742 68.9561Z" fill="white"/>
<path fill-rule="evenodd" clip-rule="evenodd" d="M117.505 94.1822C115.45 99.1544 118.665 109.099 124.234 101.773C123.836 98.6241 124.367 95.5744 124.466 92.3922L117.505 94.1822Z" fill="white" stroke="black" stroke-width="0.994445" stroke-linecap="round"/>
<path fill-rule="evenodd" clip-rule="evenodd" d="M118.201 84.6025C114.389 84.934 111.24 89.4753 113.229 93.0884C115.848 97.8618 121.748 92.6575 125.394 93.1547C129.604 93.2542 133.052 97.5966 136.433 93.9503C140.212 89.8399 134.808 85.8953 130.599 84.1384L118.201 84.6025Z" fill="#F6D2A2" stroke="#231F20" stroke-width="0.994445" stroke-linecap="round"/>
<path fill-rule="evenodd" clip-rule="evenodd" d="M117.704 84.4031C117.439 77.7734 130.068 76.9447 131.56 82.4805C133.052 88.0162 118.334 89.3422 117.704 84.4031Z" fill="#010101"/>
<path d="M169.78 120.369L181.581 116.457L180.089 114.634L190.696 109.927L182.973 115.032L185.127 117.319L169.78 120.369Z" fill="#FEBD19"/>
<path d="M61.319 143.241L73.1197 139.297L71.5949 137.507L82.2355 132.8L74.5119 137.904L76.6666 140.192L61.319 143.241Z" fill="#FEBD19"/>
<path fill-rule="evenodd" clip-rule="evenodd" d="M76.0368 126.932C76.0368 126.932 76.9649 135.452 73.4512 133.695C70.5342 137.805 67.5177 132.104 67.5177 132.104C66.9873 130.314 67.0205 128.424 67.584 126.667C68.9099 122.955 74.8103 121.132 76.0368 126.932ZM184.862 131.474C184.862 131.474 185.79 122.922 182.277 124.712C179.36 120.601 176.376 126.303 176.376 126.303C176.376 126.303 174.686 128.225 176.443 131.739C178.166 135.253 182.177 136.479 184.862 131.474Z" fill="#F6D2A2" stroke="black" stroke-width="0.994445" stroke-linecap="round"/>
<path d="M182.509 111.75C189.96 111.75 196 105.71 196 98.259C196 90.808 189.96 84.7677 182.509 84.7677C175.058 84.7677 169.017 90.808 169.017 98.259C169.017 105.71 175.058 111.75 182.509 111.75Z" fill="#F6F6F6"/>
<path d="M182.509 111.75C175.05 111.75 169.017 105.717 169.017 98.259C169.017 90.8007 175.05 84.7677 182.509 84.7677C189.967 84.7677 196 90.8007 196 98.259C196 105.717 189.934 111.75 182.509 111.75ZM182.509 86.3257C175.912 86.3257 170.542 91.6625 170.542 98.2922C170.542 104.922 175.879 110.259 182.509 110.259C189.105 110.259 194.475 104.922 194.475 98.2922C194.442 91.6625 189.105 86.3257 182.509 86.3257Z" fill="#010101"/>
<path d="M176.175 100.973H174.334V95.0076H176.256C176.835 95.0076 177.33 95.127 177.742 95.3658C178.153 95.6027 178.469 95.9435 178.688 96.3882C178.908 96.8309 179.017 97.361 179.017 97.9785C179.017 98.5999 178.907 99.1349 178.685 99.5834C178.464 100.03 178.142 100.374 177.718 100.615C177.295 100.853 176.78 100.973 176.175 100.973ZM175.056 100.332H176.128C176.621 100.332 177.03 100.237 177.354 100.047C177.678 99.8562 177.92 99.5854 178.079 99.2339C178.239 98.8824 178.318 98.464 178.318 97.9785C178.318 97.4969 178.24 97.0824 178.082 96.7348C177.925 96.3853 177.69 96.1173 177.377 95.9309C177.065 95.7425 176.675 95.6483 176.209 95.6483H175.056V100.332ZM184.959 95.0076V100.973H184.26L181.01 96.2891H180.951V100.973H180.229V95.0076H180.928L184.19 99.7028H184.249V95.0076H184.959ZM189.667 96.4989C189.632 96.2037 189.49 95.9746 189.242 95.8115C188.993 95.6483 188.688 95.5668 188.327 95.5668C188.063 95.5668 187.832 95.6095 187.634 95.695C187.438 95.7804 187.284 95.8979 187.174 96.0474C187.065 96.1969 187.011 96.3668 187.011 96.5571C187.011 96.7163 187.048 96.8532 187.124 96.9678C187.202 97.0804 187.301 97.1746 187.421 97.2503C187.542 97.3241 187.668 97.3853 187.8 97.4338C187.932 97.4804 188.053 97.5183 188.164 97.5474L188.77 97.7105C188.925 97.7513 189.098 97.8076 189.288 97.8795C189.48 97.9513 189.664 98.0494 189.839 98.1737C190.015 98.296 190.161 98.4533 190.276 98.6455C190.39 98.8378 190.448 99.0737 190.448 99.3533C190.448 99.6757 190.363 99.9669 190.194 100.227C190.027 100.487 189.782 100.694 189.46 100.848C189.14 101.001 188.75 101.078 188.292 101.078C187.865 101.078 187.495 101.009 187.182 100.871C186.872 100.733 186.627 100.541 186.448 100.294C186.272 100.048 186.172 99.7611 186.148 99.4349H186.894C186.913 99.6601 186.989 99.8465 187.121 99.9941C187.255 100.14 187.424 100.248 187.628 100.32C187.834 100.39 188.055 100.425 188.292 100.425C188.568 100.425 188.815 100.381 189.035 100.291C189.254 100.2 189.428 100.074 189.556 99.9126C189.684 99.7494 189.748 99.5591 189.748 99.3417C189.748 99.1436 189.693 98.9824 189.582 98.8582C189.472 98.7339 189.326 98.6329 189.146 98.5552C188.965 98.4776 188.77 98.4096 188.56 98.3513L187.826 98.1416C187.36 98.0076 186.991 97.8164 186.719 97.5678C186.447 97.3193 186.311 96.994 186.311 96.5921C186.311 96.2581 186.402 95.9668 186.582 95.7183C186.765 95.4678 187.01 95.2736 187.316 95.1357C187.625 94.9959 187.97 94.926 188.35 94.926C188.735 94.926 189.077 94.9949 189.376 95.1328C189.675 95.2687 189.912 95.4551 190.086 95.692C190.263 95.9289 190.356 96.1979 190.366 96.4989H189.667Z" fill="#010101"/>
<path d="M182.343 86.4254C186.486 86.4254 187.547 93.6849 187.547 93.6849H189.37C189.37 93.6849 187.381 84.8011 182.343 84.8011V86.4254ZM182.343 86.4254C178.199 86.4254 177.139 93.6849 177.139 93.6849H175.316C175.316 93.6849 177.304 84.8011 182.343 84.8011V86.4254Z" fill="#010101"/>
<path d="M181.746 85.563H183.271V93.6843H181.746V85.563Z" fill="#010101"/>
<path d="M181.746 102.867H183.271V110.988H181.746V102.867ZM169.78 97.4965H172.697V99.0214H169.78V97.4965ZM192.155 97.4965H195.072V99.0214H192.155V97.4965ZM183.404 92.7232C179.658 92.6901 175.978 92.0602 172.432 90.8669L172.962 89.4415C173.095 89.4747 183.801 93.3199 191.956 89.4747L192.586 90.8669C189.735 92.1597 186.586 92.7895 183.404 92.7232Z" fill="#010101"/>
<path d="M182.343 110.126C186.486 110.126 187.547 102.9 187.547 102.9H189.37C189.37 102.9 187.381 111.783 182.343 111.783V110.126ZM182.343 110.126C178.199 110.126 177.139 102.9 177.139 102.9H175.316C175.316 102.9 177.304 111.783 182.343 111.783V110.126Z" fill="#010101"/>
<path d="M172.73 107.573L172.2 106.115C172.664 105.949 183.603 102.005 192.387 106.115L191.724 107.507C183.536 103.695 172.829 107.507 172.73 107.573Z" fill="#010101"/>
<path d="M61.12 145.164H82.2686C83.2299 145.164 84.0254 145.959 84.0254 146.92V151.064C84.0254 152.025 83.2299 152.821 82.2686 152.821H61.12C60.1587 152.821 59.3632 152.025 59.3632 151.064V146.92C59.3632 145.959 60.1587 145.164 61.12 145.164Z" fill="#F6F6F6" stroke="#010101" stroke-width="0.662964" stroke-miterlimit="10"/>
<path d="M62.0814 148.114H63.1421C63.341 148.114 63.5067 148.28 63.5067 148.479V149.539C63.5067 149.738 63.341 149.904 63.1421 149.904H62.0814C61.8825 149.904 61.7167 149.738 61.7167 149.539V148.479C61.7167 148.246 61.8825 148.114 62.0814 148.114ZM67.3519 148.114H68.4127C68.6116 148.114 68.7773 148.28 68.7773 148.479V149.539C68.7773 149.738 68.6116 149.904 68.4127 149.904H67.3519C67.153 149.904 66.9873 149.738 66.9873 149.539V148.479C66.9873 148.246 67.153 148.114 67.3519 148.114ZM64.7001 148.114H65.7608C65.9597 148.114 66.1254 148.28 66.1254 148.479V149.539C66.1254 149.738 65.9597 149.904 65.7608 149.904H64.7001C64.5012 149.904 64.3354 149.738 64.3354 149.539V148.479C64.3686 148.246 64.5343 148.114 64.7001 148.114Z" fill="#010101"/>
<path d="M61.12 154.545H82.2686C83.2299 154.545 84.0254 155.34 84.0254 156.302V160.445C84.0254 161.407 83.2299 162.202 82.2686 162.202H61.12C60.1587 162.202 59.3632 161.407 59.3632 160.445V156.302C59.3632 155.34 60.1587 154.545 61.12 154.545Z" fill="#F6F6F6" stroke="#010101" stroke-width="0.662964" stroke-miterlimit="10"/>
<path d="M62.0814 157.495H63.1421C63.341 157.495 63.5067 157.661 63.5067 157.86V158.92C63.5067 159.119 63.341 159.285 63.1421 159.285H62.0814C61.8825 159.285 61.7167 159.119 61.7167 158.92V157.826C61.7167 157.627 61.8825 157.495 62.0814 157.495ZM67.3519 157.495H68.4127C68.6116 157.495 68.7773 157.661 68.7773 157.86V158.92C68.7773 159.119 68.6116 159.285 68.4127 159.285H67.3519C67.153 159.285 66.9873 159.119 66.9873 158.92V157.826C66.9873 157.627 67.153 157.495 67.3519 157.495ZM64.7001 157.495H65.7608C65.9597 157.495 66.1254 157.661 66.1254 157.86V158.92C66.1254 159.119 65.9597 159.285 65.7608 159.285H64.7001C64.5012 159.285 64.3354 159.119 64.3354 158.92V157.826C64.3686 157.627 64.5343 157.495 64.7001 157.495Z" fill="#010101"/>
<path d="M61.12 163.926H82.2686C83.2299 163.926 84.0254 164.721 84.0254 165.682V169.826C84.0254 170.787 83.2299 171.583 82.2686 171.583H61.12C60.1587 171.583 59.3632 170.787 59.3632 169.826V165.682C59.3632 164.721 60.1587 163.926 61.12 163.926Z" fill="#F6F6F6" stroke="#010101" stroke-width="0.662964" stroke-miterlimit="10"/>
<path d="M62.0814 166.876H63.1421C63.341 166.876 63.5067 167.042 63.5067 167.241V168.301C63.5067 168.5 63.341 168.666 63.1421 168.666H62.0814C61.8825 168.666 61.7167 168.5 61.7167 168.301V167.241C61.7167 167.009 61.8825 166.876 62.0814 166.876ZM67.3519 166.876H68.4127C68.6116 166.876 68.7773 167.042 68.7773 167.241V168.301C68.7773 168.5 68.6116 168.666 68.4127 168.666H67.3519C67.153 168.666 66.9873 168.5 66.9873 168.301V167.241C66.9873 167.009 67.153 166.876 67.3519 166.876ZM64.7001 166.876H65.7608C65.9597 166.876 66.1254 167.042 66.1254 167.241V168.301C66.1254 168.5 65.9597 168.666 65.7608 168.666H64.7001C64.5012 168.666 64.3354 168.5 64.3354 168.301V167.241C64.3686 167.009 64.5343 166.876 64.7001 166.876Z" fill="#010101"/>
</g>
<defs>
<clipPath id="clip0_1230_66">
<rect width="136.968" height="170.7" fill="white" transform="translate(59.0317 42.9651)"/>
</clipPath>
</defs>
</svg>
