<svg width="256" height="256" viewBox="0 0 256 256" fill="none" xmlns="http://www.w3.org/2000/svg">
<rect width="256" height="256" fill="white"/>
<g clip-path="url(#clip0_1251_8971)">
<path d="M221.673 121.673L135.257 35.2571C131.506 31.5058 125.424 31.5058 121.673 35.2571L35.2571 121.673C31.5059 125.424 31.5059 131.506 35.2571 135.257L121.673 221.673C125.424 225.424 131.506 225.424 135.257 221.673L221.673 135.257C225.424 131.506 225.424 125.424 221.673 121.673Z" fill="url(#paint0_linear_1251_8971)"/>
<path d="M161.966 127.175C162.168 127.324 162.332 127.518 162.446 127.742C162.559 127.966 162.618 128.214 162.618 128.465C162.618 128.716 162.559 128.963 162.446 129.187C162.332 129.411 162.168 129.606 161.966 129.754L116.116 163.478C115.878 163.654 115.595 163.759 115.3 163.784C115.005 163.808 114.709 163.75 114.445 163.616C114.181 163.483 113.96 163.278 113.805 163.026C113.65 162.774 113.568 162.484 113.568 162.188V94.7417C113.568 94.4457 113.65 94.1555 113.805 93.9034C113.96 93.6512 114.181 93.4469 114.445 93.3133C114.709 93.1796 115.005 93.1217 115.3 93.1461C115.595 93.1704 115.878 93.2761 116.116 93.4513L161.966 127.175Z" fill="white"/>
</g>
<defs>
<linearGradient id="paint0_linear_1251_8971" x1="128.465" y1="228.465" x2="128.465" y2="87.6648" gradientUnits="userSpaceOnUse">
<stop stop-color="#1155D9"/>
<stop offset="1" stop-color="#7B5BF5"/>
</linearGradient>
<clipPath id="clip0_1251_8971">
<rect width="200" height="200.002" fill="white" transform="translate(28.4629 28.4629)"/>
</clipPath>
</defs>
</svg>
