<svg width="256" height="256" viewBox="0 0 256 256" fill="none" xmlns="http://www.w3.org/2000/svg">
<rect width="256" height="256" fill="#22283A"/>
<g clip-path="url(#clip0_1230_10)">
<path d="M181.624 22H74.3765C45.4497 22 22 45.4497 22 74.3765V181.624C22 210.55 45.4497 234 74.3765 234H181.624C210.55 234 234 210.55 234 181.624V74.3765C234 45.4497 210.55 22 181.624 22Z" fill="#22283A"/>
<path d="M103.059 113.035L122.014 105.553C122.014 92.2509 115.363 85.5999 102.061 85.5999H54.6729C41.371 85.5999 34.72 92.2509 34.72 105.553V150.447C34.72 163.749 41.371 170.4 54.6729 170.4H102.061C115.363 170.4 122.014 163.749 122.014 150.447L103.059 140.471V154.438H53.1764V100.565H103.059V113.035Z" fill="#2FB689"/>
<path d="M152.941 113.035L133.986 105.553C133.986 92.2509 140.637 85.5999 153.939 85.5999H201.327C214.629 85.5999 221.28 92.2509 221.28 105.553V150.447C221.28 163.749 214.629 170.4 201.327 170.4H153.939C140.637 170.4 133.986 163.749 133.986 150.447L152.941 140.471V154.438H202.823V100.565H152.941V113.035Z" fill="#01B7E4"/>
<path d="M93.0824 117.525C89.7569 117.525 88.0941 119.187 88.0941 122.513V131.99C88.0941 135.316 89.7569 136.979 93.0824 136.979H162.918C166.243 136.979 167.906 135.316 167.906 131.99V122.513C167.906 119.187 166.243 117.525 162.918 117.525H93.0824Z" fill="#8743DF"/>
</g>
<defs>
<clipPath id="clip0_1230_10">
<rect width="212" height="212" fill="white" transform="translate(22 22)"/>
</clipPath>
</defs>
</svg>
