<svg width="256" height="256" viewBox="0 0 256 256" fill="none" xmlns="http://www.w3.org/2000/svg">
<rect width="256" height="256" fill="#222627"/>
<path d="M193.03 165H167.49C167.292 165 167.098 164.953 166.922 164.863C166.746 164.772 166.595 164.641 166.48 164.48L153.89 146.81C151.78 143.86 147.8 144.01 145.49 146.67C142.43 150.17 139.65 153.56 142.44 157.42C146.293 162.733 150.22 168.253 154.22 173.98C157.233 178.307 161.323 180.503 166.49 180.57C175.457 180.677 184.89 180.687 194.79 180.6C202.64 180.52 209.24 174.72 209.23 166.63C209.183 142.103 209.173 116.473 209.2 89.7401C209.21 84.4101 205.97 79.5601 201.17 77.3501C198.99 76.3501 196.01 75.8734 192.23 75.9201C184.037 76.0268 175.75 76.0335 167.37 75.9401C162.39 75.8901 158.1 77.6301 155.08 81.4901C133.713 108.803 112.17 136.337 90.45 164.09C90.2283 164.374 89.9456 164.603 89.6233 164.761C89.301 164.919 88.9476 165 88.59 165H63.21C62.8366 165 62.65 164.817 62.65 164.45L62.66 91.9501C62.66 91.5234 62.8733 91.3101 63.3 91.3101H89C89.1211 91.3098 89.2409 91.3376 89.3501 91.3913C89.4593 91.4451 89.5551 91.5234 89.63 91.6201C94.2166 97.6068 98.8766 103.97 103.61 110.71C105.47 113.36 109.07 114.21 111.48 111.83C112.893 110.423 114.3 108.703 115.7 106.67C116.6 105.36 116.38 103.79 116.28 102.3C116.247 101.847 116.093 101.437 115.82 101.07C111.293 94.9834 106.99 89.0734 102.91 83.3401C99.63 78.7301 95.66 75.9801 90.18 76.0001C81.7933 76.0334 72.5866 76.0201 62.56 75.9601C56.37 75.9301 51.44 78.6101 48.63 84.1401C47.67 86.0401 47.21 89.0834 47.25 93.2701C47.45 115.67 47.4566 139.283 47.27 164.11C47.2433 167.217 47.5933 169.703 48.32 171.57C49.6533 175.023 52.0033 177.573 55.37 179.22C57.5433 180.28 61.0966 180.78 66.03 180.72C74.3966 180.613 82 180.59 88.84 180.65C94.3666 180.703 98.5766 178.88 101.47 175.18C122.723 147.993 144.403 120.267 166.51 92.0001C166.678 91.7853 166.894 91.6116 167.14 91.4921C167.386 91.3725 167.656 91.3103 167.93 91.3101H193.42C193.526 91.3101 193.628 91.3523 193.703 91.4273C193.778 91.5023 193.82 91.604 193.82 91.7101V164.21C193.82 164.737 193.557 165 193.03 165Z" stroke="#919393" stroke-width="2"/>
<path d="M52 6H204.8C219.62 7.87333 231.307 14.34 239.86 25.4C247.18 34.8733 250.827 45.74 250.8 58C250.7 103.467 250.71 149.117 250.83 194.95C250.85 201.823 250.37 207.273 249.39 211.3C247.877 217.58 245.367 223.3 241.86 228.46C240.56 230.37 238.98 232.08 237.56 233.86C236.467 235.227 235.24 236.453 233.88 237.54C232 239.04 230.26 240.66 228.24 242.01C222.847 245.597 217.027 248.09 210.78 249.49C206.747 250.403 201.377 250.85 194.67 250.83C148.423 250.71 103.05 250.7 58.55 250.8C45.41 250.827 34.1633 247.02 24.81 239.38C14.03 230.58 7.76 219.017 6 204.69V51.76C6.94667 45.0267 8.39 39.7033 10.33 35.79C18.89 18.5033 32.78 8.57333 52 6ZM193.03 165H167.49C167.292 165 167.098 164.953 166.922 164.862C166.746 164.772 166.595 164.641 166.48 164.48L153.89 146.81C151.78 143.86 147.8 144.01 145.49 146.67C142.43 150.17 139.65 153.56 142.44 157.42C146.293 162.733 150.22 168.253 154.22 173.98C157.233 178.307 161.323 180.503 166.49 180.57C175.457 180.677 184.89 180.687 194.79 180.6C202.64 180.52 209.24 174.72 209.23 166.63C209.183 142.103 209.173 116.473 209.2 89.74C209.21 84.41 205.97 79.56 201.17 77.35C198.99 76.35 196.01 75.8733 192.23 75.92C184.037 76.0267 175.75 76.0333 167.37 75.94C162.39 75.89 158.1 77.63 155.08 81.49C133.713 108.803 112.17 136.337 90.45 164.09C90.2283 164.374 89.9456 164.603 89.6233 164.761C89.301 164.918 88.9476 165 88.59 165H63.21C62.8367 165 62.65 164.817 62.65 164.45L62.66 91.95C62.66 91.5233 62.8733 91.31 63.3 91.31H89C89.1211 91.3097 89.2409 91.3375 89.3502 91.3912C89.4594 91.445 89.5551 91.5232 89.63 91.62C94.2167 97.6067 98.8767 103.97 103.61 110.71C105.47 113.36 109.07 114.21 111.48 111.83C112.893 110.423 114.3 108.703 115.7 106.67C116.6 105.36 116.38 103.79 116.28 102.3C116.247 101.847 116.093 101.437 115.82 101.07C111.293 94.9833 106.99 89.0733 102.91 83.34C99.63 78.73 95.66 75.98 90.18 76C81.7933 76.0333 72.5867 76.02 62.56 75.96C56.37 75.93 51.44 78.61 48.63 84.14C47.67 86.04 47.21 89.0833 47.25 93.27C47.45 115.67 47.4567 139.283 47.27 164.11C47.2433 167.217 47.5933 169.703 48.32 171.57C49.6533 175.023 52.0033 177.573 55.37 179.22C57.5433 180.28 61.0967 180.78 66.03 180.72C74.3967 180.613 82 180.59 88.84 180.65C94.3667 180.703 98.5767 178.88 101.47 175.18C122.723 147.993 144.403 120.267 166.51 92C166.678 91.7852 166.894 91.6115 167.14 91.492C167.386 91.3724 167.656 91.3102 167.93 91.31H193.42C193.526 91.31 193.628 91.3521 193.703 91.4272C193.778 91.5022 193.82 91.6039 193.82 91.71V164.21C193.82 164.737 193.557 165 193.03 165Z" fill="#222627"/>
<path d="M193.82 164.21V91.7101C193.82 91.604 193.778 91.5023 193.703 91.4273C193.628 91.3523 193.526 91.3101 193.42 91.3101H167.93C167.656 91.3103 167.386 91.3725 167.14 91.4921C166.894 91.6116 166.678 91.7853 166.51 92.0001C144.403 120.267 122.723 147.993 101.47 175.18C98.5766 178.88 94.3666 180.703 88.84 180.65C82 180.59 74.3966 180.613 66.03 180.72C61.0966 180.78 57.5433 180.28 55.37 179.22C52.0033 177.573 49.6533 175.023 48.32 171.57C47.5933 169.703 47.2433 167.217 47.27 164.11C47.4566 139.283 47.45 115.67 47.25 93.2701C47.21 89.0834 47.67 86.0401 48.63 84.1401C51.44 78.6101 56.37 75.9301 62.56 75.9601C72.5866 76.0201 81.7933 76.0334 90.18 76.0001C95.66 75.9801 99.63 78.7301 102.91 83.3401C106.99 89.0734 111.293 94.9834 115.82 101.07C116.093 101.437 116.247 101.847 116.28 102.3C116.38 103.79 116.6 105.36 115.7 106.67C114.3 108.703 112.893 110.423 111.48 111.83C109.07 114.21 105.47 113.36 103.61 110.71C98.8766 103.97 94.2166 97.6068 89.63 91.6201C89.5551 91.5234 89.4593 91.4451 89.3501 91.3913C89.2409 91.3376 89.1211 91.3098 89 91.3101H63.3C62.8733 91.3101 62.66 91.5234 62.66 91.9501L62.65 164.45C62.65 164.817 62.8366 165 63.21 165H88.59C88.9476 165 89.301 164.919 89.6233 164.761C89.9456 164.603 90.2283 164.374 90.45 164.09C112.17 136.337 133.713 108.803 155.08 81.4901C158.1 77.6301 162.39 75.8901 167.37 75.9401C175.75 76.0335 184.037 76.0268 192.23 75.9201C196.01 75.8734 198.99 76.3501 201.17 77.3501C205.97 79.5601 209.21 84.4101 209.2 89.7401C209.173 116.473 209.183 142.103 209.23 166.63C209.24 174.72 202.64 180.52 194.79 180.6C184.89 180.687 175.457 180.677 166.49 180.57C161.323 180.503 157.233 178.307 154.22 173.98C150.22 168.253 146.293 162.733 142.44 157.42C139.65 153.56 142.43 150.17 145.49 146.67C147.8 144.01 151.78 143.86 153.89 146.81L166.48 164.48C166.595 164.641 166.746 164.772 166.922 164.863C167.098 164.953 167.292 165 167.49 165H193.03C193.557 165 193.82 164.737 193.82 164.21Z" fill="white"/>
</svg>
