<svg width="256" height="256" viewBox="0 0 256 256" fill="none" xmlns="http://www.w3.org/2000/svg">
<rect width="256" height="256" fill="white"/>
<path d="M127.8 210.593C173.525 210.593 210.593 173.525 210.593 127.8C210.593 82.0749 173.525 45.0072 127.8 45.0072C82.0747 45.0072 45.007 82.0749 45.007 127.8C45.007 173.525 82.0747 210.593 127.8 210.593Z" stroke="#FF0090" stroke-width="11.6016"/>
<path d="M173.749 151.39H159.3C152.691 151.39 146.855 155.819 145.062 162.007H100.554C92.3273 162.007 85.507 155.187 85.507 146.96C85.507 138.733 92.3273 131.913 100.554 131.913H153.112C165.347 131.913 175.191 122.069 175.191 109.835C175.191 97.6006 165.347 87.7568 153.112 87.7568H109.167V86.7373C109.167 78.5107 102.558 71.9014 94.3312 71.9014H79.882C71.6555 71.9014 65.0461 78.5107 65.0461 86.7373V90.5342C65.0461 98.7607 71.6555 105.37 79.882 105.37H94.3312C100.941 105.37 106.777 100.94 108.57 94.7529H153.112C161.339 94.7529 168.159 101.573 168.159 109.8C168.159 118.026 161.339 124.847 153.112 124.847H100.554C88.3195 124.847 78.4758 134.69 78.4758 146.925C78.4758 159.159 88.3195 169.003 100.554 169.003H144.499V170.022C144.499 178.249 151.109 184.858 159.335 184.858H173.784C182.011 184.858 188.62 178.249 188.62 170.022V166.226C188.62 158.034 181.8 151.39 173.749 151.39ZM102.171 90.8154C102.171 95.0342 98.7609 98.6553 94.3312 98.6553H79.882C75.6633 98.6553 72.0422 95.2451 72.0422 90.8154V87.0186C72.0422 82.7998 75.4523 79.1787 79.882 79.1787H94.3312C98.55 79.1787 102.171 82.5889 102.171 87.0186V90.8154ZM181.589 170.058C181.589 174.276 178.179 177.897 173.749 177.897H159.3C155.081 177.897 151.46 174.487 151.46 170.058V166.261C151.46 162.042 154.87 158.421 159.3 158.421H173.749C177.968 158.421 181.589 161.831 181.589 166.261V170.058Z" fill="#FF0090" stroke="#FF0090" stroke-width="2.46094"/>
</svg>
