<svg width="256" height="256" viewBox="0 0 256 256" fill="none" xmlns="http://www.w3.org/2000/svg">
<g clip-path="url(#clip0_1230_541)">
<rect width="256" height="256" fill="white"/>
<g clip-path="url(#clip1_1230_541)">
<mask id="mask0_1230_541" style="mask-type:luminance" maskUnits="userSpaceOnUse" x="0" y="0" width="256" height="256">
<path d="M256 0H0V256H256V0Z" fill="white"/>
</mask>
<g mask="url(#mask0_1230_541)">
<path d="M256 0H0V256H256V0Z" fill="#15161A"/>
<path d="M205.845 117.954C205.661 115.038 205.11 111.744 204.204 108.278C203.285 104.627 201.827 100.794 199.819 96.5926C197.81 92.575 195.078 88.2014 191.6 84.0004C190.326 82.359 188.685 80.7176 187.215 79.2598C189.591 69.767 184.299 61.5598 184.299 61.5598C175.174 61.0088 169.331 64.4754 167.139 65.9446C166.772 65.761 166.404 65.5773 166.049 65.5773C164.591 64.8427 162.95 64.3032 161.308 63.9359C159.666 63.5686 158.025 63.0176 156.2 62.4781C154.559 62.1108 152.734 61.7435 150.909 61.3876C150.541 61.3876 150.357 61.204 149.99 61.204C145.973 48.4283 134.471 43.1367 134.471 43.1367C121.695 51.1717 119.319 62.4896 119.319 62.4896C119.319 62.4896 119.319 62.6732 119.136 63.2242L116.943 63.7752C116.025 64.1425 114.935 64.5098 114.028 64.8656C113.109 65.233 112.019 65.6003 111.112 65.9561C109.287 66.6907 107.279 67.7812 105.454 68.6995C103.628 69.7899 101.803 70.8919 100.162 71.9824C99.9778 71.7987 99.7945 71.7987 99.7945 71.7987C82.0943 65.0493 66.3916 73.2565 66.3916 73.2565C65.3012 92.0582 73.692 103.927 75.3335 106.108C74.9662 107.198 74.5989 108.484 74.243 109.575C72.969 113.776 72.0506 118.149 71.3275 122.718C71.1438 123.269 71.1438 123.992 71.1438 124.726C54.8901 132.738 49.9543 149.164 49.9543 149.164C63.6483 164.867 79.3395 165.774 79.3395 165.774C81.3482 169.424 83.7243 172.707 86.2725 176.001C87.363 177.276 88.4649 178.561 89.7391 179.835C84.8147 194.069 90.4737 205.753 90.4737 205.753C105.625 206.305 115.658 199.188 117.667 197.535C119.124 198.086 120.766 198.453 122.235 198.993C126.803 200.267 131.728 200.818 136.469 201.185H142.494C149.611 211.413 162.204 212.87 162.204 212.87C171.145 203.378 171.696 194.069 171.696 192.06V191.509V191.141C173.521 189.867 175.346 188.398 176.988 186.94C180.638 183.657 183.737 180.007 186.297 175.99C186.481 175.622 186.848 175.255 187.032 174.899C197.075 175.45 204.192 168.69 204.192 168.69C202.55 158.106 196.525 152.987 195.25 152.08H194.883C194.883 152.08 194.699 152.08 194.699 151.896C194.699 151.345 194.883 150.622 194.883 150.071C194.883 148.98 195.067 147.878 195.067 146.605V142.22C195.067 141.853 195.067 141.669 194.883 141.301L194.699 140.383L194.516 139.465C194.332 138.374 194.148 137.089 193.781 135.998C192.691 131.43 190.865 127.24 188.673 123.223C186.297 119.389 183.381 115.922 180.099 112.995C176.815 110.08 173.165 107.704 169.331 106.062C165.498 104.421 161.48 103.147 157.463 102.779C155.454 102.596 153.445 102.412 151.436 102.412H150.518C150.518 102.412 150.151 102.412 150.334 102.412H148.326C147.235 102.412 146.317 102.596 145.227 102.779C141.209 103.514 137.375 104.972 134.092 106.98C130.81 108.989 127.883 111.549 125.518 114.281C123.142 117.024 121.317 120.307 120.043 123.406C118.768 126.506 118.034 129.972 117.85 133.267V138.007C118.034 139.649 118.217 141.29 118.768 142.748C119.687 145.847 120.961 148.591 122.786 150.966C124.611 153.343 126.62 155.168 128.812 156.809C131.005 158.267 133.381 159.369 135.745 160.092C138.11 160.815 140.314 161.01 142.678 161.01H145.778C146.145 161.01 146.328 160.827 146.512 160.827C146.696 160.827 147.063 160.643 147.247 160.643C147.798 160.459 148.165 160.459 148.705 160.275L151.448 159.185C152.366 158.818 153.089 158.267 153.824 157.727C154.008 157.544 154.191 157.36 154.375 157.36C155.11 156.809 155.293 155.718 154.742 154.984C154.191 154.249 153.284 154.066 152.55 154.616C152.366 154.616 152.182 154.8 151.999 154.984C151.448 155.351 150.725 155.535 149.99 155.902L147.798 156.453C147.43 156.453 147.063 156.637 146.707 156.637H144.331H143.241C141.599 156.453 139.774 155.902 138.133 155.179C136.491 154.444 134.85 153.354 133.392 152.08C131.935 150.806 130.649 149.164 129.742 147.511C128.835 145.859 128.101 143.861 127.733 141.669C127.549 140.578 127.549 139.476 127.549 138.569V137.651V136.917C127.549 136.365 127.733 135.826 127.733 135.275C128.468 130.707 130.833 126.333 134.299 123.051C135.217 122.132 136.124 121.409 137.042 120.858C137.96 120.124 139.051 119.584 140.142 119.033C141.232 118.482 142.334 118.115 143.608 117.759C144.882 117.403 145.984 117.208 147.258 117.208H150.357H151.092C152.366 117.392 153.836 117.575 155.11 117.759C157.67 118.31 160.218 119.217 162.777 120.674C167.518 123.418 171.535 127.424 174.095 132.36C175.369 134.919 176.288 137.467 176.655 140.211C176.838 140.946 176.838 141.669 176.838 142.22V146.605C176.838 147.339 176.655 148.062 176.655 148.797C176.471 149.532 176.471 150.255 176.288 150.989L175.737 153.182C175.369 154.639 174.818 156.097 174.279 157.566C173.188 160.31 171.719 163.042 169.894 165.602C166.244 170.526 161.32 174.543 155.844 177.103C153.101 178.377 150.002 179.295 147.086 179.847C145.628 180.03 143.987 180.214 142.518 180.214H140.325H140.142C139.223 180.214 138.5 180.214 137.766 180.03C134.483 179.847 131.2 179.295 128.089 178.389C124.978 177.482 121.879 176.196 118.963 174.738C113.121 171.639 108.013 167.438 103.996 162.33C101.987 159.77 100.162 157.039 98.704 154.112C97.2459 151.184 96.144 148.269 95.2372 145.17C94.3303 142.071 93.7796 138.96 93.5958 135.677V132.027V130.569C93.5958 128.928 93.7796 127.47 93.9633 125.828C94.147 124.187 94.5141 122.545 94.6978 120.904C94.8816 119.263 95.4323 117.621 95.7884 116.163C96.7066 113.064 97.7972 109.954 99.071 107.222C101.814 101.562 105.281 96.4547 109.299 92.4371C110.389 91.3466 111.491 90.4283 112.581 89.5215C113.672 88.6147 114.774 87.6965 116.048 86.9619C117.322 86.2274 118.424 85.5041 119.698 84.7695C120.249 84.4022 120.972 84.0349 121.523 83.8512C121.891 83.6675 122.258 83.4839 122.442 83.4839C122.625 83.4839 123.176 83.1166 123.36 83.1166C124.634 82.5656 126.103 82.0261 127.378 81.6588C127.745 81.4751 128.112 81.4751 128.468 81.2915C128.824 81.1078 129.203 81.1078 129.558 80.9242L131.751 80.3732C132.118 80.3732 132.485 80.1895 132.841 80.1895C133.197 80.1895 133.576 80.0059 133.932 80.0059C134.287 80.0059 134.666 79.8222 135.022 79.8222H136.113C136.48 79.8222 136.847 79.6386 137.203 79.6386C137.559 79.6386 137.938 79.6386 138.477 79.4549C138.844 79.4549 139.396 79.2712 139.751 79.2712H143.401H148.877C151.62 79.4549 154.352 79.6386 156.912 80.1895C162.02 81.1078 166.956 82.7493 171.329 84.9302C175.702 87.1113 179.72 89.6709 183.198 92.5979L183.749 93.1487L184.299 93.6999C184.667 94.067 185.034 94.4345 185.574 94.7905C186.113 95.1461 186.308 95.525 186.664 95.8806L187.755 96.9711C189.212 98.6125 190.498 100.07 191.772 101.712C194.148 104.811 196.157 108.105 197.798 111.021C197.982 111.205 197.982 111.388 198.166 111.572C198.35 111.756 198.35 111.939 198.533 112.123L199.084 113.213L199.635 114.304C199.819 114.671 200.002 115.038 200.002 115.394C200.553 116.852 201.093 118.138 201.46 119.412C202.195 121.42 202.734 123.245 203.102 124.887C203.285 125.438 203.836 125.978 204.559 125.805C205.294 125.805 205.834 125.254 205.834 124.531C206.201 122.339 206.017 120.33 205.834 117.965L205.845 117.954Z" fill="url(#paint0_linear_1230_541)"/>
</g>
</g>
</g>
<defs>
<linearGradient id="paint0_linear_1230_541" x1="128.009" y1="250.876" x2="128.009" y2="95.9154" gradientUnits="userSpaceOnUse">
<stop stop-color="#FFF100"/>
<stop offset="1" stop-color="#F05A28"/>
</linearGradient>
<clipPath id="clip0_1230_541">
<rect width="256" height="256" fill="white"/>
</clipPath>
<clipPath id="clip1_1230_541">
<rect width="256" height="256" fill="white"/>
</clipPath>
</defs>
</svg>
