<svg width="256" height="256" viewBox="0 0 256 256" fill="none" xmlns="http://www.w3.org/2000/svg">
<rect width="256" height="256" fill="white"/>
<g clip-path="url(#clip0_1251_8983)">
<g opacity="0.2824">
<path d="M43.8203 187.766H212.219C217.961 187.766 222.609 192.414 222.609 198.156V217.648C222.609 223.391 217.961 228.039 212.219 228.039H43.8203C38.0781 228.039 33.4297 223.391 33.4297 217.648V198.156C33.4297 192.414 38.0781 187.766 43.8203 187.766Z" fill="#2E3436"/>
</g>
<path fill-rule="evenodd" clip-rule="evenodd" d="M65.0313 86.6334C59.7188 86.4381 54.3672 91.0475 53.8984 96.6334C49.875 129.563 43.9375 162.493 40.8906 195.383V209.212C41.0469 216.36 45.7344 221.126 50.8906 222.063H207.18C211.594 221.946 216.516 218.899 216.359 213.04V195.266L202.297 99.485C201.164 93.6256 196.125 87.3756 189.172 86.6334H65.0313Z" fill="url(#paint0_linear_1251_8983)" stroke="#555753" stroke-width="0.390625"/>
<path fill-rule="evenodd" clip-rule="evenodd" d="M67.7265 190.578C62.6094 190.031 59.0156 186.672 59.1328 180.539L67.7265 108.351C69.0547 103.547 72.1797 99.6795 77.1015 99.6795H176.086C181.008 99.5232 185.891 102.922 187.18 106.984L198.078 179.797C198.352 186.437 195.617 190.265 191.008 190.109L67.7265 190.578Z" fill="url(#paint1_linear_1251_8983)" stroke="#555753" stroke-width="0.390625"/>
<path fill-rule="evenodd" clip-rule="evenodd" d="M112.297 103.977L103 158.273H89.6017L125.852 181.555L166.32 158.273H152.922L144.445 103.977H112.297Z" fill="url(#paint2_linear_1251_8983)" stroke="url(#paint3_linear_1251_8983)" stroke-width="0.390625"/>
<path d="M80.8126 32.1016H175.969C188.469 32.1016 198.625 36.125 198.625 41.0469V50.5C198.625 55.4609 188.469 59.4453 175.969 59.4453H80.8126C68.3126 59.4453 58.1564 55.4219 58.1564 50.5V41.0469C58.1954 36.125 68.3126 32.1016 80.8126 32.1016Z" fill="url(#paint4_linear_1251_8983)" stroke="#930000" stroke-width="0.390625" stroke-linecap="round" stroke-linejoin="round"/>
<path opacity="0.5833" d="M71.0469 36.8667H185.773C190.344 36.8667 194.055 39.4448 194.055 42.6479V48.8979C194.055 52.1011 190.344 54.6792 185.773 54.6792H71.0469C66.4766 54.6401 62.7656 52.062 62.7656 48.8979V42.6479C62.7656 39.4448 66.4766 36.8667 71.0469 36.8667Z" stroke="url(#paint5_linear_1251_8983)" stroke-width="0.390625" stroke-linecap="round" stroke-linejoin="round"/>
<path opacity="0.2454" d="M67.6875 91.0464C62.6484 90.8511 57.6094 95.187 57.1406 100.421L44.5625 191.046C44.6016 191.593 44.7187 192.218 44.8359 192.765V205.695C44.9922 212.375 49.4062 216.71 54.3281 217.57H202.609C206.789 217.453 211.32 214.718 211.164 209.25V192.648C211.203 192.531 211.281 192.375 211.281 192.257L211.164 191.32V190.382H211.047L197.922 102.921C196.828 97.4136 192.062 91.7105 185.5 91.0464H67.6875Z" stroke="url(#paint6_linear_1251_8983)" stroke-width="0.390625"/>
<path opacity="0.2083" fill-rule="evenodd" clip-rule="evenodd" d="M65.9689 146.946L74.2501 111.047L182.727 111.321L190.774 151.867L185.461 110.891C184.445 106.36 182.063 101.985 177.688 102.102L78.7423 101.906C72.297 101.711 71.0079 105.891 69.5626 110.891L65.9689 146.946Z" fill="url(#paint7_linear_1251_8983)"/>
<path d="M117.219 28H139.523C142.219 28 144.367 30.1875 144.367 32.8438V140.344C144.367 143.039 142.18 145.188 139.523 145.188H117.219C114.523 145.188 112.375 143 112.375 140.344V32.8438C112.336 30.1875 114.523 28 117.219 28Z" fill="url(#paint8_linear_1251_8983)" stroke="#888A85" stroke-width="0.390625" stroke-linecap="round" stroke-linejoin="round"/>
<path d="M114.914 111.085H141.906C144.602 111.085 146.75 113.273 146.75 115.929V142.531C146.75 145.226 144.562 147.375 141.906 147.375H114.914C112.219 147.375 110.07 145.187 110.07 142.531V115.929C110.07 113.273 112.219 111.085 114.914 111.085Z" fill="url(#paint9_linear_1251_8983)"/>
<path opacity="0.4352" d="M71.4376 199.016H198.313" stroke="white" stroke-width="0.390625" stroke-linecap="round"/>
<path opacity="0.2269" d="M121.477 32.6484H135.031C137.727 32.6484 139.875 34.8359 139.875 37.4922V135.813C139.875 138.508 137.688 140.656 135.031 140.656H121.477C118.781 140.656 116.633 138.469 116.633 135.813V37.4922C116.633 34.7969 118.781 32.6484 121.477 32.6484Z" stroke="white" stroke-width="0.390625" stroke-linecap="round" stroke-linejoin="round"/>
<g opacity="0.6204">
<path d="M112.141 149.407H144.016" stroke="#888A85" stroke-width="0.390625" stroke-linecap="round"/>
<path opacity="0.6806" d="M109.992 158.43H146.164" stroke="#888A85" stroke-width="0.390625" stroke-linecap="round"/>
<path d="M111.398 153.938H145.031" stroke="#5D5D5C" stroke-width="0.390625" stroke-linecap="round"/>
<path opacity="0.6806" d="M109.562 162.884H146.906" stroke="#5D5D5C" stroke-width="0.390625" stroke-linecap="round"/>
</g>
<path d="M84.7969 153.977H98.9766" stroke="white" stroke-width="0.390625" stroke-linecap="round"/>
<path d="M157.297 153.704H171.477" stroke="white" stroke-width="0.390625" stroke-linecap="round"/>
<path opacity="0.335" d="M65.1094 199.055C65.1094 200.344 64.0937 201.398 62.8437 201.398C61.5937 201.398 60.5781 200.344 60.5781 199.055C60.5781 197.766 61.5937 196.711 62.8437 196.711C64.0937 196.711 65.1094 197.766 65.1094 199.055Z" fill="white"/>
</g>
<defs>
<linearGradient id="paint0_linear_1251_8983" x1="128.648" y1="103.138" x2="128.648" y2="203.573" gradientUnits="userSpaceOnUse">
<stop stop-color="#787B76"/>
<stop offset="0.871" stop-color="#BABCB9"/>
<stop offset="1" stop-color="#787B76"/>
</linearGradient>
<linearGradient id="paint1_linear_1251_8983" x1="129.568" y1="163.894" x2="131.825" y2="122.704" gradientUnits="userSpaceOnUse">
<stop stop-color="#F0F2EF"/>
<stop offset="1" stop-color="#CDD1C8"/>
</linearGradient>
<linearGradient id="paint2_linear_1251_8983" x1="127.941" y1="149.933" x2="127.941" y2="175.848" gradientUnits="userSpaceOnUse">
<stop stop-color="#555753"/>
<stop offset="1" stop-color="#2E3436"/>
</linearGradient>
<linearGradient id="paint3_linear_1251_8983" x1="127.922" y1="156.011" x2="127.034" y2="120.55" gradientUnits="userSpaceOnUse">
<stop stop-color="#888A85"/>
<stop offset="1" stop-color="#2E3436"/>
</linearGradient>
<linearGradient id="paint4_linear_1251_8983" x1="128.409" y1="37.1184" x2="128.409" y2="52.3555" gradientUnits="userSpaceOnUse">
<stop stop-color="#CC0000"/>
<stop offset="0.365" stop-color="#EF0000"/>
<stop offset="1" stop-color="#AA0000"/>
</linearGradient>
<linearGradient id="paint5_linear_1251_8983" x1="128.406" y1="36.6722" x2="128.406" y2="54.846" gradientUnits="userSpaceOnUse">
<stop stop-color="white"/>
<stop offset="1" stop-color="white" stop-opacity="0"/>
</linearGradient>
<linearGradient id="paint6_linear_1251_8983" x1="127.022" y1="173.637" x2="123.598" y2="90.9534" gradientUnits="userSpaceOnUse">
<stop stop-color="#F9F9F9"/>
<stop offset="1" stop-color="#EEEEEC" stop-opacity="0.6204"/>
</linearGradient>
<linearGradient id="paint7_linear_1251_8983" x1="128.377" y1="105.366" x2="128.377" y2="110.199" gradientUnits="userSpaceOnUse">
<stop/>
<stop offset="1" stop-opacity="0"/>
</linearGradient>
<linearGradient id="paint8_linear_1251_8983" x1="128.367" y1="30.4926" x2="128.367" y2="99.5969" gradientUnits="userSpaceOnUse">
<stop stop-color="#BABDB6"/>
<stop offset="0.133" stop-color="#EEEEEC"/>
<stop offset="1" stop-color="#BABDB6"/>
</linearGradient>
<linearGradient id="paint9_linear_1251_8983" x1="128.519" y1="147.397" x2="128.319" y2="113.882" gradientUnits="userSpaceOnUse">
<stop stop-color="#2E3436"/>
<stop offset="1" stop-color="#2E3436" stop-opacity="0"/>
</linearGradient>
<clipPath id="clip0_1251_8983">
<rect width="200" height="200" fill="white" transform="translate(28 28)"/>
</clipPath>
</defs>
</svg>
