<svg width="256" height="256" viewBox="0 0 256 256" fill="none" xmlns="http://www.w3.org/2000/svg">
<rect width="256" height="256" fill="white"/>
<g clip-path="url(#clip0_1251_8932)">
<mask id="mask0_1251_8932" style="mask-type:luminance" maskUnits="userSpaceOnUse" x="20" y="10" width="631" height="218">
<path d="M650.293 10.876H20.337V227.993H650.293V10.876Z" fill="white"/>
</mask>
<g mask="url(#mask0_1251_8932)">
<path d="M84.9421 28.0562C83.0753 28.3578 80.8352 29.3342 79.2557 30.5404C74.4739 34.1734 70.7691 41.8845 69.204 51.4911C68.6152 55.1241 68.2131 60.1643 68.2131 64.0126C68.2131 68.5503 68.7444 74.3516 69.5055 78.358C69.6778 79.2482 69.764 80.038 69.6922 80.0955C69.6347 80.1529 68.9312 80.7272 68.1413 81.3591C65.4418 83.513 62.3544 86.8301 60.2292 89.8599C56.1511 95.6469 53.5089 102.224 52.4032 109.346C51.9724 112.16 51.8575 117.847 52.2021 120.662C52.9632 127.152 54.9161 132.637 58.2619 137.664L59.3532 139.286L59.0374 139.818C56.7973 143.579 54.8875 149.021 53.9971 154.249C53.2935 158.385 53.2074 159.49 53.2074 165.033C53.2074 170.619 53.2791 171.724 53.9397 175.587C54.7295 180.21 56.3377 185.107 58.1327 188.367C58.7215 189.429 60.1574 191.641 60.3297 191.756C60.3871 191.785 60.2148 192.316 59.942 192.934C57.8742 197.457 56.108 203.473 55.3756 208.542C54.8587 212.018 54.7869 213.138 54.7869 216.8C54.7869 221.466 55.0453 223.735 56.0218 227.454L56.1654 228H62.3113H68.4716L68.0696 227.239C65.5853 222.643 65.3556 214.114 67.4951 205.599C68.4716 201.664 69.5773 198.777 71.6451 194.8L72.88 192.388V190.909C72.88 189.531 72.8513 189.372 72.4061 188.468C72.0615 187.778 71.6021 187.189 70.7836 186.386C69.3906 185.035 68.3855 183.614 67.5813 181.863C64.0488 174.195 63.3596 162.807 65.8438 153.1C66.8777 149.05 68.5865 145.446 70.3814 143.479C71.6021 142.129 72.2338 140.621 72.2338 139.056C72.2338 137.433 71.6595 136.098 70.3671 134.705C66.6623 130.742 64.3791 125.917 63.5606 120.303C62.3975 112.304 64.5084 103.588 69.3044 96.6808C74 89.903 80.5911 85.5521 87.9576 84.389C89.609 84.1161 92.6963 84.1592 94.4194 84.4751C96.3006 84.8054 97.478 84.7049 98.6842 84.1305C100.178 83.4269 100.924 82.551 101.8 80.5406C102.576 78.7456 103.179 77.7692 104.801 75.7445C106.754 73.3177 108.635 71.6663 111.651 69.6704C115.097 67.4159 119.017 65.7789 122.923 64.9891C124.345 64.7019 125.005 64.6588 127.662 64.6588C130.318 64.6588 130.979 64.7019 132.4 64.9891C138.13 66.1523 143.816 69.1104 148.354 73.3033C149.33 74.208 151.672 77.1086 152.418 78.3148C152.705 78.7887 153.207 79.7939 153.524 80.5406C154.399 82.551 155.146 83.4269 156.64 84.1305C157.803 84.6905 159.023 84.8054 160.832 84.5038C163.691 84.0157 165.888 84.0587 168.688 84.6331C178.222 86.5573 186.522 94.412 190.198 104.938C193.4 114.171 192.495 123.835 187.729 131.216C186.924 132.465 186.12 133.47 184.956 134.705C182.444 137.39 182.444 140.722 184.942 143.479C189.049 147.974 191.62 159.031 190.844 168.781C190.327 175.213 188.676 180.972 186.407 184.232C186.005 184.806 185.172 185.783 184.541 186.386C183.722 187.189 183.262 187.778 182.918 188.468C182.473 189.372 182.444 189.531 182.444 190.909V192.388L183.679 194.8C185.747 198.777 186.852 201.664 187.829 205.599C189.94 213.999 189.753 222.357 187.341 227.109C187.139 227.511 186.967 227.885 186.967 227.928C186.967 227.971 189.71 228 193.07 228H199.158L199.317 227.382C199.403 227.052 199.546 226.549 199.618 226.262C199.776 225.631 200.092 223.763 200.351 221.969C200.594 220.16 200.594 213.496 200.351 211.486C199.431 204.191 197.895 198.405 195.381 192.934C195.109 192.316 194.937 191.785 194.994 191.756C195.066 191.713 195.468 191.139 195.898 190.492C199.029 185.754 200.954 179.795 201.929 171.925C202.188 169.757 202.188 160.437 201.929 158.356C201.24 152.985 200.408 149.338 199.029 145.647C198.455 144.11 196.932 140.866 196.286 139.818L195.971 139.286L197.062 137.664C200.408 132.637 202.36 127.152 203.122 120.662C203.466 117.847 203.351 112.16 202.92 109.346C201.8 102.209 199.172 95.6613 195.095 89.8599C192.969 86.8301 189.882 83.513 187.182 81.3591C186.393 80.7272 185.689 80.1529 185.632 80.0955C185.559 80.038 185.646 79.2482 185.818 78.358C187.556 69.297 187.498 57.996 185.675 49.1649C184.095 41.4681 181.224 35.3509 177.519 31.8184C174.56 29.004 171.545 27.7978 167.926 28.0275C159.626 28.5157 152.935 38.0648 150.293 53.1137C149.862 55.5405 149.488 58.3837 149.488 59.1592C149.488 59.4607 149.431 59.7047 149.359 59.7047C149.287 59.7047 148.727 59.4176 148.124 59.0586C141.72 55.2676 134.597 53.2429 127.662 53.2429C120.726 53.2429 113.604 55.2676 107.199 59.0586C106.596 59.4176 106.036 59.7047 105.965 59.7047C105.893 59.7047 105.835 59.4607 105.835 59.1592C105.835 58.355 105.448 55.4256 105.031 53.1137C102.633 39.6014 97.1334 30.6553 89.8244 28.4009C88.8192 28.0993 85.9616 27.8982 84.9421 28.0562ZM87.3832 39.7449C89.451 41.3819 91.7485 46.0632 93.0696 51.3044C93.3138 52.2521 93.5723 53.3435 93.644 53.7455C93.7015 54.1333 93.8594 55.0092 93.9886 55.6841C94.5486 58.7284 94.8071 62.0167 94.8359 66.023L94.8502 69.9719L93.8594 71.4366L92.8686 72.9156H90.5567C87.8571 72.9156 85.1719 73.2603 82.6015 73.9495C81.6825 74.1792 80.7922 74.4091 80.6199 74.4521C80.3471 74.5095 80.304 74.4234 80.146 73.2459C79.2987 66.8558 79.3418 59.7766 80.2752 53.8891C81.3091 47.3268 83.7215 41.3819 86.0765 39.63C86.6366 39.2137 86.737 39.228 87.3832 39.7449ZM169.262 39.6444C170.683 40.6927 172.248 43.4785 173.411 47.0396C175.753 54.162 176.413 63.9409 175.177 73.2459C175.02 74.4234 174.977 74.5095 174.704 74.4521C174.531 74.4091 173.642 74.1792 172.722 73.9495C170.152 73.2603 167.466 72.9156 164.767 72.9156H162.455L161.464 71.4366L160.474 69.9719L160.488 66.023C160.517 60.4515 161.034 56.1006 162.269 51.2613C163.575 46.0632 165.888 41.3819 167.94 39.7449C168.586 39.228 168.688 39.2137 169.262 39.6444Z" fill="black"/>
<path d="M125.436 111.916C122.32 112.218 121.473 112.333 119.979 112.634C117.553 113.137 114.307 114.257 112.053 115.363C104.213 119.197 98.8134 125.586 97.1621 132.982C96.8318 134.447 96.7887 134.934 96.7887 137.405C96.7887 139.845 96.8318 140.378 97.1477 141.77C99.3447 151.434 108.248 158.571 119.764 159.877C122.263 160.151 133.061 160.151 135.56 159.877C144.807 158.829 152.762 153.818 156.338 146.781C157.286 144.901 157.746 143.68 158.176 141.77C158.492 140.378 158.535 139.845 158.535 137.405C158.535 134.934 158.492 134.447 158.161 132.982C155.764 122.241 145.339 113.783 132.558 112.175C130.892 111.974 126.527 111.801 125.436 111.916ZM130.806 119.728C135.071 120.188 139.365 121.709 142.811 124.008C144.664 125.242 147.277 127.826 148.397 129.522C149.776 131.617 150.565 133.757 150.924 136.356C151.082 137.548 150.996 138.453 150.565 140.378C149.89 143.249 147.794 146.25 144.965 148.347C143.644 149.309 140.902 150.701 139.222 151.247C136.034 152.267 133.951 152.454 126.513 152.397C121.66 152.353 120.798 152.31 119.405 152.052C114.652 151.161 110.89 149.266 108.162 146.379C105.95 144.053 104.945 141.928 104.399 138.496C104.155 136.902 104.615 134.26 105.548 132.034C106.683 129.32 109.612 125.946 112.513 124.008C115.873 121.767 120.295 120.174 124.359 119.743C125.924 119.57 129.241 119.57 130.806 119.728Z" fill="black"/>
<path d="M122.176 130.211C121.085 130.799 120.324 132.293 120.554 133.399C120.812 134.59 121.861 135.796 123.498 136.787C124.374 137.319 124.431 137.39 124.474 137.922C124.503 138.238 124.388 139.142 124.23 139.947C124.058 140.736 123.928 141.569 123.928 141.799C123.943 142.416 124.517 143.421 125.12 143.91C125.652 144.341 125.752 144.355 127.245 144.398C128.609 144.441 128.897 144.412 129.443 144.153C130.849 143.464 131.209 142.201 130.692 139.774C130.261 137.75 130.347 137.433 131.424 136.816C132.558 136.156 133.765 134.993 134.123 134.202C134.813 132.694 134.181 130.986 132.659 130.196C132.286 130.01 131.826 129.923 131.151 129.923C130.103 129.923 129.428 130.168 128.194 130.957L127.49 131.402L127.044 131.13C125.221 130.053 124.89 129.923 123.785 129.937C122.995 129.937 122.564 130.01 122.176 130.211Z" fill="black"/>
<path d="M87.3115 113.539C84.7698 114.343 82.8744 116.21 81.8979 118.866C81.424 120.13 81.1943 122.126 81.3954 123.203C81.8692 125.774 83.9801 128.114 86.3781 128.76C89.3936 129.55 91.6481 129.033 93.6441 127.051C94.8072 125.917 95.4391 124.926 96.0708 123.318C96.5304 122.183 96.5591 121.983 96.5591 120.374L96.5735 118.651L95.9704 117.416C95.0083 115.463 93.2707 114.013 91.2604 113.481C90.1259 113.194 88.3023 113.209 87.3115 113.539Z" fill="black"/>
<path d="M164.006 113.496C162.038 114.027 160.287 115.492 159.354 117.416L158.75 118.651L158.764 120.374C158.764 121.983 158.794 122.183 159.253 123.318C159.884 124.926 160.517 125.917 161.68 127.051C163.675 129.033 165.931 129.549 168.946 128.76C170.683 128.3 172.42 126.836 173.254 125.127C173.971 123.677 174.144 122.629 173.914 120.977C173.383 117.2 171.171 114.458 167.883 113.496C166.921 113.208 165.054 113.208 164.006 113.496Z" fill="black"/>
</g>
</g>
<defs>
<clipPath id="clip0_1251_8932">
<rect width="151.324" height="200" fill="white" transform="translate(52 28)"/>
</clipPath>
</defs>
</svg>
