<svg width="256" height="256" viewBox="0 0 256 256" fill="none" xmlns="http://www.w3.org/2000/svg">
<rect width="256" height="256" fill="white"/>
<path d="M201.104 105.07C207.114 105.07 212 109.915 212 115.902V195.658C212 201.633 207.127 206.49 201.104 206.49H103.495C97.4852 206.49 92.5996 201.645 92.5996 195.658V129.933H100L110.799 157.175V185.211L153.001 145.585C159.458 139.526 169.604 139.671 175.88 145.91L193.801 163.727V122.37H143.194L136.192 105.07H201.104ZM99.7939 48L138.007 142.664H119.396L108.767 117.2H73.1064L62.3926 142.664H44L81.9941 48H99.7939ZM80.374 99.9004H101.548L91.0029 74.6533L80.374 99.9004Z" fill="url(#paint0_linear_1251_8970)"/>
<path d="M156.479 65.9012H131V48H156.696C176.298 48 192.2 63.8094 192.2 83.3096V96.5341H174.194V83.526C174.194 73.7879 166.261 65.9012 156.467 65.9012H156.479Z" fill="#D8D8D8"/>
<defs>
<linearGradient id="paint0_linear_1251_8970" x1="127.972" y1="48" x2="131.244" y2="206.423" gradientUnits="userSpaceOnUse">
<stop stop-color="#32C8FA"/>
<stop offset="1" stop-color="#3081F2"/>
</linearGradient>
</defs>
</svg>
