<svg width="256" height="256" viewBox="0 0 256 256" fill="none" xmlns="http://www.w3.org/2000/svg">
<rect width="256" height="256" fill="white"/>
<g clip-path="url(#clip0_1251_8934)">
<path d="M38.3425 170.682L116.508 92.4238L127.929 81.0034L139.349 92.4238L197.072 150.147L196.986 150.44L195.844 153.794L194.552 157.071L193.125 160.268L191.526 163.387L190.098 165.914L127.929 103.809L46.6509 185.15C43.4522 180.585 40.6715 175.747 38.3425 170.682Z" fill="#E64A19"/>
<path d="M127.929 28.0079C144.671 27.9879 161.151 32.175 175.853 40.1846C190.556 48.1942 203.01 59.7696 212.073 73.8476C221.135 87.9257 226.515 104.055 227.718 120.755C228.922 137.454 225.91 154.188 218.959 169.42C212.009 184.652 201.343 197.893 187.94 207.928C174.538 217.963 158.829 224.469 142.257 226.85C125.684 229.23 108.779 227.409 93.0939 221.552C77.4088 215.696 63.4467 205.992 52.4898 193.333L56.023 189.764L58.5854 187.201L61.155 184.632L63.7246 182.062L63.8317 181.955C77.0381 197.523 95.4866 207.719 115.695 210.617C135.903 213.516 156.474 208.917 173.524 197.688C190.574 186.459 202.924 169.378 208.243 149.668C213.561 129.958 211.481 108.982 202.395 90.7006C193.309 72.4189 177.845 58.0956 158.922 50.4341C139.998 42.7727 118.925 42.3031 99.6798 49.114C80.4342 55.9249 64.3474 69.5451 54.4557 87.4038C44.564 105.263 41.5516 126.125 45.9873 146.052L40.4198 151.634L32.9966 159.093C28.0626 144.087 26.758 128.125 29.1898 112.517C31.6215 96.9086 37.7204 82.0999 46.9856 69.3062C56.2509 56.5125 68.4183 46.0986 82.489 38.9196C96.5597 31.7405 112.132 28.0009 127.929 28.0079Z" fill="#474747"/>
</g>
<defs>
<clipPath id="clip0_1251_8934">
<rect width="200" height="199.857" fill="white" transform="translate(28 28.0073)"/>
</clipPath>
</defs>
</svg>
