<svg width="256" height="256" viewBox="0 0 256 256" fill="none" xmlns="http://www.w3.org/2000/svg">
<rect width="256" height="256" fill="#4ADE80"/>
<g clip-path="url(#clip0_1251_8940)">
<path d="M146.026 39.5183V77.0761C146.026 82.1765 146.026 84.7131 147.008 86.6496C147.881 88.368 149.272 89.759 150.99 90.6318C152.927 91.6137 155.49 91.6137 160.564 91.6137H198.121M200.576 109.697V175.266C200.576 190.54 200.576 198.177 197.603 204.014C194.985 209.142 190.812 213.315 185.684 215.934C179.847 218.907 172.21 218.907 156.936 218.907H98.7309C83.4569 218.907 75.8198 218.907 69.983 215.934C64.8553 213.315 60.6822 209.142 58.0638 204.014C55.0908 198.177 55.0908 190.54 55.0908 175.266V80.731C55.0908 65.4569 55.0908 57.8199 58.0638 51.983C60.6822 46.8553 64.8553 42.6822 69.983 40.0638C75.8198 37.0908 83.4569 37.0908 98.7309 37.0908H127.943C134.625 37.0908 137.952 37.0908 141.089 37.8545C143.871 38.5091 146.544 39.6274 148.972 41.1275C151.726 42.8186 154.072 45.1642 158.791 49.8828L187.784 78.8762C192.503 83.5948 194.848 85.9405 196.539 88.6953C198.04 91.1228 199.131 93.7957 199.812 96.5778C200.576 99.7144 200.576 103.042 200.576 109.697Z" stroke="white" stroke-width="18.1834" stroke-miterlimit="133.333" stroke-linecap="round" stroke-linejoin="round"/>
</g>
<defs>
<clipPath id="clip0_1251_8940">
<rect width="163.67" height="200" fill="white" transform="translate(46 28)"/>
</clipPath>
</defs>
</svg>
