<svg width="256" height="256" viewBox="0 0 256 256" fill="none" xmlns="http://www.w3.org/2000/svg">
<rect width="256" height="256" fill="white"/>
<g clip-path="url(#clip0_1251_8927)">
<path fill-rule="evenodd" clip-rule="evenodd" d="M33.8699 182.365L33.1 181.98V182.75L33.8699 183.135V182.365Z" fill="#FAA42F"/>
<path fill-rule="evenodd" clip-rule="evenodd" d="M33.8699 154.99V141.431L33.1 141.046V155.503L33.8699 154.99Z" fill="#DDB02A"/>
<path fill-rule="evenodd" clip-rule="evenodd" d="M43.2801 160.465L33.8699 154.99L33.1 155.504V181.98L33.8699 182.365L43.2801 176.89V160.465Z" fill="#C47728"/>
<path fill-rule="evenodd" clip-rule="evenodd" d="M57.5237 195.924L69.2864 202.811V203.581L56.7538 196.438L57.5237 195.924Z" fill="#F15933"/>
<path fill-rule="evenodd" clip-rule="evenodd" d="M43.28 176.89L33.8699 182.365V183.135L56.7537 196.438L57.5236 195.924V185.103L43.28 176.89Z" fill="#F37132"/>
<path fill-rule="evenodd" clip-rule="evenodd" d="M33.8699 114.184V100.497L33.1 100.112V114.569L33.8699 114.184Z" fill="#D6E042"/>
<path fill-rule="evenodd" clip-rule="evenodd" d="M33.1 141.046L33.8699 141.431L42.0824 136.726C41.6975 133.817 41.5264 130.909 41.5691 128C41.5691 125.006 41.8258 121.883 42.0824 118.889L33.8699 114.184L33.1 114.569V141.046Z" fill="#FCEA3B"/>
<path fill-rule="evenodd" clip-rule="evenodd" d="M33.8699 155.118L43.28 160.465L57.5236 152.381V141.431L50.5943 137.367C50.7226 139.335 51.1076 141.26 51.4926 143.227L43.9217 147.676C42.9806 144.083 42.3818 140.404 42.0824 136.726L33.8699 141.431V155.118Z" fill="#FAA42F"/>
<path fill-rule="evenodd" clip-rule="evenodd" d="M57.5237 195.924V185.103L61.3305 182.878L61.2022 182.75C63.0415 184.974 65.009 187.027 66.9339 188.995C70.2274 192.289 73.7348 195.283 77.4989 197.977L69.2864 202.811L57.5237 195.924ZM71.5962 176.89L81.1347 182.365V190.321C78.1833 188.182 75.4458 185.787 72.9222 183.135C71.3823 181.724 69.928 180.184 68.602 178.558L71.5962 176.89Z" fill="#F15933"/>
<path fill-rule="evenodd" clip-rule="evenodd" d="M104.788 223.171L92.8973 216.413L92.2557 216.798L104.788 224.112V223.171Z" fill="#E22574"/>
<path fill-rule="evenodd" clip-rule="evenodd" d="M92.2558 216.798L92.8974 216.413V206.875C87.4652 204.479 82.2896 201.528 77.4989 198.021L69.2437 202.854V203.624L92.2558 216.798Z" fill="#EF3839"/>
<path fill-rule="evenodd" clip-rule="evenodd" d="M33.8699 73.2497V72.8647L33.1 73.2497V73.6347L33.8699 73.2497Z" fill="#BBD64B"/>
<path fill-rule="evenodd" clip-rule="evenodd" d="M45.6326 80.051L33.8699 73.25L33.1 73.635V100.112L33.8699 100.497L45.6326 93.6957V80.051Z" fill="#D6E042"/>
<path fill-rule="evenodd" clip-rule="evenodd" d="M33.8699 114.184L42.0824 118.889C42.9807 110.762 44.991 102.764 48.0707 95.1928L45.5899 93.7812L33.8271 100.582V114.184H33.8699ZM50.5944 118.077L57.5237 114.184V100.497L55.4278 99.299C53.0325 105.33 51.4071 111.661 50.5944 118.077Z" fill="#FFCF29"/>
<path fill-rule="evenodd" clip-rule="evenodd" d="M50.5944 137.367L57.5237 141.431L69.2864 134.63V120.942L57.5237 114.184L50.5944 118.076C50.1666 121.37 49.9528 124.664 49.9528 128C49.9528 131.122 50.1666 134.288 50.5944 137.367Z" fill="#FAA42F"/>
<path fill-rule="evenodd" clip-rule="evenodd" d="M92.8974 163.331V175.436L81.1347 182.365L71.5962 176.89V160.465L79.8087 155.76L92.8974 163.331Z" fill="#F15933"/>
<path fill-rule="evenodd" clip-rule="evenodd" d="M92.8973 216.413L104.788 223.171L116.679 216.413V213.676C108.339 212.521 100.34 210.296 92.8973 206.875V216.413ZM116.679 205.206V202.854L104.788 195.967L97.8591 199.988C103.89 202.554 110.221 204.265 116.679 205.206Z" fill="#EE438D"/>
<path fill-rule="evenodd" clip-rule="evenodd" d="M69.2864 134.63L57.5237 141.431V152.381L71.6389 160.465L79.8515 155.76V140.661L69.2864 134.63Z" fill="#F37132"/>
<path fill-rule="evenodd" clip-rule="evenodd" d="M116.679 216.37L104.788 223.128V224.027L127.63 237.201L128.399 236.816V223.128L116.679 216.37Z" fill="#CC3192"/>
<path fill-rule="evenodd" clip-rule="evenodd" d="M97.8591 199.988L104.788 195.967V182.408L92.8974 175.479L81.1346 182.408V190.364C86.2675 194.256 91.8708 197.507 97.8591 199.988Z" fill="#BD2025"/>
<path fill-rule="evenodd" clip-rule="evenodd" d="M128.399 236.858L127.63 237.243L128.143 237.5L128.784 237.115L128.399 236.858Z" fill="#9B3995"/>
<path fill-rule="evenodd" clip-rule="evenodd" d="M57.5237 59.5624L57.1387 59.4341L33.9127 72.865V73.2499L45.6754 80.0509L57.5237 73.2499V59.5624Z" fill="#F1EB59"/>
<path fill-rule="evenodd" clip-rule="evenodd" d="M45.6326 93.7385L48.1134 95.15C51.1076 87.7074 55.1711 80.9492 60.0045 74.6615L57.5236 73.25L45.6326 80.051V93.7385ZM55.4277 99.2991L57.5236 100.497L69.2863 93.7385V80.051L67.3187 79.0244C62.357 85.141 58.3791 91.9848 55.4277 99.2991Z" fill="#FCEA3B"/>
<path fill-rule="evenodd" clip-rule="evenodd" d="M79.8515 114.826V100.24L80.2364 99.9832L69.2864 93.7383L57.5237 100.496V114.184L69.2864 120.942L79.8515 114.826Z" fill="#FAA42F"/>
<path fill-rule="evenodd" clip-rule="evenodd" d="M128.399 195.924V183.392L128.143 183.52L115.354 176.206L104.788 182.322V195.881L116.679 202.768L128.399 195.924Z" fill="#E22574"/>
<path fill-rule="evenodd" clip-rule="evenodd" d="M79.8514 140.661V114.869L69.2864 120.985V134.673L79.8514 140.661Z" fill="#F7975F"/>
<path fill-rule="evenodd" clip-rule="evenodd" d="M116.679 216.37L128.442 223.128L140.333 216.37V213.504C136.313 214.018 132.249 214.274 128.186 214.274C124.336 214.274 120.529 214.06 116.679 213.633V216.37ZM140.29 205.035V202.811L128.399 195.924L116.637 202.811V205.163C120.444 205.677 124.293 205.933 128.143 205.933C132.206 205.976 136.27 205.677 140.29 205.035Z" fill="#CC3192"/>
<path fill-rule="evenodd" clip-rule="evenodd" d="M104.788 182.365L115.353 176.249L92.8973 163.331V175.479L104.788 182.365Z" fill="#D31F26"/>
<path fill-rule="evenodd" clip-rule="evenodd" d="M152.053 223.171L140.29 216.413L128.399 223.171V236.859L128.784 237.115L152.01 223.685V223.171H152.053Z" fill="#73206A"/>
<path fill-rule="evenodd" clip-rule="evenodd" d="M57.5236 59.5624L69.2864 52.7614V52.3765L57.1387 59.4341L57.5236 59.5624Z" fill="#D6E042"/>
<path fill-rule="evenodd" clip-rule="evenodd" d="M57.5237 73.2497L60.0045 74.6613C62.2288 71.9238 64.5813 69.4429 66.9339 66.962C70.313 63.5829 73.9915 60.4605 77.8839 57.723L69.2436 52.7612L57.5237 59.5622V73.2497ZM67.3188 78.9814L69.2864 80.0507L81.1774 73.2497V65.6788C78.2261 67.8175 75.4886 70.2128 72.9649 72.8648C70.9546 74.8324 69.1153 76.7572 67.3188 78.9814Z" fill="#FFCF29"/>
<path fill-rule="evenodd" clip-rule="evenodd" d="M92.8974 80.051L81.1347 73.25L69.2437 80.051V93.7385L80.1937 99.9835L92.8546 92.6692V80.051H92.8974Z" fill="#FAA42F"/>
<path fill-rule="evenodd" clip-rule="evenodd" d="M163.944 216.413L152.053 223.171V223.685L164.329 216.627L163.944 216.413Z" fill="#853A96"/>
<path fill-rule="evenodd" clip-rule="evenodd" d="M152.053 182.365L141.231 175.992L128.442 183.434V195.967L140.333 202.853L152.096 195.967L152.053 182.365Z" fill="#CC3192"/>
<path fill-rule="evenodd" clip-rule="evenodd" d="M140.29 216.37L152.053 223.128L163.944 216.37V206.575C156.416 209.997 148.46 212.307 140.29 213.504V216.37ZM158.726 199.817L152.053 195.924L140.29 202.811V205.035C146.706 204.009 152.951 202.298 158.726 199.817Z" fill="#9B3995"/>
<path fill-rule="evenodd" clip-rule="evenodd" d="M69.2437 52.7612L77.8839 57.7229C82.589 54.3438 87.6363 51.478 92.8974 49.1254V39.0736L92.6408 38.9453L69.2864 52.3762L69.2437 52.7612Z" fill="#FFCF29"/>
<path fill-rule="evenodd" clip-rule="evenodd" d="M81.1346 73.25L92.8974 80.051L104.788 73.25V59.5625L98.3724 55.9268C92.0847 58.4076 86.353 61.7867 81.1346 65.7219V73.25Z" fill="#D98A26"/>
<path fill-rule="evenodd" clip-rule="evenodd" d="M163.944 216.413L164.329 216.67L187.555 203.239V202.854L178.915 197.892C174.21 201.271 169.163 204.223 163.901 206.618L163.944 216.413Z" fill="#8F4F9F"/>
<path fill-rule="evenodd" clip-rule="evenodd" d="M104.788 73.25L92.8973 80.051V92.712L115.738 79.5377L104.788 73.25Z" fill="#F37132"/>
<path fill-rule="evenodd" clip-rule="evenodd" d="M152.053 182.365L163.944 175.436V162.903L141.231 175.949L152.053 182.365Z" fill="#D24B9B"/>
<path fill-rule="evenodd" clip-rule="evenodd" d="M152.053 195.924L158.726 199.817C164.8 197.25 170.531 193.871 175.707 189.765V182.322L163.944 175.393L152.053 182.365V195.924Z" fill="#B263A7"/>
<path fill-rule="evenodd" clip-rule="evenodd" d="M92.8974 39.0736L104.788 32.2727V31.8877L92.6407 38.9453L92.8974 39.0736Z" fill="#FFCF29"/>
<path fill-rule="evenodd" clip-rule="evenodd" d="M98.3724 55.9264L104.788 59.5622L114.327 54.2155V51.2213L114.84 51.093C109.194 52.0768 103.676 53.7022 98.3724 55.9264ZM114.284 37.7904L104.746 32.3154L92.8546 39.1164V49.1682C99.6984 46.1741 106.884 44.0354 114.241 42.7949L114.284 37.7904Z" fill="#FAA42F"/>
<path fill-rule="evenodd" clip-rule="evenodd" d="M178.958 197.892L187.598 202.854L199.489 195.967V185.146L185.245 176.933L175.707 182.408V189.851C177.29 188.824 178.573 187.626 180.027 186.472L187.598 190.792C184.86 193.273 181.952 195.668 178.958 197.892Z" fill="#6B297A"/>
<path fill-rule="evenodd" clip-rule="evenodd" d="M199.446 195.924L187.555 202.811V203.196L199.831 196.138L199.446 195.924Z" fill="#782A8F"/>
<path fill-rule="evenodd" clip-rule="evenodd" d="M128.143 72.4801L128.399 72.6084V62.3L114.284 54.2158L104.788 59.5625V73.25L115.781 79.495L128.143 72.4801Z" fill="#F37132"/>
<path fill-rule="evenodd" clip-rule="evenodd" d="M185.203 176.89V160.465L176.349 155.375V155.76L163.944 162.946V175.479L175.707 182.408L185.203 176.89Z" fill="#9B3995"/>
<path fill-rule="evenodd" clip-rule="evenodd" d="M128.399 29.5783V18.7566L128.143 18.5L104.788 31.9309V32.3158L114.327 37.7909L128.399 29.5783Z" fill="#FAA42F"/>
<path fill-rule="evenodd" clip-rule="evenodd" d="M128.399 62.3L142.643 54.2158L152.053 59.5625V73.25L140.804 79.7516L128.399 72.5657V62.3Z" fill="#F15933"/>
<path fill-rule="evenodd" clip-rule="evenodd" d="M223.1 182.365L213.561 176.89L199.446 185.103V195.924L199.831 196.181L223.057 182.75L223.1 182.365Z" fill="#782A8F"/>
<path fill-rule="evenodd" clip-rule="evenodd" d="M187.598 134.673V120.985L176.349 114.483V141.089L187.598 134.673Z" fill="#A01664"/>
<path fill-rule="evenodd" clip-rule="evenodd" d="M163.944 80.051L152.053 73.25L140.804 79.7516L163.901 93.0541V80.051H163.944Z" fill="#C02026"/>
<path fill-rule="evenodd" clip-rule="evenodd" d="M199.446 152.381V141.431L187.555 134.63L176.349 141.003V155.375L185.203 160.465L199.446 152.381Z" fill="#9B3995"/>
<path fill-rule="evenodd" clip-rule="evenodd" d="M142.643 37.7904L152.053 32.3154L163.944 39.1164V49.4248C160.394 47.7994 156.715 46.4735 152.951 45.3614V54.0872C154.791 54.6004 156.587 55.2848 158.298 56.0547L152.053 59.5622L142.643 54.2155V37.7904Z" fill="#F15933"/>
<path fill-rule="evenodd" clip-rule="evenodd" d="M201.029 155.888C201.285 155.503 201.457 155.033 201.542 154.562C201.457 155.076 201.285 155.503 201.029 155.888ZM201.799 154.092C203.681 148.831 204.921 143.356 205.606 137.795L199.446 141.431V152.381L201.927 153.835L201.799 154.092ZM213.561 160.465L223.1 154.99V141.431L214.203 136.341C213.476 143.826 211.722 151.183 209.113 158.241L209.241 157.984L213.561 160.465Z" fill="#9051A0"/>
<path fill-rule="evenodd" clip-rule="evenodd" d="M175.707 73.25L163.944 80.051V93.0969L176.22 100.283L187.598 93.7813V80.0938L175.707 73.25Z" fill="#B01B4A"/>
<path fill-rule="evenodd" clip-rule="evenodd" d="M152.053 32.3156L128.442 18.7563V29.578L142.643 37.7906L152.053 32.3156Z" fill="#C54627"/>
<path fill-rule="evenodd" clip-rule="evenodd" d="M199.489 114.184V100.496L187.598 93.7383L176.22 100.24H176.349V114.441L187.598 120.942L199.489 114.184Z" fill="#A41768"/>
<path fill-rule="evenodd" clip-rule="evenodd" d="M152.053 73.2499L163.944 80.0509L175.707 73.2499V66.1923C170.403 62.0005 164.586 58.5786 158.341 56.0122L152.053 59.5624V73.2499Z" fill="#EF3839"/>
<path fill-rule="evenodd" clip-rule="evenodd" d="M187.555 134.63L199.446 141.431L205.563 137.795C205.991 134.544 206.204 131.293 206.204 128C206.204 124.578 205.948 121.113 205.563 117.692L199.403 114.184L187.555 120.942V134.63Z" fill="#9B3995"/>
<path fill-rule="evenodd" clip-rule="evenodd" d="M214.203 136.341L223.1 141.431V114.184L214.075 119.274C214.46 122.183 214.631 125.091 214.588 128C214.588 130.866 214.46 133.603 214.203 136.341Z" fill="#6B297A"/>
<path fill-rule="evenodd" clip-rule="evenodd" d="M175.664 73.2497L187.555 80.0507L189.01 79.2808C187.299 77.0138 185.417 74.9179 183.406 72.9076C180.968 70.555 178.402 68.3308 175.707 66.2777V73.2497H175.664ZM196.324 74.9607L199.446 73.2497V59.5622L187.555 52.7612L178.701 57.9796C182.465 60.6743 186.015 63.7113 189.266 66.962C191.747 69.5285 194.1 72.1804 196.324 74.9607Z" fill="#E22574"/>
<path fill-rule="evenodd" clip-rule="evenodd" d="M187.555 93.7385L199.446 100.54L200.858 99.7696C198.035 92.3698 194.014 85.4405 188.967 79.3238L187.555 80.0938V93.7385ZM208.215 95.4067L211.209 93.6957V80.0082L199.446 73.25L196.324 74.9609C201.157 81.2059 205.178 88.0924 208.215 95.4067Z" fill="#CC3192"/>
<path fill-rule="evenodd" clip-rule="evenodd" d="M178.701 57.9796L187.555 52.7613L163.901 39.0737V49.3821C169.12 51.7347 174.081 54.6433 178.701 57.9796Z" fill="#EF3839"/>
<path fill-rule="evenodd" clip-rule="evenodd" d="M199.446 114.184L205.606 117.692C204.75 111.532 203.167 105.501 200.9 99.6841L199.446 100.454V114.184ZM214.075 119.274L223.1 114.184V100.497L211.209 93.6958L208.215 95.4067C211.209 102.978 213.305 110.934 214.075 119.274Z" fill="#B263A7"/>
<path fill-rule="evenodd" clip-rule="evenodd" d="M211.209 80.051L223.1 73.25L199.446 59.5625V73.25L211.209 80.051Z" fill="#D1499A"/>
<path fill-rule="evenodd" clip-rule="evenodd" d="M211.209 80.051V93.7385L223.1 100.54V73.25L211.209 80.051Z" fill="#9B3995"/>
<path fill-rule="evenodd" clip-rule="evenodd" d="M223.1 154.99L213.562 160.465V176.89L223.1 182.365V154.99Z" fill="#85459A"/>
<path fill-rule="evenodd" clip-rule="evenodd" d="M104.788 141.431V142.757L103.634 142.115V140.832L104.788 141.431ZM116.679 134.63L104.788 141.431L103.634 140.789V114.826L104.788 114.184L116.679 120.942V134.63Z" fill="#F15933"/>
<path fill-rule="evenodd" clip-rule="evenodd" d="M128.399 154.99L127.202 155.76L128.1 156.273L129.298 155.504L128.399 154.99Z" fill="#E22574"/>
<path fill-rule="evenodd" clip-rule="evenodd" d="M116.679 134.63L104.788 141.431V142.757L127.245 155.803L128.442 155.033V141.474L116.679 134.63Z" fill="#EF3839"/>
<path fill-rule="evenodd" clip-rule="evenodd" d="M152.053 141.431L140.29 134.673L128.399 141.431V154.99L129.298 155.504L152.01 142.329L152.053 141.431Z" fill="#EE3F8A"/>
<path fill-rule="evenodd" clip-rule="evenodd" d="M140.29 120.942L128.399 114.184L116.637 120.942V134.63L128.399 141.431L140.29 134.63V120.942Z" fill="#EF3839"/>
<path fill-rule="evenodd" clip-rule="evenodd" d="M152.566 114.441L152.053 114.184L140.29 120.942V134.63L152.053 141.431L152.566 141.174V114.441Z" fill="#E22574"/>
<path fill-rule="evenodd" clip-rule="evenodd" d="M152.053 141.431V142.329L152.566 142.073V141.174L152.053 141.431Z" fill="#CC3192"/>
<path fill-rule="evenodd" clip-rule="evenodd" d="M104.788 114.184V113.286L103.634 113.928V114.826L104.788 114.184Z" fill="#F37132"/>
<path fill-rule="evenodd" clip-rule="evenodd" d="M128.399 100.497V114.184L116.637 120.943L104.746 114.184V113.286L127.587 100.112L128.399 100.497Z" fill="#F15933"/>
<path fill-rule="evenodd" clip-rule="evenodd" d="M128.442 100.497L127.672 100.112L128.186 99.855L128.955 100.24L128.442 100.497Z" fill="#F4805F"/>
<path fill-rule="evenodd" clip-rule="evenodd" d="M152.053 113.671L128.955 100.24L128.442 100.496V114.184L140.333 120.942L152.096 114.184V113.671H152.053Z" fill="#EF3839"/>
<path fill-rule="evenodd" clip-rule="evenodd" d="M152.566 114.441V113.928L152.053 113.671V114.184L152.566 114.441Z" fill="#E22574"/>
<path fill-rule="evenodd" clip-rule="evenodd" d="M136.526 41.2979L128.442 36.5928L120.358 41.2979V50.6653L128.442 55.3704L136.526 50.6653V41.2979Z" fill="#F37132"/>
<path fill-rule="evenodd" clip-rule="evenodd" d="M207.573 163.973L199.489 159.268L191.276 163.973V173.34L199.489 178.045L207.573 173.34V163.973Z" fill="#552263"/>
<path fill-rule="evenodd" clip-rule="evenodd" d="M65.6078 163.973L57.5237 159.268L49.4395 163.973V173.383L57.5237 178.045L65.6078 173.34V163.973Z" fill="#F37132"/>
</g>
<defs>
<clipPath id="clip0_1251_8927">
<rect width="190" height="219" fill="white" transform="translate(33.1 18.5)"/>
</clipPath>
</defs>
</svg>
