<svg width="256" height="256" viewBox="0 0 256 256" fill="none" xmlns="http://www.w3.org/2000/svg">
<rect width="256" height="256" fill="white"/>
<g clip-path="url(#clip0_1251_8912)">
<path d="M188.405 190.105H215.398C221.779 190.105 226.961 184.923 227 178.543C227 172.162 221.818 166.98 215.398 166.98H188.367C181.986 166.98 176.765 172.162 176.765 178.543C176.804 184.923 181.986 190.105 188.405 190.105ZM67.5945 190.105H40.6016C34.2207 190.105 29.0387 184.923 29 178.543C29 172.162 34.182 166.98 40.6016 166.98H67.6332C74.0141 166.748 79.3895 171.736 79.6215 178.117C79.8535 184.498 74.8648 189.873 68.484 190.105H67.5945ZM138.905 190.028H116.901C110.52 190.26 105.145 185.271 104.913 178.891C104.681 172.51 109.67 167.134 116.05 166.902H138.905C145.286 166.67 150.662 171.659 150.894 178.04C151.126 184.421 146.137 189.796 139.756 190.028H138.905Z" fill="#F23E94"/>
<path d="M177.887 156.77H203.913C210.294 157.002 215.669 152.013 215.901 145.633C216.133 139.252 211.145 133.876 204.764 133.644H177.887C171.506 133.412 166.13 138.401 165.898 144.782C165.666 151.163 170.655 156.538 177.036 156.77H177.887ZM77.6492 156.77H51.6617C45.2809 157.002 39.9055 152.013 39.6734 145.633C39.4414 139.252 44.4301 133.876 50.8109 133.644H77.6879C84.0688 133.412 89.4441 138.401 89.6762 144.782C89.9082 151.163 84.9195 156.538 78.5387 156.77H77.6492ZM147.297 156.693H108.587C102.206 156.693 97.0238 151.511 96.9852 145.13C96.9852 138.749 102.167 133.567 108.587 133.567H147.297C153.678 133.799 158.667 139.174 158.435 145.555C158.203 151.627 153.33 156.461 147.297 156.693Z" fill="#6927DA"/>
<path d="M146.137 122.469H192.35C198.731 122.701 204.106 117.712 204.338 111.332C204.57 104.951 199.582 99.5753 193.201 99.3432H146.137C139.756 99.1112 134.381 104.1 134.149 110.481C133.917 116.862 138.905 122.237 145.286 122.469H146.137ZM112.57 122.469H63.1859C56.8051 122.701 51.4297 117.712 51.1977 111.332C50.9656 104.951 55.9543 99.5753 62.3352 99.3432H112.57C118.951 99.1112 124.326 104.1 124.558 110.481C124.79 116.862 119.802 122.237 113.421 122.469H112.57Z" fill="#1570EF"/>
<path d="M181.251 89.1336H155.186C148.805 89.1336 143.623 83.9515 143.585 77.5707C143.585 71.1898 148.767 66.0078 155.186 66.0078H181.251C187.632 65.7757 193.007 70.7644 193.239 77.1453C193.472 83.5261 188.483 88.9015 182.102 89.1336H181.251ZM100.311 89.1336H74.2461C67.8652 89.3656 62.4898 84.3769 62.2578 77.9961C62.0258 71.6152 67.0145 66.2398 73.3953 66.0078H100.311C106.692 65.7757 112.067 70.7644 112.299 77.1453C112.531 83.5261 107.543 88.9015 101.162 89.1336H100.311Z" fill="#22CCEE"/>
</g>
<defs>
<clipPath id="clip0_1251_8912">
<rect width="198" height="124.106" fill="white" transform="translate(29 66)"/>
</clipPath>
</defs>
</svg>
