<svg width="256" height="256" viewBox="0 0 256 256" fill="none" xmlns="http://www.w3.org/2000/svg">
<rect width="256" height="256" fill="white"/>
<g clip-path="url(#clip0_1251_8984)">
<path d="M189.716 46.0514C177.983 45.6867 171.924 51.1785 170.444 51.6852C171.782 49.152 172.673 47.5713 176.078 44.0047C164.466 43.8831 153.705 46.396 145.498 54.0765C134.473 64.3712 135.345 72.9231 135.325 72.8826C135.325 72.8826 133.582 67.3096 133.055 61.3517C121.058 77.9489 116.336 99.9366 125.415 116.331C131.049 102.713 140.006 90.9996 151.557 81.7385C151.942 72.0314 155.833 63.824 162.014 57.785C156.441 64.4522 153.989 72.0517 154.232 79.6917C167.668 69.6807 184.123 62.9931 202.2 60.8045C189.108 63.2161 177.253 68.4242 166.877 75.5373C173.362 78.496 180.779 78.9621 188.561 76.2466C181.104 79.7525 172.815 80.3199 164.425 77.2801C156.988 82.7314 150.361 89.1758 144.687 96.2483C154.779 99.5516 165.824 98.8625 176.828 93.2693C166.736 99.7947 154.88 102.227 142.215 99.4502C137.169 106.219 132.933 113.514 129.63 121.012C133.703 124.012 151.395 133.435 181.732 111.082C177.456 109.826 173.97 108.022 173.97 108.022C174.072 108.063 177.091 108.347 185.947 103.037C193.79 98.4572 200.518 90.1485 205.503 83.7042C201.268 82.1438 197.985 80.5023 197.985 80.5023C197.985 80.5023 203.456 80.8671 211.947 74.3822C219.506 68.5863 227.957 60.1966 227.997 60.4195C228.018 60.46 209.333 46.6391 189.716 46.0514Z" fill="#4FA52B"/>
<path d="M54.5881 76.2262C63.4845 73.6323 69.1588 76.6315 70.3747 76.7328C68.8751 75.0711 67.9023 74.0376 64.6396 71.9908C73.4955 69.6198 82.1893 69.3968 89.9103 73.6323C100.246 79.3268 101.178 85.994 101.198 85.9535C101.198 85.9535 101.482 81.3736 100.772 76.7126C113.033 87.0073 120.734 102.834 116.843 117.121C109.993 107.86 100.955 100.686 90.417 95.9037C88.3094 88.588 83.8105 83.0961 77.9539 79.6916C83.4457 83.6838 86.749 88.973 87.9851 94.8702C75.8463 89.8849 62.0254 88.0408 47.7993 89.9255C58.2561 89.1757 80.4059 90.6956 98.3812 105.611C91.2681 110.11 82.6959 111.771 73.2523 109.664C82.1893 112.643 91.6937 112.177 100.874 107.556C106.001 111.731 110.581 116.432 114.512 121.519C111.959 124.619 100.185 135.279 72.8268 124.214C75.8665 122.411 78.1768 120.364 78.197 120.364C78.1362 120.425 75.8665 121.235 68.105 118.925C61.2553 116.98 54.5678 111.974 49.5623 108.043C52.5008 106.016 54.7299 104.131 54.7299 104.111C54.7299 104.111 50.6161 105.469 42.9153 102.186C36.0049 99.2677 27.9799 94.5257 28.0002 94.7081C27.9799 94.7486 39.6932 80.5427 54.5881 76.2262Z" fill="#E47B19"/>
<path d="M118.444 198.547C111.959 192.508 111.675 186.368 111.168 185.314C110.52 187.361 110.115 188.698 110.034 192.386C103.731 186.286 99.3336 179.234 99.0904 170.763C98.7864 159.435 103.873 155.342 103.853 155.342C103.853 155.342 99.901 157.388 96.3749 160.286C98.9688 145.087 108.372 130.861 122.152 126.97C117.775 137.204 116.215 148.208 117.39 159.273C112.324 164.643 109.953 171.088 109.973 177.593C110.601 171.088 113.418 165.738 117.714 161.786C119.477 174.249 124.685 186.55 133.197 197.331C127.482 189.103 117.937 170.115 121.585 147.904C128.799 151.511 134.352 157.753 137.209 166.568C135.345 157.733 130.299 150.133 121.99 144.885C122.963 138.602 124.645 132.462 126.955 126.727C130.785 127.294 145.396 131.672 149.51 159.699C146.531 158.098 143.694 157.206 143.694 157.206C143.775 157.226 145.538 158.685 147.423 166.224C149.145 172.83 148.234 180.815 147.403 186.894C144.282 185.476 141.627 184.604 141.627 184.604C141.627 184.604 144.768 187.32 145.781 195.284C146.693 202.397 146.673 211.354 146.815 211.233C146.855 211.233 129.306 208.659 118.444 198.547Z" fill="#E33F3B"/>
</g>
<defs>
<clipPath id="clip0_1251_8984">
<rect width="200" height="167.236" fill="white" transform="translate(28 43.9995)"/>
</clipPath>
</defs>
</svg>
