<svg width="256" height="256" viewBox="0 0 256 256" fill="none" xmlns="http://www.w3.org/2000/svg">
<g clip-path="url(#clip0_1251_8946)">
<rect width="256" height="256" fill="white"/>
<g clip-path="url(#clip1_1251_8946)">
<mask id="mask0_1251_8946" style="mask-type:luminance" maskUnits="userSpaceOnUse" x="0" y="0" width="256" height="256">
<path d="M256 0H0V256H256V0Z" fill="white"/>
</mask>
<g mask="url(#mask0_1251_8946)">
<path d="M256 0H0V256H256V0Z" fill="#46509E"/>
<mask id="mask1_1251_8946" style="mask-type:luminance" maskUnits="userSpaceOnUse" x="21" y="24" width="214" height="207">
<path d="M235 24H21V231H235V24Z" fill="white"/>
</mask>
<g mask="url(#mask1_1251_8946)">
<path d="M128.002 214.305C187.097 214.305 235.003 168.122 235.003 111.152C235.003 54.183 187.097 8 128.002 8C68.9067 8 21.0006 54.183 21.0006 111.152C21.0006 168.122 68.9067 214.305 128.002 214.305Z" fill="#46509E"/>
<path d="M128.002 143.651C157.284 143.651 181.022 122.607 181.022 96.6473C181.022 70.6886 157.284 49.6445 128.002 49.6445C98.7205 49.6445 74.9828 70.6886 74.9828 96.6473C74.9828 122.607 98.7205 143.651 128.002 143.651Z" fill="#37474F"/>
<path d="M181.022 200.776C172.696 205.576 153.092 215.381 126.418 214.984C108.346 214.688 90.6456 209.799 74.9805 200.776V97.6333H181.022V200.776Z" fill="#37474F"/>
<path d="M170.491 98.3293V206.366C157.065 212.079 142.626 215.024 128.037 215.024C113.448 215.024 99.0094 212.079 85.5839 206.366V98.3293C85.5839 76.6333 104.594 59.0469 128.039 59.0469C151.483 59.0469 170.491 76.6333 170.491 98.3293Z" fill="white"/>
<path d="M149.209 106.011L128.002 124.815L106.793 106.011H149.209Z" fill="#46509E"/>
<path d="M106.793 96.6544C109.722 96.6544 112.096 94.5504 112.096 91.9544C112.096 89.3584 109.722 87.2544 106.793 87.2544C103.864 87.2544 101.49 89.3584 101.49 91.9544C101.49 94.5504 103.864 96.6544 106.793 96.6544Z" fill="#37474F"/>
<path d="M149.209 96.6544C152.138 96.6544 154.512 94.5504 154.512 91.9544C154.512 89.3584 152.138 87.2544 149.209 87.2544C146.28 87.2544 143.906 89.3584 143.906 91.9544C143.906 94.5504 146.28 96.6544 149.209 96.6544Z" fill="#37474F"/>
<path d="M170.418 98.9983C170.418 89.9153 162.113 82.5467 151.859 82.5467C141.605 82.5467 133.303 89.9063 133.303 98.9983C133.301 101.461 133.917 103.885 135.095 106.048H120.907C122.085 103.885 122.701 101.461 122.699 98.9983C122.699 89.9153 114.397 82.5467 104.143 82.5467C93.8888 82.5467 85.584 89.9063 85.584 98.9983L74.9805 96.6473C74.9805 70.6915 98.7243 49.6445 128.002 49.6445C157.28 49.6445 181.022 70.6915 181.022 96.6473L170.418 98.9983Z" fill="#37474F"/>
</g>
</g>
</g>
</g>
<defs>
<clipPath id="clip0_1251_8946">
<rect width="256" height="256" fill="white"/>
</clipPath>
<clipPath id="clip1_1251_8946">
<rect width="256" height="256" fill="white"/>
</clipPath>
</defs>
</svg>
