<?xml version="1.0" encoding="UTF-8"?>
<svg version="1.1" xmlns="http://www.w3.org/2000/svg" width="192" height="192">
<path d="M0 0 C1.11359894 -0.00686325 2.22719788 -0.0137265 3.37454224 -0.02079773 C7.02863586 -0.03898795 10.68229691 -0.03523894 14.33642578 -0.02954102 C16.89413593 -0.0341067 19.45184485 -0.03941343 22.009552 -0.04542542 C27.36059134 -0.05434144 32.71147535 -0.05218712 38.0625 -0.04199219 C44.21902194 -0.03052067 50.37510773 -0.04458137 56.53157222 -0.07138866 C62.48923592 -0.09634422 68.44676587 -0.09870192 74.4044838 -0.0922718 C76.92329763 -0.09211911 79.44212006 -0.09812059 81.96090317 -0.11056328 C85.49248816 -0.12555218 89.02313064 -0.11473698 92.5546875 -0.09765625 C93.58051941 -0.10732422 94.60635132 -0.11699219 95.66326904 -0.12695312 C109.46756076 0.01184169 120.1673339 5.4484839 130.15673828 14.71655273 C139.7261004 24.82757686 142.8702931 36.38451509 142.81079102 49.99731445 C142.81765427 51.11091339 142.82451752 52.22451233 142.83158875 53.37185669 C142.84977896 57.02595032 142.84602996 60.67961137 142.84033203 64.33374023 C142.84489772 66.89145038 142.85020444 69.4491593 142.85621643 72.00686646 C142.86513246 77.35790579 142.86297813 82.70878981 142.8527832 88.05981445 C142.84131169 94.21633639 142.85537239 100.37242219 142.88217968 106.52888668 C142.90713524 112.48655037 142.90949294 118.44408033 142.90306282 124.40179825 C142.90291012 126.92061208 142.90891161 129.43943452 142.92135429 131.95821762 C142.93634319 135.48980261 142.925528 139.02044509 142.90844727 142.55200195 C142.92294922 144.09074982 142.92294922 144.09074982 142.93774414 145.6605835 C142.79894933 159.46487521 137.36230712 170.16464835 128.09423828 180.15405273 C117.98321416 189.72341485 106.42627592 192.86760755 92.81347656 192.80810547 C91.69987762 192.81496872 90.58627869 192.82183197 89.43893433 192.8289032 C85.7848407 192.84709342 82.13117965 192.84334441 78.47705078 192.83764648 C75.91934064 192.84221217 73.36163172 192.84751889 70.80392456 192.85353088 C65.45288522 192.86244691 60.10200121 192.86029259 54.75097656 192.85009766 C48.59445463 192.83862614 42.43836883 192.85268684 36.28190434 192.87949413 C30.32424065 192.90444969 24.36671069 192.90680739 18.40899277 192.90037727 C15.89017893 192.90022457 13.3713565 192.90622606 10.85257339 192.91866875 C7.3209884 192.93365765 3.79034593 192.92284245 0.25878906 192.90576172 C-1.2799588 192.92026367 -1.2799588 192.92026367 -2.84979248 192.93505859 C-16.6540842 192.79626378 -27.35385734 187.35962157 -37.34326172 178.09155273 C-46.91262384 167.98052861 -50.05681654 156.42359038 -49.99731445 142.81079102 C-50.0041777 141.69719208 -50.01104095 140.58359314 -50.01811218 139.43624878 C-50.0363024 135.78215515 -50.0325534 132.1284941 -50.02685547 128.47436523 C-50.03142116 125.91665509 -50.03672788 123.35894617 -50.04273987 120.80123901 C-50.05165589 115.45019968 -50.04950157 110.09931566 -50.03930664 104.74829102 C-50.02783513 98.59176908 -50.04189583 92.43568328 -50.06870311 86.27921879 C-50.09365868 80.3215551 -50.09601638 74.36402514 -50.08958626 68.40630722 C-50.08943356 65.88749339 -50.09543505 63.36867095 -50.10787773 60.84988785 C-50.12286663 57.31830286 -50.11205144 53.78766038 -50.0949707 50.25610352 C-50.10463867 49.23027161 -50.11430664 48.2044397 -50.12426758 47.14752197 C-49.98547277 33.34323025 -44.54883055 22.64345712 -35.28076172 12.65405273 C-25.1697376 3.08469062 -13.61279936 -0.05950209 0 0 Z " fill="#0A0A0A" transform="translate(49.59326171875,-0.404052734375)"/>
<path d="M0 0 C1.19568604 0.00737183 1.19568604 0.00737183 2.41552734 0.01489258 C26.46035975 0.475205 55.35247537 8.1865222 72.9375 25.3125 C73.53820312 25.88613281 74.13890625 26.45976563 74.7578125 27.05078125 C79.96981598 32.52716172 81.99216073 38.772988 82.4375 46.25 C82.10483147 55.19046684 77.22810088 61.606456 71 67.62109375 C66.0399199 71.68873519 62.51699969 72.7385531 56.125 72.5 C55.08569336 72.47969727 55.08569336 72.47969727 54.02539062 72.45898438 C52.32908735 72.42388845 50.63318864 72.37008943 48.9375 72.3125 C48.89625 73.34375 48.855 74.375 48.8125 75.4375 C46.84740298 90.80346697 36.73718035 103.07547308 24.9375 112.3125 C20.14674818 115.44989465 14.5480459 116.46823043 8.9375 115.3125 C6.18180553 113.13090855 4.50161253 111.44072506 2.9375 108.3125 C2.53039407 104.07859838 2.68174035 101.79661648 4.6875 98 C6.9375 95.3125 6.9375 95.3125 9.125 94.3125 C9.723125 93.9825 10.32125 93.6525 10.9375 93.3125 C11.75334568 90.25341587 11.75334568 90.25341587 11.9375 87.3125 C9.9575 87.3125 7.9775 87.3125 5.9375 87.3125 C5.6590625 88.3025 5.6590625 88.3025 5.375 89.3125 C2.93394498 94.40687568 -0.33012411 99.00269441 -5.5234375 101.4921875 C-7.69311175 102.21084932 -9.83008649 102.82653243 -12.0625 103.3125 C-12.0625 103.9725 -12.0625 104.6325 -12.0625 105.3125 C-11.258125 105.51875 -10.45375 105.725 -9.625 105.9375 C-0.95574523 109.28352816 7.58505316 115.70286263 12.9375 123.3125 C13.40323715 127.66408448 13.27388272 129.68778924 11.1875 133.5625 C7.47995159 138.09394805 4.53905964 139.85340124 -1.25 140.875 C-6.1927435 140.14574276 -7.37649458 138.22894542 -10.66015625 134.66796875 C-18.73658875 126.74912518 -28.81397962 122.2082152 -39.37109375 118.6015625 C-49.20884146 115.16615854 -49.20884146 115.16615854 -52.0625 112.3125 C-51.7246348 107.287523 -50.35176487 103.09065276 -48.5 98.4375 C-46.36886676 92.67668449 -45.45259594 88.41154057 -46.0625 82.3125 C-46.5575 81.3225 -46.5575 81.3225 -47.0625 80.3125 C-47.57039063 80.60125 -48.07828125 80.89 -48.6015625 81.1875 C-52.87988545 83.49491013 -56.08402209 85.0869299 -61.0625 84.3125 C-65.10229147 82.67734631 -67.31627751 80.29368153 -69.328125 76.41015625 C-70.74134291 72.37346466 -70.87254783 68.49774711 -70.0625 64.3125 C-66.93603681 59.85965849 -63.17842814 57.98840749 -58.0625 56.3125 C-54.125 56.125 -54.125 56.125 -51.0625 56.3125 C-50.753125 55.1059375 -50.753125 55.1059375 -50.4375 53.875 C-47.44451117 46.12043803 -42.29266667 38.64610922 -35.0625 34.3125 C-26.94200395 30.80956066 -18.84016739 30.88499749 -10.125 31 C-8.7492688 31.00865946 -7.37353634 31.01712151 -5.99780273 31.02539062 C4.3943737 31.12617607 14.64754151 31.84437853 24.9375 33.3125 C25.5975 31.3325 26.2575 29.3525 26.9375 27.3125 C25.90343018 27.33344727 24.86936035 27.35439453 23.80395508 27.37597656 C19.95562672 27.44855288 16.10735846 27.49436317 12.25854492 27.53222656 C10.59502987 27.55230207 8.93158504 27.57956876 7.26831055 27.61425781 C4.8727076 27.66295766 2.47804008 27.68550856 0.08203125 27.703125 C-1.02763252 27.73409271 -1.02763252 27.73409271 -2.15971375 27.76568604 C-5.84874575 27.76727745 -7.86642689 27.43988622 -10.9909668 25.40991211 C-14.39195077 21.96644089 -15.36171475 19.31236359 -15.4375 14.5 C-15.33802372 9.31958146 -14.10075867 6.47925475 -11.0625 2.3125 C-7.31382615 -0.1866159 -4.34488904 -0.03163087 0 0 Z " fill="#363636" transform="translate(90.0625,25.6875)"/>
<path d="M0 0 C1.19568604 0.00737183 1.19568604 0.00737183 2.41552734 0.01489258 C26.46035975 0.475205 55.35247537 8.1865222 72.9375 25.3125 C73.53820312 25.88613281 74.13890625 26.45976563 74.7578125 27.05078125 C79.96981598 32.52716172 81.99216073 38.772988 82.4375 46.25 C82.10483147 55.19046684 77.22810088 61.606456 71 67.62109375 C66.0399199 71.68873519 62.51699969 72.7385531 56.125 72.5 C55.08569336 72.47969727 55.08569336 72.47969727 54.02539062 72.45898438 C52.32908735 72.42388845 50.63318864 72.37008943 48.9375 72.3125 C48.89625 73.34375 48.855 74.375 48.8125 75.4375 C46.84740298 90.80346697 36.73718035 103.07547308 24.9375 112.3125 C20.14674818 115.44989465 14.5480459 116.46823043 8.9375 115.3125 C6.18180553 113.13090855 4.50161253 111.44072506 2.9375 108.3125 C2.53039407 104.07859838 2.68174035 101.79661648 4.6875 98 C6.9375 95.3125 6.9375 95.3125 9.125 94.3125 C9.723125 93.9825 10.32125 93.6525 10.9375 93.3125 C11.75334568 90.25341587 11.75334568 90.25341587 11.9375 87.3125 C9.9575 87.3125 7.9775 87.3125 5.9375 87.3125 C5.6590625 88.3025 5.6590625 88.3025 5.375 89.3125 C2.93394498 94.40687568 -0.33012411 99.00269441 -5.5234375 101.4921875 C-7.69311175 102.21084932 -9.83008649 102.82653243 -12.0625 103.3125 C-12.0625 103.9725 -12.0625 104.6325 -12.0625 105.3125 C-11.258125 105.51875 -10.45375 105.725 -9.625 105.9375 C-0.95574523 109.28352816 7.58505316 115.70286263 12.9375 123.3125 C13.40323715 127.66408448 13.27388272 129.68778924 11.1875 133.5625 C7.47995159 138.09394805 4.53905964 139.85340124 -1.25 140.875 C-6.1927435 140.14574276 -7.37649458 138.22894542 -10.66015625 134.66796875 C-18.73658875 126.74912518 -28.81397962 122.2082152 -39.37109375 118.6015625 C-49.20884146 115.16615854 -49.20884146 115.16615854 -52.0625 112.3125 C-51.7246348 107.287523 -50.35176487 103.09065276 -48.5 98.4375 C-46.36886676 92.67668449 -45.45259594 88.41154057 -46.0625 82.3125 C-46.5575 81.3225 -46.5575 81.3225 -47.0625 80.3125 C-47.57039063 80.60125 -48.07828125 80.89 -48.6015625 81.1875 C-52.87988545 83.49491013 -56.08402209 85.0869299 -61.0625 84.3125 C-65.10229147 82.67734631 -67.31627751 80.29368153 -69.328125 76.41015625 C-70.74134291 72.37346466 -70.87254783 68.49774711 -70.0625 64.3125 C-66.93603681 59.85965849 -63.17842814 57.98840749 -58.0625 56.3125 C-54.125 56.125 -54.125 56.125 -51.0625 56.3125 C-50.753125 55.1059375 -50.753125 55.1059375 -50.4375 53.875 C-47.44451117 46.12043803 -42.29266667 38.64610922 -35.0625 34.3125 C-26.94200395 30.80956066 -18.84016739 30.88499749 -10.125 31 C-8.7492688 31.00865946 -7.37353634 31.01712151 -5.99780273 31.02539062 C4.3943737 31.12617607 14.64754151 31.84437853 24.9375 33.3125 C25.5975 31.3325 26.2575 29.3525 26.9375 27.3125 C25.90343018 27.33344727 24.86936035 27.35439453 23.80395508 27.37597656 C19.95562672 27.44855288 16.10735846 27.49436317 12.25854492 27.53222656 C10.59502987 27.55230207 8.93158504 27.57956876 7.26831055 27.61425781 C4.8727076 27.66295766 2.47804008 27.68550856 0.08203125 27.703125 C-1.02763252 27.73409271 -1.02763252 27.73409271 -2.15971375 27.76568604 C-5.84874575 27.76727745 -7.86642689 27.43988622 -10.9909668 25.40991211 C-14.39195077 21.96644089 -15.36171475 19.31236359 -15.4375 14.5 C-15.33802372 9.31958146 -14.10075867 6.47925475 -11.0625 2.3125 C-7.31382615 -0.1866159 -4.34488904 -0.03163087 0 0 Z M-10.0625 8.3125 C-10.53801123 10.94767658 -10.53801123 10.94767658 -10.4375 13.8125 C-10.44523437 14.7715625 -10.45296875 15.730625 -10.4609375 16.71875 C-10.25497099 19.27162067 -10.25497099 19.27162067 -8.97583008 20.94702148 C-6.07394327 23.01799927 -3.58069863 22.71662704 -0.05078125 22.75390625 C0.63627396 22.76711411 1.32332916 22.78032196 2.03120422 22.79393005 C4.22917627 22.83479555 6.42673462 22.85645838 8.625 22.875 C26.05463348 23.06632207 26.05463348 23.06632207 32.9375 25.3125 C32.31968355 28.32354226 31.66804134 29.71260528 29.875 32.375 C27.66220263 35.14339933 27.66220263 35.14339933 27.9375 38.3125 C27.05578125 38.168125 26.1740625 38.02375 25.265625 37.875 C14.80204328 36.36292172 4.35719881 36.0669471 -6.19812012 36.01293945 C-7.80582141 36.00436763 -9.41350437 35.99076081 -11.02111816 35.97192383 C-25.0307353 35.57836778 -25.0307353 35.57836778 -37.515625 41.15234375 C-42.5504919 47.03000358 -45.49777033 53.02521523 -48.0625 60.3125 C-48.78695312 60.33828125 -49.51140625 60.3640625 -50.2578125 60.390625 C-56.95139994 60.78331546 -61.21004752 61.46004752 -66.0625 66.3125 C-65.84391822 70.68413554 -65.52637368 73.45611782 -63.4375 77.3125 C-61.14127105 79.57844463 -61.14127105 79.57844463 -57.75 79.9375 C-53.64746988 79.24215591 -51.75661462 78.02717585 -48.640625 75.40625 C-47.0625 74.3125 -47.0625 74.3125 -44.0625 74.3125 C-40.32842513 80.21858654 -41.23991424 89.49676348 -42.66796875 96.12109375 C-43.37287872 98.2429801 -44.15108038 100.27180924 -45.0625 102.3125 C-46.57272509 105.8893489 -47.0625 107.30531607 -47.0625 111.3125 C-45.89074219 111.67601562 -44.71898437 112.03953125 -43.51171875 112.4140625 C-29.82456451 116.75282477 -18.05866087 121.98582087 -7.3828125 131.8671875 C-4.92720892 134.11921772 -3.29822572 135.26439271 0 135.9375 C4.0299485 135.08006415 5.50679333 133.60110314 7.9375 130.3125 C8.36695107 126.83954791 8.38677643 125.00424308 6.4609375 122.0390625 C1.1654772 116.85913951 -9.03770228 107.3125 -17.0625 107.3125 C-16.68236946 104.48867312 -16.44190284 102.7448821 -15.0625 100.3125 C-12.88169484 99.00054152 -10.69086323 98.16513417 -8.3125 97.265625 C-2.98949974 95.01074294 0.05508344 90.11652761 2.9375 85.3125 C2.9375 84.6525 2.9375 83.9925 2.9375 83.3125 C10.96388522 82.69508575 10.96388522 82.69508575 14.5 84.9375 C16.35107136 87.99579182 16.37805252 89.78807982 15.9375 93.3125 C14.69706119 97.25935077 12.43989817 98.33678821 8.9375 100.3125 C7.53814987 103.11120027 7.68484595 105.21748792 7.9375 108.3125 C8.9375 110.3125 8.9375 110.3125 10.9375 111.3125 C14.15954212 112.0029376 16.16809338 111.72032755 19.08203125 110.17578125 C21.44472368 108.64224494 23.69334326 107.01428611 25.9375 105.3125 C26.56011719 104.86777344 27.18273437 104.42304688 27.82421875 103.96484375 C39.17181654 95.21826838 42.65596745 81.56763839 45.9375 68.3125 C47.72994141 68.3434375 47.72994141 68.3434375 49.55859375 68.375 C60.1234066 68.53790255 60.1234066 68.53790255 69.25 63.875 C74.58644638 57.95964918 78.41000622 51.91257814 78.125 43.75 C76.77650557 35.18946839 72.24042147 30.06596368 65.625 24.75 C53.26661065 16.02911688 39.81838258 11.13349238 25.14501953 7.81616211 C23.67747398 7.4813306 22.21457521 7.12541386 20.75732422 6.74829102 C14.82623398 5.26979158 9.16123506 4.97846492 3.0625 5 C2.12664062 4.98388672 1.19078125 4.96777344 0.2265625 4.95117188 C-0.670625 4.95052734 -1.5678125 4.94988281 -2.4921875 4.94921875 C-3.70237549 4.94474731 -3.70237549 4.94474731 -4.93701172 4.94018555 C-7.58061303 5.40325607 -8.46009526 6.19269152 -10.0625 8.3125 Z " fill="#D7D7D7" transform="translate(90.0625,25.6875)"/>
<path d="M0 0 C1.14984375 -0.00386719 2.2996875 -0.00773437 3.484375 -0.01171875 C4.68578125 -0.00011719 5.8871875 0.01148438 7.125 0.0234375 C8.32640625 0.01183594 9.5278125 0.00023437 10.765625 -0.01171875 C12.49039063 -0.00591797 12.49039063 -0.00591797 14.25 0 C15.83167969 0.00507568 15.83167969 0.00507568 17.4453125 0.01025391 C20.125 0.3984375 20.125 0.3984375 21.96875 1.73583984 C23.77293713 4.33012074 23.50818629 6.3329472 23.125 9.3984375 C21.96875 11.05883789 21.96875 11.05883789 20.125 12.3984375 C15.82180348 13.04728865 11.47155449 12.86158777 7.125 12.8359375 C5.32289062 12.8659082 5.32289062 12.8659082 3.484375 12.89648438 C2.33453125 12.89583984 1.1846875 12.89519531 0 12.89453125 C-1.05445313 12.89638428 -2.10890625 12.8982373 -3.1953125 12.90014648 C-5.875 12.3984375 -5.875 12.3984375 -7.71875 10.52758789 C-9.15237901 7.88766421 -9.33081835 6.36125677 -8.875 3.3984375 C-6.41049152 -0.07039981 -4.08663483 0.0131142 0 0 Z " fill="#B6B6B6" transform="translate(41.875,33.6015625)"/>
<path d="M0 0 C0.81146484 -0.01998047 1.62292969 -0.03996094 2.45898438 -0.06054688 C6.33557062 -0.05736674 8.41221952 -0.02599779 11.6328125 2.26953125 C13.0625 4.4375 13.0625 4.4375 13 7.5625 C12.0625 10.4375 12.0625 10.4375 9.0625 12.4375 C6.07634046 12.85911515 3.07531745 12.76184284 0.0625 12.75 C-1.16726562 12.77416992 -1.16726562 12.77416992 -2.421875 12.79882812 C-3.21078125 12.79947266 -3.9996875 12.80011719 -4.8125 12.80078125 C-5.53179688 12.80376221 -6.25109375 12.80674316 -6.9921875 12.80981445 C-9.51534751 12.32690544 -10.39731395 11.46345075 -11.9375 9.4375 C-12.58199271 4.28155833 -12.58199271 4.28155833 -10.66967773 1.77709961 C-7.51895696 -0.6595466 -3.83804698 -0.03337432 0 0 Z " fill="#B5B5B5" transform="translate(33.9375,51.5625)"/>
<path d="M0 0 C3.37013879 0.67402776 4.51677007 1.7087875 6.5 4.5 C7.10975382 8.15852292 6.94543026 9.80512879 4.9375 12.9375 C2.5 14.5 2.5 14.5 -1.125 14.4375 C-4.5 13.5 -4.5 13.5 -6.5 10.5 C-6.96649698 6.84577364 -6.96996298 5.16142938 -4.8125 2.125 C-2.5 0.5 -2.5 0.5 0 0 Z " fill="#DDDDDD" transform="translate(150.5,57.5)"/>
</svg>
