<svg width="256" height="256" viewBox="0 0 256 256" fill="none" xmlns="http://www.w3.org/2000/svg">
<rect width="256" height="256" fill="white"/>
<g clip-path="url(#clip0_1230_93)">
<path d="M117.382 112.686C111.752 112.686 98.8576 115.41 94.2084 112.649C90.7942 110.615 88.5422 105.857 85.7818 103.024C80.6604 97.7936 74.6673 93.4713 68.0931 90.275C65.151 88.8222 60.974 86.3523 57.5961 87.4782C51.2398 89.5849 46.4817 99.9003 43.5759 105.421C32.0983 127.069 32.8973 154.855 41.5056 177.338C47.7166 193.574 58.7584 198.986 74.5947 204.253C98.0222 212.062 126.753 213.587 150.543 206.577C165.145 202.255 175.714 199.603 183.415 185.402C190.788 171.781 194.42 154.782 192.204 139.346C191.26 132.771 185.085 121.185 186.211 115.155C187.119 110.361 197.035 111.923 200.631 110.579C211.237 106.547 227.291 87.224 218.429 74.9836C213.852 68.6636 199.033 76.2185 192.895 72.2958C189.299 70.0075 187.337 63.5422 184.65 60.2006C178.656 52.682 170.375 48.0692 161.077 45.9988C135.325 40.2237 111.643 60.2733 110.19 86.0254C109.645 95.8322 113.641 103.968 117.382 112.686Z" fill="#040502"/>
<path d="M145.676 54.8979C125.045 58.7843 115.311 82.0302 122.139 100.554C123.955 105.458 136.85 116.681 131.692 121.076C129.222 123.183 124.464 122.384 121.449 122.384C114.149 122.311 106.957 121.73 99.6199 122.602C95.5882 123.074 91.048 124.708 87.8154 121.367C81.1685 114.574 77.4273 106.693 68.9281 101.426C66.4582 99.9005 62.4265 96.8858 59.4844 98.7019C54.2904 101.935 50.8762 111.233 48.8058 116.717C42.6311 132.99 43.6481 152.022 48.5152 168.44C50.2224 174.142 52.5106 181.77 56.9782 185.91C62.5718 191.068 72.2333 193.974 79.425 196.044C99.7289 201.892 121.704 203.236 142.443 198.95C150.252 197.315 162.674 195.245 168.849 189.906C181.998 178.464 184.576 154.637 182.615 138.619C181.634 130.592 175.714 122.82 175.205 115.192C174.806 108.908 183.196 101.172 184.213 94.198C187.482 71.3516 169.467 50.394 145.676 54.8979Z" fill="#FCFC01"/>
<path d="M158.606 69.6448C147.964 73.7129 154.974 89.3675 165.035 85.1905C175.532 80.9046 168.704 65.7947 158.606 69.6448Z" fill="#040502"/>
<path d="M193.33 79.5603C195.11 89.2582 192.277 96.8495 190.896 106.22C205.788 104.913 213.489 93.8347 213.525 79.5603H193.33Z" fill="#FD0101"/>
</g>
<defs>
<clipPath id="clip0_1230_93">
<rect width="186" height="166.067" fill="white" transform="translate(35 45)"/>
</clipPath>
</defs>
</svg>
