<svg width="256" height="256" viewBox="0 0 256 256" fill="none" xmlns="http://www.w3.org/2000/svg">
<rect width="256" height="256" fill="white"/>
<g clip-path="url(#clip0_1230_539)">
<path fill-rule="evenodd" clip-rule="evenodd" d="M137.185 51.7922C118.418 51.7922 101.261 58.5845 87.9509 69.8134L72.5603 51.6352C90.0318 36.912 112.568 27.9995 137.185 27.9995C161.803 27.9995 184.378 36.912 201.81 51.6352L186.42 69.8134C173.149 58.5452 155.952 51.7922 137.185 51.7922Z" fill="#57CB6A"/>
<path fill-rule="evenodd" clip-rule="evenodd" d="M59.329 133.732C63.1767 121.129 69.38 109.939 78.0177 100.124C75.9368 100.399 73.8952 100.987 71.9321 101.89C71.8143 101.812 71.7358 101.773 71.6572 101.694C71.5787 101.616 71.4609 101.576 71.3824 101.498C78.6851 90.5831 87.8724 81.6314 98.905 74.5642C92.2697 63.4924 88.8932 51.5175 88.6969 38.6003C103.773 41.0346 116.494 47.7876 126.82 58.8595C145.195 62.0397 161.842 69.1461 176.761 80.1001C180.452 82.7307 183.279 86.068 185.203 90.1119C186.066 93.2529 186.852 96.3938 187.558 99.5348C188.854 102.401 190.778 104.835 193.251 106.798C196.471 109.625 200.004 111.981 203.852 113.865C208.72 115.397 213.707 116.378 218.811 116.81C219.086 120.697 218.065 124.23 215.866 127.411C207.543 133.653 198.159 136.088 187.755 134.674C179.156 133.182 170.558 131.69 161.999 130.159C155.403 130.355 151.594 133.732 150.574 140.367C149.945 145.903 151.123 151.007 154.107 155.719C155.599 158.035 157.17 160.234 158.819 162.393C163.412 167.576 168.359 172.444 173.581 176.959C170.911 177.705 168.163 178.176 165.336 178.333C168.241 180.061 171.736 182.26 175.348 184.537C181.512 188.424 188.108 192.625 193.251 195.216C171.932 207.583 148.885 220.893 101.221 202.911C80.766 195.177 64.9435 181.239 59.3683 166.869C54.4605 154.462 55.4813 146.296 59.329 133.732ZM153.322 95.0589C163.02 100.634 174.209 99.3777 174.209 99.3777C174.209 99.3777 170.244 88.1096 160.585 82.5344C150.927 76.9592 139.188 79.1579 139.188 79.1579C139.188 79.1579 143.664 89.4445 153.322 95.0589Z" fill="#EBEBEB"/>
<path opacity="0.976" fill-rule="evenodd" clip-rule="evenodd" d="M154.696 170.245C152.458 170.127 150.22 169.931 148.022 169.656C156.188 175.899 162.47 183.634 166.907 192.86C165.022 192.232 163.059 191.761 161.017 191.486C162.588 195.255 164.158 199.063 165.729 202.872C139.855 210.41 115.827 206.602 93.6046 191.486C93.3298 189.248 93.3298 187.049 93.6046 184.811C94.115 180.061 94.7825 175.349 95.5677 170.638C91.6808 175.31 88.8147 180.532 86.9301 186.382L84.3781 183.83C85.5167 175.349 88.108 167.34 92.2305 159.841C91.3274 159.998 90.4244 159.998 89.4821 159.841C89.9533 160.194 89.9533 160.508 89.4821 160.822C87.6368 162.118 85.7915 163.453 83.9855 164.749C89.168 153.48 96.6278 143.979 106.404 136.244C109.113 134.438 112.018 132.907 115.042 131.729C115.866 136.99 117.24 142.094 119.164 147.081C119.4 147.709 119.792 148.259 120.342 148.651C124.15 141.506 128.823 134.949 134.28 128.981L133.887 128.588C129.372 131.062 125.367 134.203 121.912 138.011C120.342 133.692 119.439 129.217 119.164 124.662C119.007 124.309 118.732 124.034 118.379 123.877C112.215 126.036 106.483 128.902 101.064 132.515C103.263 125.408 106.6 118.851 111.076 112.844C110.33 112.412 109.545 112.334 108.72 112.648C106.247 113.394 103.734 114.14 101.261 114.807V114.415C108.524 105.934 117.672 100.673 128.783 98.6708C125.839 97.3752 122.855 96.2366 119.753 95.3336C127.802 95.2551 135.536 96.8255 142.957 100.045C153.165 105.149 163.098 110.646 172.835 116.574C183.2 122.621 194.311 125.094 206.247 124.034C208.485 122.935 210.448 123.249 212.136 125.016C205.462 130.355 197.884 132.397 189.325 131.101C182.336 129.845 175.387 128.431 168.477 126.782C151.791 123.17 143.86 129.884 144.684 147.041C145.116 151.125 146.176 155.051 147.825 158.82C149.945 162.785 152.223 166.594 154.696 170.245ZM112.647 57.014C109.192 55.2079 105.658 53.5197 102.046 51.9099L101.653 52.3026C103.381 55.0116 104.951 57.8385 106.365 60.7439C104.951 60.3513 103.656 59.6053 102.439 58.5845L102.046 58.9771C102.635 61.6076 103.145 64.1989 103.616 66.8295C99.1406 60.7046 96.1174 53.9123 94.5862 46.374C101.575 48.2979 107.621 51.8314 112.647 57.014Z" fill="#C1C1C1"/>
<path fill-rule="evenodd" clip-rule="evenodd" d="M87.9902 69.8137C71.4609 83.8302 60.978 104.678 60.978 128C60.978 170.089 95.0966 204.207 137.185 204.207C152.929 204.207 167.495 199.456 179.627 191.29V149.79H203.42V203.147L198.866 206.72C181.865 220.069 160.428 228 137.146 228C81.9046 228 37.1461 183.241 37.1461 128C37.1461 97.3756 50.927 69.9708 72.5603 51.6355L87.9902 69.8137Z" fill="#57CB6A"/>
<path d="M155.521 93.4885V86.7354C155.364 86.8925 155.128 87.0495 154.853 87.2458C154.618 87.4029 154.343 87.5599 154.068 87.6777C153.793 87.7955 153.518 87.9525 153.243 88.0703C152.969 88.1881 152.733 88.2666 152.537 88.3452V86.3428C152.772 86.2643 153.047 86.1072 153.322 85.9109C153.636 85.7146 153.911 85.5183 154.225 85.322C154.5 85.0864 154.775 84.8901 155.01 84.6938C155.246 84.4975 155.403 84.3404 155.481 84.2227H157.68V93.5277H155.521V93.4885Z" fill="#57CB6A"/>
</g>
<defs>
<clipPath id="clip0_1230_539">
<rect width="181.708" height="200" fill="white" transform="translate(37.1461 27.9998)"/>
</clipPath>
</defs>
</svg>
