<svg width="256" height="256" viewBox="0 0 256 256" fill="none" xmlns="http://www.w3.org/2000/svg">
<rect width="256" height="256" fill="white"/>
<g clip-path="url(#clip0_1251_8955)">
<path d="M62.7266 28.8204C64.9922 28.7813 67.2969 28.9376 69.5625 28.7032H102.336C107.141 28.5469 111.984 28.6641 116.789 28.6251H153.781C160.148 28.8594 166.516 28.5079 172.883 28.8594C173.742 29.0157 174.641 29.1719 175.461 29.5626C175.891 29.8751 176.32 30.2266 176.789 30.461C177.141 30.5782 177.414 30.2266 177.687 30.0704C178 29.8751 178.273 29.6407 178.586 29.4454C179.875 28.9766 181.203 28.7032 182.57 28.7813C185.383 28.5469 188.195 28.7032 191.008 28.6641C192.375 28.7032 193.781 28.586 195.148 28.7423C196.672 28.8985 198.234 28.6251 199.797 28.9376C202.141 29.1329 204.445 29.7188 206.633 30.5391C206.945 30.6563 207.297 30.8126 207.609 30.9298C207.883 31.0469 208.156 31.2032 208.43 31.3594C208.547 31.3985 208.742 31.5157 208.859 31.5548C210.07 32.1016 211.086 33.0001 212.258 33.6251C212.727 34.0938 213.234 34.5626 213.742 34.9532C214.367 35.5391 214.992 36.1251 215.539 36.7891L215.852 37.1016L216.555 38.0391H216.633C216.789 38.3126 216.945 38.586 217.141 38.8594L217.258 38.8204C217.609 39.4454 218.039 40.0313 218.43 40.6173C218.586 40.8126 218.742 41.0079 218.898 41.2423C218.977 41.4376 219.055 41.6719 219.172 41.8673C219.328 41.9063 219.445 41.9844 219.602 42.0235C219.484 42.0235 219.289 42.0626 219.211 42.0626C219.406 42.2969 219.602 42.5313 219.797 42.8048C219.836 42.9219 219.914 43.1173 219.953 43.2344C219.992 43.3516 220.109 43.5469 220.148 43.6251C220.344 44.0157 220.578 44.4454 220.773 44.836L221.359 46.2423C221.672 46.8673 221.867 47.5704 222.141 48.2344C222.531 49.211 222.844 50.2266 223.156 51.2032C224.25 54.5626 224.953 58.0001 225.734 61.3985C226.555 65.6173 227.336 69.8751 227.609 74.1719C227.844 75.1094 227.727 76.1251 227.805 77.0626C228.117 78.8594 227.922 80.6954 227.961 82.5313C227.844 83.7813 228.039 85.0313 227.961 86.2813C227.922 85.4219 228 84.5235 227.805 83.6641C227.766 87.6876 227.102 91.711 226.32 95.6563C225.773 98.1173 225.031 100.578 224.289 103C223.508 105.07 222.844 107.18 221.984 109.25C221.828 109.719 221.633 110.188 221.398 110.656C221.281 111.008 221.125 111.32 221.008 111.672C220.891 111.945 220.734 112.219 220.617 112.453C220.5 112.805 220.344 113.117 220.227 113.469C220.07 113.781 219.875 114.094 219.719 114.445L219.484 114.914C219.211 115.305 219.016 115.695 218.781 116.086C218.352 116.945 217.844 117.727 217.258 118.508C216.828 119.172 216.359 119.836 215.891 120.461C215.461 120.969 215.031 121.516 214.602 122.024C213.82 123 212.766 123.664 211.867 124.524C211.633 124.68 211.359 124.836 211.125 124.992V125.109C210.891 125.227 210.695 125.383 210.461 125.5C209.836 125.891 209.211 126.281 208.508 126.633C208.391 126.672 208.195 126.789 208.117 126.828C207.687 127.063 207.219 127.297 206.75 127.453C206.242 127.688 205.695 127.883 205.148 128.039C203.078 128.664 200.93 129.016 198.742 129.172C197.727 129.133 196.711 129.172 195.695 129.289H178.977C178.273 129.328 177.531 129.289 176.945 129.641C176.789 130.188 176.945 130.773 177.18 131.32C177.375 132.023 177.531 132.766 177.531 133.469V147.766C177.453 150.734 176.711 153.625 175.578 156.359C175.5 156.555 175.461 156.789 175.383 156.984C175.148 157.609 174.875 158.195 174.562 158.781C174.484 159.016 174.406 159.289 174.328 159.523C174.211 159.758 174.094 159.953 173.977 160.188C173.664 160.93 173.352 161.672 172.961 162.414C172.805 162.688 172.687 162.961 172.531 163.234C172.414 163.508 172.258 163.781 172.141 164.055C171.945 164.445 171.75 164.875 171.516 165.266C171.359 165.578 171.203 165.93 171.047 166.242C170.812 166.594 170.617 166.945 170.422 167.297C170.344 167.492 170.227 167.688 170.148 167.883C170.109 168 169.992 168.195 169.953 168.273C169.914 168.391 169.797 168.586 169.758 168.703L168.937 170.109C168.703 170.578 168.43 171.047 168.117 171.516C168.078 171.633 168 171.828 167.961 171.945C167.687 172.414 167.414 172.844 167.141 173.313C167.062 173.508 166.984 173.742 166.867 173.938C165.891 175.461 165.07 177.063 164.094 178.586C163.898 178.938 163.703 179.25 163.508 179.602C163.312 179.914 163.117 180.266 162.922 180.578C161.437 183 159.992 185.422 158.508 187.844C157.766 188.977 157.102 190.148 156.32 191.242C155.812 192.219 155.148 193.117 154.602 194.094C153.82 195.188 153.117 196.359 152.297 197.492C151.906 198.273 151.398 198.977 150.891 199.68C150.812 199.953 150.734 200.266 150.617 200.578C150.578 200.5 150.539 200.305 150.539 200.227C150.305 200.617 150.07 201.008 149.875 201.398C149.719 201.633 149.562 201.906 149.406 202.141C149.25 202.375 149.094 202.57 148.977 202.805C148.703 203.195 148.43 203.586 148.195 204.016L145.383 208.234C144.562 209.406 143.82 210.617 142.961 211.789C141.437 214.094 139.836 216.359 138.352 218.703H138.273C137.844 219.367 137.375 220.031 136.945 220.695H136.828C136.633 220.969 136.477 221.281 136.281 221.555C135.305 222.727 134.602 224.133 133.625 225.305C133.039 226.281 131.945 226.75 130.969 227.258C130.891 227.297 130.695 227.297 130.578 227.336C129.641 227.609 128.586 227.531 127.609 227.414C127.414 227.297 127.219 227.18 126.984 227.102C126.906 227.141 126.711 227.18 126.633 227.18L126.672 226.945C125.578 226.672 124.836 225.734 124.172 224.914H124.094C123.82 224.445 123.508 223.977 123.156 223.547C122.961 223.234 122.727 222.961 122.492 222.648C122.062 222.063 121.633 221.477 121.125 220.93L120.539 220.109C120.344 219.797 120.109 219.523 119.875 219.25C119.289 218.43 118.664 217.648 118.078 216.828C117.687 216.32 117.297 215.773 116.945 215.266L116.867 215.227C116.711 214.953 116.555 214.68 116.359 214.406H116.242C116.086 214.133 115.891 213.859 115.734 213.586H115.617C115.305 213.117 115.031 212.648 114.719 212.219L114.641 212.18C114.445 211.906 114.211 211.594 114.016 211.32C113.703 210.891 113.391 210.422 113.117 209.992H113C112.844 209.719 112.687 209.445 112.492 209.211H112.375C111.75 208.156 110.852 207.297 110.266 206.203H110.148C109.992 205.93 109.797 205.656 109.641 205.383H109.523C109.211 204.914 108.898 204.445 108.625 203.977H108.547C108.312 203.625 108.039 203.313 107.805 202.961C107.687 202.766 107.531 202.57 107.414 202.375C107.219 202.102 106.984 201.867 106.789 201.594C106.711 201.438 106.594 201.281 106.516 201.086C105.344 199.484 104.25 197.844 103.078 196.281C102.883 196.008 102.727 195.734 102.57 195.461C102.414 195.305 102.297 195.148 102.141 194.992C101.945 194.68 101.711 194.367 101.477 194.055C101.047 193.391 100.617 192.766 100.187 192.102H100.109C99.5234 191.164 98.8984 190.227 98.1953 189.328C98.0781 189.172 97.9609 189.016 97.8828 188.859C96.6719 187.063 95.5 185.266 94.2891 183.508C93.3516 182.297 92.5312 180.969 91.6719 179.68C91.5156 179.484 91.3984 179.289 91.2422 179.055C91.0859 178.781 90.8906 178.508 90.7344 178.234C90.0312 177.063 89.25 175.969 88.5469 174.836C88.3906 174.563 88.2344 174.328 88.0781 174.055C87.6875 173.43 87.2969 172.805 86.9453 172.18C86.2812 171.125 85.6172 170.031 84.9531 169.016C84.7187 168.586 84.4453 168.156 84.2109 167.766C84.0156 167.375 83.7812 166.984 83.5469 166.594C83.3125 166.164 83.0391 165.773 82.8047 165.344C82.5703 164.875 82.2969 164.406 81.9844 163.977C81.9062 163.781 81.8281 163.586 81.75 163.352C81.5156 162.961 81.2422 162.57 81.0078 162.141C80.8516 161.828 80.6953 161.477 80.5391 161.164C80.3047 160.695 80.0312 160.188 79.7969 159.719C79.6797 159.445 79.5234 159.172 79.4062 158.938C79.2109 158.547 79.0156 158.117 78.7812 157.727C78.7031 157.531 78.5859 157.336 78.5078 157.141C78.3906 156.789 78.2344 156.477 78.1172 156.125C77.9609 155.813 77.8047 155.5 77.6875 155.148C77.5312 154.719 77.375 154.328 77.2187 153.938C76.3594 151.281 75.9687 148.508 76.0469 145.734V128.664C74.6406 129.133 73.1562 129.25 71.6719 129.367H61.5937C60.3047 129.406 59.0547 129.133 57.8047 129.172C54.875 128.898 51.9062 128.274 49.2109 127.024C48.8203 126.867 48.4297 126.711 48 126.555C47.5703 126.281 47.1016 126.008 46.6719 125.774C45.8906 125.344 45.1094 124.875 44.4062 124.328C44.1328 124.094 43.8594 123.899 43.5859 123.742C43.2734 123.43 42.9609 123.156 42.5703 122.961C41.7109 122.18 40.8906 121.32 40.1094 120.5C39.3281 119.563 38.5859 118.586 37.8437 117.649C37.375 116.867 36.7891 116.125 36.3594 115.344C36.2031 115.109 36.0469 114.875 35.8906 114.602C35.6953 114.211 35.5 113.82 35.3047 113.391C35.1484 113.117 35.0312 112.844 34.875 112.57C34.6406 112.102 34.4453 111.633 34.25 111.164C31.5937 104.875 30.3047 98.1563 29.1719 91.4766C28.8984 89.6016 28.6641 87.7657 28.4687 85.8907C28.5078 84.7579 28.1953 83.6251 28.2734 82.4923C28.3125 79.9532 28.2344 77.4141 28.3125 74.8751C28.0781 75.0313 28.0781 75.3829 28.0781 75.6173C28.1172 78.2735 28.1172 80.9688 28.0781 83.6251C28.0391 80.6954 28.0781 77.7657 28.0391 74.8751C28.5469 74.0548 28.1562 73.1173 28.2734 72.2188C28.2734 72.9219 28.2734 73.6641 28.4297 74.3673C28.4297 72.4532 28.7422 70.5391 28.9375 68.6641C29.4844 64.6016 30.2656 60.5391 31.2812 56.5548C31.8672 54.1329 32.6094 51.711 33.5859 49.4063C33.8203 48.8594 34.0547 48.3516 34.2891 47.8048C34.4453 47.4923 34.6016 47.1407 34.7969 46.8282L35.3828 45.6563C35.5 45.5001 35.6172 45.3829 35.7344 45.2266C35.8125 45.0313 35.8906 44.7969 36.0078 44.6016C36.5937 43.8204 37.1016 43.0001 37.6484 42.1798H37.7266C37.9609 41.8673 38.2344 41.5157 38.4687 41.2032L38.5078 41.1641C38.8203 40.8126 39.1328 40.4219 39.4453 40.0313C39.6797 39.7969 39.9141 39.5626 40.1094 39.3282C40.6172 38.7423 41.2031 38.1563 41.7891 37.6485C42.2187 37.4141 42.5703 37.0626 42.9219 36.6719C43.3125 36.4376 43.6641 36.2032 43.9766 35.8907L44.0156 35.8126C44.4844 35.5391 44.9531 35.2266 45.3438 34.836C45.9688 34.4454 46.5937 34.0938 47.1797 33.7032C47.2969 33.6641 47.4922 33.5469 47.6094 33.5079C48.3906 33.0782 49.1719 32.6094 50.0312 32.2969C50.3828 32.1407 50.6953 31.9454 51.0078 31.7501C51.125 31.7501 51.3203 31.711 51.4375 31.711C51.5547 31.6329 51.75 31.5157 51.8281 31.4376C52.8047 31.1251 53.7812 30.7344 54.7969 30.4219C57.3359 29.4063 60.0312 29.0157 62.7266 28.8204ZM42.4531 42.2579C38.625 46.4766 36.2422 51.8673 35.0703 57.4141C32.8437 66.2813 31.6328 75.5001 32.375 84.6407C32.7266 89.4063 33.6641 94.0938 34.6016 98.7423C35.1484 101.008 35.6562 103.313 36.4766 105.539C38.2344 111.359 41.4375 116.867 46.2812 120.617C50.0703 123.625 54.9141 125.109 59.7187 125.149H75.3437C75.3437 118.82 75.3437 112.492 75.4219 106.164C75.4609 104.211 75.3437 102.258 75.6953 100.344C76.7109 94.211 80.2266 88.7032 84.7969 84.6016C89.4844 80.4219 95.4219 77.4923 101.672 76.7501C105.148 76.3204 108.664 76.5938 112.18 76.5157C125.578 76.5157 139.016 76.5157 152.414 76.4766C161.672 76.1251 170.305 69.6016 173.234 60.8516C174.562 57.2188 174.602 53.2735 174.484 49.4454V32.7657C167.844 32.6876 161.203 32.7266 154.602 32.6876C124.484 32.6094 94.4062 32.7266 64.2891 32.7266C56.1641 32.7657 47.9609 36.1641 42.4531 42.2579ZM179.406 32.7266V48.0001C179.406 50.5001 179.445 52.961 179.25 55.461C178.898 58.9766 177.922 62.4532 176.242 65.5782C171.711 74.5235 162.453 80.9298 152.414 81.7501C149.328 81.9454 146.242 81.8282 143.156 81.8673H107.375C105.305 81.8673 103.234 81.8282 101.125 81.9844C97.5703 82.336 94.0937 83.5079 91.0859 85.4219C84.4844 89.4844 80.0312 96.9454 79.9531 104.758C79.9141 119.016 79.9531 133.313 79.9141 147.57C79.9141 148.547 79.9531 149.523 80.2266 150.461C81.0859 153.742 82.7656 156.711 84.2891 159.719C88.4297 167.258 93.1172 174.523 97.9609 181.672C102.062 187.844 106.398 193.859 110.695 199.875C114.055 204.602 117.531 209.25 120.969 213.938C123.625 217.492 126.32 221.008 128.977 224.563C134.797 216.203 140.578 207.766 146.164 199.211C153.391 188.195 160.461 177.063 166.75 165.5C168 163 169.367 160.539 170.461 157.961C171.984 154.563 173.664 150.969 173.508 147.141V131.047H126.75V125.266H194.641C196.672 125.266 198.703 125.305 200.695 124.992C203.977 124.524 207.18 123.195 209.758 121.047C212.727 118.586 214.797 115.266 216.477 111.828C217.648 109.25 218.742 106.672 219.641 104.016C222.57 96.2423 224.055 87.8829 223.898 79.5626C223.781 71.3985 222.18 63.3516 220.227 55.4219C219.094 51.2032 217.648 47.0626 215.422 43.3126C213.625 40.3048 211.281 37.6094 208.312 35.7735C204.992 33.6251 201.008 32.7266 197.102 32.7266C191.203 32.7266 185.305 32.7657 179.406 32.7266Z" fill="black"/>
<path d="M151.125 142.922C153.117 142.492 155.305 142.726 157.141 143.703C159.25 144.758 160.891 146.75 161.516 149.055C162.18 151.359 161.789 153.898 160.539 155.93C159.406 157.687 157.687 159.094 155.656 159.68C153.351 160.383 150.734 160.109 148.664 158.859C146.711 157.726 145.226 155.812 144.641 153.586C144.055 151.476 144.328 149.133 145.422 147.219C146.594 145.031 148.742 143.469 151.125 142.922ZM151.476 147.219C150.93 147.492 150.422 147.805 149.953 148.156L149.914 148.195C149.68 148.312 149.523 148.469 149.406 148.703C149.25 149.016 149.094 149.367 148.937 149.68C148.586 150.539 148.742 151.516 148.742 152.414C148.82 152.609 148.898 152.844 148.976 153.039C149.406 154.211 150.383 155.031 151.555 155.422C152.726 155.695 153.976 155.695 155.109 155.226C155.93 154.836 156.516 154.094 157.062 153.43C157.258 152.726 157.492 152.062 157.57 151.359C157.531 150.656 157.336 149.992 157.141 149.367C156.984 149.133 156.828 148.898 156.711 148.664C156.32 148.117 155.773 147.726 155.187 147.375C154.016 147.062 152.805 147.414 151.633 147.258C152.609 147.219 153.586 147.297 154.523 147.101C153.508 147.141 152.492 146.984 151.476 147.219Z" fill="black"/>
<path d="M42.453 42.2578C47.9608 36.1641 56.164 32.7656 64.328 32.7656C94.4452 32.7656 124.523 32.6484 154.641 32.7266C161.281 32.7656 167.922 32.6875 174.523 32.8047V49.4844C174.641 53.3125 174.562 57.2187 173.273 60.8906C170.305 69.6797 161.672 76.1641 152.453 76.5156C139.055 76.5938 125.617 76.5547 112.219 76.5547C108.703 76.5938 105.226 76.3594 101.711 76.7891C95.4218 77.5312 89.5233 80.4609 84.8358 84.6406C80.2655 88.7422 76.7499 94.25 75.7343 100.383C75.3827 102.297 75.4999 104.25 75.4608 106.203C75.3827 112.531 75.3827 118.859 75.3827 125.188H59.7577C54.953 125.148 50.1093 123.664 46.3202 120.656C41.4765 116.906 38.2343 111.398 36.5155 105.578C35.7343 103.352 35.2265 101.047 34.6405 98.7812C33.664 94.1328 32.7655 89.4453 32.414 84.6797C31.6718 75.5391 32.9218 66.3203 35.1093 57.4531C36.2421 51.8672 38.6249 46.4766 42.453 42.2578Z" fill="#3673A5"/>
<path d="M179.406 32.7266H197.102C201.008 32.7656 204.992 33.6641 208.313 35.7734C211.281 37.6484 213.664 40.3438 215.422 43.3125C217.688 47.0625 219.133 51.2031 220.227 55.4219C222.18 63.3125 223.781 71.3984 223.898 79.5625C224.094 87.8828 222.57 96.2031 219.641 104.016C218.742 106.672 217.609 109.25 216.477 111.828C214.797 115.266 212.727 118.586 209.758 121.047C207.219 123.195 204.016 124.523 200.695 124.992C198.703 125.305 196.672 125.266 194.641 125.266H126.75V131.047H173.508V147.141C173.664 150.969 171.984 154.562 170.461 157.961C169.367 160.539 168 163 166.75 165.5C160.461 177.062 153.391 188.234 146.164 199.211C140.617 207.766 134.836 216.164 128.977 224.562C126.32 221.008 123.625 217.492 120.969 213.938C117.531 209.25 114.055 204.602 110.695 199.875C106.398 193.859 102.063 187.844 97.9609 181.672C93.1563 174.523 88.4688 167.297 84.2891 159.719C82.7656 156.711 81.0859 153.742 80.2266 150.461C79.9531 149.523 79.875 148.547 79.9141 147.57C79.9141 133.312 79.875 119.016 79.9531 104.758C79.9922 96.9453 84.4844 89.4844 91.0859 85.4219C94.0938 83.5078 97.5703 82.3359 101.125 81.9844C103.195 81.8281 105.266 81.8672 107.375 81.8672H143.156C146.242 81.8281 149.328 81.9453 152.414 81.75C162.453 80.9297 171.711 74.5234 176.242 65.5781C177.883 62.4531 178.898 58.9766 179.25 55.4609C179.445 52.9609 179.367 50.5 179.406 48V32.7266ZM151.125 142.922C148.742 143.469 146.594 145.031 145.383 147.219C144.289 149.133 144.055 151.477 144.602 153.586C145.188 155.773 146.672 157.688 148.625 158.859C150.695 160.07 153.313 160.383 155.617 159.68C157.648 159.094 159.406 157.727 160.5 155.93C161.75 153.898 162.141 151.359 161.477 149.055C160.852 146.75 159.211 144.797 157.102 143.703C155.305 142.727 153.156 142.492 151.125 142.922Z" fill="#FFD147"/>
</g>
<defs>
<clipPath id="clip0_1251_8955">
<rect width="200" height="200" fill="white" transform="translate(28 28)"/>
</clipPath>
</defs>
</svg>
