<svg width="256" height="256" viewBox="0 0 256 256" fill="none" xmlns="http://www.w3.org/2000/svg">
<rect width="256" height="256" fill="white"/>
<g clip-path="url(#clip0_1251_8944)">
<path d="M116.289 89.4453C91.2891 86.7891 66.1328 67.9219 64.1797 28C102.891 28 123.633 50.9297 125.625 87.2969C132.969 43.7031 167.305 48.8203 167.305 48.8203C168.945 73.5078 148.633 88.5078 125.625 89.7578C119.18 76.0859 80.4297 42.6875 80.4297 42.6875C80.3906 42.6484 80.3125 42.6484 80.2734 42.6875C80.2344 42.7266 80.2344 42.7656 80.2734 42.8047C80.2734 42.8047 117.656 75.3828 116.289 89.4453Z" fill="url(#paint0_linear_1251_8944)"/>
<path d="M127.969 228C125.547 227.844 103.008 226.984 101.641 201.672C100.547 186.281 112.695 174.914 112.695 159.992C109.922 122.727 60 127.336 60 159.992C59.9609 168.156 63.2031 175.969 68.9844 181.75L106.172 218.977C111.953 224.758 119.766 227.961 127.93 227.961" fill="#91180C"/>
<path d="M195.937 159.992C195.781 162.414 194.922 184.953 169.609 186.32C154.219 187.414 142.852 175.266 127.93 175.266C90.664 178.039 95.2734 227.922 127.93 227.922C136.094 227.961 143.906 224.719 149.687 218.937L186.914 181.75C192.695 175.969 195.898 168.156 195.898 159.992" fill="#F42E1C"/>
<path d="M127.969 92.0234C130.391 92.1797 152.93 93.0391 154.297 118.352C155.391 133.742 143.242 145.109 143.242 160.031C146.016 197.297 195.898 192.688 195.898 160.031C195.938 151.867 192.695 144.055 186.914 138.273L149.727 101.047C143.945 95.2656 136.133 92.0625 127.969 92.0625" fill="#91180C"/>
<path d="M60.1172 159.992C60.2734 157.57 61.1328 135.031 86.4453 133.664C101.836 132.57 113.203 144.719 128.125 144.719C165.391 141.906 160.781 92.0624 128.125 92.0624C119.961 92.0233 112.148 95.2655 106.367 101.047L69.1406 138.273C63.3594 144.055 60.1562 151.867 60.1562 160.031" fill="#F42E1C"/>
</g>
<defs>
<linearGradient id="paint0_linear_1251_8944" x1="64.1616" y1="58.8636" x2="167.378" y2="58.8636" gradientUnits="userSpaceOnUse">
<stop stop-color="#12B212"/>
<stop offset="1" stop-color="#00FF00"/>
</linearGradient>
<clipPath id="clip0_1251_8944">
<rect width="135.938" height="200" fill="white" transform="translate(60 28)"/>
</clipPath>
</defs>
</svg>
