<svg width="256" height="256" viewBox="0 0 256 256" fill="none" xmlns="http://www.w3.org/2000/svg">
<rect width="256" height="256" fill="#1088FF"/>
<g clip-path="url(#clip0_1251_8961)">
<path d="M128 28H128C72.7715 28 28 72.7715 28 128V128C28 183.229 72.7715 228 128 228H128C183.229 228 228 183.229 228 128V128C228 72.7715 183.229 28 128 28Z" fill="#1088FF"/>
<path d="M87.3173 171.049L103.225 143.755C99.3915 137.745 94.5847 132.418 89.0235 127.993C78.1013 136.687 63.4808 141.86 48.4663 141.86C68.4218 141.86 85.4097 158.092 85.4097 178.048H85.4383C85.4358 175.667 86.0323 173.255 87.3173 171.049Z" fill="white"/>
<path d="M87.3173 171.049L103.225 143.755C99.3915 137.745 94.5847 132.418 89.0235 127.993C78.1013 136.687 63.4808 141.86 48.4663 141.86C68.4218 141.86 85.4097 158.092 85.4097 178.048H85.4383C85.4358 175.667 86.0323 173.255 87.3173 171.049Z" fill="url(#paint0_linear_1251_8961)"/>
<path d="M207.534 114.135C187.69 114.042 171.546 97.8218 171.546 77.957C171.549 80.3381 170.952 82.7502 169.667 84.956L153.759 112.25C157.593 118.26 162.4 123.587 167.961 128.011C178.841 119.351 192.588 114.175 207.534 114.135Z" fill="white"/>
<path d="M207.534 114.135C187.69 114.042 171.546 97.8218 171.546 77.957C171.549 80.3381 170.952 82.7502 169.667 84.956L153.759 112.25C157.593 118.26 162.4 123.587 167.961 128.011C178.841 119.351 192.588 114.175 207.534 114.135Z" fill="url(#paint1_linear_1251_8961)"/>
<path d="M113.22 77.9571C113.22 70.2809 106.999 64.0586 99.3231 64.0586C91.6468 64.0586 85.4258 70.2809 85.4258 77.9571C85.4258 97.8231 69.3128 113.988 49.4679 114.094C49.4032 114.094 49.3411 114.104 49.2752 114.104C49.0329 114.104 48.7968 114.128 48.5569 114.14L48.4637 141.86C63.477 141.86 78.0988 136.687 89.021 127.993C103.751 116.268 113.219 98.2034 113.219 77.9571L113.22 77.9571Z" fill="white"/>
<path d="M167.961 128.011C153.232 139.736 143.764 157.802 143.764 178.048C143.764 185.706 149.956 191.914 157.606 191.944H157.715C165.365 191.914 171.557 185.706 171.557 178.048C171.557 158.204 187.632 142.058 207.44 141.914L207.534 114.135C192.588 114.175 178.841 119.35 167.961 128.011Z" fill="white"/>
<path d="M171.546 77.9571C171.541 73.1789 169.084 68.5299 164.659 65.9488C158.025 62.0839 149.519 64.327 145.654 70.9581L103.225 143.754L87.3172 171.048C86.0323 173.253 85.4358 175.666 85.4382 178.047C85.4432 182.825 87.9001 187.474 92.3254 190.055C94.5026 191.324 96.8799 191.929 99.2311 191.943H99.3914C104.145 191.915 108.763 189.45 111.33 185.046L153.759 112.25L169.667 84.9561C170.952 82.7502 171.548 80.3381 171.546 77.9571Z" fill="white"/>
</g>
<defs>
<linearGradient id="paint0_linear_1251_8961" x1="75.8458" y1="178.048" x2="75.8458" y2="114.089" gradientUnits="userSpaceOnUse">
<stop stop-color="#00004C" stop-opacity="0.8"/>
<stop offset="0.19" stop-opacity="0.55"/>
<stop offset="0.55" stop-opacity="0.15"/>
<stop offset="0.75" stop-color="#00004C" stop-opacity="0"/>
</linearGradient>
<linearGradient id="paint1_linear_1251_8961" x1="143.746" y1="102.984" x2="207.705" y2="102.984" gradientUnits="userSpaceOnUse">
<stop stop-color="#00004C" stop-opacity="0.8"/>
<stop offset="0.19" stop-opacity="0.55"/>
<stop offset="0.55" stop-opacity="0.15"/>
<stop offset="0.75" stop-color="#00004C" stop-opacity="0"/>
</linearGradient>
<clipPath id="clip0_1251_8961">
<rect width="200" height="200" fill="white" transform="translate(28 28)"/>
</clipPath>
</defs>
</svg>
