<svg width="256" height="256" viewBox="0 0 256 256" fill="none" xmlns="http://www.w3.org/2000/svg">
<rect width="256" height="256" fill="white"/>
<g clip-path="url(#clip0_1230_75)">
<path fill-rule="evenodd" clip-rule="evenodd" d="M128.421 28.6273L184.108 113.805C219.795 168.395 182.265 227.376 128.382 227.376C74.4984 227.376 36.929 168.355 72.6552 113.805L128.421 28.6273Z" fill="#4C90E8" stroke="#094491" stroke-width="1.25116"/>
<path fill-rule="evenodd" clip-rule="evenodd" d="M148.264 127.688C117.832 115.256 101.832 146.983 106.93 161.806C117.989 194.042 159.676 202.121 190.422 148.394C190.422 148.394 190.736 154.865 191.089 157.963C195.207 197.14 162.265 222.043 128.892 221.572C95.5183 221.102 85.322 208.121 75.4787 193.219C59.5176 169.022 63.4785 129.57 84.9299 111.1C109.44 90.8638 136.382 101.688 148.264 127.688Z" fill="#094491"/>
<path fill-rule="evenodd" clip-rule="evenodd" d="M129.127 115.962C95.0085 116.786 88.5378 156.081 97.989 172.944C111.126 196.356 131.048 200.866 158.304 192.199C142.735 209.141 110.774 213.611 89.0868 189.415C74.1454 172.787 72.8512 149.571 83.2044 130.159C93.5967 110.786 114.264 105.374 129.127 115.962Z" fill="#83B8F9"/>
</g>
<defs>
<clipPath id="clip0_1230_75">
<rect width="140.748" height="200" fill="white" transform="translate(58 27.9999)"/>
</clipPath>
</defs>
</svg>
