<svg width="256" height="256" viewBox="0 0 256 256" fill="none" xmlns="http://www.w3.org/2000/svg">
<g clip-path="url(#clip0_1251_8928)">
<rect width="256" height="256" fill="white"/>
<path d="M256.004 0H0.00439453V256H256.004V0Z" fill="#8F0000"/>
<path d="M51.4292 118.047C51.4966 106.403 42.1273 97.1454 30.4837 97.1454H0V111.431H30.4837C34.415 111.431 37.7142 114.282 37.7142 118.213V138.927C37.7142 142.859 34.415 146.288 30.4837 146.288H0V160.002H30.4837C42.1273 160.002 51.4287 150.571 51.4287 138.927L51.4284 129.253C99.6022 129.943 113.621 142.469 128.954 155.874C143.72 168.787 160.279 182.666 203.427 183.008L203.429 187.756C203.434 199.4 212.972 209.144 224.615 209.144H255.999V194.287H224.615C220.684 194.287 217.713 191.687 217.713 187.755V167.041C217.713 163.11 220.684 160.001 224.615 160.001H255.999V146.287H224.615C212.972 146.287 203.434 155.398 203.429 167.041L203.427 171.949C162.65 171.814 151.068 160.506 136.239 147.538C123.585 136.473 108.715 124.307 75.9551 119.881C76.2398 119.636 76.5025 119.399 76.7773 119.147C83.0849 113.363 86.4863 106.375 89.814 100.34C93.1416 94.3065 96.2726 89.2709 101.401 85.7509C105.562 82.8952 111.479 80.7664 120.571 80.3713L120.572 85.2147C120.574 96.8584 129.965 106.858 141.609 106.858H225.799C237.443 106.858 246.857 96.8584 246.857 85.2147V64.5007C246.857 52.8571 237.443 43.4297 225.799 43.4297H141.609C129.965 43.4297 120.566 52.8566 120.572 64.5007L120.574 69.3052C109.601 69.7461 101.283 72.4093 95.1451 76.6222C87.7011 81.7316 83.5912 88.7141 80.1244 94.9998C76.658 101.286 73.724 106.918 69.2903 110.983C65.4312 114.522 60.0939 117.255 51.4288 118.273L51.4292 118.047ZM141.606 57.7144H225.796C229.727 57.7144 232.569 60.5687 232.569 64.5001V85.2141C232.569 89.1455 229.727 92.0003 225.796 92.0003H141.606C137.674 92.0003 134.284 89.1457 134.284 85.2141V64.5001C134.284 60.5688 137.675 57.7144 141.606 57.7144Z" fill="white"/>
</g>
<defs>
<clipPath id="clip0_1251_8928">
<rect width="256" height="256" fill="white"/>
</clipPath>
</defs>
</svg>
