<svg width="256" height="256" viewBox="0 0 256 256" fill="none" xmlns="http://www.w3.org/2000/svg">
<g clip-path="url(#clip0_1251_8976)">
<rect width="256" height="256" fill="white"/>
<mask id="mask0_1251_8976" style="mask-type:luminance" maskUnits="userSpaceOnUse" x="-1" y="-1" width="257" height="257">
<path d="M255.962 -0.0380859H-0.0375977V255.962H255.962V-0.0380859Z" fill="white"/>
</mask>
<g mask="url(#mask0_1251_8976)">
<path d="M127.962 227.96C183.191 227.96 227.963 183.188 227.963 127.96C227.963 72.7314 183.191 27.96 127.962 27.96C72.7341 27.96 27.9626 72.7314 27.9626 127.96C27.9626 183.188 72.7341 227.96 127.962 227.96Z" fill="white"/>
<g filter="url(#filter0_d_1251_8976)">
<path d="M128.858 134.827C140.078 134.827 151.064 134.161 160.068 132.828C167.21 131.747 169.447 126.477 167.021 118.955L153.608 76.6913C151.176 68.9518 144.954 65.3496 136.366 65.3496H121.3C112.712 65.3496 106.489 68.9518 104.058 76.6913L90.6451 118.955C88.219 126.477 90.456 131.747 97.5978 132.828C106.603 134.161 117.597 134.827 128.858 134.827ZM124.18 131.264V187.446H133.504V131.264H124.18ZM105.922 190.999H151.744C153.934 190.999 155.425 189.43 155.425 187.148C155.425 182.923 151.981 179.988 146.795 179.988H110.871C105.685 179.988 102.292 182.923 102.292 187.148C102.292 189.43 103.732 190.999 105.922 190.999Z" fill="black"/>
</g>
</g>
</g>
<defs>
<filter id="filter0_d_1251_8976" x="60.3859" y="65.3496" width="136.894" height="184.283" filterUnits="userSpaceOnUse" color-interpolation-filters="sRGB">
<feFlood flood-opacity="0" result="BackgroundImageFix"/>
<feColorMatrix in="SourceAlpha" type="matrix" values="0 0 0 0 0 0 0 0 0 0 0 0 0 0 0 0 0 0 127 0" result="hardAlpha"/>
<feOffset dy="29.3168"/>
<feGaussianBlur stdDeviation="14.6584"/>
<feComposite in2="hardAlpha" operator="out"/>
<feColorMatrix type="matrix" values="0 0 0 0 0 0 0 0 0 0 0 0 0 0 0 0 0 0 0.25 0"/>
<feBlend mode="normal" in2="BackgroundImageFix" result="effect1_dropShadow_1251_8976"/>
<feBlend mode="normal" in="SourceGraphic" in2="effect1_dropShadow_1251_8976" result="shape"/>
</filter>
<clipPath id="clip0_1251_8976">
<rect width="256" height="256" fill="white"/>
</clipPath>
</defs>
</svg>
