<svg width="256" height="256" viewBox="0 0 256 256" fill="none" xmlns="http://www.w3.org/2000/svg">
<rect width="256" height="256" fill="white"/>
<g clip-path="url(#clip0_1251_8886)">
<path d="M179.535 32.9999C179.426 33.1135 179.336 33.2445 179.27 33.3875C178.765 34.4795 178.32 35.5983 177.937 36.7387C177.417 38.2229 176.614 40.4398 176.155 41.6687C175.706 42.8976 175.125 44.6465 174.855 45.5541C174.586 46.4616 173.475 49.5434 172.374 52.4078C171.185 55.4866 170.013 58.5716 168.857 61.6627C167.973 64.026 167.156 65.7418 166.905 65.7607C166.461 65.7985 165.79 63.8653 164.338 58.4249C163.923 56.8608 163.487 55.3024 163.029 53.7502C162.018 50.4144 161.049 47.066 160.122 43.7059C159.749 42.2643 159.508 41.7916 159.271 42.0752C159.205 42.1508 158.638 46.9059 158.009 52.6441C156.842 63.2367 156.643 64.4892 156.095 64.5365C155.925 64.5507 155.386 63.922 154.885 63.161C154.1 62.0056 153.285 60.8708 152.441 59.7578C150.787 57.6085 149.213 55.398 147.724 53.131C146.319 50.9913 145.838 50.9835 146.282 53.1073C146.679 54.9838 148.216 61.3838 149.497 66.4839C150.952 72.2789 151.198 73.8954 150.65 73.9427C150.21 73.9805 140.568 70.1849 138.89 69.3152C138.4 69.0727 137.885 68.8841 137.354 68.7527C136.706 68.5808 136.076 68.3465 135.472 68.0532C134.48 67.6025 133.473 67.1863 132.452 66.8053L130.58 66.1152L131.242 66.8999C131.615 67.33 132.887 68.6015 134.059 69.7217C135.231 70.8419 137.098 72.6617 138.219 73.7772C139.329 74.8927 140.469 76.0319 140.752 76.2966C141.036 76.5613 141.683 77.2324 142.194 77.7902C142.704 78.3479 144.009 79.1893 145.101 79.6478C145.952 80.0023 146.826 80.4419 147.667 80.924L186.247 91.8616C189.806 90.6185 191.049 90.2214 191.527 90.1789C192.235 90.0448 192.929 89.8406 193.597 89.5692C194.396 89.2666 196.669 88.4962 198.654 87.8675C200.64 87.2294 203.272 86.3739 204.501 85.9532C205.726 85.5278 206.973 85.1591 207.276 85.1308C207.583 85.1024 207.824 84.9748 207.815 84.8472C207.796 84.6108 206.387 84.4407 200.484 83.968C197.684 83.7546 194.887 83.5088 192.094 83.2306C190.723 83.0888 189.002 82.947 188.279 82.8998C187.31 82.8336 186.946 82.6587 186.909 82.2711C186.885 81.9781 190.023 78.0171 193.871 73.4605C197.723 68.9087 200.857 65.0612 200.843 64.9146C200.8 64.4042 199.188 65.1226 194.022 67.9776C191.999 69.0931 186.89 71.4375 186.379 71.4848C186.166 71.5037 185.982 71.3997 185.973 71.2532C185.963 71.1114 186.729 68.9324 187.674 66.4083C189.584 61.3365 190.416 59.0772 191.976 54.8137C194.088 49.0187 194.079 48.9904 191.645 51.6846C190.78 52.6488 188.336 55.3242 186.19 57.6308C184.054 59.9327 181.038 63.2083 179.497 64.9099C177.956 66.6115 176.51 68.0295 176.269 68.0532C175.72 68.1004 175.631 67.0606 175.952 64.3758C176.089 63.265 176.59 58.8314 177.082 54.5443C177.569 50.2619 178.334 44.0982 178.769 40.8368C179.204 37.5754 179.568 34.4179 179.592 33.8224C179.62 33.1937 179.62 32.9479 179.535 32.9999Z" fill="#479951"/>
<path d="M148.258 80.092C139.068 80.3184 130.191 83.4837 122.931 89.1235C115.671 94.7633 110.408 102.581 107.916 111.43L93.3953 162.62C91.8372 168.065 91.3701 173.764 92.0206 179.389C92.6711 185.015 94.4265 190.457 97.186 195.402C99.9455 200.347 103.655 204.699 108.101 208.207C112.546 211.715 117.642 214.31 123.093 215.843L131.436 218.206C136.88 219.764 142.579 220.232 148.205 219.581C153.831 218.931 159.272 217.175 164.218 214.416C169.163 211.656 173.515 207.947 177.022 203.501C180.53 199.055 183.125 193.96 184.659 188.508L199.184 137.328C200.741 131.882 201.207 126.182 200.556 120.555C199.905 114.929 198.149 109.486 195.388 104.54C192.628 99.5942 188.918 95.242 184.471 91.7335C180.025 88.225 174.929 85.6294 169.476 84.0955L161.143 81.7321C156.953 80.543 152.613 79.9901 148.258 80.092Z" fill="#E5B731"/>
<path d="M151.349 80.6179L151.529 80.8212C152.55 82.173 153.231 82.4519 153.632 81.672C153.713 81.5065 153.798 81.3978 153.944 81.3458L151.349 80.6179ZM159.3 81.0906C159.427 81.3978 156.851 82.8867 156.161 83.3216C155.405 83.799 153.689 83.7328 153.751 83.2271C153.823 82.6189 153.648 82.3211 153.226 82.3337C152.626 82.3621 152.64 82.4188 153.519 83.6619C153.93 84.2433 154.384 84.6025 154.516 84.4655C154.658 84.3331 154.658 84.3946 154.554 84.6073C154.289 85.1177 155.046 86.6067 155.433 86.342C155.599 86.2238 155.665 86.2663 155.57 86.4365C155.476 86.5972 155.75 87.916 156.199 89.3529C156.643 90.7851 157.04 92.3307 157.064 92.7845C157.102 93.5313 157.13 93.5455 157.348 92.9735C157.515 92.5387 157.571 92.8506 157.518 93.9094C157.319 98.154 157.286 94.3348 157.972 98.603C158.548 99.1561 159.427 101.543 159.248 102.072C159.059 102.616 157.447 103.368 156.884 103.169C156.473 103.027 148.362 105.707 144.869 107.196C141.088 101.775 137.193 96.7029 136.375 96.892C135.718 97.9082 135.094 98.3809 135.094 98.3809C133.629 98.0264 138.521 107.017 139.627 107.428C139.608 107.461 140.809 109.035 141.329 109.734C138.852 111.342 135.917 113.478 135.87 113.53C135.794 113.61 128.392 119.188 128.586 119.178C128.775 119.169 128.326 119.297 128.236 119.566C128.146 119.835 126.35 121.027 124.265 122.199L120.489 124.321L118.007 128.873C117.771 129.298 117.795 129.317 117.582 129.724C116.547 131.671 115.549 133.637 115.549 133.822C115.549 133.86 115.956 134.606 116.032 134.781C116.362 135.547 116.986 136.861 118.144 138.997C119.567 141.626 120.739 144.069 120.744 144.419C120.758 144.854 120.404 145.223 119.624 145.601C118.926 145.939 118.239 146.298 117.563 146.678L112.921 149.396C110.572 150.767 108.956 151.523 108.596 151.429C108.284 151.334 107.859 150.852 107.637 150.342C107.419 149.841 107.126 149.425 107.003 149.434C106.845 148.329 106.556 147.247 106.143 146.21C104.962 143.521 103.685 146.82 103.26 147.704C103.109 148.026 103.17 148.706 103.298 149.486C103.614 151.41 104.442 154.08 104.186 154.463C103.18 155.962 99.6677 157.394 99.8567 157.573C98.6892 160.835 98.6372 161.033 99.9229 160.287C101.185 159.592 106.744 157.035 106.966 157.115C107.505 157.299 113.408 168.714 113.309 169.371C113.214 169.976 102.655 176.149 101.573 176.23C101.048 176.268 100.731 175.979 100.31 175.114C99.8846 174.259 99.4401 173.412 98.9775 172.576L93.5986 161.979L92.4074 167.764C92.2656 168.294 98.1551 175.549 98.122 178.106L92.5823 181.311L93.2346 184.667L99.9749 181.973L103.142 188.047C104.881 191.393 106.228 194.291 106.124 194.475C106.02 194.654 105.302 195.137 104.527 195.553C103.752 195.968 102.258 196.815 101.194 197.429C99.3888 198.469 99.299 198.587 99.7764 199.088C100.051 199.386 100.358 199.863 100.362 200.043C100.585 200.185 100.712 200.374 100.901 200.78C101.483 201.281 101.629 201.239 104.574 199.58C106.261 198.625 107.816 197.906 108.034 197.982C108.521 198.152 114.415 209.477 114.424 210.262C114.424 210.565 114.297 210.829 114.127 210.829C113.455 210.862 113.621 211.964 114.727 212.455C116.868 213.415 120.092 214.979 120.219 214.838C120.29 214.762 120.569 213.476 120.38 213.136C119.709 211.935 119.983 211.623 123.268 209.808C125.064 208.816 126.884 207.776 127.3 207.511C127.721 207.242 128.907 206.537 129.952 205.942C131.62 204.987 131.913 204.916 132.315 205.304C132.57 205.545 134.078 208.206 135.676 211.222C138.55 216.648 137.916 218.775 136.876 219.233C136.073 219.588 137.24 219.46 139.618 219.744C140.814 220.212 142.685 219.791 142.941 219.834C143.196 219.876 143.583 219.607 143.687 219.621C143.796 219.635 144.066 219.366 144.288 219.011C144.727 218.316 155.287 212.191 156.105 212.153C156.412 212.139 157.074 213.027 157.853 214.469C158.544 215.755 159.196 216.846 159.29 216.898C159.631 217.078 162.363 215.967 162.358 215.651C162.353 215.476 161.762 214.332 161.053 213.098C160.344 211.855 159.758 210.617 159.754 210.357C159.739 209.714 171.306 203.082 172.01 203.328C172.294 203.423 172.932 204.288 173.414 205.228C173.901 206.173 174.387 206.925 174.501 206.92C174.922 206.901 176.571 204.581 176.543 204.046C176.463 203.584 176.298 203.14 176.056 202.737C175.2 201.3 175.413 200.941 177.966 199.495C180.296 198.176 180.405 198.067 181.265 196.072C182.116 194.092 182.319 193.298 181.974 193.312C181.889 193.312 180.022 194.324 177.828 195.562C174.548 197.42 173.764 197.75 173.442 197.42C172.795 196.758 167.146 186.061 167.127 185.47C167.118 185.083 168.815 183.986 173.168 181.538C176.491 179.676 179.322 178.229 179.473 178.319C179.625 178.409 180.702 180.304 181.856 182.526C183.009 184.757 184.049 186.567 184.172 186.562C184.295 186.562 184.673 185.579 185.008 184.383L185.628 182.214L184.29 179.685C183.557 178.291 182.943 176.84 182.933 176.471C182.919 175.941 183.467 175.507 185.646 174.367L188.388 172.935L189.097 170.553C189.489 169.244 189.768 168.142 189.73 168.109C189.683 168.071 187.788 169.092 185.49 170.388C183.193 171.683 181.123 172.68 180.906 172.604C180.334 172.406 174.454 161.18 174.562 160.49C174.657 159.842 185.136 153.669 186.275 153.589C186.866 153.542 187.301 154.165 189.158 157.711C190.354 160.008 191.413 161.879 191.508 161.875C191.602 161.875 191.98 160.849 192.33 159.606L192.978 157.342L191.654 154.917C189.726 151.367 189.749 151.24 192.987 149.533L195.7 148.101L196.338 145.842C196.693 144.599 196.924 143.535 196.858 143.478C196.787 143.417 194.925 144.367 192.727 145.601C190.411 146.901 188.534 147.775 188.251 147.68C187.981 147.586 186.36 144.859 184.649 141.602C182.234 136.993 181.624 135.58 181.889 135.235C182.428 134.526 193.403 128.499 193.866 128.66C194.093 128.741 195.308 130.655 196.56 132.914C199.099 137.504 199.018 137.485 199.779 133.618C200.063 132.186 200.03 132.026 198.739 129.658C197.997 128.301 197.397 126.968 197.392 126.694C197.383 126.401 198.116 125.772 199.188 125.162L201.018 124.118L200.97 122.44C200.947 121.513 200.838 120.672 200.725 120.563C200.611 120.455 199.5 120.984 198.267 121.745C197.038 122.511 195.833 123.068 195.582 122.983C194.986 122.775 189.281 111.838 189.258 110.85C189.243 110.202 189.73 109.81 192.661 108.156C194.547 107.097 196.135 106.199 196.192 106.142C196.31 106.024 195.421 104.469 194.816 103.727C194.391 103.207 194.188 103.278 190.964 105.098C189.092 106.161 187.372 106.974 187.135 106.894C186.729 106.752 180.532 95.2943 180.518 94.6515C180.513 94.4766 181.194 93.9567 182.031 93.4793C183.529 92.6238 185.174 92.0991 184.559 91.7399C182.924 89.0598 177.673 86.4696 171.291 84.6593C172.166 85.3399 172.865 87.949 173.797 89.6696C175.616 93.0492 175.654 92.9783 169.613 96.424C164.116 99.5578 163.478 99.8603 162.816 99.624C162.325 99.4491 156.624 88.5446 156.606 87.7363C156.591 87.1502 162.703 82.9151 164.338 82.4566L159.3 81.0906ZM176.065 86.5736C176.288 86.4318 178.296 88.0625 178.618 88.1523C179.336 88.3508 180.546 89.2583 180.802 89.6554C180.745 90.1375 179.714 90.7567 179.166 90.8465C178.523 90.9505 178.263 90.7803 177.843 89.9579C177.403 89.0882 175.697 86.8052 176.065 86.5736ZM176.841 96.7076L176.926 96.7171C177.394 96.8778 178.334 98.4045 180.608 102.692C184.295 109.64 184.29 109.285 180.702 110.935C179.711 111.375 178.759 111.901 177.857 112.504C176.744 113.248 175.587 113.924 174.392 114.527C171.443 116.064 171.4 116.087 170.961 115.553C170.214 114.641 164.778 103.793 164.896 103.448C165.062 102.956 176.08 96.7407 176.841 96.7076ZM161.181 105.684C161.701 105.731 162.457 106.903 164.655 111.011C167.34 116.026 167.832 117.349 167.312 118.243C166.919 118.928 156.965 124.477 156.067 124.515C155.277 124.548 155.036 124.184 152.427 119.131C151.888 117.855 149.78 114.527 147.384 110.935C148.332 110.582 149.049 110.321 149.534 110.15C152.389 109.474 155.514 108.274 157.258 107.711C158.988 106.724 160.817 105.651 161.181 105.684ZM185.585 112.599C186.185 112.949 192.07 124.501 191.9 125.002C191.805 125.262 189.253 126.873 186.218 128.57C183.189 130.272 180.475 131.671 180.201 131.685C180.048 131.683 179.897 131.649 179.758 131.586C179.618 131.524 179.492 131.434 179.388 131.321C178.566 130.338 173.48 120.388 173.461 119.741C173.447 119.093 174.184 118.588 179.332 115.704C182.579 113.884 185.391 112.49 185.585 112.599ZM143.565 112.769C146.093 116.125 148.844 119.826 149.586 121.23C150.929 123.763 152.035 126.07 152.044 126.349C152.063 127.067 151.033 127.79 145.711 130.792C142.685 132.494 140.757 133.392 140.237 133.354C139.528 133.302 139.093 132.645 136.597 127.909C135.038 124.945 133.747 122.185 133.738 121.778C137.127 117.07 140.61 114.442 143.565 112.769ZM129.309 121.466C129.337 121.476 129.507 121.806 129.559 121.868C130.637 123.163 136.555 135.117 136.366 135.67C136.271 135.944 133.587 137.627 130.42 139.409C127.253 141.191 124.549 142.647 124.407 142.651C124.067 142.665 122.989 140.855 120.252 135.637C119.598 134.437 119.01 133.204 118.489 131.941C118.017 130.749 117.917 130.05 118.333 129.672C118.612 129.416 120.371 128.055 121.722 127.001C122.918 126.07 123.566 125.559 124.899 124.557C127.12 122.884 129.143 121.409 129.309 121.466ZM169.755 121.523C170.46 121.731 176.434 133.169 176.198 133.86C176.103 134.143 173.504 135.774 170.441 137.475C167.378 139.177 164.646 140.586 164.381 140.595C163.7 140.623 163.606 140.453 160.401 134.356C158.094 129.951 157.575 128.755 157.83 128.306C158.293 127.502 169.127 121.339 169.755 121.523ZM153.599 130.626C153.705 130.625 153.811 130.641 153.911 130.674C154.305 130.82 154.643 131.084 154.88 131.43C156.175 133.231 160.481 141.848 160.411 142.481C160.354 142.996 159.078 143.847 154.753 146.3C151.68 148.049 148.91 149.5 148.594 149.514C148.159 149.533 147.28 148.12 144.921 143.625C143.22 140.373 141.877 137.518 141.958 137.282C142.147 136.724 152.725 130.678 153.599 130.626ZM177.999 137.466L178.084 137.475C178.519 137.65 179.525 139.319 181.629 143.318C183.321 146.551 184.715 149.392 184.72 149.651C184.729 149.954 182.598 151.325 178.911 153.39C175.716 155.186 172.927 156.671 172.719 156.68C172.511 156.69 172.185 156.519 172.015 156.311C171.306 155.413 166.106 145.156 166.092 144.622C166.083 144.173 167.444 143.233 171.764 140.756C174.903 138.96 177.706 137.48 178.003 137.466M138.379 139.324C138.999 139.536 144.704 150.564 144.614 151.372C144.552 151.906 143.347 152.743 139.074 155.21C136.063 156.945 133.364 158.377 133.071 158.396C132.778 158.415 132.178 157.9 131.734 157.224C130.372 155.158 126.378 147.109 126.359 146.4C126.345 145.846 127.343 145.171 132.15 142.453C135.345 140.647 138.153 139.239 138.379 139.324ZM162.486 146.452C163.053 146.645 168.895 157.521 168.919 158.424C168.928 158.911 167.69 159.748 163.152 162.319C159.971 164.115 157.178 165.585 156.927 165.595C156.492 165.614 150.305 154.241 150.281 153.371C150.267 152.833 161.881 146.239 162.486 146.452ZM122.668 148.304C122.741 148.326 122.807 148.365 122.862 148.418C123.476 148.9 129.167 159.615 129.186 160.315C129.195 160.807 128.761 161.076 122.105 164.895C119.789 166.219 117.639 167.32 117.322 167.334C116.684 167.362 115.79 165.907 112.477 159.54C110.86 156.439 110.478 155.475 110.714 155.035C110.879 154.728 113.559 153.012 116.67 151.23C121.047 148.725 122.143 148.158 122.668 148.304ZM146.75 155.432C146.788 155.439 146.821 155.448 146.85 155.461C147.526 155.862 153.079 166.294 153.103 167.202C153.117 167.802 152.545 168.261 149.7 169.896L144.028 173.186C142.775 173.904 141.669 174.476 141.579 174.467C140.866 174.391 140.265 173.465 137.547 168.294C135.198 163.827 134.537 162.305 134.787 161.979C134.967 161.742 137.633 160.098 140.719 158.339C144.784 156.023 146.259 155.324 146.75 155.432ZM170.715 162.522C171.169 162.57 172.104 164.049 174.317 168.161C175.961 171.224 177.318 174.018 177.337 174.367C177.361 174.883 176.24 175.644 171.603 178.328C168.437 180.158 165.634 181.675 165.378 181.684C164.934 181.708 158.737 170.317 158.714 169.437C158.7 168.913 169.921 162.442 170.715 162.522ZM131.077 164.38C131.842 164.801 137.254 175.303 137.207 176.268C137.174 176.962 136.489 177.449 131.606 180.229C128.534 181.973 125.91 183.41 125.769 183.414C125.182 183.443 124.355 182.171 121.746 177.199C120.219 174.297 119.005 171.621 119.052 171.243C119.156 170.284 130.278 163.936 131.077 164.38ZM155.041 171.385C155.073 171.385 155.101 171.388 155.126 171.394C155.589 171.555 156.52 173.077 158.747 177.265C160.472 180.517 161.81 183.377 161.725 183.618C161.644 183.859 159.087 185.442 156.034 187.144C152.98 188.845 150.163 190.259 149.78 190.273C149.194 190.301 148.636 189.427 145.989 184.393C144.278 181.141 142.945 178.295 143.026 178.059C143.201 177.549 154.233 171.418 155.041 171.385ZM115.086 173.134L115.167 173.138C115.62 173.304 116.57 174.864 118.721 178.967C120.418 182.195 121.808 185.05 121.812 185.305C121.822 185.589 119.61 187.04 116.046 189.053C112.855 190.854 110.062 192.334 109.854 192.343C109.442 192.362 106.129 186.822 106.11 186.09C106.101 185.853 105.751 185.201 105.326 184.653C104.734 183.808 104.23 182.906 103.822 181.959C103.104 180.281 103.113 180.233 103.676 179.642C104.432 178.829 114.377 173.167 115.086 173.134ZM139.457 180.233L139.552 180.262C140.005 180.489 145.209 190.022 145.843 191.795C146.164 192.683 145.228 193.411 140.105 196.233C134.404 199.372 134.097 199.504 133.667 199.249C133.237 198.994 127.442 187.971 127.428 187.371C127.409 186.676 127.702 186.473 133.596 183.098C137.481 180.867 138.942 180.143 139.457 180.233ZM163.369 187.465C163.451 187.462 163.533 187.47 163.615 187.489C164.182 187.654 164.773 188.67 167.042 192.991C168.649 196.054 169.973 198.828 169.973 199.15C170.001 200.048 169.344 200.501 163.866 203.527C161.077 205.063 158.51 206.344 158.17 206.363C157.669 206.381 156.941 205.214 154.46 200.506C152.725 197.216 151.435 194.428 151.529 194.153C151.751 193.52 162.386 187.503 163.365 187.46M123.391 189.313L123.504 189.332C124.081 189.474 124.762 190.575 127.215 195.174C129.626 199.693 130.259 201.13 130.032 201.546C129.867 201.839 127.347 203.423 124.436 205.063C121.524 206.703 118.849 208.069 118.499 208.088C117.875 208.135 116.774 206.519 114.51 202.264L112.822 199.098C111.092 195.836 110.95 196.058 117.199 192.442C120.257 190.675 122.989 189.294 123.391 189.313ZM147.904 196.257C147.982 196.266 148.046 196.29 148.093 196.328C148.811 196.895 154.521 208.093 154.346 208.589C154.266 208.825 151.633 210.442 148.485 212.191C145.337 213.939 142.695 215.428 142.605 215.476C142.511 215.523 142.274 215.466 142.085 215.357C141.603 215.069 135.836 203.928 135.818 203.257C135.808 202.836 137.368 201.801 141.707 199.32C146.079 196.824 147.374 196.162 147.904 196.257Z" fill="#9F7E21"/>
<path d="M138.677 74.3403C135.777 74.341 132.904 74.9129 130.225 76.0235C127.545 77.1341 125.111 78.7616 123.06 80.8131C121.009 82.8646 119.383 85.2999 118.274 87.9799C117.164 90.66 116.593 93.5323 116.594 96.433C116.597 102.289 118.924 107.904 123.065 112.044C127.206 116.184 132.822 118.51 138.677 118.511C144.534 118.513 150.152 116.187 154.295 112.047C158.438 107.907 160.767 102.29 160.77 96.433C160.77 93.5315 160.199 90.6584 159.089 87.9777C157.979 85.2971 156.352 82.8613 154.3 80.8097C152.249 78.7581 149.813 77.1308 147.132 76.0208C144.452 74.9107 141.579 74.3397 138.677 74.3403Z" fill="#E2E5E7"/>
<path d="M138.682 73.0107C132.473 73.0182 126.521 75.4884 122.131 79.8791C117.741 84.2699 115.272 90.2227 115.266 96.4316C115.272 102.639 117.741 108.59 122.132 112.979C126.522 117.368 132.474 119.834 138.682 119.838C144.889 119.836 150.842 117.369 155.232 112.98C159.622 108.591 162.09 102.639 162.093 96.4316C162.091 90.2224 159.624 84.2681 155.234 79.8767C150.844 75.4852 144.891 73.0158 138.682 73.0107ZM138.682 75.6577C141.41 75.6565 144.111 76.193 146.631 77.2368C149.151 78.2805 151.441 79.8108 153.369 81.7403C155.297 83.6698 156.826 85.9605 157.868 88.4814C158.91 91.0022 159.445 93.7038 159.442 96.4316C159.444 99.1583 158.909 101.859 157.866 104.378C156.824 106.898 155.295 109.187 153.367 111.115C151.438 113.043 149.149 114.571 146.629 115.613C144.109 116.655 141.409 117.19 138.682 117.187C135.956 117.188 133.256 116.653 130.737 115.611C128.218 114.569 125.928 113.041 124 111.114C122.072 109.187 120.542 106.899 119.498 104.38C118.455 101.862 117.917 99.1625 117.917 96.4363C117.914 93.7082 118.449 91.0062 119.492 88.485C120.534 85.9638 122.063 83.6729 123.992 81.7434C125.92 79.8138 128.211 78.2836 130.731 77.2401C133.252 76.1967 135.954 75.6606 138.682 75.6624" fill="#48B19B"/>
<path d="M139.897 78.3429C139.566 78.346 139.34 78.4059 139.221 78.5225C138.805 78.9337 138.635 93.2651 139.032 93.8843C139.103 93.9873 139.207 94.0636 139.327 94.1012C139.447 94.1388 139.576 94.1357 139.693 94.0923C140.648 93.7283 148.783 82.6253 148.783 81.6846C148.783 80.6259 142.161 78.3003 139.897 78.3429ZM134.726 78.7777C132.608 79.0424 126.35 82.37 126.35 83.4572C126.35 84.0244 132.967 91.1097 135.354 93.0996C136.333 93.9126 137.292 94.5838 137.477 94.5838C137.708 94.5838 137.741 93.7708 137.595 91.9511C137.325 88.614 135.704 79.2362 135.345 78.8723C135.238 78.7683 135.031 78.7368 134.726 78.7777ZM151.676 84.1993C151.453 84.2465 149.445 86.0143 147.214 88.1224C143.276 91.8423 140.79 94.6122 140.79 95.2739C140.79 95.7371 144.699 95.3921 150.546 94.4089C156.927 93.336 156.823 93.3832 156.431 91.918C155.58 88.7605 152.64 83.9771 151.676 84.1993ZM123.878 86.6004C122.857 86.6004 119.978 94.4089 120.616 95.4394C120.697 95.567 124.161 95.6946 128.321 95.7371C134.196 95.7986 135.884 95.7371 135.879 95.4346C135.879 94.6831 124.894 86.5957 123.873 86.5957M150.877 96.6116C144.656 96.4131 141.39 96.6305 141.182 97.2544C141.04 97.6798 144.775 100.686 149.96 104.321C153.245 106.613 153.59 106.788 154.072 106.358C155.258 105.29 157.437 98.4077 156.97 97.1882C156.856 96.9046 155.273 96.7487 150.877 96.6116ZM140.095 98.5779C139.875 98.5716 139.827 99.4334 139.953 101.163C140.152 104.047 141.575 112.815 142.009 113.855C142.265 114.469 142.397 114.493 143.456 114.204C146.367 113.424 151.241 110.532 151.241 109.582C151.241 108.703 140.984 98.5779 140.1 98.5779M138.02 98.9371C137.793 98.9844 137.5 99.268 137.132 99.6839C136.054 100.88 129.725 111.378 129.725 111.964C129.725 112.559 131.795 113.571 134.442 114.261C136.928 114.913 138.204 115.017 138.479 114.573C138.578 114.412 138.687 110.943 138.71 106.878C138.743 100.653 138.687 98.7811 138.02 98.9371Z" fill="#48B19B"/>
<path d="M138.039 95.3035L47.9811 95.554L93.1259 173.663L138.039 95.3035Z" fill="#E2E5E7"/>
<path d="M88.2243 141.253V219.338H98.037V141.253H88.2243Z" fill="#E2E5E7"/>
<path d="M69.7949 219.167V222.835H116.121V219.167H69.7949Z" fill="#E2E5E7"/>
<path d="M60.0578 101.627C60.0263 101.693 60.0232 101.774 60.0484 101.868C60.3225 103.045 79.8816 137.517 84.1829 144.409C86.5463 148.195 89.1649 151.281 90.876 152.283C92.379 153.167 94.0996 153.233 95.5932 152.458C97.2192 151.612 100.443 147.873 102.783 144.111C106.833 137.597 126.586 102.809 126.756 101.882C126.782 101.772 126.671 101.687 126.426 101.627H60.0578Z" fill="#EB8923"/>
<path d="M63.5887 68.5967L91.0177 146.049L67.0486 68.4502L63.5887 68.5967Z" fill="#48B19B"/>
<path d="M64.9878 69.0513C64.1481 69.1242 63.3105 68.8898 62.6307 68.3916C61.9509 67.8935 61.475 67.1655 61.2915 66.3429C61.1092 65.5212 61.231 64.6613 61.6342 63.9225C62.0375 63.1837 62.6949 62.6162 63.4847 62.3252C64.2748 62.0355 65.1432 62.042 65.9289 62.3436C66.7145 62.6452 67.3643 63.2213 67.7576 63.9653C68.1504 64.711 68.259 65.574 68.0634 66.3938C67.8678 67.2136 67.3812 67.9345 66.6941 68.4226L64.6805 65.5866L64.9878 69.0513Z" fill="#48B19B" stroke="#48B19B" stroke-width="2.65168"/>
<path d="M69.7051 71.3467C68.5611 71.3461 67.4282 71.5708 66.371 72.008C65.3139 72.4452 64.3532 73.0863 63.5438 73.8948C62.7345 74.7033 62.0923 75.6633 61.6539 76.72C61.2156 77.7766 60.9896 78.9093 60.989 80.0533C60.9884 81.1981 61.2134 82.3317 61.6512 83.3895C62.089 84.4473 62.731 85.4084 63.5405 86.2178C64.35 87.0273 65.3111 87.6693 66.3688 88.1071C67.4266 88.5449 68.5603 88.7699 69.7051 88.7693C70.8491 88.7687 71.9817 88.5428 73.0384 88.1044C74.0951 87.666 75.055 87.0239 75.8635 86.2145C76.672 85.4051 77.3131 84.4445 77.7504 83.3873C78.1876 82.3302 78.4123 81.1973 78.4117 80.0533C78.4104 77.7445 77.4927 75.5307 75.8602 73.8982C74.2276 72.2656 72.0138 71.3479 69.7051 71.3467Z" fill="#EB8923"/>
<path d="M113.139 101.622L97.621 142.957L121.964 101.57L113.139 101.622Z" fill="#ECAD6B"/>
</g>
<defs>
<clipPath id="clip0_1251_8886">
<rect width="159.81" height="189.825" fill="white" transform="translate(48 33)"/>
</clipPath>
</defs>
</svg>
