<svg width="256" height="256" viewBox="0 0 256 256" fill="none" xmlns="http://www.w3.org/2000/svg">
<rect width="256" height="256" fill="#292B2F"/>
<g clip-path="url(#clip0_1251_8980)">
<path d="M128 228C183.228 228 228 183.228 228 128C228 72.7715 183.228 28 128 28C72.7715 28 28 72.7715 28 128C28 183.228 72.7715 228 128 228Z" fill="#292B2F"/>
<path d="M176.672 162.414C170.891 162.414 165.93 165.773 163.586 170.656L142.805 167.648C142.727 159.719 136.281 153.273 128.312 153.273C125.461 153.273 122.844 154.094 120.578 155.5L91.0469 122.062C92.7656 119.68 93.7422 116.789 93.7422 113.625C93.7422 105.617 87.2578 99.1328 79.25 99.1328C71.2422 99.1328 64.7578 105.617 64.7578 113.625C64.7578 121.633 71.2422 128.117 79.25 128.117C81.7109 128.117 84.0547 127.492 86.0859 126.398L115.93 160.187C114.602 162.375 113.82 164.953 113.82 167.727C113.82 175.734 120.305 182.219 128.312 182.219C134.055 182.219 139.016 178.898 141.359 174.055L162.18 177.062C162.297 184.953 168.742 191.32 176.672 191.32C184.68 191.32 191.164 184.836 191.164 176.828C191.203 168.898 184.68 162.414 176.672 162.414Z" fill="white"/>
<path d="M176.672 64.6011C168.664 64.6011 162.18 71.0855 162.18 79.0933C162.18 83.0386 163.742 86.5933 166.32 89.2104L134.172 134.64C132.375 133.859 130.422 133.429 128.312 133.429C120.305 133.429 113.82 139.914 113.82 147.921C113.82 149.367 114.016 150.734 114.406 152.023L89.9922 167.14C87.3359 164.25 83.5078 162.414 79.2891 162.414C71.2813 162.414 64.7969 168.898 64.7969 176.906C64.7969 184.914 71.2813 191.398 79.2891 191.398C87.2969 191.398 93.7812 184.914 93.7812 176.906C93.7812 175.539 93.5859 174.171 93.2344 172.921L117.688 157.765C120.344 160.617 124.133 162.414 128.312 162.414C136.32 162.414 142.805 155.929 142.805 147.921C142.805 144.406 141.555 141.164 139.445 138.625L171.867 92.8042C173.352 93.312 174.953 93.6245 176.633 93.6245C184.641 93.6245 191.125 87.1401 191.125 79.1323C191.125 71.1245 184.68 64.6011 176.672 64.6011Z" fill="#E5A00D"/>
</g>
<defs>
<clipPath id="clip0_1251_8980">
<rect width="200" height="200" fill="white" transform="translate(28 28)"/>
</clipPath>
</defs>
</svg>
