<svg width="256" height="256" viewBox="0 0 256 256" fill="none" xmlns="http://www.w3.org/2000/svg">
<g clip-path="url(#clip0_1251_8979)">
<rect width="256" height="256" fill="white"/>
<g clip-path="url(#clip1_1251_8979)">
<mask id="mask0_1251_8979" style="mask-type:luminance" maskUnits="userSpaceOnUse" x="0" y="0" width="256" height="256">
<path d="M256 0H0V256H256V0Z" fill="white"/>
</mask>
<g mask="url(#mask0_1251_8979)">
<path d="M199.111 3.8147e-05H56.8889L0 7.53403e-05V199.111L2.86102e-06 256H256V227.556V199.111V0L199.111 3.8147e-05Z" fill="#02855B"/>
<path d="M199.152 106.453C194.532 106.453 190.034 107.938 186.321 110.688C182.608 113.438 179.877 117.308 178.53 121.728H154.765C154.082 118.712 152.91 115.828 151.295 113.192L171.17 93.3167C174.795 94.8775 178.851 95.1255 182.641 94.0199C186.43 92.9135 189.714 90.5207 191.93 87.2543C194.146 83.9879 195.154 80.0519 194.782 76.1223C194.409 72.1927 192.678 68.5159 189.888 65.7239C187.098 62.9324 183.422 61.2006 179.492 60.8263C175.562 60.4522 171.626 61.459 168.358 63.6736C165.091 65.8887 162.698 69.1727 161.59 72.9607C160.482 76.7495 160.729 80.8055 162.289 84.4319L142.527 104.193C139.719 102.362 136.607 101.046 133.338 100.307V67.7855C138.281 66.2799 142.518 63.0484 145.279 58.6804C148.04 54.3123 149.14 49.0979 148.379 43.9869C147.618 38.8759 145.046 34.2083 141.133 30.8342C137.219 27.4601 132.223 25.604 127.056 25.604C121.889 25.604 116.894 27.4601 112.979 30.8342C109.066 34.2083 106.494 38.8759 105.733 43.9869C104.972 49.0979 106.072 54.3123 108.833 58.6804C111.594 63.0484 115.831 66.2799 120.774 67.7855V100.307C117.76 100.987 114.878 102.158 112.242 103.77L92.3632 83.8951C93.9232 80.2703 94.1712 76.2151 93.064 72.4271C91.9576 68.6391 89.5648 65.3551 86.2992 63.1402C83.0328 60.9254 79.0966 59.918 75.1679 60.2914C71.2393 60.6648 67.5635 62.3956 64.773 65.1863C61.9825 67.9767 60.2517 71.6527 59.8782 75.5807C59.5049 79.5095 60.5122 83.4455 62.727 86.7119C64.9418 89.9783 68.2258 92.3703 72.0137 93.4775C75.8017 94.5839 79.857 94.3367 83.4816 92.7767L103.24 112.534C101.411 115.345 100.097 118.458 99.3576 121.728H75.4555C73.9499 116.786 70.7192 112.549 66.3518 109.788C61.9845 107.028 56.771 105.928 51.6608 106.69C46.5506 107.45 41.8839 110.022 38.5104 113.935C35.137 117.848 33.2813 122.842 33.2813 128.01C33.2813 133.176 35.137 138.17 38.5104 142.083C41.8839 145.997 46.5506 148.568 51.6608 149.329C56.771 150.09 61.9845 148.99 66.3518 146.23C70.7192 143.47 73.9499 139.233 75.4555 134.29H99.3672C100.046 137.305 101.215 140.187 102.827 142.823L82.952 162.702C79.3272 161.142 75.2719 160.894 71.484 162.001C67.696 163.108 64.4122 165.5 62.1973 168.766C59.9825 172.033 58.9751 175.969 59.3486 179.898C59.7219 183.826 61.4528 187.502 64.2433 190.292C67.0338 193.083 70.7095 194.814 74.6382 195.187C78.5669 195.561 82.5032 194.553 85.7688 192.338C89.0352 190.123 91.428 186.84 92.5344 183.052C93.6416 179.264 93.3936 175.208 91.8336 171.583L111.595 151.826C114.404 153.652 117.516 154.965 120.785 155.702V188.223C115.842 189.729 111.604 192.96 108.843 197.328C106.082 201.696 104.982 206.91 105.743 212.022C106.504 217.132 109.076 221.8 112.99 225.174C116.903 228.548 121.898 230.404 127.066 230.404C132.234 230.404 137.229 228.548 141.143 225.174C145.057 221.8 147.628 217.132 148.39 212.022C149.15 206.91 148.05 201.696 145.29 197.328C142.529 192.96 138.29 189.729 133.347 188.223V155.702C136.363 155.022 139.247 153.853 141.884 152.238L161.759 172.13C160.201 175.754 159.954 179.809 161.062 183.595C162.17 187.382 164.562 190.665 167.828 192.878C171.094 195.091 175.03 196.098 178.957 195.723C182.885 195.349 186.559 193.618 189.349 190.827C192.138 188.038 193.867 184.362 194.24 180.434C194.613 176.506 193.606 172.572 191.39 169.306C189.176 166.042 185.893 163.65 182.106 162.544C178.318 161.438 174.264 161.686 170.64 163.245L150.882 143.487C152.714 140.679 154.029 137.567 154.765 134.298H178.53C179.69 138.118 181.89 141.542 184.883 144.185C187.877 146.829 191.545 148.59 195.48 149.27C199.415 149.951 203.462 149.526 207.169 148.042C210.876 146.557 214.098 144.072 216.476 140.863C218.854 137.655 220.294 133.85 220.635 129.87C220.977 125.892 220.206 121.896 218.41 118.33C216.613 114.763 213.862 111.766 210.461 109.671C207.061 107.578 203.146 106.469 199.152 106.47V106.453Z" fill="white"/>
<path d="M128.004 145.785C137.822 145.785 145.782 137.826 145.782 128.007C145.782 118.189 137.822 110.229 128.004 110.229C118.186 110.229 110.226 118.189 110.226 128.007C110.226 137.826 118.186 145.785 128.004 145.785Z" fill="#02855B"/>
<path d="M127.069 56.6705C132.314 56.6705 136.567 52.4179 136.567 47.1722C136.567 41.9263 132.314 37.6738 127.069 37.6738C121.823 37.6738 117.57 41.9263 117.57 47.1722C117.57 52.4179 121.823 56.6705 127.069 56.6705Z" fill="#02855B"/>
<path d="M76.782 81.641C79.2429 81.641 81.2376 79.6458 81.2376 77.185C81.2376 74.7242 79.2429 72.729 76.782 72.729C74.3211 72.729 72.3262 74.7242 72.3262 77.185C72.3262 79.6458 74.3211 81.641 76.782 81.641Z" fill="#02855B"/>
<path d="M76.2468 182.745C78.7077 182.745 80.7024 180.75 80.7024 178.289C80.7024 175.828 78.7077 173.834 76.2468 173.834C73.7859 173.834 71.791 175.828 71.791 178.289C71.791 180.75 73.7859 182.745 76.2468 182.745Z" fill="#02855B"/>
<path d="M177.352 183.286C179.813 183.286 181.808 181.292 181.808 178.83C181.808 176.37 179.813 174.375 177.352 174.375C174.891 174.375 172.897 176.37 172.897 178.83C172.897 181.292 174.891 183.286 177.352 183.286Z" fill="#02855B"/>
<path d="M177.89 82.1817C180.35 82.1817 182.346 80.1873 182.346 77.7265C182.346 75.2649 180.35 73.2705 177.89 73.2705C175.429 73.2705 173.434 75.2649 173.434 77.7265C173.434 80.1873 175.429 82.1817 177.89 82.1817Z" fill="#02855B"/>
<path d="M54.8323 137.504C60.0782 137.504 64.3307 133.251 64.3307 128.006C64.3307 122.759 60.0782 118.507 54.8323 118.507C49.5866 118.507 45.334 122.759 45.334 128.006C45.334 133.251 49.5866 137.504 54.8323 137.504Z" fill="#02855B"/>
<path d="M127.066 218.344C132.313 218.344 136.565 214.091 136.565 208.846C136.565 203.6 132.313 199.347 127.066 199.347C121.821 199.347 117.568 203.6 117.568 208.846C117.568 214.091 121.821 218.344 127.066 218.344Z" fill="#02855B"/>
<path d="M199.15 137.504C204.397 137.504 208.649 133.251 208.649 128.006C208.649 122.759 204.397 118.507 199.15 118.507C193.905 118.507 189.652 122.759 189.652 128.006C189.652 133.251 193.905 137.504 199.15 137.504Z" fill="#02855B"/>
</g>
</g>
</g>
<defs>
<clipPath id="clip0_1251_8979">
<rect width="256" height="256" fill="white"/>
</clipPath>
<clipPath id="clip1_1251_8979">
<rect width="256" height="256" fill="white"/>
</clipPath>
</defs>
</svg>
