<svg width="256" height="256" viewBox="0 0 256 256" fill="none" xmlns="http://www.w3.org/2000/svg">
<path d="M129.667 45.3128C131.649 45.0926 133.704 45.533 135.356 46.671C137.852 48.2861 139.614 50.7455 141.119 53.2415C147.873 64.5841 154.701 75.8899 161.455 87.2324C170.448 102.392 179.478 117.589 188.472 132.749C194.675 143.248 200.915 153.746 207.192 164.244C211.303 171.255 215.561 178.156 219.489 185.277C221.178 188.25 222.132 191.701 221.985 195.115C221.875 197.758 221.398 200.511 220.003 202.787C218.058 206.017 214.754 208.329 211.23 209.504C209.321 210.201 207.339 210.642 205.32 210.642H139.137C137.228 210.605 135.32 210.385 133.521 209.687C132.236 209.137 130.951 208.439 129.924 207.448C128.198 205.723 127.06 203.3 127.354 200.804C127.501 199.079 127.941 197.354 128.639 195.775C129.336 194.16 130.291 192.655 131.135 191.114C134.842 184.543 138.697 178.046 142.698 171.659C143.982 169.64 145.12 167.474 146.882 165.859C148.791 164.134 151.14 162.776 153.747 162.592C155.839 162.519 157.894 163.216 159.656 164.354C161.639 165.492 163.18 167.438 163.694 169.677C164.428 172.503 163.621 175.476 162.446 178.083C161.088 181.019 159.179 183.699 158.151 186.782C157.968 187.48 157.711 188.361 158.225 188.985C158.739 189.499 159.51 189.682 160.17 189.866C162.189 190.306 164.245 190.196 166.264 190.196H188.765C190.233 190.159 191.738 190.233 193.207 190.159C194.271 190.049 195.446 189.866 196.29 189.095C196.841 188.618 196.914 187.773 196.694 187.113C196.253 185.644 195.446 184.286 194.675 182.965C174.706 148.864 154.811 114.653 134.622 80.5884C133.961 79.4872 133.411 78.3125 132.456 77.4316C131.979 76.9911 131.282 76.7341 130.658 76.9177C130.107 77.1012 129.74 77.5784 129.373 78.0189C128.492 79.1568 127.684 80.3681 126.95 81.6162C123.463 87.2691 120.123 93.0321 116.709 98.7217C97.034 131.795 77.3957 164.905 57.7206 197.978C56.5093 200.217 55.1878 202.419 53.7929 204.548C52.5449 206.384 51.0399 208.072 49.0944 209.174C46.8186 210.495 43.9921 211.009 41.4226 210.275C39.5506 209.687 37.7519 208.77 36.3938 207.302C34.7052 205.613 33.9344 203.154 34.0445 200.804C34.1179 198.345 34.9622 195.922 36.2102 193.793C48.14 173.531 60.1433 153.305 72.2199 133.08C78.4235 122.618 84.5903 112.12 90.8305 101.658C97.1441 91.0866 103.458 80.4783 109.735 69.9066C113.222 63.9233 116.782 57.9768 120.453 52.1036C121.591 50.2316 123.059 48.5797 124.821 47.295C126.29 46.3039 127.905 45.4596 129.667 45.3128Z" fill="#70C6BE"/>
<path d="M128.9 122.137C132.95 121.487 137.25 122.437 140.6 124.837C143.15 126.787 144.9 129.737 145.45 132.937C145.8 135.387 145.55 137.887 144.65 140.187C143.95 142.187 143 144.037 141.9 145.837C126.3 172.087 110.65 198.337 95.0502 224.587C93.0502 227.887 91.2502 231.287 88.9502 234.387C87.3002 236.437 85.2002 238.237 82.7502 239.337C77.6502 242.037 71.0002 240.387 67.1002 236.287C65.1502 234.337 64.0002 231.587 63.8502 228.837C63.6502 225.987 64.2502 223.087 65.5502 220.487C66.7002 217.987 68.0502 215.637 69.4502 213.287C76.3002 201.737 83.1002 190.137 89.9502 178.587C99.3002 162.687 108.85 146.887 118.25 131.037C119.25 129.237 120.5 127.587 121.9 126.087C123.8 124.087 126.2 122.537 128.9 122.137Z" fill="#1BA0D8"/>
</svg>
