<svg width="256" height="256" viewBox="0 0 256 256" fill="none" xmlns="http://www.w3.org/2000/svg">
<rect width="256" height="256" fill="white"/>
<g clip-path="url(#clip0_1251_8918)">
<path fill-rule="evenodd" clip-rule="evenodd" d="M129.503 213.751C173.951 213.751 223.297 185.182 217.064 130.234C210.83 75.2483 173.988 46.6797 129.503 46.6797C85.017 46.6797 48.4714 71.7236 38.9362 130.234C29.401 188.707 85.0541 213.751 129.503 213.751Z" fill="#2C2B29"/>
<path fill-rule="evenodd" clip-rule="evenodd" d="M128.909 197.685C164.564 197.685 204.152 174.793 199.143 130.716C194.135 86.6386 164.601 63.7466 128.909 63.7466C93.2539 63.7466 63.9061 83.8188 56.2631 130.716C48.6201 177.613 93.2539 197.685 128.909 197.685Z" fill="white"/>
<path fill-rule="evenodd" clip-rule="evenodd" d="M58.5263 106.118C63.3495 106.118 65.4644 88.8659 74.0721 81.0002C82.0119 73.7653 100.192 71.3166 100.192 62.9686C100.192 45.5306 81.2699 41.8575 64.5368 41.8575C47.878 41.8204 33 59.5181 33 76.9561C33 94.3941 49.2507 106.081 58.5263 106.118ZM197.437 106.118C192.613 106.118 190.499 88.8659 181.891 81.0002C173.951 73.7653 155.771 71.3166 155.771 62.9686C155.771 45.5306 174.693 41.8575 191.426 41.8575C208.122 41.8575 223 59.5552 223 76.9932C222.963 94.3941 206.712 106.081 197.437 106.118Z" fill="#2C2B29"/>
<path fill-rule="evenodd" clip-rule="evenodd" d="M167.272 164.814C179.924 161.809 185.193 156.466 185.193 139.288C185.193 122.11 177.141 104.672 163.265 104.672C149.389 104.672 140.188 117.064 140.188 134.242C140.188 151.421 154.62 167.857 167.272 164.814Z" fill="#2B2A28"/>
<path fill-rule="evenodd" clip-rule="evenodd" d="M162.635 143.035C166.085 143.035 167.087 142.144 168.645 140.178C170.389 137.952 171.688 135.391 171.279 130.123C170.575 121.256 166.827 117.211 159.518 117.211C152.209 117.211 150.799 122.814 150.799 130.123C150.799 137.432 155.326 143.035 162.635 143.035Z" fill="white"/>
<path fill-rule="evenodd" clip-rule="evenodd" d="M89.1728 164.814C76.5209 161.809 71.2524 156.466 71.2524 139.288C71.2524 122.11 79.3036 104.672 93.1798 104.672C107.056 104.672 116.257 117.064 116.257 134.242C116.257 151.421 101.825 167.857 89.1728 164.814Z" fill="#2B2A28"/>
<path fill-rule="evenodd" clip-rule="evenodd" d="M93.8104 143.035C90.3599 143.035 89.3581 142.144 87.7998 140.178C86.056 137.952 84.7575 135.391 85.1656 130.123C85.8705 121.256 89.6179 117.211 96.927 117.211C104.236 117.211 105.646 122.814 105.646 130.123C105.646 137.432 101.12 143.035 93.8104 143.035Z" fill="white"/>
<path fill-rule="evenodd" clip-rule="evenodd" d="M128.575 176.241C135.439 176.241 142.117 166.15 142.117 161.809C142.117 157.468 135.365 156.763 128.464 156.763C121.563 156.763 114.81 157.468 114.81 161.809C114.847 166.15 121.711 176.241 128.575 176.241Z" fill="#2C2B29"/>
</g>
<defs>
<clipPath id="clip0_1251_8918">
<rect width="190" height="171.894" fill="white" transform="translate(33 41.8574)"/>
</clipPath>
</defs>
</svg>
