<svg width="256" height="256" viewBox="0 0 256 256" fill="none" xmlns="http://www.w3.org/2000/svg">
<g clip-path="url(#clip0_1251_8898)">
<rect width="256" height="256" fill="white"/>
<g clip-path="url(#clip1_1251_8898)">
<path d="M256 0H0V256H256V0Z" fill="#000B25"/>
<path d="M128 208.629C174.385 208.629 211.988 172.53 211.988 128C211.988 83.4698 174.385 47.3711 128 47.3711C81.6146 47.3711 44.0117 83.4698 44.0117 128C44.0117 172.53 81.6146 208.629 128 208.629Z" fill="#000B25"/>
<path d="M127.665 81.9736H104.988V91.3803H127.665V81.9736Z" fill="white"/>
<path d="M188.137 133.879C187.297 103.139 158.237 74.0791 128.169 73.7432C97.9336 73.4072 68.2018 101.795 66.69 132.367C66.0181 146.813 67.026 148.157 81.6399 150.676C83.1517 166.802 80.8 175.873 70.7214 187.127C72.0652 188.303 73.4091 189.479 74.9209 190.655C75.2568 190.319 75.5928 189.983 75.9287 189.479C84.8315 177.217 89.1989 172.177 88.191 157.899C87.5191 148.493 90.2067 143.957 100.285 144.629C101.797 163.443 97.7657 172.849 90.0387 190.487C88.8629 193.175 87.5191 195.694 86.0073 197.878C87.855 198.886 89.8708 199.894 91.7185 200.901C93.7342 197.374 95.414 193.51 96.5898 189.479C101.125 173.353 104.989 165.458 106.668 148.493C107.34 142.11 109.02 139.59 116.243 141.102C118.595 161.595 114.059 172.513 107.844 192.335C106.332 196.87 104.653 201.069 102.637 205.101C104.485 205.605 106.5 206.277 108.516 206.613C109.692 204.093 110.868 201.573 111.876 198.886C119.435 179.064 124.306 167.642 122.794 146.645C122.29 138.918 125.314 137.574 131.193 139.926C132.033 155.044 129.345 160.251 131.025 174.697C132.537 187.295 135.896 198.382 141.104 207.956C142.951 207.621 144.799 207.285 146.647 206.949C137.744 189.311 138.08 166.97 138.416 141.438C146.143 139.758 148.159 141.942 148.663 148.493C149.502 163.275 147.487 168.986 150.51 183.6C152.022 190.823 154.878 197.542 159.077 203.253C161.093 202.413 163.109 201.741 164.956 200.733C152.19 185.952 154.542 167.81 154.71 144.293C167.14 146.813 165.964 146.813 167.14 157.563C168.484 170.834 169.324 172.681 173.019 185.448C173.523 187.127 175.203 190.151 177.387 193.51C179.066 192.335 180.746 191.159 182.258 189.815C173.187 171.17 171.003 163.611 174.531 150.173C187.297 148.661 188.473 147.317 188.137 133.879ZM78.2804 133.543C74.7529 118.257 87.855 94.7403 99.9494 93.0605C93.0623 105.995 85.6714 119.769 78.2804 133.543ZM105.829 91.5487C105.493 90.0369 104.989 88.3571 104.653 86.8454C111.876 85.1656 118.931 83.3179 126.154 81.6381C126.49 83.1499 126.994 84.6617 127.33 86.3414C120.107 88.1892 113.052 89.8689 105.829 91.5487Z" fill="url(#paint0_linear_1251_8898)"/>
<path d="M78.2756 133.544C74.7481 118.258 87.8504 94.7413 99.9447 93.0615C93.0577 105.996 85.6666 119.77 78.2756 133.544Z" fill="white"/>
<path fill-rule="evenodd" clip-rule="evenodd" d="M128.001 96.9248C125.145 96.9248 122.625 97.7647 120.442 99.2765C120.778 99.2765 121.114 99.2765 121.45 99.2765C125.145 99.2765 128.001 102.3 128.001 105.828C128.001 109.355 124.977 112.379 121.45 112.379C118.426 112.379 115.906 110.363 115.066 107.675C114.898 108.515 114.898 109.187 114.898 110.027C114.898 117.25 120.778 123.129 128.001 123.129C135.224 123.129 141.103 117.25 141.103 110.027C141.103 102.804 135.224 96.9248 128.001 96.9248Z" fill="#1D1D1B"/>
<path d="M121.45 112.043C125.068 112.043 128.001 109.11 128.001 105.492C128.001 101.873 125.068 98.9404 121.45 98.9404C117.831 98.9404 114.898 101.873 114.898 105.492C114.898 109.11 117.831 112.043 121.45 112.043Z" fill="white"/>
</g>
</g>
<defs>
<linearGradient id="paint0_linear_1251_8898" x1="71.7913" y1="111.571" x2="188.251" y2="178.81" gradientUnits="userSpaceOnUse">
<stop offset="4.99306e-09" stop-color="white"/>
<stop offset="1.29819e-07" stop-color="#A85DC3"/>
<stop offset="0.1475" stop-color="#9864C5"/>
<stop offset="0.4344" stop-color="#6F75CC"/>
<stop offset="0.8288" stop-color="#2E90D5"/>
<stop offset="1" stop-color="#0F9DDA"/>
</linearGradient>
<clipPath id="clip0_1251_8898">
<rect width="256" height="256" fill="white"/>
</clipPath>
<clipPath id="clip1_1251_8898">
<rect width="256" height="256" fill="white"/>
</clipPath>
</defs>
</svg>
