<svg width="256" height="256" viewBox="0 0 256 256" fill="none" xmlns="http://www.w3.org/2000/svg">
<rect width="256" height="256" fill="black"/>
<path d="M171.582 53.2421H84.4175C64.1339 53.2421 47.6907 69.6853 47.6907 89.9689V140.897C47.6907 161.18 64.1339 177.624 84.4175 177.624H171.582C191.866 177.624 208.309 161.18 208.309 140.897V89.9689C208.309 69.6853 191.866 53.2421 171.582 53.2421Z" fill="black" stroke="white" stroke-width="24.4845"/>
<path d="M106.712 181.499C111.15 181.486 113.317 186.908 110.092 189.956L77.3403 220.903C74.1694 223.899 68.9587 221.565 69.0823 217.205L69.9561 186.362C70.031 183.719 72.1907 181.612 74.8351 181.604L106.712 181.499Z" fill="white"/>
<path d="M93.8903 91.5361H109.404V123.268C109.404 125.243 109.897 126.864 110.885 128.134C111.919 129.356 113.494 129.967 115.609 129.967C117.725 129.967 119.276 129.356 120.263 128.134C121.297 126.864 121.814 125.243 121.814 123.268V91.5361H137.328V124.678C137.328 128.204 136.74 131.189 135.565 133.634C134.436 136.031 132.862 137.982 130.84 139.487C128.819 140.944 126.492 142.002 123.859 142.66C121.274 143.365 118.524 143.718 115.609 143.718C112.694 143.718 109.921 143.365 107.288 142.66C104.703 142.002 102.399 140.944 100.378 139.487C98.3563 137.982 96.7579 136.031 95.5827 133.634C94.4544 131.189 93.8903 128.204 93.8903 124.678V91.5361ZM146.854 91.5361H162.72V140.897H146.854V91.5361Z" fill="white"/>
</svg>
