<svg width="256" height="256" viewBox="0 0 256 256" fill="none" xmlns="http://www.w3.org/2000/svg">
<g clip-path="url(#clip0_1251_8957)">
<rect width="256" height="256" fill="white"/>
<g clip-path="url(#clip1_1251_8957)">
<mask id="mask0_1251_8957" style="mask-type:luminance" maskUnits="userSpaceOnUse" x="0" y="0" width="256" height="256">
<path d="M256 0H0V256H256V0Z" fill="white"/>
</mask>
<g mask="url(#mask0_1251_8957)">
<path d="M256 0H0V256H256V0Z" fill="#474B50"/>
<path d="M68.5659 68.3182L69.8922 194.301C59.283 195.628 51.3261 190.323 51.3261 179.714L50 74.9488C50 41.7954 80.5012 33.8385 99.0671 47.0999L193.223 101.472C206.484 110.755 209.137 127.994 202.506 139.93C201.18 130.647 197.202 125.342 189.245 120.038L83.1534 60.3613C75.1967 55.0567 68.5659 56.3829 68.5659 68.3182Z" fill="white"/>
<path d="M60.6091 200.932C68.5659 203.584 76.5228 202.258 83.1535 198.28L191.897 134.625C198.528 143.908 197.202 153.191 189.245 158.495L97.741 211.541C84.4796 218.172 67.2398 211.541 60.6091 200.932Z" fill="white"/>
<path d="M92.4364 163.797L157.417 126.665L93.7626 90.8594L92.4364 163.797Z" fill="#FFC230"/>
</g>
</g>
</g>
<defs>
<clipPath id="clip0_1251_8957">
<rect width="256" height="256" fill="white"/>
</clipPath>
<clipPath id="clip1_1251_8957">
<rect width="256" height="256" fill="white"/>
</clipPath>
</defs>
</svg>
