<svg width="256" height="256" viewBox="0 0 256 256" fill="none" xmlns="http://www.w3.org/2000/svg">
<rect width="256" height="256" fill="white"/>
<path d="M169.074 180.729C173.07 180.729 176.16 180.033 178.346 178.64C180.533 177.246 181.664 175.341 181.739 172.921L216.682 184.029C215.324 188.648 212.422 192.864 207.974 196.676C203.601 200.416 198.061 203.386 191.351 205.585C184.642 207.784 177.14 208.885 168.848 208.885C161.761 208.885 155.127 208.114 148.945 206.575C142.839 205.035 137.449 202.725 132.775 199.646C128.176 196.493 124.557 192.571 121.919 187.879C119.28 183.185 117.961 177.723 117.961 171.491C117.961 165.258 119.28 159.796 121.919 155.104C124.557 150.412 128.176 146.526 132.775 143.446C137.449 140.293 142.877 137.947 149.058 136.407C155.24 134.867 161.837 134.098 168.848 134.098C176.01 134.098 182.568 134.867 188.524 136.407C194.555 137.947 199.719 140.33 204.016 143.556C208.388 146.709 211.743 150.741 214.081 155.654C216.493 160.493 217.699 166.248 217.699 172.921H156.069C156.069 172.921 156.032 172.921 155.956 172.921C155.956 172.921 155.956 172.958 155.956 173.031C155.956 174.13 156.258 175.157 156.861 176.11C157.464 177.063 158.293 177.907 159.348 178.64C160.48 179.299 161.837 179.812 163.42 180.179C165.078 180.546 166.963 180.729 169.074 180.729ZM168.848 161.923C165.153 161.923 162.1 162.583 159.688 163.903C157.276 165.149 156.069 166.945 156.069 169.291C156.069 169.365 156.069 169.438 156.069 169.512C156.144 169.512 156.183 169.512 156.183 169.512H181.399C181.475 169.512 181.513 169.512 181.513 169.512C181.513 169.438 181.513 169.365 181.513 169.291C181.513 168.118 181.173 167.092 180.495 166.212C179.892 165.258 179.025 164.489 177.894 163.903C176.763 163.242 175.407 162.766 173.824 162.473C172.315 162.106 170.657 161.923 168.848 161.923Z" fill="#62A446"/>
<path d="M80.2623 138.576C80.2623 142.975 80.2623 147.411 80.2623 151.884C80.2623 156.283 80.2623 160.719 80.2623 165.191C80.2623 169.591 80.2623 174.027 80.2623 178.499C80.2623 183.191 80.2623 187.883 80.2623 192.577C80.2623 197.269 80.2623 201.998 80.2623 206.764H41.0911C41.0911 199.505 41.0911 192.246 41.0911 184.988C41.0911 177.729 41.0911 170.471 41.0911 163.211C41.0911 159.106 41.0911 155 41.0911 150.894C41.0911 146.788 41.0911 142.682 41.0911 138.576H80.2623ZM80.1491 180.589L86.2625 151.004C86.9417 147.851 88.2626 145.248 90.2248 143.195C92.2627 141.069 94.6401 139.456 97.3572 138.356C100.074 137.256 102.867 136.596 105.735 136.376C108.603 136.083 111.244 136.193 113.66 136.706C116.075 137.146 118 137.916 119.433 139.016L110.829 179.929C108.641 178.169 105.961 176.96 102.791 176.299C99.6969 175.639 96.5648 175.42 93.3949 175.639C90.2249 175.786 87.4324 176.299 85.0172 177.179C82.6019 178.059 80.9792 179.195 80.1491 180.589Z" fill="#61A446"/>
<path d="M212.714 46.7656C212.714 51.6781 212.714 69.0022 212.714 73.988C212.714 78.9738 212.714 83.9596 212.714 88.9453C212.714 93.1979 212.714 97.4872 212.714 101.813C212.714 106.066 212.714 110.318 212.714 114.571C212.714 118.823 212.714 123.076 212.714 127.329H174.66C174.66 124.249 174.66 121.133 174.66 117.98C174.66 114.828 174.66 111.675 174.66 108.522C174.66 105.296 174.66 102.18 174.66 99.1736C174.66 92.3548 174.66 85.6826 174.66 79.157C174.66 72.5582 174.66 53.5111 174.66 46.7656H212.714ZM163.002 52.3906C163.002 56.2766 163.002 66.9492 163.002 70.9085C163.002 74.7945 163.002 78.6805 163.002 82.5665C163.002 86.4524 163.002 90.3751 163.002 94.3344C163.002 95.9474 163.259 97.2672 163.773 98.2937C164.359 99.2468 165.092 99.9434 165.972 100.383C166.925 100.75 167.915 100.933 168.941 100.933C169.968 100.933 170.994 100.75 172.021 100.383C173.12 100.017 174 99.5768 174.66 99.0636L165.862 126.229C163.809 127.255 161.28 128.098 158.273 128.758C155.341 129.418 152.261 129.748 149.035 129.748C146.102 129.748 143.206 129.382 140.346 128.648C137.487 127.988 134.884 126.852 132.538 125.239C130.265 123.626 128.432 121.5 127.039 118.86C125.646 116.221 124.949 112.921 124.949 108.962C124.949 103.683 124.949 98.4037 124.949 93.1246C124.949 87.8455 124.949 82.5665 124.949 77.2874C124.949 74.2813 124.949 71.2752 124.949 68.269C124.949 65.1896 124.949 55.3968 124.949 52.3906H163.002Z" fill="#808080"/>
<path d="M38.7864 80.9172C38.7864 76.7379 39.9595 73.1085 42.3058 70.0291C44.7253 66.9496 47.9881 64.3834 52.0941 62.3305C56.2 60.2041 60.8558 58.6278 66.0616 57.6013C71.2673 56.5748 76.6931 56.0615 82.3387 56.0615C89.3041 56.0615 95.7563 56.6848 101.695 57.9312C107.708 59.1777 113.133 60.8274 117.972 62.8804V88.3958C115.919 86.8561 113.207 85.5363 109.834 84.4365C106.534 83.3367 103.015 82.4935 99.2758 81.9069C95.6097 81.3204 92.127 81.0271 88.8276 81.0271C86.628 81.0271 84.6116 81.1738 82.7787 81.4671C81.0189 81.687 79.5892 82.0536 78.4894 82.5669C77.4629 83.0801 76.9497 83.74 76.9497 84.5465C76.9497 84.9864 77.0963 85.3164 77.3896 85.5363C77.7562 85.7563 78.2694 85.9029 78.9294 85.9763C79.5892 86.0495 80.4324 86.0862 81.4589 86.0862C83.1452 86.0862 84.6483 86.0862 85.968 86.0862C87.2879 86.0862 88.7542 86.0862 90.3673 86.0862C94.0333 86.0862 97.6993 86.3428 101.365 86.8561C105.105 87.296 108.477 88.2126 111.484 89.6056C114.563 90.9987 117.019 93.015 118.852 95.6545C120.685 98.2208 121.602 101.63 121.602 105.883C121.602 110.355 120.355 114.168 117.862 117.321C115.443 120.4 112.107 122.93 107.854 124.909C103.675 126.816 98.9458 128.209 93.6667 129.089C88.4609 129.969 83.0353 130.408 77.3896 130.408C70.7174 130.408 64.1186 129.785 57.5931 128.539C51.1408 127.292 45.6052 125.459 40.986 123.04V96.2044C42.819 98.1841 45.4219 99.8338 48.7946 101.154C52.2406 102.4 55.9434 103.353 59.9027 104.013C63.9352 104.6 67.7113 104.893 71.2306 104.893C73.5036 104.893 75.5566 104.783 77.3896 104.563C79.2225 104.27 80.6523 103.866 81.6789 103.353C82.7787 102.767 83.3286 102.033 83.3286 101.154C83.3286 100.787 83.2185 100.53 82.9986 100.384C82.7787 100.237 82.412 100.127 81.8988 100.054C81.4589 99.9805 80.8357 99.9438 80.0292 99.9438C78.9294 99.9438 77.7929 99.9438 76.6197 99.9438C75.4466 99.9438 74.3835 99.9438 73.4302 99.9438C70.864 99.9438 68.0046 99.8705 64.8518 99.7238C61.7723 99.5038 58.6929 99.1006 55.6134 98.5141C52.5339 97.8541 49.7111 96.8644 47.1449 95.5445C44.652 94.1514 42.6357 92.2818 41.096 89.9356C39.5562 87.516 38.7864 84.5098 38.7864 80.9172Z" fill="#808080"/>
</svg>
