<svg width="256" height="256" viewBox="0 0 256 256" fill="none" xmlns="http://www.w3.org/2000/svg">
<g clip-path="url(#clip0_1251_8926)">
<rect width="256" height="256" fill="white"/>
<g clip-path="url(#clip1_1251_8926)">
<path d="M256 0H0V256H256V0Z" fill="url(#paint0_linear_1251_8926)"/>
<path d="M128.032 83C107.947 83 90.9236 96.7539 85.6475 115.389C81.062 105.505 71.1251 98.5798 59.6795 98.5798C43.939 98.5798 31 111.65 31 127.55C31 143.449 43.939 156.525 59.6795 156.525C71.1251 156.525 81.062 149.596 85.6475 139.71C90.9236 158.347 107.947 172.105 128.032 172.105C147.968 172.105 164.904 158.554 170.315 140.128C174.986 149.789 184.8 156.525 196.083 156.525C211.823 156.525 224.768 143.449 224.768 127.55C224.768 111.65 211.823 98.5798 196.083 98.5798C184.8 98.5798 174.986 105.311 170.315 114.971C164.904 96.5464 147.968 83 128.032 83ZM128.032 100.006C143.193 100.006 155.305 112.234 155.305 127.55C155.305 142.865 143.193 155.099 128.032 155.099C112.87 155.099 100.764 142.865 100.764 127.55C100.764 112.234 112.87 100.006 128.032 100.006ZM59.6795 115.586C66.3221 115.586 71.5293 120.84 71.5293 127.55C71.5293 134.259 66.3221 139.519 59.6795 139.519C53.0368 139.519 47.8355 134.259 47.8355 127.55C47.8355 120.84 53.0368 115.586 59.6795 115.586ZM196.083 115.586C202.725 115.586 207.932 120.84 207.932 127.55C207.932 134.259 202.725 139.519 196.083 139.519C189.44 139.519 184.239 134.259 184.239 127.55C184.239 120.84 189.44 115.586 196.083 115.586Z" fill="white"/>
</g>
</g>
<defs>
<linearGradient id="paint0_linear_1251_8926" x1="31.1125" y1="256" x2="256" y2="1.93582e-05" gradientUnits="userSpaceOnUse">
<stop stop-color="#0082C9"/>
<stop offset="1" stop-color="#1CAFFF"/>
</linearGradient>
<clipPath id="clip0_1251_8926">
<rect width="256" height="256" fill="white"/>
</clipPath>
<clipPath id="clip1_1251_8926">
<rect width="256" height="256" fill="white"/>
</clipPath>
</defs>
</svg>
