<svg width="256" height="256" viewBox="0 0 256 256" fill="none" xmlns="http://www.w3.org/2000/svg">
<g clip-path="url(#clip0_1229_253)">
<rect width="256" height="256" fill="white"/>
<path d="M0 0.0751953H256V256.075H0V0.0751953Z" fill="black"/>
<path d="M215.891 128.075C215.891 176.615 176.54 215.966 128 215.966C79.4598 215.966 40.1094 176.615 40.1094 128.075C40.1094 79.5347 79.4598 40.1843 128 40.1843C176.54 40.1843 215.891 79.5347 215.891 128.075Z" fill="white"/>
<path d="M215.891 128.075C215.891 176.615 176.54 215.966 128 215.966C79.4598 215.966 40.1094 176.615 40.1094 128.075C40.1094 79.5347 79.4598 40.1843 128 40.1843C176.54 40.1843 215.891 79.5347 215.891 128.075Z" stroke="black" stroke-width="4.21875" stroke-miterlimit="10"/>
<path d="M180.805 176.074C145.588 178.315 110.264 178.315 75.0477 176.074C66.1117 175.46 57.3852 167.443 56.3059 158.479C53.8988 137.355 53.8988 116.232 56.3059 95.1063C57.3852 86.1428 66.1117 78.1258 75.0477 77.5113C110.264 75.2699 145.588 75.2699 180.805 77.5113C189.741 78.1258 198.467 86.1428 199.547 95.1063C201.954 116.231 201.954 137.354 199.547 158.479C198.467 167.443 189.741 175.459 180.805 176.074Z" fill="black"/>
<path d="M160.47 166.988H95.3818C93.4651 166.988 91.8965 165.42 91.8965 163.503C91.8965 161.587 93.4651 160.018 95.3818 160.018H160.47C162.387 160.018 163.955 161.586 163.955 163.503C163.955 165.42 162.387 166.988 160.47 166.988ZM177.408 152.993H78.4467C76.5131 152.993 74.9315 151.411 74.9315 149.477C74.9315 147.544 76.5131 145.962 78.4467 145.962H177.408C179.342 145.962 180.924 147.544 180.924 149.477C180.924 151.411 179.342 152.993 177.408 152.993Z" fill="white"/>
</g>
<defs>
<clipPath id="clip0_1229_253">
<rect width="256" height="256" fill="white"/>
</clipPath>
</defs>
</svg>
