<svg width="256" height="256" viewBox="0 0 256 256" fill="none" xmlns="http://www.w3.org/2000/svg">
<g clip-path="url(#clip0_1251_8988)">
<rect width="256" height="256" fill="#0559C9"/>
<g clip-path="url(#clip1_1251_8988)">
<path d="M128 256C198.692 256 256 198.692 256 128C256 57.3075 198.692 0 128 0C57.3075 0 0 57.3075 0 128C0 198.692 57.3075 256 128 256Z" fill="#0559C9"/>
<path d="M153.301 84.931C153.301 77.9973 155.582 71.5524 160.144 65.5964C164.706 59.6403 176.561 56.6678 195.709 56.6788V128.858L192.436 139.404C190.898 144.432 188.802 149.273 186.187 153.834C183.824 157.935 180.865 161.663 177.408 164.895C174.029 168.025 170.191 170.619 166.026 172.587C161.595 174.657 156.92 176.158 152.112 177.056C152.887 172.853 153.286 168.588 153.304 164.314L153.301 84.931ZM85.7254 64.85H94.2103V73.0409H85.7254V64.85ZM94.2103 77.2982H102.702V85.5057H94.2235L94.2103 77.2982ZM85.7254 87.6987H94.2136V95.9062H85.7254V87.6987ZM77.2471 100.008H85.7254V108.354H77.257L77.2471 100.008ZM60.2938 56.5005H68.7721V64.85H60.2938V56.5005ZM102.702 164.314C102.702 171.441 104.016 177.643 106.645 182.918C109.274 188.194 112.177 192.588 115.355 196.1C118.525 199.623 121.426 202.237 124.058 203.941L128.001 206.5C117.39 206.5 107.893 205.012 99.5079 202.035C91.1232 199.058 84.0288 194.908 78.2247 189.584C72.4797 184.342 67.9367 177.92 64.9078 170.758C61.8252 163.527 60.2839 155.71 60.2839 147.308V79.3526H68.7622V124.763H77.2504V116.562H85.7254V134.869H94.2103V104.11H102.702V164.314ZM133.946 181.452C141.785 181.743 148.978 181.156 155.527 179.692C161.789 178.337 167.759 175.876 173.157 172.425C178.441 168.983 183.014 164.556 186.626 159.386C190.396 154.069 193.421 147.697 195.702 140.273V147.321C195.702 155.329 194.338 162.776 191.61 169.661C188.923 176.484 184.841 182.671 179.627 187.826C174.371 193.054 167.973 197.278 160.431 200.499C152.89 203.721 144.312 205.624 134.696 206.21L129.633 203.568C129.239 203.277 125.966 200.713 119.814 195.875C113.662 191.038 109.445 183.739 107.164 173.978C110.828 176.152 114.755 177.85 118.849 179.031C123.264 180.352 128.296 181.159 133.946 181.452ZM77.257 73.1961H85.5932V81.4036H77.257V73.1961Z" fill="white"/>
</g>
</g>
<defs>
<clipPath id="clip0_1251_8988">
<rect width="256" height="256" fill="white"/>
</clipPath>
<clipPath id="clip1_1251_8988">
<rect width="256" height="256" fill="white"/>
</clipPath>
</defs>
</svg>
