<svg width="256" height="256" viewBox="0 0 256 256" fill="none" xmlns="http://www.w3.org/2000/svg">
<rect width="256" height="256" fill="white"/>
<g clip-path="url(#clip0_1251_8960)">
<path d="M128 228C183.228 228 228 183.228 228 128C228 72.7715 183.228 28 128 28C72.7715 28 28 72.7715 28 128C28 183.228 72.7715 228 128 228Z" fill="#EEEEEE" stroke="#443C3C" stroke-width="1.5"/>
<path d="M128 214.289C175.656 214.289 214.289 175.656 214.289 128C214.289 80.3439 175.656 41.7109 128 41.7109C80.3439 41.7109 41.7109 80.3439 41.7109 128C41.7109 175.656 80.3439 214.289 128 214.289Z" fill="#443C3C" stroke="#443C3C" stroke-width="1.5"/>
<path d="M128 203.898C169.918 203.898 203.898 169.918 203.898 128C203.898 86.0825 169.918 52.1016 128 52.1016C86.0825 52.1016 52.1016 86.0825 52.1016 128C52.1016 169.918 86.0825 203.898 128 203.898Z" fill="#8E2222" stroke="#443C3C" stroke-width="1.5"/>
<path d="M128 202.102C168.925 202.102 202.102 168.925 202.102 128C202.102 87.0748 168.925 53.8984 128 53.8984C87.0748 53.8984 53.8984 87.0748 53.8984 128C53.8984 168.925 87.0748 202.102 128 202.102Z" fill="#EEEEEE" stroke="#8E2222" stroke-width="1.5"/>
<path d="M127.727 180.227C156.419 180.227 179.68 156.966 179.68 128.273C179.68 99.5805 156.419 76.3203 127.727 76.3203C99.0336 76.3203 75.7734 99.5805 75.7734 128.273C75.7734 156.966 99.0336 180.227 127.727 180.227Z" fill="#443C3C" stroke="#443C3C" stroke-width="1.5"/>
<path d="M62.0625 161.203C62.0625 161.203 61.0859 91.3984 60.9297 91.2812C61.0469 80.8516 64.3672 81.9062 66.9062 81.5938C105.852 83.7031 120.031 95.5781 120.891 96.0078C123.508 96.9844 124.992 102.258 124.875 102.102C124.992 102.219 125.734 184.562 125.617 184.445C126.242 188.859 123 188.547 122.883 188.43C98.3906 169.172 64.5234 164.328 64.4062 164.211C62.0625 164.016 62.0625 161.203 62.0625 161.203Z" fill="#EEEEEE" stroke="#8E2222" stroke-width="10"/>
<path d="M193.43 161.359C193.43 161.359 194.406 91.3984 194.563 91.2422C194.445 80.8125 191.125 81.8281 188.586 81.5156C149.641 83.625 135.461 95.5391 134.602 95.9687C131.984 96.9453 130.5 102.219 130.617 102.102C130.5 102.219 129.758 184.758 129.875 184.641C129.25 189.055 132.492 188.781 132.609 188.625C157.102 169.328 190.969 164.484 191.086 164.328C193.43 164.211 193.43 161.359 193.43 161.359Z" fill="#EEEEEE" stroke="#8E2222" stroke-width="10"/>
<path d="M61.5547 172.414C61.5547 172.414 60.5391 102.609 60.4219 102.492C60.5391 92.0625 63.8984 93.1172 66.4766 92.8047C106.047 94.9141 120.461 106.789 121.32 107.219C123.977 108.195 125.5 113.469 125.383 113.312C125.5 113.43 126.281 195.773 126.125 195.656C126.75 200.07 123.469 199.758 123.352 199.641C98.4297 180.383 64.0547 175.539 63.9375 175.422C61.5547 175.266 61.5547 172.414 61.5547 172.414Z" fill="#8E2222" stroke="#8E2222" stroke-width="5"/>
<path d="M193.937 172.531C193.937 172.531 194.953 102.57 195.07 102.414C194.953 91.9844 191.594 93 189.016 92.6875C149.445 94.7969 135.031 106.711 134.133 107.141C131.477 108.117 129.953 113.391 130.07 113.273C129.953 113.391 129.172 195.93 129.328 195.812C128.703 200.227 131.984 199.953 132.102 199.797C157.023 180.5 191.398 175.656 191.516 175.5C193.937 175.383 193.937 172.531 193.937 172.531Z" fill="#8E2222" stroke="#8E2222" stroke-width="5"/>
</g>
<defs>
<clipPath id="clip0_1251_8960">
<rect width="200" height="200" fill="white" transform="translate(28 28)"/>
</clipPath>
</defs>
</svg>
