<svg width="256" height="256" viewBox="0 0 256 256" fill="none" xmlns="http://www.w3.org/2000/svg">
<rect width="256" height="256" fill="white"/>
<g clip-path="url(#clip0_1251_8917)">
<path d="M171.419 107.951C160.96 61.851 139.188 49.5706 133.648 40.893C131.363 37.0578 129.31 33.1064 127.566 29C127.256 33.1064 126.753 35.6632 123.266 38.7623C116.293 44.9994 86.5801 69.1728 84.1007 121.549C81.7764 170.399 120.012 200.5 125.048 203.599C128.922 205.497 133.648 203.637 135.973 201.894C154.374 189.265 179.555 155.562 171.419 107.951Z" fill="#10AA50"/>
<path d="M129.155 177.644C128.186 189.73 127.489 196.742 125.048 203.676C125.048 203.676 126.637 215.182 127.76 227.385H131.75C132.719 218.785 134.152 210.262 136.089 201.856C130.975 199.299 129.348 188.219 129.155 177.644Z" fill="#B8C4C2"/>
<path d="M136.128 201.817C130.898 199.415 129.387 188.142 129.155 177.605C130.433 160.249 130.82 142.855 130.278 125.5C130.007 116.396 130.394 41.0481 128.031 30.0073C129.658 33.7263 131.518 37.3678 133.648 40.8544C139.188 49.532 160.999 61.8124 171.419 107.912C179.555 155.484 154.529 189.11 136.128 201.817Z" fill="#12924F"/>
</g>
<defs>
<clipPath id="clip0_1251_8917">
<rect width="89" height="198.385" fill="white" transform="translate(84 29)"/>
</clipPath>
</defs>
</svg>
