<svg width="256" height="256" viewBox="0 0 256 256" fill="none" xmlns="http://www.w3.org/2000/svg">
<g clip-path="url(#clip0_1230_438)">
<rect width="256" height="256" fill="white"/>
<g clip-path="url(#clip1_1230_438)">
<path d="M256 0H0V256H256V0Z" fill="white"/>
<path d="M217 203.581C217 209.7 211.994 214.706 205.875 214.706H50.125C44.0062 214.706 39 209.7 39 203.581V136.831C39 130.713 42.5461 122.16 46.857 117.849L120.143 44.5633C124.454 40.2523 131.546 40.2523 135.857 44.5633L209.143 117.849C213.454 122.16 217 130.713 217 136.831V203.581Z" fill="#18BCF2"/>
<path d="M157.654 99.4922H98.3094C95.841 99.4922 93.8594 101.474 93.8594 103.942V214.705H102.759V108.392H153.204V117.292H116.109C113.641 117.292 111.659 119.274 111.659 121.742V139.542C111.659 142.011 113.641 143.992 116.109 143.992H153.204V152.892H116.109C113.641 152.892 111.659 154.874 111.659 157.342V175.142C111.659 177.611 113.641 179.592 116.109 179.592H153.204V188.492H116.109C113.641 188.492 111.659 190.474 111.659 192.942C111.659 195.411 113.641 197.392 116.109 197.392H157.654C160.123 197.392 162.104 195.411 162.104 192.942V175.142C162.104 172.674 160.123 170.692 157.654 170.692H120.559V161.792H157.654C160.123 161.792 162.104 159.811 162.104 157.342V139.542C162.104 137.074 160.123 135.092 157.654 135.092H120.559V126.192H157.654C160.123 126.192 162.104 124.211 162.104 121.742V103.942C162.104 101.474 160.123 99.4922 157.654 99.4922Z" fill="#F2F4F9"/>
</g>
</g>
<defs>
<clipPath id="clip0_1230_438">
<rect width="256" height="256" fill="white"/>
</clipPath>
<clipPath id="clip1_1230_438">
<rect width="256" height="256" fill="white"/>
</clipPath>
</defs>
</svg>
