<svg width="256" height="256" viewBox="0 0 256 256" fill="none" xmlns="http://www.w3.org/2000/svg">
<g clip-path="url(#clip0_1251_8969)">
<rect width="256" height="256" fill="white"/>
<g clip-path="url(#clip1_1251_8969)">
<mask id="mask0_1251_8969" style="mask-type:luminance" maskUnits="userSpaceOnUse" x="0" y="0" width="256" height="256">
<path d="M256 0H0V256H256V0Z" fill="white"/>
</mask>
<g mask="url(#mask0_1251_8969)">
<path d="M256 0H0V256H256V0Z" fill="#232632"/>
<mask id="mask1_1251_8969" style="mask-type:luminance" maskUnits="userSpaceOnUse" x="33" y="33" width="190" height="190">
<path d="M223 33H33V223H223V33Z" fill="white"/>
</mask>
<g mask="url(#mask1_1251_8969)">
<path fill-rule="evenodd" clip-rule="evenodd" d="M223 128C223 154.133 213.765 176.529 195.294 195.188C194.68 195.917 193.993 196.589 193.233 197.202C190.194 200.181 186.979 202.882 183.588 205.305C167.572 217.102 149.072 223 128.088 223C107.074 223 88.6033 217.102 72.6747 205.305C68.4661 202.327 64.5205 198.954 60.838 195.188C46.4876 180.939 37.6759 164.382 34.4029 145.52C33.7602 141.84 33.3358 138.103 33.1315 134.307C33.0438 132.205 33 130.102 33 128C33 125.781 33.0438 123.664 33.1315 121.649C33.1315 121.445 33.1894 121.24 33.3069 121.036C34.6808 97.7349 43.8573 77.6023 60.838 60.6372C79.5136 42.2127 101.93 33 128.088 33C154.333 33 176.735 42.2127 195.294 60.6372C213.765 79.412 223 101.867 223 128Z" fill="#EEEEEE"/>
<path fill-rule="evenodd" clip-rule="evenodd" d="M203.667 70.2296L184.027 89.8515C172.543 101.325 171.533 111.313 171.533 128.92C171.533 144.63 174.033 159.012 185.736 170.704C194.282 179.242 202.395 187.304 202.395 187.304C200.203 189.991 197.836 192.619 195.293 195.188C194.68 195.918 193.993 196.59 193.233 197.203C191.012 199.393 188.703 201.422 186.306 203.291L170.919 187.917C157.243 174.252 146.372 172.938 128.307 172.938C110.973 172.938 99.1773 174.534 86.4841 187.217C78.9025 194.791 70.2197 203.51 70.2197 203.51C66.9168 200.998 63.7902 198.224 60.838 195.188C58.383 192.735 56.0885 190.224 53.9552 187.655C53.9552 187.655 62.546 179.028 70.7457 170.836C82.891 158.701 84.862 144.63 84.862 128.92C84.862 113.591 82.3421 99.2919 71.1841 88.1433C63.4377 80.4032 52.7277 69.7478 52.7277 69.7478C55.2117 66.5942 57.9157 63.5572 60.838 60.6376C63.4105 58.1261 66.0409 55.7759 68.7291 53.5859L86.5718 71.4121C97.9718 82.8016 112.583 85.7344 128.307 85.7344C144.499 85.7344 159.062 82.601 170.919 70.7551C178.214 63.467 187.841 53.8925 187.841 53.8925C190.383 55.966 192.867 58.2137 195.293 60.6376C198.333 63.7324 201.124 66.9297 203.667 70.2296Z" fill="#3A3F51"/>
<path fill-rule="evenodd" clip-rule="evenodd" d="M102.003 132.857C101.828 131.834 101.712 130.798 101.653 129.747C101.624 129.163 101.609 128.579 101.609 127.995C101.609 127.382 101.624 126.798 101.653 126.243C101.653 126.184 101.668 126.127 101.696 126.068C102.078 119.615 104.62 114.038 109.324 109.337C114.497 104.227 120.709 101.672 127.956 101.672C135.234 101.672 141.445 104.227 146.588 109.337C151.703 114.535 154.26 120.753 154.26 127.995C154.26 135.237 151.703 141.441 146.588 146.61C146.413 146.814 146.223 147.004 146.018 147.179C145.171 147.996 144.28 148.741 143.344 149.413C138.903 152.683 133.773 154.318 127.956 154.318C122.14 154.318 117.026 152.684 112.612 149.413C111.444 148.595 110.349 147.661 109.324 146.61C105.351 142.668 102.91 138.083 102.003 132.857Z" fill="#00CCFF"/>
<path d="M158.205 98.1706L171.357 85.3375L196.006 61.3672M59.9919 61.4898L95.8219 97.1632M169.998 170.965L194.38 196.175M61.3641 195.711L85.3443 171.709" stroke="#00CCFF" stroke-width="2" stroke-miterlimit="1"/>
<path d="M171.357 85.3359L156.496 100.403M84.7042 86.084L99.785 101.107M85.2767 171.778L99.9629 156.536M154.261 155.313L170.067 171.032" stroke="#00CCFF" stroke-width="7" stroke-miterlimit="1"/>
</g>
</g>
</g>
</g>
<defs>
<clipPath id="clip0_1251_8969">
<rect width="256" height="256" fill="white"/>
</clipPath>
<clipPath id="clip1_1251_8969">
<rect width="256" height="256" fill="white"/>
</clipPath>
</defs>
</svg>
