<svg width="256" height="256" viewBox="0 0 256 256" fill="none" xmlns="http://www.w3.org/2000/svg">
<rect width="256" height="256" fill="white"/>
<g clip-path="url(#clip0_1251_8919)">
<path d="M53.5895 61.4057C37.675 79.1094 28.0227 102.275 28.0227 127.983C28.0227 183.213 72.7999 227.99 128.03 227.99C183.26 227.99 228.037 183.213 228.037 127.983C228.037 102.369 218.385 79.1094 202.564 61.4057C194.984 64.1837 187.45 67.4325 179.964 71.623C194.748 75.9548 204.966 89.5151 204.966 104.912C204.919 124.028 189.428 139.472 170.359 139.519C154.115 139.519 140.507 128.313 136.693 113.34H119.366C115.6 128.36 101.945 139.519 85.7011 139.519C66.5848 139.519 50.9528 123.934 50.9528 104.912C50.9528 88.9971 61.9235 75.531 76.6609 71.4818C69.1744 67.4325 61.4997 64.2779 53.5895 61.4057ZM127.983 124.169C130.384 133.021 132.88 141.779 143.379 147.241L127.983 170.312L112.586 147.241C121.768 140.743 126.005 132.786 127.983 124.169Z" fill="url(#paint0_linear_1251_8919)"/>
<path d="M85.7012 93.3759C79.3448 93.3759 74.1655 98.5552 74.1655 104.912C74.1655 111.268 79.3448 116.447 85.7012 116.447C92.0576 116.447 97.2369 111.268 97.2369 104.912C97.2369 98.5552 92.0576 93.3759 85.7012 93.3759Z" fill="url(#paint1_linear_1251_8919)"/>
<path d="M170.312 93.3759C163.955 93.3759 158.776 98.5552 158.776 104.912C158.776 111.268 163.955 116.447 170.312 116.447C176.668 116.447 181.847 111.268 181.847 104.912C181.847 98.5552 176.668 93.3759 170.312 93.3759Z" fill="url(#paint2_linear_1251_8919)"/>
<path d="M128 28C107.736 28 88.9375 34.4941 73.2148 44.8457C90.2559 46.6523 107.053 51.0469 126.096 60.4707C145.383 50.6562 165.158 46.5547 182.932 44.5039C167.16 34.0547 148.312 28 128 28Z" fill="url(#paint3_linear_1251_8919)"/>
<path d="M193.381 49.5332C173.361 49.6797 145.969 59.4941 126.096 68.625C105.148 61.0566 83.7129 49.0449 59.4941 49.6309C57.8828 49.6797 56.3203 49.7285 54.709 49.875L35.7148 51.4375L53.7324 57.4434C78.4883 65.5 100.217 70.627 119.357 103.879H136.643C155.734 70.8711 178.586 65.3535 202.17 57.4434L219.943 51.6816L201.438 49.875C198.752 49.6309 196.066 49.4844 193.381 49.5332Z" fill="url(#paint4_linear_1251_8919)"/>
</g>
<defs>
<linearGradient id="paint0_linear_1251_8919" x1="128.002" y1="30.1673" x2="128.002" y2="265.328" gradientUnits="userSpaceOnUse">
<stop stop-color="#4AA3E0"/>
<stop offset="1" stop-color="#3096DB"/>
</linearGradient>
<linearGradient id="paint1_linear_1251_8919" x1="85.6922" y1="30.1672" x2="85.6922" y2="265.328" gradientUnits="userSpaceOnUse">
<stop stop-color="#4AA3E0"/>
<stop offset="1" stop-color="#3096DB"/>
</linearGradient>
<linearGradient id="paint2_linear_1251_8919" x1="170.311" y1="30.1672" x2="170.311" y2="265.328" gradientUnits="userSpaceOnUse">
<stop stop-color="#4AA3E0"/>
<stop offset="1" stop-color="#3096DB"/>
</linearGradient>
<linearGradient id="paint3_linear_1251_8919" x1="73.1943" y1="44.2271" x2="210.365" y2="44.2271" gradientUnits="userSpaceOnUse">
<stop stop-color="#4AA3E0"/>
<stop offset="1" stop-color="#3096DB"/>
</linearGradient>
<linearGradient id="paint4_linear_1251_8919" x1="127.819" y1="50.1667" x2="127.819" y2="125.885" gradientUnits="userSpaceOnUse">
<stop stop-color="#4AA3E0"/>
<stop offset="1" stop-color="#3096DB"/>
</linearGradient>
<clipPath id="clip0_1251_8919">
<rect width="200" height="200" fill="white" transform="translate(28 28)"/>
</clipPath>
</defs>
</svg>
