<svg width="256" height="256" viewBox="0 0 256 256" fill="none" xmlns="http://www.w3.org/2000/svg">
<g clip-path="url(#clip0_1251_8952)">
<rect width="256" height="256" fill="white"/>
<g clip-path="url(#clip1_1251_8952)">
<mask id="mask0_1251_8952" style="mask-type:luminance" maskUnits="userSpaceOnUse" x="0" y="0" width="256" height="256">
<path d="M256 0H0V256H256V0Z" fill="white"/>
</mask>
<g mask="url(#mask0_1251_8952)">
<path d="M256 0H0V256H256V0Z" fill="#C080FF"/>
<path d="M231.1 256H24.9C11.15 256 0 244.85 0 231.1V24.9C0 11.15 11.15 0 24.9 0H231.1C244.85 0 256 11.15 256 24.9V231.1C256 244.85 244.85 256 231.1 256Z" fill="#C080FF"/>
<path d="M63.5498 44.2002H125C167.4 44.2002 192.45 57.4502 192.45 100.7V102.2C192.45 145.55 167.5 158.7 125.05 158.7H111.65V211.35H63.5498V44.2002ZM122.2 121.75C135.35 121.75 142.25 116.85 142.25 102.3V100.6C142.25 86.1002 135.35 81.1502 122.2 81.1502H111.65V121.75H122.2ZM152.85 172.45H192.25V211.75H152.85V172.45Z" fill="#2E2F33"/>
</g>
</g>
</g>
<defs>
<clipPath id="clip0_1251_8952">
<rect width="256" height="256" fill="white"/>
</clipPath>
<clipPath id="clip1_1251_8952">
<rect width="256" height="256" fill="white"/>
</clipPath>
</defs>
</svg>
