<svg width="256" height="256" viewBox="0 0 256 256" fill="none" xmlns="http://www.w3.org/2000/svg">
<path d="M186.091 121.277L181.942 119.617C162.441 163.495 84.864 136.82 80.196 149.873C79.4179 158.69 122.561 151.549 153.404 153.044C162.809 153.499 167.526 160.599 163.532 172.172L171.398 172.196C180.473 143.908 209.432 158.345 210.642 149.009C208.654 142.87 177.36 149.009 186.091 121.277Z" fill="white"/>
<path d="M165.759 167.335C167.004 163.185 166.589 159.036 164.515 156.546C162.44 154.057 159.535 152.397 155.801 151.982L83.6016 151.152C83.1867 151.152 82.7719 150.737 82.357 150.737C81.9422 150.322 81.9422 149.907 82.357 149.492C82.7719 148.663 83.1867 148.247 84.0164 148.247L156.63 147.417C165.345 147.003 174.473 139.949 177.792 131.65L181.942 120.862C181.942 120.446 182.357 120.032 181.942 119.617C177.377 98.455 158.291 82.687 135.884 82.687C115.137 82.687 97.2945 95.9651 91.0703 114.638C86.9211 111.733 81.9422 110.073 76.1328 110.489C66.1742 111.318 58.2906 119.617 57.0453 129.575C56.6305 132.065 57.0453 134.555 57.4609 137.044C41.2781 137.459 28 150.737 28 167.335C28 168.994 28 170.239 28.4148 171.899C28.4148 172.729 29.2445 173.144 29.6602 173.144H162.855C163.684 173.144 164.515 172.729 164.515 171.899L165.759 167.335Z" fill="#F4811F"/>
<path d="M188.581 120.862H186.506C186.091 120.862 185.676 121.276 185.261 121.691L182.357 131.65C181.112 135.799 181.527 139.949 183.602 142.438C185.676 144.928 188.581 146.587 192.315 147.003L207.668 147.833C208.083 147.833 208.498 148.248 208.913 148.248C209.328 148.662 209.328 149.077 208.913 149.492C208.498 150.323 208.083 150.737 207.253 150.737L191.486 151.567C182.772 151.982 173.643 159.036 170.324 167.334L169.493 171.069C169.079 171.484 169.493 172.314 170.324 172.314H225.096C225.925 172.314 226.34 171.899 226.34 171.069C227.17 167.75 228 164.015 228 160.28C228 138.704 210.157 120.862 188.581 120.862Z" fill="#FAAD3F"/>
</svg>
