<svg width="256" height="256" viewBox="0 0 256 256" fill="none" xmlns="http://www.w3.org/2000/svg">
<g clip-path="url(#clip0_1229_295)">
<mask id="mask0_1229_295" style="mask-type:luminance" maskUnits="userSpaceOnUse" x="28" y="58" width="200" height="128">
<path fill-rule="evenodd" clip-rule="evenodd" d="M28 58.9984H228V185.657H28V58.9984Z" fill="white"/>
</mask>
<g mask="url(#mask0_1229_295)">
<path fill-rule="evenodd" clip-rule="evenodd" d="M193.41 121.111C193.41 87.9342 163.885 59.0375 130.709 59.0375C106.249 59.0375 84.4586 73.7999 75.075 94.7658H74.7609C48.9658 94.7265 28 117.852 28 143.647C28 161.982 35.6561 176.273 51.0467 183.89C53.5202 181.338 59.6058 181.299 62.7468 179.571C57.2108 177.726 52.735 173.996 47.945 170.423C31.455 158.134 33.9285 128.178 44.7256 118.048C62.04 101.833 81.3176 105.955 81.3176 105.955L83.7126 100.616C87.7173 91.7034 95.7267 65.869 132.397 66.3009C171.188 66.7721 181.75 107.801 181.789 121.464V121.621L181.75 131.279L191.369 130.455C192.115 130.376 192.9 130.337 193.607 130.337C207.702 130.337 222.071 141.291 222.071 155.386C222.071 169.481 207.702 176.823 193.607 176.823H113.944C114.847 177.294 124.035 185.657 139.15 185.657H193.607C212.609 185.657 228 174.899 228 155.897C228 136.894 212.413 121.111 193.41 121.111Z" fill="#4598D3"/>
</g>
<path fill-rule="evenodd" clip-rule="evenodd" d="M167.929 102.108C164.317 100.734 154.973 101.676 148.416 104.228C145.197 105.484 142.645 107.133 141.781 109.096C139.386 114.515 154.109 123.898 160.038 122.171C162.865 121.346 166.908 115.339 168.754 110.078C170.01 106.309 170.167 102.932 167.929 102.108ZM134.989 106.544C133.3 106.348 129.845 105.877 128.707 104.621C126.233 101.794 122.268 101.048 119.362 101.676C116.3 102.343 114.651 105.916 116.771 110.353C117.713 112.355 117.478 114.75 116.496 116.556C119.519 113.769 122.307 111.452 124.427 110.353C128.589 108.193 132.24 107.055 134.989 106.544ZM165.063 147.652C165.063 147.652 162.04 157.86 159.959 162.532C158.114 166.654 157.525 166.301 156.19 166.772C156.7 165.516 157.054 163.827 157.721 161.001C158.506 157.624 157.721 156.721 157.721 156.721C156.661 161.786 155.051 165.398 153.677 167.793C151.91 168.382 149.712 168.774 148.102 168.146C145.864 167.243 145.472 156.643 145.472 156.054C155.248 156.76 160.47 152.756 165.063 147.652ZM116.85 136.501C117.046 137.483 117.281 138.425 117.517 139.289L117.281 139.014C117.281 139.014 117.478 139.446 117.753 140.231C118.145 141.644 118.616 142.94 119.088 144.118C120.697 149.301 122.425 157.231 119.873 162.218C117.949 165.948 93.6066 178.119 135.224 185.461L172.601 176.823C156.151 174.585 162.747 165.987 166.673 158.92C171.384 150.439 172.994 145.021 174.015 137.208C174.643 132.536 174.172 129.002 174.054 128.178C174.054 128.06 174.015 127.981 174.015 127.981C174.015 127.981 174.015 128.256 173.936 128.688L174.015 127.51C174.015 127.51 171.031 139.446 165.181 143.725C163.807 144.707 162.943 145.374 162.393 145.845C162.982 143.608 165.181 134.224 162.04 129.081C162.04 129.081 160.744 150.675 149.201 151.813C137.737 153.03 121.522 141.252 116.85 136.501Z" fill="#4598D3"/>
<path fill-rule="evenodd" clip-rule="evenodd" d="M83.7518 135.794C83.2807 138.386 83.0844 140.702 83.1629 142.744C80.925 146.277 64.7883 184.675 44.7255 167.439C48.1413 170.463 51.0467 183.851 51.0467 183.851C69.9316 194.883 82.9666 151.617 84.4585 148.79C85.6757 151.381 87.7173 156.682 99.1425 156.917C99.1425 156.917 85.7542 150.361 91.722 132.968C97.6898 115.574 106.524 100.773 118.656 93.9412C130.788 87.1096 143.037 87.5808 154.305 92.3707C154.305 92.3707 137.305 76.7445 117.753 88.5623C106.524 95.3546 99.064 102.893 93.9207 110.588C89.6018 111.373 84.38 110.667 82.2206 110.667C79.5508 110.667 75.3891 112.473 77.2736 119.108C79.0797 125.586 84.1445 132.104 83.7518 135.794Z" fill="#4598D3"/>
</g>
<defs>
<clipPath id="clip0_1229_295">
<rect width="200" height="126.659" fill="white" transform="translate(28 59)"/>
</clipPath>
</defs>
</svg>
