<svg width="256" height="256" viewBox="0 0 256 256" fill="none" xmlns="http://www.w3.org/2000/svg">
<rect width="256" height="256" fill="white"/>
<path d="M128 226.508C182.404 226.508 226.507 182.404 226.507 128C226.507 73.596 182.404 29.4927 128 29.4927C73.5958 29.4927 29.4926 73.596 29.4926 128C29.4926 182.404 73.5958 226.508 128 226.508Z" fill="url(#paint0_linear_1251_8943)"/>
<path d="M196.052 160.471L193.067 178.523M196.052 160.471C196.062 160.484 196.068 160.5 196.069 160.517C196.07 160.533 196.067 160.55 196.059 160.565C196.051 160.579 196.039 160.592 196.025 160.6C196.011 160.608 195.994 160.613 195.978 160.612L60.0224 161.209M196.052 160.471L127.963 59.0154C127.955 59.0014 127.944 58.9897 127.93 58.9816C127.916 58.9735 127.9 58.9692 127.884 58.9692C127.868 58.9692 127.853 58.9735 127.839 58.9816C127.825 58.9897 127.814 59.0014 127.806 59.0154L59.9403 161.068C59.9328 161.082 59.929 161.098 59.9293 161.115C59.9297 161.131 59.9342 161.147 59.9424 161.161C59.9506 161.175 59.9622 161.187 59.9762 161.196C59.9902 161.204 60.0061 161.209 60.0224 161.209M193.067 178.523C193.073 178.534 193.075 178.546 193.074 178.558C193.073 178.57 193.069 178.581 193.062 178.591C193.056 178.601 193.046 178.609 193.035 178.614C193.024 178.619 193.012 178.621 193 178.62L71.0523 171.627C71.0391 171.628 71.0261 171.624 71.0149 171.617C71.0037 171.611 70.9947 171.601 70.9892 171.589C70.9836 171.577 70.9817 171.563 70.9836 171.55C70.9855 171.537 70.9912 171.525 71 171.515L142.537 68.9333C142.553 68.9214 142.573 68.9163 142.593 68.9191C142.612 68.9219 142.63 68.9324 142.642 68.9482L193.067 178.523ZM60.0224 161.209L71.0746 171.657M127.888 58.896L142.642 68.8363" stroke="#1D1D1B" stroke-width="4.47761" stroke-miterlimit="10"/>
<defs>
<linearGradient id="paint0_linear_1251_8943" x1="58.3433" y1="197.657" x2="197.657" y2="58.3434" gradientUnits="userSpaceOnUse">
<stop stop-color="#B8EDFF"/>
<stop offset="1" stop-color="#D4B8FF"/>
</linearGradient>
</defs>
</svg>
