<svg width="256" height="256" viewBox="0 0 256 256" fill="none" xmlns="http://www.w3.org/2000/svg">
<g clip-path="url(#clip0_1251_8997)">
<rect width="256" height="256" fill="white"/>
<g clip-path="url(#clip1_1251_8997)">
<mask id="mask0_1251_8997" style="mask-type:luminance" maskUnits="userSpaceOnUse" x="0" y="0" width="256" height="256">
<path d="M256 0H0V256H256V0Z" fill="white"/>
</mask>
<g mask="url(#mask0_1251_8997)">
<path d="M256 0H0V256H256V0Z" fill="#88171A"/>
<mask id="mask1_1251_8997" style="mask-type:luminance" maskUnits="userSpaceOnUse" x="0" y="0" width="256" height="256">
<path d="M256 0H0V256H256V0Z" fill="white"/>
</mask>
<g mask="url(#mask1_1251_8997)">
<path d="M256 0H0V256H256V0Z" fill="#88171A"/>
<path d="M119 26.5L136.5 30.5V31.5C129 32.5 121.5 29.5 114 29C119.5 32.5 125.5 34.5 131.5 36.5C122 44.5 114 34 103.5 41C113.5 46 113 45 114 54.5C109.5 55 102 59.5 100.5 62.5C107 64 114.5 62.5 121 66.5C119 68 114 70 112 71.5C116.5 72.5 122 70.5 124.5 72C134 80 151.5 91 156.5 102C165 120.5 145.5 140.5 126.5 143.5C100 149 85 176.5 94.5 202C104 227 133.5 238 157 225C190 205 185 171 165 152.5C164 151.5 163 151.5 162 152.5C155 157 147.5 161 139.5 164.5C157.5 168.5 160 182 158 191.5C151.5 215.5 119 210 115.5 189.5C114 180 119 170.5 127.5 166.5C157 153.5 171 151.5 179.5 118C182.5 99 178 89 164 78C158.5 72.5 147.5 69 144 60.5C143.5 59.5 144.5 57.5 145.5 57.5C150.5 56.5 170 56 170 57C173.5 60.5 176.5 55 178 52.5C173 51.5 167.5 52 163.5 52C163 52 162 51 161.5 50.5C162 50 163 49.5 163.5 49.5H184C184 46 179.5 41 175 40V41.5C171 42 167 41 163 39.5C161 38 159.5 35 157.5 34C149.5 29.5 141 26 130.5 26C125.5 26 122 26.5 119 26.5ZM156 41.5L157.5 43L155.5 44C154.5 44.5 154 44 153.5 43.5C152.5 42 155.5 41 156 41.5ZM96 89.5C69 106 70.5 144 94.5 159C96.5 160 97.5 160 98.5 158.5C104.5 151 110 147.5 116.5 143.5C104 141.5 97.5 135.5 98 127C96 97 139.5 100 135 128C134 133 131 137.5 127 140.5C140.5 137.5 150.5 130 154.5 116.5C155.5 112.5 155.5 107 153.5 103.5C138.5 81.5 116 77 96 89.5ZM65 187C73 183.5 81.5 182 89.5 180.5C90 174 92 167.5 96 162.5C81 162.5 68.5 172.5 65 187Z" fill="white"/>
</g>
</g>
</g>
</g>
<defs>
<clipPath id="clip0_1251_8997">
<rect width="256" height="256" fill="white"/>
</clipPath>
<clipPath id="clip1_1251_8997">
<rect width="256" height="256" fill="white"/>
</clipPath>
</defs>
</svg>
