<svg width="256" height="256" viewBox="0 0 256 256" fill="none" xmlns="http://www.w3.org/2000/svg">
<rect width="256" height="256" fill="white"/>
<g clip-path="url(#clip0_1251_8982)">
<path d="M115.169 136.92H139.997V222.354C139.997 225.636 137.333 228.3 134.051 228.3H121.114C117.833 228.3 115.169 225.636 115.169 222.354V136.92Z" fill="#E95028"/>
<path d="M115.169 118.3H139.997V136.921H115.169V118.3Z" fill="white"/>
<path d="M202.327 28.2998H52.8386C49.5551 28.2998 46.8933 30.9616 46.8933 34.2451V43.0442C46.8933 46.3277 49.5551 48.9895 52.8386 48.9895H202.327C205.611 48.9895 208.273 46.3277 208.273 43.0442V34.2451C208.273 30.9616 205.611 28.2998 202.327 28.2998Z" fill="#5C5C5C"/>
<path d="M115.169 48.2998H139.997V118.415H115.169V48.2998Z" fill="#5C5C5C"/>
</g>
<defs>
<clipPath id="clip0_1251_8982">
<rect width="161.383" height="200" fill="white" transform="translate(46.8933 28.2998)"/>
</clipPath>
</defs>
</svg>
