<svg width="256" height="256" viewBox="0 0 256 256" fill="none" xmlns="http://www.w3.org/2000/svg">
<mask id="mask0_1229_186" style="mask-type:luminance" maskUnits="userSpaceOnUse" x="24" y="27" width="208" height="203">
<path d="M231.295 27.3H24.8105V229.7H231.295V27.3Z" fill="white"/>
</mask>
<g mask="url(#mask0_1229_186)">
<path d="M70.5998 200.338C68.9661 200.157 68.9661 200.157 68.6938 191.943C68.5123 187.405 68.3761 161.9 68.3761 135.216V86.7491H62.1135C57.4393 86.7491 55.624 86.5676 54.9887 86.1138C54.1264 85.5238 54.0811 84.7977 54.0811 73.9516C54.0811 67.6436 54.2172 61.9256 54.3987 61.2903C54.7618 60.1104 54.8072 60.1104 60.5252 59.8381C63.7472 59.6566 96.8301 59.5204 134.088 59.5204C198.166 59.5204 201.842 59.5658 202.16 60.3373C202.341 60.7457 202.477 66.5545 202.477 73.1801C202.477 82.7556 202.341 85.3877 201.842 85.9776C201.343 86.613 200.254 86.7491 194.944 86.7491H188.682L188.545 142.704C188.455 187.223 188.273 198.841 187.819 199.657C187.229 200.656 187.229 200.656 129.731 200.565C98.1008 200.52 71.5074 200.429 70.5998 200.338ZM183.1 141.116L182.964 87.4298H128.279H73.595L73.4588 141.116L73.368 194.756H128.279H183.19L183.1 141.116Z" fill="#090205"/>
<path d="M96.3762 178.101C95.9678 177.738 95.9678 174.652 96.3308 173.699C96.6031 173.064 99.7798 172.973 128.007 172.973C145.252 172.973 159.638 173.155 159.955 173.382C160.364 173.609 160.5 174.516 160.409 175.968C160.273 178.192 160.273 178.192 128.461 178.328C110.989 178.374 96.5124 178.283 96.3762 178.101Z" fill="#090205"/>
<path d="M101.368 160.403C101.187 160.267 101.051 151.508 101.051 140.98C101.051 126.73 101.187 121.738 101.595 121.33C102.321 120.603 153.738 120.558 155.1 121.239C155.916 121.693 155.962 122.419 155.962 140.662C155.962 154.821 155.826 159.767 155.417 160.176C155.009 160.584 148.338 160.72 128.279 160.72C113.621 160.72 101.504 160.584 101.368 160.403ZM113.53 154.276C113.667 153.686 113.712 147.333 113.667 140.072L113.53 126.911H110.127H106.723L106.587 140.526C106.542 148.014 106.587 154.367 106.723 154.685C106.859 155.093 107.948 155.275 110.081 155.275C113.031 155.275 113.303 155.184 113.53 154.276Z" fill="#090205"/>
<path d="M37.2902 226.115C33.1605 225.389 31.2092 222.984 30.6646 217.946C30.2108 213.454 30.2108 42.639 30.6646 38.1463C31.1184 34.062 32.1168 32.3375 34.9304 30.7945C36.8364 29.7961 36.8364 29.7961 127.1 29.66C185.051 29.6146 218.27 29.7054 219.813 30.023C222.718 30.5222 224.987 32.1559 226.167 34.4704C226.938 36.1041 226.983 39.7346 226.983 128.046C226.983 217.266 226.938 219.989 226.121 221.668C225.077 223.755 223.081 225.344 220.63 226.024C218.588 226.569 40.5123 226.66 37.2902 226.115ZM186.458 198.251C186.912 197.48 187.093 185.59 187.184 141.343L187.32 85.3881H193.583C198.893 85.3881 199.982 85.2519 200.481 84.6166C200.98 84.0266 201.116 81.576 201.116 73.1805C201.116 67.281 200.98 62.1075 200.799 61.6991C200.481 60.9276 196.896 60.8822 134.088 60.8822C97.5564 60.8822 65.1089 61.0184 61.8868 61.1999C56.1688 61.4722 56.1234 61.4722 55.7604 62.6521C55.5788 63.2874 55.4427 68.4155 55.4427 73.9974C55.4881 83.3913 55.5335 84.1628 56.3503 84.7527C56.9857 85.2065 58.8463 85.3881 63.4752 85.3881H69.7378V133.855C69.7378 160.539 69.8739 186.043 70.0554 190.582C70.3277 198.796 70.3277 198.796 71.9614 198.977C72.8691 199.068 98.8725 199.159 129.732 199.204C185.914 199.295 185.914 199.295 186.458 198.251Z" fill="#9C2E55" stroke="black" stroke-width="1.13453"/>
<path d="M127.69 196.209L72.0068 196.118L72.0976 141.07L72.2337 86.0685H128.279H184.325L184.461 141.025C184.552 184.818 184.461 196.072 184.008 196.163C183.69 196.254 158.367 196.299 127.69 196.209ZM159.048 175.969C159.139 175.515 158.957 174.97 158.594 174.743C158.276 174.516 144.481 174.335 127.962 174.335C98.3733 174.335 97.9195 174.335 97.6472 175.242C97.5111 175.742 97.5111 176.332 97.6472 176.604C97.8287 176.922 108.13 177.012 128.416 176.967C157.823 176.831 158.912 176.785 159.048 175.969ZM154.056 158.814C154.464 158.406 154.601 153.777 154.601 140.662C154.601 123.735 154.555 123.054 153.738 122.6C152.377 121.92 103.683 121.965 102.957 122.691C102.548 123.099 102.412 127.774 102.412 140.98C102.412 150.782 102.548 158.905 102.73 159.041C102.866 159.223 114.393 159.359 128.279 159.359C147.294 159.359 153.648 159.223 154.056 158.814Z" fill="#FEFEFE"/>
<path d="M105.362 156.047C105.226 155.774 105.181 148.74 105.226 140.526L105.362 125.55H110.127H114.892L115.028 140.072C115.074 148.06 115.028 155.048 114.892 155.638C114.665 156.591 114.438 156.637 110.082 156.637C106.86 156.637 105.498 156.455 105.362 156.047Z" fill="#FEFEFE"/>
</g>
</svg>
