<svg width="256" height="256" viewBox="0 0 256 256" fill="none" xmlns="http://www.w3.org/2000/svg">
<rect width="256" height="256" fill="white"/>
<g clip-path="url(#clip0_1251_8929)">
<path d="M28.0015 128.001C28.0015 183.229 72.773 228.001 128.001 228.001C183.23 228.001 228.001 183.229 228.001 128.001C228.001 72.7725 183.23 28.001 128.001 28.001C72.773 28.001 28.0015 72.7725 28.0015 128.001Z" fill="url(#paint0_linear_1251_8929)"/>
<path d="M218.406 128.254C218.406 78.0755 177.761 37.3981 127.623 37.3981C77.4847 37.3981 36.8398 78.0755 36.8398 128.254C36.8398 178.432 77.4847 219.109 127.623 219.109C177.761 219.109 218.406 178.432 218.406 128.254Z" fill="url(#paint1_linear_1251_8929)"/>
<path d="M127.569 213.228C174.848 213.228 213.176 174.901 213.176 127.622C213.176 80.3433 174.848 42.0161 127.569 42.0161C80.2905 42.0161 41.9634 80.3433 41.9634 127.622C41.9634 174.901 80.2905 213.228 127.569 213.228Z" fill="#37D134"/>
<path d="M172.27 133.235L128.141 177.427L84.0125 133.235H172.27Z" fill="black" stroke="black" stroke-width="0.378788"/>
<path d="M145.751 113.733H109.893V133.178H145.751V113.733Z" fill="black" stroke="black" stroke-width="0.378788"/>
<path d="M110.145 94.2891H145.246V106.915H110.145V94.2891Z" fill="black" stroke="black" stroke-width="0.378788"/>
<path d="M110.145 74.8447H145.246V87.471H110.145V74.8447Z" fill="black" stroke="black" stroke-width="0.378788"/>
</g>
<defs>
<linearGradient id="paint0_linear_1251_8929" x1="228.001" y1="28.001" x2="228.001" y2="228.001" gradientUnits="userSpaceOnUse">
<stop stop-color="#FAFAFA" stop-opacity="0.98828"/>
<stop offset="1" stop-color="#333733" stop-opacity="0.98828"/>
</linearGradient>
<linearGradient id="paint1_linear_1251_8929" x1="36.8398" y1="219.109" x2="36.8398" y2="37.3981" gradientUnits="userSpaceOnUse">
<stop stop-color="#FAFAFA" stop-opacity="0.98828"/>
<stop offset="1" stop-color="#333733" stop-opacity="0.98828"/>
</linearGradient>
<clipPath id="clip0_1251_8929">
<rect width="200" height="200" fill="white" transform="translate(28 28)"/>
</clipPath>
</defs>
</svg>
