<svg width="256" height="256" viewBox="0 0 256 256" fill="none" xmlns="http://www.w3.org/2000/svg">
<rect width="256" height="256" fill="white"/>
<g clip-path="url(#clip0_1251_8958)">
<mask id="mask0_1251_8958" style="mask-type:luminance" maskUnits="userSpaceOnUse" x="18" y="18" width="220" height="220">
<path d="M238 18H18V238H238V18Z" fill="white"/>
</mask>
<g mask="url(#mask0_1251_8958)">
<path fill-rule="evenodd" clip-rule="evenodd" d="M59.99 148.866C63.8887 152.853 63.8886 159.318 59.9898 163.305L59.7902 163.509C55.8914 167.497 49.5701 167.497 45.6713 163.509C41.7726 159.522 41.7726 153.057 45.6715 149.07L45.8712 148.866C49.77 144.878 56.0912 144.878 59.99 148.866Z" fill="#42FFA4"/>
<path fill-rule="evenodd" clip-rule="evenodd" d="M107.642 151.656C111.575 155.686 111.563 162.21 107.616 166.226L79.6694 194.662C75.7223 198.678 69.3342 198.667 65.4013 194.636C61.4685 190.605 61.48 184.081 65.4271 180.066L93.3741 151.629C97.321 147.614 103.709 147.625 107.642 151.656Z" fill="#72FDBA"/>
<path fill-rule="evenodd" clip-rule="evenodd" d="M145.722 200.436C148.789 195.687 155.004 194.404 159.605 197.57L160.205 197.984C164.805 201.149 166.049 207.565 162.982 212.314C159.915 217.063 153.699 218.346 149.099 215.18L148.498 214.767C143.898 211.601 142.655 205.185 145.722 200.436Z" fill="#42FFA4"/>
<path fill-rule="evenodd" clip-rule="evenodd" d="M212.127 147.955C216.069 151.951 216.069 158.428 212.127 162.423L198.399 176.337C194.457 180.333 188.066 180.333 184.123 176.337C180.182 172.342 180.182 165.864 184.123 161.868L197.851 147.955C201.793 143.96 208.185 143.96 212.127 147.955Z" fill="#72FDBA"/>
<path fill-rule="evenodd" clip-rule="evenodd" d="M212.131 96.1746C216.067 100.186 216.067 106.688 212.131 110.698L110.832 213.909C106.895 217.92 100.514 217.92 96.5771 213.909C92.6412 209.899 92.6412 203.396 96.5771 199.386L197.877 96.1746C201.813 92.1644 208.195 92.1644 212.131 96.1746Z" fill="url(#paint0_linear_1251_8958)"/>
<path fill-rule="evenodd" clip-rule="evenodd" d="M193.34 64.5443C197.275 68.5474 197.275 75.0378 193.34 79.0409L135.113 138.289C131.179 142.293 124.8 142.293 120.867 138.289C116.932 134.286 116.932 127.796 120.867 123.793L179.094 64.5443C183.028 60.5412 189.406 60.5412 193.34 64.5443Z" fill="url(#paint1_linear_1251_8958)"/>
<path fill-rule="evenodd" clip-rule="evenodd" d="M162.615 44.8292C166.565 48.8272 166.57 55.3137 162.625 59.3171L87.5104 135.537C83.5649 139.54 77.1638 139.544 73.2131 135.546C69.2625 131.548 69.2581 125.062 73.2036 121.058L148.318 44.8389C152.263 40.8355 158.664 40.8311 162.615 44.8292Z" fill="url(#paint2_linear_1251_8958)"/>
<path fill-rule="evenodd" clip-rule="evenodd" d="M87.9373 69.1512C91.8677 73.1762 91.8567 79.6909 87.9126 83.7021L58.5756 113.541C54.6317 117.551 48.2485 117.541 44.3182 113.515C40.388 109.49 40.399 102.976 44.3427 98.9641L73.6798 69.1262C77.6236 65.1149 84.0069 65.1261 87.9373 69.1512Z" fill="#72FDBA"/>
<path fill-rule="evenodd" clip-rule="evenodd" d="M105.998 39.083C111.567 39.083 116.081 43.6756 116.081 49.3409V50.3667C116.081 56.032 111.567 60.6247 105.998 60.6247C100.429 60.6247 95.9144 56.032 95.9144 50.3667V49.3409C95.9144 43.6756 100.429 39.083 105.998 39.083Z" fill="#42FFA4"/>
</g>
</g>
<defs>
<linearGradient id="paint0_linear_1251_8958" x1="123.234" y1="253.725" x2="249.193" y2="140.63" gradientUnits="userSpaceOnUse">
<stop stop-color="#42FFA4"/>
<stop offset="1" stop-color="#00BEB4"/>
</linearGradient>
<linearGradient id="paint1_linear_1251_8958" x1="137.022" y1="165.013" x2="218.207" y2="92.0248" gradientUnits="userSpaceOnUse">
<stop stop-color="#42FFA4"/>
<stop offset="1" stop-color="#00BEB4"/>
</linearGradient>
<linearGradient id="paint2_linear_1251_8958" x1="93.4882" y1="167.307" x2="191.968" y2="78.4971" gradientUnits="userSpaceOnUse">
<stop stop-color="#42FFA4"/>
<stop offset="1" stop-color="#00BEB4"/>
</linearGradient>
<clipPath id="clip0_1251_8958">
<rect width="220" height="220" fill="white" transform="translate(18 18)"/>
</clipPath>
</defs>
</svg>
