<svg width="256" height="256" viewBox="0 0 256 256" fill="none" xmlns="http://www.w3.org/2000/svg">
<g clip-path="url(#clip0_1251_8889)">
<rect width="256" height="256" fill="white"/>
<g clip-path="url(#clip1_1251_8889)">
<path d="M256 0H0V256H256V0Z" fill="#39175B"/>
<mask id="mask0_1251_8889" style="mask-type:luminance" maskUnits="userSpaceOnUse" x="34" y="34" width="188" height="188">
<path d="M221.099 34.1924H34.9004V221.807H221.099V34.1924Z" fill="white"/>
</mask>
<g mask="url(#mask0_1251_8889)">
<mask id="mask1_1251_8889" style="mask-type:alpha" maskUnits="userSpaceOnUse" x="26" y="26" width="204" height="206">
<path d="M117.734 224.994L157.381 184.285L127.646 154.55L94.017 181.453L76.6715 164.108L125.876 115.611L179.329 161.63L196.32 145.346L127.646 78.0879L56.848 142.16L39.1484 124.815L125.876 38.0869L164.461 71.0081V50.4766H191.719V98.2654L223.224 131.541" fill="black"/>
<path d="M117.734 224.994L157.381 184.285L127.646 154.55L94.017 181.453L76.6715 164.108L125.876 115.611L179.329 161.63L196.32 145.346L127.646 78.0879L56.848 142.16L39.1484 124.815L125.876 38.0869L164.461 71.0081V50.4766H191.719V98.2654L223.224 131.541" stroke="#FF0000" stroke-width="17.6996"/>
</mask>
<g mask="url(#mask1_1251_8889)">
<path d="M213.067 113.743C213.017 113.743 212.982 113.743 212.932 113.743L197.357 98.1678C197.077 97.8895 196.854 97.5587 196.703 97.1941C196.55 96.8297 196.473 96.4387 196.472 96.0438V60.1137C196.466 56.4596 195.013 52.9567 192.429 50.3729C189.844 47.789 186.342 46.3349 182.687 46.3293H172.96C169.304 46.3331 165.8 47.7863 163.214 50.3703C160.63 52.9544 159.174 56.4583 159.168 60.1137V60.319L136.173 38.0459C133.563 35.545 130.08 34.1625 126.466 34.1929C122.851 34.2233 119.392 35.6643 116.824 38.2088L38.9461 116.087C37.6636 117.367 36.6462 118.887 35.9519 120.56C35.2577 122.233 34.9004 124.028 34.9004 125.839C34.9004 127.651 35.2577 129.445 35.9519 131.119C36.6462 132.792 37.6636 134.312 38.9461 135.592L46.3587 142.969C48.9352 145.535 52.4195 146.982 56.0562 146.997C59.6929 147.012 63.1887 145.593 65.7857 143.047L125.638 84.0648C126.203 83.5045 126.967 83.19 127.762 83.19C128.558 83.19 129.322 83.5045 129.886 84.0648L188.528 142.714C189.087 143.28 189.4 144.043 189.4 144.838C189.4 145.633 189.087 146.396 188.528 146.962L181.321 154.169C180.755 154.728 179.992 155.041 179.197 155.041C178.402 155.041 177.639 154.728 177.073 154.169L135.897 114.267C133.288 111.75 129.795 110.357 126.17 110.389C122.545 110.421 119.077 111.874 116.512 114.437L77.0001 154.155C74.4273 156.743 72.9832 160.244 72.9832 163.893C72.9832 167.542 74.4273 171.043 77.0001 173.632L84.3136 180.945C86.8936 183.514 90.3833 184.96 94.024 184.969C97.6646 184.978 101.162 183.55 103.755 180.995L125.058 159.946C125.624 159.388 126.387 159.075 127.182 159.075C127.977 159.075 128.74 159.388 129.306 159.946L150.488 180.768C150.772 181.045 150.997 181.375 151.152 181.739C151.306 182.105 151.386 182.496 151.387 182.892C151.385 183.689 151.067 184.452 150.503 185.016L129.525 206.057C129.433 206.057 129.355 206.001 129.256 206.001C127.701 206.001 126.18 206.462 124.886 207.326C123.593 208.19 122.585 209.419 121.989 210.856C121.394 212.293 121.238 213.875 121.542 215.4C121.846 216.927 122.595 218.328 123.694 219.428C124.794 220.528 126.196 221.277 127.722 221.581C129.247 221.884 130.829 221.728 132.266 221.133C133.704 220.538 134.932 219.529 135.796 218.236C136.661 216.942 137.122 215.422 137.122 213.866C137.122 213.817 137.122 213.781 137.122 213.732L158.198 192.662C159.485 191.374 160.505 189.844 161.197 188.161C161.89 186.478 162.243 184.673 162.235 182.853C162.227 181.033 161.859 179.232 161.151 177.554C160.444 175.877 159.412 174.356 158.113 173.079L136.931 152.265C134.346 149.732 130.872 148.313 127.252 148.313C123.634 148.313 120.159 149.732 117.574 152.265L96.2006 173.341C95.6366 173.903 94.8728 174.219 94.0766 174.219C93.2804 174.219 92.5167 173.903 91.9527 173.341L84.6534 166.021C84.0948 165.455 83.7816 164.692 83.7816 163.897C83.7816 163.102 84.0948 162.339 84.6534 161.773L124.194 122.055C124.753 121.487 125.513 121.164 126.309 121.156C127.106 121.148 127.873 121.456 128.442 122.013L169.611 162.014C172.218 164.521 175.702 165.91 179.318 165.883C182.935 165.857 186.398 164.417 188.967 161.872L196.182 154.658C198.763 152.07 200.212 148.564 200.212 144.909C200.212 141.253 198.763 137.748 196.182 135.16L137.511 76.4894C134.935 73.9215 131.449 72.4725 127.812 72.4567C124.174 72.4408 120.677 73.8591 118.077 76.4044L58.2244 135.365C57.6569 135.92 56.8945 136.231 56.1005 136.231C55.3066 136.231 54.5441 135.92 53.9765 135.365L46.5923 127.96C46.0303 127.395 45.7147 126.632 45.7147 125.836C45.7147 125.039 46.0303 124.276 46.5923 123.712L124.47 45.8337C125.031 45.2687 125.791 44.9479 126.587 44.9412C127.383 44.9347 128.149 45.2427 128.718 45.7983L169.993 85.7427V60.1137C169.995 59.3163 170.313 58.5521 170.877 57.9882C171.441 57.4242 172.205 57.1066 173.002 57.1048H182.73C183.528 57.1066 184.293 57.424 184.858 57.9877C185.423 58.5514 185.742 59.3156 185.746 60.1137V96.1005C185.759 99.7539 187.209 103.256 189.781 105.849L205.279 121.347C205.279 121.446 205.222 121.524 205.222 121.616C205.224 123.172 205.687 124.693 206.553 125.987C207.419 127.279 208.65 128.287 210.088 128.88C211.527 129.473 213.109 129.627 214.635 129.321C216.161 129.015 217.562 128.263 218.661 127.161C219.759 126.059 220.506 124.655 220.806 123.128C221.107 121.601 220.947 120.019 220.348 118.582C219.75 117.146 218.739 115.92 217.442 115.058C216.146 114.196 214.624 113.739 213.067 113.743Z" fill="url(#paint0_linear_1251_8889)"/>
</g>
<path d="M213.067 113.743C213.017 113.743 212.982 113.743 212.932 113.743L197.357 98.1678C197.077 97.8895 196.854 97.5587 196.703 97.1941C196.55 96.8297 196.473 96.4387 196.472 96.0438V60.1137C196.466 56.4596 195.013 52.9567 192.429 50.3729C189.844 47.789 186.342 46.3349 182.687 46.3293H172.96C169.304 46.3331 165.8 47.7863 163.214 50.3703C160.63 52.9544 159.174 56.4583 159.168 60.1137V60.319L136.173 38.0459C133.563 35.545 130.08 34.1625 126.466 34.1929C122.851 34.2233 119.392 35.6643 116.824 38.2088L38.9461 116.087C37.6636 117.367 36.6462 118.887 35.9519 120.56C35.2577 122.233 34.9004 124.028 34.9004 125.839C34.9004 127.651 35.2577 129.445 35.9519 131.119C36.6462 132.792 37.6636 134.312 38.9461 135.592L46.3587 142.969C48.9352 145.535 52.4195 146.982 56.0562 146.997C59.6929 147.012 63.1887 145.593 65.7857 143.047L125.638 84.0648C126.203 83.5045 126.967 83.19 127.762 83.19C128.558 83.19 129.322 83.5045 129.886 84.0648L188.528 142.714C189.087 143.28 189.4 144.043 189.4 144.838C189.4 145.633 189.087 146.396 188.528 146.962L181.321 154.169C180.755 154.728 179.992 155.041 179.197 155.041C178.402 155.041 177.639 154.728 177.073 154.169L135.897 114.267C133.288 111.75 129.795 110.357 126.17 110.389C122.545 110.421 119.077 111.874 116.512 114.437L77.0001 154.155C74.4273 156.743 72.9832 160.244 72.9832 163.893C72.9832 167.542 74.4273 171.043 77.0001 173.632L84.3136 180.945C86.8936 183.514 90.3833 184.96 94.024 184.969C97.6646 184.978 101.162 183.55 103.755 180.995L125.058 159.946C125.624 159.388 126.387 159.075 127.182 159.075C127.977 159.075 128.74 159.388 129.306 159.946L150.488 180.768C150.772 181.045 150.997 181.375 151.152 181.739C151.306 182.105 151.386 182.496 151.387 182.892C151.385 183.689 151.067 184.452 150.503 185.016L129.525 206.057C129.433 206.057 129.355 206.001 129.256 206.001C127.701 206.001 126.18 206.462 124.886 207.326C123.593 208.19 122.585 209.419 121.989 210.856C121.394 212.293 121.238 213.875 121.542 215.4C121.846 216.927 122.595 218.328 123.694 219.428C124.794 220.528 126.196 221.277 127.722 221.581C129.247 221.884 130.829 221.728 132.266 221.133C133.704 220.538 134.932 219.529 135.796 218.236C136.661 216.942 137.122 215.422 137.122 213.866C137.122 213.817 137.122 213.781 137.122 213.732L158.198 192.662C159.485 191.374 160.505 189.844 161.197 188.161C161.89 186.478 162.243 184.673 162.235 182.853C162.227 181.033 161.859 179.232 161.151 177.554C160.444 175.877 159.412 174.356 158.113 173.079L136.931 152.265C134.346 149.732 130.872 148.313 127.252 148.313C123.634 148.313 120.159 149.732 117.574 152.265L96.2006 173.341C95.6366 173.903 94.8728 174.219 94.0766 174.219C93.2804 174.219 92.5167 173.903 91.9527 173.341L84.6534 166.021C84.0948 165.455 83.7816 164.692 83.7816 163.897C83.7816 163.102 84.0948 162.339 84.6534 161.773L124.194 122.055C124.753 121.487 125.513 121.164 126.309 121.156C127.106 121.148 127.873 121.456 128.442 122.013L169.611 162.014C172.218 164.521 175.702 165.91 179.318 165.883C182.935 165.857 186.398 164.417 188.967 161.872L196.182 154.658C198.763 152.07 200.212 148.564 200.212 144.909C200.212 141.253 198.763 137.748 196.182 135.16L137.511 76.4894C134.935 73.9215 131.449 72.4725 127.812 72.4567C124.174 72.4408 120.677 73.8591 118.077 76.4044L58.2244 135.365C57.6569 135.92 56.8945 136.231 56.1005 136.231C55.3066 136.231 54.5441 135.92 53.9765 135.365L46.5923 127.96C46.0303 127.395 45.7147 126.632 45.7147 125.836C45.7147 125.039 46.0303 124.276 46.5923 123.712L124.47 45.8337C125.031 45.2687 125.791 44.9479 126.587 44.9412C127.383 44.9347 128.149 45.2427 128.718 45.7983L169.993 85.7427V60.1137C169.995 59.3163 170.313 58.5521 170.877 57.9882C171.441 57.4242 172.205 57.1066 173.002 57.1048H182.73C183.528 57.1066 184.293 57.424 184.858 57.9877C185.423 58.5514 185.742 59.3156 185.746 60.1137V96.1005C185.759 99.7539 187.209 103.256 189.781 105.849L205.279 121.347C205.279 121.446 205.222 121.524 205.222 121.616C205.224 123.172 205.687 124.693 206.553 125.987C207.419 127.279 208.65 128.287 210.088 128.88C211.527 129.473 213.109 129.627 214.635 129.321C216.161 129.015 217.562 128.263 218.661 127.161C219.759 126.059 220.506 124.655 220.806 123.128C221.107 121.601 220.947 120.019 220.348 118.582C219.75 117.146 218.739 115.92 217.442 115.058C216.146 114.196 214.624 113.739 213.067 113.743Z" fill="url(#paint1_linear_1251_8889)"/>
</g>
</g>
</g>
<defs>
<linearGradient id="paint0_linear_1251_8889" x1="127.927" y1="34.1924" x2="127.927" y2="221.732" gradientUnits="userSpaceOnUse">
<stop stop-color="#F7F6F9" stop-opacity="0.68"/>
<stop offset="1" stop-color="#F7F6F9" stop-opacity="0.83"/>
</linearGradient>
<linearGradient id="paint1_linear_1251_8889" x1="127.927" y1="34.1924" x2="127.927" y2="221.732" gradientUnits="userSpaceOnUse">
<stop stop-color="#F7F6F9" stop-opacity="0.68"/>
<stop offset="1" stop-color="#F7F6F9" stop-opacity="0.83"/>
</linearGradient>
<clipPath id="clip0_1251_8889">
<rect width="256" height="256" fill="white"/>
</clipPath>
<clipPath id="clip1_1251_8889">
<rect width="256" height="256" fill="white"/>
</clipPath>
</defs>
</svg>
