<svg width="256" height="256" viewBox="0 0 256 256" fill="none" xmlns="http://www.w3.org/2000/svg">
<rect width="256" height="256" fill="white"/>
<g clip-path="url(#clip0_1251_8935)">
<path d="M73.6253 85.3438C79.1978 85.3438 81.7478 88.0213 81.7478 99.8938C81.7478 89.5888 85.1153 88.2613 89.1953 88.2538C93.2753 88.2538 95.9453 91.6662 95.4953 101.776C94.9403 114.669 93.7328 121.051 93.2678 129.939C91.8053 158.071 96.8453 149.589 97.4078 148.179C98.7953 144.676 103.078 136.479 109.1 131.731C116.623 125.791 120.38 133.231 119.21 135.294C117.875 137.604 111.875 146.791 109.1 156.106C106.88 163.561 101.578 171.136 97.4003 174.534C88.8803 181.471 68.6603 182.064 57.1703 176.911C45.6728 171.759 43.4153 160.404 42.5003 156.106C40.9178 148.681 42.5003 140.581 42.5003 136.681C42.5003 132.331 41.3153 119.169 40.9253 114.661C40.3778 108.361 42.1703 105.556 46.1303 105.286C49.1753 105.091 53.2028 106.974 53.2028 113.431V99.9987C53.2028 94.6438 57.8078 92.6487 60.1028 92.6487C62.4053 92.6487 66.8753 93.2712 66.8828 99.9987V93.2712C66.8828 89.3112 68.9753 85.3513 73.6253 85.3438ZM182.375 85.3438C187.025 85.3438 189.118 89.3187 189.118 93.2712V99.9987C189.118 93.2787 193.588 92.6487 195.89 92.6487C198.185 92.6487 202.79 94.6438 202.79 99.9987V113.431C202.79 106.974 206.833 105.091 209.87 105.294C213.838 105.556 215.63 108.369 215.083 114.669C214.693 119.169 213.493 132.331 213.493 136.681C213.493 140.581 215.083 148.681 213.493 156.106C212.578 160.404 210.32 171.759 198.83 176.911C187.333 182.064 167.128 181.471 158.6 174.534C154.423 171.136 149.128 163.561 146.9 156.106C144.125 146.791 138.125 137.604 136.798 135.294C135.62 133.231 139.378 125.784 146.908 131.731C152.93 136.486 157.213 144.676 158.6 148.179C159.163 149.596 164.188 158.079 162.725 129.939C162.26 121.044 161.068 114.669 160.505 101.776C160.055 91.6662 162.725 88.2613 166.805 88.2538C170.885 88.2538 174.26 89.5812 174.26 99.9012C174.26 88.0287 176.795 85.3438 182.375 85.3438Z" fill="#FFFF8B"/>
<path fill-rule="evenodd" clip-rule="evenodd" d="M73.6249 82.5241C75.2149 82.5241 76.8499 82.7116 78.3499 83.3491C79.9249 84.0241 81.2149 85.1341 82.1749 86.6866C82.3399 86.9491 82.4749 87.2341 82.6174 87.5266C84.6724 85.7041 87.1999 85.4266 89.1949 85.4266C90.6199 85.4266 92.0599 85.7266 93.3949 86.5066C94.7224 87.2866 95.7724 88.4566 96.5449 89.9041C98.0149 92.6941 98.5474 96.6916 98.3223 101.904C98.0373 108.422 97.5874 113.297 97.1599 117.639C96.7249 121.989 96.3199 125.724 96.0874 130.089C95.7349 136.899 95.7799 141.437 96.0199 144.392C98.1349 140.102 102.072 133.682 107.345 129.519C109.52 127.794 111.695 126.834 113.81 126.677C115.962 126.512 117.8 127.202 119.18 128.304C120.515 129.362 121.4 130.779 121.857 132.129C122.262 133.314 122.555 135.152 121.655 136.704C120.207 139.224 114.455 148.007 111.8 156.917C109.43 164.867 103.835 172.944 99.1848 176.724C94.2348 180.759 86.3224 182.702 78.5374 183.084C70.6774 183.467 62.2774 182.297 56.0149 179.484C43.0999 173.709 40.6399 160.922 39.7399 156.707C38.8699 152.627 38.8849 148.442 39.0874 144.909C39.1924 143.139 39.3499 141.482 39.4624 140.079C39.5974 138.632 39.6799 137.529 39.6799 136.689C39.6799 132.504 38.5099 119.529 38.1049 114.924C37.8199 111.579 38.0749 108.587 39.3799 106.314C40.8274 103.794 43.2424 102.662 45.9424 102.489C47.3224 102.392 48.8899 102.609 50.3824 103.269V100.007C50.3824 96.4066 51.9799 93.7816 54.0199 92.1316C55.4355 90.9632 57.1417 90.201 58.9566 89.9263C60.7714 89.6515 62.6268 89.8746 64.3249 90.5716C64.6295 88.9717 65.2824 87.4584 66.2374 86.1391C67.8574 83.9566 70.3774 82.5241 73.6249 82.5241ZM89.1949 91.0816C87.3949 91.0816 86.6299 91.3891 86.1049 92.0191C85.4224 92.8441 84.5674 94.8916 84.5674 99.8941L84.5599 100.022L84.5449 100.472C84.4999 102.572 84.2674 107.297 83.9974 112.569L83.9524 113.267L83.0749 132.429L80.7274 132.737L67.2574 134.537L67.2424 134.522L51.7624 136.989L51.5824 133.877L50.3824 113.597V113.447C50.3824 110.822 49.5874 109.577 48.9199 108.969C48.5644 108.661 48.1512 108.427 47.7045 108.28C47.2577 108.133 46.7862 108.077 46.3174 108.114C45.0574 108.204 44.5924 108.602 44.2849 109.134C43.8349 109.899 43.4749 111.474 43.7299 114.437C44.1124 118.824 45.3274 132.182 45.3274 136.689C45.3274 137.814 45.2149 139.172 45.1024 140.567C44.9674 142.007 44.8249 143.567 44.7274 145.239C44.5399 148.577 44.5549 152.169 45.2674 155.522C46.1974 159.887 48.2674 169.832 58.3324 174.347C63.5599 176.687 71.0224 177.797 78.2674 177.444C85.5874 177.084 92.0449 175.262 95.6224 172.352C99.3274 169.337 104.322 162.249 106.392 155.304C109.167 146.004 114.995 136.839 116.562 134.207C116.547 134.147 116.547 134.057 116.51 133.952C116.346 133.474 116.053 133.05 115.662 132.729C115.261 132.407 114.749 132.256 114.237 132.309C113.562 132.362 112.43 132.707 110.847 133.952C105.387 138.264 101.337 145.929 100.032 149.229C99.7924 149.822 99.1999 150.954 98.3599 151.839C97.7621 152.495 96.9892 152.966 96.1324 153.197C95.4854 153.351 94.8089 153.328 94.174 153.13C93.5392 152.932 92.9694 152.566 92.5249 152.072C91.816 151.245 91.3169 150.26 91.0699 149.199C90.7305 147.859 90.5096 146.491 90.4099 145.112C90.1174 141.782 90.0874 136.892 90.4549 129.804C90.6949 125.274 91.1149 121.374 91.5424 117.084C91.9624 112.794 92.3974 108.032 92.6749 101.664C92.8924 96.7591 92.3074 93.9916 91.5499 92.5516C91.3313 92.077 90.9829 91.674 90.5449 91.3891C90.13 91.1695 89.6636 91.0584 89.1949 91.0816ZM60.1099 95.4691C59.1808 95.5509 58.2989 95.9146 57.5824 96.5116C57.0674 96.9297 56.6584 97.4635 56.3887 98.0695C56.1189 98.6755 55.996 99.3366 56.0299 99.9991V113.432L57.0274 130.434L64.0549 129.309V100.007C64.0549 97.3366 63.2149 96.4666 62.7274 96.1066C62.0524 95.6341 61.0849 95.4691 60.1099 95.4691ZM73.6249 88.1716C73.0753 88.138 72.5261 88.2433 72.028 88.478C71.5299 88.7126 71.0989 89.0689 70.7749 89.5141C70.0383 90.6256 69.666 91.9389 69.7099 93.2716V128.507L77.6374 127.457C77.8099 123.249 78.0499 118.224 78.2899 113.597L78.9274 99.7741C78.9124 93.9391 78.2524 91.0666 77.3749 89.6566C77.0944 89.1634 76.6596 88.776 76.1374 88.5541C75.3327 88.2649 74.4789 88.13 73.6249 88.1716ZM182.39 82.5241C185.622 82.5241 188.142 83.9641 189.762 86.1466C190.745 87.4741 191.36 89.0116 191.675 90.5791C193.373 89.8777 195.23 89.6503 197.047 89.9211C198.865 90.1918 200.575 90.9506 201.995 92.1166C204.027 93.7816 205.617 96.3991 205.617 99.9991V103.262C207.11 102.602 208.677 102.384 210.065 102.474C212.765 102.654 215.165 103.787 216.62 106.307C217.925 108.579 218.187 111.572 217.895 114.909C217.497 119.522 216.32 132.497 216.32 136.682C216.32 137.514 216.41 138.632 216.53 140.072C216.657 141.474 216.807 143.132 216.905 144.902C217.115 148.434 217.13 152.619 216.26 156.699C215.36 160.914 212.9 173.702 199.985 179.492C193.722 182.297 185.322 183.467 177.462 183.084C169.677 182.702 161.765 180.759 156.815 176.724C152.165 172.944 146.57 164.874 144.2 156.917C141.545 148.014 135.807 139.232 134.352 136.704C133.452 135.152 133.745 133.314 134.15 132.129C134.6 130.779 135.492 129.362 136.827 128.304C138.207 127.209 140.037 126.512 142.197 126.677C144.297 126.834 146.472 127.794 148.655 129.519C153.927 133.674 157.857 140.094 159.972 144.384C160.212 141.429 160.265 136.892 159.912 130.089C159.687 125.724 159.275 121.989 158.84 117.639C158.301 112.406 157.916 107.159 157.685 101.904C157.46 96.6916 157.985 92.6941 159.462 89.9041C160.227 88.4566 161.277 87.2866 162.612 86.5066C163.94 85.7341 165.387 85.4341 166.812 85.4341C168.8 85.4341 171.312 85.7041 173.375 87.5266C173.525 87.2341 173.66 86.9491 173.825 86.6866C174.792 85.1341 176.075 84.0241 177.65 83.3491C179.157 82.7116 180.8 82.5241 182.382 82.5241H182.39ZM166.805 91.0816C166.336 91.0591 165.87 91.1627 165.455 91.3816C165.017 91.6668 164.669 92.0697 164.45 92.5441C163.692 93.9841 163.107 96.7516 163.325 101.657C163.602 108.032 164.037 112.787 164.457 117.077C164.885 121.367 165.312 125.267 165.545 129.797C165.92 136.884 165.882 141.774 165.59 145.104C165.49 146.483 165.269 147.851 164.93 149.192C164.688 150.253 164.194 151.241 163.49 152.072C163.045 152.566 162.475 152.931 161.84 153.129C161.206 153.327 160.529 153.35 159.882 153.197C159.019 152.966 158.241 152.492 157.64 151.832C156.935 151.065 156.369 150.182 155.967 149.222C154.662 145.922 150.62 138.257 145.16 133.944C143.585 132.699 142.445 132.354 141.77 132.302C141.515 132.274 141.258 132.297 141.012 132.369C140.766 132.441 140.537 132.561 140.337 132.722C139.95 133.044 139.66 133.467 139.497 133.944C139.46 134.049 139.445 134.139 139.43 134.199C141.005 136.824 146.84 145.997 149.607 155.297C151.677 162.242 156.672 169.329 160.385 172.344C163.955 175.254 170.42 177.077 177.74 177.444C184.992 177.797 192.447 176.679 197.682 174.339C207.747 169.824 209.802 159.879 210.732 155.514C211.452 152.162 211.46 148.569 211.272 145.232C211.175 143.559 211.032 142.007 210.905 140.559C210.777 139.27 210.702 137.977 210.68 136.682C210.68 132.174 211.887 118.817 212.27 114.429C212.525 111.467 212.157 109.892 211.722 109.127C211.422 108.602 210.942 108.197 209.682 108.107C209.214 108.069 208.742 108.126 208.295 108.273C207.848 108.42 207.435 108.654 207.08 108.962C206.495 109.487 205.82 110.514 205.655 112.517L205.617 113.432V113.597L204.425 133.877L204.245 136.989L188.75 134.522L172.925 132.422L172.047 113.267L172.01 112.569C171.779 108.539 171.591 104.506 171.447 100.472L171.432 100.029V99.9016C171.432 94.8916 170.585 92.8516 169.895 92.0266C169.37 91.3891 168.605 91.0816 166.805 91.0816ZM195.89 95.4691C194.915 95.4691 193.955 95.6266 193.272 96.1066C192.785 96.4591 191.945 97.3291 191.945 99.9991V129.317L198.965 130.434L199.97 113.432V99.9991C200.005 99.338 199.884 98.6778 199.617 98.072C199.35 97.4662 198.944 96.9317 198.432 96.5116C197.711 95.9134 196.824 95.5497 195.89 95.4691ZM182.375 88.1716C181.182 88.1716 180.395 88.3216 179.862 88.5466C179.339 88.7709 178.904 89.1609 178.625 89.6566C177.755 91.0666 177.087 93.9391 177.08 99.7741L177.665 112.517C177.92 117.429 178.175 122.919 178.355 127.449L186.297 128.499V93.2716C186.338 91.9382 185.964 90.6249 185.225 89.5141C184.9 89.0695 184.469 88.7135 183.971 88.4789C183.473 88.2443 182.924 88.1387 182.375 88.1716Z" fill="black"/>
<path d="M104.84 67.0475C105.488 66.6773 106.256 66.5783 106.977 66.7722C107.697 66.9661 108.312 67.4371 108.687 68.0825L117.32 83.03C117.642 83.6747 117.705 84.418 117.498 85.108C117.29 85.7981 116.827 86.3828 116.203 86.7428C115.578 87.1028 114.84 87.2109 114.139 87.0449C113.438 86.879 112.826 86.4516 112.43 85.85L103.805 70.9025C103.432 70.2537 103.332 69.4837 103.526 68.7612C103.72 68.0386 104.192 67.4224 104.84 67.0475ZM147.162 68.0825C147.536 67.434 148.152 66.9607 148.875 66.7666C149.598 66.5725 150.369 66.6735 151.017 67.0475C151.666 67.4215 152.139 68.0377 152.333 68.7606C152.527 69.4836 152.426 70.254 152.052 70.9025L143.427 85.85C143.03 86.4516 142.419 86.879 141.718 87.0449C141.017 87.2109 140.278 87.1028 139.654 86.7428C139.03 86.3828 138.567 85.7981 138.359 85.108C138.151 84.418 138.215 83.6747 138.537 83.03L147.162 68.0825ZM127.917 60.5C129.477 60.5 130.737 61.7675 130.737 63.3275V80.5775C130.7 81.3012 130.386 81.983 129.861 82.4821C129.335 82.9812 128.638 83.2594 127.913 83.2594C127.189 83.2594 126.492 82.9812 125.966 82.4821C125.441 81.983 125.127 81.3012 125.09 80.5775V63.3275C125.09 61.7675 126.357 60.5 127.917 60.5Z" fill="black"/>
</g>
<defs>
<clipPath id="clip0_1251_8935">
<rect width="180" height="180" fill="white" transform="translate(38 38)"/>
</clipPath>
</defs>
</svg>
