<svg width="256" height="256" viewBox="0 0 256 256" fill="none" xmlns="http://www.w3.org/2000/svg">
<rect width="256" height="256" fill="white"/>
<g clip-path="url(#clip0_1225_23)">
<path d="M190.192 56.0245L185.094 50.0764L158.267 73.2619L185.175 96.1237L190.273 90.1756L170.325 73.2214L190.192 56.0245ZM212.811 87.1813C210.1 87.1813 207.875 89.4068 207.875 92.1178C207.875 94.8288 210.1 97.0543 212.811 97.0543C215.522 97.0543 217.748 94.8288 217.748 92.1178C217.748 89.3663 215.522 87.1813 212.811 87.1813ZM226.731 41.8623C223.858 38.9085 220.216 37.3305 216.857 36.3593C213.863 35.5501 210.788 35.105 207.672 35.024C205.204 34.9431 203.585 35.105 203.585 35.105L204.314 42.9144C204.314 42.9144 209.695 42.5098 214.753 43.926C217.303 44.6543 219.609 45.7873 221.187 47.3654C222.725 48.9434 223.777 50.9261 223.777 54.4464C223.777 56.2673 223.291 57.198 222.482 58.0881C221.511 59.0593 220.297 59.8281 218.962 60.2327C216.048 61.2847 212.892 61.3252 212.892 61.3252H208.967V81.5973H216.817V68.4872C218.476 68.3254 219.164 68.5277 221.632 67.6375C223.898 66.8282 226.326 65.5739 228.309 63.3888C230.494 60.9206 231.667 57.7644 231.627 54.4869C231.546 49.1457 229.603 44.8162 226.731 41.8623Z" fill="#F4301C"/>
<path d="M34.3274 213.225C39.8304 215.774 47.2757 217.797 56.4204 219.213C74.7098 222.046 96.8432 222.046 115.133 219.213C124.277 217.797 131.723 215.814 137.226 213.265C139.977 211.97 142.243 210.554 144.064 208.774C145.844 206.993 147.22 204.647 147.22 201.976V84.8346C147.22 80.7478 144.347 77.7131 140.867 75.5281C137.428 73.3431 132.896 71.6031 127.474 70.1464C116.589 67.2331 101.982 65.4932 85.7968 65.4932C69.6114 65.4932 55.0042 67.2331 44.1195 70.1464C38.657 71.6031 34.1655 73.3431 30.7262 75.5281C27.2463 77.6726 24.3734 80.7074 24.3734 84.8346V201.936C24.3734 204.606 25.7087 206.953 27.5296 208.733C29.3099 210.514 31.5759 211.93 34.3274 213.225ZM34.8939 82.0831C37.2408 80.586 41.1657 78.9675 46.1427 77.6322C56.0562 74.9616 70.2184 73.2217 85.7968 73.2217C101.375 73.2217 115.497 74.9616 125.41 77.6322C130.387 78.9675 134.312 80.586 136.659 82.0831C139.006 83.5803 139.37 84.6323 139.37 84.7942C139.37 84.956 139.006 86.0081 136.659 87.5052C134.272 89.0024 130.387 90.6209 125.41 91.9562C115.497 94.6268 101.375 96.3667 85.7563 96.3667C70.1374 96.3667 56.0157 94.6268 46.1022 91.9562C41.1252 90.6209 37.2408 89.0024 34.8534 87.5052C32.4661 86.0081 32.1424 84.956 32.1424 84.7942C32.2233 84.6728 32.547 83.6207 34.8939 82.0831ZM32.1828 94.7481C35.4604 96.6095 39.2639 98.228 44.0791 99.5228C54.9637 102.436 69.571 104.176 85.7563 104.176C101.901 104.176 116.549 102.436 127.434 99.5228C132.249 98.228 136.052 96.569 139.33 94.7481V123.882C139.33 123.963 139.33 124.327 138.48 125.136C137.104 126.35 135.567 127.321 133.867 128.049C129.457 130.113 122.537 132.055 113.878 133.391C96.56 136.061 74.9121 136.061 57.5938 133.391C48.9347 132.055 42.0154 130.113 37.6049 128.049C35.9055 127.321 34.3679 126.35 32.9921 125.136C32.1828 124.327 32.1424 123.963 32.1424 123.882V94.7481H32.1828ZM32.1828 133.714C32.9516 134.159 33.4777 134.726 34.3274 135.131C39.8304 137.72 47.2757 139.703 56.4204 141.119C74.7098 143.952 96.8432 143.952 115.133 141.119C124.277 139.703 131.723 137.72 137.226 135.131C138.075 134.726 138.601 134.159 139.37 133.714V162.888C139.37 162.969 139.37 163.333 138.52 164.143C137.145 165.357 135.607 166.328 133.908 167.056C129.497 169.12 122.578 171.062 113.919 172.397C96.6005 175.068 74.9526 175.068 57.6343 172.397C48.9751 171.062 42.0559 169.12 37.6454 167.056C35.9459 166.328 34.4083 165.357 33.0326 164.143C32.2233 163.333 32.1828 162.969 32.1828 162.888V133.714ZM32.1828 172.761C32.9516 173.207 33.4777 173.773 34.3274 174.178C39.8304 176.727 47.2757 178.75 56.4204 180.166C74.7098 182.999 96.8432 182.999 115.133 180.166C124.277 178.75 131.723 176.727 137.226 174.178C138.075 173.773 138.601 173.207 139.37 172.761V201.936C139.37 202.016 139.37 202.381 138.52 203.19C137.145 204.404 135.607 205.375 133.908 206.103C129.497 208.167 122.578 210.109 113.919 211.444C96.6005 214.115 74.9526 214.115 57.6343 211.444C48.9751 210.109 42.0559 208.167 37.6454 206.103C35.9459 205.375 34.4083 204.404 33.0326 203.19C32.2233 202.381 32.1828 202.016 32.1828 201.936V172.761Z" fill="#1E5781"/>
</g>
<defs>
<clipPath id="clip0_1225_23">
<rect width="207.253" height="186.338" fill="white" transform="translate(24.3734 35)"/>
</clipPath>
</defs>
</svg>
