<svg width="256" height="256" viewBox="0 0 256 256" fill="none" xmlns="http://www.w3.org/2000/svg">
<rect width="256" height="256" fill="white"/>
<g clip-path="url(#clip0_1251_8916)">
<path d="M170.419 107.951C159.96 61.851 138.188 49.5706 132.648 40.893C130.363 37.0578 128.31 33.1064 126.566 29C126.256 33.1064 125.753 35.6632 122.266 38.7623C115.293 44.9994 85.5801 69.1728 83.1007 121.549C80.7764 170.399 119.012 200.5 124.048 203.599C127.922 205.497 132.648 203.637 134.973 201.894C153.374 189.265 178.555 155.562 170.419 107.951Z" fill="#10AA50"/>
<path d="M128.155 177.644C127.186 189.73 126.489 196.742 124.048 203.676C124.048 203.676 125.637 215.182 126.76 227.385H130.75C131.719 218.785 133.152 210.262 135.089 201.856C129.975 199.299 128.348 188.219 128.155 177.644Z" fill="#B8C4C2"/>
<path d="M135.128 201.817C129.898 199.415 128.387 188.142 128.155 177.605C129.433 160.249 129.82 142.855 129.278 125.5C129.007 116.396 129.394 41.0481 127.031 30.0073C128.658 33.7263 130.518 37.3678 132.648 40.8544C138.188 49.532 159.999 61.8124 170.419 107.912C178.555 155.484 153.529 189.11 135.128 201.817Z" fill="#12924F"/>
</g>
<defs>
<clipPath id="clip0_1251_8916">
<rect width="89" height="198.385" fill="white" transform="translate(83 29)"/>
</clipPath>
</defs>
</svg>
