<svg width="256" height="256" viewBox="0 0 256 256" fill="none" xmlns="http://www.w3.org/2000/svg">
<g clip-path="url(#clip0_1251_8908)">
<rect width="256" height="256" fill="#002B34"/>
<g clip-path="url(#clip1_1251_8908)">
<path d="M58.3 0H197.7C229.9 0 256 29.85 256 66.7V189.3C256 226.15 229.9 256 197.7 256H58.3C26.1 256 0 226.15 0 189.3V66.7C0 29.85 26.1 0 58.3 0Z" fill="#002B34"/>
<path d="M83.5549 91.1344C71.5549 104.834 49.4049 105.084 34.1049 91.6844C18.8049 78.2844 16.0549 56.3344 28.0049 42.5844C39.9549 28.8344 62.0549 28.4844 77.4549 41.8344C92.8049 55.1844 95.6049 77.1344 83.7049 90.9344" fill="#86C8C8"/>
<path d="M152.105 229.435C198.138 229.435 235.455 200.288 235.455 164.335C235.455 128.381 198.138 99.2346 152.105 99.2346C106.072 99.2346 68.755 128.381 68.755 164.335C68.755 200.288 106.072 229.435 152.105 229.435Z" fill="#86C8C8"/>
<path d="M149.413 72.2246C168.477 68.1442 181.8 54.8765 179.17 42.5903C176.54 30.3041 158.954 23.6519 139.891 27.7323C120.827 31.8126 107.504 45.0803 110.134 57.3665C112.763 69.6527 130.35 76.3049 149.413 72.2246Z" fill="#86C8C8"/>
</g>
</g>
<defs>
<clipPath id="clip0_1251_8908">
<rect width="256" height="256" fill="white"/>
</clipPath>
<clipPath id="clip1_1251_8908">
<rect width="256" height="256" fill="white"/>
</clipPath>
</defs>
</svg>
