<svg width="256" height="256" viewBox="0 0 256 256" fill="none" xmlns="http://www.w3.org/2000/svg">
<g clip-path="url(#clip0_1251_8937)">
<rect width="256" height="256" fill="white"/>
<g clip-path="url(#clip1_1251_8937)">
<path d="M128 256C198.692 256 256 198.692 256 128C256 57.3076 198.692 0 128 0C57.3076 0 0 57.3076 0 128C0 198.692 57.3076 256 128 256Z" fill="white"/>
<path d="M171.52 76.7998H192V179.2H171.52V76.7998ZM104.96 76.7998C91.3809 76.7998 78.358 82.1941 68.7561 91.7959C59.1543 101.398 53.76 114.421 53.76 128C53.76 141.579 59.1543 154.602 68.7561 164.204C78.358 173.806 91.3809 179.2 104.96 179.2C118.539 179.2 131.562 173.806 141.164 164.204C150.766 154.602 156.16 141.579 156.16 128C156.16 114.421 150.766 101.398 141.164 91.7959C131.562 82.1941 118.539 76.7998 104.96 76.7998ZM104.96 97.2798C113.107 97.2798 120.921 100.516 126.682 106.277C132.443 112.039 135.68 119.852 135.68 128C135.68 136.147 132.443 143.961 126.682 149.722C120.921 155.483 113.107 158.72 104.96 158.72C96.8126 158.72 88.9988 155.483 83.2377 149.722C77.4766 143.961 74.24 136.147 74.24 128C74.24 119.852 77.4766 112.039 83.2377 106.277C88.9988 100.516 96.8126 97.2798 104.96 97.2798Z" fill="black"/>
</g>
</g>
<defs>
<clipPath id="clip0_1251_8937">
<rect width="256" height="256" fill="white"/>
</clipPath>
<clipPath id="clip1_1251_8937">
<rect width="256" height="256" fill="white"/>
</clipPath>
</defs>
</svg>
