<svg width="256" height="256" viewBox="0 0 256 256" fill="none" xmlns="http://www.w3.org/2000/svg">
<g clip-path="url(#clip0_1230_507)">
<rect width="256" height="256" fill="white"/>
<g clip-path="url(#clip1_1230_507)">
<path d="M256 0H0V256H256V0Z" fill="#0062BE"/>
<path d="M256 0H0V256H256V0Z" fill="url(#paint0_linear_1230_507)"/>
<path d="M128.002 151.349C140.897 151.349 151.351 140.895 151.351 128C151.351 115.104 140.897 104.65 128.002 104.65C115.106 104.65 104.652 115.104 104.652 128C104.652 140.895 115.106 151.349 128.002 151.349Z" fill="#F1F1F1"/>
<path opacity="0.3" d="M45.9297 128C45.9297 111.767 50.7434 95.8981 59.7621 82.4007C68.7808 68.9033 81.5994 58.3833 96.597 52.1711C111.595 45.9589 128.097 44.3335 144.019 47.5005C159.94 50.6674 174.565 58.4844 186.043 69.9631C197.522 81.4417 205.339 96.0664 208.506 111.988C211.673 127.909 210.048 144.412 203.835 159.409C197.623 174.407 187.103 187.226 173.606 196.244C160.108 205.263 144.24 210.077 128.006 210.077" stroke="#F1F1F1" stroke-width="16.9814"/>
<path opacity="0.3" d="M75.6484 128C75.6484 117.644 78.7193 107.521 84.4726 98.9107C90.2259 90.3002 98.4033 83.5892 107.971 79.6263C117.538 75.6633 128.066 74.6264 138.222 76.6467C148.379 78.667 157.709 83.6537 165.031 90.9763C172.354 98.2989 177.341 107.628 179.361 117.785C181.381 127.942 180.344 138.47 176.381 148.037C172.418 157.604 165.707 165.782 157.097 171.535C148.487 177.288 138.363 180.359 128.008 180.359" stroke="#F1F1F1" stroke-width="16.9814"/>
<path d="M128.004 45.9233C149.772 45.9233 170.649 54.5707 186.041 69.963C201.433 85.3554 210.081 106.232 210.081 128" stroke="#F1F1F1" stroke-width="16.9814"/>
<path d="M128.004 75.6406C141.89 75.6406 155.208 81.157 165.027 90.9763C174.847 100.796 180.363 114.113 180.363 128" stroke="#F1F1F1" stroke-width="16.9814"/>
</g>
</g>
<defs>
<linearGradient id="paint0_linear_1230_507" x1="128" y1="0" x2="128" y2="256" gradientUnits="userSpaceOnUse">
<stop stop-color="#0074E0"/>
<stop offset="1" stop-color="#004B91"/>
</linearGradient>
<clipPath id="clip0_1230_507">
<rect width="256" height="256" fill="white"/>
</clipPath>
<clipPath id="clip1_1230_507">
<rect width="256" height="256" fill="white"/>
</clipPath>
</defs>
</svg>
