<svg width="256" height="256" viewBox="0 0 256 256" fill="none" xmlns="http://www.w3.org/2000/svg">
<rect width="256" height="256" fill="white"/>
<g clip-path="url(#clip0_1251_8959)">
<path d="M128.344 28.0553C128.271 28.1308 125.913 28.2775 123.144 28.4264C120.378 28.5375 117.611 28.7242 116.976 28.7997C116.376 28.9108 114.582 29.1708 113.049 29.393C105.756 30.433 96.4044 33.073 89.1866 36.1553C65.677 46.1634 46.8246 64.6959 36.4155 88.0308C32.1488 97.5108 29.1555 109.026 28.2599 119.171C27.7777 124.822 27.9999 136.822 28.6755 140.355C28.7488 140.726 28.9355 141.991 29.0488 143.104C29.2355 144.777 30.2088 149.311 31.3311 153.695C31.4422 154.104 31.6288 154.995 31.7422 155.629C31.8533 156.295 32.0777 156.855 32.2288 156.855C32.3777 156.855 32.5266 157.077 32.5266 157.375C32.5266 158.526 34.6222 164.249 34.9955 164.026C35.2177 163.915 35.2577 163.989 35.1444 164.175C34.8088 164.731 35.7799 166.962 36.1933 166.626C36.3422 166.442 36.3799 166.553 36.2288 166.813C36.0422 167.111 36.4177 168.413 37.1644 169.971C38.4355 172.722 42.8111 180.673 43.4844 181.491C43.7088 181.751 44.5711 183.015 45.3933 184.315C46.8155 186.544 51.6755 192.715 53.8088 195.055C68.3577 210.7 85.7866 220.955 105.571 225.564C108.151 226.157 111.069 226.753 112.04 226.902C113.051 227.013 114.247 227.197 114.658 227.311C119.52 228.24 139.269 228.24 142.969 227.273C143.271 227.162 144.131 227.013 144.84 226.902C151.049 225.935 160.849 223.257 165.411 221.291C166.122 220.957 167.056 220.584 167.469 220.435C167.88 220.286 169.9 219.357 171.958 218.391C188.189 210.737 202.176 198.657 212.387 183.424C216.387 177.515 218.858 172.722 221.736 165.291C222.971 162.131 225.178 154.995 225.513 153.137C225.589 152.617 225.813 151.615 226.002 150.909C226.187 150.202 226.449 149.013 226.562 148.309C226.673 147.602 226.822 146.597 226.936 146.077C228.058 140.206 228.358 127.611 227.536 121.366C227.084 117.911 225.738 111.704 225.291 110.851C225.14 110.591 224.28 112.969 223.344 116.313C222.447 119.546 221.662 122.184 221.624 122.146C221.587 122.109 221.438 121.069 221.324 119.88C220.913 115.606 220.727 114.269 219.829 109.846C218.858 104.98 216.911 98.6242 215.267 94.7975C213.995 91.8997 211.34 86.993 211.04 86.993C210.891 86.993 210.778 89.893 210.778 93.3842C210.667 112.895 208.236 129.951 203.598 143.513C201.167 150.686 196.191 161.313 192.564 167.184C183.887 181.12 170.647 192.044 155.313 197.953C152.06 199.18 144.767 201.224 142.036 201.633C131.04 203.342 122.324 203.155 112.413 201.037C83.6533 194.904 60.4644 171.349 54.9288 142.549C54.0688 138.126 53.9955 137.717 53.6955 133.666C53.3222 128.315 53.5088 120.773 54.1444 117.835C54.22 117.353 54.4066 116.313 54.5177 115.569C54.6288 114.824 55.1533 112.56 55.6777 110.553C56.2022 108.509 56.6511 106.613 56.7244 106.317C57.5111 102.973 62.1466 93.013 64.88 88.6664C70.5644 79.7464 79.2777 71.0508 88.4044 65.2175C96.8177 59.8664 108.524 55.5953 119.036 54.0686C121.727 53.6975 133.171 53.5864 136.051 53.9575C143.384 54.813 144.391 54.9619 149.14 55.8153C166.273 58.9375 183.362 66.2953 203.484 79.3019C206.178 81.0842 208.422 82.3108 208.422 82.0508C208.422 81.3086 204.793 75.2508 202.511 72.1664C198.436 66.593 192.976 60.9819 187.329 56.5597C185.533 55.1108 184.111 53.9219 184.262 53.9219C184.373 53.9219 185.122 54.1442 185.869 54.4419C189.236 55.7042 195.78 57.6753 196.118 57.5619C196.34 57.4886 194.958 55.853 193.013 53.9575C183.662 44.6308 171.507 37.4219 157.669 33.0019C153.478 31.6219 147.082 30.0219 144.278 29.613C143.456 29.4664 141.433 29.1686 139.789 28.9086C138.107 28.6486 135.002 28.3886 132.871 28.313C130.702 28.2753 128.869 28.1642 128.72 28.053C128.609 27.9797 128.42 27.9797 128.344 28.053V28.0553Z" fill="#B8D995"/>
<path d="M127.656 227.945L127.762 227.918L128.42 227.849L129.922 227.742L132.856 227.573L136.122 227.411L138.716 227.233L139.027 227.2L139.46 227.127L141.244 226.856L142.951 226.607C150.244 225.567 159.596 222.927 166.813 219.845C190.323 209.836 209.175 191.304 219.584 167.969C223.851 158.491 226.842 146.973 227.74 136.829C227.792 136.213 227.836 135.531 227.873 134.785L227.933 133.231L227.976 131.562L227.998 129.811C227.976 126.585 227.822 123.576 227.531 121.367L227.407 120.487L227.256 119.527L227.078 118.513L226.782 116.94L226.356 114.882L226.038 113.473L225.838 112.647L225.651 111.938L225.484 111.373C225.43 111.195 225.364 111.019 225.287 110.849C225.259 110.802 225.21 110.839 225.14 110.96L225.02 111.191L224.873 111.531L224.609 112.229L224.302 113.127L223.96 114.2L223.596 115.422L222.249 120.156L221.756 121.78L221.631 122.136C221.627 122.143 221.624 122.146 221.622 122.145L221.591 122.031L221.544 121.747L221.453 121.076L221.353 120.198L221.096 117.62L220.951 116.36L220.798 115.202L220.622 114.056L220.522 113.462L220.287 112.176L219.827 109.845C218.856 104.978 216.909 98.6223 215.264 94.7957L214.949 94.0934L214.404 92.949L214.009 92.1534L213.191 90.5623L212.591 89.4468L212.04 88.469L211.72 87.9223L211.444 87.4868C211.24 87.1734 211.096 86.9912 211.038 86.9912C211.017 86.9912 210.998 87.0431 210.98 87.1468L210.942 87.4134L210.909 87.7979L210.851 88.8779L210.8 90.7045L210.778 92.9112V93.3823C210.664 112.893 208.233 129.949 203.596 143.511C202.911 145.501 202.164 147.469 201.356 149.411L200.46 151.531C197.998 157.242 194.98 163.269 192.562 167.182C183.884 181.118 170.644 192.042 155.311 197.951L154.793 198.142L153.602 198.551L152.942 198.767L151.524 199.211L150.018 199.658L149.249 199.88L147.707 200.309L146.951 200.511L145.491 200.889L144.151 201.209C143.307 201.402 142.58 201.549 142.033 201.631C131.44 203.276 122.967 203.165 113.498 201.26L111.582 200.989L109.756 200.696L107.671 200.331L106.86 200.187C89.7311 197.065 72.6378 189.707 52.5178 176.7L51.3956 175.973L50.36 175.329L49.4445 174.787L48.6756 174.362L48.2622 174.151L48.0889 174.071L47.8111 173.958C47.66 173.906 47.583 173.904 47.58 173.951C47.58 174.058 47.6534 174.271 47.7889 174.571L48.0311 175.08L48.3534 175.696L48.7422 176.402L49.4289 177.593L50.2067 178.882L51.0378 180.216L51.8867 181.527L52.4422 182.356L52.9822 183.133L53.4889 183.836C57.3111 189.06 62.3489 194.32 67.6178 198.6L68.9867 199.696L70.6178 201.036L71.3645 201.678L71.6022 201.896C71.7267 202.017 71.7726 202.079 71.74 202.08L71.58 202.049L71.2689 201.96L70.8578 201.827L70.3822 201.658L69.7734 201.427L68.5822 201.005L67.2711 200.56L65.4422 199.971L63.2356 199.293L61.3845 198.765L60.5645 198.553L60.1778 198.469L59.9422 198.436L59.8845 198.44C59.8222 198.46 59.8845 198.6 60.0489 198.836L60.2934 199.158L60.6245 199.558L61.0356 200.027L61.52 200.553L62.0689 201.125L62.6689 201.731L62.9889 202.042C72.0267 211.06 83.6867 218.098 96.9556 222.551L98.3334 223.002C98.7748 223.148 99.2378 223.294 99.7222 223.442L101.218 223.887L102.778 224.327L104.364 224.751L105.156 224.956L106.702 225.34L108.173 225.685L109.529 225.98L110.724 226.216C111.093 226.284 111.426 226.34 111.722 226.385L113.02 226.596L116.211 227.089L116.756 227.167L118.044 227.318C118.511 227.367 118.997 227.413 119.502 227.456L121.013 227.571C121.762 227.622 122.489 227.66 123.129 227.682L124.307 227.713L125.962 227.787L126.689 227.842L127.029 227.882L127.233 227.925L127.28 227.945C127.391 228.018 127.58 228.018 127.656 227.945Z" fill="#9FD3EE"/>
</g>
<defs>
<clipPath id="clip0_1251_8959">
<rect width="200" height="200" fill="white" transform="translate(28 28)"/>
</clipPath>
</defs>
</svg>
