<svg width="256" height="256" viewBox="0 0 256 256" fill="none" xmlns="http://www.w3.org/2000/svg">
<rect width="256" height="256" fill="white"/>
<g clip-path="url(#clip0_1251_8931)">
<mask id="mask0_1251_8931" style="mask-type:luminance" maskUnits="userSpaceOnUse" x="20" y="10" width="631" height="218">
<path d="M650.631 10.8257H20.675V227.943H650.631V10.8257Z" fill="white"/>
</mask>
<g mask="url(#mask0_1251_8931)">
<path d="M85.28 28.0059C83.4133 28.3075 81.1732 29.2839 79.5936 30.4901C74.8118 34.1231 71.1071 41.8342 69.5419 51.4408C68.9531 55.0738 68.5511 60.114 68.5511 63.9623C68.5511 68.5 69.0824 74.3013 69.8435 78.3077C70.0158 79.1979 70.1019 79.9877 70.0301 80.0452C69.9727 80.1026 69.2691 80.6769 68.4793 81.3088C65.7797 83.4627 62.6924 86.7798 60.5672 89.8096C56.489 95.5966 53.8469 102.173 52.7411 109.296C52.3104 112.11 52.1955 117.797 52.5401 120.611C53.3012 127.102 55.254 132.587 58.5999 137.613L59.6912 139.235L59.3753 139.767C57.1352 143.529 55.2254 148.971 54.3351 154.199C53.6315 158.334 53.5453 159.439 53.5453 164.982C53.5453 170.569 53.617 171.674 54.2777 175.537C55.0674 180.16 56.6756 185.057 58.4706 188.317C59.0594 189.379 60.4953 191.591 60.6677 191.705C60.7251 191.734 60.5527 192.265 60.2799 192.884C58.2122 197.407 56.4459 203.423 55.7136 208.492C55.1966 211.967 55.1248 213.088 55.1248 216.749C55.1248 221.416 55.3833 223.685 56.3598 227.404L56.5033 227.95H62.6493H68.8096L68.4075 227.188C65.9233 222.593 65.6936 214.063 67.8331 205.549C68.8096 201.613 69.9153 198.727 71.9831 194.75L73.2179 192.338V190.859C73.2179 189.48 73.1893 189.322 72.7441 188.417C72.3994 187.728 71.94 187.139 71.1215 186.336C69.7285 184.985 68.7234 183.563 67.9192 181.812C64.3868 174.144 63.6975 162.756 66.1818 153.05C67.2156 149 68.9245 145.396 70.7194 143.429C71.94 142.078 72.5717 140.571 72.5717 139.006C72.5717 137.383 71.9974 136.047 70.705 134.655C67.0002 130.692 64.7171 125.867 63.8986 120.253C62.7354 112.254 64.8463 103.537 69.6424 96.6305C74.338 89.8527 80.929 85.5018 88.2955 84.3387C89.9469 84.0658 93.0342 84.1089 94.7573 84.4248C96.6385 84.7551 97.8159 84.6546 99.0222 84.0802C100.516 83.3766 101.262 82.5007 102.138 80.4903C102.914 78.6953 103.517 77.7189 105.139 75.6942C107.092 73.2674 108.973 71.6161 111.989 69.6201C115.435 67.3656 119.355 65.7286 123.261 64.9388C124.683 64.6516 125.343 64.6085 128 64.6085C130.656 64.6085 131.317 64.6516 132.738 64.9388C138.468 66.102 144.154 69.0601 148.692 73.253C149.668 74.1577 152.009 77.0583 152.756 78.2645C153.043 78.7384 153.545 79.7436 153.862 80.4903C154.737 82.5007 155.484 83.3766 156.978 84.0802C158.141 84.6402 159.361 84.7551 161.17 84.4535C164.028 83.9654 166.225 84.0084 169.026 84.5828C178.56 86.507 186.86 94.3617 190.536 104.887C193.738 114.121 192.833 123.785 188.066 131.166C187.262 132.415 186.457 133.42 185.294 134.655C182.782 137.34 182.782 140.672 185.28 143.429C189.387 147.923 191.958 158.98 191.182 168.73C190.665 175.163 189.014 180.922 186.745 184.182C186.343 184.756 185.51 185.732 184.879 186.336C184.06 187.139 183.6 187.728 183.256 188.417C182.811 189.322 182.782 189.48 182.782 190.859V192.338L184.017 194.75C186.085 198.727 187.19 201.613 188.167 205.549C190.277 213.949 190.091 222.306 187.679 227.059C187.477 227.461 187.305 227.834 187.305 227.878C187.305 227.921 190.048 227.95 193.408 227.95H199.496L199.655 227.332C199.741 227.002 199.884 226.499 199.956 226.211C200.113 225.58 200.43 223.713 200.689 221.919C200.932 220.109 200.932 213.446 200.689 211.435C199.769 204.141 198.233 198.355 195.719 192.884C195.447 192.265 195.275 191.734 195.332 191.705C195.404 191.662 195.806 191.088 196.236 190.442C199.367 185.703 201.292 179.744 202.267 171.875C202.526 169.707 202.526 160.387 202.267 158.305C201.578 152.934 200.746 149.288 199.367 145.597C198.793 144.06 197.27 140.815 196.624 139.767L196.309 139.235L197.399 137.613C200.746 132.587 202.698 127.102 203.46 120.611C203.804 117.797 203.689 112.11 203.258 109.296C202.138 102.159 199.51 95.611 195.433 89.8096C193.307 86.7798 190.22 83.4627 187.52 81.3088C186.731 80.6769 186.027 80.1026 185.97 80.0452C185.897 79.9877 185.984 79.1979 186.156 78.3077C187.894 69.2467 187.836 57.9457 186.013 49.1146C184.433 41.4178 181.562 35.3006 177.857 31.7681C174.898 28.9537 171.883 27.7475 168.264 27.9772C159.964 28.4654 153.273 38.0146 150.631 53.0634C150.2 55.4902 149.826 58.3334 149.826 59.1089C149.826 59.4104 149.769 59.6545 149.697 59.6545C149.625 59.6545 149.065 59.3673 148.462 59.0083C142.058 55.2173 134.935 53.1926 128 53.1926C121.064 53.1926 113.942 55.2173 107.537 59.0083C106.934 59.3673 106.374 59.6545 106.302 59.6545C106.231 59.6545 106.173 59.4104 106.173 59.1089C106.173 58.3047 105.786 55.3753 105.369 53.0634C102.971 39.5511 97.4713 30.605 90.1623 28.3506C89.1571 28.049 86.2996 27.8479 85.28 28.0059ZM87.7212 39.6946C89.789 41.3316 92.0865 46.0129 93.4076 51.2541C93.6517 52.2018 93.9102 53.2932 93.9819 53.6952C94.0394 54.083 94.1973 54.9589 94.3266 55.6338C94.8866 58.6781 95.1451 61.9664 95.1738 65.9727L95.1881 69.9216L94.1973 71.3863L93.2065 72.8653H90.8947C88.195 72.8653 85.5098 73.21 82.9394 73.8992C82.0204 74.129 81.1301 74.3588 80.9578 74.4019C80.685 74.4593 80.6419 74.3731 80.4839 73.1956C79.6367 66.8055 79.6798 59.7263 80.6132 53.8388C81.6471 47.2765 84.0595 41.3316 86.4145 39.5797C86.9745 39.1634 87.075 39.1777 87.7212 39.6946ZM169.6 39.5941C171.021 40.6424 172.586 43.4282 173.749 46.9893C176.091 54.1117 176.751 63.8906 175.515 73.1956C175.358 74.3731 175.315 74.4593 175.042 74.4019C174.869 74.3588 173.98 74.129 173.06 73.8992C170.49 73.21 167.804 72.8653 165.105 72.8653H162.793L161.802 71.3863L160.812 69.9216L160.826 65.9727C160.855 60.4012 161.372 56.0503 162.607 51.211C163.913 46.0129 166.225 41.3316 168.278 39.6946C168.924 39.1777 169.026 39.1634 169.6 39.5941Z" fill="black"/>
<path d="M125.774 111.866C122.658 112.167 121.811 112.282 120.317 112.583C117.891 113.086 114.645 114.206 112.391 115.312C104.551 119.146 99.1514 125.536 97.5001 132.931C97.1698 134.396 97.1267 134.884 97.1267 137.354C97.1267 139.795 97.1698 140.327 97.4856 141.719C99.6827 151.383 108.586 158.52 120.102 159.826C122.601 160.1 133.399 160.1 135.898 159.826C145.145 158.778 153.1 153.767 156.676 146.73C157.624 144.85 158.084 143.629 158.514 141.719C158.83 140.327 158.873 139.795 158.873 137.354C158.873 134.884 158.83 134.396 158.499 132.931C156.102 122.191 145.677 113.732 132.896 112.124C131.23 111.923 126.865 111.751 125.774 111.866ZM131.144 119.677C135.409 120.137 139.703 121.659 143.149 123.957C145.002 125.191 147.615 127.776 148.735 129.471C150.114 131.567 150.903 133.707 151.262 136.305C151.42 137.498 151.334 138.402 150.903 140.327C150.228 143.198 148.132 146.199 145.303 148.296C143.982 149.258 141.24 150.651 139.56 151.197C136.372 152.216 134.289 152.403 126.851 152.346C121.998 152.303 121.136 152.26 119.743 152.001C114.99 151.11 111.228 149.215 108.499 146.329C106.288 144.002 105.283 141.878 104.737 138.445C104.493 136.851 104.953 134.21 105.886 131.983C107.02 129.269 109.95 125.895 112.85 123.957C116.211 121.717 120.633 120.123 124.697 119.692C126.262 119.52 129.579 119.52 131.144 119.677Z" fill="black"/>
<path d="M122.514 130.161C121.423 130.749 120.662 132.242 120.892 133.348C121.15 134.54 122.199 135.746 123.836 136.737C124.711 137.269 124.769 137.34 124.812 137.872C124.841 138.187 124.726 139.092 124.568 139.896C124.396 140.686 124.266 141.518 124.266 141.749C124.281 142.366 124.855 143.371 125.458 143.86C125.99 144.29 126.09 144.304 127.583 144.348C128.947 144.391 129.235 144.362 129.781 144.103C131.187 143.414 131.547 142.151 131.03 139.724C130.599 137.699 130.685 137.383 131.762 136.766C132.896 136.105 134.103 134.942 134.461 134.152C135.151 132.644 134.519 130.936 132.997 130.146C132.624 129.959 132.164 129.873 131.489 129.873C130.441 129.873 129.766 130.118 128.531 130.907L127.827 131.352L127.382 131.079C125.559 130.002 125.228 129.873 124.123 129.887C123.333 129.887 122.902 129.959 122.514 130.161Z" fill="black"/>
<path d="M87.6494 113.489C85.1078 114.293 83.2123 116.159 82.2358 118.816C81.762 120.08 81.5323 122.076 81.7333 123.153C82.2072 125.723 84.3181 128.064 86.716 128.71C89.7316 129.499 91.9861 128.982 93.982 127.001C95.1452 125.867 95.777 124.876 96.4088 123.268C96.8683 122.133 96.8971 121.933 96.8971 120.324L96.9114 118.6L96.3083 117.366C95.3462 115.413 93.6086 113.962 91.5984 113.431C90.4639 113.144 88.6403 113.158 87.6494 113.489Z" fill="black"/>
<path d="M164.344 113.445C162.376 113.977 160.625 115.441 159.691 117.365L159.088 118.6L159.102 120.323C159.102 121.932 159.131 122.133 159.591 123.268C160.222 124.876 160.855 125.867 162.018 127.001C164.013 128.982 166.269 129.499 169.284 128.71C171.021 128.25 172.758 126.785 173.592 125.077C174.309 123.626 174.482 122.579 174.252 120.927C173.721 117.15 171.509 114.407 168.221 113.445C167.259 113.158 165.392 113.158 164.344 113.445Z" fill="black"/>
</g>
</g>
<defs>
<clipPath id="clip0_1251_8931">
<rect width="151.324" height="200" fill="white" transform="translate(52.3379 27.9502)"/>
</clipPath>
</defs>
</svg>
