<svg width="256" height="256" viewBox="0 0 256 256" fill="none" xmlns="http://www.w3.org/2000/svg">
<path fill-rule="evenodd" clip-rule="evenodd" d="M128.216 28.2165C124.398 28.2165 120.572 28.5093 116.98 28.8021C122.325 32.4417 127.366 36.5083 132.054 40.9621L135.879 44.5145L132.054 48.3397C128.68 51.4753 125.52 54.8333 122.595 58.3913V58.6837C122.07 59.248 121.577 59.841 121.118 60.4597C123.475 60.2128 125.846 60.1151 128.216 60.1673C146.09 60.4069 163.147 67.6841 175.7 80.4033C188.251 93.1296 195.286 110.286 195.284 128.16C195.284 146.035 188.252 163.191 175.7 175.91C163.147 188.636 146.089 195.908 128.216 196.153C115.678 196.226 103.376 192.74 92.7396 186.101C87.6382 186.687 82.5078 186.985 77.3728 186.993C75.0006 187.041 72.6277 186.938 70.2684 186.687C70.5461 194.698 71.2411 202.689 72.3504 210.628C88.8006 221.882 108.285 227.865 128.216 227.784C141.321 227.784 154.293 225.203 166.4 220.187C178.506 215.172 189.507 207.823 198.776 198.561C208.043 189.295 215.392 178.293 220.403 166.185C225.418 154.079 228 141.104 228 128C228 114.895 225.418 101.923 220.403 89.8161C215.392 77.7076 208.043 66.7058 198.776 57.4401C189.507 48.1775 178.506 40.8289 166.4 35.8129C154.294 30.7973 141.319 28.2163 128.216 28.2165ZM74.12 44.1821C80.9441 39.7501 88.2881 36.1752 95.986 33.5381C93.4719 38.1459 91.1959 42.8798 89.1672 47.7209C84.2219 46.2595 79.1982 45.0781 74.12 44.1821ZM68.512 80.4633C72.4968 80.1973 76.2888 79.9377 80.3264 79.9377C76.1455 83.9394 72.561 88.5208 69.6828 93.5417C68.6119 89.2649 67.8209 84.9227 67.3148 80.5429L68.512 80.4629V80.4633ZM64.96 180.759V181.345L64.0616 181.079C56.4564 180.432 48.9325 179.044 41.5972 176.934L41.0116 176.641L41.3044 176.043C43.575 168.971 46.3381 162.067 49.5732 155.381L49.8792 154.782L50.4648 155.081C55.4407 157.918 60.5733 160.469 65.838 162.725L66.4368 163.018V163.603C65.4863 169.273 64.9924 175.01 64.96 180.759V180.759ZM64.96 186.653V186.068H64.3544C57.8879 185.396 51.471 184.312 45.1428 182.821L43.3668 182.529L44.258 184.005C50.0515 192.705 57.13 200.477 65.2524 207.055L66.4364 208.239V206.164C65.5322 199.698 65.039 193.181 64.96 186.653ZM121.118 45.0601C119.056 47.1357 116.974 49.4969 114.912 51.8653C114.659 52.1581 113.142 53.9273 111.359 56.3157C107.228 54.3465 102.991 52.6569 98.7932 50.9805L98.068 50.6945C100.398 44.9684 103.163 39.4287 106.337 34.1237C111.451 37.5088 116.385 41.1591 121.118 45.0597V45.0601ZM47.218 108.922L47.5112 109.507L48.0964 109.214C52.752 105.894 57.589 102.836 62.5848 100.054L63.1704 99.7613V99.1625C61.641 93.4475 60.5556 87.6228 59.924 81.7405V81.1417H59.3388C51.9852 82.4829 44.7623 84.4618 37.752 87.0561L37.16 87.3489L37.4528 87.9473C39.792 95.33 43.0743 102.38 47.2184 108.922L47.218 108.922ZM45.4488 118.967L46.0344 118.381L46.3868 119.226C49.6034 123.737 53.0586 128.074 56.7376 132.218L57.0304 132.517L56.7376 133.116C53.49 137.462 50.511 142.003 47.8172 146.713L47.5244 147.298L46.9388 147.006C41.1683 143.208 35.6344 139.063 30.368 134.592L29.7696 133.993L30.368 133.455C35.021 128.25 40.0625 123.407 45.4488 118.966V118.967ZM77.3664 181.644H87.1184L85.6416 180.46C80.2814 176.132 75.6852 170.935 72.0444 165.087V164.794L70.8672 164.195V165.087C70.1669 170.285 69.7715 175.521 69.6832 180.766V181.351H70.2684C71.4592 181.351 72.6364 181.424 73.8204 181.497C75.0044 181.571 76.182 181.644 77.3664 181.644ZM86.24 56.6017C84.5503 61.3376 83.166 66.177 82.0956 71.0901C76.961 71.0711 71.8298 71.3554 66.7288 71.9417C66.3873 65.4388 66.4851 58.9203 67.0216 52.4305C73.5173 53.3704 79.9391 54.7642 86.24 56.6017ZM91.5552 70.7709C95.9779 68.0971 100.631 65.8241 105.458 63.9789C102.014 62.2547 98.4529 60.7743 94.8012 59.5485C93.6304 63.0877 92.4464 66.9393 91.5552 70.7709ZM44.564 151.835H45.1428L44.8568 153.006C42.1954 158.398 39.826 163.93 37.7588 169.577L37.1736 171.053L36.588 169.577C32.4983 160.785 29.8029 151.411 28.5988 141.79L28.306 140.007L29.7828 141.191C34.5154 145.002 39.4496 148.555 44.564 151.835V151.835ZM57.8552 57.1869C51.9131 63.1093 46.7493 69.7641 42.4884 76.9909C47.4712 75.5205 52.7596 74.3565 58.0348 73.1925L58.1548 73.1657C57.8552 67.8241 57.8552 62.5153 57.8552 57.1869ZM60.8152 125.472V127.242L59.9708 125.752C57.7288 123.291 55.6668 120.477 53.6376 117.723C52.9856 116.845 52.3472 115.967 51.7016 115.115L50.8104 114.516L51.4092 114.223C55.0812 111.662 58.7532 109.387 62.4188 107.112L62.8776 106.826L64.3544 105.948L63.7692 107.731C62.024 113.493 61.0308 119.456 60.8152 125.472ZM61.6936 137.599L61.4008 135.83L60.5228 137.307C57.862 141.132 55.1944 145.283 52.8728 149.427L52.5668 150.013L53.172 150.305C57.1832 152.607 61.4872 154.623 65.798 156.645L66.1704 156.818L67.6472 157.403L67.062 155.926C64.3872 150.112 62.5786 143.938 61.6936 137.599ZM42.7816 113.305L42.1824 113.598C37.3549 117.202 32.9893 121.387 29.184 126.058L28 127.242V125.472C28.2247 115.932 29.8175 106.474 32.7296 97.3865L33.3284 95.6169L33.914 97.0937C36.4817 102.452 39.3442 107.665 42.4884 112.707L42.7816 113.305Z" fill="#43B049"/>
</svg>
