<svg width="256" height="256" viewBox="0 0 256 256" fill="none" xmlns="http://www.w3.org/2000/svg">
<rect width="256" height="256" fill="white"/>
<path d="M94.9535 91.2465C105.854 91.2465 109.894 84.5598 109.894 76.2931C109.894 68.0265 105.874 61.3331 94.9602 61.3331C84.0335 61.3331 80.0068 68.0198 80.0068 76.2931C80.0068 84.5598 84.0335 91.2465 94.9468 91.2465H94.9535Z" fill="#0033FF"/>
<path d="M147.22 94.4662V104.086H122.693V125.44H147.227V178.853H106.673V104.066H53.34V125.42H83.2067V178.833H48V200.186H208V178.833H170.667V125.42H208V104.066H170.667V82.7062H208V61.3529H180.26C171.486 61.3688 163.077 64.8639 156.877 71.0715C150.677 77.2792 147.192 85.6926 147.187 94.4662H147.22Z" fill="#0033FF"/>
</svg>
