<svg width="256" height="256" viewBox="0 0 256 256" fill="none" xmlns="http://www.w3.org/2000/svg">
<rect width="256" height="256" fill="white"/>
<g clip-path="url(#clip0_1251_8941)">
<path d="M119.74 71.7502L134.44 57.0502L153.44 44.3502C153.44 44.3502 168.04 41.0502 168.74 40.9502C169.44 40.8502 191.34 43.8502 191.34 43.8502L202.74 48.6502L215.74 58.3502L222.34 66.3502L229.94 84.5502L230.74 104.35L219.54 127.65L209.64 136.95L189.24 150.45L168.74 159.25L153.84 165.75L140.94 180.95L128.94 191.05C128.84 191.15 103.74 206.65 103.74 206.65L78.24 214.35L67.84 213.35L51.64 210.25L44.04 205.65L37.04 208.75L30.94 206.55L27.94 200.55C27.94 200.55 29.44 188.65 29.44 187.45C29.44 186.25 26.94 179.95 26.94 179.95L24.94 160.95C24.94 160.95 30.84 137.95 31.14 137.45C31.44 136.95 42.44 120.55 42.44 120.55C42.44 120.55 59.34 105.75 59.94 105.35C60.54 104.95 76.64 95.9502 76.64 95.9502C88.44 92.1502 99.94 87.3502 111.04 81.5502L119.74 71.7502Z" fill="#FADA9D"/>
<path d="M182.14 57.05C183.24 58.15 185.74 59.95 186.14 61.45C186.84 63.85 184.14 65.35 182.44 66.15L172.44 70.85C170.34 72.05 167.94 72.75 165.54 73.05C160.74 73.25 156.64 69.95 153.04 66.85C151.34 65.35 149.44 63.55 149.54 61.35C149.74 59.85 150.44 58.35 151.64 57.35C156.24 52.65 162.74 50.25 169.34 50.85C174.24 51.35 178.74 53.55 182.14 57.05ZM112.34 92.05C114.24 91.15 116.44 89.55 118.54 89.35C122.04 88.95 125.84 93.45 125.24 96.75C124.84 99.55 122.04 101.25 119.54 102.55C104.54 110.75 89.34 118.95 74.24 127.15C72.84 128.05 71.14 128.65 69.44 128.95C67.04 129.15 64.74 127.85 62.64 126.55C60.94 125.55 59.14 124.35 58.64 122.35C58.34 120.65 58.94 118.85 60.24 117.65C61.54 116.45 63.04 115.55 64.64 114.85L104.94 95.55L112.34 92.05ZM61.04 131.75C62.54 134.15 60.14 136.35 58.84 138.35C55.54 143.25 51.94 147.95 48.04 152.35C46.84 153.95 45.24 155.25 43.34 156.15C41.44 156.85 38.94 156.55 37.84 154.85C36.64 152.95 37.44 150.55 38.24 148.45L42.84 137.35C43.94 134.65 45.14 131.95 47.24 130.05C49.44 128.15 52.34 127.45 55.14 127.95C57.54 128.45 59.64 129.75 61.04 131.75ZM35.34 169.25C35.24 166.15 35.54 163.05 36.24 159.95L40.14 161.35C38.54 164.05 36.94 166.45 35.34 169.25ZM42.44 190.15C47.44 189.35 52.44 188.05 57.24 186.35C59.84 185.45 63.64 184.45 61.74 180.95C61.04 179.55 60.24 178.25 59.34 177.05C57.74 174.75 55.64 172.75 53.34 171.15C47.94 167.45 44.04 173.45 41.64 177.95C40.04 180.85 39.04 183.95 38.64 187.15C38.44 187.85 38.54 188.65 38.94 189.35C39.64 190.35 41.14 190.25 42.44 190.15ZM65.24 196.15C60.94 197.55 56.34 198.35 51.84 198.55C56.34 200.85 61.24 201.95 66.24 201.95C65.84 200.05 65.74 197.85 65.24 196.15ZM94.84 195.25C94.84 196.25 94.64 197.25 94.24 198.15C93.34 199.25 92.04 200.05 90.64 200.35C86.14 201.75 81.44 202.55 76.64 202.65H76.44C74.74 202.55 73.44 201.15 73.54 199.45C73.54 197.45 74.04 195.55 74.94 193.85C76.24 191.75 78.44 190.35 80.54 189.15C83.24 187.65 85.94 186.25 88.74 184.95C88.84 184.95 88.94 184.85 89.04 184.85C90.64 184.35 92.34 185.15 92.94 186.75C93.94 189.45 94.94 192.45 94.84 195.25ZM62.54 172.05C60.14 169.55 57.64 167.25 55.04 165.05C53.24 163.45 52.74 160.75 53.94 158.65C57.24 153.05 61.64 148.05 66.94 144.15C68.54 142.95 70.54 141.75 72.54 141.95C74.74 142.15 76.54 143.85 78.04 145.55C80.64 148.15 82.94 150.95 84.94 153.95C86.94 157.05 87.84 160.65 87.54 164.35C87.04 168.65 84.24 172.45 80.84 175.15C78.64 176.85 76.14 178.35 73.64 179.45C71.34 180.55 68.54 179.75 67.04 177.65C65.64 175.65 64.14 173.75 62.54 172.05ZM127.74 169.85C128.34 172.75 128.04 175.85 126.84 178.55C125.14 181.95 121.64 184.05 118.34 186.05L104.34 194.35C104.04 194.55 103.64 194.65 103.24 194.75C101.64 194.95 100.14 193.85 99.94 192.25C99.34 187.85 99.24 183.35 101.14 179.45C102.64 176.75 104.54 174.35 106.84 172.35L115.74 163.35C116.54 162.55 117.34 161.85 118.34 161.35C124.94 157.75 126.84 165.25 127.74 169.85ZM101.94 123.55C105.54 122.25 109.84 126.85 111.74 129.55C113.94 132.55 114.84 136.25 114.54 139.95C113.74 146.25 108.74 151.15 103.94 155.45C102.54 156.85 100.94 158.05 99.24 158.95C97.54 159.85 95.44 160.05 93.54 159.35C91.74 158.55 90.54 156.75 89.54 155.15L82.94 144.45C81.64 142.35 80.14 139.85 80.64 137.35C81.24 134.15 84.44 132.25 87.34 130.85C92.04 128.45 96.84 125.45 101.94 123.55ZM141.54 150.15C143.34 151.45 144.74 153.25 145.44 155.35C146.24 158.15 145.24 161.25 143.44 163.65C142.44 164.95 141.24 166.25 140.04 167.35C139.74 167.65 139.44 167.85 139.04 167.95C137.44 168.55 135.64 167.75 135.04 166.15L126.94 144.25C132.24 145.95 137.24 146.75 141.54 150.15ZM122.24 111.15C120.54 112.45 117.04 113.85 118.44 116.35C119.54 118.35 122.14 119.75 123.54 121.65C123.84 122.05 126.74 127.65 126.44 127.65C129.04 127.45 131.64 126.85 134.14 125.95C136.64 125.05 138.64 123.05 139.64 120.65C140.04 119.55 140.14 118.35 140.04 117.25C139.94 113.45 137.94 110.15 135.94 107.05C135.14 105.85 134.14 104.45 132.74 104.35C131.54 104.15 130.34 104.95 129.34 105.75L122.24 111.15ZM160.54 145.45C160.84 149.15 161.74 148.85 165.34 148.45C171.04 147.75 176.64 146.55 182.14 144.85C183.54 144.45 184.74 143.25 185.14 141.85C186.44 137.65 186.74 133.25 185.94 129.05C185.84 127.45 185.14 125.95 183.94 124.75C182.14 123.35 179.64 123.85 177.54 124.35L160.94 128.35C160.04 128.55 159.24 128.95 158.54 129.45C155.94 131.65 157.24 134.15 158.24 136.45C159.44 139.45 160.24 142.45 160.54 145.45ZM141.44 69.05C143.94 70.05 146.04 72.05 148.24 73.55C149.94 74.75 151.84 76.55 151.44 78.65C151.14 80.15 149.74 81.15 148.44 81.95L142.14 85.95C139.14 87.85 135.54 89.85 132.14 88.85C129.24 87.95 127.44 85.15 127.74 82.15C128.04 79.65 129.84 77.65 131.64 75.75C134.14 73.05 136.74 67.25 141.44 69.05ZM146.04 92.05C144.14 93.65 141.34 95.65 141.04 98.35C140.54 103.25 145.84 109.95 149.64 112.35C153.14 114.55 157.54 115.05 161.74 114.45C165.84 113.65 169.84 112.45 173.64 110.75C175.04 110.15 176.64 109.45 176.84 107.95C176.84 107.05 176.64 106.15 176.14 105.45L168.64 91.35C167.14 88.65 165.44 85.65 162.44 84.75C159.94 84.05 157.24 85.05 154.94 86.25C151.74 88.05 148.84 89.85 146.04 92.05ZM173.24 82.15C172.54 81.25 170.44 79.35 170.84 78.15C171.24 76.95 173.74 76.05 174.84 75.55C177.94 74.05 181.34 72.95 184.74 72.25C187.34 71.55 190.14 71.65 192.74 72.45C195.84 73.65 198.04 76.35 199.64 79.25C201.84 82.95 202.84 87.15 202.64 91.35C202.44 95.65 200.14 99.55 196.64 101.95C194.84 103.05 192.44 103.65 190.64 102.65C189.84 102.15 189.14 101.45 188.54 100.65L173.24 82.15ZM209.54 112.15C213.54 116.05 211.74 124.65 209.54 128.85C206.84 133.95 202.04 137.65 196.44 139.05L195.54 123.15C195.24 121.25 195.44 119.35 196.04 117.55C197.54 113.45 205.54 108.25 209.54 112.15ZM215.74 70.05C211.74 68.65 207.44 69.65 203.44 71.25C206.04 74.35 208.14 77.75 209.74 81.55C212.64 78.15 214.74 74.25 215.74 70.05ZM206.94 61.25C203.04 61.65 198.74 62.85 194.84 63.25C193.54 58.45 190.74 54.15 186.94 50.95C194.94 51.35 201.54 55.25 206.94 61.25ZM221.74 85.05C220.84 89.95 218.84 94.55 215.84 98.55C217.94 102.85 218.94 107.65 218.84 112.45C223.54 104.45 224.04 94.15 221.74 85.05Z" fill="#D59950"/>
<path opacity="0.21" d="M33.44 207.25C36.84 208.55 40.74 207.65 43.34 205.05C61.94 216.25 86.24 214.65 105.94 205.55C125.64 196.45 140.84 180.25 155.04 163.95C169.14 159.15 183.34 154.35 196.04 146.65C208.74 138.95 220.04 128.15 225.64 114.35C230.34 102.75 231.14 88.9504 226.94 77.1504C213.64 103.05 190.74 119.65 162.34 125.85C159.34 136.95 152.74 146.85 144.64 155.05C136.54 163.25 126.74 169.65 116.54 175.05C95.14 186.45 70.94 193.45 46.94 196.25C41.94 200.55 34.84 201.25 29.04 198.15C29.34 201.75 30.04 206.15 33.44 207.25Z" fill="black"/>
<path d="M164.14 137.75C162.94 150.25 157.24 162.05 149.44 171.85C141.64 181.65 131.74 189.65 121.34 196.65C109.94 204.35 97.54 210.95 84.04 213.45C70.54 215.95 54.94 214.15 44.14 205.65C41.74 206.85 39.14 207.55 36.44 207.85C33.74 207.95 30.84 206.95 29.34 204.85C27.84 202.75 27.94 199.95 28.14 197.35C28.34 193.25 30.64 188.95 29.04 185.25C21.34 167.35 24.94 145.95 35.54 129.55C46.14 113.15 62.74 101.65 80.74 94.05C98.74 86.45 117.84 82.55 136.94 78.75" stroke="black" stroke-width="3.83" stroke-linecap="round" stroke-linejoin="round"/>
<path d="M153.84 165.75C172.24 156.75 191.44 152.25 207.14 139.05C222.04 126.65 232.54 107.65 230.54 88.3502C229.24 75.9502 222.74 64.2502 213.44 55.9502C203.74 47.8502 191.94 42.7502 179.44 41.3502C169.34 40.1502 158.94 41.3502 149.94 46.0502C131.74 55.5502 118.64 80.6502 99.24 87.5502" stroke="black" stroke-width="3.83" stroke-linecap="round" stroke-linejoin="round"/>
</g>
<defs>
<clipPath id="clip0_1251_8941">
<rect width="209.7" height="177.4" fill="white" transform="translate(23 39)"/>
</clipPath>
</defs>
</svg>
